G04 EAGLE Gerber RS-274X export*
G75*
%MOMM*%
%FSLAX34Y34*%
%LPD*%
%INSoldermask Bottom*%
%IPPOS*%
%AMOC8*
5,1,8,0,0,1.08239X$1,22.5*%
G01*
%ADD10C,2.006600*%
%ADD11C,3.175000*%
%ADD12C,0.762000*%
%ADD13C,0.777000*%
%ADD14C,0.228344*%
%ADD15C,1.397000*%
%ADD16C,0.225719*%
%ADD17C,0.228688*%
%ADD18C,0.235400*%
%ADD19C,0.223409*%
%ADD20C,1.127000*%
%ADD21C,1.270000*%
%ADD22C,1.627000*%

G36*
X32447Y75717D02*
X32447Y75717D01*
X32442Y75724D01*
X32449Y75730D01*
X32449Y88530D01*
X32447Y88533D01*
X32449Y88535D01*
X32249Y90335D01*
X32244Y90341D01*
X32247Y90346D01*
X32047Y90946D01*
X32042Y90949D01*
X32044Y90952D01*
X31744Y91552D01*
X31741Y91553D01*
X31742Y91555D01*
X31442Y92055D01*
X31427Y92062D01*
X31425Y92072D01*
X30928Y92371D01*
X30530Y92669D01*
X30520Y92669D01*
X30518Y92676D01*
X29518Y93076D01*
X29511Y93074D01*
X29508Y93079D01*
X28908Y93179D01*
X28903Y93176D01*
X28900Y93179D01*
X28100Y93179D01*
X28093Y93174D01*
X28088Y93178D01*
X27694Y93079D01*
X27500Y93079D01*
X27487Y93070D01*
X27478Y93074D01*
X27278Y92974D01*
X27277Y92973D01*
X27276Y92973D01*
X27275Y92969D01*
X27252Y92921D01*
X27268Y92913D01*
X27265Y92895D01*
X27365Y92795D01*
X27377Y92794D01*
X27378Y92786D01*
X27778Y92586D01*
X27783Y92587D01*
X27784Y92583D01*
X28073Y92487D01*
X28462Y92099D01*
X28655Y91808D01*
X28751Y91522D01*
X28751Y91238D01*
X28654Y90949D01*
X28459Y90559D01*
X28169Y90268D01*
X27877Y90074D01*
X27386Y89877D01*
X26895Y89779D01*
X26106Y89779D01*
X25320Y89976D01*
X24734Y90367D01*
X24344Y90854D01*
X24149Y91438D01*
X24149Y92120D01*
X24442Y92803D01*
X25137Y93597D01*
X25937Y94497D01*
X25937Y94498D01*
X26637Y95298D01*
X26638Y95305D01*
X26643Y95306D01*
X27143Y96206D01*
X27142Y96216D01*
X27148Y96219D01*
X27348Y97119D01*
X27345Y97127D01*
X27349Y97130D01*
X27349Y97930D01*
X27342Y97939D01*
X27347Y97946D01*
X27047Y98846D01*
X27038Y98852D01*
X27040Y98859D01*
X26540Y99559D01*
X26532Y99561D01*
X26533Y99567D01*
X25633Y100367D01*
X25624Y100367D01*
X25624Y100373D01*
X24524Y100973D01*
X24512Y100972D01*
X24509Y100978D01*
X23409Y101178D01*
X23403Y101175D01*
X23400Y101179D01*
X22400Y101179D01*
X22391Y101172D01*
X22384Y101177D01*
X21484Y100877D01*
X21484Y100876D01*
X21483Y100876D01*
X20683Y100576D01*
X20681Y100573D01*
X20678Y100574D01*
X20078Y100274D01*
X20075Y100268D01*
X20070Y100269D01*
X19670Y99969D01*
X19669Y99964D01*
X19665Y99965D01*
X19565Y99865D01*
X19563Y99851D01*
X19553Y99843D01*
X19561Y99833D01*
X19557Y99806D01*
X19584Y99802D01*
X19600Y99781D01*
X19900Y99781D01*
X19909Y99788D01*
X19916Y99783D01*
X20208Y99881D01*
X20494Y99881D01*
X20888Y99782D01*
X20890Y99783D01*
X20890Y99782D01*
X21384Y99683D01*
X21774Y99488D01*
X22164Y99196D01*
X22355Y98908D01*
X22453Y98614D01*
X22458Y98611D01*
X22456Y98608D01*
X22554Y98411D01*
X22648Y98130D01*
X22553Y97846D01*
X22554Y97843D01*
X22552Y97842D01*
X22454Y97450D01*
X22259Y97157D01*
X22259Y97153D01*
X22256Y97152D01*
X22059Y96759D01*
X21769Y96468D01*
X21473Y96271D01*
X21472Y96269D01*
X21470Y96269D01*
X21071Y95970D01*
X20775Y95773D01*
X19988Y95379D01*
X19308Y95379D01*
X19022Y95475D01*
X18741Y95662D01*
X18549Y96238D01*
X18549Y97030D01*
X18546Y97034D01*
X18548Y97039D01*
X18539Y97044D01*
X18513Y97077D01*
X18497Y97065D01*
X18478Y97074D01*
X17678Y96674D01*
X17672Y96662D01*
X17663Y96663D01*
X16863Y95763D01*
X16863Y95755D01*
X16857Y95755D01*
X16157Y94555D01*
X16158Y94548D01*
X16154Y94547D01*
X15654Y93147D01*
X15655Y93141D01*
X15652Y93139D01*
X15352Y91539D01*
X15356Y91531D01*
X15351Y91527D01*
X15451Y89727D01*
X15456Y89721D01*
X15453Y89717D01*
X15953Y87917D01*
X15959Y87912D01*
X15957Y87906D01*
X16957Y86106D01*
X16962Y86104D01*
X16961Y86100D01*
X17661Y85200D01*
X17666Y85199D01*
X17665Y85195D01*
X18465Y84395D01*
X18468Y84395D01*
X18468Y84393D01*
X19268Y83693D01*
X19274Y83692D01*
X19275Y83688D01*
X20275Y83088D01*
X20281Y83088D01*
X20282Y83084D01*
X21282Y82684D01*
X21286Y82685D01*
X21287Y82683D01*
X22387Y82383D01*
X22391Y82384D01*
X22392Y82381D01*
X23592Y82181D01*
X23594Y82182D01*
X23599Y82182D01*
X23600Y82181D01*
X25496Y82181D01*
X26083Y82083D01*
X26572Y81790D01*
X27565Y80995D01*
X28062Y80398D01*
X28066Y80398D01*
X28065Y80395D01*
X29362Y79098D01*
X29860Y78401D01*
X29866Y78400D01*
X29865Y78395D01*
X30463Y77797D01*
X30962Y77198D01*
X30966Y77198D01*
X30965Y77195D01*
X31463Y76698D01*
X31761Y76300D01*
X31766Y76299D01*
X31765Y76295D01*
X32062Y75999D01*
X32259Y75703D01*
X32292Y75691D01*
X32300Y75681D01*
X32400Y75681D01*
X32447Y75717D01*
G37*
G36*
X967167Y75717D02*
X967167Y75717D01*
X967162Y75724D01*
X967169Y75730D01*
X967169Y88530D01*
X967167Y88533D01*
X967169Y88535D01*
X966969Y90335D01*
X966964Y90341D01*
X966967Y90346D01*
X966767Y90946D01*
X966762Y90949D01*
X966764Y90952D01*
X966464Y91552D01*
X966461Y91553D01*
X966462Y91555D01*
X966162Y92055D01*
X966147Y92062D01*
X966145Y92072D01*
X965648Y92371D01*
X965250Y92669D01*
X965240Y92669D01*
X965238Y92676D01*
X964238Y93076D01*
X964231Y93074D01*
X964228Y93079D01*
X963628Y93179D01*
X963623Y93176D01*
X963620Y93179D01*
X962820Y93179D01*
X962813Y93174D01*
X962808Y93178D01*
X962414Y93079D01*
X962220Y93079D01*
X962207Y93070D01*
X962198Y93074D01*
X961998Y92974D01*
X961997Y92973D01*
X961996Y92973D01*
X961995Y92969D01*
X961972Y92921D01*
X961988Y92913D01*
X961985Y92895D01*
X962085Y92795D01*
X962097Y92794D01*
X962098Y92786D01*
X962498Y92586D01*
X962503Y92587D01*
X962504Y92583D01*
X962793Y92487D01*
X963182Y92099D01*
X963375Y91808D01*
X963471Y91522D01*
X963471Y91238D01*
X963374Y90949D01*
X963179Y90559D01*
X962889Y90268D01*
X962597Y90074D01*
X962106Y89877D01*
X961615Y89779D01*
X960826Y89779D01*
X960040Y89976D01*
X959454Y90367D01*
X959064Y90854D01*
X958869Y91438D01*
X958869Y92120D01*
X959162Y92803D01*
X959857Y93597D01*
X960657Y94497D01*
X960657Y94498D01*
X961357Y95298D01*
X961358Y95305D01*
X961363Y95306D01*
X961863Y96206D01*
X961862Y96216D01*
X961868Y96219D01*
X962068Y97119D01*
X962065Y97127D01*
X962069Y97130D01*
X962069Y97930D01*
X962062Y97939D01*
X962067Y97946D01*
X961767Y98846D01*
X961758Y98852D01*
X961760Y98859D01*
X961260Y99559D01*
X961252Y99561D01*
X961253Y99567D01*
X960353Y100367D01*
X960344Y100367D01*
X960344Y100373D01*
X959244Y100973D01*
X959232Y100972D01*
X959229Y100978D01*
X958129Y101178D01*
X958123Y101175D01*
X958120Y101179D01*
X957120Y101179D01*
X957111Y101172D01*
X957104Y101177D01*
X956204Y100877D01*
X956204Y100876D01*
X956203Y100876D01*
X955403Y100576D01*
X955401Y100573D01*
X955398Y100574D01*
X954798Y100274D01*
X954795Y100268D01*
X954790Y100269D01*
X954390Y99969D01*
X954389Y99964D01*
X954385Y99965D01*
X954285Y99865D01*
X954283Y99851D01*
X954273Y99843D01*
X954281Y99833D01*
X954277Y99806D01*
X954304Y99802D01*
X954320Y99781D01*
X954620Y99781D01*
X954629Y99788D01*
X954636Y99783D01*
X954928Y99881D01*
X955214Y99881D01*
X955608Y99782D01*
X955610Y99783D01*
X955610Y99782D01*
X956104Y99683D01*
X956494Y99488D01*
X956884Y99196D01*
X957075Y98908D01*
X957173Y98614D01*
X957178Y98611D01*
X957176Y98608D01*
X957274Y98411D01*
X957368Y98130D01*
X957273Y97846D01*
X957274Y97843D01*
X957272Y97842D01*
X957174Y97450D01*
X956979Y97157D01*
X956979Y97153D01*
X956976Y97152D01*
X956779Y96759D01*
X956489Y96468D01*
X956193Y96271D01*
X956192Y96269D01*
X956190Y96269D01*
X955791Y95970D01*
X955495Y95773D01*
X954708Y95379D01*
X954028Y95379D01*
X953742Y95475D01*
X953461Y95662D01*
X953269Y96238D01*
X953269Y97030D01*
X953266Y97034D01*
X953268Y97039D01*
X953259Y97044D01*
X953233Y97077D01*
X953217Y97065D01*
X953198Y97074D01*
X952398Y96674D01*
X952392Y96662D01*
X952383Y96663D01*
X951583Y95763D01*
X951583Y95755D01*
X951577Y95755D01*
X950877Y94555D01*
X950878Y94548D01*
X950874Y94547D01*
X950374Y93147D01*
X950375Y93141D01*
X950372Y93139D01*
X950072Y91539D01*
X950076Y91531D01*
X950071Y91527D01*
X950171Y89727D01*
X950176Y89721D01*
X950173Y89717D01*
X950673Y87917D01*
X950679Y87912D01*
X950677Y87906D01*
X951677Y86106D01*
X951682Y86104D01*
X951681Y86100D01*
X952381Y85200D01*
X952386Y85199D01*
X952385Y85195D01*
X953185Y84395D01*
X953188Y84395D01*
X953188Y84393D01*
X953988Y83693D01*
X953994Y83692D01*
X953995Y83688D01*
X954995Y83088D01*
X955001Y83088D01*
X955002Y83084D01*
X956002Y82684D01*
X956006Y82685D01*
X956007Y82683D01*
X957107Y82383D01*
X957111Y82384D01*
X957112Y82381D01*
X958312Y82181D01*
X958314Y82182D01*
X958319Y82182D01*
X958320Y82181D01*
X960216Y82181D01*
X960803Y82083D01*
X961292Y81790D01*
X962285Y80995D01*
X962782Y80398D01*
X962786Y80398D01*
X962785Y80395D01*
X964082Y79098D01*
X964580Y78401D01*
X964586Y78400D01*
X964585Y78395D01*
X965183Y77797D01*
X965682Y77198D01*
X965686Y77198D01*
X965685Y77195D01*
X966183Y76698D01*
X966481Y76300D01*
X966486Y76299D01*
X966485Y76295D01*
X966782Y75999D01*
X966979Y75703D01*
X967012Y75691D01*
X967020Y75681D01*
X967120Y75681D01*
X967167Y75717D01*
G37*
G36*
X733487Y75717D02*
X733487Y75717D01*
X733482Y75724D01*
X733489Y75730D01*
X733489Y88530D01*
X733487Y88533D01*
X733489Y88535D01*
X733289Y90335D01*
X733284Y90341D01*
X733287Y90346D01*
X733087Y90946D01*
X733082Y90949D01*
X733084Y90952D01*
X732784Y91552D01*
X732781Y91553D01*
X732782Y91555D01*
X732482Y92055D01*
X732467Y92062D01*
X732465Y92072D01*
X731968Y92371D01*
X731570Y92669D01*
X731560Y92669D01*
X731558Y92676D01*
X730558Y93076D01*
X730551Y93074D01*
X730548Y93079D01*
X729948Y93179D01*
X729943Y93176D01*
X729940Y93179D01*
X729140Y93179D01*
X729133Y93174D01*
X729128Y93178D01*
X728734Y93079D01*
X728540Y93079D01*
X728527Y93070D01*
X728518Y93074D01*
X728318Y92974D01*
X728317Y92973D01*
X728316Y92973D01*
X728315Y92969D01*
X728292Y92921D01*
X728308Y92913D01*
X728305Y92895D01*
X728405Y92795D01*
X728417Y92794D01*
X728418Y92786D01*
X728818Y92586D01*
X728823Y92587D01*
X728824Y92583D01*
X729113Y92487D01*
X729502Y92099D01*
X729695Y91808D01*
X729791Y91522D01*
X729791Y91238D01*
X729694Y90949D01*
X729499Y90559D01*
X729209Y90268D01*
X728917Y90074D01*
X728426Y89877D01*
X727935Y89779D01*
X727146Y89779D01*
X726360Y89976D01*
X725774Y90367D01*
X725384Y90854D01*
X725189Y91438D01*
X725189Y92120D01*
X725482Y92803D01*
X726177Y93597D01*
X726977Y94497D01*
X726977Y94498D01*
X727677Y95298D01*
X727678Y95305D01*
X727683Y95306D01*
X728183Y96206D01*
X728182Y96216D01*
X728188Y96219D01*
X728388Y97119D01*
X728385Y97127D01*
X728389Y97130D01*
X728389Y97930D01*
X728382Y97939D01*
X728387Y97946D01*
X728087Y98846D01*
X728078Y98852D01*
X728080Y98859D01*
X727580Y99559D01*
X727572Y99561D01*
X727573Y99567D01*
X726673Y100367D01*
X726664Y100367D01*
X726664Y100373D01*
X725564Y100973D01*
X725552Y100972D01*
X725549Y100978D01*
X724449Y101178D01*
X724443Y101175D01*
X724440Y101179D01*
X723440Y101179D01*
X723431Y101172D01*
X723424Y101177D01*
X722524Y100877D01*
X722524Y100876D01*
X722523Y100876D01*
X721723Y100576D01*
X721721Y100573D01*
X721718Y100574D01*
X721118Y100274D01*
X721115Y100268D01*
X721110Y100269D01*
X720710Y99969D01*
X720709Y99964D01*
X720705Y99965D01*
X720605Y99865D01*
X720603Y99851D01*
X720593Y99843D01*
X720601Y99833D01*
X720597Y99806D01*
X720624Y99802D01*
X720640Y99781D01*
X720940Y99781D01*
X720949Y99788D01*
X720956Y99783D01*
X721248Y99881D01*
X721534Y99881D01*
X721928Y99782D01*
X721930Y99783D01*
X721930Y99782D01*
X722424Y99683D01*
X722814Y99488D01*
X723204Y99196D01*
X723395Y98908D01*
X723493Y98614D01*
X723498Y98611D01*
X723496Y98608D01*
X723594Y98411D01*
X723688Y98130D01*
X723593Y97846D01*
X723594Y97843D01*
X723592Y97842D01*
X723494Y97450D01*
X723299Y97157D01*
X723299Y97153D01*
X723296Y97152D01*
X723099Y96759D01*
X722809Y96468D01*
X722513Y96271D01*
X722512Y96269D01*
X722510Y96269D01*
X722111Y95970D01*
X721815Y95773D01*
X721028Y95379D01*
X720348Y95379D01*
X720062Y95475D01*
X719781Y95662D01*
X719589Y96238D01*
X719589Y97030D01*
X719586Y97034D01*
X719588Y97039D01*
X719579Y97044D01*
X719553Y97077D01*
X719537Y97065D01*
X719518Y97074D01*
X718718Y96674D01*
X718712Y96662D01*
X718703Y96663D01*
X717903Y95763D01*
X717903Y95755D01*
X717897Y95755D01*
X717197Y94555D01*
X717198Y94548D01*
X717194Y94547D01*
X716694Y93147D01*
X716695Y93141D01*
X716692Y93139D01*
X716392Y91539D01*
X716396Y91531D01*
X716391Y91527D01*
X716491Y89727D01*
X716496Y89721D01*
X716493Y89717D01*
X716993Y87917D01*
X716999Y87912D01*
X716997Y87906D01*
X717997Y86106D01*
X718002Y86104D01*
X718001Y86100D01*
X718701Y85200D01*
X718706Y85199D01*
X718705Y85195D01*
X719505Y84395D01*
X719508Y84395D01*
X719508Y84393D01*
X720308Y83693D01*
X720314Y83692D01*
X720315Y83688D01*
X721315Y83088D01*
X721321Y83088D01*
X721322Y83084D01*
X722322Y82684D01*
X722326Y82685D01*
X722327Y82683D01*
X723427Y82383D01*
X723431Y82384D01*
X723432Y82381D01*
X724632Y82181D01*
X724634Y82182D01*
X724639Y82182D01*
X724640Y82181D01*
X726536Y82181D01*
X727123Y82083D01*
X727612Y81790D01*
X728605Y80995D01*
X729102Y80398D01*
X729106Y80398D01*
X729105Y80395D01*
X730402Y79098D01*
X730900Y78401D01*
X730906Y78400D01*
X730905Y78395D01*
X731503Y77797D01*
X732002Y77198D01*
X732006Y77198D01*
X732005Y77195D01*
X732503Y76698D01*
X732801Y76300D01*
X732806Y76299D01*
X732805Y76295D01*
X733102Y75999D01*
X733299Y75703D01*
X733332Y75691D01*
X733340Y75681D01*
X733440Y75681D01*
X733487Y75717D01*
G37*
G36*
X266127Y75717D02*
X266127Y75717D01*
X266122Y75724D01*
X266129Y75730D01*
X266129Y88530D01*
X266127Y88533D01*
X266129Y88535D01*
X265929Y90335D01*
X265924Y90341D01*
X265927Y90346D01*
X265727Y90946D01*
X265722Y90949D01*
X265724Y90952D01*
X265424Y91552D01*
X265421Y91553D01*
X265422Y91555D01*
X265122Y92055D01*
X265107Y92062D01*
X265105Y92072D01*
X264608Y92371D01*
X264210Y92669D01*
X264200Y92669D01*
X264198Y92676D01*
X263198Y93076D01*
X263191Y93074D01*
X263188Y93079D01*
X262588Y93179D01*
X262583Y93176D01*
X262580Y93179D01*
X261780Y93179D01*
X261773Y93174D01*
X261768Y93178D01*
X261374Y93079D01*
X261180Y93079D01*
X261167Y93070D01*
X261158Y93074D01*
X260958Y92974D01*
X260957Y92973D01*
X260956Y92973D01*
X260955Y92969D01*
X260932Y92921D01*
X260948Y92913D01*
X260945Y92895D01*
X261045Y92795D01*
X261057Y92794D01*
X261058Y92786D01*
X261458Y92586D01*
X261463Y92587D01*
X261464Y92583D01*
X261753Y92487D01*
X262142Y92099D01*
X262335Y91808D01*
X262431Y91522D01*
X262431Y91238D01*
X262334Y90949D01*
X262139Y90559D01*
X261849Y90268D01*
X261557Y90074D01*
X261066Y89877D01*
X260575Y89779D01*
X259786Y89779D01*
X259000Y89976D01*
X258414Y90367D01*
X258024Y90854D01*
X257829Y91438D01*
X257829Y92120D01*
X258122Y92803D01*
X258817Y93597D01*
X259617Y94497D01*
X259617Y94498D01*
X260317Y95298D01*
X260318Y95305D01*
X260323Y95306D01*
X260823Y96206D01*
X260822Y96216D01*
X260828Y96219D01*
X261028Y97119D01*
X261025Y97127D01*
X261029Y97130D01*
X261029Y97930D01*
X261022Y97939D01*
X261027Y97946D01*
X260727Y98846D01*
X260718Y98852D01*
X260720Y98859D01*
X260220Y99559D01*
X260212Y99561D01*
X260213Y99567D01*
X259313Y100367D01*
X259304Y100367D01*
X259304Y100373D01*
X258204Y100973D01*
X258192Y100972D01*
X258189Y100978D01*
X257089Y101178D01*
X257083Y101175D01*
X257080Y101179D01*
X256080Y101179D01*
X256071Y101172D01*
X256064Y101177D01*
X255164Y100877D01*
X255164Y100876D01*
X255163Y100876D01*
X254363Y100576D01*
X254361Y100573D01*
X254358Y100574D01*
X253758Y100274D01*
X253755Y100268D01*
X253750Y100269D01*
X253350Y99969D01*
X253349Y99964D01*
X253345Y99965D01*
X253245Y99865D01*
X253243Y99851D01*
X253233Y99843D01*
X253241Y99833D01*
X253237Y99806D01*
X253264Y99802D01*
X253280Y99781D01*
X253580Y99781D01*
X253589Y99788D01*
X253596Y99783D01*
X253888Y99881D01*
X254174Y99881D01*
X254568Y99782D01*
X254570Y99783D01*
X254570Y99782D01*
X255064Y99683D01*
X255454Y99488D01*
X255844Y99196D01*
X256035Y98908D01*
X256133Y98614D01*
X256138Y98611D01*
X256136Y98608D01*
X256234Y98411D01*
X256328Y98130D01*
X256233Y97846D01*
X256234Y97843D01*
X256232Y97842D01*
X256134Y97450D01*
X255939Y97157D01*
X255939Y97153D01*
X255936Y97152D01*
X255739Y96759D01*
X255449Y96468D01*
X255153Y96271D01*
X255152Y96269D01*
X255150Y96269D01*
X254751Y95970D01*
X254455Y95773D01*
X253668Y95379D01*
X252988Y95379D01*
X252702Y95475D01*
X252421Y95662D01*
X252229Y96238D01*
X252229Y97030D01*
X252226Y97034D01*
X252228Y97039D01*
X252219Y97044D01*
X252193Y97077D01*
X252177Y97065D01*
X252158Y97074D01*
X251358Y96674D01*
X251352Y96662D01*
X251343Y96663D01*
X250543Y95763D01*
X250543Y95755D01*
X250537Y95755D01*
X249837Y94555D01*
X249838Y94548D01*
X249834Y94547D01*
X249334Y93147D01*
X249335Y93141D01*
X249332Y93139D01*
X249032Y91539D01*
X249036Y91531D01*
X249031Y91527D01*
X249131Y89727D01*
X249136Y89721D01*
X249133Y89717D01*
X249633Y87917D01*
X249639Y87912D01*
X249637Y87906D01*
X250637Y86106D01*
X250642Y86104D01*
X250641Y86100D01*
X251341Y85200D01*
X251346Y85199D01*
X251345Y85195D01*
X252145Y84395D01*
X252148Y84395D01*
X252148Y84393D01*
X252948Y83693D01*
X252954Y83692D01*
X252955Y83688D01*
X253955Y83088D01*
X253961Y83088D01*
X253962Y83084D01*
X254962Y82684D01*
X254966Y82685D01*
X254967Y82683D01*
X256067Y82383D01*
X256071Y82384D01*
X256072Y82381D01*
X257272Y82181D01*
X257274Y82182D01*
X257279Y82182D01*
X257280Y82181D01*
X259176Y82181D01*
X259763Y82083D01*
X260252Y81790D01*
X261245Y80995D01*
X261742Y80398D01*
X261746Y80398D01*
X261745Y80395D01*
X263042Y79098D01*
X263540Y78401D01*
X263546Y78400D01*
X263545Y78395D01*
X264143Y77797D01*
X264642Y77198D01*
X264646Y77198D01*
X264645Y77195D01*
X265143Y76698D01*
X265441Y76300D01*
X265446Y76299D01*
X265445Y76295D01*
X265742Y75999D01*
X265939Y75703D01*
X265972Y75691D01*
X265980Y75681D01*
X266080Y75681D01*
X266127Y75717D01*
G37*
G36*
X499807Y75717D02*
X499807Y75717D01*
X499802Y75724D01*
X499809Y75730D01*
X499809Y88530D01*
X499807Y88533D01*
X499809Y88535D01*
X499609Y90335D01*
X499604Y90341D01*
X499607Y90346D01*
X499407Y90946D01*
X499402Y90949D01*
X499404Y90952D01*
X499104Y91552D01*
X499101Y91553D01*
X499102Y91555D01*
X498802Y92055D01*
X498787Y92062D01*
X498785Y92072D01*
X498288Y92371D01*
X497890Y92669D01*
X497880Y92669D01*
X497878Y92676D01*
X496878Y93076D01*
X496871Y93074D01*
X496868Y93079D01*
X496268Y93179D01*
X496263Y93176D01*
X496260Y93179D01*
X495460Y93179D01*
X495453Y93174D01*
X495448Y93178D01*
X495054Y93079D01*
X494860Y93079D01*
X494847Y93070D01*
X494838Y93074D01*
X494638Y92974D01*
X494637Y92973D01*
X494636Y92973D01*
X494635Y92969D01*
X494612Y92921D01*
X494628Y92913D01*
X494625Y92895D01*
X494725Y92795D01*
X494737Y92794D01*
X494738Y92786D01*
X495138Y92586D01*
X495143Y92587D01*
X495144Y92583D01*
X495433Y92487D01*
X495822Y92099D01*
X496015Y91808D01*
X496111Y91522D01*
X496111Y91238D01*
X496014Y90949D01*
X495819Y90559D01*
X495529Y90268D01*
X495237Y90074D01*
X494746Y89877D01*
X494255Y89779D01*
X493466Y89779D01*
X492680Y89976D01*
X492094Y90367D01*
X491704Y90854D01*
X491509Y91438D01*
X491509Y92120D01*
X491802Y92803D01*
X492497Y93597D01*
X493297Y94497D01*
X493297Y94498D01*
X493997Y95298D01*
X493998Y95305D01*
X494003Y95306D01*
X494503Y96206D01*
X494502Y96216D01*
X494508Y96219D01*
X494708Y97119D01*
X494705Y97127D01*
X494709Y97130D01*
X494709Y97930D01*
X494702Y97939D01*
X494707Y97946D01*
X494407Y98846D01*
X494398Y98852D01*
X494400Y98859D01*
X493900Y99559D01*
X493892Y99561D01*
X493893Y99567D01*
X492993Y100367D01*
X492984Y100367D01*
X492984Y100373D01*
X491884Y100973D01*
X491872Y100972D01*
X491869Y100978D01*
X490769Y101178D01*
X490763Y101175D01*
X490760Y101179D01*
X489760Y101179D01*
X489751Y101172D01*
X489744Y101177D01*
X488844Y100877D01*
X488844Y100876D01*
X488843Y100876D01*
X488043Y100576D01*
X488041Y100573D01*
X488038Y100574D01*
X487438Y100274D01*
X487435Y100268D01*
X487430Y100269D01*
X487030Y99969D01*
X487029Y99964D01*
X487025Y99965D01*
X486925Y99865D01*
X486923Y99851D01*
X486913Y99843D01*
X486921Y99833D01*
X486917Y99806D01*
X486944Y99802D01*
X486960Y99781D01*
X487260Y99781D01*
X487269Y99788D01*
X487276Y99783D01*
X487568Y99881D01*
X487854Y99881D01*
X488248Y99782D01*
X488250Y99783D01*
X488250Y99782D01*
X488744Y99683D01*
X489134Y99488D01*
X489524Y99196D01*
X489715Y98908D01*
X489813Y98614D01*
X489818Y98611D01*
X489816Y98608D01*
X489914Y98411D01*
X490008Y98130D01*
X489913Y97846D01*
X489914Y97843D01*
X489912Y97842D01*
X489814Y97450D01*
X489619Y97157D01*
X489619Y97153D01*
X489616Y97152D01*
X489419Y96759D01*
X489129Y96468D01*
X488833Y96271D01*
X488832Y96269D01*
X488830Y96269D01*
X488431Y95970D01*
X488135Y95773D01*
X487348Y95379D01*
X486668Y95379D01*
X486382Y95475D01*
X486101Y95662D01*
X485909Y96238D01*
X485909Y97030D01*
X485906Y97034D01*
X485908Y97039D01*
X485899Y97044D01*
X485873Y97077D01*
X485857Y97065D01*
X485838Y97074D01*
X485038Y96674D01*
X485032Y96662D01*
X485023Y96663D01*
X484223Y95763D01*
X484223Y95755D01*
X484217Y95755D01*
X483517Y94555D01*
X483518Y94548D01*
X483514Y94547D01*
X483014Y93147D01*
X483015Y93141D01*
X483012Y93139D01*
X482712Y91539D01*
X482716Y91531D01*
X482711Y91527D01*
X482811Y89727D01*
X482816Y89721D01*
X482813Y89717D01*
X483313Y87917D01*
X483319Y87912D01*
X483317Y87906D01*
X484317Y86106D01*
X484322Y86104D01*
X484321Y86100D01*
X485021Y85200D01*
X485026Y85199D01*
X485025Y85195D01*
X485825Y84395D01*
X485828Y84395D01*
X485828Y84393D01*
X486628Y83693D01*
X486634Y83692D01*
X486635Y83688D01*
X487635Y83088D01*
X487641Y83088D01*
X487642Y83084D01*
X488642Y82684D01*
X488646Y82685D01*
X488647Y82683D01*
X489747Y82383D01*
X489751Y82384D01*
X489752Y82381D01*
X490952Y82181D01*
X490954Y82182D01*
X490959Y82182D01*
X490960Y82181D01*
X492856Y82181D01*
X493443Y82083D01*
X493932Y81790D01*
X494925Y80995D01*
X495422Y80398D01*
X495426Y80398D01*
X495425Y80395D01*
X496722Y79098D01*
X497220Y78401D01*
X497226Y78400D01*
X497225Y78395D01*
X497823Y77797D01*
X498322Y77198D01*
X498326Y77198D01*
X498325Y77195D01*
X498823Y76698D01*
X499121Y76300D01*
X499126Y76299D01*
X499125Y76295D01*
X499422Y75999D01*
X499619Y75703D01*
X499652Y75691D01*
X499660Y75681D01*
X499760Y75681D01*
X499807Y75717D01*
G37*
G36*
X499807Y766597D02*
X499807Y766597D01*
X499802Y766604D01*
X499809Y766610D01*
X499809Y779410D01*
X499807Y779413D01*
X499809Y779415D01*
X499609Y781215D01*
X499604Y781221D01*
X499607Y781226D01*
X499407Y781826D01*
X499402Y781829D01*
X499404Y781832D01*
X499104Y782432D01*
X499101Y782433D01*
X499102Y782435D01*
X498802Y782935D01*
X498787Y782942D01*
X498785Y782952D01*
X498288Y783251D01*
X497890Y783549D01*
X497880Y783549D01*
X497878Y783556D01*
X496878Y783956D01*
X496871Y783954D01*
X496868Y783959D01*
X496268Y784059D01*
X496263Y784056D01*
X496260Y784059D01*
X495460Y784059D01*
X495453Y784054D01*
X495448Y784058D01*
X495054Y783959D01*
X494860Y783959D01*
X494847Y783950D01*
X494838Y783954D01*
X494638Y783854D01*
X494637Y783853D01*
X494636Y783853D01*
X494635Y783849D01*
X494612Y783801D01*
X494628Y783793D01*
X494625Y783775D01*
X494725Y783675D01*
X494737Y783674D01*
X494738Y783666D01*
X495138Y783466D01*
X495143Y783467D01*
X495144Y783463D01*
X495433Y783367D01*
X495822Y782979D01*
X496015Y782688D01*
X496111Y782402D01*
X496111Y782118D01*
X496014Y781829D01*
X495819Y781439D01*
X495529Y781148D01*
X495237Y780954D01*
X494746Y780757D01*
X494255Y780659D01*
X493466Y780659D01*
X492680Y780856D01*
X492094Y781247D01*
X491704Y781734D01*
X491509Y782318D01*
X491509Y783000D01*
X491802Y783683D01*
X492497Y784477D01*
X493297Y785377D01*
X493297Y785378D01*
X493997Y786178D01*
X493998Y786185D01*
X494003Y786186D01*
X494503Y787086D01*
X494502Y787096D01*
X494508Y787099D01*
X494708Y787999D01*
X494705Y788007D01*
X494709Y788010D01*
X494709Y788810D01*
X494702Y788819D01*
X494707Y788826D01*
X494407Y789726D01*
X494398Y789732D01*
X494400Y789739D01*
X493900Y790439D01*
X493892Y790441D01*
X493893Y790447D01*
X492993Y791247D01*
X492984Y791247D01*
X492984Y791253D01*
X491884Y791853D01*
X491872Y791852D01*
X491869Y791858D01*
X490769Y792058D01*
X490763Y792055D01*
X490760Y792059D01*
X489760Y792059D01*
X489751Y792052D01*
X489744Y792057D01*
X488844Y791757D01*
X488844Y791756D01*
X488843Y791756D01*
X488043Y791456D01*
X488041Y791453D01*
X488038Y791454D01*
X487438Y791154D01*
X487435Y791148D01*
X487430Y791149D01*
X487030Y790849D01*
X487029Y790844D01*
X487025Y790845D01*
X486925Y790745D01*
X486923Y790731D01*
X486913Y790723D01*
X486921Y790713D01*
X486917Y790686D01*
X486944Y790682D01*
X486960Y790661D01*
X487260Y790661D01*
X487269Y790668D01*
X487276Y790663D01*
X487568Y790761D01*
X487854Y790761D01*
X488248Y790662D01*
X488250Y790663D01*
X488250Y790662D01*
X488744Y790563D01*
X489134Y790368D01*
X489524Y790076D01*
X489715Y789788D01*
X489813Y789494D01*
X489818Y789491D01*
X489816Y789488D01*
X489914Y789291D01*
X490008Y789010D01*
X489913Y788726D01*
X489914Y788723D01*
X489912Y788722D01*
X489814Y788330D01*
X489619Y788037D01*
X489619Y788033D01*
X489616Y788032D01*
X489419Y787639D01*
X489129Y787348D01*
X488833Y787151D01*
X488832Y787149D01*
X488830Y787149D01*
X488431Y786850D01*
X488135Y786653D01*
X487348Y786259D01*
X486668Y786259D01*
X486382Y786355D01*
X486101Y786542D01*
X485909Y787118D01*
X485909Y787910D01*
X485906Y787914D01*
X485908Y787919D01*
X485899Y787924D01*
X485873Y787957D01*
X485857Y787945D01*
X485838Y787954D01*
X485038Y787554D01*
X485032Y787542D01*
X485023Y787543D01*
X484223Y786643D01*
X484223Y786635D01*
X484217Y786635D01*
X483517Y785435D01*
X483518Y785428D01*
X483514Y785427D01*
X483014Y784027D01*
X483015Y784021D01*
X483012Y784019D01*
X482712Y782419D01*
X482716Y782411D01*
X482711Y782407D01*
X482811Y780607D01*
X482816Y780601D01*
X482813Y780597D01*
X483313Y778797D01*
X483319Y778792D01*
X483317Y778786D01*
X484317Y776986D01*
X484322Y776984D01*
X484321Y776980D01*
X485021Y776080D01*
X485026Y776079D01*
X485025Y776075D01*
X485825Y775275D01*
X485828Y775275D01*
X485828Y775273D01*
X486628Y774573D01*
X486634Y774572D01*
X486635Y774568D01*
X487635Y773968D01*
X487641Y773968D01*
X487642Y773964D01*
X488642Y773564D01*
X488646Y773565D01*
X488647Y773563D01*
X489747Y773263D01*
X489751Y773264D01*
X489752Y773261D01*
X490952Y773061D01*
X490954Y773062D01*
X490959Y773062D01*
X490960Y773061D01*
X492856Y773061D01*
X493443Y772963D01*
X493932Y772670D01*
X494925Y771875D01*
X495422Y771278D01*
X495426Y771278D01*
X495425Y771275D01*
X496722Y769978D01*
X497220Y769281D01*
X497226Y769280D01*
X497225Y769275D01*
X497823Y768677D01*
X498322Y768078D01*
X498326Y768078D01*
X498325Y768075D01*
X498823Y767578D01*
X499121Y767180D01*
X499126Y767179D01*
X499125Y767175D01*
X499422Y766879D01*
X499619Y766583D01*
X499652Y766571D01*
X499660Y766561D01*
X499760Y766561D01*
X499807Y766597D01*
G37*
G36*
X733487Y766597D02*
X733487Y766597D01*
X733482Y766604D01*
X733489Y766610D01*
X733489Y779410D01*
X733487Y779413D01*
X733489Y779415D01*
X733289Y781215D01*
X733284Y781221D01*
X733287Y781226D01*
X733087Y781826D01*
X733082Y781829D01*
X733084Y781832D01*
X732784Y782432D01*
X732781Y782433D01*
X732782Y782435D01*
X732482Y782935D01*
X732467Y782942D01*
X732465Y782952D01*
X731968Y783251D01*
X731570Y783549D01*
X731560Y783549D01*
X731558Y783556D01*
X730558Y783956D01*
X730551Y783954D01*
X730548Y783959D01*
X729948Y784059D01*
X729943Y784056D01*
X729940Y784059D01*
X729140Y784059D01*
X729133Y784054D01*
X729128Y784058D01*
X728734Y783959D01*
X728540Y783959D01*
X728527Y783950D01*
X728518Y783954D01*
X728318Y783854D01*
X728317Y783853D01*
X728316Y783853D01*
X728315Y783849D01*
X728292Y783801D01*
X728308Y783793D01*
X728305Y783775D01*
X728405Y783675D01*
X728417Y783674D01*
X728418Y783666D01*
X728818Y783466D01*
X728823Y783467D01*
X728824Y783463D01*
X729113Y783367D01*
X729502Y782979D01*
X729695Y782688D01*
X729791Y782402D01*
X729791Y782118D01*
X729694Y781829D01*
X729499Y781439D01*
X729209Y781148D01*
X728917Y780954D01*
X728426Y780757D01*
X727935Y780659D01*
X727146Y780659D01*
X726360Y780856D01*
X725774Y781247D01*
X725384Y781734D01*
X725189Y782318D01*
X725189Y783000D01*
X725482Y783683D01*
X726177Y784477D01*
X726977Y785377D01*
X726977Y785378D01*
X727677Y786178D01*
X727678Y786185D01*
X727683Y786186D01*
X728183Y787086D01*
X728182Y787096D01*
X728188Y787099D01*
X728388Y787999D01*
X728385Y788007D01*
X728389Y788010D01*
X728389Y788810D01*
X728382Y788819D01*
X728387Y788826D01*
X728087Y789726D01*
X728078Y789732D01*
X728080Y789739D01*
X727580Y790439D01*
X727572Y790441D01*
X727573Y790447D01*
X726673Y791247D01*
X726664Y791247D01*
X726664Y791253D01*
X725564Y791853D01*
X725552Y791852D01*
X725549Y791858D01*
X724449Y792058D01*
X724443Y792055D01*
X724440Y792059D01*
X723440Y792059D01*
X723431Y792052D01*
X723424Y792057D01*
X722524Y791757D01*
X722524Y791756D01*
X722523Y791756D01*
X721723Y791456D01*
X721721Y791453D01*
X721718Y791454D01*
X721118Y791154D01*
X721115Y791148D01*
X721110Y791149D01*
X720710Y790849D01*
X720709Y790844D01*
X720705Y790845D01*
X720605Y790745D01*
X720603Y790731D01*
X720593Y790723D01*
X720601Y790713D01*
X720597Y790686D01*
X720624Y790682D01*
X720640Y790661D01*
X720940Y790661D01*
X720949Y790668D01*
X720956Y790663D01*
X721248Y790761D01*
X721534Y790761D01*
X721928Y790662D01*
X721930Y790663D01*
X721930Y790662D01*
X722424Y790563D01*
X722814Y790368D01*
X723204Y790076D01*
X723395Y789788D01*
X723493Y789494D01*
X723498Y789491D01*
X723496Y789488D01*
X723594Y789291D01*
X723688Y789010D01*
X723593Y788726D01*
X723594Y788723D01*
X723592Y788722D01*
X723494Y788330D01*
X723299Y788037D01*
X723299Y788033D01*
X723296Y788032D01*
X723099Y787639D01*
X722809Y787348D01*
X722513Y787151D01*
X722512Y787149D01*
X722510Y787149D01*
X722111Y786850D01*
X721815Y786653D01*
X721028Y786259D01*
X720348Y786259D01*
X720062Y786355D01*
X719781Y786542D01*
X719589Y787118D01*
X719589Y787910D01*
X719586Y787914D01*
X719588Y787919D01*
X719579Y787924D01*
X719553Y787957D01*
X719537Y787945D01*
X719518Y787954D01*
X718718Y787554D01*
X718712Y787542D01*
X718703Y787543D01*
X717903Y786643D01*
X717903Y786635D01*
X717897Y786635D01*
X717197Y785435D01*
X717198Y785428D01*
X717194Y785427D01*
X716694Y784027D01*
X716695Y784021D01*
X716692Y784019D01*
X716392Y782419D01*
X716396Y782411D01*
X716391Y782407D01*
X716491Y780607D01*
X716496Y780601D01*
X716493Y780597D01*
X716993Y778797D01*
X716999Y778792D01*
X716997Y778786D01*
X717997Y776986D01*
X718002Y776984D01*
X718001Y776980D01*
X718701Y776080D01*
X718706Y776079D01*
X718705Y776075D01*
X719505Y775275D01*
X719508Y775275D01*
X719508Y775273D01*
X720308Y774573D01*
X720314Y774572D01*
X720315Y774568D01*
X721315Y773968D01*
X721321Y773968D01*
X721322Y773964D01*
X722322Y773564D01*
X722326Y773565D01*
X722327Y773563D01*
X723427Y773263D01*
X723431Y773264D01*
X723432Y773261D01*
X724632Y773061D01*
X724634Y773062D01*
X724639Y773062D01*
X724640Y773061D01*
X726536Y773061D01*
X727123Y772963D01*
X727612Y772670D01*
X728605Y771875D01*
X729102Y771278D01*
X729106Y771278D01*
X729105Y771275D01*
X730402Y769978D01*
X730900Y769281D01*
X730906Y769280D01*
X730905Y769275D01*
X731503Y768677D01*
X732002Y768078D01*
X732006Y768078D01*
X732005Y768075D01*
X732503Y767578D01*
X732801Y767180D01*
X732806Y767179D01*
X732805Y767175D01*
X733102Y766879D01*
X733299Y766583D01*
X733332Y766571D01*
X733340Y766561D01*
X733440Y766561D01*
X733487Y766597D01*
G37*
G36*
X967167Y766597D02*
X967167Y766597D01*
X967162Y766604D01*
X967169Y766610D01*
X967169Y779410D01*
X967167Y779413D01*
X967169Y779415D01*
X966969Y781215D01*
X966964Y781221D01*
X966967Y781226D01*
X966767Y781826D01*
X966762Y781829D01*
X966764Y781832D01*
X966464Y782432D01*
X966461Y782433D01*
X966462Y782435D01*
X966162Y782935D01*
X966147Y782942D01*
X966145Y782952D01*
X965648Y783251D01*
X965250Y783549D01*
X965240Y783549D01*
X965238Y783556D01*
X964238Y783956D01*
X964231Y783954D01*
X964228Y783959D01*
X963628Y784059D01*
X963623Y784056D01*
X963620Y784059D01*
X962820Y784059D01*
X962813Y784054D01*
X962808Y784058D01*
X962414Y783959D01*
X962220Y783959D01*
X962207Y783950D01*
X962198Y783954D01*
X961998Y783854D01*
X961997Y783853D01*
X961996Y783853D01*
X961995Y783849D01*
X961972Y783801D01*
X961988Y783793D01*
X961985Y783775D01*
X962085Y783675D01*
X962097Y783674D01*
X962098Y783666D01*
X962498Y783466D01*
X962503Y783467D01*
X962504Y783463D01*
X962793Y783367D01*
X963182Y782979D01*
X963375Y782688D01*
X963471Y782402D01*
X963471Y782118D01*
X963374Y781829D01*
X963179Y781439D01*
X962889Y781148D01*
X962597Y780954D01*
X962106Y780757D01*
X961615Y780659D01*
X960826Y780659D01*
X960040Y780856D01*
X959454Y781247D01*
X959064Y781734D01*
X958869Y782318D01*
X958869Y783000D01*
X959162Y783683D01*
X959857Y784477D01*
X960657Y785377D01*
X960657Y785378D01*
X961357Y786178D01*
X961358Y786185D01*
X961363Y786186D01*
X961863Y787086D01*
X961862Y787096D01*
X961868Y787099D01*
X962068Y787999D01*
X962065Y788007D01*
X962069Y788010D01*
X962069Y788810D01*
X962062Y788819D01*
X962067Y788826D01*
X961767Y789726D01*
X961758Y789732D01*
X961760Y789739D01*
X961260Y790439D01*
X961252Y790441D01*
X961253Y790447D01*
X960353Y791247D01*
X960344Y791247D01*
X960344Y791253D01*
X959244Y791853D01*
X959232Y791852D01*
X959229Y791858D01*
X958129Y792058D01*
X958123Y792055D01*
X958120Y792059D01*
X957120Y792059D01*
X957111Y792052D01*
X957104Y792057D01*
X956204Y791757D01*
X956204Y791756D01*
X956203Y791756D01*
X955403Y791456D01*
X955401Y791453D01*
X955398Y791454D01*
X954798Y791154D01*
X954795Y791148D01*
X954790Y791149D01*
X954390Y790849D01*
X954389Y790844D01*
X954385Y790845D01*
X954285Y790745D01*
X954283Y790731D01*
X954273Y790723D01*
X954281Y790713D01*
X954277Y790686D01*
X954304Y790682D01*
X954320Y790661D01*
X954620Y790661D01*
X954629Y790668D01*
X954636Y790663D01*
X954928Y790761D01*
X955214Y790761D01*
X955608Y790662D01*
X955610Y790663D01*
X955610Y790662D01*
X956104Y790563D01*
X956494Y790368D01*
X956884Y790076D01*
X957075Y789788D01*
X957173Y789494D01*
X957178Y789491D01*
X957176Y789488D01*
X957274Y789291D01*
X957368Y789010D01*
X957273Y788726D01*
X957274Y788723D01*
X957272Y788722D01*
X957174Y788330D01*
X956979Y788037D01*
X956979Y788033D01*
X956976Y788032D01*
X956779Y787639D01*
X956489Y787348D01*
X956193Y787151D01*
X956192Y787149D01*
X956190Y787149D01*
X955791Y786850D01*
X955495Y786653D01*
X954708Y786259D01*
X954028Y786259D01*
X953742Y786355D01*
X953461Y786542D01*
X953269Y787118D01*
X953269Y787910D01*
X953266Y787914D01*
X953268Y787919D01*
X953259Y787924D01*
X953233Y787957D01*
X953217Y787945D01*
X953198Y787954D01*
X952398Y787554D01*
X952392Y787542D01*
X952383Y787543D01*
X951583Y786643D01*
X951583Y786635D01*
X951577Y786635D01*
X950877Y785435D01*
X950878Y785428D01*
X950874Y785427D01*
X950374Y784027D01*
X950375Y784021D01*
X950372Y784019D01*
X950072Y782419D01*
X950076Y782411D01*
X950071Y782407D01*
X950171Y780607D01*
X950176Y780601D01*
X950173Y780597D01*
X950673Y778797D01*
X950679Y778792D01*
X950677Y778786D01*
X951677Y776986D01*
X951682Y776984D01*
X951681Y776980D01*
X952381Y776080D01*
X952386Y776079D01*
X952385Y776075D01*
X953185Y775275D01*
X953188Y775275D01*
X953188Y775273D01*
X953988Y774573D01*
X953994Y774572D01*
X953995Y774568D01*
X954995Y773968D01*
X955001Y773968D01*
X955002Y773964D01*
X956002Y773564D01*
X956006Y773565D01*
X956007Y773563D01*
X957107Y773263D01*
X957111Y773264D01*
X957112Y773261D01*
X958312Y773061D01*
X958314Y773062D01*
X958319Y773062D01*
X958320Y773061D01*
X960216Y773061D01*
X960803Y772963D01*
X961292Y772670D01*
X962285Y771875D01*
X962782Y771278D01*
X962786Y771278D01*
X962785Y771275D01*
X964082Y769978D01*
X964580Y769281D01*
X964586Y769280D01*
X964585Y769275D01*
X965183Y768677D01*
X965682Y768078D01*
X965686Y768078D01*
X965685Y768075D01*
X966183Y767578D01*
X966481Y767180D01*
X966486Y767179D01*
X966485Y767175D01*
X966782Y766879D01*
X966979Y766583D01*
X967012Y766571D01*
X967020Y766561D01*
X967120Y766561D01*
X967167Y766597D01*
G37*
G36*
X266127Y766597D02*
X266127Y766597D01*
X266122Y766604D01*
X266129Y766610D01*
X266129Y779410D01*
X266127Y779413D01*
X266129Y779415D01*
X265929Y781215D01*
X265924Y781221D01*
X265927Y781226D01*
X265727Y781826D01*
X265722Y781829D01*
X265724Y781832D01*
X265424Y782432D01*
X265421Y782433D01*
X265422Y782435D01*
X265122Y782935D01*
X265107Y782942D01*
X265105Y782952D01*
X264608Y783251D01*
X264210Y783549D01*
X264200Y783549D01*
X264198Y783556D01*
X263198Y783956D01*
X263191Y783954D01*
X263188Y783959D01*
X262588Y784059D01*
X262583Y784056D01*
X262580Y784059D01*
X261780Y784059D01*
X261773Y784054D01*
X261768Y784058D01*
X261374Y783959D01*
X261180Y783959D01*
X261167Y783950D01*
X261158Y783954D01*
X260958Y783854D01*
X260957Y783853D01*
X260956Y783853D01*
X260955Y783849D01*
X260932Y783801D01*
X260948Y783793D01*
X260945Y783775D01*
X261045Y783675D01*
X261057Y783674D01*
X261058Y783666D01*
X261458Y783466D01*
X261463Y783467D01*
X261464Y783463D01*
X261753Y783367D01*
X262142Y782979D01*
X262335Y782688D01*
X262431Y782402D01*
X262431Y782118D01*
X262334Y781829D01*
X262139Y781439D01*
X261849Y781148D01*
X261557Y780954D01*
X261066Y780757D01*
X260575Y780659D01*
X259786Y780659D01*
X259000Y780856D01*
X258414Y781247D01*
X258024Y781734D01*
X257829Y782318D01*
X257829Y783000D01*
X258122Y783683D01*
X258817Y784477D01*
X259617Y785377D01*
X259617Y785378D01*
X260317Y786178D01*
X260318Y786185D01*
X260323Y786186D01*
X260823Y787086D01*
X260822Y787096D01*
X260828Y787099D01*
X261028Y787999D01*
X261025Y788007D01*
X261029Y788010D01*
X261029Y788810D01*
X261022Y788819D01*
X261027Y788826D01*
X260727Y789726D01*
X260718Y789732D01*
X260720Y789739D01*
X260220Y790439D01*
X260212Y790441D01*
X260213Y790447D01*
X259313Y791247D01*
X259304Y791247D01*
X259304Y791253D01*
X258204Y791853D01*
X258192Y791852D01*
X258189Y791858D01*
X257089Y792058D01*
X257083Y792055D01*
X257080Y792059D01*
X256080Y792059D01*
X256071Y792052D01*
X256064Y792057D01*
X255164Y791757D01*
X255164Y791756D01*
X255163Y791756D01*
X254363Y791456D01*
X254361Y791453D01*
X254358Y791454D01*
X253758Y791154D01*
X253755Y791148D01*
X253750Y791149D01*
X253350Y790849D01*
X253349Y790844D01*
X253345Y790845D01*
X253245Y790745D01*
X253243Y790731D01*
X253233Y790723D01*
X253241Y790713D01*
X253237Y790686D01*
X253264Y790682D01*
X253280Y790661D01*
X253580Y790661D01*
X253589Y790668D01*
X253596Y790663D01*
X253888Y790761D01*
X254174Y790761D01*
X254568Y790662D01*
X254570Y790663D01*
X254570Y790662D01*
X255064Y790563D01*
X255454Y790368D01*
X255844Y790076D01*
X256035Y789788D01*
X256133Y789494D01*
X256138Y789491D01*
X256136Y789488D01*
X256234Y789291D01*
X256328Y789010D01*
X256233Y788726D01*
X256234Y788723D01*
X256232Y788722D01*
X256134Y788330D01*
X255939Y788037D01*
X255939Y788033D01*
X255936Y788032D01*
X255739Y787639D01*
X255449Y787348D01*
X255153Y787151D01*
X255152Y787149D01*
X255150Y787149D01*
X254751Y786850D01*
X254455Y786653D01*
X253668Y786259D01*
X252988Y786259D01*
X252702Y786355D01*
X252421Y786542D01*
X252229Y787118D01*
X252229Y787910D01*
X252226Y787914D01*
X252228Y787919D01*
X252219Y787924D01*
X252193Y787957D01*
X252177Y787945D01*
X252158Y787954D01*
X251358Y787554D01*
X251352Y787542D01*
X251343Y787543D01*
X250543Y786643D01*
X250543Y786635D01*
X250537Y786635D01*
X249837Y785435D01*
X249838Y785428D01*
X249834Y785427D01*
X249334Y784027D01*
X249335Y784021D01*
X249332Y784019D01*
X249032Y782419D01*
X249036Y782411D01*
X249031Y782407D01*
X249131Y780607D01*
X249136Y780601D01*
X249133Y780597D01*
X249633Y778797D01*
X249639Y778792D01*
X249637Y778786D01*
X250637Y776986D01*
X250642Y776984D01*
X250641Y776980D01*
X251341Y776080D01*
X251346Y776079D01*
X251345Y776075D01*
X252145Y775275D01*
X252148Y775275D01*
X252148Y775273D01*
X252948Y774573D01*
X252954Y774572D01*
X252955Y774568D01*
X253955Y773968D01*
X253961Y773968D01*
X253962Y773964D01*
X254962Y773564D01*
X254966Y773565D01*
X254967Y773563D01*
X256067Y773263D01*
X256071Y773264D01*
X256072Y773261D01*
X257272Y773061D01*
X257274Y773062D01*
X257279Y773062D01*
X257280Y773061D01*
X259176Y773061D01*
X259763Y772963D01*
X260252Y772670D01*
X261245Y771875D01*
X261742Y771278D01*
X261746Y771278D01*
X261745Y771275D01*
X263042Y769978D01*
X263540Y769281D01*
X263546Y769280D01*
X263545Y769275D01*
X264143Y768677D01*
X264642Y768078D01*
X264646Y768078D01*
X264645Y768075D01*
X265143Y767578D01*
X265441Y767180D01*
X265446Y767179D01*
X265445Y767175D01*
X265742Y766879D01*
X265939Y766583D01*
X265972Y766571D01*
X265980Y766561D01*
X266080Y766561D01*
X266127Y766597D01*
G37*
G36*
X32447Y766597D02*
X32447Y766597D01*
X32442Y766604D01*
X32449Y766610D01*
X32449Y779410D01*
X32447Y779413D01*
X32449Y779415D01*
X32249Y781215D01*
X32244Y781221D01*
X32247Y781226D01*
X32047Y781826D01*
X32042Y781829D01*
X32044Y781832D01*
X31744Y782432D01*
X31741Y782433D01*
X31742Y782435D01*
X31442Y782935D01*
X31427Y782942D01*
X31425Y782952D01*
X30928Y783251D01*
X30530Y783549D01*
X30520Y783549D01*
X30518Y783556D01*
X29518Y783956D01*
X29511Y783954D01*
X29508Y783959D01*
X28908Y784059D01*
X28903Y784056D01*
X28900Y784059D01*
X28100Y784059D01*
X28093Y784054D01*
X28088Y784058D01*
X27694Y783959D01*
X27500Y783959D01*
X27487Y783950D01*
X27478Y783954D01*
X27278Y783854D01*
X27277Y783853D01*
X27276Y783853D01*
X27275Y783849D01*
X27252Y783801D01*
X27268Y783793D01*
X27265Y783775D01*
X27365Y783675D01*
X27377Y783674D01*
X27378Y783666D01*
X27778Y783466D01*
X27783Y783467D01*
X27784Y783463D01*
X28073Y783367D01*
X28462Y782979D01*
X28655Y782688D01*
X28751Y782402D01*
X28751Y782118D01*
X28654Y781829D01*
X28459Y781439D01*
X28169Y781148D01*
X27877Y780954D01*
X27386Y780757D01*
X26895Y780659D01*
X26106Y780659D01*
X25320Y780856D01*
X24734Y781247D01*
X24344Y781734D01*
X24149Y782318D01*
X24149Y783000D01*
X24442Y783683D01*
X25137Y784477D01*
X25937Y785377D01*
X25937Y785378D01*
X26637Y786178D01*
X26638Y786185D01*
X26643Y786186D01*
X27143Y787086D01*
X27142Y787096D01*
X27148Y787099D01*
X27348Y787999D01*
X27345Y788007D01*
X27349Y788010D01*
X27349Y788810D01*
X27342Y788819D01*
X27347Y788826D01*
X27047Y789726D01*
X27038Y789732D01*
X27040Y789739D01*
X26540Y790439D01*
X26532Y790441D01*
X26533Y790447D01*
X25633Y791247D01*
X25624Y791247D01*
X25624Y791253D01*
X24524Y791853D01*
X24512Y791852D01*
X24509Y791858D01*
X23409Y792058D01*
X23403Y792055D01*
X23400Y792059D01*
X22400Y792059D01*
X22391Y792052D01*
X22384Y792057D01*
X21484Y791757D01*
X21484Y791756D01*
X21483Y791756D01*
X20683Y791456D01*
X20681Y791453D01*
X20678Y791454D01*
X20078Y791154D01*
X20075Y791148D01*
X20070Y791149D01*
X19670Y790849D01*
X19669Y790844D01*
X19665Y790845D01*
X19565Y790745D01*
X19563Y790731D01*
X19553Y790723D01*
X19561Y790713D01*
X19557Y790686D01*
X19584Y790682D01*
X19600Y790661D01*
X19900Y790661D01*
X19909Y790668D01*
X19916Y790663D01*
X20208Y790761D01*
X20494Y790761D01*
X20888Y790662D01*
X20890Y790663D01*
X20890Y790662D01*
X21384Y790563D01*
X21774Y790368D01*
X22164Y790076D01*
X22355Y789788D01*
X22453Y789494D01*
X22458Y789491D01*
X22456Y789488D01*
X22554Y789291D01*
X22648Y789010D01*
X22553Y788726D01*
X22554Y788723D01*
X22552Y788722D01*
X22454Y788330D01*
X22259Y788037D01*
X22259Y788033D01*
X22256Y788032D01*
X22059Y787639D01*
X21769Y787348D01*
X21473Y787151D01*
X21472Y787149D01*
X21470Y787149D01*
X21071Y786850D01*
X20775Y786653D01*
X19988Y786259D01*
X19308Y786259D01*
X19022Y786355D01*
X18741Y786542D01*
X18549Y787118D01*
X18549Y787910D01*
X18546Y787914D01*
X18548Y787919D01*
X18539Y787924D01*
X18513Y787957D01*
X18497Y787945D01*
X18478Y787954D01*
X17678Y787554D01*
X17672Y787542D01*
X17663Y787543D01*
X16863Y786643D01*
X16863Y786635D01*
X16857Y786635D01*
X16157Y785435D01*
X16158Y785428D01*
X16154Y785427D01*
X15654Y784027D01*
X15655Y784021D01*
X15652Y784019D01*
X15352Y782419D01*
X15356Y782411D01*
X15351Y782407D01*
X15451Y780607D01*
X15456Y780601D01*
X15453Y780597D01*
X15953Y778797D01*
X15959Y778792D01*
X15957Y778786D01*
X16957Y776986D01*
X16962Y776984D01*
X16961Y776980D01*
X17661Y776080D01*
X17666Y776079D01*
X17665Y776075D01*
X18465Y775275D01*
X18468Y775275D01*
X18468Y775273D01*
X19268Y774573D01*
X19274Y774572D01*
X19275Y774568D01*
X20275Y773968D01*
X20281Y773968D01*
X20282Y773964D01*
X21282Y773564D01*
X21286Y773565D01*
X21287Y773563D01*
X22387Y773263D01*
X22391Y773264D01*
X22392Y773261D01*
X23592Y773061D01*
X23594Y773062D01*
X23599Y773062D01*
X23600Y773061D01*
X25496Y773061D01*
X26083Y772963D01*
X26572Y772670D01*
X27565Y771875D01*
X28062Y771278D01*
X28066Y771278D01*
X28065Y771275D01*
X29362Y769978D01*
X29860Y769281D01*
X29866Y769280D01*
X29865Y769275D01*
X30463Y768677D01*
X30962Y768078D01*
X30966Y768078D01*
X30965Y768075D01*
X31463Y767578D01*
X31761Y767180D01*
X31766Y767179D01*
X31765Y767175D01*
X32062Y766879D01*
X32259Y766583D01*
X32292Y766571D01*
X32300Y766561D01*
X32400Y766561D01*
X32447Y766597D01*
G37*
G36*
X507695Y1200432D02*
X507695Y1200432D01*
X507761Y1200434D01*
X507804Y1200452D01*
X507851Y1200460D01*
X507908Y1200494D01*
X507968Y1200519D01*
X508003Y1200550D01*
X508044Y1200575D01*
X508086Y1200626D01*
X508134Y1200670D01*
X508156Y1200712D01*
X508185Y1200749D01*
X508206Y1200811D01*
X508237Y1200870D01*
X508245Y1200924D01*
X508257Y1200961D01*
X508256Y1201001D01*
X508264Y1201055D01*
X508264Y1204865D01*
X508253Y1204930D01*
X508251Y1204996D01*
X508233Y1205039D01*
X508225Y1205086D01*
X508191Y1205143D01*
X508166Y1205203D01*
X508135Y1205238D01*
X508110Y1205279D01*
X508059Y1205321D01*
X508015Y1205369D01*
X507973Y1205391D01*
X507936Y1205420D01*
X507874Y1205441D01*
X507815Y1205472D01*
X507761Y1205480D01*
X507724Y1205492D01*
X507684Y1205491D01*
X507630Y1205499D01*
X505090Y1205499D01*
X505025Y1205488D01*
X504959Y1205486D01*
X504916Y1205468D01*
X504869Y1205460D01*
X504812Y1205426D01*
X504752Y1205401D01*
X504717Y1205370D01*
X504676Y1205345D01*
X504635Y1205294D01*
X504586Y1205250D01*
X504564Y1205208D01*
X504535Y1205171D01*
X504514Y1205109D01*
X504483Y1205050D01*
X504475Y1204996D01*
X504463Y1204959D01*
X504463Y1204955D01*
X504463Y1204954D01*
X504464Y1204919D01*
X504456Y1204865D01*
X504456Y1201055D01*
X504467Y1200990D01*
X504469Y1200924D01*
X504487Y1200881D01*
X504495Y1200834D01*
X504529Y1200777D01*
X504554Y1200717D01*
X504585Y1200682D01*
X504610Y1200641D01*
X504661Y1200600D01*
X504705Y1200551D01*
X504747Y1200529D01*
X504784Y1200500D01*
X504846Y1200479D01*
X504905Y1200448D01*
X504959Y1200440D01*
X504996Y1200428D01*
X505036Y1200429D01*
X505090Y1200421D01*
X507630Y1200421D01*
X507695Y1200432D01*
G37*
G36*
X40335Y1200432D02*
X40335Y1200432D01*
X40401Y1200434D01*
X40444Y1200452D01*
X40491Y1200460D01*
X40548Y1200494D01*
X40608Y1200519D01*
X40643Y1200550D01*
X40684Y1200575D01*
X40726Y1200626D01*
X40774Y1200670D01*
X40796Y1200712D01*
X40825Y1200749D01*
X40846Y1200811D01*
X40877Y1200870D01*
X40885Y1200924D01*
X40897Y1200961D01*
X40896Y1201001D01*
X40904Y1201055D01*
X40904Y1204865D01*
X40893Y1204930D01*
X40891Y1204996D01*
X40873Y1205039D01*
X40865Y1205086D01*
X40831Y1205143D01*
X40806Y1205203D01*
X40775Y1205238D01*
X40750Y1205279D01*
X40699Y1205321D01*
X40655Y1205369D01*
X40613Y1205391D01*
X40576Y1205420D01*
X40514Y1205441D01*
X40455Y1205472D01*
X40401Y1205480D01*
X40364Y1205492D01*
X40324Y1205491D01*
X40270Y1205499D01*
X37730Y1205499D01*
X37665Y1205488D01*
X37599Y1205486D01*
X37556Y1205468D01*
X37509Y1205460D01*
X37452Y1205426D01*
X37392Y1205401D01*
X37357Y1205370D01*
X37316Y1205345D01*
X37275Y1205294D01*
X37226Y1205250D01*
X37204Y1205208D01*
X37175Y1205171D01*
X37154Y1205109D01*
X37123Y1205050D01*
X37115Y1204996D01*
X37103Y1204959D01*
X37103Y1204955D01*
X37103Y1204954D01*
X37104Y1204919D01*
X37096Y1204865D01*
X37096Y1201055D01*
X37107Y1200990D01*
X37109Y1200924D01*
X37127Y1200881D01*
X37135Y1200834D01*
X37169Y1200777D01*
X37194Y1200717D01*
X37225Y1200682D01*
X37250Y1200641D01*
X37301Y1200600D01*
X37345Y1200551D01*
X37387Y1200529D01*
X37424Y1200500D01*
X37486Y1200479D01*
X37545Y1200448D01*
X37599Y1200440D01*
X37636Y1200428D01*
X37676Y1200429D01*
X37730Y1200421D01*
X40270Y1200421D01*
X40335Y1200432D01*
G37*
G36*
X274015Y1200432D02*
X274015Y1200432D01*
X274081Y1200434D01*
X274124Y1200452D01*
X274171Y1200460D01*
X274228Y1200494D01*
X274288Y1200519D01*
X274323Y1200550D01*
X274364Y1200575D01*
X274406Y1200626D01*
X274454Y1200670D01*
X274476Y1200712D01*
X274505Y1200749D01*
X274526Y1200811D01*
X274557Y1200870D01*
X274565Y1200924D01*
X274577Y1200961D01*
X274576Y1201001D01*
X274584Y1201055D01*
X274584Y1204865D01*
X274573Y1204930D01*
X274571Y1204996D01*
X274553Y1205039D01*
X274545Y1205086D01*
X274511Y1205143D01*
X274486Y1205203D01*
X274455Y1205238D01*
X274430Y1205279D01*
X274379Y1205321D01*
X274335Y1205369D01*
X274293Y1205391D01*
X274256Y1205420D01*
X274194Y1205441D01*
X274135Y1205472D01*
X274081Y1205480D01*
X274044Y1205492D01*
X274004Y1205491D01*
X273950Y1205499D01*
X271410Y1205499D01*
X271345Y1205488D01*
X271279Y1205486D01*
X271236Y1205468D01*
X271189Y1205460D01*
X271132Y1205426D01*
X271072Y1205401D01*
X271037Y1205370D01*
X270996Y1205345D01*
X270955Y1205294D01*
X270906Y1205250D01*
X270884Y1205208D01*
X270855Y1205171D01*
X270834Y1205109D01*
X270803Y1205050D01*
X270795Y1204996D01*
X270783Y1204959D01*
X270783Y1204955D01*
X270783Y1204954D01*
X270784Y1204919D01*
X270776Y1204865D01*
X270776Y1201055D01*
X270787Y1200990D01*
X270789Y1200924D01*
X270807Y1200881D01*
X270815Y1200834D01*
X270849Y1200777D01*
X270874Y1200717D01*
X270905Y1200682D01*
X270930Y1200641D01*
X270981Y1200600D01*
X271025Y1200551D01*
X271067Y1200529D01*
X271104Y1200500D01*
X271166Y1200479D01*
X271225Y1200448D01*
X271279Y1200440D01*
X271316Y1200428D01*
X271356Y1200429D01*
X271410Y1200421D01*
X273950Y1200421D01*
X274015Y1200432D01*
G37*
G36*
X741375Y1200432D02*
X741375Y1200432D01*
X741441Y1200434D01*
X741484Y1200452D01*
X741531Y1200460D01*
X741588Y1200494D01*
X741648Y1200519D01*
X741683Y1200550D01*
X741724Y1200575D01*
X741766Y1200626D01*
X741814Y1200670D01*
X741836Y1200712D01*
X741865Y1200749D01*
X741886Y1200811D01*
X741917Y1200870D01*
X741925Y1200924D01*
X741937Y1200961D01*
X741936Y1201001D01*
X741944Y1201055D01*
X741944Y1204865D01*
X741933Y1204930D01*
X741931Y1204996D01*
X741913Y1205039D01*
X741905Y1205086D01*
X741871Y1205143D01*
X741846Y1205203D01*
X741815Y1205238D01*
X741790Y1205279D01*
X741739Y1205321D01*
X741695Y1205369D01*
X741653Y1205391D01*
X741616Y1205420D01*
X741554Y1205441D01*
X741495Y1205472D01*
X741441Y1205480D01*
X741404Y1205492D01*
X741364Y1205491D01*
X741310Y1205499D01*
X738770Y1205499D01*
X738705Y1205488D01*
X738639Y1205486D01*
X738596Y1205468D01*
X738549Y1205460D01*
X738492Y1205426D01*
X738432Y1205401D01*
X738397Y1205370D01*
X738356Y1205345D01*
X738315Y1205294D01*
X738266Y1205250D01*
X738244Y1205208D01*
X738215Y1205171D01*
X738194Y1205109D01*
X738163Y1205050D01*
X738155Y1204996D01*
X738143Y1204959D01*
X738143Y1204955D01*
X738143Y1204954D01*
X738144Y1204919D01*
X738136Y1204865D01*
X738136Y1201055D01*
X738147Y1200990D01*
X738149Y1200924D01*
X738167Y1200881D01*
X738175Y1200834D01*
X738209Y1200777D01*
X738234Y1200717D01*
X738265Y1200682D01*
X738290Y1200641D01*
X738341Y1200600D01*
X738385Y1200551D01*
X738427Y1200529D01*
X738464Y1200500D01*
X738526Y1200479D01*
X738585Y1200448D01*
X738639Y1200440D01*
X738676Y1200428D01*
X738716Y1200429D01*
X738770Y1200421D01*
X741310Y1200421D01*
X741375Y1200432D01*
G37*
G36*
X975055Y1200432D02*
X975055Y1200432D01*
X975121Y1200434D01*
X975164Y1200452D01*
X975211Y1200460D01*
X975268Y1200494D01*
X975328Y1200519D01*
X975363Y1200550D01*
X975404Y1200575D01*
X975446Y1200626D01*
X975494Y1200670D01*
X975516Y1200712D01*
X975545Y1200749D01*
X975566Y1200811D01*
X975597Y1200870D01*
X975605Y1200924D01*
X975617Y1200961D01*
X975616Y1201001D01*
X975624Y1201055D01*
X975624Y1204865D01*
X975613Y1204930D01*
X975611Y1204996D01*
X975593Y1205039D01*
X975585Y1205086D01*
X975551Y1205143D01*
X975526Y1205203D01*
X975495Y1205238D01*
X975470Y1205279D01*
X975419Y1205321D01*
X975375Y1205369D01*
X975333Y1205391D01*
X975296Y1205420D01*
X975234Y1205441D01*
X975175Y1205472D01*
X975121Y1205480D01*
X975084Y1205492D01*
X975044Y1205491D01*
X974990Y1205499D01*
X972450Y1205499D01*
X972385Y1205488D01*
X972319Y1205486D01*
X972276Y1205468D01*
X972229Y1205460D01*
X972172Y1205426D01*
X972112Y1205401D01*
X972077Y1205370D01*
X972036Y1205345D01*
X971995Y1205294D01*
X971946Y1205250D01*
X971924Y1205208D01*
X971895Y1205171D01*
X971874Y1205109D01*
X971843Y1205050D01*
X971835Y1204996D01*
X971823Y1204959D01*
X971823Y1204955D01*
X971823Y1204954D01*
X971824Y1204919D01*
X971816Y1204865D01*
X971816Y1201055D01*
X971827Y1200990D01*
X971829Y1200924D01*
X971847Y1200881D01*
X971855Y1200834D01*
X971889Y1200777D01*
X971914Y1200717D01*
X971945Y1200682D01*
X971970Y1200641D01*
X972021Y1200600D01*
X972065Y1200551D01*
X972107Y1200529D01*
X972144Y1200500D01*
X972206Y1200479D01*
X972265Y1200448D01*
X972319Y1200440D01*
X972356Y1200428D01*
X972396Y1200429D01*
X972450Y1200421D01*
X974990Y1200421D01*
X975055Y1200432D01*
G37*
G36*
X975055Y1190272D02*
X975055Y1190272D01*
X975121Y1190274D01*
X975164Y1190292D01*
X975211Y1190300D01*
X975268Y1190334D01*
X975328Y1190359D01*
X975363Y1190390D01*
X975404Y1190415D01*
X975446Y1190466D01*
X975494Y1190510D01*
X975516Y1190552D01*
X975545Y1190589D01*
X975566Y1190651D01*
X975597Y1190710D01*
X975605Y1190764D01*
X975617Y1190801D01*
X975616Y1190841D01*
X975624Y1190895D01*
X975624Y1194705D01*
X975613Y1194770D01*
X975611Y1194836D01*
X975593Y1194879D01*
X975585Y1194926D01*
X975551Y1194983D01*
X975526Y1195043D01*
X975495Y1195078D01*
X975470Y1195119D01*
X975419Y1195161D01*
X975375Y1195209D01*
X975333Y1195231D01*
X975296Y1195260D01*
X975234Y1195281D01*
X975175Y1195312D01*
X975121Y1195320D01*
X975084Y1195332D01*
X975044Y1195331D01*
X974990Y1195339D01*
X972450Y1195339D01*
X972385Y1195328D01*
X972319Y1195326D01*
X972276Y1195308D01*
X972229Y1195300D01*
X972172Y1195266D01*
X972112Y1195241D01*
X972077Y1195210D01*
X972036Y1195185D01*
X971995Y1195134D01*
X971946Y1195090D01*
X971924Y1195048D01*
X971895Y1195011D01*
X971874Y1194949D01*
X971843Y1194890D01*
X971835Y1194836D01*
X971823Y1194799D01*
X971823Y1194795D01*
X971823Y1194794D01*
X971824Y1194759D01*
X971816Y1194705D01*
X971816Y1190895D01*
X971827Y1190830D01*
X971829Y1190764D01*
X971847Y1190721D01*
X971855Y1190674D01*
X971889Y1190617D01*
X971914Y1190557D01*
X971945Y1190522D01*
X971970Y1190481D01*
X972021Y1190440D01*
X972065Y1190391D01*
X972107Y1190369D01*
X972144Y1190340D01*
X972206Y1190319D01*
X972265Y1190288D01*
X972319Y1190280D01*
X972356Y1190268D01*
X972396Y1190269D01*
X972450Y1190261D01*
X974990Y1190261D01*
X975055Y1190272D01*
G37*
G36*
X40335Y1190272D02*
X40335Y1190272D01*
X40401Y1190274D01*
X40444Y1190292D01*
X40491Y1190300D01*
X40548Y1190334D01*
X40608Y1190359D01*
X40643Y1190390D01*
X40684Y1190415D01*
X40726Y1190466D01*
X40774Y1190510D01*
X40796Y1190552D01*
X40825Y1190589D01*
X40846Y1190651D01*
X40877Y1190710D01*
X40885Y1190764D01*
X40897Y1190801D01*
X40896Y1190841D01*
X40904Y1190895D01*
X40904Y1194705D01*
X40893Y1194770D01*
X40891Y1194836D01*
X40873Y1194879D01*
X40865Y1194926D01*
X40831Y1194983D01*
X40806Y1195043D01*
X40775Y1195078D01*
X40750Y1195119D01*
X40699Y1195161D01*
X40655Y1195209D01*
X40613Y1195231D01*
X40576Y1195260D01*
X40514Y1195281D01*
X40455Y1195312D01*
X40401Y1195320D01*
X40364Y1195332D01*
X40324Y1195331D01*
X40270Y1195339D01*
X37730Y1195339D01*
X37665Y1195328D01*
X37599Y1195326D01*
X37556Y1195308D01*
X37509Y1195300D01*
X37452Y1195266D01*
X37392Y1195241D01*
X37357Y1195210D01*
X37316Y1195185D01*
X37275Y1195134D01*
X37226Y1195090D01*
X37204Y1195048D01*
X37175Y1195011D01*
X37154Y1194949D01*
X37123Y1194890D01*
X37115Y1194836D01*
X37103Y1194799D01*
X37103Y1194795D01*
X37103Y1194794D01*
X37104Y1194759D01*
X37096Y1194705D01*
X37096Y1190895D01*
X37107Y1190830D01*
X37109Y1190764D01*
X37127Y1190721D01*
X37135Y1190674D01*
X37169Y1190617D01*
X37194Y1190557D01*
X37225Y1190522D01*
X37250Y1190481D01*
X37301Y1190440D01*
X37345Y1190391D01*
X37387Y1190369D01*
X37424Y1190340D01*
X37486Y1190319D01*
X37545Y1190288D01*
X37599Y1190280D01*
X37636Y1190268D01*
X37676Y1190269D01*
X37730Y1190261D01*
X40270Y1190261D01*
X40335Y1190272D01*
G37*
G36*
X274015Y1190272D02*
X274015Y1190272D01*
X274081Y1190274D01*
X274124Y1190292D01*
X274171Y1190300D01*
X274228Y1190334D01*
X274288Y1190359D01*
X274323Y1190390D01*
X274364Y1190415D01*
X274406Y1190466D01*
X274454Y1190510D01*
X274476Y1190552D01*
X274505Y1190589D01*
X274526Y1190651D01*
X274557Y1190710D01*
X274565Y1190764D01*
X274577Y1190801D01*
X274576Y1190841D01*
X274584Y1190895D01*
X274584Y1194705D01*
X274573Y1194770D01*
X274571Y1194836D01*
X274553Y1194879D01*
X274545Y1194926D01*
X274511Y1194983D01*
X274486Y1195043D01*
X274455Y1195078D01*
X274430Y1195119D01*
X274379Y1195161D01*
X274335Y1195209D01*
X274293Y1195231D01*
X274256Y1195260D01*
X274194Y1195281D01*
X274135Y1195312D01*
X274081Y1195320D01*
X274044Y1195332D01*
X274004Y1195331D01*
X273950Y1195339D01*
X271410Y1195339D01*
X271345Y1195328D01*
X271279Y1195326D01*
X271236Y1195308D01*
X271189Y1195300D01*
X271132Y1195266D01*
X271072Y1195241D01*
X271037Y1195210D01*
X270996Y1195185D01*
X270955Y1195134D01*
X270906Y1195090D01*
X270884Y1195048D01*
X270855Y1195011D01*
X270834Y1194949D01*
X270803Y1194890D01*
X270795Y1194836D01*
X270783Y1194799D01*
X270783Y1194795D01*
X270783Y1194794D01*
X270784Y1194759D01*
X270776Y1194705D01*
X270776Y1190895D01*
X270787Y1190830D01*
X270789Y1190764D01*
X270807Y1190721D01*
X270815Y1190674D01*
X270849Y1190617D01*
X270874Y1190557D01*
X270905Y1190522D01*
X270930Y1190481D01*
X270981Y1190440D01*
X271025Y1190391D01*
X271067Y1190369D01*
X271104Y1190340D01*
X271166Y1190319D01*
X271225Y1190288D01*
X271279Y1190280D01*
X271316Y1190268D01*
X271356Y1190269D01*
X271410Y1190261D01*
X273950Y1190261D01*
X274015Y1190272D01*
G37*
G36*
X507695Y1190272D02*
X507695Y1190272D01*
X507761Y1190274D01*
X507804Y1190292D01*
X507851Y1190300D01*
X507908Y1190334D01*
X507968Y1190359D01*
X508003Y1190390D01*
X508044Y1190415D01*
X508086Y1190466D01*
X508134Y1190510D01*
X508156Y1190552D01*
X508185Y1190589D01*
X508206Y1190651D01*
X508237Y1190710D01*
X508245Y1190764D01*
X508257Y1190801D01*
X508256Y1190841D01*
X508264Y1190895D01*
X508264Y1194705D01*
X508253Y1194770D01*
X508251Y1194836D01*
X508233Y1194879D01*
X508225Y1194926D01*
X508191Y1194983D01*
X508166Y1195043D01*
X508135Y1195078D01*
X508110Y1195119D01*
X508059Y1195161D01*
X508015Y1195209D01*
X507973Y1195231D01*
X507936Y1195260D01*
X507874Y1195281D01*
X507815Y1195312D01*
X507761Y1195320D01*
X507724Y1195332D01*
X507684Y1195331D01*
X507630Y1195339D01*
X505090Y1195339D01*
X505025Y1195328D01*
X504959Y1195326D01*
X504916Y1195308D01*
X504869Y1195300D01*
X504812Y1195266D01*
X504752Y1195241D01*
X504717Y1195210D01*
X504676Y1195185D01*
X504635Y1195134D01*
X504586Y1195090D01*
X504564Y1195048D01*
X504535Y1195011D01*
X504514Y1194949D01*
X504483Y1194890D01*
X504475Y1194836D01*
X504463Y1194799D01*
X504463Y1194795D01*
X504463Y1194794D01*
X504464Y1194759D01*
X504456Y1194705D01*
X504456Y1190895D01*
X504467Y1190830D01*
X504469Y1190764D01*
X504487Y1190721D01*
X504495Y1190674D01*
X504529Y1190617D01*
X504554Y1190557D01*
X504585Y1190522D01*
X504610Y1190481D01*
X504661Y1190440D01*
X504705Y1190391D01*
X504747Y1190369D01*
X504784Y1190340D01*
X504846Y1190319D01*
X504905Y1190288D01*
X504959Y1190280D01*
X504996Y1190268D01*
X505036Y1190269D01*
X505090Y1190261D01*
X507630Y1190261D01*
X507695Y1190272D01*
G37*
G36*
X741375Y1190272D02*
X741375Y1190272D01*
X741441Y1190274D01*
X741484Y1190292D01*
X741531Y1190300D01*
X741588Y1190334D01*
X741648Y1190359D01*
X741683Y1190390D01*
X741724Y1190415D01*
X741766Y1190466D01*
X741814Y1190510D01*
X741836Y1190552D01*
X741865Y1190589D01*
X741886Y1190651D01*
X741917Y1190710D01*
X741925Y1190764D01*
X741937Y1190801D01*
X741936Y1190841D01*
X741944Y1190895D01*
X741944Y1194705D01*
X741933Y1194770D01*
X741931Y1194836D01*
X741913Y1194879D01*
X741905Y1194926D01*
X741871Y1194983D01*
X741846Y1195043D01*
X741815Y1195078D01*
X741790Y1195119D01*
X741739Y1195161D01*
X741695Y1195209D01*
X741653Y1195231D01*
X741616Y1195260D01*
X741554Y1195281D01*
X741495Y1195312D01*
X741441Y1195320D01*
X741404Y1195332D01*
X741364Y1195331D01*
X741310Y1195339D01*
X738770Y1195339D01*
X738705Y1195328D01*
X738639Y1195326D01*
X738596Y1195308D01*
X738549Y1195300D01*
X738492Y1195266D01*
X738432Y1195241D01*
X738397Y1195210D01*
X738356Y1195185D01*
X738315Y1195134D01*
X738266Y1195090D01*
X738244Y1195048D01*
X738215Y1195011D01*
X738194Y1194949D01*
X738163Y1194890D01*
X738155Y1194836D01*
X738143Y1194799D01*
X738143Y1194795D01*
X738143Y1194794D01*
X738144Y1194759D01*
X738136Y1194705D01*
X738136Y1190895D01*
X738147Y1190830D01*
X738149Y1190764D01*
X738167Y1190721D01*
X738175Y1190674D01*
X738209Y1190617D01*
X738234Y1190557D01*
X738265Y1190522D01*
X738290Y1190481D01*
X738341Y1190440D01*
X738385Y1190391D01*
X738427Y1190369D01*
X738464Y1190340D01*
X738526Y1190319D01*
X738585Y1190288D01*
X738639Y1190280D01*
X738676Y1190268D01*
X738716Y1190269D01*
X738770Y1190261D01*
X741310Y1190261D01*
X741375Y1190272D01*
G37*
G36*
X820375Y223472D02*
X820375Y223472D01*
X820441Y223474D01*
X820484Y223492D01*
X820531Y223500D01*
X820588Y223534D01*
X820648Y223559D01*
X820683Y223590D01*
X820724Y223615D01*
X820766Y223666D01*
X820814Y223710D01*
X820836Y223752D01*
X820865Y223789D01*
X820886Y223851D01*
X820917Y223910D01*
X820925Y223964D01*
X820937Y224001D01*
X820936Y224041D01*
X820944Y224095D01*
X820944Y227905D01*
X820933Y227970D01*
X820931Y228036D01*
X820913Y228079D01*
X820905Y228126D01*
X820871Y228183D01*
X820846Y228243D01*
X820815Y228278D01*
X820790Y228319D01*
X820739Y228361D01*
X820695Y228409D01*
X820653Y228431D01*
X820616Y228460D01*
X820554Y228481D01*
X820495Y228512D01*
X820441Y228520D01*
X820404Y228532D01*
X820364Y228531D01*
X820310Y228539D01*
X817770Y228539D01*
X817705Y228528D01*
X817639Y228526D01*
X817596Y228508D01*
X817549Y228500D01*
X817492Y228466D01*
X817432Y228441D01*
X817397Y228410D01*
X817356Y228385D01*
X817315Y228334D01*
X817266Y228290D01*
X817244Y228248D01*
X817215Y228211D01*
X817194Y228149D01*
X817163Y228090D01*
X817155Y228036D01*
X817143Y227999D01*
X817143Y227995D01*
X817143Y227994D01*
X817144Y227959D01*
X817136Y227905D01*
X817136Y224095D01*
X817147Y224030D01*
X817149Y223964D01*
X817167Y223921D01*
X817175Y223874D01*
X817209Y223817D01*
X817234Y223757D01*
X817265Y223722D01*
X817290Y223681D01*
X817341Y223640D01*
X817385Y223591D01*
X817427Y223569D01*
X817464Y223540D01*
X817526Y223519D01*
X817585Y223488D01*
X817639Y223480D01*
X817676Y223468D01*
X817716Y223469D01*
X817770Y223461D01*
X820310Y223461D01*
X820375Y223472D01*
G37*
G36*
X119335Y223472D02*
X119335Y223472D01*
X119401Y223474D01*
X119444Y223492D01*
X119491Y223500D01*
X119548Y223534D01*
X119608Y223559D01*
X119643Y223590D01*
X119684Y223615D01*
X119726Y223666D01*
X119774Y223710D01*
X119796Y223752D01*
X119825Y223789D01*
X119846Y223851D01*
X119877Y223910D01*
X119885Y223964D01*
X119897Y224001D01*
X119896Y224041D01*
X119904Y224095D01*
X119904Y227905D01*
X119893Y227970D01*
X119891Y228036D01*
X119873Y228079D01*
X119865Y228126D01*
X119831Y228183D01*
X119806Y228243D01*
X119775Y228278D01*
X119750Y228319D01*
X119699Y228361D01*
X119655Y228409D01*
X119613Y228431D01*
X119576Y228460D01*
X119514Y228481D01*
X119455Y228512D01*
X119401Y228520D01*
X119364Y228532D01*
X119324Y228531D01*
X119270Y228539D01*
X116730Y228539D01*
X116665Y228528D01*
X116599Y228526D01*
X116556Y228508D01*
X116509Y228500D01*
X116452Y228466D01*
X116392Y228441D01*
X116357Y228410D01*
X116316Y228385D01*
X116275Y228334D01*
X116226Y228290D01*
X116204Y228248D01*
X116175Y228211D01*
X116154Y228149D01*
X116123Y228090D01*
X116115Y228036D01*
X116103Y227999D01*
X116103Y227995D01*
X116103Y227994D01*
X116104Y227959D01*
X116096Y227905D01*
X116096Y224095D01*
X116107Y224030D01*
X116109Y223964D01*
X116127Y223921D01*
X116135Y223874D01*
X116169Y223817D01*
X116194Y223757D01*
X116225Y223722D01*
X116250Y223681D01*
X116301Y223640D01*
X116345Y223591D01*
X116387Y223569D01*
X116424Y223540D01*
X116486Y223519D01*
X116545Y223488D01*
X116599Y223480D01*
X116636Y223468D01*
X116676Y223469D01*
X116730Y223461D01*
X119270Y223461D01*
X119335Y223472D01*
G37*
G36*
X353015Y223472D02*
X353015Y223472D01*
X353081Y223474D01*
X353124Y223492D01*
X353171Y223500D01*
X353228Y223534D01*
X353288Y223559D01*
X353323Y223590D01*
X353364Y223615D01*
X353406Y223666D01*
X353454Y223710D01*
X353476Y223752D01*
X353505Y223789D01*
X353526Y223851D01*
X353557Y223910D01*
X353565Y223964D01*
X353577Y224001D01*
X353576Y224041D01*
X353584Y224095D01*
X353584Y227905D01*
X353573Y227970D01*
X353571Y228036D01*
X353553Y228079D01*
X353545Y228126D01*
X353511Y228183D01*
X353486Y228243D01*
X353455Y228278D01*
X353430Y228319D01*
X353379Y228361D01*
X353335Y228409D01*
X353293Y228431D01*
X353256Y228460D01*
X353194Y228481D01*
X353135Y228512D01*
X353081Y228520D01*
X353044Y228532D01*
X353004Y228531D01*
X352950Y228539D01*
X350410Y228539D01*
X350345Y228528D01*
X350279Y228526D01*
X350236Y228508D01*
X350189Y228500D01*
X350132Y228466D01*
X350072Y228441D01*
X350037Y228410D01*
X349996Y228385D01*
X349955Y228334D01*
X349906Y228290D01*
X349884Y228248D01*
X349855Y228211D01*
X349834Y228149D01*
X349803Y228090D01*
X349795Y228036D01*
X349783Y227999D01*
X349783Y227995D01*
X349783Y227994D01*
X349784Y227959D01*
X349776Y227905D01*
X349776Y224095D01*
X349787Y224030D01*
X349789Y223964D01*
X349807Y223921D01*
X349815Y223874D01*
X349849Y223817D01*
X349874Y223757D01*
X349905Y223722D01*
X349930Y223681D01*
X349981Y223640D01*
X350025Y223591D01*
X350067Y223569D01*
X350104Y223540D01*
X350166Y223519D01*
X350225Y223488D01*
X350279Y223480D01*
X350316Y223468D01*
X350356Y223469D01*
X350410Y223461D01*
X352950Y223461D01*
X353015Y223472D01*
G37*
G36*
X1054055Y223472D02*
X1054055Y223472D01*
X1054121Y223474D01*
X1054164Y223492D01*
X1054211Y223500D01*
X1054268Y223534D01*
X1054328Y223559D01*
X1054363Y223590D01*
X1054404Y223615D01*
X1054446Y223666D01*
X1054494Y223710D01*
X1054516Y223752D01*
X1054545Y223789D01*
X1054566Y223851D01*
X1054597Y223910D01*
X1054605Y223964D01*
X1054617Y224001D01*
X1054616Y224041D01*
X1054624Y224095D01*
X1054624Y227905D01*
X1054613Y227970D01*
X1054611Y228036D01*
X1054593Y228079D01*
X1054585Y228126D01*
X1054551Y228183D01*
X1054526Y228243D01*
X1054495Y228278D01*
X1054470Y228319D01*
X1054419Y228361D01*
X1054375Y228409D01*
X1054333Y228431D01*
X1054296Y228460D01*
X1054234Y228481D01*
X1054175Y228512D01*
X1054121Y228520D01*
X1054084Y228532D01*
X1054044Y228531D01*
X1053990Y228539D01*
X1051450Y228539D01*
X1051385Y228528D01*
X1051319Y228526D01*
X1051276Y228508D01*
X1051229Y228500D01*
X1051172Y228466D01*
X1051112Y228441D01*
X1051077Y228410D01*
X1051036Y228385D01*
X1050995Y228334D01*
X1050946Y228290D01*
X1050924Y228248D01*
X1050895Y228211D01*
X1050874Y228149D01*
X1050843Y228090D01*
X1050835Y228036D01*
X1050823Y227999D01*
X1050823Y227995D01*
X1050823Y227994D01*
X1050824Y227959D01*
X1050816Y227905D01*
X1050816Y224095D01*
X1050827Y224030D01*
X1050829Y223964D01*
X1050847Y223921D01*
X1050855Y223874D01*
X1050889Y223817D01*
X1050914Y223757D01*
X1050945Y223722D01*
X1050970Y223681D01*
X1051021Y223640D01*
X1051065Y223591D01*
X1051107Y223569D01*
X1051144Y223540D01*
X1051206Y223519D01*
X1051265Y223488D01*
X1051319Y223480D01*
X1051356Y223468D01*
X1051396Y223469D01*
X1051450Y223461D01*
X1053990Y223461D01*
X1054055Y223472D01*
G37*
G36*
X586695Y223472D02*
X586695Y223472D01*
X586761Y223474D01*
X586804Y223492D01*
X586851Y223500D01*
X586908Y223534D01*
X586968Y223559D01*
X587003Y223590D01*
X587044Y223615D01*
X587086Y223666D01*
X587134Y223710D01*
X587156Y223752D01*
X587185Y223789D01*
X587206Y223851D01*
X587237Y223910D01*
X587245Y223964D01*
X587257Y224001D01*
X587256Y224041D01*
X587264Y224095D01*
X587264Y227905D01*
X587253Y227970D01*
X587251Y228036D01*
X587233Y228079D01*
X587225Y228126D01*
X587191Y228183D01*
X587166Y228243D01*
X587135Y228278D01*
X587110Y228319D01*
X587059Y228361D01*
X587015Y228409D01*
X586973Y228431D01*
X586936Y228460D01*
X586874Y228481D01*
X586815Y228512D01*
X586761Y228520D01*
X586724Y228532D01*
X586684Y228531D01*
X586630Y228539D01*
X584090Y228539D01*
X584025Y228528D01*
X583959Y228526D01*
X583916Y228508D01*
X583869Y228500D01*
X583812Y228466D01*
X583752Y228441D01*
X583717Y228410D01*
X583676Y228385D01*
X583635Y228334D01*
X583586Y228290D01*
X583564Y228248D01*
X583535Y228211D01*
X583514Y228149D01*
X583483Y228090D01*
X583475Y228036D01*
X583463Y227999D01*
X583463Y227995D01*
X583463Y227994D01*
X583464Y227959D01*
X583456Y227905D01*
X583456Y224095D01*
X583467Y224030D01*
X583469Y223964D01*
X583487Y223921D01*
X583495Y223874D01*
X583529Y223817D01*
X583554Y223757D01*
X583585Y223722D01*
X583610Y223681D01*
X583661Y223640D01*
X583705Y223591D01*
X583747Y223569D01*
X583784Y223540D01*
X583846Y223519D01*
X583905Y223488D01*
X583959Y223480D01*
X583996Y223468D01*
X584036Y223469D01*
X584090Y223461D01*
X586630Y223461D01*
X586695Y223472D01*
G37*
G36*
X119335Y914352D02*
X119335Y914352D01*
X119401Y914354D01*
X119444Y914372D01*
X119491Y914380D01*
X119548Y914414D01*
X119608Y914439D01*
X119643Y914470D01*
X119684Y914495D01*
X119726Y914546D01*
X119774Y914590D01*
X119796Y914632D01*
X119825Y914669D01*
X119846Y914731D01*
X119877Y914790D01*
X119885Y914844D01*
X119897Y914881D01*
X119896Y914921D01*
X119904Y914975D01*
X119904Y918785D01*
X119893Y918850D01*
X119891Y918916D01*
X119873Y918959D01*
X119865Y919006D01*
X119831Y919063D01*
X119806Y919123D01*
X119775Y919158D01*
X119750Y919199D01*
X119699Y919241D01*
X119655Y919289D01*
X119613Y919311D01*
X119576Y919340D01*
X119514Y919361D01*
X119455Y919392D01*
X119401Y919400D01*
X119364Y919412D01*
X119324Y919411D01*
X119270Y919419D01*
X116730Y919419D01*
X116665Y919408D01*
X116599Y919406D01*
X116556Y919388D01*
X116509Y919380D01*
X116452Y919346D01*
X116392Y919321D01*
X116357Y919290D01*
X116316Y919265D01*
X116275Y919214D01*
X116226Y919170D01*
X116204Y919128D01*
X116175Y919091D01*
X116154Y919029D01*
X116123Y918970D01*
X116115Y918916D01*
X116103Y918879D01*
X116103Y918875D01*
X116103Y918874D01*
X116104Y918839D01*
X116096Y918785D01*
X116096Y914975D01*
X116107Y914910D01*
X116109Y914844D01*
X116127Y914801D01*
X116135Y914754D01*
X116169Y914697D01*
X116194Y914637D01*
X116225Y914602D01*
X116250Y914561D01*
X116301Y914520D01*
X116345Y914471D01*
X116387Y914449D01*
X116424Y914420D01*
X116486Y914399D01*
X116545Y914368D01*
X116599Y914360D01*
X116636Y914348D01*
X116676Y914349D01*
X116730Y914341D01*
X119270Y914341D01*
X119335Y914352D01*
G37*
G36*
X820375Y914352D02*
X820375Y914352D01*
X820441Y914354D01*
X820484Y914372D01*
X820531Y914380D01*
X820588Y914414D01*
X820648Y914439D01*
X820683Y914470D01*
X820724Y914495D01*
X820766Y914546D01*
X820814Y914590D01*
X820836Y914632D01*
X820865Y914669D01*
X820886Y914731D01*
X820917Y914790D01*
X820925Y914844D01*
X820937Y914881D01*
X820936Y914921D01*
X820944Y914975D01*
X820944Y918785D01*
X820933Y918850D01*
X820931Y918916D01*
X820913Y918959D01*
X820905Y919006D01*
X820871Y919063D01*
X820846Y919123D01*
X820815Y919158D01*
X820790Y919199D01*
X820739Y919241D01*
X820695Y919289D01*
X820653Y919311D01*
X820616Y919340D01*
X820554Y919361D01*
X820495Y919392D01*
X820441Y919400D01*
X820404Y919412D01*
X820364Y919411D01*
X820310Y919419D01*
X817770Y919419D01*
X817705Y919408D01*
X817639Y919406D01*
X817596Y919388D01*
X817549Y919380D01*
X817492Y919346D01*
X817432Y919321D01*
X817397Y919290D01*
X817356Y919265D01*
X817315Y919214D01*
X817266Y919170D01*
X817244Y919128D01*
X817215Y919091D01*
X817194Y919029D01*
X817163Y918970D01*
X817155Y918916D01*
X817143Y918879D01*
X817143Y918875D01*
X817143Y918874D01*
X817144Y918839D01*
X817136Y918785D01*
X817136Y914975D01*
X817147Y914910D01*
X817149Y914844D01*
X817167Y914801D01*
X817175Y914754D01*
X817209Y914697D01*
X817234Y914637D01*
X817265Y914602D01*
X817290Y914561D01*
X817341Y914520D01*
X817385Y914471D01*
X817427Y914449D01*
X817464Y914420D01*
X817526Y914399D01*
X817585Y914368D01*
X817639Y914360D01*
X817676Y914348D01*
X817716Y914349D01*
X817770Y914341D01*
X820310Y914341D01*
X820375Y914352D01*
G37*
G36*
X586695Y914352D02*
X586695Y914352D01*
X586761Y914354D01*
X586804Y914372D01*
X586851Y914380D01*
X586908Y914414D01*
X586968Y914439D01*
X587003Y914470D01*
X587044Y914495D01*
X587086Y914546D01*
X587134Y914590D01*
X587156Y914632D01*
X587185Y914669D01*
X587206Y914731D01*
X587237Y914790D01*
X587245Y914844D01*
X587257Y914881D01*
X587256Y914921D01*
X587264Y914975D01*
X587264Y918785D01*
X587253Y918850D01*
X587251Y918916D01*
X587233Y918959D01*
X587225Y919006D01*
X587191Y919063D01*
X587166Y919123D01*
X587135Y919158D01*
X587110Y919199D01*
X587059Y919241D01*
X587015Y919289D01*
X586973Y919311D01*
X586936Y919340D01*
X586874Y919361D01*
X586815Y919392D01*
X586761Y919400D01*
X586724Y919412D01*
X586684Y919411D01*
X586630Y919419D01*
X584090Y919419D01*
X584025Y919408D01*
X583959Y919406D01*
X583916Y919388D01*
X583869Y919380D01*
X583812Y919346D01*
X583752Y919321D01*
X583717Y919290D01*
X583676Y919265D01*
X583635Y919214D01*
X583586Y919170D01*
X583564Y919128D01*
X583535Y919091D01*
X583514Y919029D01*
X583483Y918970D01*
X583475Y918916D01*
X583463Y918879D01*
X583463Y918875D01*
X583463Y918874D01*
X583464Y918839D01*
X583456Y918785D01*
X583456Y914975D01*
X583467Y914910D01*
X583469Y914844D01*
X583487Y914801D01*
X583495Y914754D01*
X583529Y914697D01*
X583554Y914637D01*
X583585Y914602D01*
X583610Y914561D01*
X583661Y914520D01*
X583705Y914471D01*
X583747Y914449D01*
X583784Y914420D01*
X583846Y914399D01*
X583905Y914368D01*
X583959Y914360D01*
X583996Y914348D01*
X584036Y914349D01*
X584090Y914341D01*
X586630Y914341D01*
X586695Y914352D01*
G37*
G36*
X353015Y914352D02*
X353015Y914352D01*
X353081Y914354D01*
X353124Y914372D01*
X353171Y914380D01*
X353228Y914414D01*
X353288Y914439D01*
X353323Y914470D01*
X353364Y914495D01*
X353406Y914546D01*
X353454Y914590D01*
X353476Y914632D01*
X353505Y914669D01*
X353526Y914731D01*
X353557Y914790D01*
X353565Y914844D01*
X353577Y914881D01*
X353576Y914921D01*
X353584Y914975D01*
X353584Y918785D01*
X353573Y918850D01*
X353571Y918916D01*
X353553Y918959D01*
X353545Y919006D01*
X353511Y919063D01*
X353486Y919123D01*
X353455Y919158D01*
X353430Y919199D01*
X353379Y919241D01*
X353335Y919289D01*
X353293Y919311D01*
X353256Y919340D01*
X353194Y919361D01*
X353135Y919392D01*
X353081Y919400D01*
X353044Y919412D01*
X353004Y919411D01*
X352950Y919419D01*
X350410Y919419D01*
X350345Y919408D01*
X350279Y919406D01*
X350236Y919388D01*
X350189Y919380D01*
X350132Y919346D01*
X350072Y919321D01*
X350037Y919290D01*
X349996Y919265D01*
X349955Y919214D01*
X349906Y919170D01*
X349884Y919128D01*
X349855Y919091D01*
X349834Y919029D01*
X349803Y918970D01*
X349795Y918916D01*
X349783Y918879D01*
X349783Y918875D01*
X349783Y918874D01*
X349784Y918839D01*
X349776Y918785D01*
X349776Y914975D01*
X349787Y914910D01*
X349789Y914844D01*
X349807Y914801D01*
X349815Y914754D01*
X349849Y914697D01*
X349874Y914637D01*
X349905Y914602D01*
X349930Y914561D01*
X349981Y914520D01*
X350025Y914471D01*
X350067Y914449D01*
X350104Y914420D01*
X350166Y914399D01*
X350225Y914368D01*
X350279Y914360D01*
X350316Y914348D01*
X350356Y914349D01*
X350410Y914341D01*
X352950Y914341D01*
X353015Y914352D01*
G37*
G36*
X1054055Y914352D02*
X1054055Y914352D01*
X1054121Y914354D01*
X1054164Y914372D01*
X1054211Y914380D01*
X1054268Y914414D01*
X1054328Y914439D01*
X1054363Y914470D01*
X1054404Y914495D01*
X1054446Y914546D01*
X1054494Y914590D01*
X1054516Y914632D01*
X1054545Y914669D01*
X1054566Y914731D01*
X1054597Y914790D01*
X1054605Y914844D01*
X1054617Y914881D01*
X1054616Y914921D01*
X1054624Y914975D01*
X1054624Y918785D01*
X1054613Y918850D01*
X1054611Y918916D01*
X1054593Y918959D01*
X1054585Y919006D01*
X1054551Y919063D01*
X1054526Y919123D01*
X1054495Y919158D01*
X1054470Y919199D01*
X1054419Y919241D01*
X1054375Y919289D01*
X1054333Y919311D01*
X1054296Y919340D01*
X1054234Y919361D01*
X1054175Y919392D01*
X1054121Y919400D01*
X1054084Y919412D01*
X1054044Y919411D01*
X1053990Y919419D01*
X1051450Y919419D01*
X1051385Y919408D01*
X1051319Y919406D01*
X1051276Y919388D01*
X1051229Y919380D01*
X1051172Y919346D01*
X1051112Y919321D01*
X1051077Y919290D01*
X1051036Y919265D01*
X1050995Y919214D01*
X1050946Y919170D01*
X1050924Y919128D01*
X1050895Y919091D01*
X1050874Y919029D01*
X1050843Y918970D01*
X1050835Y918916D01*
X1050823Y918879D01*
X1050823Y918875D01*
X1050823Y918874D01*
X1050824Y918839D01*
X1050816Y918785D01*
X1050816Y914975D01*
X1050827Y914910D01*
X1050829Y914844D01*
X1050847Y914801D01*
X1050855Y914754D01*
X1050889Y914697D01*
X1050914Y914637D01*
X1050945Y914602D01*
X1050970Y914561D01*
X1051021Y914520D01*
X1051065Y914471D01*
X1051107Y914449D01*
X1051144Y914420D01*
X1051206Y914399D01*
X1051265Y914368D01*
X1051319Y914360D01*
X1051356Y914348D01*
X1051396Y914349D01*
X1051450Y914341D01*
X1053990Y914341D01*
X1054055Y914352D01*
G37*
G36*
X507695Y509552D02*
X507695Y509552D01*
X507761Y509554D01*
X507804Y509572D01*
X507851Y509580D01*
X507908Y509614D01*
X507968Y509639D01*
X508003Y509670D01*
X508044Y509695D01*
X508086Y509746D01*
X508134Y509790D01*
X508156Y509832D01*
X508185Y509869D01*
X508206Y509931D01*
X508237Y509990D01*
X508245Y510044D01*
X508257Y510081D01*
X508256Y510121D01*
X508264Y510175D01*
X508264Y513985D01*
X508253Y514050D01*
X508251Y514116D01*
X508233Y514159D01*
X508225Y514206D01*
X508191Y514263D01*
X508166Y514323D01*
X508135Y514358D01*
X508110Y514399D01*
X508059Y514441D01*
X508015Y514489D01*
X507973Y514511D01*
X507936Y514540D01*
X507874Y514561D01*
X507815Y514592D01*
X507761Y514600D01*
X507724Y514612D01*
X507684Y514611D01*
X507630Y514619D01*
X505090Y514619D01*
X505025Y514608D01*
X504959Y514606D01*
X504916Y514588D01*
X504869Y514580D01*
X504812Y514546D01*
X504752Y514521D01*
X504717Y514490D01*
X504676Y514465D01*
X504635Y514414D01*
X504586Y514370D01*
X504564Y514328D01*
X504535Y514291D01*
X504514Y514229D01*
X504483Y514170D01*
X504475Y514116D01*
X504463Y514079D01*
X504463Y514075D01*
X504463Y514074D01*
X504464Y514039D01*
X504456Y513985D01*
X504456Y510175D01*
X504467Y510110D01*
X504469Y510044D01*
X504487Y510001D01*
X504495Y509954D01*
X504529Y509897D01*
X504554Y509837D01*
X504585Y509802D01*
X504610Y509761D01*
X504661Y509720D01*
X504705Y509671D01*
X504747Y509649D01*
X504784Y509620D01*
X504846Y509599D01*
X504905Y509568D01*
X504959Y509560D01*
X504996Y509548D01*
X505036Y509549D01*
X505090Y509541D01*
X507630Y509541D01*
X507695Y509552D01*
G37*
G36*
X975055Y509552D02*
X975055Y509552D01*
X975121Y509554D01*
X975164Y509572D01*
X975211Y509580D01*
X975268Y509614D01*
X975328Y509639D01*
X975363Y509670D01*
X975404Y509695D01*
X975446Y509746D01*
X975494Y509790D01*
X975516Y509832D01*
X975545Y509869D01*
X975566Y509931D01*
X975597Y509990D01*
X975605Y510044D01*
X975617Y510081D01*
X975616Y510121D01*
X975624Y510175D01*
X975624Y513985D01*
X975613Y514050D01*
X975611Y514116D01*
X975593Y514159D01*
X975585Y514206D01*
X975551Y514263D01*
X975526Y514323D01*
X975495Y514358D01*
X975470Y514399D01*
X975419Y514441D01*
X975375Y514489D01*
X975333Y514511D01*
X975296Y514540D01*
X975234Y514561D01*
X975175Y514592D01*
X975121Y514600D01*
X975084Y514612D01*
X975044Y514611D01*
X974990Y514619D01*
X972450Y514619D01*
X972385Y514608D01*
X972319Y514606D01*
X972276Y514588D01*
X972229Y514580D01*
X972172Y514546D01*
X972112Y514521D01*
X972077Y514490D01*
X972036Y514465D01*
X971995Y514414D01*
X971946Y514370D01*
X971924Y514328D01*
X971895Y514291D01*
X971874Y514229D01*
X971843Y514170D01*
X971835Y514116D01*
X971823Y514079D01*
X971823Y514075D01*
X971823Y514074D01*
X971824Y514039D01*
X971816Y513985D01*
X971816Y510175D01*
X971827Y510110D01*
X971829Y510044D01*
X971847Y510001D01*
X971855Y509954D01*
X971889Y509897D01*
X971914Y509837D01*
X971945Y509802D01*
X971970Y509761D01*
X972021Y509720D01*
X972065Y509671D01*
X972107Y509649D01*
X972144Y509620D01*
X972206Y509599D01*
X972265Y509568D01*
X972319Y509560D01*
X972356Y509548D01*
X972396Y509549D01*
X972450Y509541D01*
X974990Y509541D01*
X975055Y509552D01*
G37*
G36*
X741375Y509552D02*
X741375Y509552D01*
X741441Y509554D01*
X741484Y509572D01*
X741531Y509580D01*
X741588Y509614D01*
X741648Y509639D01*
X741683Y509670D01*
X741724Y509695D01*
X741766Y509746D01*
X741814Y509790D01*
X741836Y509832D01*
X741865Y509869D01*
X741886Y509931D01*
X741917Y509990D01*
X741925Y510044D01*
X741937Y510081D01*
X741936Y510121D01*
X741944Y510175D01*
X741944Y513985D01*
X741933Y514050D01*
X741931Y514116D01*
X741913Y514159D01*
X741905Y514206D01*
X741871Y514263D01*
X741846Y514323D01*
X741815Y514358D01*
X741790Y514399D01*
X741739Y514441D01*
X741695Y514489D01*
X741653Y514511D01*
X741616Y514540D01*
X741554Y514561D01*
X741495Y514592D01*
X741441Y514600D01*
X741404Y514612D01*
X741364Y514611D01*
X741310Y514619D01*
X738770Y514619D01*
X738705Y514608D01*
X738639Y514606D01*
X738596Y514588D01*
X738549Y514580D01*
X738492Y514546D01*
X738432Y514521D01*
X738397Y514490D01*
X738356Y514465D01*
X738315Y514414D01*
X738266Y514370D01*
X738244Y514328D01*
X738215Y514291D01*
X738194Y514229D01*
X738163Y514170D01*
X738155Y514116D01*
X738143Y514079D01*
X738143Y514075D01*
X738143Y514074D01*
X738144Y514039D01*
X738136Y513985D01*
X738136Y510175D01*
X738147Y510110D01*
X738149Y510044D01*
X738167Y510001D01*
X738175Y509954D01*
X738209Y509897D01*
X738234Y509837D01*
X738265Y509802D01*
X738290Y509761D01*
X738341Y509720D01*
X738385Y509671D01*
X738427Y509649D01*
X738464Y509620D01*
X738526Y509599D01*
X738585Y509568D01*
X738639Y509560D01*
X738676Y509548D01*
X738716Y509549D01*
X738770Y509541D01*
X741310Y509541D01*
X741375Y509552D01*
G37*
G36*
X40335Y509552D02*
X40335Y509552D01*
X40401Y509554D01*
X40444Y509572D01*
X40491Y509580D01*
X40548Y509614D01*
X40608Y509639D01*
X40643Y509670D01*
X40684Y509695D01*
X40726Y509746D01*
X40774Y509790D01*
X40796Y509832D01*
X40825Y509869D01*
X40846Y509931D01*
X40877Y509990D01*
X40885Y510044D01*
X40897Y510081D01*
X40896Y510121D01*
X40904Y510175D01*
X40904Y513985D01*
X40893Y514050D01*
X40891Y514116D01*
X40873Y514159D01*
X40865Y514206D01*
X40831Y514263D01*
X40806Y514323D01*
X40775Y514358D01*
X40750Y514399D01*
X40699Y514441D01*
X40655Y514489D01*
X40613Y514511D01*
X40576Y514540D01*
X40514Y514561D01*
X40455Y514592D01*
X40401Y514600D01*
X40364Y514612D01*
X40324Y514611D01*
X40270Y514619D01*
X37730Y514619D01*
X37665Y514608D01*
X37599Y514606D01*
X37556Y514588D01*
X37509Y514580D01*
X37452Y514546D01*
X37392Y514521D01*
X37357Y514490D01*
X37316Y514465D01*
X37275Y514414D01*
X37226Y514370D01*
X37204Y514328D01*
X37175Y514291D01*
X37154Y514229D01*
X37123Y514170D01*
X37115Y514116D01*
X37103Y514079D01*
X37103Y514075D01*
X37103Y514074D01*
X37104Y514039D01*
X37096Y513985D01*
X37096Y510175D01*
X37107Y510110D01*
X37109Y510044D01*
X37127Y510001D01*
X37135Y509954D01*
X37169Y509897D01*
X37194Y509837D01*
X37225Y509802D01*
X37250Y509761D01*
X37301Y509720D01*
X37345Y509671D01*
X37387Y509649D01*
X37424Y509620D01*
X37486Y509599D01*
X37545Y509568D01*
X37599Y509560D01*
X37636Y509548D01*
X37676Y509549D01*
X37730Y509541D01*
X40270Y509541D01*
X40335Y509552D01*
G37*
G36*
X274015Y509552D02*
X274015Y509552D01*
X274081Y509554D01*
X274124Y509572D01*
X274171Y509580D01*
X274228Y509614D01*
X274288Y509639D01*
X274323Y509670D01*
X274364Y509695D01*
X274406Y509746D01*
X274454Y509790D01*
X274476Y509832D01*
X274505Y509869D01*
X274526Y509931D01*
X274557Y509990D01*
X274565Y510044D01*
X274577Y510081D01*
X274576Y510121D01*
X274584Y510175D01*
X274584Y513985D01*
X274573Y514050D01*
X274571Y514116D01*
X274553Y514159D01*
X274545Y514206D01*
X274511Y514263D01*
X274486Y514323D01*
X274455Y514358D01*
X274430Y514399D01*
X274379Y514441D01*
X274335Y514489D01*
X274293Y514511D01*
X274256Y514540D01*
X274194Y514561D01*
X274135Y514592D01*
X274081Y514600D01*
X274044Y514612D01*
X274004Y514611D01*
X273950Y514619D01*
X271410Y514619D01*
X271345Y514608D01*
X271279Y514606D01*
X271236Y514588D01*
X271189Y514580D01*
X271132Y514546D01*
X271072Y514521D01*
X271037Y514490D01*
X270996Y514465D01*
X270955Y514414D01*
X270906Y514370D01*
X270884Y514328D01*
X270855Y514291D01*
X270834Y514229D01*
X270803Y514170D01*
X270795Y514116D01*
X270783Y514079D01*
X270783Y514075D01*
X270783Y514074D01*
X270784Y514039D01*
X270776Y513985D01*
X270776Y510175D01*
X270787Y510110D01*
X270789Y510044D01*
X270807Y510001D01*
X270815Y509954D01*
X270849Y509897D01*
X270874Y509837D01*
X270905Y509802D01*
X270930Y509761D01*
X270981Y509720D01*
X271025Y509671D01*
X271067Y509649D01*
X271104Y509620D01*
X271166Y509599D01*
X271225Y509568D01*
X271279Y509560D01*
X271316Y509548D01*
X271356Y509549D01*
X271410Y509541D01*
X273950Y509541D01*
X274015Y509552D01*
G37*
G36*
X274015Y499392D02*
X274015Y499392D01*
X274081Y499394D01*
X274124Y499412D01*
X274171Y499420D01*
X274228Y499454D01*
X274288Y499479D01*
X274323Y499510D01*
X274364Y499535D01*
X274406Y499586D01*
X274454Y499630D01*
X274476Y499672D01*
X274505Y499709D01*
X274526Y499771D01*
X274557Y499830D01*
X274565Y499884D01*
X274577Y499921D01*
X274576Y499961D01*
X274584Y500015D01*
X274584Y503825D01*
X274573Y503890D01*
X274571Y503956D01*
X274553Y503999D01*
X274545Y504046D01*
X274511Y504103D01*
X274486Y504163D01*
X274455Y504198D01*
X274430Y504239D01*
X274379Y504281D01*
X274335Y504329D01*
X274293Y504351D01*
X274256Y504380D01*
X274194Y504401D01*
X274135Y504432D01*
X274081Y504440D01*
X274044Y504452D01*
X274004Y504451D01*
X273950Y504459D01*
X271410Y504459D01*
X271345Y504448D01*
X271279Y504446D01*
X271236Y504428D01*
X271189Y504420D01*
X271132Y504386D01*
X271072Y504361D01*
X271037Y504330D01*
X270996Y504305D01*
X270955Y504254D01*
X270906Y504210D01*
X270884Y504168D01*
X270855Y504131D01*
X270834Y504069D01*
X270803Y504010D01*
X270795Y503956D01*
X270783Y503919D01*
X270783Y503915D01*
X270783Y503914D01*
X270784Y503879D01*
X270776Y503825D01*
X270776Y500015D01*
X270787Y499950D01*
X270789Y499884D01*
X270807Y499841D01*
X270815Y499794D01*
X270849Y499737D01*
X270874Y499677D01*
X270905Y499642D01*
X270930Y499601D01*
X270981Y499560D01*
X271025Y499511D01*
X271067Y499489D01*
X271104Y499460D01*
X271166Y499439D01*
X271225Y499408D01*
X271279Y499400D01*
X271316Y499388D01*
X271356Y499389D01*
X271410Y499381D01*
X273950Y499381D01*
X274015Y499392D01*
G37*
G36*
X975055Y499392D02*
X975055Y499392D01*
X975121Y499394D01*
X975164Y499412D01*
X975211Y499420D01*
X975268Y499454D01*
X975328Y499479D01*
X975363Y499510D01*
X975404Y499535D01*
X975446Y499586D01*
X975494Y499630D01*
X975516Y499672D01*
X975545Y499709D01*
X975566Y499771D01*
X975597Y499830D01*
X975605Y499884D01*
X975617Y499921D01*
X975616Y499961D01*
X975624Y500015D01*
X975624Y503825D01*
X975613Y503890D01*
X975611Y503956D01*
X975593Y503999D01*
X975585Y504046D01*
X975551Y504103D01*
X975526Y504163D01*
X975495Y504198D01*
X975470Y504239D01*
X975419Y504281D01*
X975375Y504329D01*
X975333Y504351D01*
X975296Y504380D01*
X975234Y504401D01*
X975175Y504432D01*
X975121Y504440D01*
X975084Y504452D01*
X975044Y504451D01*
X974990Y504459D01*
X972450Y504459D01*
X972385Y504448D01*
X972319Y504446D01*
X972276Y504428D01*
X972229Y504420D01*
X972172Y504386D01*
X972112Y504361D01*
X972077Y504330D01*
X972036Y504305D01*
X971995Y504254D01*
X971946Y504210D01*
X971924Y504168D01*
X971895Y504131D01*
X971874Y504069D01*
X971843Y504010D01*
X971835Y503956D01*
X971823Y503919D01*
X971823Y503915D01*
X971823Y503914D01*
X971824Y503879D01*
X971816Y503825D01*
X971816Y500015D01*
X971827Y499950D01*
X971829Y499884D01*
X971847Y499841D01*
X971855Y499794D01*
X971889Y499737D01*
X971914Y499677D01*
X971945Y499642D01*
X971970Y499601D01*
X972021Y499560D01*
X972065Y499511D01*
X972107Y499489D01*
X972144Y499460D01*
X972206Y499439D01*
X972265Y499408D01*
X972319Y499400D01*
X972356Y499388D01*
X972396Y499389D01*
X972450Y499381D01*
X974990Y499381D01*
X975055Y499392D01*
G37*
G36*
X741375Y499392D02*
X741375Y499392D01*
X741441Y499394D01*
X741484Y499412D01*
X741531Y499420D01*
X741588Y499454D01*
X741648Y499479D01*
X741683Y499510D01*
X741724Y499535D01*
X741766Y499586D01*
X741814Y499630D01*
X741836Y499672D01*
X741865Y499709D01*
X741886Y499771D01*
X741917Y499830D01*
X741925Y499884D01*
X741937Y499921D01*
X741936Y499961D01*
X741944Y500015D01*
X741944Y503825D01*
X741933Y503890D01*
X741931Y503956D01*
X741913Y503999D01*
X741905Y504046D01*
X741871Y504103D01*
X741846Y504163D01*
X741815Y504198D01*
X741790Y504239D01*
X741739Y504281D01*
X741695Y504329D01*
X741653Y504351D01*
X741616Y504380D01*
X741554Y504401D01*
X741495Y504432D01*
X741441Y504440D01*
X741404Y504452D01*
X741364Y504451D01*
X741310Y504459D01*
X738770Y504459D01*
X738705Y504448D01*
X738639Y504446D01*
X738596Y504428D01*
X738549Y504420D01*
X738492Y504386D01*
X738432Y504361D01*
X738397Y504330D01*
X738356Y504305D01*
X738315Y504254D01*
X738266Y504210D01*
X738244Y504168D01*
X738215Y504131D01*
X738194Y504069D01*
X738163Y504010D01*
X738155Y503956D01*
X738143Y503919D01*
X738143Y503915D01*
X738143Y503914D01*
X738144Y503879D01*
X738136Y503825D01*
X738136Y500015D01*
X738147Y499950D01*
X738149Y499884D01*
X738167Y499841D01*
X738175Y499794D01*
X738209Y499737D01*
X738234Y499677D01*
X738265Y499642D01*
X738290Y499601D01*
X738341Y499560D01*
X738385Y499511D01*
X738427Y499489D01*
X738464Y499460D01*
X738526Y499439D01*
X738585Y499408D01*
X738639Y499400D01*
X738676Y499388D01*
X738716Y499389D01*
X738770Y499381D01*
X741310Y499381D01*
X741375Y499392D01*
G37*
G36*
X507695Y499392D02*
X507695Y499392D01*
X507761Y499394D01*
X507804Y499412D01*
X507851Y499420D01*
X507908Y499454D01*
X507968Y499479D01*
X508003Y499510D01*
X508044Y499535D01*
X508086Y499586D01*
X508134Y499630D01*
X508156Y499672D01*
X508185Y499709D01*
X508206Y499771D01*
X508237Y499830D01*
X508245Y499884D01*
X508257Y499921D01*
X508256Y499961D01*
X508264Y500015D01*
X508264Y503825D01*
X508253Y503890D01*
X508251Y503956D01*
X508233Y503999D01*
X508225Y504046D01*
X508191Y504103D01*
X508166Y504163D01*
X508135Y504198D01*
X508110Y504239D01*
X508059Y504281D01*
X508015Y504329D01*
X507973Y504351D01*
X507936Y504380D01*
X507874Y504401D01*
X507815Y504432D01*
X507761Y504440D01*
X507724Y504452D01*
X507684Y504451D01*
X507630Y504459D01*
X505090Y504459D01*
X505025Y504448D01*
X504959Y504446D01*
X504916Y504428D01*
X504869Y504420D01*
X504812Y504386D01*
X504752Y504361D01*
X504717Y504330D01*
X504676Y504305D01*
X504635Y504254D01*
X504586Y504210D01*
X504564Y504168D01*
X504535Y504131D01*
X504514Y504069D01*
X504483Y504010D01*
X504475Y503956D01*
X504463Y503919D01*
X504463Y503915D01*
X504463Y503914D01*
X504464Y503879D01*
X504456Y503825D01*
X504456Y500015D01*
X504467Y499950D01*
X504469Y499884D01*
X504487Y499841D01*
X504495Y499794D01*
X504529Y499737D01*
X504554Y499677D01*
X504585Y499642D01*
X504610Y499601D01*
X504661Y499560D01*
X504705Y499511D01*
X504747Y499489D01*
X504784Y499460D01*
X504846Y499439D01*
X504905Y499408D01*
X504959Y499400D01*
X504996Y499388D01*
X505036Y499389D01*
X505090Y499381D01*
X507630Y499381D01*
X507695Y499392D01*
G37*
G36*
X40335Y499392D02*
X40335Y499392D01*
X40401Y499394D01*
X40444Y499412D01*
X40491Y499420D01*
X40548Y499454D01*
X40608Y499479D01*
X40643Y499510D01*
X40684Y499535D01*
X40726Y499586D01*
X40774Y499630D01*
X40796Y499672D01*
X40825Y499709D01*
X40846Y499771D01*
X40877Y499830D01*
X40885Y499884D01*
X40897Y499921D01*
X40896Y499961D01*
X40904Y500015D01*
X40904Y503825D01*
X40893Y503890D01*
X40891Y503956D01*
X40873Y503999D01*
X40865Y504046D01*
X40831Y504103D01*
X40806Y504163D01*
X40775Y504198D01*
X40750Y504239D01*
X40699Y504281D01*
X40655Y504329D01*
X40613Y504351D01*
X40576Y504380D01*
X40514Y504401D01*
X40455Y504432D01*
X40401Y504440D01*
X40364Y504452D01*
X40324Y504451D01*
X40270Y504459D01*
X37730Y504459D01*
X37665Y504448D01*
X37599Y504446D01*
X37556Y504428D01*
X37509Y504420D01*
X37452Y504386D01*
X37392Y504361D01*
X37357Y504330D01*
X37316Y504305D01*
X37275Y504254D01*
X37226Y504210D01*
X37204Y504168D01*
X37175Y504131D01*
X37154Y504069D01*
X37123Y504010D01*
X37115Y503956D01*
X37103Y503919D01*
X37103Y503915D01*
X37103Y503914D01*
X37104Y503879D01*
X37096Y503825D01*
X37096Y500015D01*
X37107Y499950D01*
X37109Y499884D01*
X37127Y499841D01*
X37135Y499794D01*
X37169Y499737D01*
X37194Y499677D01*
X37225Y499642D01*
X37250Y499601D01*
X37301Y499560D01*
X37345Y499511D01*
X37387Y499489D01*
X37424Y499460D01*
X37486Y499439D01*
X37545Y499408D01*
X37599Y499400D01*
X37636Y499388D01*
X37676Y499389D01*
X37730Y499381D01*
X40270Y499381D01*
X40335Y499392D01*
G37*
G36*
X819010Y1113987D02*
X819010Y1113987D01*
X819076Y1113989D01*
X819119Y1114007D01*
X819166Y1114015D01*
X819223Y1114049D01*
X819283Y1114074D01*
X819318Y1114105D01*
X819359Y1114130D01*
X819401Y1114181D01*
X819449Y1114225D01*
X819471Y1114267D01*
X819500Y1114304D01*
X819521Y1114366D01*
X819552Y1114425D01*
X819560Y1114479D01*
X819572Y1114516D01*
X819571Y1114556D01*
X819579Y1114610D01*
X819579Y1117150D01*
X819568Y1117215D01*
X819566Y1117281D01*
X819548Y1117324D01*
X819540Y1117371D01*
X819506Y1117428D01*
X819481Y1117488D01*
X819450Y1117523D01*
X819425Y1117564D01*
X819374Y1117606D01*
X819330Y1117654D01*
X819288Y1117676D01*
X819251Y1117705D01*
X819189Y1117726D01*
X819130Y1117757D01*
X819076Y1117765D01*
X819039Y1117777D01*
X818999Y1117776D01*
X818945Y1117784D01*
X815135Y1117784D01*
X815070Y1117773D01*
X815004Y1117771D01*
X814961Y1117753D01*
X814914Y1117745D01*
X814857Y1117711D01*
X814797Y1117686D01*
X814762Y1117655D01*
X814721Y1117630D01*
X814680Y1117579D01*
X814631Y1117535D01*
X814609Y1117493D01*
X814580Y1117456D01*
X814559Y1117394D01*
X814528Y1117335D01*
X814520Y1117281D01*
X814508Y1117244D01*
X814508Y1117241D01*
X814509Y1117204D01*
X814501Y1117150D01*
X814501Y1114610D01*
X814512Y1114545D01*
X814514Y1114479D01*
X814532Y1114436D01*
X814540Y1114389D01*
X814574Y1114332D01*
X814599Y1114272D01*
X814630Y1114237D01*
X814655Y1114196D01*
X814706Y1114155D01*
X814750Y1114106D01*
X814792Y1114084D01*
X814829Y1114055D01*
X814891Y1114034D01*
X814950Y1114003D01*
X815004Y1113995D01*
X815041Y1113983D01*
X815081Y1113984D01*
X815135Y1113976D01*
X818945Y1113976D01*
X819010Y1113987D01*
G37*
G36*
X117970Y1113987D02*
X117970Y1113987D01*
X118036Y1113989D01*
X118079Y1114007D01*
X118126Y1114015D01*
X118183Y1114049D01*
X118243Y1114074D01*
X118278Y1114105D01*
X118319Y1114130D01*
X118361Y1114181D01*
X118409Y1114225D01*
X118431Y1114267D01*
X118460Y1114304D01*
X118481Y1114366D01*
X118512Y1114425D01*
X118520Y1114479D01*
X118532Y1114516D01*
X118531Y1114556D01*
X118539Y1114610D01*
X118539Y1117150D01*
X118528Y1117215D01*
X118526Y1117281D01*
X118508Y1117324D01*
X118500Y1117371D01*
X118466Y1117428D01*
X118441Y1117488D01*
X118410Y1117523D01*
X118385Y1117564D01*
X118334Y1117606D01*
X118290Y1117654D01*
X118248Y1117676D01*
X118211Y1117705D01*
X118149Y1117726D01*
X118090Y1117757D01*
X118036Y1117765D01*
X117999Y1117777D01*
X117959Y1117776D01*
X117905Y1117784D01*
X114095Y1117784D01*
X114030Y1117773D01*
X113964Y1117771D01*
X113921Y1117753D01*
X113874Y1117745D01*
X113817Y1117711D01*
X113757Y1117686D01*
X113722Y1117655D01*
X113681Y1117630D01*
X113640Y1117579D01*
X113591Y1117535D01*
X113569Y1117493D01*
X113540Y1117456D01*
X113519Y1117394D01*
X113488Y1117335D01*
X113480Y1117281D01*
X113468Y1117244D01*
X113468Y1117241D01*
X113469Y1117204D01*
X113461Y1117150D01*
X113461Y1114610D01*
X113472Y1114545D01*
X113474Y1114479D01*
X113492Y1114436D01*
X113500Y1114389D01*
X113534Y1114332D01*
X113559Y1114272D01*
X113590Y1114237D01*
X113615Y1114196D01*
X113666Y1114155D01*
X113710Y1114106D01*
X113752Y1114084D01*
X113789Y1114055D01*
X113851Y1114034D01*
X113910Y1114003D01*
X113964Y1113995D01*
X114001Y1113983D01*
X114041Y1113984D01*
X114095Y1113976D01*
X117905Y1113976D01*
X117970Y1113987D01*
G37*
G36*
X351650Y1113987D02*
X351650Y1113987D01*
X351716Y1113989D01*
X351759Y1114007D01*
X351806Y1114015D01*
X351863Y1114049D01*
X351923Y1114074D01*
X351958Y1114105D01*
X351999Y1114130D01*
X352041Y1114181D01*
X352089Y1114225D01*
X352111Y1114267D01*
X352140Y1114304D01*
X352161Y1114366D01*
X352192Y1114425D01*
X352200Y1114479D01*
X352212Y1114516D01*
X352211Y1114556D01*
X352219Y1114610D01*
X352219Y1117150D01*
X352208Y1117215D01*
X352206Y1117281D01*
X352188Y1117324D01*
X352180Y1117371D01*
X352146Y1117428D01*
X352121Y1117488D01*
X352090Y1117523D01*
X352065Y1117564D01*
X352014Y1117606D01*
X351970Y1117654D01*
X351928Y1117676D01*
X351891Y1117705D01*
X351829Y1117726D01*
X351770Y1117757D01*
X351716Y1117765D01*
X351679Y1117777D01*
X351639Y1117776D01*
X351585Y1117784D01*
X347775Y1117784D01*
X347710Y1117773D01*
X347644Y1117771D01*
X347601Y1117753D01*
X347554Y1117745D01*
X347497Y1117711D01*
X347437Y1117686D01*
X347402Y1117655D01*
X347361Y1117630D01*
X347320Y1117579D01*
X347271Y1117535D01*
X347249Y1117493D01*
X347220Y1117456D01*
X347199Y1117394D01*
X347168Y1117335D01*
X347160Y1117281D01*
X347148Y1117244D01*
X347148Y1117241D01*
X347149Y1117204D01*
X347141Y1117150D01*
X347141Y1114610D01*
X347152Y1114545D01*
X347154Y1114479D01*
X347172Y1114436D01*
X347180Y1114389D01*
X347214Y1114332D01*
X347239Y1114272D01*
X347270Y1114237D01*
X347295Y1114196D01*
X347346Y1114155D01*
X347390Y1114106D01*
X347432Y1114084D01*
X347469Y1114055D01*
X347531Y1114034D01*
X347590Y1114003D01*
X347644Y1113995D01*
X347681Y1113983D01*
X347721Y1113984D01*
X347775Y1113976D01*
X351585Y1113976D01*
X351650Y1113987D01*
G37*
G36*
X585330Y1113987D02*
X585330Y1113987D01*
X585396Y1113989D01*
X585439Y1114007D01*
X585486Y1114015D01*
X585543Y1114049D01*
X585603Y1114074D01*
X585638Y1114105D01*
X585679Y1114130D01*
X585721Y1114181D01*
X585769Y1114225D01*
X585791Y1114267D01*
X585820Y1114304D01*
X585841Y1114366D01*
X585872Y1114425D01*
X585880Y1114479D01*
X585892Y1114516D01*
X585891Y1114556D01*
X585899Y1114610D01*
X585899Y1117150D01*
X585888Y1117215D01*
X585886Y1117281D01*
X585868Y1117324D01*
X585860Y1117371D01*
X585826Y1117428D01*
X585801Y1117488D01*
X585770Y1117523D01*
X585745Y1117564D01*
X585694Y1117606D01*
X585650Y1117654D01*
X585608Y1117676D01*
X585571Y1117705D01*
X585509Y1117726D01*
X585450Y1117757D01*
X585396Y1117765D01*
X585359Y1117777D01*
X585319Y1117776D01*
X585265Y1117784D01*
X581455Y1117784D01*
X581390Y1117773D01*
X581324Y1117771D01*
X581281Y1117753D01*
X581234Y1117745D01*
X581177Y1117711D01*
X581117Y1117686D01*
X581082Y1117655D01*
X581041Y1117630D01*
X581000Y1117579D01*
X580951Y1117535D01*
X580929Y1117493D01*
X580900Y1117456D01*
X580879Y1117394D01*
X580848Y1117335D01*
X580840Y1117281D01*
X580828Y1117244D01*
X580828Y1117241D01*
X580829Y1117204D01*
X580821Y1117150D01*
X580821Y1114610D01*
X580832Y1114545D01*
X580834Y1114479D01*
X580852Y1114436D01*
X580860Y1114389D01*
X580894Y1114332D01*
X580919Y1114272D01*
X580950Y1114237D01*
X580975Y1114196D01*
X581026Y1114155D01*
X581070Y1114106D01*
X581112Y1114084D01*
X581149Y1114055D01*
X581211Y1114034D01*
X581270Y1114003D01*
X581324Y1113995D01*
X581361Y1113983D01*
X581401Y1113984D01*
X581455Y1113976D01*
X585265Y1113976D01*
X585330Y1113987D01*
G37*
G36*
X1052690Y1113987D02*
X1052690Y1113987D01*
X1052756Y1113989D01*
X1052799Y1114007D01*
X1052846Y1114015D01*
X1052903Y1114049D01*
X1052963Y1114074D01*
X1052998Y1114105D01*
X1053039Y1114130D01*
X1053081Y1114181D01*
X1053129Y1114225D01*
X1053151Y1114267D01*
X1053180Y1114304D01*
X1053201Y1114366D01*
X1053232Y1114425D01*
X1053240Y1114479D01*
X1053252Y1114516D01*
X1053251Y1114556D01*
X1053259Y1114610D01*
X1053259Y1117150D01*
X1053248Y1117215D01*
X1053246Y1117281D01*
X1053228Y1117324D01*
X1053220Y1117371D01*
X1053186Y1117428D01*
X1053161Y1117488D01*
X1053130Y1117523D01*
X1053105Y1117564D01*
X1053054Y1117606D01*
X1053010Y1117654D01*
X1052968Y1117676D01*
X1052931Y1117705D01*
X1052869Y1117726D01*
X1052810Y1117757D01*
X1052756Y1117765D01*
X1052719Y1117777D01*
X1052679Y1117776D01*
X1052625Y1117784D01*
X1048815Y1117784D01*
X1048750Y1117773D01*
X1048684Y1117771D01*
X1048641Y1117753D01*
X1048594Y1117745D01*
X1048537Y1117711D01*
X1048477Y1117686D01*
X1048442Y1117655D01*
X1048401Y1117630D01*
X1048360Y1117579D01*
X1048311Y1117535D01*
X1048289Y1117493D01*
X1048260Y1117456D01*
X1048239Y1117394D01*
X1048208Y1117335D01*
X1048200Y1117281D01*
X1048188Y1117244D01*
X1048188Y1117241D01*
X1048189Y1117204D01*
X1048181Y1117150D01*
X1048181Y1114610D01*
X1048192Y1114545D01*
X1048194Y1114479D01*
X1048212Y1114436D01*
X1048220Y1114389D01*
X1048254Y1114332D01*
X1048279Y1114272D01*
X1048310Y1114237D01*
X1048335Y1114196D01*
X1048386Y1114155D01*
X1048430Y1114106D01*
X1048472Y1114084D01*
X1048509Y1114055D01*
X1048571Y1114034D01*
X1048630Y1114003D01*
X1048684Y1113995D01*
X1048721Y1113983D01*
X1048761Y1113984D01*
X1048815Y1113976D01*
X1052625Y1113976D01*
X1052690Y1113987D01*
G37*
G36*
X1099690Y718987D02*
X1099690Y718987D01*
X1099756Y718989D01*
X1099799Y719007D01*
X1099846Y719015D01*
X1099903Y719049D01*
X1099963Y719074D01*
X1099998Y719105D01*
X1100039Y719130D01*
X1100081Y719181D01*
X1100129Y719225D01*
X1100151Y719267D01*
X1100180Y719304D01*
X1100201Y719366D01*
X1100232Y719425D01*
X1100240Y719479D01*
X1100252Y719516D01*
X1100251Y719556D01*
X1100259Y719610D01*
X1100259Y722150D01*
X1100248Y722215D01*
X1100246Y722281D01*
X1100228Y722324D01*
X1100220Y722371D01*
X1100186Y722428D01*
X1100161Y722488D01*
X1100130Y722523D01*
X1100105Y722564D01*
X1100054Y722606D01*
X1100010Y722654D01*
X1099968Y722676D01*
X1099931Y722705D01*
X1099869Y722726D01*
X1099810Y722757D01*
X1099756Y722765D01*
X1099719Y722777D01*
X1099679Y722776D01*
X1099625Y722784D01*
X1095815Y722784D01*
X1095750Y722773D01*
X1095684Y722771D01*
X1095641Y722753D01*
X1095594Y722745D01*
X1095537Y722711D01*
X1095477Y722686D01*
X1095442Y722655D01*
X1095401Y722630D01*
X1095360Y722579D01*
X1095311Y722535D01*
X1095289Y722493D01*
X1095260Y722456D01*
X1095239Y722394D01*
X1095208Y722335D01*
X1095200Y722281D01*
X1095188Y722244D01*
X1095188Y722241D01*
X1095189Y722204D01*
X1095181Y722150D01*
X1095181Y719610D01*
X1095192Y719545D01*
X1095194Y719479D01*
X1095212Y719436D01*
X1095220Y719389D01*
X1095254Y719332D01*
X1095279Y719272D01*
X1095310Y719237D01*
X1095335Y719196D01*
X1095386Y719155D01*
X1095430Y719106D01*
X1095472Y719084D01*
X1095509Y719055D01*
X1095571Y719034D01*
X1095630Y719003D01*
X1095684Y718995D01*
X1095721Y718983D01*
X1095761Y718984D01*
X1095815Y718976D01*
X1099625Y718976D01*
X1099690Y718987D01*
G37*
G36*
X117970Y423107D02*
X117970Y423107D01*
X118036Y423109D01*
X118079Y423127D01*
X118126Y423135D01*
X118183Y423169D01*
X118243Y423194D01*
X118278Y423225D01*
X118319Y423250D01*
X118361Y423301D01*
X118409Y423345D01*
X118431Y423387D01*
X118460Y423424D01*
X118481Y423486D01*
X118512Y423545D01*
X118520Y423599D01*
X118532Y423636D01*
X118531Y423676D01*
X118539Y423730D01*
X118539Y426270D01*
X118528Y426335D01*
X118526Y426401D01*
X118508Y426444D01*
X118500Y426491D01*
X118466Y426548D01*
X118441Y426608D01*
X118410Y426643D01*
X118385Y426684D01*
X118334Y426726D01*
X118290Y426774D01*
X118248Y426796D01*
X118211Y426825D01*
X118149Y426846D01*
X118090Y426877D01*
X118036Y426885D01*
X117999Y426897D01*
X117959Y426896D01*
X117905Y426904D01*
X114095Y426904D01*
X114030Y426893D01*
X113964Y426891D01*
X113921Y426873D01*
X113874Y426865D01*
X113817Y426831D01*
X113757Y426806D01*
X113722Y426775D01*
X113681Y426750D01*
X113640Y426699D01*
X113591Y426655D01*
X113569Y426613D01*
X113540Y426576D01*
X113519Y426514D01*
X113488Y426455D01*
X113480Y426401D01*
X113468Y426364D01*
X113468Y426361D01*
X113469Y426324D01*
X113461Y426270D01*
X113461Y423730D01*
X113472Y423665D01*
X113474Y423599D01*
X113492Y423556D01*
X113500Y423509D01*
X113534Y423452D01*
X113559Y423392D01*
X113590Y423357D01*
X113615Y423316D01*
X113666Y423275D01*
X113710Y423226D01*
X113752Y423204D01*
X113789Y423175D01*
X113851Y423154D01*
X113910Y423123D01*
X113964Y423115D01*
X114001Y423103D01*
X114041Y423104D01*
X114095Y423096D01*
X117905Y423096D01*
X117970Y423107D01*
G37*
G36*
X819010Y423107D02*
X819010Y423107D01*
X819076Y423109D01*
X819119Y423127D01*
X819166Y423135D01*
X819223Y423169D01*
X819283Y423194D01*
X819318Y423225D01*
X819359Y423250D01*
X819401Y423301D01*
X819449Y423345D01*
X819471Y423387D01*
X819500Y423424D01*
X819521Y423486D01*
X819552Y423545D01*
X819560Y423599D01*
X819572Y423636D01*
X819571Y423676D01*
X819579Y423730D01*
X819579Y426270D01*
X819568Y426335D01*
X819566Y426401D01*
X819548Y426444D01*
X819540Y426491D01*
X819506Y426548D01*
X819481Y426608D01*
X819450Y426643D01*
X819425Y426684D01*
X819374Y426726D01*
X819330Y426774D01*
X819288Y426796D01*
X819251Y426825D01*
X819189Y426846D01*
X819130Y426877D01*
X819076Y426885D01*
X819039Y426897D01*
X818999Y426896D01*
X818945Y426904D01*
X815135Y426904D01*
X815070Y426893D01*
X815004Y426891D01*
X814961Y426873D01*
X814914Y426865D01*
X814857Y426831D01*
X814797Y426806D01*
X814762Y426775D01*
X814721Y426750D01*
X814680Y426699D01*
X814631Y426655D01*
X814609Y426613D01*
X814580Y426576D01*
X814559Y426514D01*
X814528Y426455D01*
X814520Y426401D01*
X814508Y426364D01*
X814508Y426361D01*
X814509Y426324D01*
X814501Y426270D01*
X814501Y423730D01*
X814512Y423665D01*
X814514Y423599D01*
X814532Y423556D01*
X814540Y423509D01*
X814574Y423452D01*
X814599Y423392D01*
X814630Y423357D01*
X814655Y423316D01*
X814706Y423275D01*
X814750Y423226D01*
X814792Y423204D01*
X814829Y423175D01*
X814891Y423154D01*
X814950Y423123D01*
X815004Y423115D01*
X815041Y423103D01*
X815081Y423104D01*
X815135Y423096D01*
X818945Y423096D01*
X819010Y423107D01*
G37*
G36*
X585330Y423107D02*
X585330Y423107D01*
X585396Y423109D01*
X585439Y423127D01*
X585486Y423135D01*
X585543Y423169D01*
X585603Y423194D01*
X585638Y423225D01*
X585679Y423250D01*
X585721Y423301D01*
X585769Y423345D01*
X585791Y423387D01*
X585820Y423424D01*
X585841Y423486D01*
X585872Y423545D01*
X585880Y423599D01*
X585892Y423636D01*
X585891Y423676D01*
X585899Y423730D01*
X585899Y426270D01*
X585888Y426335D01*
X585886Y426401D01*
X585868Y426444D01*
X585860Y426491D01*
X585826Y426548D01*
X585801Y426608D01*
X585770Y426643D01*
X585745Y426684D01*
X585694Y426726D01*
X585650Y426774D01*
X585608Y426796D01*
X585571Y426825D01*
X585509Y426846D01*
X585450Y426877D01*
X585396Y426885D01*
X585359Y426897D01*
X585319Y426896D01*
X585265Y426904D01*
X581455Y426904D01*
X581390Y426893D01*
X581324Y426891D01*
X581281Y426873D01*
X581234Y426865D01*
X581177Y426831D01*
X581117Y426806D01*
X581082Y426775D01*
X581041Y426750D01*
X581000Y426699D01*
X580951Y426655D01*
X580929Y426613D01*
X580900Y426576D01*
X580879Y426514D01*
X580848Y426455D01*
X580840Y426401D01*
X580828Y426364D01*
X580828Y426361D01*
X580829Y426324D01*
X580821Y426270D01*
X580821Y423730D01*
X580832Y423665D01*
X580834Y423599D01*
X580852Y423556D01*
X580860Y423509D01*
X580894Y423452D01*
X580919Y423392D01*
X580950Y423357D01*
X580975Y423316D01*
X581026Y423275D01*
X581070Y423226D01*
X581112Y423204D01*
X581149Y423175D01*
X581211Y423154D01*
X581270Y423123D01*
X581324Y423115D01*
X581361Y423103D01*
X581401Y423104D01*
X581455Y423096D01*
X585265Y423096D01*
X585330Y423107D01*
G37*
G36*
X1052690Y423107D02*
X1052690Y423107D01*
X1052756Y423109D01*
X1052799Y423127D01*
X1052846Y423135D01*
X1052903Y423169D01*
X1052963Y423194D01*
X1052998Y423225D01*
X1053039Y423250D01*
X1053081Y423301D01*
X1053129Y423345D01*
X1053151Y423387D01*
X1053180Y423424D01*
X1053201Y423486D01*
X1053232Y423545D01*
X1053240Y423599D01*
X1053252Y423636D01*
X1053251Y423676D01*
X1053259Y423730D01*
X1053259Y426270D01*
X1053248Y426335D01*
X1053246Y426401D01*
X1053228Y426444D01*
X1053220Y426491D01*
X1053186Y426548D01*
X1053161Y426608D01*
X1053130Y426643D01*
X1053105Y426684D01*
X1053054Y426726D01*
X1053010Y426774D01*
X1052968Y426796D01*
X1052931Y426825D01*
X1052869Y426846D01*
X1052810Y426877D01*
X1052756Y426885D01*
X1052719Y426897D01*
X1052679Y426896D01*
X1052625Y426904D01*
X1048815Y426904D01*
X1048750Y426893D01*
X1048684Y426891D01*
X1048641Y426873D01*
X1048594Y426865D01*
X1048537Y426831D01*
X1048477Y426806D01*
X1048442Y426775D01*
X1048401Y426750D01*
X1048360Y426699D01*
X1048311Y426655D01*
X1048289Y426613D01*
X1048260Y426576D01*
X1048239Y426514D01*
X1048208Y426455D01*
X1048200Y426401D01*
X1048188Y426364D01*
X1048188Y426361D01*
X1048189Y426324D01*
X1048181Y426270D01*
X1048181Y423730D01*
X1048192Y423665D01*
X1048194Y423599D01*
X1048212Y423556D01*
X1048220Y423509D01*
X1048254Y423452D01*
X1048279Y423392D01*
X1048310Y423357D01*
X1048335Y423316D01*
X1048386Y423275D01*
X1048430Y423226D01*
X1048472Y423204D01*
X1048509Y423175D01*
X1048571Y423154D01*
X1048630Y423123D01*
X1048684Y423115D01*
X1048721Y423103D01*
X1048761Y423104D01*
X1048815Y423096D01*
X1052625Y423096D01*
X1052690Y423107D01*
G37*
G36*
X866010Y718987D02*
X866010Y718987D01*
X866076Y718989D01*
X866119Y719007D01*
X866166Y719015D01*
X866223Y719049D01*
X866283Y719074D01*
X866318Y719105D01*
X866359Y719130D01*
X866401Y719181D01*
X866449Y719225D01*
X866471Y719267D01*
X866500Y719304D01*
X866521Y719366D01*
X866552Y719425D01*
X866560Y719479D01*
X866572Y719516D01*
X866571Y719556D01*
X866579Y719610D01*
X866579Y722150D01*
X866568Y722215D01*
X866566Y722281D01*
X866548Y722324D01*
X866540Y722371D01*
X866506Y722428D01*
X866481Y722488D01*
X866450Y722523D01*
X866425Y722564D01*
X866374Y722606D01*
X866330Y722654D01*
X866288Y722676D01*
X866251Y722705D01*
X866189Y722726D01*
X866130Y722757D01*
X866076Y722765D01*
X866039Y722777D01*
X865999Y722776D01*
X865945Y722784D01*
X862135Y722784D01*
X862070Y722773D01*
X862004Y722771D01*
X861961Y722753D01*
X861914Y722745D01*
X861857Y722711D01*
X861797Y722686D01*
X861762Y722655D01*
X861721Y722630D01*
X861680Y722579D01*
X861631Y722535D01*
X861609Y722493D01*
X861580Y722456D01*
X861559Y722394D01*
X861528Y722335D01*
X861520Y722281D01*
X861508Y722244D01*
X861508Y722241D01*
X861509Y722204D01*
X861501Y722150D01*
X861501Y719610D01*
X861512Y719545D01*
X861514Y719479D01*
X861532Y719436D01*
X861540Y719389D01*
X861574Y719332D01*
X861599Y719272D01*
X861630Y719237D01*
X861655Y719196D01*
X861706Y719155D01*
X861750Y719106D01*
X861792Y719084D01*
X861829Y719055D01*
X861891Y719034D01*
X861950Y719003D01*
X862004Y718995D01*
X862041Y718983D01*
X862081Y718984D01*
X862135Y718976D01*
X865945Y718976D01*
X866010Y718987D01*
G37*
G36*
X398650Y718987D02*
X398650Y718987D01*
X398716Y718989D01*
X398759Y719007D01*
X398806Y719015D01*
X398863Y719049D01*
X398923Y719074D01*
X398958Y719105D01*
X398999Y719130D01*
X399041Y719181D01*
X399089Y719225D01*
X399111Y719267D01*
X399140Y719304D01*
X399161Y719366D01*
X399192Y719425D01*
X399200Y719479D01*
X399212Y719516D01*
X399211Y719556D01*
X399219Y719610D01*
X399219Y722150D01*
X399208Y722215D01*
X399206Y722281D01*
X399188Y722324D01*
X399180Y722371D01*
X399146Y722428D01*
X399121Y722488D01*
X399090Y722523D01*
X399065Y722564D01*
X399014Y722606D01*
X398970Y722654D01*
X398928Y722676D01*
X398891Y722705D01*
X398829Y722726D01*
X398770Y722757D01*
X398716Y722765D01*
X398679Y722777D01*
X398639Y722776D01*
X398585Y722784D01*
X394775Y722784D01*
X394710Y722773D01*
X394644Y722771D01*
X394601Y722753D01*
X394554Y722745D01*
X394497Y722711D01*
X394437Y722686D01*
X394402Y722655D01*
X394361Y722630D01*
X394320Y722579D01*
X394271Y722535D01*
X394249Y722493D01*
X394220Y722456D01*
X394199Y722394D01*
X394168Y722335D01*
X394160Y722281D01*
X394148Y722244D01*
X394148Y722241D01*
X394149Y722204D01*
X394141Y722150D01*
X394141Y719610D01*
X394152Y719545D01*
X394154Y719479D01*
X394172Y719436D01*
X394180Y719389D01*
X394214Y719332D01*
X394239Y719272D01*
X394270Y719237D01*
X394295Y719196D01*
X394346Y719155D01*
X394390Y719106D01*
X394432Y719084D01*
X394469Y719055D01*
X394531Y719034D01*
X394590Y719003D01*
X394644Y718995D01*
X394681Y718983D01*
X394721Y718984D01*
X394775Y718976D01*
X398585Y718976D01*
X398650Y718987D01*
G37*
G36*
X351650Y423107D02*
X351650Y423107D01*
X351716Y423109D01*
X351759Y423127D01*
X351806Y423135D01*
X351863Y423169D01*
X351923Y423194D01*
X351958Y423225D01*
X351999Y423250D01*
X352041Y423301D01*
X352089Y423345D01*
X352111Y423387D01*
X352140Y423424D01*
X352161Y423486D01*
X352192Y423545D01*
X352200Y423599D01*
X352212Y423636D01*
X352211Y423676D01*
X352219Y423730D01*
X352219Y426270D01*
X352208Y426335D01*
X352206Y426401D01*
X352188Y426444D01*
X352180Y426491D01*
X352146Y426548D01*
X352121Y426608D01*
X352090Y426643D01*
X352065Y426684D01*
X352014Y426726D01*
X351970Y426774D01*
X351928Y426796D01*
X351891Y426825D01*
X351829Y426846D01*
X351770Y426877D01*
X351716Y426885D01*
X351679Y426897D01*
X351639Y426896D01*
X351585Y426904D01*
X347775Y426904D01*
X347710Y426893D01*
X347644Y426891D01*
X347601Y426873D01*
X347554Y426865D01*
X347497Y426831D01*
X347437Y426806D01*
X347402Y426775D01*
X347361Y426750D01*
X347320Y426699D01*
X347271Y426655D01*
X347249Y426613D01*
X347220Y426576D01*
X347199Y426514D01*
X347168Y426455D01*
X347160Y426401D01*
X347148Y426364D01*
X347148Y426361D01*
X347149Y426324D01*
X347141Y426270D01*
X347141Y423730D01*
X347152Y423665D01*
X347154Y423599D01*
X347172Y423556D01*
X347180Y423509D01*
X347214Y423452D01*
X347239Y423392D01*
X347270Y423357D01*
X347295Y423316D01*
X347346Y423275D01*
X347390Y423226D01*
X347432Y423204D01*
X347469Y423175D01*
X347531Y423154D01*
X347590Y423123D01*
X347644Y423115D01*
X347681Y423103D01*
X347721Y423104D01*
X347775Y423096D01*
X351585Y423096D01*
X351650Y423107D01*
G37*
G36*
X164970Y718987D02*
X164970Y718987D01*
X165036Y718989D01*
X165079Y719007D01*
X165126Y719015D01*
X165183Y719049D01*
X165243Y719074D01*
X165278Y719105D01*
X165319Y719130D01*
X165361Y719181D01*
X165409Y719225D01*
X165431Y719267D01*
X165460Y719304D01*
X165481Y719366D01*
X165512Y719425D01*
X165520Y719479D01*
X165532Y719516D01*
X165531Y719556D01*
X165539Y719610D01*
X165539Y722150D01*
X165528Y722215D01*
X165526Y722281D01*
X165508Y722324D01*
X165500Y722371D01*
X165466Y722428D01*
X165441Y722488D01*
X165410Y722523D01*
X165385Y722564D01*
X165334Y722606D01*
X165290Y722654D01*
X165248Y722676D01*
X165211Y722705D01*
X165149Y722726D01*
X165090Y722757D01*
X165036Y722765D01*
X164999Y722777D01*
X164959Y722776D01*
X164905Y722784D01*
X161095Y722784D01*
X161030Y722773D01*
X160964Y722771D01*
X160921Y722753D01*
X160874Y722745D01*
X160817Y722711D01*
X160757Y722686D01*
X160722Y722655D01*
X160681Y722630D01*
X160640Y722579D01*
X160591Y722535D01*
X160569Y722493D01*
X160540Y722456D01*
X160519Y722394D01*
X160488Y722335D01*
X160480Y722281D01*
X160468Y722244D01*
X160468Y722241D01*
X160469Y722204D01*
X160461Y722150D01*
X160461Y719610D01*
X160472Y719545D01*
X160474Y719479D01*
X160492Y719436D01*
X160500Y719389D01*
X160534Y719332D01*
X160559Y719272D01*
X160590Y719237D01*
X160615Y719196D01*
X160666Y719155D01*
X160710Y719106D01*
X160752Y719084D01*
X160789Y719055D01*
X160851Y719034D01*
X160910Y719003D01*
X160964Y718995D01*
X161001Y718983D01*
X161041Y718984D01*
X161095Y718976D01*
X164905Y718976D01*
X164970Y718987D01*
G37*
G36*
X632330Y718987D02*
X632330Y718987D01*
X632396Y718989D01*
X632439Y719007D01*
X632486Y719015D01*
X632543Y719049D01*
X632603Y719074D01*
X632638Y719105D01*
X632679Y719130D01*
X632721Y719181D01*
X632769Y719225D01*
X632791Y719267D01*
X632820Y719304D01*
X632841Y719366D01*
X632872Y719425D01*
X632880Y719479D01*
X632892Y719516D01*
X632891Y719556D01*
X632899Y719610D01*
X632899Y722150D01*
X632888Y722215D01*
X632886Y722281D01*
X632868Y722324D01*
X632860Y722371D01*
X632826Y722428D01*
X632801Y722488D01*
X632770Y722523D01*
X632745Y722564D01*
X632694Y722606D01*
X632650Y722654D01*
X632608Y722676D01*
X632571Y722705D01*
X632509Y722726D01*
X632450Y722757D01*
X632396Y722765D01*
X632359Y722777D01*
X632319Y722776D01*
X632265Y722784D01*
X628455Y722784D01*
X628390Y722773D01*
X628324Y722771D01*
X628281Y722753D01*
X628234Y722745D01*
X628177Y722711D01*
X628117Y722686D01*
X628082Y722655D01*
X628041Y722630D01*
X628000Y722579D01*
X627951Y722535D01*
X627929Y722493D01*
X627900Y722456D01*
X627879Y722394D01*
X627848Y722335D01*
X627840Y722281D01*
X627828Y722244D01*
X627828Y722241D01*
X627829Y722204D01*
X627821Y722150D01*
X627821Y719610D01*
X627832Y719545D01*
X627834Y719479D01*
X627852Y719436D01*
X627860Y719389D01*
X627894Y719332D01*
X627919Y719272D01*
X627950Y719237D01*
X627975Y719196D01*
X628026Y719155D01*
X628070Y719106D01*
X628112Y719084D01*
X628149Y719055D01*
X628211Y719034D01*
X628270Y719003D01*
X628324Y718995D01*
X628361Y718983D01*
X628401Y718984D01*
X628455Y718976D01*
X632265Y718976D01*
X632330Y718987D01*
G37*
G36*
X398650Y28107D02*
X398650Y28107D01*
X398716Y28109D01*
X398759Y28127D01*
X398806Y28135D01*
X398863Y28169D01*
X398923Y28194D01*
X398958Y28225D01*
X398999Y28250D01*
X399041Y28301D01*
X399089Y28345D01*
X399111Y28387D01*
X399140Y28424D01*
X399161Y28486D01*
X399192Y28545D01*
X399200Y28599D01*
X399212Y28636D01*
X399211Y28676D01*
X399219Y28730D01*
X399219Y31270D01*
X399208Y31335D01*
X399206Y31401D01*
X399188Y31444D01*
X399180Y31491D01*
X399146Y31548D01*
X399121Y31608D01*
X399090Y31643D01*
X399065Y31684D01*
X399014Y31726D01*
X398970Y31774D01*
X398928Y31796D01*
X398891Y31825D01*
X398829Y31846D01*
X398770Y31877D01*
X398716Y31885D01*
X398679Y31897D01*
X398639Y31896D01*
X398585Y31904D01*
X394775Y31904D01*
X394710Y31893D01*
X394644Y31891D01*
X394601Y31873D01*
X394554Y31865D01*
X394497Y31831D01*
X394437Y31806D01*
X394402Y31775D01*
X394361Y31750D01*
X394320Y31699D01*
X394271Y31655D01*
X394249Y31613D01*
X394220Y31576D01*
X394199Y31514D01*
X394168Y31455D01*
X394160Y31401D01*
X394148Y31364D01*
X394148Y31361D01*
X394149Y31324D01*
X394141Y31270D01*
X394141Y28730D01*
X394152Y28665D01*
X394154Y28599D01*
X394172Y28556D01*
X394180Y28509D01*
X394214Y28452D01*
X394239Y28392D01*
X394270Y28357D01*
X394295Y28316D01*
X394346Y28275D01*
X394390Y28226D01*
X394432Y28204D01*
X394469Y28175D01*
X394531Y28154D01*
X394590Y28123D01*
X394644Y28115D01*
X394681Y28103D01*
X394721Y28104D01*
X394775Y28096D01*
X398585Y28096D01*
X398650Y28107D01*
G37*
G36*
X1099690Y28107D02*
X1099690Y28107D01*
X1099756Y28109D01*
X1099799Y28127D01*
X1099846Y28135D01*
X1099903Y28169D01*
X1099963Y28194D01*
X1099998Y28225D01*
X1100039Y28250D01*
X1100081Y28301D01*
X1100129Y28345D01*
X1100151Y28387D01*
X1100180Y28424D01*
X1100201Y28486D01*
X1100232Y28545D01*
X1100240Y28599D01*
X1100252Y28636D01*
X1100251Y28676D01*
X1100259Y28730D01*
X1100259Y31270D01*
X1100248Y31335D01*
X1100246Y31401D01*
X1100228Y31444D01*
X1100220Y31491D01*
X1100186Y31548D01*
X1100161Y31608D01*
X1100130Y31643D01*
X1100105Y31684D01*
X1100054Y31726D01*
X1100010Y31774D01*
X1099968Y31796D01*
X1099931Y31825D01*
X1099869Y31846D01*
X1099810Y31877D01*
X1099756Y31885D01*
X1099719Y31897D01*
X1099679Y31896D01*
X1099625Y31904D01*
X1095815Y31904D01*
X1095750Y31893D01*
X1095684Y31891D01*
X1095641Y31873D01*
X1095594Y31865D01*
X1095537Y31831D01*
X1095477Y31806D01*
X1095442Y31775D01*
X1095401Y31750D01*
X1095360Y31699D01*
X1095311Y31655D01*
X1095289Y31613D01*
X1095260Y31576D01*
X1095239Y31514D01*
X1095208Y31455D01*
X1095200Y31401D01*
X1095188Y31364D01*
X1095188Y31361D01*
X1095189Y31324D01*
X1095181Y31270D01*
X1095181Y28730D01*
X1095192Y28665D01*
X1095194Y28599D01*
X1095212Y28556D01*
X1095220Y28509D01*
X1095254Y28452D01*
X1095279Y28392D01*
X1095310Y28357D01*
X1095335Y28316D01*
X1095386Y28275D01*
X1095430Y28226D01*
X1095472Y28204D01*
X1095509Y28175D01*
X1095571Y28154D01*
X1095630Y28123D01*
X1095684Y28115D01*
X1095721Y28103D01*
X1095761Y28104D01*
X1095815Y28096D01*
X1099625Y28096D01*
X1099690Y28107D01*
G37*
G36*
X164970Y28107D02*
X164970Y28107D01*
X165036Y28109D01*
X165079Y28127D01*
X165126Y28135D01*
X165183Y28169D01*
X165243Y28194D01*
X165278Y28225D01*
X165319Y28250D01*
X165361Y28301D01*
X165409Y28345D01*
X165431Y28387D01*
X165460Y28424D01*
X165481Y28486D01*
X165512Y28545D01*
X165520Y28599D01*
X165532Y28636D01*
X165531Y28676D01*
X165539Y28730D01*
X165539Y31270D01*
X165528Y31335D01*
X165526Y31401D01*
X165508Y31444D01*
X165500Y31491D01*
X165466Y31548D01*
X165441Y31608D01*
X165410Y31643D01*
X165385Y31684D01*
X165334Y31726D01*
X165290Y31774D01*
X165248Y31796D01*
X165211Y31825D01*
X165149Y31846D01*
X165090Y31877D01*
X165036Y31885D01*
X164999Y31897D01*
X164959Y31896D01*
X164905Y31904D01*
X161095Y31904D01*
X161030Y31893D01*
X160964Y31891D01*
X160921Y31873D01*
X160874Y31865D01*
X160817Y31831D01*
X160757Y31806D01*
X160722Y31775D01*
X160681Y31750D01*
X160640Y31699D01*
X160591Y31655D01*
X160569Y31613D01*
X160540Y31576D01*
X160519Y31514D01*
X160488Y31455D01*
X160480Y31401D01*
X160468Y31364D01*
X160468Y31361D01*
X160469Y31324D01*
X160461Y31270D01*
X160461Y28730D01*
X160472Y28665D01*
X160474Y28599D01*
X160492Y28556D01*
X160500Y28509D01*
X160534Y28452D01*
X160559Y28392D01*
X160590Y28357D01*
X160615Y28316D01*
X160666Y28275D01*
X160710Y28226D01*
X160752Y28204D01*
X160789Y28175D01*
X160851Y28154D01*
X160910Y28123D01*
X160964Y28115D01*
X161001Y28103D01*
X161041Y28104D01*
X161095Y28096D01*
X164905Y28096D01*
X164970Y28107D01*
G37*
G36*
X866010Y28107D02*
X866010Y28107D01*
X866076Y28109D01*
X866119Y28127D01*
X866166Y28135D01*
X866223Y28169D01*
X866283Y28194D01*
X866318Y28225D01*
X866359Y28250D01*
X866401Y28301D01*
X866449Y28345D01*
X866471Y28387D01*
X866500Y28424D01*
X866521Y28486D01*
X866552Y28545D01*
X866560Y28599D01*
X866572Y28636D01*
X866571Y28676D01*
X866579Y28730D01*
X866579Y31270D01*
X866568Y31335D01*
X866566Y31401D01*
X866548Y31444D01*
X866540Y31491D01*
X866506Y31548D01*
X866481Y31608D01*
X866450Y31643D01*
X866425Y31684D01*
X866374Y31726D01*
X866330Y31774D01*
X866288Y31796D01*
X866251Y31825D01*
X866189Y31846D01*
X866130Y31877D01*
X866076Y31885D01*
X866039Y31897D01*
X865999Y31896D01*
X865945Y31904D01*
X862135Y31904D01*
X862070Y31893D01*
X862004Y31891D01*
X861961Y31873D01*
X861914Y31865D01*
X861857Y31831D01*
X861797Y31806D01*
X861762Y31775D01*
X861721Y31750D01*
X861680Y31699D01*
X861631Y31655D01*
X861609Y31613D01*
X861580Y31576D01*
X861559Y31514D01*
X861528Y31455D01*
X861520Y31401D01*
X861508Y31364D01*
X861508Y31361D01*
X861509Y31324D01*
X861501Y31270D01*
X861501Y28730D01*
X861512Y28665D01*
X861514Y28599D01*
X861532Y28556D01*
X861540Y28509D01*
X861574Y28452D01*
X861599Y28392D01*
X861630Y28357D01*
X861655Y28316D01*
X861706Y28275D01*
X861750Y28226D01*
X861792Y28204D01*
X861829Y28175D01*
X861891Y28154D01*
X861950Y28123D01*
X862004Y28115D01*
X862041Y28103D01*
X862081Y28104D01*
X862135Y28096D01*
X865945Y28096D01*
X866010Y28107D01*
G37*
G36*
X632330Y28107D02*
X632330Y28107D01*
X632396Y28109D01*
X632439Y28127D01*
X632486Y28135D01*
X632543Y28169D01*
X632603Y28194D01*
X632638Y28225D01*
X632679Y28250D01*
X632721Y28301D01*
X632769Y28345D01*
X632791Y28387D01*
X632820Y28424D01*
X632841Y28486D01*
X632872Y28545D01*
X632880Y28599D01*
X632892Y28636D01*
X632891Y28676D01*
X632899Y28730D01*
X632899Y31270D01*
X632888Y31335D01*
X632886Y31401D01*
X632868Y31444D01*
X632860Y31491D01*
X632826Y31548D01*
X632801Y31608D01*
X632770Y31643D01*
X632745Y31684D01*
X632694Y31726D01*
X632650Y31774D01*
X632608Y31796D01*
X632571Y31825D01*
X632509Y31846D01*
X632450Y31877D01*
X632396Y31885D01*
X632359Y31897D01*
X632319Y31896D01*
X632265Y31904D01*
X628455Y31904D01*
X628390Y31893D01*
X628324Y31891D01*
X628281Y31873D01*
X628234Y31865D01*
X628177Y31831D01*
X628117Y31806D01*
X628082Y31775D01*
X628041Y31750D01*
X628000Y31699D01*
X627951Y31655D01*
X627929Y31613D01*
X627900Y31576D01*
X627879Y31514D01*
X627848Y31455D01*
X627840Y31401D01*
X627828Y31364D01*
X627828Y31361D01*
X627829Y31324D01*
X627821Y31270D01*
X627821Y28730D01*
X627832Y28665D01*
X627834Y28599D01*
X627852Y28556D01*
X627860Y28509D01*
X627894Y28452D01*
X627919Y28392D01*
X627950Y28357D01*
X627975Y28316D01*
X628026Y28275D01*
X628070Y28226D01*
X628112Y28204D01*
X628149Y28175D01*
X628211Y28154D01*
X628270Y28123D01*
X628324Y28115D01*
X628361Y28103D01*
X628401Y28104D01*
X628455Y28096D01*
X632265Y28096D01*
X632330Y28107D01*
G37*
D10*
X215900Y520700D03*
X215900Y495300D03*
X215900Y469900D03*
X215900Y444500D03*
X215900Y419100D03*
X215900Y393700D03*
X215900Y368300D03*
X215900Y342900D03*
X215900Y317500D03*
X215900Y292100D03*
X215900Y266700D03*
X215900Y241300D03*
X215900Y215900D03*
X215900Y190500D03*
X215900Y165100D03*
X215900Y139700D03*
X12700Y241300D03*
X12700Y266700D03*
X12700Y292100D03*
X12700Y317500D03*
X12700Y342900D03*
X12700Y368300D03*
X12700Y393700D03*
X12700Y419100D03*
X12700Y444500D03*
X12700Y469900D03*
X12700Y495300D03*
X12700Y520700D03*
D11*
X25400Y25400D03*
X203200Y25400D03*
X203200Y558800D03*
X25400Y558800D03*
D12*
X6000Y534000D03*
X221000Y53000D03*
D13*
X85400Y47526D03*
X143200Y47526D03*
D14*
X165411Y35844D02*
X171003Y35844D01*
X171003Y24156D01*
X165411Y24156D01*
X165411Y35844D01*
X165411Y26325D02*
X171003Y26325D01*
X171003Y28494D02*
X165411Y28494D01*
X165411Y30663D02*
X171003Y30663D01*
X171003Y32832D02*
X165411Y32832D01*
X165411Y35001D02*
X171003Y35001D01*
X160589Y35844D02*
X154997Y35844D01*
X160589Y35844D02*
X160589Y24156D01*
X154997Y24156D01*
X154997Y35844D01*
X154997Y26325D02*
X160589Y26325D01*
X160589Y28494D02*
X154997Y28494D01*
X154997Y30663D02*
X160589Y30663D01*
X160589Y32832D02*
X154997Y32832D01*
X154997Y35001D02*
X160589Y35001D01*
X123844Y217997D02*
X123844Y223589D01*
X123844Y217997D02*
X112156Y217997D01*
X112156Y223589D01*
X123844Y223589D01*
X123844Y220166D02*
X112156Y220166D01*
X112156Y222335D02*
X123844Y222335D01*
X123844Y228411D02*
X123844Y234003D01*
X123844Y228411D02*
X112156Y228411D01*
X112156Y234003D01*
X123844Y234003D01*
X123844Y230580D02*
X112156Y230580D01*
X112156Y232749D02*
X123844Y232749D01*
D15*
X50800Y63500D03*
D16*
X87919Y64993D02*
X87919Y74007D01*
X87919Y64993D02*
X83905Y64993D01*
X83905Y74007D01*
X87919Y74007D01*
X87919Y67137D02*
X83905Y67137D01*
X83905Y69281D02*
X87919Y69281D01*
X87919Y71425D02*
X83905Y71425D01*
X83905Y73569D02*
X87919Y73569D01*
X98919Y74007D02*
X98919Y64993D01*
X94905Y64993D01*
X94905Y74007D01*
X98919Y74007D01*
X98919Y67137D02*
X94905Y67137D01*
X94905Y69281D02*
X98919Y69281D01*
X98919Y71425D02*
X94905Y71425D01*
X94905Y73569D02*
X98919Y73569D01*
X109919Y74007D02*
X109919Y64993D01*
X105905Y64993D01*
X105905Y74007D01*
X109919Y74007D01*
X109919Y67137D02*
X105905Y67137D01*
X105905Y69281D02*
X109919Y69281D01*
X109919Y71425D02*
X105905Y71425D01*
X105905Y73569D02*
X109919Y73569D01*
X120919Y74007D02*
X120919Y64993D01*
X116905Y64993D01*
X116905Y74007D01*
X120919Y74007D01*
X120919Y67137D02*
X116905Y67137D01*
X116905Y69281D02*
X120919Y69281D01*
X120919Y71425D02*
X116905Y71425D01*
X116905Y73569D02*
X120919Y73569D01*
X131919Y74007D02*
X131919Y64993D01*
X127905Y64993D01*
X127905Y74007D01*
X131919Y74007D01*
X131919Y67137D02*
X127905Y67137D01*
X127905Y69281D02*
X131919Y69281D01*
X131919Y71425D02*
X127905Y71425D01*
X127905Y73569D02*
X131919Y73569D01*
X142919Y74007D02*
X142919Y64993D01*
X138905Y64993D01*
X138905Y74007D01*
X142919Y74007D01*
X142919Y67137D02*
X138905Y67137D01*
X138905Y69281D02*
X142919Y69281D01*
X142919Y71425D02*
X138905Y71425D01*
X138905Y73569D02*
X142919Y73569D01*
X153919Y74007D02*
X153919Y64993D01*
X149905Y64993D01*
X149905Y74007D01*
X153919Y74007D01*
X153919Y67137D02*
X149905Y67137D01*
X149905Y69281D02*
X153919Y69281D01*
X153919Y71425D02*
X149905Y71425D01*
X149905Y73569D02*
X153919Y73569D01*
X164919Y74007D02*
X164919Y64993D01*
X160905Y64993D01*
X160905Y74007D01*
X164919Y74007D01*
X164919Y67137D02*
X160905Y67137D01*
X160905Y69281D02*
X164919Y69281D01*
X164919Y71425D02*
X160905Y71425D01*
X160905Y73569D02*
X164919Y73569D01*
D17*
X71004Y92908D02*
X64820Y92908D01*
X64820Y99692D01*
X71004Y99692D01*
X71004Y92908D01*
X71004Y95081D02*
X64820Y95081D01*
X64820Y97254D02*
X71004Y97254D01*
X71004Y99427D02*
X64820Y99427D01*
D18*
X72620Y104142D02*
X72620Y113858D01*
X72620Y104142D02*
X63204Y104142D01*
X63204Y113858D01*
X72620Y113858D01*
X72620Y106378D02*
X63204Y106378D01*
X63204Y108614D02*
X72620Y108614D01*
X72620Y110850D02*
X63204Y110850D01*
X63204Y113086D02*
X72620Y113086D01*
X72620Y129642D02*
X72620Y140558D01*
X72620Y129642D02*
X63204Y129642D01*
X63204Y140558D01*
X72620Y140558D01*
X72620Y131878D02*
X63204Y131878D01*
X63204Y134114D02*
X72620Y134114D01*
X72620Y136350D02*
X63204Y136350D01*
X63204Y138586D02*
X72620Y138586D01*
X179370Y134858D02*
X179370Y123942D01*
X169954Y123942D01*
X169954Y134858D01*
X179370Y134858D01*
X179370Y126178D02*
X169954Y126178D01*
X169954Y128414D02*
X179370Y128414D01*
X179370Y130650D02*
X169954Y130650D01*
X169954Y132886D02*
X179370Y132886D01*
X179370Y108958D02*
X179370Y86142D01*
X169954Y86142D01*
X169954Y108958D01*
X179370Y108958D01*
X179370Y88378D02*
X169954Y88378D01*
X169954Y90614D02*
X179370Y90614D01*
X179370Y92850D02*
X169954Y92850D01*
X169954Y95086D02*
X179370Y95086D01*
X179370Y97322D02*
X169954Y97322D01*
X169954Y99558D02*
X179370Y99558D01*
X179370Y101794D02*
X169954Y101794D01*
X169954Y104030D02*
X179370Y104030D01*
X179370Y106266D02*
X169954Y106266D01*
X169954Y108502D02*
X179370Y108502D01*
D19*
X156930Y144118D02*
X128794Y144118D01*
X156930Y144118D02*
X156930Y139582D01*
X128794Y139582D01*
X128794Y144118D01*
X128794Y141704D02*
X156930Y141704D01*
X156930Y143826D02*
X128794Y143826D01*
X115030Y144118D02*
X86894Y144118D01*
X115030Y144118D02*
X115030Y139582D01*
X86894Y139582D01*
X86894Y144118D01*
X86894Y141704D02*
X115030Y141704D01*
X115030Y143826D02*
X86894Y143826D01*
D15*
X114300Y444500D03*
X109900Y614300D03*
X109900Y588900D03*
X135300Y614300D03*
X160700Y614300D03*
X160700Y588900D03*
D14*
X33156Y520210D02*
X33156Y514618D01*
X33156Y520210D02*
X44844Y520210D01*
X44844Y514618D01*
X33156Y514618D01*
X33156Y516787D02*
X44844Y516787D01*
X44844Y518956D02*
X33156Y518956D01*
X33156Y509796D02*
X33156Y504204D01*
X33156Y509796D02*
X44844Y509796D01*
X44844Y504204D01*
X33156Y504204D01*
X33156Y506373D02*
X44844Y506373D01*
X44844Y508542D02*
X33156Y508542D01*
X33156Y499382D02*
X33156Y493790D01*
X33156Y499382D02*
X44844Y499382D01*
X44844Y493790D01*
X33156Y493790D01*
X33156Y495959D02*
X44844Y495959D01*
X44844Y498128D02*
X33156Y498128D01*
D15*
X50800Y114300D03*
X63500Y368300D03*
X139700Y406400D03*
X76200Y317500D03*
X152400Y228600D03*
D10*
X142000Y275300D03*
X142000Y300700D03*
D14*
X124003Y430844D02*
X118411Y430844D01*
X124003Y430844D02*
X124003Y419156D01*
X118411Y419156D01*
X118411Y430844D01*
X118411Y421325D02*
X124003Y421325D01*
X124003Y423494D02*
X118411Y423494D01*
X118411Y425663D02*
X124003Y425663D01*
X124003Y427832D02*
X118411Y427832D01*
X118411Y430001D02*
X124003Y430001D01*
X113589Y430844D02*
X107997Y430844D01*
X113589Y430844D02*
X113589Y419156D01*
X107997Y419156D01*
X107997Y430844D01*
X107997Y421325D02*
X113589Y421325D01*
X113589Y423494D02*
X107997Y423494D01*
X107997Y425663D02*
X113589Y425663D01*
X113589Y427832D02*
X107997Y427832D01*
X107997Y430001D02*
X113589Y430001D01*
D10*
X449580Y520700D03*
X449580Y495300D03*
X449580Y469900D03*
X449580Y444500D03*
X449580Y419100D03*
X449580Y393700D03*
X449580Y368300D03*
X449580Y342900D03*
X449580Y317500D03*
X449580Y292100D03*
X449580Y266700D03*
X449580Y241300D03*
X449580Y215900D03*
X449580Y190500D03*
X449580Y165100D03*
X449580Y139700D03*
X246380Y241300D03*
X246380Y266700D03*
X246380Y292100D03*
X246380Y317500D03*
X246380Y342900D03*
X246380Y368300D03*
X246380Y393700D03*
X246380Y419100D03*
X246380Y444500D03*
X246380Y469900D03*
X246380Y495300D03*
X246380Y520700D03*
D11*
X259080Y25400D03*
X436880Y25400D03*
X436880Y558800D03*
X259080Y558800D03*
D12*
X239680Y534000D03*
X454680Y53000D03*
D13*
X319080Y47526D03*
X376880Y47526D03*
D14*
X399091Y35844D02*
X404683Y35844D01*
X404683Y24156D01*
X399091Y24156D01*
X399091Y35844D01*
X399091Y26325D02*
X404683Y26325D01*
X404683Y28494D02*
X399091Y28494D01*
X399091Y30663D02*
X404683Y30663D01*
X404683Y32832D02*
X399091Y32832D01*
X399091Y35001D02*
X404683Y35001D01*
X394269Y35844D02*
X388677Y35844D01*
X394269Y35844D02*
X394269Y24156D01*
X388677Y24156D01*
X388677Y35844D01*
X388677Y26325D02*
X394269Y26325D01*
X394269Y28494D02*
X388677Y28494D01*
X388677Y30663D02*
X394269Y30663D01*
X394269Y32832D02*
X388677Y32832D01*
X388677Y35001D02*
X394269Y35001D01*
X357524Y217997D02*
X357524Y223589D01*
X357524Y217997D02*
X345836Y217997D01*
X345836Y223589D01*
X357524Y223589D01*
X357524Y220166D02*
X345836Y220166D01*
X345836Y222335D02*
X357524Y222335D01*
X357524Y228411D02*
X357524Y234003D01*
X357524Y228411D02*
X345836Y228411D01*
X345836Y234003D01*
X357524Y234003D01*
X357524Y230580D02*
X345836Y230580D01*
X345836Y232749D02*
X357524Y232749D01*
D15*
X284480Y63500D03*
D16*
X321599Y64993D02*
X321599Y74007D01*
X321599Y64993D02*
X317585Y64993D01*
X317585Y74007D01*
X321599Y74007D01*
X321599Y67137D02*
X317585Y67137D01*
X317585Y69281D02*
X321599Y69281D01*
X321599Y71425D02*
X317585Y71425D01*
X317585Y73569D02*
X321599Y73569D01*
X332599Y74007D02*
X332599Y64993D01*
X328585Y64993D01*
X328585Y74007D01*
X332599Y74007D01*
X332599Y67137D02*
X328585Y67137D01*
X328585Y69281D02*
X332599Y69281D01*
X332599Y71425D02*
X328585Y71425D01*
X328585Y73569D02*
X332599Y73569D01*
X343599Y74007D02*
X343599Y64993D01*
X339585Y64993D01*
X339585Y74007D01*
X343599Y74007D01*
X343599Y67137D02*
X339585Y67137D01*
X339585Y69281D02*
X343599Y69281D01*
X343599Y71425D02*
X339585Y71425D01*
X339585Y73569D02*
X343599Y73569D01*
X354599Y74007D02*
X354599Y64993D01*
X350585Y64993D01*
X350585Y74007D01*
X354599Y74007D01*
X354599Y67137D02*
X350585Y67137D01*
X350585Y69281D02*
X354599Y69281D01*
X354599Y71425D02*
X350585Y71425D01*
X350585Y73569D02*
X354599Y73569D01*
X365599Y74007D02*
X365599Y64993D01*
X361585Y64993D01*
X361585Y74007D01*
X365599Y74007D01*
X365599Y67137D02*
X361585Y67137D01*
X361585Y69281D02*
X365599Y69281D01*
X365599Y71425D02*
X361585Y71425D01*
X361585Y73569D02*
X365599Y73569D01*
X376599Y74007D02*
X376599Y64993D01*
X372585Y64993D01*
X372585Y74007D01*
X376599Y74007D01*
X376599Y67137D02*
X372585Y67137D01*
X372585Y69281D02*
X376599Y69281D01*
X376599Y71425D02*
X372585Y71425D01*
X372585Y73569D02*
X376599Y73569D01*
X387599Y74007D02*
X387599Y64993D01*
X383585Y64993D01*
X383585Y74007D01*
X387599Y74007D01*
X387599Y67137D02*
X383585Y67137D01*
X383585Y69281D02*
X387599Y69281D01*
X387599Y71425D02*
X383585Y71425D01*
X383585Y73569D02*
X387599Y73569D01*
X398599Y74007D02*
X398599Y64993D01*
X394585Y64993D01*
X394585Y74007D01*
X398599Y74007D01*
X398599Y67137D02*
X394585Y67137D01*
X394585Y69281D02*
X398599Y69281D01*
X398599Y71425D02*
X394585Y71425D01*
X394585Y73569D02*
X398599Y73569D01*
D17*
X304684Y92908D02*
X298500Y92908D01*
X298500Y99692D01*
X304684Y99692D01*
X304684Y92908D01*
X304684Y95081D02*
X298500Y95081D01*
X298500Y97254D02*
X304684Y97254D01*
X304684Y99427D02*
X298500Y99427D01*
D18*
X306300Y104142D02*
X306300Y113858D01*
X306300Y104142D02*
X296884Y104142D01*
X296884Y113858D01*
X306300Y113858D01*
X306300Y106378D02*
X296884Y106378D01*
X296884Y108614D02*
X306300Y108614D01*
X306300Y110850D02*
X296884Y110850D01*
X296884Y113086D02*
X306300Y113086D01*
X306300Y129642D02*
X306300Y140558D01*
X306300Y129642D02*
X296884Y129642D01*
X296884Y140558D01*
X306300Y140558D01*
X306300Y131878D02*
X296884Y131878D01*
X296884Y134114D02*
X306300Y134114D01*
X306300Y136350D02*
X296884Y136350D01*
X296884Y138586D02*
X306300Y138586D01*
X413050Y134858D02*
X413050Y123942D01*
X403634Y123942D01*
X403634Y134858D01*
X413050Y134858D01*
X413050Y126178D02*
X403634Y126178D01*
X403634Y128414D02*
X413050Y128414D01*
X413050Y130650D02*
X403634Y130650D01*
X403634Y132886D02*
X413050Y132886D01*
X413050Y108958D02*
X413050Y86142D01*
X403634Y86142D01*
X403634Y108958D01*
X413050Y108958D01*
X413050Y88378D02*
X403634Y88378D01*
X403634Y90614D02*
X413050Y90614D01*
X413050Y92850D02*
X403634Y92850D01*
X403634Y95086D02*
X413050Y95086D01*
X413050Y97322D02*
X403634Y97322D01*
X403634Y99558D02*
X413050Y99558D01*
X413050Y101794D02*
X403634Y101794D01*
X403634Y104030D02*
X413050Y104030D01*
X413050Y106266D02*
X403634Y106266D01*
X403634Y108502D02*
X413050Y108502D01*
D19*
X390610Y144118D02*
X362474Y144118D01*
X390610Y144118D02*
X390610Y139582D01*
X362474Y139582D01*
X362474Y144118D01*
X362474Y141704D02*
X390610Y141704D01*
X390610Y143826D02*
X362474Y143826D01*
X348710Y144118D02*
X320574Y144118D01*
X348710Y144118D02*
X348710Y139582D01*
X320574Y139582D01*
X320574Y144118D01*
X320574Y141704D02*
X348710Y141704D01*
X348710Y143826D02*
X320574Y143826D01*
D15*
X347980Y444500D03*
X343580Y614300D03*
X343580Y588900D03*
X368980Y614300D03*
X394380Y614300D03*
X394380Y588900D03*
D14*
X266836Y520210D02*
X266836Y514618D01*
X266836Y520210D02*
X278524Y520210D01*
X278524Y514618D01*
X266836Y514618D01*
X266836Y516787D02*
X278524Y516787D01*
X278524Y518956D02*
X266836Y518956D01*
X266836Y509796D02*
X266836Y504204D01*
X266836Y509796D02*
X278524Y509796D01*
X278524Y504204D01*
X266836Y504204D01*
X266836Y506373D02*
X278524Y506373D01*
X278524Y508542D02*
X266836Y508542D01*
X266836Y499382D02*
X266836Y493790D01*
X266836Y499382D02*
X278524Y499382D01*
X278524Y493790D01*
X266836Y493790D01*
X266836Y495959D02*
X278524Y495959D01*
X278524Y498128D02*
X266836Y498128D01*
D15*
X284480Y114300D03*
X297180Y368300D03*
X373380Y406400D03*
X309880Y317500D03*
X386080Y228600D03*
D10*
X375680Y275300D03*
X375680Y300700D03*
D14*
X357683Y430844D02*
X352091Y430844D01*
X357683Y430844D02*
X357683Y419156D01*
X352091Y419156D01*
X352091Y430844D01*
X352091Y421325D02*
X357683Y421325D01*
X357683Y423494D02*
X352091Y423494D01*
X352091Y425663D02*
X357683Y425663D01*
X357683Y427832D02*
X352091Y427832D01*
X352091Y430001D02*
X357683Y430001D01*
X347269Y430844D02*
X341677Y430844D01*
X347269Y430844D02*
X347269Y419156D01*
X341677Y419156D01*
X341677Y430844D01*
X341677Y421325D02*
X347269Y421325D01*
X347269Y423494D02*
X341677Y423494D01*
X341677Y425663D02*
X347269Y425663D01*
X347269Y427832D02*
X341677Y427832D01*
X341677Y430001D02*
X347269Y430001D01*
D10*
X683260Y520700D03*
X683260Y495300D03*
X683260Y469900D03*
X683260Y444500D03*
X683260Y419100D03*
X683260Y393700D03*
X683260Y368300D03*
X683260Y342900D03*
X683260Y317500D03*
X683260Y292100D03*
X683260Y266700D03*
X683260Y241300D03*
X683260Y215900D03*
X683260Y190500D03*
X683260Y165100D03*
X683260Y139700D03*
X480060Y241300D03*
X480060Y266700D03*
X480060Y292100D03*
X480060Y317500D03*
X480060Y342900D03*
X480060Y368300D03*
X480060Y393700D03*
X480060Y419100D03*
X480060Y444500D03*
X480060Y469900D03*
X480060Y495300D03*
X480060Y520700D03*
D11*
X492760Y25400D03*
X670560Y25400D03*
X670560Y558800D03*
X492760Y558800D03*
D12*
X473360Y534000D03*
X688360Y53000D03*
D13*
X552760Y47526D03*
X610560Y47526D03*
D14*
X632771Y35844D02*
X638363Y35844D01*
X638363Y24156D01*
X632771Y24156D01*
X632771Y35844D01*
X632771Y26325D02*
X638363Y26325D01*
X638363Y28494D02*
X632771Y28494D01*
X632771Y30663D02*
X638363Y30663D01*
X638363Y32832D02*
X632771Y32832D01*
X632771Y35001D02*
X638363Y35001D01*
X627949Y35844D02*
X622357Y35844D01*
X627949Y35844D02*
X627949Y24156D01*
X622357Y24156D01*
X622357Y35844D01*
X622357Y26325D02*
X627949Y26325D01*
X627949Y28494D02*
X622357Y28494D01*
X622357Y30663D02*
X627949Y30663D01*
X627949Y32832D02*
X622357Y32832D01*
X622357Y35001D02*
X627949Y35001D01*
X591204Y217997D02*
X591204Y223589D01*
X591204Y217997D02*
X579516Y217997D01*
X579516Y223589D01*
X591204Y223589D01*
X591204Y220166D02*
X579516Y220166D01*
X579516Y222335D02*
X591204Y222335D01*
X591204Y228411D02*
X591204Y234003D01*
X591204Y228411D02*
X579516Y228411D01*
X579516Y234003D01*
X591204Y234003D01*
X591204Y230580D02*
X579516Y230580D01*
X579516Y232749D02*
X591204Y232749D01*
D15*
X518160Y63500D03*
D16*
X555279Y64993D02*
X555279Y74007D01*
X555279Y64993D02*
X551265Y64993D01*
X551265Y74007D01*
X555279Y74007D01*
X555279Y67137D02*
X551265Y67137D01*
X551265Y69281D02*
X555279Y69281D01*
X555279Y71425D02*
X551265Y71425D01*
X551265Y73569D02*
X555279Y73569D01*
X566279Y74007D02*
X566279Y64993D01*
X562265Y64993D01*
X562265Y74007D01*
X566279Y74007D01*
X566279Y67137D02*
X562265Y67137D01*
X562265Y69281D02*
X566279Y69281D01*
X566279Y71425D02*
X562265Y71425D01*
X562265Y73569D02*
X566279Y73569D01*
X577279Y74007D02*
X577279Y64993D01*
X573265Y64993D01*
X573265Y74007D01*
X577279Y74007D01*
X577279Y67137D02*
X573265Y67137D01*
X573265Y69281D02*
X577279Y69281D01*
X577279Y71425D02*
X573265Y71425D01*
X573265Y73569D02*
X577279Y73569D01*
X588279Y74007D02*
X588279Y64993D01*
X584265Y64993D01*
X584265Y74007D01*
X588279Y74007D01*
X588279Y67137D02*
X584265Y67137D01*
X584265Y69281D02*
X588279Y69281D01*
X588279Y71425D02*
X584265Y71425D01*
X584265Y73569D02*
X588279Y73569D01*
X599279Y74007D02*
X599279Y64993D01*
X595265Y64993D01*
X595265Y74007D01*
X599279Y74007D01*
X599279Y67137D02*
X595265Y67137D01*
X595265Y69281D02*
X599279Y69281D01*
X599279Y71425D02*
X595265Y71425D01*
X595265Y73569D02*
X599279Y73569D01*
X610279Y74007D02*
X610279Y64993D01*
X606265Y64993D01*
X606265Y74007D01*
X610279Y74007D01*
X610279Y67137D02*
X606265Y67137D01*
X606265Y69281D02*
X610279Y69281D01*
X610279Y71425D02*
X606265Y71425D01*
X606265Y73569D02*
X610279Y73569D01*
X621279Y74007D02*
X621279Y64993D01*
X617265Y64993D01*
X617265Y74007D01*
X621279Y74007D01*
X621279Y67137D02*
X617265Y67137D01*
X617265Y69281D02*
X621279Y69281D01*
X621279Y71425D02*
X617265Y71425D01*
X617265Y73569D02*
X621279Y73569D01*
X632279Y74007D02*
X632279Y64993D01*
X628265Y64993D01*
X628265Y74007D01*
X632279Y74007D01*
X632279Y67137D02*
X628265Y67137D01*
X628265Y69281D02*
X632279Y69281D01*
X632279Y71425D02*
X628265Y71425D01*
X628265Y73569D02*
X632279Y73569D01*
D17*
X538364Y92908D02*
X532180Y92908D01*
X532180Y99692D01*
X538364Y99692D01*
X538364Y92908D01*
X538364Y95081D02*
X532180Y95081D01*
X532180Y97254D02*
X538364Y97254D01*
X538364Y99427D02*
X532180Y99427D01*
D18*
X539980Y104142D02*
X539980Y113858D01*
X539980Y104142D02*
X530564Y104142D01*
X530564Y113858D01*
X539980Y113858D01*
X539980Y106378D02*
X530564Y106378D01*
X530564Y108614D02*
X539980Y108614D01*
X539980Y110850D02*
X530564Y110850D01*
X530564Y113086D02*
X539980Y113086D01*
X539980Y129642D02*
X539980Y140558D01*
X539980Y129642D02*
X530564Y129642D01*
X530564Y140558D01*
X539980Y140558D01*
X539980Y131878D02*
X530564Y131878D01*
X530564Y134114D02*
X539980Y134114D01*
X539980Y136350D02*
X530564Y136350D01*
X530564Y138586D02*
X539980Y138586D01*
X646730Y134858D02*
X646730Y123942D01*
X637314Y123942D01*
X637314Y134858D01*
X646730Y134858D01*
X646730Y126178D02*
X637314Y126178D01*
X637314Y128414D02*
X646730Y128414D01*
X646730Y130650D02*
X637314Y130650D01*
X637314Y132886D02*
X646730Y132886D01*
X646730Y108958D02*
X646730Y86142D01*
X637314Y86142D01*
X637314Y108958D01*
X646730Y108958D01*
X646730Y88378D02*
X637314Y88378D01*
X637314Y90614D02*
X646730Y90614D01*
X646730Y92850D02*
X637314Y92850D01*
X637314Y95086D02*
X646730Y95086D01*
X646730Y97322D02*
X637314Y97322D01*
X637314Y99558D02*
X646730Y99558D01*
X646730Y101794D02*
X637314Y101794D01*
X637314Y104030D02*
X646730Y104030D01*
X646730Y106266D02*
X637314Y106266D01*
X637314Y108502D02*
X646730Y108502D01*
D19*
X624290Y144118D02*
X596154Y144118D01*
X624290Y144118D02*
X624290Y139582D01*
X596154Y139582D01*
X596154Y144118D01*
X596154Y141704D02*
X624290Y141704D01*
X624290Y143826D02*
X596154Y143826D01*
X582390Y144118D02*
X554254Y144118D01*
X582390Y144118D02*
X582390Y139582D01*
X554254Y139582D01*
X554254Y144118D01*
X554254Y141704D02*
X582390Y141704D01*
X582390Y143826D02*
X554254Y143826D01*
D15*
X581660Y444500D03*
X577260Y614300D03*
X577260Y588900D03*
X602660Y614300D03*
X628060Y614300D03*
X628060Y588900D03*
D14*
X500516Y520210D02*
X500516Y514618D01*
X500516Y520210D02*
X512204Y520210D01*
X512204Y514618D01*
X500516Y514618D01*
X500516Y516787D02*
X512204Y516787D01*
X512204Y518956D02*
X500516Y518956D01*
X500516Y509796D02*
X500516Y504204D01*
X500516Y509796D02*
X512204Y509796D01*
X512204Y504204D01*
X500516Y504204D01*
X500516Y506373D02*
X512204Y506373D01*
X512204Y508542D02*
X500516Y508542D01*
X500516Y499382D02*
X500516Y493790D01*
X500516Y499382D02*
X512204Y499382D01*
X512204Y493790D01*
X500516Y493790D01*
X500516Y495959D02*
X512204Y495959D01*
X512204Y498128D02*
X500516Y498128D01*
D15*
X518160Y114300D03*
X530860Y368300D03*
X607060Y406400D03*
X543560Y317500D03*
X619760Y228600D03*
D10*
X609360Y275300D03*
X609360Y300700D03*
D14*
X591363Y430844D02*
X585771Y430844D01*
X591363Y430844D02*
X591363Y419156D01*
X585771Y419156D01*
X585771Y430844D01*
X585771Y421325D02*
X591363Y421325D01*
X591363Y423494D02*
X585771Y423494D01*
X585771Y425663D02*
X591363Y425663D01*
X591363Y427832D02*
X585771Y427832D01*
X585771Y430001D02*
X591363Y430001D01*
X580949Y430844D02*
X575357Y430844D01*
X580949Y430844D02*
X580949Y419156D01*
X575357Y419156D01*
X575357Y430844D01*
X575357Y421325D02*
X580949Y421325D01*
X580949Y423494D02*
X575357Y423494D01*
X575357Y425663D02*
X580949Y425663D01*
X580949Y427832D02*
X575357Y427832D01*
X575357Y430001D02*
X580949Y430001D01*
D10*
X916940Y520700D03*
X916940Y495300D03*
X916940Y469900D03*
X916940Y444500D03*
X916940Y419100D03*
X916940Y393700D03*
X916940Y368300D03*
X916940Y342900D03*
X916940Y317500D03*
X916940Y292100D03*
X916940Y266700D03*
X916940Y241300D03*
X916940Y215900D03*
X916940Y190500D03*
X916940Y165100D03*
X916940Y139700D03*
X713740Y241300D03*
X713740Y266700D03*
X713740Y292100D03*
X713740Y317500D03*
X713740Y342900D03*
X713740Y368300D03*
X713740Y393700D03*
X713740Y419100D03*
X713740Y444500D03*
X713740Y469900D03*
X713740Y495300D03*
X713740Y520700D03*
D11*
X726440Y25400D03*
X904240Y25400D03*
X904240Y558800D03*
X726440Y558800D03*
D12*
X707040Y534000D03*
X922040Y53000D03*
D13*
X786440Y47526D03*
X844240Y47526D03*
D14*
X866451Y35844D02*
X872043Y35844D01*
X872043Y24156D01*
X866451Y24156D01*
X866451Y35844D01*
X866451Y26325D02*
X872043Y26325D01*
X872043Y28494D02*
X866451Y28494D01*
X866451Y30663D02*
X872043Y30663D01*
X872043Y32832D02*
X866451Y32832D01*
X866451Y35001D02*
X872043Y35001D01*
X861629Y35844D02*
X856037Y35844D01*
X861629Y35844D02*
X861629Y24156D01*
X856037Y24156D01*
X856037Y35844D01*
X856037Y26325D02*
X861629Y26325D01*
X861629Y28494D02*
X856037Y28494D01*
X856037Y30663D02*
X861629Y30663D01*
X861629Y32832D02*
X856037Y32832D01*
X856037Y35001D02*
X861629Y35001D01*
X824884Y217997D02*
X824884Y223589D01*
X824884Y217997D02*
X813196Y217997D01*
X813196Y223589D01*
X824884Y223589D01*
X824884Y220166D02*
X813196Y220166D01*
X813196Y222335D02*
X824884Y222335D01*
X824884Y228411D02*
X824884Y234003D01*
X824884Y228411D02*
X813196Y228411D01*
X813196Y234003D01*
X824884Y234003D01*
X824884Y230580D02*
X813196Y230580D01*
X813196Y232749D02*
X824884Y232749D01*
D15*
X751840Y63500D03*
D16*
X788959Y64993D02*
X788959Y74007D01*
X788959Y64993D02*
X784945Y64993D01*
X784945Y74007D01*
X788959Y74007D01*
X788959Y67137D02*
X784945Y67137D01*
X784945Y69281D02*
X788959Y69281D01*
X788959Y71425D02*
X784945Y71425D01*
X784945Y73569D02*
X788959Y73569D01*
X799959Y74007D02*
X799959Y64993D01*
X795945Y64993D01*
X795945Y74007D01*
X799959Y74007D01*
X799959Y67137D02*
X795945Y67137D01*
X795945Y69281D02*
X799959Y69281D01*
X799959Y71425D02*
X795945Y71425D01*
X795945Y73569D02*
X799959Y73569D01*
X810959Y74007D02*
X810959Y64993D01*
X806945Y64993D01*
X806945Y74007D01*
X810959Y74007D01*
X810959Y67137D02*
X806945Y67137D01*
X806945Y69281D02*
X810959Y69281D01*
X810959Y71425D02*
X806945Y71425D01*
X806945Y73569D02*
X810959Y73569D01*
X821959Y74007D02*
X821959Y64993D01*
X817945Y64993D01*
X817945Y74007D01*
X821959Y74007D01*
X821959Y67137D02*
X817945Y67137D01*
X817945Y69281D02*
X821959Y69281D01*
X821959Y71425D02*
X817945Y71425D01*
X817945Y73569D02*
X821959Y73569D01*
X832959Y74007D02*
X832959Y64993D01*
X828945Y64993D01*
X828945Y74007D01*
X832959Y74007D01*
X832959Y67137D02*
X828945Y67137D01*
X828945Y69281D02*
X832959Y69281D01*
X832959Y71425D02*
X828945Y71425D01*
X828945Y73569D02*
X832959Y73569D01*
X843959Y74007D02*
X843959Y64993D01*
X839945Y64993D01*
X839945Y74007D01*
X843959Y74007D01*
X843959Y67137D02*
X839945Y67137D01*
X839945Y69281D02*
X843959Y69281D01*
X843959Y71425D02*
X839945Y71425D01*
X839945Y73569D02*
X843959Y73569D01*
X854959Y74007D02*
X854959Y64993D01*
X850945Y64993D01*
X850945Y74007D01*
X854959Y74007D01*
X854959Y67137D02*
X850945Y67137D01*
X850945Y69281D02*
X854959Y69281D01*
X854959Y71425D02*
X850945Y71425D01*
X850945Y73569D02*
X854959Y73569D01*
X865959Y74007D02*
X865959Y64993D01*
X861945Y64993D01*
X861945Y74007D01*
X865959Y74007D01*
X865959Y67137D02*
X861945Y67137D01*
X861945Y69281D02*
X865959Y69281D01*
X865959Y71425D02*
X861945Y71425D01*
X861945Y73569D02*
X865959Y73569D01*
D17*
X772044Y92908D02*
X765860Y92908D01*
X765860Y99692D01*
X772044Y99692D01*
X772044Y92908D01*
X772044Y95081D02*
X765860Y95081D01*
X765860Y97254D02*
X772044Y97254D01*
X772044Y99427D02*
X765860Y99427D01*
D18*
X773660Y104142D02*
X773660Y113858D01*
X773660Y104142D02*
X764244Y104142D01*
X764244Y113858D01*
X773660Y113858D01*
X773660Y106378D02*
X764244Y106378D01*
X764244Y108614D02*
X773660Y108614D01*
X773660Y110850D02*
X764244Y110850D01*
X764244Y113086D02*
X773660Y113086D01*
X773660Y129642D02*
X773660Y140558D01*
X773660Y129642D02*
X764244Y129642D01*
X764244Y140558D01*
X773660Y140558D01*
X773660Y131878D02*
X764244Y131878D01*
X764244Y134114D02*
X773660Y134114D01*
X773660Y136350D02*
X764244Y136350D01*
X764244Y138586D02*
X773660Y138586D01*
X880410Y134858D02*
X880410Y123942D01*
X870994Y123942D01*
X870994Y134858D01*
X880410Y134858D01*
X880410Y126178D02*
X870994Y126178D01*
X870994Y128414D02*
X880410Y128414D01*
X880410Y130650D02*
X870994Y130650D01*
X870994Y132886D02*
X880410Y132886D01*
X880410Y108958D02*
X880410Y86142D01*
X870994Y86142D01*
X870994Y108958D01*
X880410Y108958D01*
X880410Y88378D02*
X870994Y88378D01*
X870994Y90614D02*
X880410Y90614D01*
X880410Y92850D02*
X870994Y92850D01*
X870994Y95086D02*
X880410Y95086D01*
X880410Y97322D02*
X870994Y97322D01*
X870994Y99558D02*
X880410Y99558D01*
X880410Y101794D02*
X870994Y101794D01*
X870994Y104030D02*
X880410Y104030D01*
X880410Y106266D02*
X870994Y106266D01*
X870994Y108502D02*
X880410Y108502D01*
D19*
X857970Y144118D02*
X829834Y144118D01*
X857970Y144118D02*
X857970Y139582D01*
X829834Y139582D01*
X829834Y144118D01*
X829834Y141704D02*
X857970Y141704D01*
X857970Y143826D02*
X829834Y143826D01*
X816070Y144118D02*
X787934Y144118D01*
X816070Y144118D02*
X816070Y139582D01*
X787934Y139582D01*
X787934Y144118D01*
X787934Y141704D02*
X816070Y141704D01*
X816070Y143826D02*
X787934Y143826D01*
D15*
X815340Y444500D03*
X810940Y614300D03*
X810940Y588900D03*
X836340Y614300D03*
X861740Y614300D03*
X861740Y588900D03*
D14*
X734196Y520210D02*
X734196Y514618D01*
X734196Y520210D02*
X745884Y520210D01*
X745884Y514618D01*
X734196Y514618D01*
X734196Y516787D02*
X745884Y516787D01*
X745884Y518956D02*
X734196Y518956D01*
X734196Y509796D02*
X734196Y504204D01*
X734196Y509796D02*
X745884Y509796D01*
X745884Y504204D01*
X734196Y504204D01*
X734196Y506373D02*
X745884Y506373D01*
X745884Y508542D02*
X734196Y508542D01*
X734196Y499382D02*
X734196Y493790D01*
X734196Y499382D02*
X745884Y499382D01*
X745884Y493790D01*
X734196Y493790D01*
X734196Y495959D02*
X745884Y495959D01*
X745884Y498128D02*
X734196Y498128D01*
D15*
X751840Y114300D03*
X764540Y368300D03*
X840740Y406400D03*
X777240Y317500D03*
X853440Y228600D03*
D10*
X843040Y275300D03*
X843040Y300700D03*
D14*
X825043Y430844D02*
X819451Y430844D01*
X825043Y430844D02*
X825043Y419156D01*
X819451Y419156D01*
X819451Y430844D01*
X819451Y421325D02*
X825043Y421325D01*
X825043Y423494D02*
X819451Y423494D01*
X819451Y425663D02*
X825043Y425663D01*
X825043Y427832D02*
X819451Y427832D01*
X819451Y430001D02*
X825043Y430001D01*
X814629Y430844D02*
X809037Y430844D01*
X814629Y430844D02*
X814629Y419156D01*
X809037Y419156D01*
X809037Y430844D01*
X809037Y421325D02*
X814629Y421325D01*
X814629Y423494D02*
X809037Y423494D01*
X809037Y425663D02*
X814629Y425663D01*
X814629Y427832D02*
X809037Y427832D01*
X809037Y430001D02*
X814629Y430001D01*
D10*
X1150620Y520700D03*
X1150620Y495300D03*
X1150620Y469900D03*
X1150620Y444500D03*
X1150620Y419100D03*
X1150620Y393700D03*
X1150620Y368300D03*
X1150620Y342900D03*
X1150620Y317500D03*
X1150620Y292100D03*
X1150620Y266700D03*
X1150620Y241300D03*
X1150620Y215900D03*
X1150620Y190500D03*
X1150620Y165100D03*
X1150620Y139700D03*
X947420Y241300D03*
X947420Y266700D03*
X947420Y292100D03*
X947420Y317500D03*
X947420Y342900D03*
X947420Y368300D03*
X947420Y393700D03*
X947420Y419100D03*
X947420Y444500D03*
X947420Y469900D03*
X947420Y495300D03*
X947420Y520700D03*
D11*
X960120Y25400D03*
X1137920Y25400D03*
X1137920Y558800D03*
X960120Y558800D03*
D12*
X940720Y534000D03*
X1155720Y53000D03*
D13*
X1020120Y47526D03*
X1077920Y47526D03*
D14*
X1100131Y35844D02*
X1105723Y35844D01*
X1105723Y24156D01*
X1100131Y24156D01*
X1100131Y35844D01*
X1100131Y26325D02*
X1105723Y26325D01*
X1105723Y28494D02*
X1100131Y28494D01*
X1100131Y30663D02*
X1105723Y30663D01*
X1105723Y32832D02*
X1100131Y32832D01*
X1100131Y35001D02*
X1105723Y35001D01*
X1095309Y35844D02*
X1089717Y35844D01*
X1095309Y35844D02*
X1095309Y24156D01*
X1089717Y24156D01*
X1089717Y35844D01*
X1089717Y26325D02*
X1095309Y26325D01*
X1095309Y28494D02*
X1089717Y28494D01*
X1089717Y30663D02*
X1095309Y30663D01*
X1095309Y32832D02*
X1089717Y32832D01*
X1089717Y35001D02*
X1095309Y35001D01*
X1058564Y217997D02*
X1058564Y223589D01*
X1058564Y217997D02*
X1046876Y217997D01*
X1046876Y223589D01*
X1058564Y223589D01*
X1058564Y220166D02*
X1046876Y220166D01*
X1046876Y222335D02*
X1058564Y222335D01*
X1058564Y228411D02*
X1058564Y234003D01*
X1058564Y228411D02*
X1046876Y228411D01*
X1046876Y234003D01*
X1058564Y234003D01*
X1058564Y230580D02*
X1046876Y230580D01*
X1046876Y232749D02*
X1058564Y232749D01*
D15*
X985520Y63500D03*
D16*
X1022639Y64993D02*
X1022639Y74007D01*
X1022639Y64993D02*
X1018625Y64993D01*
X1018625Y74007D01*
X1022639Y74007D01*
X1022639Y67137D02*
X1018625Y67137D01*
X1018625Y69281D02*
X1022639Y69281D01*
X1022639Y71425D02*
X1018625Y71425D01*
X1018625Y73569D02*
X1022639Y73569D01*
X1033639Y74007D02*
X1033639Y64993D01*
X1029625Y64993D01*
X1029625Y74007D01*
X1033639Y74007D01*
X1033639Y67137D02*
X1029625Y67137D01*
X1029625Y69281D02*
X1033639Y69281D01*
X1033639Y71425D02*
X1029625Y71425D01*
X1029625Y73569D02*
X1033639Y73569D01*
X1044639Y74007D02*
X1044639Y64993D01*
X1040625Y64993D01*
X1040625Y74007D01*
X1044639Y74007D01*
X1044639Y67137D02*
X1040625Y67137D01*
X1040625Y69281D02*
X1044639Y69281D01*
X1044639Y71425D02*
X1040625Y71425D01*
X1040625Y73569D02*
X1044639Y73569D01*
X1055639Y74007D02*
X1055639Y64993D01*
X1051625Y64993D01*
X1051625Y74007D01*
X1055639Y74007D01*
X1055639Y67137D02*
X1051625Y67137D01*
X1051625Y69281D02*
X1055639Y69281D01*
X1055639Y71425D02*
X1051625Y71425D01*
X1051625Y73569D02*
X1055639Y73569D01*
X1066639Y74007D02*
X1066639Y64993D01*
X1062625Y64993D01*
X1062625Y74007D01*
X1066639Y74007D01*
X1066639Y67137D02*
X1062625Y67137D01*
X1062625Y69281D02*
X1066639Y69281D01*
X1066639Y71425D02*
X1062625Y71425D01*
X1062625Y73569D02*
X1066639Y73569D01*
X1077639Y74007D02*
X1077639Y64993D01*
X1073625Y64993D01*
X1073625Y74007D01*
X1077639Y74007D01*
X1077639Y67137D02*
X1073625Y67137D01*
X1073625Y69281D02*
X1077639Y69281D01*
X1077639Y71425D02*
X1073625Y71425D01*
X1073625Y73569D02*
X1077639Y73569D01*
X1088639Y74007D02*
X1088639Y64993D01*
X1084625Y64993D01*
X1084625Y74007D01*
X1088639Y74007D01*
X1088639Y67137D02*
X1084625Y67137D01*
X1084625Y69281D02*
X1088639Y69281D01*
X1088639Y71425D02*
X1084625Y71425D01*
X1084625Y73569D02*
X1088639Y73569D01*
X1099639Y74007D02*
X1099639Y64993D01*
X1095625Y64993D01*
X1095625Y74007D01*
X1099639Y74007D01*
X1099639Y67137D02*
X1095625Y67137D01*
X1095625Y69281D02*
X1099639Y69281D01*
X1099639Y71425D02*
X1095625Y71425D01*
X1095625Y73569D02*
X1099639Y73569D01*
D17*
X1005724Y92908D02*
X999540Y92908D01*
X999540Y99692D01*
X1005724Y99692D01*
X1005724Y92908D01*
X1005724Y95081D02*
X999540Y95081D01*
X999540Y97254D02*
X1005724Y97254D01*
X1005724Y99427D02*
X999540Y99427D01*
D18*
X1007340Y104142D02*
X1007340Y113858D01*
X1007340Y104142D02*
X997924Y104142D01*
X997924Y113858D01*
X1007340Y113858D01*
X1007340Y106378D02*
X997924Y106378D01*
X997924Y108614D02*
X1007340Y108614D01*
X1007340Y110850D02*
X997924Y110850D01*
X997924Y113086D02*
X1007340Y113086D01*
X1007340Y129642D02*
X1007340Y140558D01*
X1007340Y129642D02*
X997924Y129642D01*
X997924Y140558D01*
X1007340Y140558D01*
X1007340Y131878D02*
X997924Y131878D01*
X997924Y134114D02*
X1007340Y134114D01*
X1007340Y136350D02*
X997924Y136350D01*
X997924Y138586D02*
X1007340Y138586D01*
X1114090Y134858D02*
X1114090Y123942D01*
X1104674Y123942D01*
X1104674Y134858D01*
X1114090Y134858D01*
X1114090Y126178D02*
X1104674Y126178D01*
X1104674Y128414D02*
X1114090Y128414D01*
X1114090Y130650D02*
X1104674Y130650D01*
X1104674Y132886D02*
X1114090Y132886D01*
X1114090Y108958D02*
X1114090Y86142D01*
X1104674Y86142D01*
X1104674Y108958D01*
X1114090Y108958D01*
X1114090Y88378D02*
X1104674Y88378D01*
X1104674Y90614D02*
X1114090Y90614D01*
X1114090Y92850D02*
X1104674Y92850D01*
X1104674Y95086D02*
X1114090Y95086D01*
X1114090Y97322D02*
X1104674Y97322D01*
X1104674Y99558D02*
X1114090Y99558D01*
X1114090Y101794D02*
X1104674Y101794D01*
X1104674Y104030D02*
X1114090Y104030D01*
X1114090Y106266D02*
X1104674Y106266D01*
X1104674Y108502D02*
X1114090Y108502D01*
D19*
X1091650Y144118D02*
X1063514Y144118D01*
X1091650Y144118D02*
X1091650Y139582D01*
X1063514Y139582D01*
X1063514Y144118D01*
X1063514Y141704D02*
X1091650Y141704D01*
X1091650Y143826D02*
X1063514Y143826D01*
X1049750Y144118D02*
X1021614Y144118D01*
X1049750Y144118D02*
X1049750Y139582D01*
X1021614Y139582D01*
X1021614Y144118D01*
X1021614Y141704D02*
X1049750Y141704D01*
X1049750Y143826D02*
X1021614Y143826D01*
D15*
X1049020Y444500D03*
X1044620Y614300D03*
X1044620Y588900D03*
X1070020Y614300D03*
X1095420Y614300D03*
X1095420Y588900D03*
D14*
X967876Y520210D02*
X967876Y514618D01*
X967876Y520210D02*
X979564Y520210D01*
X979564Y514618D01*
X967876Y514618D01*
X967876Y516787D02*
X979564Y516787D01*
X979564Y518956D02*
X967876Y518956D01*
X967876Y509796D02*
X967876Y504204D01*
X967876Y509796D02*
X979564Y509796D01*
X979564Y504204D01*
X967876Y504204D01*
X967876Y506373D02*
X979564Y506373D01*
X979564Y508542D02*
X967876Y508542D01*
X967876Y499382D02*
X967876Y493790D01*
X967876Y499382D02*
X979564Y499382D01*
X979564Y493790D01*
X967876Y493790D01*
X967876Y495959D02*
X979564Y495959D01*
X979564Y498128D02*
X967876Y498128D01*
D15*
X985520Y114300D03*
X998220Y368300D03*
X1074420Y406400D03*
X1010920Y317500D03*
X1087120Y228600D03*
D10*
X1076720Y275300D03*
X1076720Y300700D03*
D14*
X1058723Y430844D02*
X1053131Y430844D01*
X1058723Y430844D02*
X1058723Y419156D01*
X1053131Y419156D01*
X1053131Y430844D01*
X1053131Y421325D02*
X1058723Y421325D01*
X1058723Y423494D02*
X1053131Y423494D01*
X1053131Y425663D02*
X1058723Y425663D01*
X1058723Y427832D02*
X1053131Y427832D01*
X1053131Y430001D02*
X1058723Y430001D01*
X1048309Y430844D02*
X1042717Y430844D01*
X1048309Y430844D02*
X1048309Y419156D01*
X1042717Y419156D01*
X1042717Y430844D01*
X1042717Y421325D02*
X1048309Y421325D01*
X1048309Y423494D02*
X1042717Y423494D01*
X1042717Y425663D02*
X1048309Y425663D01*
X1048309Y427832D02*
X1042717Y427832D01*
X1042717Y430001D02*
X1048309Y430001D01*
D10*
X215900Y1211580D03*
X215900Y1186180D03*
X215900Y1160780D03*
X215900Y1135380D03*
X215900Y1109980D03*
X215900Y1084580D03*
X215900Y1059180D03*
X215900Y1033780D03*
X215900Y1008380D03*
X215900Y982980D03*
X215900Y957580D03*
X215900Y932180D03*
X215900Y906780D03*
X215900Y881380D03*
X215900Y855980D03*
X215900Y830580D03*
X12700Y932180D03*
X12700Y957580D03*
X12700Y982980D03*
X12700Y1008380D03*
X12700Y1033780D03*
X12700Y1059180D03*
X12700Y1084580D03*
X12700Y1109980D03*
X12700Y1135380D03*
X12700Y1160780D03*
X12700Y1186180D03*
X12700Y1211580D03*
D11*
X25400Y716280D03*
X203200Y716280D03*
X203200Y1249680D03*
X25400Y1249680D03*
D12*
X6000Y1224880D03*
X221000Y743880D03*
D13*
X85400Y738406D03*
X143200Y738406D03*
D14*
X165411Y726724D02*
X171003Y726724D01*
X171003Y715036D01*
X165411Y715036D01*
X165411Y726724D01*
X165411Y717205D02*
X171003Y717205D01*
X171003Y719374D02*
X165411Y719374D01*
X165411Y721543D02*
X171003Y721543D01*
X171003Y723712D02*
X165411Y723712D01*
X165411Y725881D02*
X171003Y725881D01*
X160589Y726724D02*
X154997Y726724D01*
X160589Y726724D02*
X160589Y715036D01*
X154997Y715036D01*
X154997Y726724D01*
X154997Y717205D02*
X160589Y717205D01*
X160589Y719374D02*
X154997Y719374D01*
X154997Y721543D02*
X160589Y721543D01*
X160589Y723712D02*
X154997Y723712D01*
X154997Y725881D02*
X160589Y725881D01*
X123844Y908877D02*
X123844Y914469D01*
X123844Y908877D02*
X112156Y908877D01*
X112156Y914469D01*
X123844Y914469D01*
X123844Y911046D02*
X112156Y911046D01*
X112156Y913215D02*
X123844Y913215D01*
X123844Y919291D02*
X123844Y924883D01*
X123844Y919291D02*
X112156Y919291D01*
X112156Y924883D01*
X123844Y924883D01*
X123844Y921460D02*
X112156Y921460D01*
X112156Y923629D02*
X123844Y923629D01*
D15*
X50800Y754380D03*
D16*
X87919Y755873D02*
X87919Y764887D01*
X87919Y755873D02*
X83905Y755873D01*
X83905Y764887D01*
X87919Y764887D01*
X87919Y758017D02*
X83905Y758017D01*
X83905Y760161D02*
X87919Y760161D01*
X87919Y762305D02*
X83905Y762305D01*
X83905Y764449D02*
X87919Y764449D01*
X98919Y764887D02*
X98919Y755873D01*
X94905Y755873D01*
X94905Y764887D01*
X98919Y764887D01*
X98919Y758017D02*
X94905Y758017D01*
X94905Y760161D02*
X98919Y760161D01*
X98919Y762305D02*
X94905Y762305D01*
X94905Y764449D02*
X98919Y764449D01*
X109919Y764887D02*
X109919Y755873D01*
X105905Y755873D01*
X105905Y764887D01*
X109919Y764887D01*
X109919Y758017D02*
X105905Y758017D01*
X105905Y760161D02*
X109919Y760161D01*
X109919Y762305D02*
X105905Y762305D01*
X105905Y764449D02*
X109919Y764449D01*
X120919Y764887D02*
X120919Y755873D01*
X116905Y755873D01*
X116905Y764887D01*
X120919Y764887D01*
X120919Y758017D02*
X116905Y758017D01*
X116905Y760161D02*
X120919Y760161D01*
X120919Y762305D02*
X116905Y762305D01*
X116905Y764449D02*
X120919Y764449D01*
X131919Y764887D02*
X131919Y755873D01*
X127905Y755873D01*
X127905Y764887D01*
X131919Y764887D01*
X131919Y758017D02*
X127905Y758017D01*
X127905Y760161D02*
X131919Y760161D01*
X131919Y762305D02*
X127905Y762305D01*
X127905Y764449D02*
X131919Y764449D01*
X142919Y764887D02*
X142919Y755873D01*
X138905Y755873D01*
X138905Y764887D01*
X142919Y764887D01*
X142919Y758017D02*
X138905Y758017D01*
X138905Y760161D02*
X142919Y760161D01*
X142919Y762305D02*
X138905Y762305D01*
X138905Y764449D02*
X142919Y764449D01*
X153919Y764887D02*
X153919Y755873D01*
X149905Y755873D01*
X149905Y764887D01*
X153919Y764887D01*
X153919Y758017D02*
X149905Y758017D01*
X149905Y760161D02*
X153919Y760161D01*
X153919Y762305D02*
X149905Y762305D01*
X149905Y764449D02*
X153919Y764449D01*
X164919Y764887D02*
X164919Y755873D01*
X160905Y755873D01*
X160905Y764887D01*
X164919Y764887D01*
X164919Y758017D02*
X160905Y758017D01*
X160905Y760161D02*
X164919Y760161D01*
X164919Y762305D02*
X160905Y762305D01*
X160905Y764449D02*
X164919Y764449D01*
D17*
X71004Y783788D02*
X64820Y783788D01*
X64820Y790572D01*
X71004Y790572D01*
X71004Y783788D01*
X71004Y785961D02*
X64820Y785961D01*
X64820Y788134D02*
X71004Y788134D01*
X71004Y790307D02*
X64820Y790307D01*
D18*
X72620Y795022D02*
X72620Y804738D01*
X72620Y795022D02*
X63204Y795022D01*
X63204Y804738D01*
X72620Y804738D01*
X72620Y797258D02*
X63204Y797258D01*
X63204Y799494D02*
X72620Y799494D01*
X72620Y801730D02*
X63204Y801730D01*
X63204Y803966D02*
X72620Y803966D01*
X72620Y820522D02*
X72620Y831438D01*
X72620Y820522D02*
X63204Y820522D01*
X63204Y831438D01*
X72620Y831438D01*
X72620Y822758D02*
X63204Y822758D01*
X63204Y824994D02*
X72620Y824994D01*
X72620Y827230D02*
X63204Y827230D01*
X63204Y829466D02*
X72620Y829466D01*
X179370Y825738D02*
X179370Y814822D01*
X169954Y814822D01*
X169954Y825738D01*
X179370Y825738D01*
X179370Y817058D02*
X169954Y817058D01*
X169954Y819294D02*
X179370Y819294D01*
X179370Y821530D02*
X169954Y821530D01*
X169954Y823766D02*
X179370Y823766D01*
X179370Y799838D02*
X179370Y777022D01*
X169954Y777022D01*
X169954Y799838D01*
X179370Y799838D01*
X179370Y779258D02*
X169954Y779258D01*
X169954Y781494D02*
X179370Y781494D01*
X179370Y783730D02*
X169954Y783730D01*
X169954Y785966D02*
X179370Y785966D01*
X179370Y788202D02*
X169954Y788202D01*
X169954Y790438D02*
X179370Y790438D01*
X179370Y792674D02*
X169954Y792674D01*
X169954Y794910D02*
X179370Y794910D01*
X179370Y797146D02*
X169954Y797146D01*
X169954Y799382D02*
X179370Y799382D01*
D19*
X156930Y834998D02*
X128794Y834998D01*
X156930Y834998D02*
X156930Y830462D01*
X128794Y830462D01*
X128794Y834998D01*
X128794Y832584D02*
X156930Y832584D01*
X156930Y834706D02*
X128794Y834706D01*
X115030Y834998D02*
X86894Y834998D01*
X115030Y834998D02*
X115030Y830462D01*
X86894Y830462D01*
X86894Y834998D01*
X86894Y832584D02*
X115030Y832584D01*
X115030Y834706D02*
X86894Y834706D01*
D15*
X114300Y1135380D03*
X109900Y1305180D03*
X109900Y1279780D03*
X135300Y1305180D03*
X160700Y1305180D03*
X160700Y1279780D03*
D14*
X33156Y1211090D02*
X33156Y1205498D01*
X33156Y1211090D02*
X44844Y1211090D01*
X44844Y1205498D01*
X33156Y1205498D01*
X33156Y1207667D02*
X44844Y1207667D01*
X44844Y1209836D02*
X33156Y1209836D01*
X33156Y1200676D02*
X33156Y1195084D01*
X33156Y1200676D02*
X44844Y1200676D01*
X44844Y1195084D01*
X33156Y1195084D01*
X33156Y1197253D02*
X44844Y1197253D01*
X44844Y1199422D02*
X33156Y1199422D01*
X33156Y1190262D02*
X33156Y1184670D01*
X33156Y1190262D02*
X44844Y1190262D01*
X44844Y1184670D01*
X33156Y1184670D01*
X33156Y1186839D02*
X44844Y1186839D01*
X44844Y1189008D02*
X33156Y1189008D01*
D15*
X50800Y805180D03*
X63500Y1059180D03*
X139700Y1097280D03*
X76200Y1008380D03*
X152400Y919480D03*
D10*
X142000Y966180D03*
X142000Y991580D03*
D14*
X124003Y1121724D02*
X118411Y1121724D01*
X124003Y1121724D02*
X124003Y1110036D01*
X118411Y1110036D01*
X118411Y1121724D01*
X118411Y1112205D02*
X124003Y1112205D01*
X124003Y1114374D02*
X118411Y1114374D01*
X118411Y1116543D02*
X124003Y1116543D01*
X124003Y1118712D02*
X118411Y1118712D01*
X118411Y1120881D02*
X124003Y1120881D01*
X113589Y1121724D02*
X107997Y1121724D01*
X113589Y1121724D02*
X113589Y1110036D01*
X107997Y1110036D01*
X107997Y1121724D01*
X107997Y1112205D02*
X113589Y1112205D01*
X113589Y1114374D02*
X107997Y1114374D01*
X107997Y1116543D02*
X113589Y1116543D01*
X113589Y1118712D02*
X107997Y1118712D01*
X107997Y1120881D02*
X113589Y1120881D01*
D10*
X449580Y1211580D03*
X449580Y1186180D03*
X449580Y1160780D03*
X449580Y1135380D03*
X449580Y1109980D03*
X449580Y1084580D03*
X449580Y1059180D03*
X449580Y1033780D03*
X449580Y1008380D03*
X449580Y982980D03*
X449580Y957580D03*
X449580Y932180D03*
X449580Y906780D03*
X449580Y881380D03*
X449580Y855980D03*
X449580Y830580D03*
X246380Y932180D03*
X246380Y957580D03*
X246380Y982980D03*
X246380Y1008380D03*
X246380Y1033780D03*
X246380Y1059180D03*
X246380Y1084580D03*
X246380Y1109980D03*
X246380Y1135380D03*
X246380Y1160780D03*
X246380Y1186180D03*
X246380Y1211580D03*
D11*
X259080Y716280D03*
X436880Y716280D03*
X436880Y1249680D03*
X259080Y1249680D03*
D12*
X239680Y1224880D03*
X454680Y743880D03*
D13*
X319080Y738406D03*
X376880Y738406D03*
D14*
X399091Y726724D02*
X404683Y726724D01*
X404683Y715036D01*
X399091Y715036D01*
X399091Y726724D01*
X399091Y717205D02*
X404683Y717205D01*
X404683Y719374D02*
X399091Y719374D01*
X399091Y721543D02*
X404683Y721543D01*
X404683Y723712D02*
X399091Y723712D01*
X399091Y725881D02*
X404683Y725881D01*
X394269Y726724D02*
X388677Y726724D01*
X394269Y726724D02*
X394269Y715036D01*
X388677Y715036D01*
X388677Y726724D01*
X388677Y717205D02*
X394269Y717205D01*
X394269Y719374D02*
X388677Y719374D01*
X388677Y721543D02*
X394269Y721543D01*
X394269Y723712D02*
X388677Y723712D01*
X388677Y725881D02*
X394269Y725881D01*
X357524Y908877D02*
X357524Y914469D01*
X357524Y908877D02*
X345836Y908877D01*
X345836Y914469D01*
X357524Y914469D01*
X357524Y911046D02*
X345836Y911046D01*
X345836Y913215D02*
X357524Y913215D01*
X357524Y919291D02*
X357524Y924883D01*
X357524Y919291D02*
X345836Y919291D01*
X345836Y924883D01*
X357524Y924883D01*
X357524Y921460D02*
X345836Y921460D01*
X345836Y923629D02*
X357524Y923629D01*
D15*
X284480Y754380D03*
D16*
X321599Y755873D02*
X321599Y764887D01*
X321599Y755873D02*
X317585Y755873D01*
X317585Y764887D01*
X321599Y764887D01*
X321599Y758017D02*
X317585Y758017D01*
X317585Y760161D02*
X321599Y760161D01*
X321599Y762305D02*
X317585Y762305D01*
X317585Y764449D02*
X321599Y764449D01*
X332599Y764887D02*
X332599Y755873D01*
X328585Y755873D01*
X328585Y764887D01*
X332599Y764887D01*
X332599Y758017D02*
X328585Y758017D01*
X328585Y760161D02*
X332599Y760161D01*
X332599Y762305D02*
X328585Y762305D01*
X328585Y764449D02*
X332599Y764449D01*
X343599Y764887D02*
X343599Y755873D01*
X339585Y755873D01*
X339585Y764887D01*
X343599Y764887D01*
X343599Y758017D02*
X339585Y758017D01*
X339585Y760161D02*
X343599Y760161D01*
X343599Y762305D02*
X339585Y762305D01*
X339585Y764449D02*
X343599Y764449D01*
X354599Y764887D02*
X354599Y755873D01*
X350585Y755873D01*
X350585Y764887D01*
X354599Y764887D01*
X354599Y758017D02*
X350585Y758017D01*
X350585Y760161D02*
X354599Y760161D01*
X354599Y762305D02*
X350585Y762305D01*
X350585Y764449D02*
X354599Y764449D01*
X365599Y764887D02*
X365599Y755873D01*
X361585Y755873D01*
X361585Y764887D01*
X365599Y764887D01*
X365599Y758017D02*
X361585Y758017D01*
X361585Y760161D02*
X365599Y760161D01*
X365599Y762305D02*
X361585Y762305D01*
X361585Y764449D02*
X365599Y764449D01*
X376599Y764887D02*
X376599Y755873D01*
X372585Y755873D01*
X372585Y764887D01*
X376599Y764887D01*
X376599Y758017D02*
X372585Y758017D01*
X372585Y760161D02*
X376599Y760161D01*
X376599Y762305D02*
X372585Y762305D01*
X372585Y764449D02*
X376599Y764449D01*
X387599Y764887D02*
X387599Y755873D01*
X383585Y755873D01*
X383585Y764887D01*
X387599Y764887D01*
X387599Y758017D02*
X383585Y758017D01*
X383585Y760161D02*
X387599Y760161D01*
X387599Y762305D02*
X383585Y762305D01*
X383585Y764449D02*
X387599Y764449D01*
X398599Y764887D02*
X398599Y755873D01*
X394585Y755873D01*
X394585Y764887D01*
X398599Y764887D01*
X398599Y758017D02*
X394585Y758017D01*
X394585Y760161D02*
X398599Y760161D01*
X398599Y762305D02*
X394585Y762305D01*
X394585Y764449D02*
X398599Y764449D01*
D17*
X304684Y783788D02*
X298500Y783788D01*
X298500Y790572D01*
X304684Y790572D01*
X304684Y783788D01*
X304684Y785961D02*
X298500Y785961D01*
X298500Y788134D02*
X304684Y788134D01*
X304684Y790307D02*
X298500Y790307D01*
D18*
X306300Y795022D02*
X306300Y804738D01*
X306300Y795022D02*
X296884Y795022D01*
X296884Y804738D01*
X306300Y804738D01*
X306300Y797258D02*
X296884Y797258D01*
X296884Y799494D02*
X306300Y799494D01*
X306300Y801730D02*
X296884Y801730D01*
X296884Y803966D02*
X306300Y803966D01*
X306300Y820522D02*
X306300Y831438D01*
X306300Y820522D02*
X296884Y820522D01*
X296884Y831438D01*
X306300Y831438D01*
X306300Y822758D02*
X296884Y822758D01*
X296884Y824994D02*
X306300Y824994D01*
X306300Y827230D02*
X296884Y827230D01*
X296884Y829466D02*
X306300Y829466D01*
X413050Y825738D02*
X413050Y814822D01*
X403634Y814822D01*
X403634Y825738D01*
X413050Y825738D01*
X413050Y817058D02*
X403634Y817058D01*
X403634Y819294D02*
X413050Y819294D01*
X413050Y821530D02*
X403634Y821530D01*
X403634Y823766D02*
X413050Y823766D01*
X413050Y799838D02*
X413050Y777022D01*
X403634Y777022D01*
X403634Y799838D01*
X413050Y799838D01*
X413050Y779258D02*
X403634Y779258D01*
X403634Y781494D02*
X413050Y781494D01*
X413050Y783730D02*
X403634Y783730D01*
X403634Y785966D02*
X413050Y785966D01*
X413050Y788202D02*
X403634Y788202D01*
X403634Y790438D02*
X413050Y790438D01*
X413050Y792674D02*
X403634Y792674D01*
X403634Y794910D02*
X413050Y794910D01*
X413050Y797146D02*
X403634Y797146D01*
X403634Y799382D02*
X413050Y799382D01*
D19*
X390610Y834998D02*
X362474Y834998D01*
X390610Y834998D02*
X390610Y830462D01*
X362474Y830462D01*
X362474Y834998D01*
X362474Y832584D02*
X390610Y832584D01*
X390610Y834706D02*
X362474Y834706D01*
X348710Y834998D02*
X320574Y834998D01*
X348710Y834998D02*
X348710Y830462D01*
X320574Y830462D01*
X320574Y834998D01*
X320574Y832584D02*
X348710Y832584D01*
X348710Y834706D02*
X320574Y834706D01*
D15*
X347980Y1135380D03*
X343580Y1305180D03*
X343580Y1279780D03*
X368980Y1305180D03*
X394380Y1305180D03*
X394380Y1279780D03*
D14*
X266836Y1211090D02*
X266836Y1205498D01*
X266836Y1211090D02*
X278524Y1211090D01*
X278524Y1205498D01*
X266836Y1205498D01*
X266836Y1207667D02*
X278524Y1207667D01*
X278524Y1209836D02*
X266836Y1209836D01*
X266836Y1200676D02*
X266836Y1195084D01*
X266836Y1200676D02*
X278524Y1200676D01*
X278524Y1195084D01*
X266836Y1195084D01*
X266836Y1197253D02*
X278524Y1197253D01*
X278524Y1199422D02*
X266836Y1199422D01*
X266836Y1190262D02*
X266836Y1184670D01*
X266836Y1190262D02*
X278524Y1190262D01*
X278524Y1184670D01*
X266836Y1184670D01*
X266836Y1186839D02*
X278524Y1186839D01*
X278524Y1189008D02*
X266836Y1189008D01*
D15*
X284480Y805180D03*
X297180Y1059180D03*
X373380Y1097280D03*
X309880Y1008380D03*
X386080Y919480D03*
D10*
X375680Y966180D03*
X375680Y991580D03*
D14*
X357683Y1121724D02*
X352091Y1121724D01*
X357683Y1121724D02*
X357683Y1110036D01*
X352091Y1110036D01*
X352091Y1121724D01*
X352091Y1112205D02*
X357683Y1112205D01*
X357683Y1114374D02*
X352091Y1114374D01*
X352091Y1116543D02*
X357683Y1116543D01*
X357683Y1118712D02*
X352091Y1118712D01*
X352091Y1120881D02*
X357683Y1120881D01*
X347269Y1121724D02*
X341677Y1121724D01*
X347269Y1121724D02*
X347269Y1110036D01*
X341677Y1110036D01*
X341677Y1121724D01*
X341677Y1112205D02*
X347269Y1112205D01*
X347269Y1114374D02*
X341677Y1114374D01*
X341677Y1116543D02*
X347269Y1116543D01*
X347269Y1118712D02*
X341677Y1118712D01*
X341677Y1120881D02*
X347269Y1120881D01*
D10*
X683260Y1211580D03*
X683260Y1186180D03*
X683260Y1160780D03*
X683260Y1135380D03*
X683260Y1109980D03*
X683260Y1084580D03*
X683260Y1059180D03*
X683260Y1033780D03*
X683260Y1008380D03*
X683260Y982980D03*
X683260Y957580D03*
X683260Y932180D03*
X683260Y906780D03*
X683260Y881380D03*
X683260Y855980D03*
X683260Y830580D03*
X480060Y932180D03*
X480060Y957580D03*
X480060Y982980D03*
X480060Y1008380D03*
X480060Y1033780D03*
X480060Y1059180D03*
X480060Y1084580D03*
X480060Y1109980D03*
X480060Y1135380D03*
X480060Y1160780D03*
X480060Y1186180D03*
X480060Y1211580D03*
D11*
X492760Y716280D03*
X670560Y716280D03*
X670560Y1249680D03*
X492760Y1249680D03*
D12*
X473360Y1224880D03*
X688360Y743880D03*
D13*
X552760Y738406D03*
X610560Y738406D03*
D14*
X632771Y726724D02*
X638363Y726724D01*
X638363Y715036D01*
X632771Y715036D01*
X632771Y726724D01*
X632771Y717205D02*
X638363Y717205D01*
X638363Y719374D02*
X632771Y719374D01*
X632771Y721543D02*
X638363Y721543D01*
X638363Y723712D02*
X632771Y723712D01*
X632771Y725881D02*
X638363Y725881D01*
X627949Y726724D02*
X622357Y726724D01*
X627949Y726724D02*
X627949Y715036D01*
X622357Y715036D01*
X622357Y726724D01*
X622357Y717205D02*
X627949Y717205D01*
X627949Y719374D02*
X622357Y719374D01*
X622357Y721543D02*
X627949Y721543D01*
X627949Y723712D02*
X622357Y723712D01*
X622357Y725881D02*
X627949Y725881D01*
X591204Y908877D02*
X591204Y914469D01*
X591204Y908877D02*
X579516Y908877D01*
X579516Y914469D01*
X591204Y914469D01*
X591204Y911046D02*
X579516Y911046D01*
X579516Y913215D02*
X591204Y913215D01*
X591204Y919291D02*
X591204Y924883D01*
X591204Y919291D02*
X579516Y919291D01*
X579516Y924883D01*
X591204Y924883D01*
X591204Y921460D02*
X579516Y921460D01*
X579516Y923629D02*
X591204Y923629D01*
D15*
X518160Y754380D03*
D16*
X555279Y755873D02*
X555279Y764887D01*
X555279Y755873D02*
X551265Y755873D01*
X551265Y764887D01*
X555279Y764887D01*
X555279Y758017D02*
X551265Y758017D01*
X551265Y760161D02*
X555279Y760161D01*
X555279Y762305D02*
X551265Y762305D01*
X551265Y764449D02*
X555279Y764449D01*
X566279Y764887D02*
X566279Y755873D01*
X562265Y755873D01*
X562265Y764887D01*
X566279Y764887D01*
X566279Y758017D02*
X562265Y758017D01*
X562265Y760161D02*
X566279Y760161D01*
X566279Y762305D02*
X562265Y762305D01*
X562265Y764449D02*
X566279Y764449D01*
X577279Y764887D02*
X577279Y755873D01*
X573265Y755873D01*
X573265Y764887D01*
X577279Y764887D01*
X577279Y758017D02*
X573265Y758017D01*
X573265Y760161D02*
X577279Y760161D01*
X577279Y762305D02*
X573265Y762305D01*
X573265Y764449D02*
X577279Y764449D01*
X588279Y764887D02*
X588279Y755873D01*
X584265Y755873D01*
X584265Y764887D01*
X588279Y764887D01*
X588279Y758017D02*
X584265Y758017D01*
X584265Y760161D02*
X588279Y760161D01*
X588279Y762305D02*
X584265Y762305D01*
X584265Y764449D02*
X588279Y764449D01*
X599279Y764887D02*
X599279Y755873D01*
X595265Y755873D01*
X595265Y764887D01*
X599279Y764887D01*
X599279Y758017D02*
X595265Y758017D01*
X595265Y760161D02*
X599279Y760161D01*
X599279Y762305D02*
X595265Y762305D01*
X595265Y764449D02*
X599279Y764449D01*
X610279Y764887D02*
X610279Y755873D01*
X606265Y755873D01*
X606265Y764887D01*
X610279Y764887D01*
X610279Y758017D02*
X606265Y758017D01*
X606265Y760161D02*
X610279Y760161D01*
X610279Y762305D02*
X606265Y762305D01*
X606265Y764449D02*
X610279Y764449D01*
X621279Y764887D02*
X621279Y755873D01*
X617265Y755873D01*
X617265Y764887D01*
X621279Y764887D01*
X621279Y758017D02*
X617265Y758017D01*
X617265Y760161D02*
X621279Y760161D01*
X621279Y762305D02*
X617265Y762305D01*
X617265Y764449D02*
X621279Y764449D01*
X632279Y764887D02*
X632279Y755873D01*
X628265Y755873D01*
X628265Y764887D01*
X632279Y764887D01*
X632279Y758017D02*
X628265Y758017D01*
X628265Y760161D02*
X632279Y760161D01*
X632279Y762305D02*
X628265Y762305D01*
X628265Y764449D02*
X632279Y764449D01*
D17*
X538364Y783788D02*
X532180Y783788D01*
X532180Y790572D01*
X538364Y790572D01*
X538364Y783788D01*
X538364Y785961D02*
X532180Y785961D01*
X532180Y788134D02*
X538364Y788134D01*
X538364Y790307D02*
X532180Y790307D01*
D18*
X539980Y795022D02*
X539980Y804738D01*
X539980Y795022D02*
X530564Y795022D01*
X530564Y804738D01*
X539980Y804738D01*
X539980Y797258D02*
X530564Y797258D01*
X530564Y799494D02*
X539980Y799494D01*
X539980Y801730D02*
X530564Y801730D01*
X530564Y803966D02*
X539980Y803966D01*
X539980Y820522D02*
X539980Y831438D01*
X539980Y820522D02*
X530564Y820522D01*
X530564Y831438D01*
X539980Y831438D01*
X539980Y822758D02*
X530564Y822758D01*
X530564Y824994D02*
X539980Y824994D01*
X539980Y827230D02*
X530564Y827230D01*
X530564Y829466D02*
X539980Y829466D01*
X646730Y825738D02*
X646730Y814822D01*
X637314Y814822D01*
X637314Y825738D01*
X646730Y825738D01*
X646730Y817058D02*
X637314Y817058D01*
X637314Y819294D02*
X646730Y819294D01*
X646730Y821530D02*
X637314Y821530D01*
X637314Y823766D02*
X646730Y823766D01*
X646730Y799838D02*
X646730Y777022D01*
X637314Y777022D01*
X637314Y799838D01*
X646730Y799838D01*
X646730Y779258D02*
X637314Y779258D01*
X637314Y781494D02*
X646730Y781494D01*
X646730Y783730D02*
X637314Y783730D01*
X637314Y785966D02*
X646730Y785966D01*
X646730Y788202D02*
X637314Y788202D01*
X637314Y790438D02*
X646730Y790438D01*
X646730Y792674D02*
X637314Y792674D01*
X637314Y794910D02*
X646730Y794910D01*
X646730Y797146D02*
X637314Y797146D01*
X637314Y799382D02*
X646730Y799382D01*
D19*
X624290Y834998D02*
X596154Y834998D01*
X624290Y834998D02*
X624290Y830462D01*
X596154Y830462D01*
X596154Y834998D01*
X596154Y832584D02*
X624290Y832584D01*
X624290Y834706D02*
X596154Y834706D01*
X582390Y834998D02*
X554254Y834998D01*
X582390Y834998D02*
X582390Y830462D01*
X554254Y830462D01*
X554254Y834998D01*
X554254Y832584D02*
X582390Y832584D01*
X582390Y834706D02*
X554254Y834706D01*
D15*
X581660Y1135380D03*
X577260Y1305180D03*
X577260Y1279780D03*
X602660Y1305180D03*
X628060Y1305180D03*
X628060Y1279780D03*
D14*
X500516Y1211090D02*
X500516Y1205498D01*
X500516Y1211090D02*
X512204Y1211090D01*
X512204Y1205498D01*
X500516Y1205498D01*
X500516Y1207667D02*
X512204Y1207667D01*
X512204Y1209836D02*
X500516Y1209836D01*
X500516Y1200676D02*
X500516Y1195084D01*
X500516Y1200676D02*
X512204Y1200676D01*
X512204Y1195084D01*
X500516Y1195084D01*
X500516Y1197253D02*
X512204Y1197253D01*
X512204Y1199422D02*
X500516Y1199422D01*
X500516Y1190262D02*
X500516Y1184670D01*
X500516Y1190262D02*
X512204Y1190262D01*
X512204Y1184670D01*
X500516Y1184670D01*
X500516Y1186839D02*
X512204Y1186839D01*
X512204Y1189008D02*
X500516Y1189008D01*
D15*
X518160Y805180D03*
X530860Y1059180D03*
X607060Y1097280D03*
X543560Y1008380D03*
X619760Y919480D03*
D10*
X609360Y966180D03*
X609360Y991580D03*
D14*
X591363Y1121724D02*
X585771Y1121724D01*
X591363Y1121724D02*
X591363Y1110036D01*
X585771Y1110036D01*
X585771Y1121724D01*
X585771Y1112205D02*
X591363Y1112205D01*
X591363Y1114374D02*
X585771Y1114374D01*
X585771Y1116543D02*
X591363Y1116543D01*
X591363Y1118712D02*
X585771Y1118712D01*
X585771Y1120881D02*
X591363Y1120881D01*
X580949Y1121724D02*
X575357Y1121724D01*
X580949Y1121724D02*
X580949Y1110036D01*
X575357Y1110036D01*
X575357Y1121724D01*
X575357Y1112205D02*
X580949Y1112205D01*
X580949Y1114374D02*
X575357Y1114374D01*
X575357Y1116543D02*
X580949Y1116543D01*
X580949Y1118712D02*
X575357Y1118712D01*
X575357Y1120881D02*
X580949Y1120881D01*
D10*
X916940Y1211580D03*
X916940Y1186180D03*
X916940Y1160780D03*
X916940Y1135380D03*
X916940Y1109980D03*
X916940Y1084580D03*
X916940Y1059180D03*
X916940Y1033780D03*
X916940Y1008380D03*
X916940Y982980D03*
X916940Y957580D03*
X916940Y932180D03*
X916940Y906780D03*
X916940Y881380D03*
X916940Y855980D03*
X916940Y830580D03*
X713740Y932180D03*
X713740Y957580D03*
X713740Y982980D03*
X713740Y1008380D03*
X713740Y1033780D03*
X713740Y1059180D03*
X713740Y1084580D03*
X713740Y1109980D03*
X713740Y1135380D03*
X713740Y1160780D03*
X713740Y1186180D03*
X713740Y1211580D03*
D11*
X726440Y716280D03*
X904240Y716280D03*
X904240Y1249680D03*
X726440Y1249680D03*
D12*
X707040Y1224880D03*
X922040Y743880D03*
D13*
X786440Y738406D03*
X844240Y738406D03*
D14*
X866451Y726724D02*
X872043Y726724D01*
X872043Y715036D01*
X866451Y715036D01*
X866451Y726724D01*
X866451Y717205D02*
X872043Y717205D01*
X872043Y719374D02*
X866451Y719374D01*
X866451Y721543D02*
X872043Y721543D01*
X872043Y723712D02*
X866451Y723712D01*
X866451Y725881D02*
X872043Y725881D01*
X861629Y726724D02*
X856037Y726724D01*
X861629Y726724D02*
X861629Y715036D01*
X856037Y715036D01*
X856037Y726724D01*
X856037Y717205D02*
X861629Y717205D01*
X861629Y719374D02*
X856037Y719374D01*
X856037Y721543D02*
X861629Y721543D01*
X861629Y723712D02*
X856037Y723712D01*
X856037Y725881D02*
X861629Y725881D01*
X824884Y908877D02*
X824884Y914469D01*
X824884Y908877D02*
X813196Y908877D01*
X813196Y914469D01*
X824884Y914469D01*
X824884Y911046D02*
X813196Y911046D01*
X813196Y913215D02*
X824884Y913215D01*
X824884Y919291D02*
X824884Y924883D01*
X824884Y919291D02*
X813196Y919291D01*
X813196Y924883D01*
X824884Y924883D01*
X824884Y921460D02*
X813196Y921460D01*
X813196Y923629D02*
X824884Y923629D01*
D15*
X751840Y754380D03*
D16*
X788959Y755873D02*
X788959Y764887D01*
X788959Y755873D02*
X784945Y755873D01*
X784945Y764887D01*
X788959Y764887D01*
X788959Y758017D02*
X784945Y758017D01*
X784945Y760161D02*
X788959Y760161D01*
X788959Y762305D02*
X784945Y762305D01*
X784945Y764449D02*
X788959Y764449D01*
X799959Y764887D02*
X799959Y755873D01*
X795945Y755873D01*
X795945Y764887D01*
X799959Y764887D01*
X799959Y758017D02*
X795945Y758017D01*
X795945Y760161D02*
X799959Y760161D01*
X799959Y762305D02*
X795945Y762305D01*
X795945Y764449D02*
X799959Y764449D01*
X810959Y764887D02*
X810959Y755873D01*
X806945Y755873D01*
X806945Y764887D01*
X810959Y764887D01*
X810959Y758017D02*
X806945Y758017D01*
X806945Y760161D02*
X810959Y760161D01*
X810959Y762305D02*
X806945Y762305D01*
X806945Y764449D02*
X810959Y764449D01*
X821959Y764887D02*
X821959Y755873D01*
X817945Y755873D01*
X817945Y764887D01*
X821959Y764887D01*
X821959Y758017D02*
X817945Y758017D01*
X817945Y760161D02*
X821959Y760161D01*
X821959Y762305D02*
X817945Y762305D01*
X817945Y764449D02*
X821959Y764449D01*
X832959Y764887D02*
X832959Y755873D01*
X828945Y755873D01*
X828945Y764887D01*
X832959Y764887D01*
X832959Y758017D02*
X828945Y758017D01*
X828945Y760161D02*
X832959Y760161D01*
X832959Y762305D02*
X828945Y762305D01*
X828945Y764449D02*
X832959Y764449D01*
X843959Y764887D02*
X843959Y755873D01*
X839945Y755873D01*
X839945Y764887D01*
X843959Y764887D01*
X843959Y758017D02*
X839945Y758017D01*
X839945Y760161D02*
X843959Y760161D01*
X843959Y762305D02*
X839945Y762305D01*
X839945Y764449D02*
X843959Y764449D01*
X854959Y764887D02*
X854959Y755873D01*
X850945Y755873D01*
X850945Y764887D01*
X854959Y764887D01*
X854959Y758017D02*
X850945Y758017D01*
X850945Y760161D02*
X854959Y760161D01*
X854959Y762305D02*
X850945Y762305D01*
X850945Y764449D02*
X854959Y764449D01*
X865959Y764887D02*
X865959Y755873D01*
X861945Y755873D01*
X861945Y764887D01*
X865959Y764887D01*
X865959Y758017D02*
X861945Y758017D01*
X861945Y760161D02*
X865959Y760161D01*
X865959Y762305D02*
X861945Y762305D01*
X861945Y764449D02*
X865959Y764449D01*
D17*
X772044Y783788D02*
X765860Y783788D01*
X765860Y790572D01*
X772044Y790572D01*
X772044Y783788D01*
X772044Y785961D02*
X765860Y785961D01*
X765860Y788134D02*
X772044Y788134D01*
X772044Y790307D02*
X765860Y790307D01*
D18*
X773660Y795022D02*
X773660Y804738D01*
X773660Y795022D02*
X764244Y795022D01*
X764244Y804738D01*
X773660Y804738D01*
X773660Y797258D02*
X764244Y797258D01*
X764244Y799494D02*
X773660Y799494D01*
X773660Y801730D02*
X764244Y801730D01*
X764244Y803966D02*
X773660Y803966D01*
X773660Y820522D02*
X773660Y831438D01*
X773660Y820522D02*
X764244Y820522D01*
X764244Y831438D01*
X773660Y831438D01*
X773660Y822758D02*
X764244Y822758D01*
X764244Y824994D02*
X773660Y824994D01*
X773660Y827230D02*
X764244Y827230D01*
X764244Y829466D02*
X773660Y829466D01*
X880410Y825738D02*
X880410Y814822D01*
X870994Y814822D01*
X870994Y825738D01*
X880410Y825738D01*
X880410Y817058D02*
X870994Y817058D01*
X870994Y819294D02*
X880410Y819294D01*
X880410Y821530D02*
X870994Y821530D01*
X870994Y823766D02*
X880410Y823766D01*
X880410Y799838D02*
X880410Y777022D01*
X870994Y777022D01*
X870994Y799838D01*
X880410Y799838D01*
X880410Y779258D02*
X870994Y779258D01*
X870994Y781494D02*
X880410Y781494D01*
X880410Y783730D02*
X870994Y783730D01*
X870994Y785966D02*
X880410Y785966D01*
X880410Y788202D02*
X870994Y788202D01*
X870994Y790438D02*
X880410Y790438D01*
X880410Y792674D02*
X870994Y792674D01*
X870994Y794910D02*
X880410Y794910D01*
X880410Y797146D02*
X870994Y797146D01*
X870994Y799382D02*
X880410Y799382D01*
D19*
X857970Y834998D02*
X829834Y834998D01*
X857970Y834998D02*
X857970Y830462D01*
X829834Y830462D01*
X829834Y834998D01*
X829834Y832584D02*
X857970Y832584D01*
X857970Y834706D02*
X829834Y834706D01*
X816070Y834998D02*
X787934Y834998D01*
X816070Y834998D02*
X816070Y830462D01*
X787934Y830462D01*
X787934Y834998D01*
X787934Y832584D02*
X816070Y832584D01*
X816070Y834706D02*
X787934Y834706D01*
D15*
X815340Y1135380D03*
X810940Y1305180D03*
X810940Y1279780D03*
X836340Y1305180D03*
X861740Y1305180D03*
X861740Y1279780D03*
D14*
X734196Y1211090D02*
X734196Y1205498D01*
X734196Y1211090D02*
X745884Y1211090D01*
X745884Y1205498D01*
X734196Y1205498D01*
X734196Y1207667D02*
X745884Y1207667D01*
X745884Y1209836D02*
X734196Y1209836D01*
X734196Y1200676D02*
X734196Y1195084D01*
X734196Y1200676D02*
X745884Y1200676D01*
X745884Y1195084D01*
X734196Y1195084D01*
X734196Y1197253D02*
X745884Y1197253D01*
X745884Y1199422D02*
X734196Y1199422D01*
X734196Y1190262D02*
X734196Y1184670D01*
X734196Y1190262D02*
X745884Y1190262D01*
X745884Y1184670D01*
X734196Y1184670D01*
X734196Y1186839D02*
X745884Y1186839D01*
X745884Y1189008D02*
X734196Y1189008D01*
D15*
X751840Y805180D03*
X764540Y1059180D03*
X840740Y1097280D03*
X777240Y1008380D03*
X853440Y919480D03*
D10*
X843040Y966180D03*
X843040Y991580D03*
D14*
X825043Y1121724D02*
X819451Y1121724D01*
X825043Y1121724D02*
X825043Y1110036D01*
X819451Y1110036D01*
X819451Y1121724D01*
X819451Y1112205D02*
X825043Y1112205D01*
X825043Y1114374D02*
X819451Y1114374D01*
X819451Y1116543D02*
X825043Y1116543D01*
X825043Y1118712D02*
X819451Y1118712D01*
X819451Y1120881D02*
X825043Y1120881D01*
X814629Y1121724D02*
X809037Y1121724D01*
X814629Y1121724D02*
X814629Y1110036D01*
X809037Y1110036D01*
X809037Y1121724D01*
X809037Y1112205D02*
X814629Y1112205D01*
X814629Y1114374D02*
X809037Y1114374D01*
X809037Y1116543D02*
X814629Y1116543D01*
X814629Y1118712D02*
X809037Y1118712D01*
X809037Y1120881D02*
X814629Y1120881D01*
D10*
X1150620Y1211580D03*
X1150620Y1186180D03*
X1150620Y1160780D03*
X1150620Y1135380D03*
X1150620Y1109980D03*
X1150620Y1084580D03*
X1150620Y1059180D03*
X1150620Y1033780D03*
X1150620Y1008380D03*
X1150620Y982980D03*
X1150620Y957580D03*
X1150620Y932180D03*
X1150620Y906780D03*
X1150620Y881380D03*
X1150620Y855980D03*
X1150620Y830580D03*
X947420Y932180D03*
X947420Y957580D03*
X947420Y982980D03*
X947420Y1008380D03*
X947420Y1033780D03*
X947420Y1059180D03*
X947420Y1084580D03*
X947420Y1109980D03*
X947420Y1135380D03*
X947420Y1160780D03*
X947420Y1186180D03*
X947420Y1211580D03*
D11*
X960120Y716280D03*
X1137920Y716280D03*
X1137920Y1249680D03*
X960120Y1249680D03*
D12*
X940720Y1224880D03*
X1155720Y743880D03*
D13*
X1020120Y738406D03*
X1077920Y738406D03*
D14*
X1100131Y726724D02*
X1105723Y726724D01*
X1105723Y715036D01*
X1100131Y715036D01*
X1100131Y726724D01*
X1100131Y717205D02*
X1105723Y717205D01*
X1105723Y719374D02*
X1100131Y719374D01*
X1100131Y721543D02*
X1105723Y721543D01*
X1105723Y723712D02*
X1100131Y723712D01*
X1100131Y725881D02*
X1105723Y725881D01*
X1095309Y726724D02*
X1089717Y726724D01*
X1095309Y726724D02*
X1095309Y715036D01*
X1089717Y715036D01*
X1089717Y726724D01*
X1089717Y717205D02*
X1095309Y717205D01*
X1095309Y719374D02*
X1089717Y719374D01*
X1089717Y721543D02*
X1095309Y721543D01*
X1095309Y723712D02*
X1089717Y723712D01*
X1089717Y725881D02*
X1095309Y725881D01*
X1058564Y908877D02*
X1058564Y914469D01*
X1058564Y908877D02*
X1046876Y908877D01*
X1046876Y914469D01*
X1058564Y914469D01*
X1058564Y911046D02*
X1046876Y911046D01*
X1046876Y913215D02*
X1058564Y913215D01*
X1058564Y919291D02*
X1058564Y924883D01*
X1058564Y919291D02*
X1046876Y919291D01*
X1046876Y924883D01*
X1058564Y924883D01*
X1058564Y921460D02*
X1046876Y921460D01*
X1046876Y923629D02*
X1058564Y923629D01*
D15*
X985520Y754380D03*
D16*
X1022639Y755873D02*
X1022639Y764887D01*
X1022639Y755873D02*
X1018625Y755873D01*
X1018625Y764887D01*
X1022639Y764887D01*
X1022639Y758017D02*
X1018625Y758017D01*
X1018625Y760161D02*
X1022639Y760161D01*
X1022639Y762305D02*
X1018625Y762305D01*
X1018625Y764449D02*
X1022639Y764449D01*
X1033639Y764887D02*
X1033639Y755873D01*
X1029625Y755873D01*
X1029625Y764887D01*
X1033639Y764887D01*
X1033639Y758017D02*
X1029625Y758017D01*
X1029625Y760161D02*
X1033639Y760161D01*
X1033639Y762305D02*
X1029625Y762305D01*
X1029625Y764449D02*
X1033639Y764449D01*
X1044639Y764887D02*
X1044639Y755873D01*
X1040625Y755873D01*
X1040625Y764887D01*
X1044639Y764887D01*
X1044639Y758017D02*
X1040625Y758017D01*
X1040625Y760161D02*
X1044639Y760161D01*
X1044639Y762305D02*
X1040625Y762305D01*
X1040625Y764449D02*
X1044639Y764449D01*
X1055639Y764887D02*
X1055639Y755873D01*
X1051625Y755873D01*
X1051625Y764887D01*
X1055639Y764887D01*
X1055639Y758017D02*
X1051625Y758017D01*
X1051625Y760161D02*
X1055639Y760161D01*
X1055639Y762305D02*
X1051625Y762305D01*
X1051625Y764449D02*
X1055639Y764449D01*
X1066639Y764887D02*
X1066639Y755873D01*
X1062625Y755873D01*
X1062625Y764887D01*
X1066639Y764887D01*
X1066639Y758017D02*
X1062625Y758017D01*
X1062625Y760161D02*
X1066639Y760161D01*
X1066639Y762305D02*
X1062625Y762305D01*
X1062625Y764449D02*
X1066639Y764449D01*
X1077639Y764887D02*
X1077639Y755873D01*
X1073625Y755873D01*
X1073625Y764887D01*
X1077639Y764887D01*
X1077639Y758017D02*
X1073625Y758017D01*
X1073625Y760161D02*
X1077639Y760161D01*
X1077639Y762305D02*
X1073625Y762305D01*
X1073625Y764449D02*
X1077639Y764449D01*
X1088639Y764887D02*
X1088639Y755873D01*
X1084625Y755873D01*
X1084625Y764887D01*
X1088639Y764887D01*
X1088639Y758017D02*
X1084625Y758017D01*
X1084625Y760161D02*
X1088639Y760161D01*
X1088639Y762305D02*
X1084625Y762305D01*
X1084625Y764449D02*
X1088639Y764449D01*
X1099639Y764887D02*
X1099639Y755873D01*
X1095625Y755873D01*
X1095625Y764887D01*
X1099639Y764887D01*
X1099639Y758017D02*
X1095625Y758017D01*
X1095625Y760161D02*
X1099639Y760161D01*
X1099639Y762305D02*
X1095625Y762305D01*
X1095625Y764449D02*
X1099639Y764449D01*
D17*
X1005724Y783788D02*
X999540Y783788D01*
X999540Y790572D01*
X1005724Y790572D01*
X1005724Y783788D01*
X1005724Y785961D02*
X999540Y785961D01*
X999540Y788134D02*
X1005724Y788134D01*
X1005724Y790307D02*
X999540Y790307D01*
D18*
X1007340Y795022D02*
X1007340Y804738D01*
X1007340Y795022D02*
X997924Y795022D01*
X997924Y804738D01*
X1007340Y804738D01*
X1007340Y797258D02*
X997924Y797258D01*
X997924Y799494D02*
X1007340Y799494D01*
X1007340Y801730D02*
X997924Y801730D01*
X997924Y803966D02*
X1007340Y803966D01*
X1007340Y820522D02*
X1007340Y831438D01*
X1007340Y820522D02*
X997924Y820522D01*
X997924Y831438D01*
X1007340Y831438D01*
X1007340Y822758D02*
X997924Y822758D01*
X997924Y824994D02*
X1007340Y824994D01*
X1007340Y827230D02*
X997924Y827230D01*
X997924Y829466D02*
X1007340Y829466D01*
X1114090Y825738D02*
X1114090Y814822D01*
X1104674Y814822D01*
X1104674Y825738D01*
X1114090Y825738D01*
X1114090Y817058D02*
X1104674Y817058D01*
X1104674Y819294D02*
X1114090Y819294D01*
X1114090Y821530D02*
X1104674Y821530D01*
X1104674Y823766D02*
X1114090Y823766D01*
X1114090Y799838D02*
X1114090Y777022D01*
X1104674Y777022D01*
X1104674Y799838D01*
X1114090Y799838D01*
X1114090Y779258D02*
X1104674Y779258D01*
X1104674Y781494D02*
X1114090Y781494D01*
X1114090Y783730D02*
X1104674Y783730D01*
X1104674Y785966D02*
X1114090Y785966D01*
X1114090Y788202D02*
X1104674Y788202D01*
X1104674Y790438D02*
X1114090Y790438D01*
X1114090Y792674D02*
X1104674Y792674D01*
X1104674Y794910D02*
X1114090Y794910D01*
X1114090Y797146D02*
X1104674Y797146D01*
X1104674Y799382D02*
X1114090Y799382D01*
D19*
X1091650Y834998D02*
X1063514Y834998D01*
X1091650Y834998D02*
X1091650Y830462D01*
X1063514Y830462D01*
X1063514Y834998D01*
X1063514Y832584D02*
X1091650Y832584D01*
X1091650Y834706D02*
X1063514Y834706D01*
X1049750Y834998D02*
X1021614Y834998D01*
X1049750Y834998D02*
X1049750Y830462D01*
X1021614Y830462D01*
X1021614Y834998D01*
X1021614Y832584D02*
X1049750Y832584D01*
X1049750Y834706D02*
X1021614Y834706D01*
D15*
X1049020Y1135380D03*
X1044620Y1305180D03*
X1044620Y1279780D03*
X1070020Y1305180D03*
X1095420Y1305180D03*
X1095420Y1279780D03*
D14*
X967876Y1211090D02*
X967876Y1205498D01*
X967876Y1211090D02*
X979564Y1211090D01*
X979564Y1205498D01*
X967876Y1205498D01*
X967876Y1207667D02*
X979564Y1207667D01*
X979564Y1209836D02*
X967876Y1209836D01*
X967876Y1200676D02*
X967876Y1195084D01*
X967876Y1200676D02*
X979564Y1200676D01*
X979564Y1195084D01*
X967876Y1195084D01*
X967876Y1197253D02*
X979564Y1197253D01*
X979564Y1199422D02*
X967876Y1199422D01*
X967876Y1190262D02*
X967876Y1184670D01*
X967876Y1190262D02*
X979564Y1190262D01*
X979564Y1184670D01*
X967876Y1184670D01*
X967876Y1186839D02*
X979564Y1186839D01*
X979564Y1189008D02*
X967876Y1189008D01*
D15*
X985520Y805180D03*
X998220Y1059180D03*
X1074420Y1097280D03*
X1010920Y1008380D03*
X1087120Y919480D03*
D10*
X1076720Y966180D03*
X1076720Y991580D03*
D14*
X1058723Y1121724D02*
X1053131Y1121724D01*
X1058723Y1121724D02*
X1058723Y1110036D01*
X1053131Y1110036D01*
X1053131Y1121724D01*
X1053131Y1112205D02*
X1058723Y1112205D01*
X1058723Y1114374D02*
X1053131Y1114374D01*
X1053131Y1116543D02*
X1058723Y1116543D01*
X1058723Y1118712D02*
X1053131Y1118712D01*
X1053131Y1120881D02*
X1058723Y1120881D01*
X1048309Y1121724D02*
X1042717Y1121724D01*
X1048309Y1121724D02*
X1048309Y1110036D01*
X1042717Y1110036D01*
X1042717Y1121724D01*
X1042717Y1112205D02*
X1048309Y1112205D01*
X1048309Y1114374D02*
X1042717Y1114374D01*
X1042717Y1116543D02*
X1048309Y1116543D01*
X1048309Y1118712D02*
X1042717Y1118712D01*
X1042717Y1120881D02*
X1048309Y1120881D01*
D20*
X-26238Y1350010D03*
X1189558Y1350010D03*
D21*
X-35293Y63500D02*
X-35290Y63722D01*
X-35282Y63944D01*
X-35268Y64166D01*
X-35249Y64388D01*
X-35225Y64608D01*
X-35195Y64829D01*
X-35160Y65048D01*
X-35119Y65267D01*
X-35073Y65484D01*
X-35022Y65700D01*
X-34965Y65915D01*
X-34903Y66129D01*
X-34836Y66340D01*
X-34764Y66551D01*
X-34686Y66759D01*
X-34604Y66965D01*
X-34516Y67169D01*
X-34424Y67372D01*
X-34326Y67571D01*
X-34224Y67768D01*
X-34117Y67963D01*
X-34005Y68155D01*
X-33888Y68344D01*
X-33767Y68531D01*
X-33641Y68714D01*
X-33511Y68894D01*
X-33376Y69071D01*
X-33238Y69244D01*
X-33095Y69414D01*
X-32947Y69581D01*
X-32796Y69744D01*
X-32641Y69903D01*
X-32482Y70058D01*
X-32319Y70209D01*
X-32152Y70357D01*
X-31982Y70500D01*
X-31809Y70638D01*
X-31632Y70773D01*
X-31452Y70903D01*
X-31269Y71029D01*
X-31082Y71150D01*
X-30893Y71267D01*
X-30701Y71379D01*
X-30506Y71486D01*
X-30309Y71588D01*
X-30110Y71686D01*
X-29907Y71778D01*
X-29703Y71866D01*
X-29497Y71948D01*
X-29289Y72026D01*
X-29078Y72098D01*
X-28867Y72165D01*
X-28653Y72227D01*
X-28438Y72284D01*
X-28222Y72335D01*
X-28005Y72381D01*
X-27786Y72422D01*
X-27567Y72457D01*
X-27346Y72487D01*
X-27126Y72511D01*
X-26904Y72530D01*
X-26682Y72544D01*
X-26460Y72552D01*
X-26238Y72555D01*
X-26016Y72552D01*
X-25794Y72544D01*
X-25572Y72530D01*
X-25350Y72511D01*
X-25130Y72487D01*
X-24909Y72457D01*
X-24690Y72422D01*
X-24471Y72381D01*
X-24254Y72335D01*
X-24038Y72284D01*
X-23823Y72227D01*
X-23609Y72165D01*
X-23398Y72098D01*
X-23187Y72026D01*
X-22979Y71948D01*
X-22773Y71866D01*
X-22569Y71778D01*
X-22366Y71686D01*
X-22167Y71588D01*
X-21970Y71486D01*
X-21775Y71379D01*
X-21583Y71267D01*
X-21394Y71150D01*
X-21207Y71029D01*
X-21024Y70903D01*
X-20844Y70773D01*
X-20667Y70638D01*
X-20494Y70500D01*
X-20324Y70357D01*
X-20157Y70209D01*
X-19994Y70058D01*
X-19835Y69903D01*
X-19680Y69744D01*
X-19529Y69581D01*
X-19381Y69414D01*
X-19238Y69244D01*
X-19100Y69071D01*
X-18965Y68894D01*
X-18835Y68714D01*
X-18709Y68531D01*
X-18588Y68344D01*
X-18471Y68155D01*
X-18359Y67963D01*
X-18252Y67768D01*
X-18150Y67571D01*
X-18052Y67372D01*
X-17960Y67169D01*
X-17872Y66965D01*
X-17790Y66759D01*
X-17712Y66551D01*
X-17640Y66340D01*
X-17573Y66129D01*
X-17511Y65915D01*
X-17454Y65700D01*
X-17403Y65484D01*
X-17357Y65267D01*
X-17316Y65048D01*
X-17281Y64829D01*
X-17251Y64608D01*
X-17227Y64388D01*
X-17208Y64166D01*
X-17194Y63944D01*
X-17186Y63722D01*
X-17183Y63500D01*
X-17186Y63278D01*
X-17194Y63056D01*
X-17208Y62834D01*
X-17227Y62612D01*
X-17251Y62392D01*
X-17281Y62171D01*
X-17316Y61952D01*
X-17357Y61733D01*
X-17403Y61516D01*
X-17454Y61300D01*
X-17511Y61085D01*
X-17573Y60871D01*
X-17640Y60660D01*
X-17712Y60449D01*
X-17790Y60241D01*
X-17872Y60035D01*
X-17960Y59831D01*
X-18052Y59628D01*
X-18150Y59429D01*
X-18252Y59232D01*
X-18359Y59037D01*
X-18471Y58845D01*
X-18588Y58656D01*
X-18709Y58469D01*
X-18835Y58286D01*
X-18965Y58106D01*
X-19100Y57929D01*
X-19238Y57756D01*
X-19381Y57586D01*
X-19529Y57419D01*
X-19680Y57256D01*
X-19835Y57097D01*
X-19994Y56942D01*
X-20157Y56791D01*
X-20324Y56643D01*
X-20494Y56500D01*
X-20667Y56362D01*
X-20844Y56227D01*
X-21024Y56097D01*
X-21207Y55971D01*
X-21394Y55850D01*
X-21583Y55733D01*
X-21775Y55621D01*
X-21970Y55514D01*
X-22167Y55412D01*
X-22366Y55314D01*
X-22569Y55222D01*
X-22773Y55134D01*
X-22979Y55052D01*
X-23187Y54974D01*
X-23398Y54902D01*
X-23609Y54835D01*
X-23823Y54773D01*
X-24038Y54716D01*
X-24254Y54665D01*
X-24471Y54619D01*
X-24690Y54578D01*
X-24909Y54543D01*
X-25130Y54513D01*
X-25350Y54489D01*
X-25572Y54470D01*
X-25794Y54456D01*
X-26016Y54448D01*
X-26238Y54445D01*
X-26460Y54448D01*
X-26682Y54456D01*
X-26904Y54470D01*
X-27126Y54489D01*
X-27346Y54513D01*
X-27567Y54543D01*
X-27786Y54578D01*
X-28005Y54619D01*
X-28222Y54665D01*
X-28438Y54716D01*
X-28653Y54773D01*
X-28867Y54835D01*
X-29078Y54902D01*
X-29289Y54974D01*
X-29497Y55052D01*
X-29703Y55134D01*
X-29907Y55222D01*
X-30110Y55314D01*
X-30309Y55412D01*
X-30506Y55514D01*
X-30701Y55621D01*
X-30893Y55733D01*
X-31082Y55850D01*
X-31269Y55971D01*
X-31452Y56097D01*
X-31632Y56227D01*
X-31809Y56362D01*
X-31982Y56500D01*
X-32152Y56643D01*
X-32319Y56791D01*
X-32482Y56942D01*
X-32641Y57097D01*
X-32796Y57256D01*
X-32947Y57419D01*
X-33095Y57586D01*
X-33238Y57756D01*
X-33376Y57929D01*
X-33511Y58106D01*
X-33641Y58286D01*
X-33767Y58469D01*
X-33888Y58656D01*
X-34005Y58845D01*
X-34117Y59037D01*
X-34224Y59232D01*
X-34326Y59429D01*
X-34424Y59628D01*
X-34516Y59831D01*
X-34604Y60035D01*
X-34686Y60241D01*
X-34764Y60449D01*
X-34836Y60660D01*
X-34903Y60871D01*
X-34965Y61085D01*
X-35022Y61300D01*
X-35073Y61516D01*
X-35119Y61733D01*
X-35160Y61952D01*
X-35195Y62171D01*
X-35225Y62392D01*
X-35249Y62612D01*
X-35268Y62834D01*
X-35282Y63056D01*
X-35290Y63278D01*
X-35293Y63500D01*
D22*
X-26238Y63500D03*
M02*
