M48
;GenerationSoftware,Autodesk,EAGLE,9.6.2*%
;CreationDate,2022-08-31T21:27:51Z*%
FMAT,2
ICI,OFF
METRIC,TZ,000.000
T4C0.300
T3C0.650
T2C1.016
T1C3.048
%
G90
M71
T1
X67056Y55880
X49276Y55880
X2540Y2540
X20320Y2540
X20320Y55880
X2540Y55880
X49276Y2540
X67056Y2540
X25908Y2540
X43688Y2540
X43688Y55880
X25908Y55880
T2
X60936Y30070
X1270Y26670
X48006Y41910
X48006Y44450
X48006Y46990
X21590Y36830
X48006Y49530
X48006Y52070
X21590Y52070
X21590Y49530
X21590Y46990
X21590Y44450
X21590Y41910
X21590Y39370
X60936Y27530
X21590Y34290
X21590Y31750
X21590Y29210
X21590Y26670
X21590Y24130
X21590Y21590
X21590Y19050
X21590Y16510
X21590Y13970
X1270Y24130
X1270Y29210
X1270Y31750
X1270Y34290
X1270Y36830
X1270Y39370
X1270Y41910
X1270Y44450
X1270Y46990
X1270Y49530
X1270Y52070
X14200Y27530
X14200Y30070
X44958Y52070
X44958Y49530
X44958Y46990
X44958Y44450
X44958Y41910
X44958Y39370
X44958Y36830
X44958Y34290
X44958Y31750
X44958Y29210
X44958Y26670
X44958Y24130
X44958Y21590
X44958Y19050
X44958Y16510
X44958Y13970
X24638Y24130
X24638Y26670
X24638Y29210
X24638Y31750
X24638Y34290
X24638Y36830
X24638Y39370
X24638Y41910
X24638Y44450
X24638Y46990
X24638Y49530
X24638Y52070
X37568Y27530
X37568Y30070
X68326Y52070
X68326Y49530
X68326Y46990
X68326Y44450
X68326Y41910
X68326Y39370
X68326Y36830
X68326Y34290
X68326Y31750
X68326Y29210
X68326Y26670
X68326Y24130
X68326Y21590
X68326Y19050
X68326Y16510
X68326Y13970
X48006Y24130
X48006Y26670
X48006Y29210
X48006Y31750
X48006Y34290
X48006Y36830
X48006Y39370
T3
X8540Y4753
X14320Y4753
X31908Y4753
X55276Y4753
X61056Y4753
X37688Y4753
T4
X4400Y15200
X5200Y26700
X9580Y53990
X5037Y31227
X5100Y35300
X10936Y41000
X8052Y47894
X10680Y53990
X9900Y48300
X17600Y53300
X6300Y41900
X13100Y48800
X18000Y52600
X6300Y40900
X13882Y48418
X18123Y51687
X6300Y40100
X14500Y48000
X16520Y49300
X8100Y39500
X6300Y39300
X6000Y47000
X13980Y57290
X11500Y48300
X6823Y52437
X4810Y52810
X4942Y51458
X6740Y27120
X8480Y57290
X6700Y34700
X13980Y53990
X17000Y23700
X9470Y46480
X9600Y54900
X9531Y57931
X4000Y9400
X8000Y38500
X6079Y53056
X13400Y39800
X6000Y56000
X6300Y42700
X8704Y43181
X8359Y59369
X5100Y59000
X2900Y16600
X2900Y32900
X5000Y53500
X2900Y41300
X4600Y36200
X33788Y19700
X40168Y57100
X29368Y46100
X32158Y45180
X30468Y12200
X26368Y10400
X36268Y57600
X34568Y60200
X37568Y60400
X29368Y62600
X29368Y65100
X31668Y61500
X39868Y62600
X39868Y65100
X42268Y62600
X42268Y59400
X32768Y30600
X29068Y32700
X29068Y29200
X35338Y37800
X34152Y55444
X32771Y53063
X42068Y10000
X37468Y52600
X26268Y43300
X23968Y45700
X23968Y48260
X23968Y50800
X29768Y51500
X33368Y16800
X37368Y18100
X41068Y21300
X39468Y31300
X23968Y40630
X23968Y38100
X23968Y35580
X23968Y33000
X23968Y43200
X31368Y4100
X31568Y1100
X38068Y1100
X38268Y4100
X36253Y4415
X40768Y4100
X34468Y4827
X35575Y4900
X33368Y3700
X35968Y3700
X34668Y3700
X37068Y10000
X38798Y16300
X37568Y22300
X37568Y21300
X37568Y20100
X33699Y22800
X39868Y26500
X40468Y61700
X40468Y61000
X40468Y60300
X33422Y8300
X31618Y15000
X33178Y44430
X37468Y37100
X37468Y37800
X37468Y38500
X38268Y39400
X38268Y42400
X33968Y29900
X41468Y15500
X43368Y17500
X43168Y15000
X25498Y48140
X33450Y40728
X35268Y35790
X35268Y36390
X34068Y36390
X34068Y35790
X38268Y40000
X37168Y44200
X38568Y8098
X35368Y30700
X36968Y35600
X34276Y7992
X32068Y34900
X36341Y8170
X36268Y31600
X33668Y49900
X31168Y8300
X37068Y15000
X31848Y56123
X34668Y19800
X36168Y45900
X36168Y60300
X33568Y59700
X30473Y58509
X41568Y58900
X30473Y57540
X30468Y53550
X30468Y54550
X33598Y52620
X30473Y60540
X30473Y59540
X28270Y15800
X29168Y27270
X31848Y53990
X28368Y34200
X35035Y41318
X32135Y47948
X27768Y15200
X28568Y26700
X32948Y53990
X28405Y31227
X28468Y35300
X34304Y41000
X31420Y47894
X34048Y53990
X33268Y48300
X40968Y53300
X29668Y41900
X36468Y48800
X41368Y52600
X29668Y40900
X37250Y48418
X41491Y51687
X29668Y40100
X37868Y48000
X39888Y49300
X31468Y39500
X29668Y39300
X29368Y47000
X37348Y57290
X34868Y48300
X10082Y40728
X28178Y52810
X28310Y51458
X30108Y27120
X31848Y57290
X30068Y34700
X37348Y53990
X40368Y23700
X32838Y46480
X32968Y54900
X32899Y57931
X27368Y9400
X31368Y38500
X29447Y53056
X36768Y39800
X29368Y56000
X29668Y42700
X32072Y43181
X31727Y59369
X28468Y59000
X26268Y16600
X26268Y32900
X28368Y53500
X26268Y41300
X27968Y36200
X57156Y19700
X63536Y57100
X52736Y46100
X55526Y45180
X53836Y12200
X49736Y10400
X59636Y57600
X57936Y60200
X60936Y60400
X52736Y62600
X52736Y65100
X55036Y61500
X63236Y62600
X63236Y65100
X65636Y62600
X65636Y59400
X56136Y30600
X52436Y32700
X52436Y29200
X58706Y37800
X57520Y55444
X56139Y53063
X65436Y10000
X60836Y52600
X49636Y43300
X47336Y45700
X47336Y48260
X47336Y50800
X53136Y51500
X56736Y16800
X60736Y18100
X64436Y21300
X62836Y31300
X47336Y40630
X47336Y38100
X47336Y35580
X47336Y33000
X47336Y43200
X54736Y4100
X54936Y1100
X61436Y1100
X61636Y4100
X59621Y4415
X64136Y4100
X57836Y4827
X58943Y4900
X56736Y3700
X59336Y3700
X58036Y3700
X60436Y10000
X62166Y16300
X60936Y22300
X60936Y21300
X60936Y20100
X57067Y22800
X63236Y26500
X63836Y61700
X63836Y61000
X63836Y60300
X56790Y8300
X54986Y15000
X56546Y44430
X60836Y37100
X60836Y37800
X60836Y38500
X61636Y39400
X61636Y42400
X57336Y29900
X64836Y15500
X66736Y17500
X66536Y15000
X48866Y48140
X56818Y40728
X58636Y35790
X58636Y36390
X57436Y36390
X57436Y35790
X61636Y40000
X60536Y44200
X61936Y8098
X58736Y30700
X60336Y35600
X57644Y7992
X55436Y34900
X59709Y8170
X59636Y31600
X57036Y49900
X54536Y8300
X60436Y15000
X55216Y56123
X58036Y19800
X59536Y45900
X59536Y60300
X56936Y59700
X53841Y58509
X64936Y58900
X53841Y57540
X53836Y53550
X53836Y54550
X56966Y52620
X53841Y60540
X53841Y59540
X51638Y15800
X52536Y27270
X55216Y53990
X51736Y34200
X58403Y41318
X55503Y47948
X51136Y15200
X51936Y26700
X56316Y53990
X51773Y31227
X51836Y35300
X57672Y41000
X54788Y47894
X57416Y53990
X56636Y48300
X64336Y53300
X53036Y41900
X59836Y48800
X10420Y19700
X53036Y40900
X60618Y48418
X64859Y51687
X53036Y40100
X61236Y48000
X63256Y49300
X54836Y39500
X53036Y39300
X52736Y47000
X60716Y57290
X58236Y48300
X53559Y52437
X51546Y52810
X51678Y51458
X53476Y27120
X55216Y57290
X53436Y34700
X60716Y53990
X63736Y23700
X56206Y46480
X56336Y54900
X56267Y57931
X50736Y9400
X54736Y38500
X52815Y53056
X60136Y39800
X52736Y56000
X53036Y42700
X55440Y43181
X55095Y59369
X51836Y59000
X49636Y16600
X49636Y32900
X51736Y53500
X49636Y41300
X51336Y36200
X16800Y57100
X6000Y46100
X8790Y45180
X7100Y12200
X3000Y10400
X12900Y57600
X11200Y60200
X14200Y60400
X6000Y62600
X6000Y65100
X8300Y61500
X16500Y62600
X16500Y65100
X18900Y62600
X18900Y59400
X9400Y30600
X5700Y32700
X5700Y29200
X11970Y37800
X10784Y55444
X9403Y53063
X18700Y10000
X14100Y52600
X2900Y43300
X600Y45700
X600Y48260
X600Y50800
X6400Y51500
X10000Y16800
X14000Y18100
X17700Y21300
X16100Y31300
X600Y40630
X600Y38100
X600Y35580
X30191Y52437
X600Y33000
X600Y43200
X8000Y4100
X8200Y1100
X14700Y1100
X14900Y4100
X12885Y4415
X17400Y4100
X11100Y4827
X12207Y4900
X10000Y3700
X12600Y3700
X11300Y3700
X13700Y10000
X15430Y16300
X14200Y22300
X14200Y21300
X14200Y20100
X10331Y22800
X16500Y26500
X17100Y61700
X17100Y61000
X17100Y60300
X10054Y8300
X8250Y15000
X9810Y44430
X14100Y37100
X14100Y37800
X14100Y38500
X14900Y39400
X14900Y42400
X10600Y29900
X18100Y15500
X20000Y17500
X19800Y15000
X2130Y48140
X11900Y35790
X11900Y36390
X10700Y36390
X10700Y35790
X14900Y40000
X13800Y44200
X15200Y8098
X12000Y30700
X13600Y35600
X10908Y7992
X8700Y34900
X12973Y8170
X12900Y31600
X10300Y49900
X7800Y8300
X13700Y15000
X8480Y56123
X11300Y19800
X12800Y45900
X12800Y60300
X10200Y59700
X7105Y58509
X18200Y58900
X7105Y57540
X7100Y53550
X7100Y54550
X10230Y52620
X7105Y60540
X7105Y59540
X4902Y15800
X5800Y27270
X8480Y53990
X5000Y34200
X11667Y41318
X8767Y47948
X64736Y52600
M30