G04 EAGLE Gerber RS-274X export*
G75*
%MOMM*%
%FSLAX34Y34*%
%LPD*%
%IN*%
%IPPOS*%
%AMOC8*
5,1,8,0,0,1.08239X$1,22.5*%
G01*
%ADD10C,0.127000*%
%ADD11C,0.381000*%
%ADD12C,0.279400*%
%ADD13C,0.254000*%
%ADD14C,0.000000*%
%ADD15C,0.010000*%


D10*
X0Y25400D02*
X0Y635000D01*
X7Y635614D01*
X30Y636227D01*
X67Y636840D01*
X119Y637451D01*
X185Y638062D01*
X267Y638670D01*
X363Y639276D01*
X473Y639880D01*
X598Y640481D01*
X738Y641079D01*
X892Y641673D01*
X1061Y642263D01*
X1243Y642849D01*
X1440Y643430D01*
X1651Y644007D01*
X1875Y644578D01*
X2113Y645144D01*
X2365Y645704D01*
X2631Y646257D01*
X2909Y646804D01*
X3201Y647344D01*
X3506Y647877D01*
X3824Y648402D01*
X4154Y648920D01*
X4496Y649429D01*
X4851Y649930D01*
X5218Y650422D01*
X5596Y650905D01*
X5986Y651379D01*
X6388Y651843D01*
X6800Y652298D01*
X7224Y652742D01*
X7658Y653176D01*
X8102Y653600D01*
X8557Y654012D01*
X9021Y654414D01*
X9495Y654804D01*
X9978Y655182D01*
X10470Y655549D01*
X10971Y655904D01*
X11480Y656246D01*
X11998Y656576D01*
X12523Y656894D01*
X13056Y657199D01*
X13596Y657491D01*
X14143Y657769D01*
X14696Y658035D01*
X15256Y658287D01*
X15822Y658525D01*
X16393Y658749D01*
X16970Y658960D01*
X17551Y659157D01*
X18137Y659339D01*
X18727Y659508D01*
X19321Y659662D01*
X19919Y659802D01*
X20520Y659927D01*
X21124Y660037D01*
X21730Y660133D01*
X22338Y660215D01*
X22949Y660281D01*
X23560Y660333D01*
X24173Y660370D01*
X24786Y660393D01*
X25400Y660400D01*
X203100Y660400D01*
X203715Y660394D01*
X204330Y660373D01*
X204944Y660337D01*
X205557Y660286D01*
X206168Y660220D01*
X206778Y660140D01*
X207385Y660045D01*
X207991Y659935D01*
X208593Y659811D01*
X209192Y659672D01*
X209788Y659519D01*
X210379Y659352D01*
X210967Y659170D01*
X211550Y658974D01*
X212128Y658764D01*
X212701Y658540D01*
X213268Y658302D01*
X213829Y658051D01*
X214384Y657786D01*
X214933Y657508D01*
X215475Y657217D01*
X216009Y656912D01*
X216536Y656595D01*
X217055Y656266D01*
X217566Y655923D01*
X218069Y655569D01*
X218563Y655202D01*
X219047Y654824D01*
X219523Y654434D01*
X219989Y654033D01*
X220445Y653620D01*
X220891Y653197D01*
X221327Y652763D01*
X221752Y652318D01*
X222166Y651864D01*
X222570Y651399D01*
X222961Y650925D01*
X223342Y650442D01*
X223710Y649950D01*
X224066Y649448D01*
X224411Y648939D01*
X224743Y648421D01*
X225062Y647895D01*
X225368Y647362D01*
X225662Y646821D01*
X225942Y646274D01*
X226209Y645720D01*
X226462Y645160D01*
X226702Y644593D01*
X226928Y644021D01*
X227141Y643444D01*
X227339Y642862D01*
X227523Y642275D01*
X227693Y641684D01*
X227848Y641089D01*
X227990Y640491D01*
X228116Y639889D01*
X228228Y639284D01*
X228326Y638677D01*
X228408Y638067D01*
X228476Y637456D01*
X228529Y636843D01*
X228568Y636230D01*
X228591Y635615D01*
X228600Y635000D01*
X228600Y25400D01*
X228593Y24786D01*
X228570Y24173D01*
X228533Y23560D01*
X228481Y22949D01*
X228415Y22338D01*
X228333Y21730D01*
X228237Y21124D01*
X228127Y20520D01*
X228002Y19919D01*
X227862Y19321D01*
X227708Y18727D01*
X227539Y18137D01*
X227357Y17551D01*
X227160Y16970D01*
X226949Y16393D01*
X226725Y15822D01*
X226487Y15256D01*
X226235Y14696D01*
X225969Y14143D01*
X225691Y13596D01*
X225399Y13056D01*
X225094Y12523D01*
X224776Y11998D01*
X224446Y11480D01*
X224104Y10971D01*
X223749Y10470D01*
X223382Y9978D01*
X223004Y9495D01*
X222614Y9021D01*
X222212Y8557D01*
X221800Y8102D01*
X221376Y7658D01*
X220942Y7224D01*
X220498Y6800D01*
X220043Y6388D01*
X219579Y5986D01*
X219105Y5596D01*
X218622Y5218D01*
X218130Y4851D01*
X217629Y4496D01*
X217120Y4154D01*
X216602Y3824D01*
X216077Y3506D01*
X215544Y3201D01*
X215004Y2909D01*
X214457Y2631D01*
X213904Y2365D01*
X213344Y2113D01*
X212778Y1875D01*
X212207Y1651D01*
X211630Y1440D01*
X211049Y1243D01*
X210463Y1061D01*
X209873Y892D01*
X209279Y738D01*
X208681Y598D01*
X208080Y473D01*
X207476Y363D01*
X206870Y267D01*
X206262Y185D01*
X205651Y119D01*
X205040Y67D01*
X204427Y30D01*
X203814Y7D01*
X203200Y0D01*
X25400Y0D01*
X24786Y7D01*
X24173Y30D01*
X23560Y67D01*
X22949Y119D01*
X22338Y185D01*
X21730Y267D01*
X21124Y363D01*
X20520Y473D01*
X19919Y598D01*
X19321Y738D01*
X18727Y892D01*
X18137Y1061D01*
X17551Y1243D01*
X16970Y1440D01*
X16393Y1651D01*
X15822Y1875D01*
X15256Y2113D01*
X14696Y2365D01*
X14143Y2631D01*
X13596Y2909D01*
X13056Y3201D01*
X12523Y3506D01*
X11998Y3824D01*
X11480Y4154D01*
X10971Y4496D01*
X10470Y4851D01*
X9978Y5218D01*
X9495Y5596D01*
X9021Y5986D01*
X8557Y6388D01*
X8102Y6800D01*
X7658Y7224D01*
X7224Y7658D01*
X6800Y8102D01*
X6388Y8557D01*
X5986Y9021D01*
X5596Y9495D01*
X5218Y9978D01*
X4851Y10470D01*
X4496Y10971D01*
X4154Y11480D01*
X3824Y11998D01*
X3506Y12523D01*
X3201Y13056D01*
X2909Y13596D01*
X2631Y14143D01*
X2365Y14696D01*
X2113Y15256D01*
X1875Y15822D01*
X1651Y16393D01*
X1440Y16970D01*
X1243Y17551D01*
X1061Y18137D01*
X892Y18727D01*
X738Y19321D01*
X598Y19919D01*
X473Y20520D01*
X363Y21124D01*
X267Y21730D01*
X185Y22338D01*
X119Y22949D01*
X67Y23560D01*
X30Y24173D01*
X7Y24786D01*
X0Y25400D01*
X233680Y25400D02*
X233680Y635000D01*
X233687Y635614D01*
X233710Y636227D01*
X233747Y636840D01*
X233799Y637451D01*
X233865Y638062D01*
X233947Y638670D01*
X234043Y639276D01*
X234153Y639880D01*
X234278Y640481D01*
X234418Y641079D01*
X234572Y641673D01*
X234741Y642263D01*
X234923Y642849D01*
X235120Y643430D01*
X235331Y644007D01*
X235555Y644578D01*
X235793Y645144D01*
X236045Y645704D01*
X236311Y646257D01*
X236589Y646804D01*
X236881Y647344D01*
X237186Y647877D01*
X237504Y648402D01*
X237834Y648920D01*
X238176Y649429D01*
X238531Y649930D01*
X238898Y650422D01*
X239276Y650905D01*
X239666Y651379D01*
X240068Y651843D01*
X240480Y652298D01*
X240904Y652742D01*
X241338Y653176D01*
X241782Y653600D01*
X242237Y654012D01*
X242701Y654414D01*
X243175Y654804D01*
X243658Y655182D01*
X244150Y655549D01*
X244651Y655904D01*
X245160Y656246D01*
X245678Y656576D01*
X246203Y656894D01*
X246736Y657199D01*
X247276Y657491D01*
X247823Y657769D01*
X248376Y658035D01*
X248936Y658287D01*
X249502Y658525D01*
X250073Y658749D01*
X250650Y658960D01*
X251231Y659157D01*
X251817Y659339D01*
X252407Y659508D01*
X253001Y659662D01*
X253599Y659802D01*
X254200Y659927D01*
X254804Y660037D01*
X255410Y660133D01*
X256018Y660215D01*
X256629Y660281D01*
X257240Y660333D01*
X257853Y660370D01*
X258466Y660393D01*
X259080Y660400D01*
X436780Y660400D01*
X437395Y660394D01*
X438010Y660373D01*
X438624Y660337D01*
X439237Y660286D01*
X439848Y660220D01*
X440458Y660140D01*
X441065Y660045D01*
X441671Y659935D01*
X442273Y659811D01*
X442872Y659672D01*
X443468Y659519D01*
X444059Y659352D01*
X444647Y659170D01*
X445230Y658974D01*
X445808Y658764D01*
X446381Y658540D01*
X446948Y658302D01*
X447509Y658051D01*
X448064Y657786D01*
X448613Y657508D01*
X449155Y657217D01*
X449689Y656912D01*
X450216Y656595D01*
X450735Y656266D01*
X451246Y655923D01*
X451749Y655569D01*
X452243Y655202D01*
X452727Y654824D01*
X453203Y654434D01*
X453669Y654033D01*
X454125Y653620D01*
X454571Y653197D01*
X455007Y652763D01*
X455432Y652318D01*
X455846Y651864D01*
X456250Y651399D01*
X456641Y650925D01*
X457022Y650442D01*
X457390Y649950D01*
X457746Y649448D01*
X458091Y648939D01*
X458423Y648421D01*
X458742Y647895D01*
X459048Y647362D01*
X459342Y646821D01*
X459622Y646274D01*
X459889Y645720D01*
X460142Y645160D01*
X460382Y644593D01*
X460608Y644021D01*
X460821Y643444D01*
X461019Y642862D01*
X461203Y642275D01*
X461373Y641684D01*
X461528Y641089D01*
X461670Y640491D01*
X461796Y639889D01*
X461908Y639284D01*
X462006Y638677D01*
X462088Y638067D01*
X462156Y637456D01*
X462209Y636843D01*
X462248Y636230D01*
X462271Y635615D01*
X462280Y635000D01*
X462280Y25400D01*
X462273Y24786D01*
X462250Y24173D01*
X462213Y23560D01*
X462161Y22949D01*
X462095Y22338D01*
X462013Y21730D01*
X461917Y21124D01*
X461807Y20520D01*
X461682Y19919D01*
X461542Y19321D01*
X461388Y18727D01*
X461219Y18137D01*
X461037Y17551D01*
X460840Y16970D01*
X460629Y16393D01*
X460405Y15822D01*
X460167Y15256D01*
X459915Y14696D01*
X459649Y14143D01*
X459371Y13596D01*
X459079Y13056D01*
X458774Y12523D01*
X458456Y11998D01*
X458126Y11480D01*
X457784Y10971D01*
X457429Y10470D01*
X457062Y9978D01*
X456684Y9495D01*
X456294Y9021D01*
X455892Y8557D01*
X455480Y8102D01*
X455056Y7658D01*
X454622Y7224D01*
X454178Y6800D01*
X453723Y6388D01*
X453259Y5986D01*
X452785Y5596D01*
X452302Y5218D01*
X451810Y4851D01*
X451309Y4496D01*
X450800Y4154D01*
X450282Y3824D01*
X449757Y3506D01*
X449224Y3201D01*
X448684Y2909D01*
X448137Y2631D01*
X447584Y2365D01*
X447024Y2113D01*
X446458Y1875D01*
X445887Y1651D01*
X445310Y1440D01*
X444729Y1243D01*
X444143Y1061D01*
X443553Y892D01*
X442959Y738D01*
X442361Y598D01*
X441760Y473D01*
X441156Y363D01*
X440550Y267D01*
X439942Y185D01*
X439331Y119D01*
X438720Y67D01*
X438107Y30D01*
X437494Y7D01*
X436880Y0D01*
X259080Y0D01*
X258466Y7D01*
X257853Y30D01*
X257240Y67D01*
X256629Y119D01*
X256018Y185D01*
X255410Y267D01*
X254804Y363D01*
X254200Y473D01*
X253599Y598D01*
X253001Y738D01*
X252407Y892D01*
X251817Y1061D01*
X251231Y1243D01*
X250650Y1440D01*
X250073Y1651D01*
X249502Y1875D01*
X248936Y2113D01*
X248376Y2365D01*
X247823Y2631D01*
X247276Y2909D01*
X246736Y3201D01*
X246203Y3506D01*
X245678Y3824D01*
X245160Y4154D01*
X244651Y4496D01*
X244150Y4851D01*
X243658Y5218D01*
X243175Y5596D01*
X242701Y5986D01*
X242237Y6388D01*
X241782Y6800D01*
X241338Y7224D01*
X240904Y7658D01*
X240480Y8102D01*
X240068Y8557D01*
X239666Y9021D01*
X239276Y9495D01*
X238898Y9978D01*
X238531Y10470D01*
X238176Y10971D01*
X237834Y11480D01*
X237504Y11998D01*
X237186Y12523D01*
X236881Y13056D01*
X236589Y13596D01*
X236311Y14143D01*
X236045Y14696D01*
X235793Y15256D01*
X235555Y15822D01*
X235331Y16393D01*
X235120Y16970D01*
X234923Y17551D01*
X234741Y18137D01*
X234572Y18727D01*
X234418Y19321D01*
X234278Y19919D01*
X234153Y20520D01*
X234043Y21124D01*
X233947Y21730D01*
X233865Y22338D01*
X233799Y22949D01*
X233747Y23560D01*
X233710Y24173D01*
X233687Y24786D01*
X233680Y25400D01*
X467360Y25400D02*
X467360Y635000D01*
X467367Y635614D01*
X467390Y636227D01*
X467427Y636840D01*
X467479Y637451D01*
X467545Y638062D01*
X467627Y638670D01*
X467723Y639276D01*
X467833Y639880D01*
X467958Y640481D01*
X468098Y641079D01*
X468252Y641673D01*
X468421Y642263D01*
X468603Y642849D01*
X468800Y643430D01*
X469011Y644007D01*
X469235Y644578D01*
X469473Y645144D01*
X469725Y645704D01*
X469991Y646257D01*
X470269Y646804D01*
X470561Y647344D01*
X470866Y647877D01*
X471184Y648402D01*
X471514Y648920D01*
X471856Y649429D01*
X472211Y649930D01*
X472578Y650422D01*
X472956Y650905D01*
X473346Y651379D01*
X473748Y651843D01*
X474160Y652298D01*
X474584Y652742D01*
X475018Y653176D01*
X475462Y653600D01*
X475917Y654012D01*
X476381Y654414D01*
X476855Y654804D01*
X477338Y655182D01*
X477830Y655549D01*
X478331Y655904D01*
X478840Y656246D01*
X479358Y656576D01*
X479883Y656894D01*
X480416Y657199D01*
X480956Y657491D01*
X481503Y657769D01*
X482056Y658035D01*
X482616Y658287D01*
X483182Y658525D01*
X483753Y658749D01*
X484330Y658960D01*
X484911Y659157D01*
X485497Y659339D01*
X486087Y659508D01*
X486681Y659662D01*
X487279Y659802D01*
X487880Y659927D01*
X488484Y660037D01*
X489090Y660133D01*
X489698Y660215D01*
X490309Y660281D01*
X490920Y660333D01*
X491533Y660370D01*
X492146Y660393D01*
X492760Y660400D01*
X670460Y660400D01*
X671075Y660394D01*
X671690Y660373D01*
X672304Y660337D01*
X672917Y660286D01*
X673528Y660220D01*
X674138Y660140D01*
X674745Y660045D01*
X675351Y659935D01*
X675953Y659811D01*
X676552Y659672D01*
X677148Y659519D01*
X677739Y659352D01*
X678327Y659170D01*
X678910Y658974D01*
X679488Y658764D01*
X680061Y658540D01*
X680628Y658302D01*
X681189Y658051D01*
X681744Y657786D01*
X682293Y657508D01*
X682835Y657217D01*
X683369Y656912D01*
X683896Y656595D01*
X684415Y656266D01*
X684926Y655923D01*
X685429Y655569D01*
X685923Y655202D01*
X686407Y654824D01*
X686883Y654434D01*
X687349Y654033D01*
X687805Y653620D01*
X688251Y653197D01*
X688687Y652763D01*
X689112Y652318D01*
X689526Y651864D01*
X689930Y651399D01*
X690321Y650925D01*
X690702Y650442D01*
X691070Y649950D01*
X691426Y649448D01*
X691771Y648939D01*
X692103Y648421D01*
X692422Y647895D01*
X692728Y647362D01*
X693022Y646821D01*
X693302Y646274D01*
X693569Y645720D01*
X693822Y645160D01*
X694062Y644593D01*
X694288Y644021D01*
X694501Y643444D01*
X694699Y642862D01*
X694883Y642275D01*
X695053Y641684D01*
X695208Y641089D01*
X695350Y640491D01*
X695476Y639889D01*
X695588Y639284D01*
X695686Y638677D01*
X695768Y638067D01*
X695836Y637456D01*
X695889Y636843D01*
X695928Y636230D01*
X695951Y635615D01*
X695960Y635000D01*
X695960Y25400D01*
X695953Y24786D01*
X695930Y24173D01*
X695893Y23560D01*
X695841Y22949D01*
X695775Y22338D01*
X695693Y21730D01*
X695597Y21124D01*
X695487Y20520D01*
X695362Y19919D01*
X695222Y19321D01*
X695068Y18727D01*
X694899Y18137D01*
X694717Y17551D01*
X694520Y16970D01*
X694309Y16393D01*
X694085Y15822D01*
X693847Y15256D01*
X693595Y14696D01*
X693329Y14143D01*
X693051Y13596D01*
X692759Y13056D01*
X692454Y12523D01*
X692136Y11998D01*
X691806Y11480D01*
X691464Y10971D01*
X691109Y10470D01*
X690742Y9978D01*
X690364Y9495D01*
X689974Y9021D01*
X689572Y8557D01*
X689160Y8102D01*
X688736Y7658D01*
X688302Y7224D01*
X687858Y6800D01*
X687403Y6388D01*
X686939Y5986D01*
X686465Y5596D01*
X685982Y5218D01*
X685490Y4851D01*
X684989Y4496D01*
X684480Y4154D01*
X683962Y3824D01*
X683437Y3506D01*
X682904Y3201D01*
X682364Y2909D01*
X681817Y2631D01*
X681264Y2365D01*
X680704Y2113D01*
X680138Y1875D01*
X679567Y1651D01*
X678990Y1440D01*
X678409Y1243D01*
X677823Y1061D01*
X677233Y892D01*
X676639Y738D01*
X676041Y598D01*
X675440Y473D01*
X674836Y363D01*
X674230Y267D01*
X673622Y185D01*
X673011Y119D01*
X672400Y67D01*
X671787Y30D01*
X671174Y7D01*
X670560Y0D01*
X492760Y0D01*
X492146Y7D01*
X491533Y30D01*
X490920Y67D01*
X490309Y119D01*
X489698Y185D01*
X489090Y267D01*
X488484Y363D01*
X487880Y473D01*
X487279Y598D01*
X486681Y738D01*
X486087Y892D01*
X485497Y1061D01*
X484911Y1243D01*
X484330Y1440D01*
X483753Y1651D01*
X483182Y1875D01*
X482616Y2113D01*
X482056Y2365D01*
X481503Y2631D01*
X480956Y2909D01*
X480416Y3201D01*
X479883Y3506D01*
X479358Y3824D01*
X478840Y4154D01*
X478331Y4496D01*
X477830Y4851D01*
X477338Y5218D01*
X476855Y5596D01*
X476381Y5986D01*
X475917Y6388D01*
X475462Y6800D01*
X475018Y7224D01*
X474584Y7658D01*
X474160Y8102D01*
X473748Y8557D01*
X473346Y9021D01*
X472956Y9495D01*
X472578Y9978D01*
X472211Y10470D01*
X471856Y10971D01*
X471514Y11480D01*
X471184Y11998D01*
X470866Y12523D01*
X470561Y13056D01*
X470269Y13596D01*
X469991Y14143D01*
X469725Y14696D01*
X469473Y15256D01*
X469235Y15822D01*
X469011Y16393D01*
X468800Y16970D01*
X468603Y17551D01*
X468421Y18137D01*
X468252Y18727D01*
X468098Y19321D01*
X467958Y19919D01*
X467833Y20520D01*
X467723Y21124D01*
X467627Y21730D01*
X467545Y22338D01*
X467479Y22949D01*
X467427Y23560D01*
X467390Y24173D01*
X467367Y24786D01*
X467360Y25400D01*
D11*
X-2540Y-68580D02*
X-2540Y734060D01*
D12*
X-42921Y749427D02*
X-46251Y759418D01*
X-39590Y759418D02*
X-42921Y749427D01*
X-32806Y755255D02*
X-22815Y755255D01*
X-14261Y755255D02*
X-10098Y753590D01*
X-14261Y755254D02*
X-14346Y755290D01*
X-14429Y755330D01*
X-14510Y755373D01*
X-14590Y755420D01*
X-14667Y755470D01*
X-14743Y755523D01*
X-14816Y755579D01*
X-14886Y755639D01*
X-14954Y755701D01*
X-15019Y755766D01*
X-15081Y755834D01*
X-15141Y755905D01*
X-15197Y755978D01*
X-15250Y756053D01*
X-15300Y756131D01*
X-15346Y756210D01*
X-15389Y756292D01*
X-15429Y756375D01*
X-15465Y756460D01*
X-15497Y756546D01*
X-15526Y756634D01*
X-15550Y756723D01*
X-15571Y756813D01*
X-15588Y756903D01*
X-15602Y756994D01*
X-15611Y757086D01*
X-15616Y757178D01*
X-15618Y757270D01*
X-15616Y757362D01*
X-15609Y757454D01*
X-15599Y757546D01*
X-15585Y757637D01*
X-15567Y757728D01*
X-15545Y757817D01*
X-15519Y757906D01*
X-15489Y757993D01*
X-15456Y758079D01*
X-15419Y758163D01*
X-15379Y758246D01*
X-15335Y758327D01*
X-15288Y758406D01*
X-15237Y758483D01*
X-15183Y758558D01*
X-15126Y758631D01*
X-15066Y758701D01*
X-15003Y758768D01*
X-14937Y758832D01*
X-14869Y758894D01*
X-14798Y758953D01*
X-14724Y759008D01*
X-14648Y759061D01*
X-14570Y759110D01*
X-14490Y759156D01*
X-14409Y759198D01*
X-14325Y759237D01*
X-14240Y759272D01*
X-14153Y759303D01*
X-14065Y759331D01*
X-13976Y759355D01*
X-13886Y759375D01*
X-13796Y759392D01*
X-13704Y759404D01*
X-13612Y759413D01*
X-13520Y759417D01*
X-13428Y759418D01*
X-13201Y759412D01*
X-12974Y759401D01*
X-12747Y759384D01*
X-12521Y759361D01*
X-12295Y759334D01*
X-12070Y759300D01*
X-11846Y759262D01*
X-11623Y759218D01*
X-11401Y759169D01*
X-11180Y759114D01*
X-10961Y759054D01*
X-10743Y758989D01*
X-10527Y758918D01*
X-10313Y758843D01*
X-10100Y758762D01*
X-9890Y758676D01*
X-9681Y758585D01*
X-10098Y753590D02*
X-10013Y753554D01*
X-9930Y753514D01*
X-9849Y753471D01*
X-9769Y753424D01*
X-9692Y753374D01*
X-9616Y753321D01*
X-9543Y753265D01*
X-9473Y753205D01*
X-9405Y753143D01*
X-9340Y753078D01*
X-9278Y753010D01*
X-9218Y752939D01*
X-9162Y752866D01*
X-9109Y752791D01*
X-9059Y752713D01*
X-9013Y752634D01*
X-8970Y752552D01*
X-8930Y752469D01*
X-8894Y752384D01*
X-8862Y752298D01*
X-8833Y752210D01*
X-8809Y752121D01*
X-8788Y752031D01*
X-8771Y751941D01*
X-8757Y751850D01*
X-8748Y751758D01*
X-8743Y751666D01*
X-8741Y751574D01*
X-8743Y751482D01*
X-8750Y751390D01*
X-8760Y751298D01*
X-8774Y751207D01*
X-8792Y751116D01*
X-8814Y751027D01*
X-8840Y750938D01*
X-8870Y750851D01*
X-8903Y750765D01*
X-8940Y750681D01*
X-8980Y750598D01*
X-9024Y750517D01*
X-9071Y750438D01*
X-9122Y750361D01*
X-9176Y750286D01*
X-9233Y750213D01*
X-9293Y750143D01*
X-9356Y750076D01*
X-9422Y750012D01*
X-9490Y749950D01*
X-9561Y749891D01*
X-9635Y749836D01*
X-9711Y749783D01*
X-9789Y749734D01*
X-9869Y749688D01*
X-9950Y749646D01*
X-10034Y749607D01*
X-10119Y749572D01*
X-10206Y749541D01*
X-10294Y749513D01*
X-10383Y749489D01*
X-10473Y749469D01*
X-10563Y749452D01*
X-10655Y749440D01*
X-10747Y749431D01*
X-10839Y749427D01*
X-10931Y749426D01*
X-10931Y749427D02*
X-11265Y749436D01*
X-11598Y749453D01*
X-11931Y749477D01*
X-12264Y749510D01*
X-12595Y749550D01*
X-12926Y749598D01*
X-13255Y749654D01*
X-13583Y749717D01*
X-13909Y749789D01*
X-14233Y749868D01*
X-14556Y749954D01*
X-14876Y750049D01*
X-15194Y750151D01*
X-15510Y750260D01*
X562Y749427D02*
X3892Y749427D01*
X562Y749427D02*
X464Y749429D01*
X366Y749435D01*
X268Y749444D01*
X171Y749458D01*
X75Y749475D01*
X-21Y749496D01*
X-116Y749521D01*
X-210Y749549D01*
X-303Y749581D01*
X-394Y749617D01*
X-484Y749656D01*
X-572Y749699D01*
X-659Y749746D01*
X-743Y749795D01*
X-826Y749848D01*
X-906Y749904D01*
X-985Y749963D01*
X-1060Y750026D01*
X-1134Y750091D01*
X-1204Y750159D01*
X-1272Y750229D01*
X-1338Y750303D01*
X-1400Y750379D01*
X-1459Y750457D01*
X-1515Y750537D01*
X-1568Y750620D01*
X-1618Y750704D01*
X-1664Y750791D01*
X-1707Y750879D01*
X-1746Y750969D01*
X-1782Y751060D01*
X-1814Y751153D01*
X-1842Y751247D01*
X-1867Y751342D01*
X-1888Y751438D01*
X-1905Y751534D01*
X-1919Y751631D01*
X-1928Y751729D01*
X-1934Y751827D01*
X-1936Y751925D01*
X-1936Y756920D01*
X-1934Y757018D01*
X-1928Y757116D01*
X-1919Y757214D01*
X-1905Y757311D01*
X-1888Y757407D01*
X-1867Y757503D01*
X-1842Y757598D01*
X-1814Y757692D01*
X-1782Y757785D01*
X-1746Y757876D01*
X-1707Y757966D01*
X-1664Y758054D01*
X-1617Y758141D01*
X-1568Y758225D01*
X-1515Y758308D01*
X-1459Y758388D01*
X-1400Y758466D01*
X-1337Y758542D01*
X-1272Y758616D01*
X-1204Y758686D01*
X-1134Y758754D01*
X-1060Y758819D01*
X-984Y758882D01*
X-906Y758941D01*
X-826Y758997D01*
X-743Y759050D01*
X-659Y759099D01*
X-572Y759146D01*
X-484Y759189D01*
X-394Y759228D01*
X-303Y759264D01*
X-210Y759296D01*
X-116Y759324D01*
X-21Y759349D01*
X75Y759370D01*
X171Y759387D01*
X268Y759401D01*
X366Y759410D01*
X464Y759416D01*
X562Y759418D01*
X3892Y759418D01*
X10022Y756087D02*
X10022Y752757D01*
X10022Y756087D02*
X10024Y756201D01*
X10030Y756314D01*
X10039Y756428D01*
X10053Y756540D01*
X10070Y756653D01*
X10092Y756765D01*
X10117Y756875D01*
X10145Y756985D01*
X10178Y757094D01*
X10214Y757202D01*
X10254Y757309D01*
X10298Y757414D01*
X10345Y757517D01*
X10395Y757619D01*
X10449Y757719D01*
X10507Y757817D01*
X10568Y757913D01*
X10631Y758007D01*
X10699Y758099D01*
X10769Y758189D01*
X10842Y758275D01*
X10918Y758360D01*
X10997Y758442D01*
X11079Y758521D01*
X11164Y758597D01*
X11250Y758670D01*
X11340Y758740D01*
X11432Y758808D01*
X11526Y758871D01*
X11622Y758932D01*
X11720Y758990D01*
X11820Y759044D01*
X11922Y759094D01*
X12025Y759141D01*
X12130Y759185D01*
X12237Y759225D01*
X12345Y759261D01*
X12454Y759294D01*
X12564Y759322D01*
X12674Y759347D01*
X12786Y759369D01*
X12899Y759386D01*
X13011Y759400D01*
X13125Y759409D01*
X13238Y759415D01*
X13352Y759417D01*
X13466Y759415D01*
X13579Y759409D01*
X13693Y759400D01*
X13805Y759386D01*
X13918Y759369D01*
X14030Y759347D01*
X14140Y759322D01*
X14250Y759294D01*
X14359Y759261D01*
X14467Y759225D01*
X14574Y759185D01*
X14679Y759141D01*
X14782Y759094D01*
X14884Y759044D01*
X14984Y758990D01*
X15082Y758932D01*
X15178Y758871D01*
X15272Y758808D01*
X15364Y758740D01*
X15454Y758670D01*
X15540Y758597D01*
X15625Y758521D01*
X15707Y758442D01*
X15786Y758360D01*
X15862Y758275D01*
X15935Y758189D01*
X16005Y758099D01*
X16073Y758007D01*
X16136Y757913D01*
X16197Y757817D01*
X16255Y757719D01*
X16309Y757619D01*
X16359Y757517D01*
X16406Y757414D01*
X16450Y757309D01*
X16490Y757202D01*
X16526Y757094D01*
X16559Y756985D01*
X16587Y756875D01*
X16612Y756765D01*
X16634Y756653D01*
X16651Y756540D01*
X16665Y756428D01*
X16674Y756314D01*
X16680Y756201D01*
X16682Y756087D01*
X16682Y752757D01*
X16680Y752643D01*
X16674Y752530D01*
X16665Y752416D01*
X16651Y752304D01*
X16634Y752191D01*
X16612Y752079D01*
X16587Y751969D01*
X16559Y751859D01*
X16526Y751750D01*
X16490Y751642D01*
X16450Y751535D01*
X16406Y751430D01*
X16359Y751327D01*
X16309Y751225D01*
X16255Y751125D01*
X16197Y751027D01*
X16136Y750931D01*
X16073Y750837D01*
X16005Y750745D01*
X15935Y750655D01*
X15862Y750569D01*
X15786Y750484D01*
X15707Y750402D01*
X15625Y750323D01*
X15540Y750247D01*
X15454Y750174D01*
X15364Y750104D01*
X15272Y750036D01*
X15178Y749973D01*
X15082Y749912D01*
X14984Y749854D01*
X14884Y749800D01*
X14782Y749750D01*
X14679Y749703D01*
X14574Y749659D01*
X14467Y749619D01*
X14359Y749583D01*
X14250Y749550D01*
X14140Y749522D01*
X14030Y749497D01*
X13918Y749475D01*
X13805Y749458D01*
X13693Y749444D01*
X13579Y749435D01*
X13466Y749429D01*
X13352Y749427D01*
X13238Y749429D01*
X13125Y749435D01*
X13011Y749444D01*
X12899Y749458D01*
X12786Y749475D01*
X12674Y749497D01*
X12564Y749522D01*
X12454Y749550D01*
X12345Y749583D01*
X12237Y749619D01*
X12130Y749659D01*
X12025Y749703D01*
X11922Y749750D01*
X11820Y749800D01*
X11720Y749854D01*
X11622Y749912D01*
X11526Y749973D01*
X11432Y750036D01*
X11340Y750104D01*
X11250Y750174D01*
X11164Y750247D01*
X11079Y750323D01*
X10997Y750402D01*
X10918Y750484D01*
X10842Y750569D01*
X10769Y750655D01*
X10699Y750745D01*
X10631Y750837D01*
X10568Y750931D01*
X10507Y751027D01*
X10449Y751125D01*
X10395Y751225D01*
X10345Y751327D01*
X10298Y751430D01*
X10254Y751535D01*
X10214Y751642D01*
X10178Y751750D01*
X10145Y751859D01*
X10117Y751969D01*
X10092Y752079D01*
X10070Y752191D01*
X10053Y752304D01*
X10039Y752416D01*
X10030Y752530D01*
X10024Y752643D01*
X10022Y752757D01*
X24218Y749427D02*
X24218Y759418D01*
X29213Y759418D01*
X29213Y757753D01*
X37008Y749427D02*
X41171Y749427D01*
X37008Y749427D02*
X36910Y749429D01*
X36812Y749435D01*
X36714Y749444D01*
X36617Y749458D01*
X36521Y749475D01*
X36425Y749496D01*
X36330Y749521D01*
X36236Y749549D01*
X36143Y749581D01*
X36052Y749617D01*
X35962Y749656D01*
X35874Y749699D01*
X35787Y749746D01*
X35703Y749795D01*
X35620Y749848D01*
X35540Y749904D01*
X35462Y749963D01*
X35386Y750026D01*
X35312Y750091D01*
X35242Y750159D01*
X35174Y750229D01*
X35109Y750303D01*
X35046Y750379D01*
X34987Y750457D01*
X34931Y750537D01*
X34878Y750620D01*
X34829Y750704D01*
X34782Y750791D01*
X34739Y750879D01*
X34700Y750969D01*
X34664Y751060D01*
X34632Y751153D01*
X34604Y751247D01*
X34579Y751342D01*
X34558Y751438D01*
X34541Y751534D01*
X34527Y751631D01*
X34518Y751729D01*
X34512Y751827D01*
X34510Y751925D01*
X34510Y756087D01*
X34511Y756087D02*
X34513Y756201D01*
X34519Y756314D01*
X34528Y756428D01*
X34542Y756540D01*
X34559Y756653D01*
X34581Y756765D01*
X34606Y756875D01*
X34634Y756985D01*
X34667Y757094D01*
X34703Y757202D01*
X34743Y757309D01*
X34787Y757414D01*
X34834Y757517D01*
X34884Y757619D01*
X34938Y757719D01*
X34996Y757817D01*
X35057Y757913D01*
X35120Y758007D01*
X35188Y758099D01*
X35258Y758189D01*
X35331Y758275D01*
X35407Y758360D01*
X35486Y758442D01*
X35568Y758521D01*
X35653Y758597D01*
X35739Y758670D01*
X35829Y758740D01*
X35921Y758808D01*
X36015Y758871D01*
X36111Y758932D01*
X36209Y758990D01*
X36309Y759044D01*
X36411Y759094D01*
X36514Y759141D01*
X36619Y759185D01*
X36726Y759225D01*
X36834Y759261D01*
X36943Y759294D01*
X37053Y759322D01*
X37163Y759347D01*
X37275Y759369D01*
X37388Y759386D01*
X37500Y759400D01*
X37614Y759409D01*
X37727Y759415D01*
X37841Y759417D01*
X37955Y759415D01*
X38068Y759409D01*
X38182Y759400D01*
X38294Y759386D01*
X38407Y759369D01*
X38519Y759347D01*
X38629Y759322D01*
X38739Y759294D01*
X38848Y759261D01*
X38956Y759225D01*
X39063Y759185D01*
X39168Y759141D01*
X39271Y759094D01*
X39373Y759044D01*
X39473Y758990D01*
X39571Y758932D01*
X39667Y758871D01*
X39761Y758808D01*
X39853Y758740D01*
X39943Y758670D01*
X40029Y758597D01*
X40114Y758521D01*
X40196Y758442D01*
X40275Y758360D01*
X40351Y758275D01*
X40424Y758189D01*
X40494Y758099D01*
X40562Y758007D01*
X40625Y757913D01*
X40686Y757817D01*
X40744Y757719D01*
X40798Y757619D01*
X40848Y757517D01*
X40895Y757414D01*
X40939Y757309D01*
X40979Y757202D01*
X41015Y757094D01*
X41048Y756985D01*
X41076Y756875D01*
X41101Y756765D01*
X41123Y756653D01*
X41140Y756540D01*
X41154Y756428D01*
X41163Y756314D01*
X41169Y756201D01*
X41171Y756087D01*
X41171Y754422D01*
X34510Y754422D01*
D11*
X231140Y734060D02*
X231140Y-68580D01*
D12*
X190759Y749427D02*
X187429Y759418D01*
X194090Y759418D02*
X190759Y749427D01*
X200874Y755255D02*
X210865Y755255D01*
X219419Y755255D02*
X223582Y753590D01*
X219419Y755254D02*
X219334Y755290D01*
X219251Y755330D01*
X219170Y755373D01*
X219090Y755420D01*
X219013Y755470D01*
X218937Y755523D01*
X218864Y755579D01*
X218794Y755639D01*
X218726Y755701D01*
X218661Y755766D01*
X218599Y755834D01*
X218539Y755905D01*
X218483Y755978D01*
X218430Y756053D01*
X218380Y756131D01*
X218334Y756210D01*
X218291Y756292D01*
X218251Y756375D01*
X218215Y756460D01*
X218183Y756546D01*
X218154Y756634D01*
X218130Y756723D01*
X218109Y756813D01*
X218092Y756903D01*
X218078Y756994D01*
X218069Y757086D01*
X218064Y757178D01*
X218062Y757270D01*
X218064Y757362D01*
X218071Y757454D01*
X218081Y757546D01*
X218095Y757637D01*
X218113Y757728D01*
X218135Y757817D01*
X218161Y757906D01*
X218191Y757993D01*
X218224Y758079D01*
X218261Y758163D01*
X218301Y758246D01*
X218345Y758327D01*
X218392Y758406D01*
X218443Y758483D01*
X218497Y758558D01*
X218554Y758631D01*
X218614Y758701D01*
X218677Y758768D01*
X218743Y758832D01*
X218811Y758894D01*
X218882Y758953D01*
X218956Y759008D01*
X219032Y759061D01*
X219110Y759110D01*
X219190Y759156D01*
X219271Y759198D01*
X219355Y759237D01*
X219440Y759272D01*
X219527Y759303D01*
X219615Y759331D01*
X219704Y759355D01*
X219794Y759375D01*
X219884Y759392D01*
X219976Y759404D01*
X220068Y759413D01*
X220160Y759417D01*
X220252Y759418D01*
X220479Y759412D01*
X220706Y759401D01*
X220933Y759384D01*
X221159Y759361D01*
X221385Y759334D01*
X221610Y759300D01*
X221834Y759262D01*
X222057Y759218D01*
X222279Y759169D01*
X222500Y759114D01*
X222719Y759054D01*
X222937Y758989D01*
X223153Y758918D01*
X223367Y758843D01*
X223580Y758762D01*
X223790Y758676D01*
X223999Y758585D01*
X223582Y753590D02*
X223667Y753554D01*
X223750Y753514D01*
X223831Y753471D01*
X223911Y753424D01*
X223988Y753374D01*
X224064Y753321D01*
X224137Y753265D01*
X224207Y753205D01*
X224275Y753143D01*
X224340Y753078D01*
X224402Y753010D01*
X224462Y752939D01*
X224518Y752866D01*
X224571Y752791D01*
X224621Y752713D01*
X224667Y752634D01*
X224710Y752552D01*
X224750Y752469D01*
X224786Y752384D01*
X224818Y752298D01*
X224847Y752210D01*
X224871Y752121D01*
X224892Y752031D01*
X224909Y751941D01*
X224923Y751850D01*
X224932Y751758D01*
X224937Y751666D01*
X224939Y751574D01*
X224937Y751482D01*
X224930Y751390D01*
X224920Y751298D01*
X224906Y751207D01*
X224888Y751116D01*
X224866Y751027D01*
X224840Y750938D01*
X224810Y750851D01*
X224777Y750765D01*
X224740Y750681D01*
X224700Y750598D01*
X224656Y750517D01*
X224609Y750438D01*
X224558Y750361D01*
X224504Y750286D01*
X224447Y750213D01*
X224387Y750143D01*
X224324Y750076D01*
X224258Y750012D01*
X224190Y749950D01*
X224119Y749891D01*
X224045Y749836D01*
X223969Y749783D01*
X223891Y749734D01*
X223811Y749688D01*
X223730Y749646D01*
X223646Y749607D01*
X223561Y749572D01*
X223474Y749541D01*
X223386Y749513D01*
X223297Y749489D01*
X223207Y749469D01*
X223117Y749452D01*
X223025Y749440D01*
X222933Y749431D01*
X222841Y749427D01*
X222749Y749426D01*
X222749Y749427D02*
X222415Y749436D01*
X222082Y749453D01*
X221749Y749477D01*
X221416Y749510D01*
X221085Y749550D01*
X220754Y749598D01*
X220425Y749654D01*
X220097Y749717D01*
X219771Y749789D01*
X219447Y749868D01*
X219124Y749954D01*
X218804Y750049D01*
X218486Y750151D01*
X218170Y750260D01*
X234242Y749427D02*
X237572Y749427D01*
X234242Y749427D02*
X234144Y749429D01*
X234046Y749435D01*
X233948Y749444D01*
X233851Y749458D01*
X233755Y749475D01*
X233659Y749496D01*
X233564Y749521D01*
X233470Y749549D01*
X233377Y749581D01*
X233286Y749617D01*
X233196Y749656D01*
X233108Y749699D01*
X233021Y749746D01*
X232937Y749795D01*
X232854Y749848D01*
X232774Y749904D01*
X232696Y749963D01*
X232620Y750026D01*
X232546Y750091D01*
X232476Y750159D01*
X232408Y750229D01*
X232343Y750303D01*
X232280Y750379D01*
X232221Y750457D01*
X232165Y750537D01*
X232112Y750620D01*
X232063Y750704D01*
X232016Y750791D01*
X231973Y750879D01*
X231934Y750969D01*
X231898Y751060D01*
X231866Y751153D01*
X231838Y751247D01*
X231813Y751342D01*
X231792Y751438D01*
X231775Y751534D01*
X231761Y751631D01*
X231752Y751729D01*
X231746Y751827D01*
X231744Y751925D01*
X231744Y756920D01*
X231746Y757018D01*
X231752Y757116D01*
X231761Y757214D01*
X231775Y757311D01*
X231792Y757407D01*
X231813Y757503D01*
X231838Y757598D01*
X231866Y757692D01*
X231898Y757785D01*
X231934Y757876D01*
X231973Y757966D01*
X232016Y758054D01*
X232063Y758141D01*
X232112Y758225D01*
X232165Y758308D01*
X232221Y758388D01*
X232280Y758467D01*
X232343Y758542D01*
X232408Y758616D01*
X232476Y758686D01*
X232546Y758754D01*
X232620Y758820D01*
X232696Y758882D01*
X232774Y758941D01*
X232854Y758997D01*
X232937Y759050D01*
X233021Y759100D01*
X233108Y759146D01*
X233196Y759189D01*
X233286Y759228D01*
X233377Y759264D01*
X233470Y759296D01*
X233564Y759324D01*
X233659Y759349D01*
X233755Y759370D01*
X233851Y759387D01*
X233948Y759401D01*
X234046Y759410D01*
X234144Y759416D01*
X234242Y759418D01*
X237572Y759418D01*
X243702Y756087D02*
X243702Y752757D01*
X243702Y756087D02*
X243704Y756201D01*
X243710Y756314D01*
X243719Y756428D01*
X243733Y756540D01*
X243750Y756653D01*
X243772Y756765D01*
X243797Y756875D01*
X243825Y756985D01*
X243858Y757094D01*
X243894Y757202D01*
X243934Y757309D01*
X243978Y757414D01*
X244025Y757517D01*
X244075Y757619D01*
X244129Y757719D01*
X244187Y757817D01*
X244248Y757913D01*
X244311Y758007D01*
X244379Y758099D01*
X244449Y758189D01*
X244522Y758275D01*
X244598Y758360D01*
X244677Y758442D01*
X244759Y758521D01*
X244844Y758597D01*
X244930Y758670D01*
X245020Y758740D01*
X245112Y758808D01*
X245206Y758871D01*
X245302Y758932D01*
X245400Y758990D01*
X245500Y759044D01*
X245602Y759094D01*
X245705Y759141D01*
X245810Y759185D01*
X245917Y759225D01*
X246025Y759261D01*
X246134Y759294D01*
X246244Y759322D01*
X246354Y759347D01*
X246466Y759369D01*
X246579Y759386D01*
X246691Y759400D01*
X246805Y759409D01*
X246918Y759415D01*
X247032Y759417D01*
X247146Y759415D01*
X247259Y759409D01*
X247373Y759400D01*
X247485Y759386D01*
X247598Y759369D01*
X247710Y759347D01*
X247820Y759322D01*
X247930Y759294D01*
X248039Y759261D01*
X248147Y759225D01*
X248254Y759185D01*
X248359Y759141D01*
X248462Y759094D01*
X248564Y759044D01*
X248664Y758990D01*
X248762Y758932D01*
X248858Y758871D01*
X248952Y758808D01*
X249044Y758740D01*
X249134Y758670D01*
X249220Y758597D01*
X249305Y758521D01*
X249387Y758442D01*
X249466Y758360D01*
X249542Y758275D01*
X249615Y758189D01*
X249685Y758099D01*
X249753Y758007D01*
X249816Y757913D01*
X249877Y757817D01*
X249935Y757719D01*
X249989Y757619D01*
X250039Y757517D01*
X250086Y757414D01*
X250130Y757309D01*
X250170Y757202D01*
X250206Y757094D01*
X250239Y756985D01*
X250267Y756875D01*
X250292Y756765D01*
X250314Y756653D01*
X250331Y756540D01*
X250345Y756428D01*
X250354Y756314D01*
X250360Y756201D01*
X250362Y756087D01*
X250362Y752757D01*
X250360Y752643D01*
X250354Y752530D01*
X250345Y752416D01*
X250331Y752304D01*
X250314Y752191D01*
X250292Y752079D01*
X250267Y751969D01*
X250239Y751859D01*
X250206Y751750D01*
X250170Y751642D01*
X250130Y751535D01*
X250086Y751430D01*
X250039Y751327D01*
X249989Y751225D01*
X249935Y751125D01*
X249877Y751027D01*
X249816Y750931D01*
X249753Y750837D01*
X249685Y750745D01*
X249615Y750655D01*
X249542Y750569D01*
X249466Y750484D01*
X249387Y750402D01*
X249305Y750323D01*
X249220Y750247D01*
X249134Y750174D01*
X249044Y750104D01*
X248952Y750036D01*
X248858Y749973D01*
X248762Y749912D01*
X248664Y749854D01*
X248564Y749800D01*
X248462Y749750D01*
X248359Y749703D01*
X248254Y749659D01*
X248147Y749619D01*
X248039Y749583D01*
X247930Y749550D01*
X247820Y749522D01*
X247710Y749497D01*
X247598Y749475D01*
X247485Y749458D01*
X247373Y749444D01*
X247259Y749435D01*
X247146Y749429D01*
X247032Y749427D01*
X246918Y749429D01*
X246805Y749435D01*
X246691Y749444D01*
X246579Y749458D01*
X246466Y749475D01*
X246354Y749497D01*
X246244Y749522D01*
X246134Y749550D01*
X246025Y749583D01*
X245917Y749619D01*
X245810Y749659D01*
X245705Y749703D01*
X245602Y749750D01*
X245500Y749800D01*
X245400Y749854D01*
X245302Y749912D01*
X245206Y749973D01*
X245112Y750036D01*
X245020Y750104D01*
X244930Y750174D01*
X244844Y750247D01*
X244759Y750323D01*
X244677Y750402D01*
X244598Y750484D01*
X244522Y750569D01*
X244449Y750655D01*
X244379Y750745D01*
X244311Y750837D01*
X244248Y750931D01*
X244187Y751027D01*
X244129Y751125D01*
X244075Y751225D01*
X244025Y751327D01*
X243978Y751430D01*
X243934Y751535D01*
X243894Y751642D01*
X243858Y751750D01*
X243825Y751859D01*
X243797Y751969D01*
X243772Y752079D01*
X243750Y752191D01*
X243733Y752304D01*
X243719Y752416D01*
X243710Y752530D01*
X243704Y752643D01*
X243702Y752757D01*
X257898Y749427D02*
X257898Y759418D01*
X262893Y759418D01*
X262893Y757753D01*
X270688Y749427D02*
X274851Y749427D01*
X270688Y749427D02*
X270590Y749429D01*
X270492Y749435D01*
X270394Y749444D01*
X270297Y749458D01*
X270201Y749475D01*
X270105Y749496D01*
X270010Y749521D01*
X269916Y749549D01*
X269823Y749581D01*
X269732Y749617D01*
X269642Y749656D01*
X269554Y749699D01*
X269467Y749746D01*
X269383Y749795D01*
X269300Y749848D01*
X269220Y749904D01*
X269142Y749963D01*
X269066Y750026D01*
X268992Y750091D01*
X268922Y750159D01*
X268854Y750229D01*
X268789Y750303D01*
X268726Y750379D01*
X268667Y750457D01*
X268611Y750537D01*
X268558Y750620D01*
X268509Y750704D01*
X268462Y750791D01*
X268419Y750879D01*
X268380Y750969D01*
X268344Y751060D01*
X268312Y751153D01*
X268284Y751247D01*
X268259Y751342D01*
X268238Y751438D01*
X268221Y751534D01*
X268207Y751631D01*
X268198Y751729D01*
X268192Y751827D01*
X268190Y751925D01*
X268190Y756087D01*
X268191Y756087D02*
X268193Y756201D01*
X268199Y756314D01*
X268208Y756428D01*
X268222Y756540D01*
X268239Y756653D01*
X268261Y756765D01*
X268286Y756875D01*
X268314Y756985D01*
X268347Y757094D01*
X268383Y757202D01*
X268423Y757309D01*
X268467Y757414D01*
X268514Y757517D01*
X268564Y757619D01*
X268618Y757719D01*
X268676Y757817D01*
X268737Y757913D01*
X268800Y758007D01*
X268868Y758099D01*
X268938Y758189D01*
X269011Y758275D01*
X269087Y758360D01*
X269166Y758442D01*
X269248Y758521D01*
X269333Y758597D01*
X269419Y758670D01*
X269509Y758740D01*
X269601Y758808D01*
X269695Y758871D01*
X269791Y758932D01*
X269889Y758990D01*
X269989Y759044D01*
X270091Y759094D01*
X270194Y759141D01*
X270299Y759185D01*
X270406Y759225D01*
X270514Y759261D01*
X270623Y759294D01*
X270733Y759322D01*
X270843Y759347D01*
X270955Y759369D01*
X271068Y759386D01*
X271180Y759400D01*
X271294Y759409D01*
X271407Y759415D01*
X271521Y759417D01*
X271635Y759415D01*
X271748Y759409D01*
X271862Y759400D01*
X271974Y759386D01*
X272087Y759369D01*
X272199Y759347D01*
X272309Y759322D01*
X272419Y759294D01*
X272528Y759261D01*
X272636Y759225D01*
X272743Y759185D01*
X272848Y759141D01*
X272951Y759094D01*
X273053Y759044D01*
X273153Y758990D01*
X273251Y758932D01*
X273347Y758871D01*
X273441Y758808D01*
X273533Y758740D01*
X273623Y758670D01*
X273709Y758597D01*
X273794Y758521D01*
X273876Y758442D01*
X273955Y758360D01*
X274031Y758275D01*
X274104Y758189D01*
X274174Y758099D01*
X274242Y758007D01*
X274305Y757913D01*
X274366Y757817D01*
X274424Y757719D01*
X274478Y757619D01*
X274528Y757517D01*
X274575Y757414D01*
X274619Y757309D01*
X274659Y757202D01*
X274695Y757094D01*
X274728Y756985D01*
X274756Y756875D01*
X274781Y756765D01*
X274803Y756653D01*
X274820Y756540D01*
X274834Y756428D01*
X274843Y756314D01*
X274849Y756201D01*
X274851Y756087D01*
X274851Y754422D01*
X268190Y754422D01*
D11*
X464820Y734060D02*
X464820Y-68580D01*
D12*
X424439Y749427D02*
X421109Y759418D01*
X427770Y759418D02*
X424439Y749427D01*
X434554Y755255D02*
X444545Y755255D01*
X453099Y755255D02*
X457262Y753590D01*
X453099Y755254D02*
X453014Y755290D01*
X452931Y755330D01*
X452850Y755373D01*
X452770Y755420D01*
X452693Y755470D01*
X452617Y755523D01*
X452544Y755579D01*
X452474Y755639D01*
X452406Y755701D01*
X452341Y755766D01*
X452279Y755834D01*
X452219Y755905D01*
X452163Y755978D01*
X452110Y756053D01*
X452060Y756131D01*
X452014Y756210D01*
X451971Y756292D01*
X451931Y756375D01*
X451895Y756460D01*
X451863Y756546D01*
X451834Y756634D01*
X451810Y756723D01*
X451789Y756813D01*
X451772Y756903D01*
X451758Y756994D01*
X451749Y757086D01*
X451744Y757178D01*
X451742Y757270D01*
X451744Y757362D01*
X451751Y757454D01*
X451761Y757546D01*
X451775Y757637D01*
X451793Y757728D01*
X451815Y757817D01*
X451841Y757906D01*
X451871Y757993D01*
X451904Y758079D01*
X451941Y758163D01*
X451981Y758246D01*
X452025Y758327D01*
X452072Y758406D01*
X452123Y758483D01*
X452177Y758558D01*
X452234Y758631D01*
X452294Y758701D01*
X452357Y758768D01*
X452423Y758832D01*
X452491Y758894D01*
X452562Y758953D01*
X452636Y759008D01*
X452712Y759061D01*
X452790Y759110D01*
X452870Y759156D01*
X452951Y759198D01*
X453035Y759237D01*
X453120Y759272D01*
X453207Y759303D01*
X453295Y759331D01*
X453384Y759355D01*
X453474Y759375D01*
X453564Y759392D01*
X453656Y759404D01*
X453748Y759413D01*
X453840Y759417D01*
X453932Y759418D01*
X454159Y759412D01*
X454386Y759401D01*
X454613Y759384D01*
X454839Y759361D01*
X455065Y759334D01*
X455290Y759300D01*
X455514Y759262D01*
X455737Y759218D01*
X455959Y759169D01*
X456180Y759114D01*
X456399Y759054D01*
X456617Y758989D01*
X456833Y758918D01*
X457047Y758843D01*
X457260Y758762D01*
X457470Y758676D01*
X457679Y758585D01*
X457262Y753590D02*
X457347Y753554D01*
X457430Y753514D01*
X457511Y753471D01*
X457591Y753424D01*
X457668Y753374D01*
X457744Y753321D01*
X457817Y753265D01*
X457887Y753205D01*
X457955Y753143D01*
X458020Y753078D01*
X458082Y753010D01*
X458142Y752939D01*
X458198Y752866D01*
X458251Y752791D01*
X458301Y752713D01*
X458347Y752634D01*
X458390Y752552D01*
X458430Y752469D01*
X458466Y752384D01*
X458498Y752298D01*
X458527Y752210D01*
X458551Y752121D01*
X458572Y752031D01*
X458589Y751941D01*
X458603Y751850D01*
X458612Y751758D01*
X458617Y751666D01*
X458619Y751574D01*
X458617Y751482D01*
X458610Y751390D01*
X458600Y751298D01*
X458586Y751207D01*
X458568Y751116D01*
X458546Y751027D01*
X458520Y750938D01*
X458490Y750851D01*
X458457Y750765D01*
X458420Y750681D01*
X458380Y750598D01*
X458336Y750517D01*
X458289Y750438D01*
X458238Y750361D01*
X458184Y750286D01*
X458127Y750213D01*
X458067Y750143D01*
X458004Y750076D01*
X457938Y750012D01*
X457870Y749950D01*
X457799Y749891D01*
X457725Y749836D01*
X457649Y749783D01*
X457571Y749734D01*
X457491Y749688D01*
X457410Y749646D01*
X457326Y749607D01*
X457241Y749572D01*
X457154Y749541D01*
X457066Y749513D01*
X456977Y749489D01*
X456887Y749469D01*
X456797Y749452D01*
X456705Y749440D01*
X456613Y749431D01*
X456521Y749427D01*
X456429Y749426D01*
X456429Y749427D02*
X456095Y749436D01*
X455762Y749453D01*
X455429Y749477D01*
X455096Y749510D01*
X454765Y749550D01*
X454434Y749598D01*
X454105Y749654D01*
X453777Y749717D01*
X453451Y749789D01*
X453127Y749868D01*
X452804Y749954D01*
X452484Y750049D01*
X452166Y750151D01*
X451850Y750260D01*
X467922Y749427D02*
X471252Y749427D01*
X467922Y749427D02*
X467824Y749429D01*
X467726Y749435D01*
X467628Y749444D01*
X467531Y749458D01*
X467435Y749475D01*
X467339Y749496D01*
X467244Y749521D01*
X467150Y749549D01*
X467057Y749581D01*
X466966Y749617D01*
X466876Y749656D01*
X466788Y749699D01*
X466701Y749746D01*
X466617Y749795D01*
X466534Y749848D01*
X466454Y749904D01*
X466376Y749963D01*
X466300Y750026D01*
X466226Y750091D01*
X466156Y750159D01*
X466088Y750229D01*
X466023Y750303D01*
X465960Y750379D01*
X465901Y750457D01*
X465845Y750537D01*
X465792Y750620D01*
X465743Y750704D01*
X465696Y750791D01*
X465653Y750879D01*
X465614Y750969D01*
X465578Y751060D01*
X465546Y751153D01*
X465518Y751247D01*
X465493Y751342D01*
X465472Y751438D01*
X465455Y751534D01*
X465441Y751631D01*
X465432Y751729D01*
X465426Y751827D01*
X465424Y751925D01*
X465424Y756920D01*
X465426Y757018D01*
X465432Y757116D01*
X465441Y757214D01*
X465455Y757311D01*
X465472Y757407D01*
X465493Y757503D01*
X465518Y757598D01*
X465546Y757692D01*
X465578Y757785D01*
X465614Y757876D01*
X465653Y757966D01*
X465696Y758054D01*
X465743Y758141D01*
X465792Y758225D01*
X465845Y758308D01*
X465901Y758388D01*
X465960Y758467D01*
X466023Y758542D01*
X466088Y758616D01*
X466156Y758686D01*
X466226Y758754D01*
X466300Y758820D01*
X466376Y758882D01*
X466454Y758941D01*
X466534Y758997D01*
X466617Y759050D01*
X466701Y759100D01*
X466788Y759146D01*
X466876Y759189D01*
X466966Y759228D01*
X467057Y759264D01*
X467150Y759296D01*
X467244Y759324D01*
X467339Y759349D01*
X467435Y759370D01*
X467531Y759387D01*
X467628Y759401D01*
X467726Y759410D01*
X467824Y759416D01*
X467922Y759418D01*
X471252Y759418D01*
X477382Y756087D02*
X477382Y752757D01*
X477382Y756087D02*
X477384Y756201D01*
X477390Y756314D01*
X477399Y756428D01*
X477413Y756540D01*
X477430Y756653D01*
X477452Y756765D01*
X477477Y756875D01*
X477505Y756985D01*
X477538Y757094D01*
X477574Y757202D01*
X477614Y757309D01*
X477658Y757414D01*
X477705Y757517D01*
X477755Y757619D01*
X477809Y757719D01*
X477867Y757817D01*
X477928Y757913D01*
X477991Y758007D01*
X478059Y758099D01*
X478129Y758189D01*
X478202Y758275D01*
X478278Y758360D01*
X478357Y758442D01*
X478439Y758521D01*
X478524Y758597D01*
X478610Y758670D01*
X478700Y758740D01*
X478792Y758808D01*
X478886Y758871D01*
X478982Y758932D01*
X479080Y758990D01*
X479180Y759044D01*
X479282Y759094D01*
X479385Y759141D01*
X479490Y759185D01*
X479597Y759225D01*
X479705Y759261D01*
X479814Y759294D01*
X479924Y759322D01*
X480034Y759347D01*
X480146Y759369D01*
X480259Y759386D01*
X480371Y759400D01*
X480485Y759409D01*
X480598Y759415D01*
X480712Y759417D01*
X480826Y759415D01*
X480939Y759409D01*
X481053Y759400D01*
X481165Y759386D01*
X481278Y759369D01*
X481390Y759347D01*
X481500Y759322D01*
X481610Y759294D01*
X481719Y759261D01*
X481827Y759225D01*
X481934Y759185D01*
X482039Y759141D01*
X482142Y759094D01*
X482244Y759044D01*
X482344Y758990D01*
X482442Y758932D01*
X482538Y758871D01*
X482632Y758808D01*
X482724Y758740D01*
X482814Y758670D01*
X482900Y758597D01*
X482985Y758521D01*
X483067Y758442D01*
X483146Y758360D01*
X483222Y758275D01*
X483295Y758189D01*
X483365Y758099D01*
X483433Y758007D01*
X483496Y757913D01*
X483557Y757817D01*
X483615Y757719D01*
X483669Y757619D01*
X483719Y757517D01*
X483766Y757414D01*
X483810Y757309D01*
X483850Y757202D01*
X483886Y757094D01*
X483919Y756985D01*
X483947Y756875D01*
X483972Y756765D01*
X483994Y756653D01*
X484011Y756540D01*
X484025Y756428D01*
X484034Y756314D01*
X484040Y756201D01*
X484042Y756087D01*
X484042Y752757D01*
X484040Y752643D01*
X484034Y752530D01*
X484025Y752416D01*
X484011Y752304D01*
X483994Y752191D01*
X483972Y752079D01*
X483947Y751969D01*
X483919Y751859D01*
X483886Y751750D01*
X483850Y751642D01*
X483810Y751535D01*
X483766Y751430D01*
X483719Y751327D01*
X483669Y751225D01*
X483615Y751125D01*
X483557Y751027D01*
X483496Y750931D01*
X483433Y750837D01*
X483365Y750745D01*
X483295Y750655D01*
X483222Y750569D01*
X483146Y750484D01*
X483067Y750402D01*
X482985Y750323D01*
X482900Y750247D01*
X482814Y750174D01*
X482724Y750104D01*
X482632Y750036D01*
X482538Y749973D01*
X482442Y749912D01*
X482344Y749854D01*
X482244Y749800D01*
X482142Y749750D01*
X482039Y749703D01*
X481934Y749659D01*
X481827Y749619D01*
X481719Y749583D01*
X481610Y749550D01*
X481500Y749522D01*
X481390Y749497D01*
X481278Y749475D01*
X481165Y749458D01*
X481053Y749444D01*
X480939Y749435D01*
X480826Y749429D01*
X480712Y749427D01*
X480598Y749429D01*
X480485Y749435D01*
X480371Y749444D01*
X480259Y749458D01*
X480146Y749475D01*
X480034Y749497D01*
X479924Y749522D01*
X479814Y749550D01*
X479705Y749583D01*
X479597Y749619D01*
X479490Y749659D01*
X479385Y749703D01*
X479282Y749750D01*
X479180Y749800D01*
X479080Y749854D01*
X478982Y749912D01*
X478886Y749973D01*
X478792Y750036D01*
X478700Y750104D01*
X478610Y750174D01*
X478524Y750247D01*
X478439Y750323D01*
X478357Y750402D01*
X478278Y750484D01*
X478202Y750569D01*
X478129Y750655D01*
X478059Y750745D01*
X477991Y750837D01*
X477928Y750931D01*
X477867Y751027D01*
X477809Y751125D01*
X477755Y751225D01*
X477705Y751327D01*
X477658Y751430D01*
X477614Y751535D01*
X477574Y751642D01*
X477538Y751750D01*
X477505Y751859D01*
X477477Y751969D01*
X477452Y752079D01*
X477430Y752191D01*
X477413Y752304D01*
X477399Y752416D01*
X477390Y752530D01*
X477384Y752643D01*
X477382Y752757D01*
X491578Y749427D02*
X491578Y759418D01*
X496573Y759418D01*
X496573Y757753D01*
X504368Y749427D02*
X508531Y749427D01*
X504368Y749427D02*
X504270Y749429D01*
X504172Y749435D01*
X504074Y749444D01*
X503977Y749458D01*
X503881Y749475D01*
X503785Y749496D01*
X503690Y749521D01*
X503596Y749549D01*
X503503Y749581D01*
X503412Y749617D01*
X503322Y749656D01*
X503234Y749699D01*
X503147Y749746D01*
X503063Y749795D01*
X502980Y749848D01*
X502900Y749904D01*
X502822Y749963D01*
X502746Y750026D01*
X502672Y750091D01*
X502602Y750159D01*
X502534Y750229D01*
X502469Y750303D01*
X502406Y750379D01*
X502347Y750457D01*
X502291Y750537D01*
X502238Y750620D01*
X502189Y750704D01*
X502142Y750791D01*
X502099Y750879D01*
X502060Y750969D01*
X502024Y751060D01*
X501992Y751153D01*
X501964Y751247D01*
X501939Y751342D01*
X501918Y751438D01*
X501901Y751534D01*
X501887Y751631D01*
X501878Y751729D01*
X501872Y751827D01*
X501870Y751925D01*
X501870Y756087D01*
X501871Y756087D02*
X501873Y756201D01*
X501879Y756314D01*
X501888Y756428D01*
X501902Y756540D01*
X501919Y756653D01*
X501941Y756765D01*
X501966Y756875D01*
X501994Y756985D01*
X502027Y757094D01*
X502063Y757202D01*
X502103Y757309D01*
X502147Y757414D01*
X502194Y757517D01*
X502244Y757619D01*
X502298Y757719D01*
X502356Y757817D01*
X502417Y757913D01*
X502480Y758007D01*
X502548Y758099D01*
X502618Y758189D01*
X502691Y758275D01*
X502767Y758360D01*
X502846Y758442D01*
X502928Y758521D01*
X503013Y758597D01*
X503099Y758670D01*
X503189Y758740D01*
X503281Y758808D01*
X503375Y758871D01*
X503471Y758932D01*
X503569Y758990D01*
X503669Y759044D01*
X503771Y759094D01*
X503874Y759141D01*
X503979Y759185D01*
X504086Y759225D01*
X504194Y759261D01*
X504303Y759294D01*
X504413Y759322D01*
X504523Y759347D01*
X504635Y759369D01*
X504748Y759386D01*
X504860Y759400D01*
X504974Y759409D01*
X505087Y759415D01*
X505201Y759417D01*
X505315Y759415D01*
X505428Y759409D01*
X505542Y759400D01*
X505654Y759386D01*
X505767Y759369D01*
X505879Y759347D01*
X505989Y759322D01*
X506099Y759294D01*
X506208Y759261D01*
X506316Y759225D01*
X506423Y759185D01*
X506528Y759141D01*
X506631Y759094D01*
X506733Y759044D01*
X506833Y758990D01*
X506931Y758932D01*
X507027Y758871D01*
X507121Y758808D01*
X507213Y758740D01*
X507303Y758670D01*
X507389Y758597D01*
X507474Y758521D01*
X507556Y758442D01*
X507635Y758360D01*
X507711Y758275D01*
X507784Y758189D01*
X507854Y758099D01*
X507922Y758007D01*
X507985Y757913D01*
X508046Y757817D01*
X508104Y757719D01*
X508158Y757619D01*
X508208Y757517D01*
X508255Y757414D01*
X508299Y757309D01*
X508339Y757202D01*
X508375Y757094D01*
X508408Y756985D01*
X508436Y756875D01*
X508461Y756765D01*
X508483Y756653D01*
X508500Y756540D01*
X508514Y756428D01*
X508523Y756314D01*
X508529Y756201D01*
X508531Y756087D01*
X508531Y754422D01*
X501870Y754422D01*
D11*
X698500Y734060D02*
X698500Y-68580D01*
D12*
X658119Y749427D02*
X654789Y759418D01*
X661450Y759418D02*
X658119Y749427D01*
X668234Y755255D02*
X678225Y755255D01*
X686779Y755255D02*
X690942Y753590D01*
X686779Y755254D02*
X686694Y755290D01*
X686611Y755330D01*
X686530Y755373D01*
X686450Y755420D01*
X686373Y755470D01*
X686297Y755523D01*
X686224Y755579D01*
X686154Y755639D01*
X686086Y755701D01*
X686021Y755766D01*
X685959Y755834D01*
X685899Y755905D01*
X685843Y755978D01*
X685790Y756053D01*
X685740Y756131D01*
X685694Y756210D01*
X685651Y756292D01*
X685611Y756375D01*
X685575Y756460D01*
X685543Y756546D01*
X685514Y756634D01*
X685490Y756723D01*
X685469Y756813D01*
X685452Y756903D01*
X685438Y756994D01*
X685429Y757086D01*
X685424Y757178D01*
X685422Y757270D01*
X685424Y757362D01*
X685431Y757454D01*
X685441Y757546D01*
X685455Y757637D01*
X685473Y757728D01*
X685495Y757817D01*
X685521Y757906D01*
X685551Y757993D01*
X685584Y758079D01*
X685621Y758163D01*
X685661Y758246D01*
X685705Y758327D01*
X685752Y758406D01*
X685803Y758483D01*
X685857Y758558D01*
X685914Y758631D01*
X685974Y758701D01*
X686037Y758768D01*
X686103Y758832D01*
X686171Y758894D01*
X686242Y758953D01*
X686316Y759008D01*
X686392Y759061D01*
X686470Y759110D01*
X686550Y759156D01*
X686631Y759198D01*
X686715Y759237D01*
X686800Y759272D01*
X686887Y759303D01*
X686975Y759331D01*
X687064Y759355D01*
X687154Y759375D01*
X687244Y759392D01*
X687336Y759404D01*
X687428Y759413D01*
X687520Y759417D01*
X687612Y759418D01*
X687839Y759412D01*
X688066Y759401D01*
X688293Y759384D01*
X688519Y759361D01*
X688745Y759334D01*
X688970Y759300D01*
X689194Y759262D01*
X689417Y759218D01*
X689639Y759169D01*
X689860Y759114D01*
X690079Y759054D01*
X690297Y758989D01*
X690513Y758918D01*
X690727Y758843D01*
X690940Y758762D01*
X691150Y758676D01*
X691359Y758585D01*
X690942Y753590D02*
X691027Y753554D01*
X691110Y753514D01*
X691191Y753471D01*
X691271Y753424D01*
X691348Y753374D01*
X691424Y753321D01*
X691497Y753265D01*
X691567Y753205D01*
X691635Y753143D01*
X691700Y753078D01*
X691762Y753010D01*
X691822Y752939D01*
X691878Y752866D01*
X691931Y752791D01*
X691981Y752713D01*
X692027Y752634D01*
X692070Y752552D01*
X692110Y752469D01*
X692146Y752384D01*
X692178Y752298D01*
X692207Y752210D01*
X692231Y752121D01*
X692252Y752031D01*
X692269Y751941D01*
X692283Y751850D01*
X692292Y751758D01*
X692297Y751666D01*
X692299Y751574D01*
X692297Y751482D01*
X692290Y751390D01*
X692280Y751298D01*
X692266Y751207D01*
X692248Y751116D01*
X692226Y751027D01*
X692200Y750938D01*
X692170Y750851D01*
X692137Y750765D01*
X692100Y750681D01*
X692060Y750598D01*
X692016Y750517D01*
X691969Y750438D01*
X691918Y750361D01*
X691864Y750286D01*
X691807Y750213D01*
X691747Y750143D01*
X691684Y750076D01*
X691618Y750012D01*
X691550Y749950D01*
X691479Y749891D01*
X691405Y749836D01*
X691329Y749783D01*
X691251Y749734D01*
X691171Y749688D01*
X691090Y749646D01*
X691006Y749607D01*
X690921Y749572D01*
X690834Y749541D01*
X690746Y749513D01*
X690657Y749489D01*
X690567Y749469D01*
X690477Y749452D01*
X690385Y749440D01*
X690293Y749431D01*
X690201Y749427D01*
X690109Y749426D01*
X690109Y749427D02*
X689775Y749436D01*
X689442Y749453D01*
X689109Y749477D01*
X688776Y749510D01*
X688445Y749550D01*
X688114Y749598D01*
X687785Y749654D01*
X687457Y749717D01*
X687131Y749789D01*
X686807Y749868D01*
X686484Y749954D01*
X686164Y750049D01*
X685846Y750151D01*
X685530Y750260D01*
X701602Y749427D02*
X704932Y749427D01*
X701602Y749427D02*
X701504Y749429D01*
X701406Y749435D01*
X701308Y749444D01*
X701211Y749458D01*
X701115Y749475D01*
X701019Y749496D01*
X700924Y749521D01*
X700830Y749549D01*
X700737Y749581D01*
X700646Y749617D01*
X700556Y749656D01*
X700468Y749699D01*
X700381Y749746D01*
X700297Y749795D01*
X700214Y749848D01*
X700134Y749904D01*
X700056Y749963D01*
X699980Y750026D01*
X699906Y750091D01*
X699836Y750159D01*
X699768Y750229D01*
X699703Y750303D01*
X699640Y750379D01*
X699581Y750457D01*
X699525Y750537D01*
X699472Y750620D01*
X699423Y750704D01*
X699376Y750791D01*
X699333Y750879D01*
X699294Y750969D01*
X699258Y751060D01*
X699226Y751153D01*
X699198Y751247D01*
X699173Y751342D01*
X699152Y751438D01*
X699135Y751534D01*
X699121Y751631D01*
X699112Y751729D01*
X699106Y751827D01*
X699104Y751925D01*
X699104Y756920D01*
X699106Y757018D01*
X699112Y757116D01*
X699121Y757214D01*
X699135Y757311D01*
X699152Y757407D01*
X699173Y757503D01*
X699198Y757598D01*
X699226Y757692D01*
X699258Y757785D01*
X699294Y757876D01*
X699333Y757966D01*
X699376Y758054D01*
X699423Y758141D01*
X699472Y758225D01*
X699525Y758308D01*
X699581Y758388D01*
X699640Y758467D01*
X699703Y758542D01*
X699768Y758616D01*
X699836Y758686D01*
X699906Y758754D01*
X699980Y758820D01*
X700056Y758882D01*
X700134Y758941D01*
X700214Y758997D01*
X700297Y759050D01*
X700381Y759100D01*
X700468Y759146D01*
X700556Y759189D01*
X700646Y759228D01*
X700737Y759264D01*
X700830Y759296D01*
X700924Y759324D01*
X701019Y759349D01*
X701115Y759370D01*
X701211Y759387D01*
X701308Y759401D01*
X701406Y759410D01*
X701504Y759416D01*
X701602Y759418D01*
X704932Y759418D01*
X711062Y756087D02*
X711062Y752757D01*
X711062Y756087D02*
X711064Y756201D01*
X711070Y756314D01*
X711079Y756428D01*
X711093Y756540D01*
X711110Y756653D01*
X711132Y756765D01*
X711157Y756875D01*
X711185Y756985D01*
X711218Y757094D01*
X711254Y757202D01*
X711294Y757309D01*
X711338Y757414D01*
X711385Y757517D01*
X711435Y757619D01*
X711489Y757719D01*
X711547Y757817D01*
X711608Y757913D01*
X711671Y758007D01*
X711739Y758099D01*
X711809Y758189D01*
X711882Y758275D01*
X711958Y758360D01*
X712037Y758442D01*
X712119Y758521D01*
X712204Y758597D01*
X712290Y758670D01*
X712380Y758740D01*
X712472Y758808D01*
X712566Y758871D01*
X712662Y758932D01*
X712760Y758990D01*
X712860Y759044D01*
X712962Y759094D01*
X713065Y759141D01*
X713170Y759185D01*
X713277Y759225D01*
X713385Y759261D01*
X713494Y759294D01*
X713604Y759322D01*
X713714Y759347D01*
X713826Y759369D01*
X713939Y759386D01*
X714051Y759400D01*
X714165Y759409D01*
X714278Y759415D01*
X714392Y759417D01*
X714506Y759415D01*
X714619Y759409D01*
X714733Y759400D01*
X714845Y759386D01*
X714958Y759369D01*
X715070Y759347D01*
X715180Y759322D01*
X715290Y759294D01*
X715399Y759261D01*
X715507Y759225D01*
X715614Y759185D01*
X715719Y759141D01*
X715822Y759094D01*
X715924Y759044D01*
X716024Y758990D01*
X716122Y758932D01*
X716218Y758871D01*
X716312Y758808D01*
X716404Y758740D01*
X716494Y758670D01*
X716580Y758597D01*
X716665Y758521D01*
X716747Y758442D01*
X716826Y758360D01*
X716902Y758275D01*
X716975Y758189D01*
X717045Y758099D01*
X717113Y758007D01*
X717176Y757913D01*
X717237Y757817D01*
X717295Y757719D01*
X717349Y757619D01*
X717399Y757517D01*
X717446Y757414D01*
X717490Y757309D01*
X717530Y757202D01*
X717566Y757094D01*
X717599Y756985D01*
X717627Y756875D01*
X717652Y756765D01*
X717674Y756653D01*
X717691Y756540D01*
X717705Y756428D01*
X717714Y756314D01*
X717720Y756201D01*
X717722Y756087D01*
X717722Y752757D01*
X717720Y752643D01*
X717714Y752530D01*
X717705Y752416D01*
X717691Y752304D01*
X717674Y752191D01*
X717652Y752079D01*
X717627Y751969D01*
X717599Y751859D01*
X717566Y751750D01*
X717530Y751642D01*
X717490Y751535D01*
X717446Y751430D01*
X717399Y751327D01*
X717349Y751225D01*
X717295Y751125D01*
X717237Y751027D01*
X717176Y750931D01*
X717113Y750837D01*
X717045Y750745D01*
X716975Y750655D01*
X716902Y750569D01*
X716826Y750484D01*
X716747Y750402D01*
X716665Y750323D01*
X716580Y750247D01*
X716494Y750174D01*
X716404Y750104D01*
X716312Y750036D01*
X716218Y749973D01*
X716122Y749912D01*
X716024Y749854D01*
X715924Y749800D01*
X715822Y749750D01*
X715719Y749703D01*
X715614Y749659D01*
X715507Y749619D01*
X715399Y749583D01*
X715290Y749550D01*
X715180Y749522D01*
X715070Y749497D01*
X714958Y749475D01*
X714845Y749458D01*
X714733Y749444D01*
X714619Y749435D01*
X714506Y749429D01*
X714392Y749427D01*
X714278Y749429D01*
X714165Y749435D01*
X714051Y749444D01*
X713939Y749458D01*
X713826Y749475D01*
X713714Y749497D01*
X713604Y749522D01*
X713494Y749550D01*
X713385Y749583D01*
X713277Y749619D01*
X713170Y749659D01*
X713065Y749703D01*
X712962Y749750D01*
X712860Y749800D01*
X712760Y749854D01*
X712662Y749912D01*
X712566Y749973D01*
X712472Y750036D01*
X712380Y750104D01*
X712290Y750174D01*
X712204Y750247D01*
X712119Y750323D01*
X712037Y750402D01*
X711958Y750484D01*
X711882Y750569D01*
X711809Y750655D01*
X711739Y750745D01*
X711671Y750837D01*
X711608Y750931D01*
X711547Y751027D01*
X711489Y751125D01*
X711435Y751225D01*
X711385Y751327D01*
X711338Y751430D01*
X711294Y751535D01*
X711254Y751642D01*
X711218Y751750D01*
X711185Y751859D01*
X711157Y751969D01*
X711132Y752079D01*
X711110Y752191D01*
X711093Y752304D01*
X711079Y752416D01*
X711070Y752530D01*
X711064Y752643D01*
X711062Y752757D01*
X725258Y749427D02*
X725258Y759418D01*
X730253Y759418D01*
X730253Y757753D01*
X738048Y749427D02*
X742211Y749427D01*
X738048Y749427D02*
X737950Y749429D01*
X737852Y749435D01*
X737754Y749444D01*
X737657Y749458D01*
X737561Y749475D01*
X737465Y749496D01*
X737370Y749521D01*
X737276Y749549D01*
X737183Y749581D01*
X737092Y749617D01*
X737002Y749656D01*
X736914Y749699D01*
X736827Y749746D01*
X736743Y749795D01*
X736660Y749848D01*
X736580Y749904D01*
X736502Y749963D01*
X736426Y750026D01*
X736352Y750091D01*
X736282Y750159D01*
X736214Y750229D01*
X736149Y750303D01*
X736086Y750379D01*
X736027Y750457D01*
X735971Y750537D01*
X735918Y750620D01*
X735869Y750704D01*
X735822Y750791D01*
X735779Y750879D01*
X735740Y750969D01*
X735704Y751060D01*
X735672Y751153D01*
X735644Y751247D01*
X735619Y751342D01*
X735598Y751438D01*
X735581Y751534D01*
X735567Y751631D01*
X735558Y751729D01*
X735552Y751827D01*
X735550Y751925D01*
X735550Y756087D01*
X735551Y756087D02*
X735553Y756201D01*
X735559Y756314D01*
X735568Y756428D01*
X735582Y756540D01*
X735599Y756653D01*
X735621Y756765D01*
X735646Y756875D01*
X735674Y756985D01*
X735707Y757094D01*
X735743Y757202D01*
X735783Y757309D01*
X735827Y757414D01*
X735874Y757517D01*
X735924Y757619D01*
X735978Y757719D01*
X736036Y757817D01*
X736097Y757913D01*
X736160Y758007D01*
X736228Y758099D01*
X736298Y758189D01*
X736371Y758275D01*
X736447Y758360D01*
X736526Y758442D01*
X736608Y758521D01*
X736693Y758597D01*
X736779Y758670D01*
X736869Y758740D01*
X736961Y758808D01*
X737055Y758871D01*
X737151Y758932D01*
X737249Y758990D01*
X737349Y759044D01*
X737451Y759094D01*
X737554Y759141D01*
X737659Y759185D01*
X737766Y759225D01*
X737874Y759261D01*
X737983Y759294D01*
X738093Y759322D01*
X738203Y759347D01*
X738315Y759369D01*
X738428Y759386D01*
X738540Y759400D01*
X738654Y759409D01*
X738767Y759415D01*
X738881Y759417D01*
X738995Y759415D01*
X739108Y759409D01*
X739222Y759400D01*
X739334Y759386D01*
X739447Y759369D01*
X739559Y759347D01*
X739669Y759322D01*
X739779Y759294D01*
X739888Y759261D01*
X739996Y759225D01*
X740103Y759185D01*
X740208Y759141D01*
X740311Y759094D01*
X740413Y759044D01*
X740513Y758990D01*
X740611Y758932D01*
X740707Y758871D01*
X740801Y758808D01*
X740893Y758740D01*
X740983Y758670D01*
X741069Y758597D01*
X741154Y758521D01*
X741236Y758442D01*
X741315Y758360D01*
X741391Y758275D01*
X741464Y758189D01*
X741534Y758099D01*
X741602Y758007D01*
X741665Y757913D01*
X741726Y757817D01*
X741784Y757719D01*
X741838Y757619D01*
X741888Y757517D01*
X741935Y757414D01*
X741979Y757309D01*
X742019Y757202D01*
X742055Y757094D01*
X742088Y756985D01*
X742116Y756875D01*
X742141Y756765D01*
X742163Y756653D01*
X742180Y756540D01*
X742194Y756428D01*
X742203Y756314D01*
X742209Y756201D01*
X742211Y756087D01*
X742211Y754422D01*
X735550Y754422D01*
D11*
X828040Y-2540D02*
X-68580Y-2540D01*
D12*
X860529Y-42D02*
X863859Y-10033D01*
X867190Y-42D01*
X873974Y-4205D02*
X883965Y-4205D01*
X892519Y-4205D02*
X896682Y-5870D01*
X892519Y-4206D02*
X892434Y-4170D01*
X892351Y-4130D01*
X892270Y-4087D01*
X892190Y-4040D01*
X892113Y-3990D01*
X892037Y-3937D01*
X891964Y-3881D01*
X891894Y-3821D01*
X891826Y-3759D01*
X891761Y-3694D01*
X891699Y-3626D01*
X891639Y-3555D01*
X891583Y-3482D01*
X891530Y-3407D01*
X891480Y-3329D01*
X891434Y-3250D01*
X891391Y-3168D01*
X891351Y-3085D01*
X891315Y-3000D01*
X891283Y-2914D01*
X891254Y-2826D01*
X891230Y-2737D01*
X891209Y-2647D01*
X891192Y-2557D01*
X891178Y-2466D01*
X891169Y-2374D01*
X891164Y-2282D01*
X891162Y-2190D01*
X891164Y-2098D01*
X891171Y-2006D01*
X891181Y-1914D01*
X891195Y-1823D01*
X891213Y-1732D01*
X891235Y-1643D01*
X891261Y-1554D01*
X891291Y-1467D01*
X891324Y-1381D01*
X891361Y-1297D01*
X891401Y-1214D01*
X891445Y-1133D01*
X891492Y-1054D01*
X891543Y-977D01*
X891597Y-902D01*
X891654Y-829D01*
X891714Y-759D01*
X891777Y-692D01*
X891843Y-628D01*
X891911Y-566D01*
X891982Y-507D01*
X892056Y-452D01*
X892132Y-399D01*
X892210Y-350D01*
X892290Y-304D01*
X892371Y-262D01*
X892455Y-223D01*
X892540Y-188D01*
X892627Y-157D01*
X892715Y-129D01*
X892804Y-105D01*
X892894Y-85D01*
X892984Y-68D01*
X893076Y-56D01*
X893168Y-47D01*
X893260Y-43D01*
X893352Y-42D01*
X893579Y-48D01*
X893806Y-59D01*
X894033Y-76D01*
X894259Y-99D01*
X894485Y-126D01*
X894710Y-160D01*
X894934Y-198D01*
X895157Y-242D01*
X895379Y-291D01*
X895600Y-346D01*
X895819Y-406D01*
X896037Y-471D01*
X896253Y-542D01*
X896467Y-617D01*
X896680Y-698D01*
X896890Y-784D01*
X897099Y-875D01*
X896682Y-5870D02*
X896767Y-5906D01*
X896850Y-5946D01*
X896931Y-5989D01*
X897011Y-6036D01*
X897088Y-6086D01*
X897164Y-6139D01*
X897237Y-6195D01*
X897307Y-6255D01*
X897375Y-6317D01*
X897440Y-6382D01*
X897502Y-6450D01*
X897562Y-6521D01*
X897618Y-6594D01*
X897671Y-6669D01*
X897721Y-6747D01*
X897767Y-6826D01*
X897810Y-6908D01*
X897850Y-6991D01*
X897886Y-7076D01*
X897918Y-7162D01*
X897947Y-7250D01*
X897971Y-7339D01*
X897992Y-7429D01*
X898009Y-7519D01*
X898023Y-7610D01*
X898032Y-7702D01*
X898037Y-7794D01*
X898039Y-7886D01*
X898037Y-7978D01*
X898030Y-8070D01*
X898020Y-8162D01*
X898006Y-8253D01*
X897988Y-8344D01*
X897966Y-8433D01*
X897940Y-8522D01*
X897910Y-8609D01*
X897877Y-8695D01*
X897840Y-8779D01*
X897800Y-8862D01*
X897756Y-8943D01*
X897709Y-9022D01*
X897658Y-9099D01*
X897604Y-9174D01*
X897547Y-9247D01*
X897487Y-9317D01*
X897424Y-9384D01*
X897358Y-9448D01*
X897290Y-9510D01*
X897219Y-9569D01*
X897145Y-9624D01*
X897069Y-9677D01*
X896991Y-9726D01*
X896911Y-9772D01*
X896830Y-9814D01*
X896746Y-9853D01*
X896661Y-9888D01*
X896574Y-9919D01*
X896486Y-9947D01*
X896397Y-9971D01*
X896307Y-9991D01*
X896217Y-10008D01*
X896125Y-10020D01*
X896033Y-10029D01*
X895941Y-10033D01*
X895849Y-10034D01*
X895849Y-10033D02*
X895515Y-10024D01*
X895182Y-10007D01*
X894849Y-9983D01*
X894516Y-9950D01*
X894185Y-9910D01*
X893854Y-9862D01*
X893525Y-9806D01*
X893197Y-9743D01*
X892871Y-9671D01*
X892547Y-9592D01*
X892224Y-9506D01*
X891904Y-9411D01*
X891586Y-9309D01*
X891270Y-9200D01*
X907342Y-10033D02*
X910672Y-10033D01*
X907342Y-10033D02*
X907244Y-10031D01*
X907146Y-10025D01*
X907048Y-10016D01*
X906951Y-10002D01*
X906855Y-9985D01*
X906759Y-9964D01*
X906664Y-9939D01*
X906570Y-9911D01*
X906477Y-9879D01*
X906386Y-9843D01*
X906296Y-9804D01*
X906208Y-9761D01*
X906121Y-9714D01*
X906037Y-9665D01*
X905954Y-9612D01*
X905874Y-9556D01*
X905796Y-9497D01*
X905720Y-9435D01*
X905646Y-9369D01*
X905576Y-9301D01*
X905508Y-9231D01*
X905443Y-9157D01*
X905380Y-9082D01*
X905321Y-9003D01*
X905265Y-8923D01*
X905212Y-8840D01*
X905163Y-8756D01*
X905116Y-8669D01*
X905073Y-8581D01*
X905034Y-8491D01*
X904998Y-8400D01*
X904966Y-8307D01*
X904938Y-8213D01*
X904913Y-8118D01*
X904892Y-8022D01*
X904875Y-7926D01*
X904861Y-7829D01*
X904852Y-7731D01*
X904846Y-7633D01*
X904844Y-7535D01*
X904844Y-2540D01*
X904846Y-2442D01*
X904852Y-2344D01*
X904861Y-2246D01*
X904875Y-2149D01*
X904892Y-2053D01*
X904913Y-1957D01*
X904938Y-1862D01*
X904966Y-1768D01*
X904998Y-1675D01*
X905034Y-1584D01*
X905073Y-1494D01*
X905116Y-1406D01*
X905163Y-1319D01*
X905212Y-1235D01*
X905265Y-1152D01*
X905321Y-1072D01*
X905380Y-994D01*
X905443Y-918D01*
X905508Y-844D01*
X905576Y-774D01*
X905646Y-706D01*
X905720Y-641D01*
X905796Y-578D01*
X905874Y-519D01*
X905954Y-463D01*
X906037Y-410D01*
X906121Y-361D01*
X906208Y-314D01*
X906296Y-271D01*
X906386Y-232D01*
X906477Y-196D01*
X906570Y-164D01*
X906664Y-136D01*
X906759Y-111D01*
X906855Y-90D01*
X906951Y-73D01*
X907048Y-59D01*
X907146Y-50D01*
X907244Y-44D01*
X907342Y-42D01*
X910672Y-42D01*
X916802Y-3373D02*
X916802Y-6703D01*
X916802Y-3373D02*
X916804Y-3259D01*
X916810Y-3146D01*
X916819Y-3032D01*
X916833Y-2920D01*
X916850Y-2807D01*
X916872Y-2695D01*
X916897Y-2585D01*
X916925Y-2475D01*
X916958Y-2366D01*
X916994Y-2258D01*
X917034Y-2151D01*
X917078Y-2046D01*
X917125Y-1943D01*
X917175Y-1841D01*
X917229Y-1741D01*
X917287Y-1643D01*
X917348Y-1547D01*
X917411Y-1453D01*
X917479Y-1361D01*
X917549Y-1271D01*
X917622Y-1185D01*
X917698Y-1100D01*
X917777Y-1018D01*
X917859Y-939D01*
X917944Y-863D01*
X918030Y-790D01*
X918120Y-720D01*
X918212Y-652D01*
X918306Y-589D01*
X918402Y-528D01*
X918500Y-470D01*
X918600Y-416D01*
X918702Y-366D01*
X918805Y-319D01*
X918910Y-275D01*
X919017Y-235D01*
X919125Y-199D01*
X919234Y-166D01*
X919344Y-138D01*
X919454Y-113D01*
X919566Y-91D01*
X919679Y-74D01*
X919791Y-60D01*
X919905Y-51D01*
X920018Y-45D01*
X920132Y-43D01*
X920246Y-45D01*
X920359Y-51D01*
X920473Y-60D01*
X920585Y-74D01*
X920698Y-91D01*
X920810Y-113D01*
X920920Y-138D01*
X921030Y-166D01*
X921139Y-199D01*
X921247Y-235D01*
X921354Y-275D01*
X921459Y-319D01*
X921562Y-366D01*
X921664Y-416D01*
X921764Y-470D01*
X921862Y-528D01*
X921958Y-589D01*
X922052Y-652D01*
X922144Y-720D01*
X922234Y-790D01*
X922320Y-863D01*
X922405Y-939D01*
X922487Y-1018D01*
X922566Y-1100D01*
X922642Y-1185D01*
X922715Y-1271D01*
X922785Y-1361D01*
X922853Y-1453D01*
X922916Y-1547D01*
X922977Y-1643D01*
X923035Y-1741D01*
X923089Y-1841D01*
X923139Y-1943D01*
X923186Y-2046D01*
X923230Y-2151D01*
X923270Y-2258D01*
X923306Y-2366D01*
X923339Y-2475D01*
X923367Y-2585D01*
X923392Y-2695D01*
X923414Y-2807D01*
X923431Y-2920D01*
X923445Y-3032D01*
X923454Y-3146D01*
X923460Y-3259D01*
X923462Y-3373D01*
X923462Y-6703D01*
X923460Y-6817D01*
X923454Y-6930D01*
X923445Y-7044D01*
X923431Y-7156D01*
X923414Y-7269D01*
X923392Y-7381D01*
X923367Y-7491D01*
X923339Y-7601D01*
X923306Y-7710D01*
X923270Y-7818D01*
X923230Y-7925D01*
X923186Y-8030D01*
X923139Y-8133D01*
X923089Y-8235D01*
X923035Y-8335D01*
X922977Y-8433D01*
X922916Y-8529D01*
X922853Y-8623D01*
X922785Y-8715D01*
X922715Y-8805D01*
X922642Y-8891D01*
X922566Y-8976D01*
X922487Y-9058D01*
X922405Y-9137D01*
X922320Y-9213D01*
X922234Y-9286D01*
X922144Y-9356D01*
X922052Y-9424D01*
X921958Y-9487D01*
X921862Y-9548D01*
X921764Y-9606D01*
X921664Y-9660D01*
X921562Y-9710D01*
X921459Y-9757D01*
X921354Y-9801D01*
X921247Y-9841D01*
X921139Y-9877D01*
X921030Y-9910D01*
X920920Y-9938D01*
X920810Y-9963D01*
X920698Y-9985D01*
X920585Y-10002D01*
X920473Y-10016D01*
X920359Y-10025D01*
X920246Y-10031D01*
X920132Y-10033D01*
X920018Y-10031D01*
X919905Y-10025D01*
X919791Y-10016D01*
X919679Y-10002D01*
X919566Y-9985D01*
X919454Y-9963D01*
X919344Y-9938D01*
X919234Y-9910D01*
X919125Y-9877D01*
X919017Y-9841D01*
X918910Y-9801D01*
X918805Y-9757D01*
X918702Y-9710D01*
X918600Y-9660D01*
X918500Y-9606D01*
X918402Y-9548D01*
X918306Y-9487D01*
X918212Y-9424D01*
X918120Y-9356D01*
X918030Y-9286D01*
X917944Y-9213D01*
X917859Y-9137D01*
X917777Y-9058D01*
X917698Y-8976D01*
X917622Y-8891D01*
X917549Y-8805D01*
X917479Y-8715D01*
X917411Y-8623D01*
X917348Y-8529D01*
X917287Y-8433D01*
X917229Y-8335D01*
X917175Y-8235D01*
X917125Y-8133D01*
X917078Y-8030D01*
X917034Y-7925D01*
X916994Y-7818D01*
X916958Y-7710D01*
X916925Y-7601D01*
X916897Y-7491D01*
X916872Y-7381D01*
X916850Y-7269D01*
X916833Y-7156D01*
X916819Y-7044D01*
X916810Y-6930D01*
X916804Y-6817D01*
X916802Y-6703D01*
X930998Y-10033D02*
X930998Y-42D01*
X935993Y-42D01*
X935993Y-1707D01*
X943788Y-10033D02*
X947951Y-10033D01*
X943788Y-10033D02*
X943690Y-10031D01*
X943592Y-10025D01*
X943494Y-10016D01*
X943397Y-10002D01*
X943301Y-9985D01*
X943205Y-9964D01*
X943110Y-9939D01*
X943016Y-9911D01*
X942923Y-9879D01*
X942832Y-9843D01*
X942742Y-9804D01*
X942654Y-9761D01*
X942567Y-9714D01*
X942483Y-9665D01*
X942400Y-9612D01*
X942320Y-9556D01*
X942242Y-9497D01*
X942166Y-9435D01*
X942092Y-9369D01*
X942022Y-9301D01*
X941954Y-9231D01*
X941889Y-9157D01*
X941826Y-9082D01*
X941767Y-9003D01*
X941711Y-8923D01*
X941658Y-8840D01*
X941609Y-8756D01*
X941562Y-8669D01*
X941519Y-8581D01*
X941480Y-8491D01*
X941444Y-8400D01*
X941412Y-8307D01*
X941384Y-8213D01*
X941359Y-8118D01*
X941338Y-8022D01*
X941321Y-7926D01*
X941307Y-7829D01*
X941298Y-7731D01*
X941292Y-7633D01*
X941290Y-7535D01*
X941290Y-3373D01*
X941291Y-3373D02*
X941293Y-3259D01*
X941299Y-3146D01*
X941308Y-3032D01*
X941322Y-2920D01*
X941339Y-2807D01*
X941361Y-2695D01*
X941386Y-2585D01*
X941414Y-2475D01*
X941447Y-2366D01*
X941483Y-2258D01*
X941523Y-2151D01*
X941567Y-2046D01*
X941614Y-1943D01*
X941664Y-1841D01*
X941718Y-1741D01*
X941776Y-1643D01*
X941837Y-1547D01*
X941900Y-1453D01*
X941968Y-1361D01*
X942038Y-1271D01*
X942111Y-1185D01*
X942187Y-1100D01*
X942266Y-1018D01*
X942348Y-939D01*
X942433Y-863D01*
X942519Y-790D01*
X942609Y-720D01*
X942701Y-652D01*
X942795Y-589D01*
X942891Y-528D01*
X942989Y-470D01*
X943089Y-416D01*
X943191Y-366D01*
X943294Y-319D01*
X943399Y-275D01*
X943506Y-235D01*
X943614Y-199D01*
X943723Y-166D01*
X943833Y-138D01*
X943943Y-113D01*
X944055Y-91D01*
X944168Y-74D01*
X944280Y-60D01*
X944394Y-51D01*
X944507Y-45D01*
X944621Y-43D01*
X944735Y-45D01*
X944848Y-51D01*
X944962Y-60D01*
X945074Y-74D01*
X945187Y-91D01*
X945299Y-113D01*
X945409Y-138D01*
X945519Y-166D01*
X945628Y-199D01*
X945736Y-235D01*
X945843Y-275D01*
X945948Y-319D01*
X946051Y-366D01*
X946153Y-416D01*
X946253Y-470D01*
X946351Y-528D01*
X946447Y-589D01*
X946541Y-652D01*
X946633Y-720D01*
X946723Y-790D01*
X946809Y-863D01*
X946894Y-939D01*
X946976Y-1018D01*
X947055Y-1100D01*
X947131Y-1185D01*
X947204Y-1271D01*
X947274Y-1361D01*
X947342Y-1453D01*
X947405Y-1547D01*
X947466Y-1643D01*
X947524Y-1741D01*
X947578Y-1841D01*
X947628Y-1943D01*
X947675Y-2046D01*
X947719Y-2151D01*
X947759Y-2258D01*
X947795Y-2366D01*
X947828Y-2475D01*
X947856Y-2585D01*
X947881Y-2695D01*
X947903Y-2807D01*
X947920Y-2920D01*
X947934Y-3032D01*
X947943Y-3146D01*
X947949Y-3259D01*
X947951Y-3373D01*
X947951Y-5038D01*
X941290Y-5038D01*
D11*
X828040Y662940D02*
X-68580Y662940D01*
D12*
X860529Y665438D02*
X863859Y655447D01*
X867190Y665438D01*
X873974Y661275D02*
X883965Y661275D01*
X892519Y661275D02*
X896682Y659610D01*
X892519Y661274D02*
X892434Y661310D01*
X892351Y661350D01*
X892270Y661393D01*
X892190Y661440D01*
X892113Y661490D01*
X892037Y661543D01*
X891964Y661599D01*
X891894Y661659D01*
X891826Y661721D01*
X891761Y661786D01*
X891699Y661854D01*
X891639Y661925D01*
X891583Y661998D01*
X891530Y662073D01*
X891480Y662151D01*
X891434Y662230D01*
X891391Y662312D01*
X891351Y662395D01*
X891315Y662480D01*
X891283Y662566D01*
X891254Y662654D01*
X891230Y662743D01*
X891209Y662833D01*
X891192Y662923D01*
X891178Y663014D01*
X891169Y663106D01*
X891164Y663198D01*
X891162Y663290D01*
X891164Y663382D01*
X891171Y663474D01*
X891181Y663566D01*
X891195Y663657D01*
X891213Y663748D01*
X891235Y663837D01*
X891261Y663926D01*
X891291Y664013D01*
X891324Y664099D01*
X891361Y664183D01*
X891401Y664266D01*
X891445Y664347D01*
X891492Y664426D01*
X891543Y664503D01*
X891597Y664578D01*
X891654Y664651D01*
X891714Y664721D01*
X891777Y664788D01*
X891843Y664852D01*
X891911Y664914D01*
X891982Y664973D01*
X892056Y665028D01*
X892132Y665081D01*
X892210Y665130D01*
X892290Y665176D01*
X892371Y665218D01*
X892455Y665257D01*
X892540Y665292D01*
X892627Y665323D01*
X892715Y665351D01*
X892804Y665375D01*
X892894Y665395D01*
X892984Y665412D01*
X893076Y665424D01*
X893168Y665433D01*
X893260Y665437D01*
X893352Y665438D01*
X893579Y665432D01*
X893806Y665421D01*
X894033Y665404D01*
X894259Y665381D01*
X894485Y665354D01*
X894710Y665320D01*
X894934Y665282D01*
X895157Y665238D01*
X895379Y665189D01*
X895600Y665134D01*
X895819Y665074D01*
X896037Y665009D01*
X896253Y664938D01*
X896467Y664863D01*
X896680Y664782D01*
X896890Y664696D01*
X897099Y664605D01*
X896682Y659610D02*
X896767Y659574D01*
X896850Y659534D01*
X896931Y659491D01*
X897011Y659444D01*
X897088Y659394D01*
X897164Y659341D01*
X897237Y659285D01*
X897307Y659225D01*
X897375Y659163D01*
X897440Y659098D01*
X897502Y659030D01*
X897562Y658959D01*
X897618Y658886D01*
X897671Y658811D01*
X897721Y658733D01*
X897767Y658654D01*
X897810Y658572D01*
X897850Y658489D01*
X897886Y658404D01*
X897918Y658318D01*
X897947Y658230D01*
X897971Y658141D01*
X897992Y658051D01*
X898009Y657961D01*
X898023Y657870D01*
X898032Y657778D01*
X898037Y657686D01*
X898039Y657594D01*
X898037Y657502D01*
X898030Y657410D01*
X898020Y657318D01*
X898006Y657227D01*
X897988Y657136D01*
X897966Y657047D01*
X897940Y656958D01*
X897910Y656871D01*
X897877Y656785D01*
X897840Y656701D01*
X897800Y656618D01*
X897756Y656537D01*
X897709Y656458D01*
X897658Y656381D01*
X897604Y656306D01*
X897547Y656233D01*
X897487Y656163D01*
X897424Y656096D01*
X897358Y656032D01*
X897290Y655970D01*
X897219Y655911D01*
X897145Y655856D01*
X897069Y655803D01*
X896991Y655754D01*
X896911Y655708D01*
X896830Y655666D01*
X896746Y655627D01*
X896661Y655592D01*
X896574Y655561D01*
X896486Y655533D01*
X896397Y655509D01*
X896307Y655489D01*
X896217Y655472D01*
X896125Y655460D01*
X896033Y655451D01*
X895941Y655447D01*
X895849Y655446D01*
X895849Y655447D02*
X895515Y655456D01*
X895182Y655473D01*
X894849Y655497D01*
X894516Y655530D01*
X894185Y655570D01*
X893854Y655618D01*
X893525Y655674D01*
X893197Y655737D01*
X892871Y655809D01*
X892547Y655888D01*
X892224Y655974D01*
X891904Y656069D01*
X891586Y656171D01*
X891270Y656280D01*
X907342Y655447D02*
X910672Y655447D01*
X907342Y655447D02*
X907244Y655449D01*
X907146Y655455D01*
X907048Y655464D01*
X906951Y655478D01*
X906855Y655495D01*
X906759Y655516D01*
X906664Y655541D01*
X906570Y655569D01*
X906477Y655601D01*
X906386Y655637D01*
X906296Y655676D01*
X906208Y655719D01*
X906121Y655766D01*
X906037Y655815D01*
X905954Y655868D01*
X905874Y655924D01*
X905796Y655983D01*
X905720Y656046D01*
X905646Y656111D01*
X905576Y656179D01*
X905508Y656249D01*
X905443Y656323D01*
X905380Y656399D01*
X905321Y656477D01*
X905265Y656557D01*
X905212Y656640D01*
X905163Y656724D01*
X905116Y656811D01*
X905073Y656899D01*
X905034Y656989D01*
X904998Y657080D01*
X904966Y657173D01*
X904938Y657267D01*
X904913Y657362D01*
X904892Y657458D01*
X904875Y657554D01*
X904861Y657651D01*
X904852Y657749D01*
X904846Y657847D01*
X904844Y657945D01*
X904844Y662940D01*
X904846Y663038D01*
X904852Y663136D01*
X904861Y663234D01*
X904875Y663331D01*
X904892Y663427D01*
X904913Y663523D01*
X904938Y663618D01*
X904966Y663712D01*
X904998Y663805D01*
X905034Y663896D01*
X905073Y663986D01*
X905116Y664074D01*
X905163Y664161D01*
X905212Y664245D01*
X905265Y664328D01*
X905321Y664408D01*
X905380Y664487D01*
X905443Y664562D01*
X905508Y664636D01*
X905576Y664706D01*
X905646Y664774D01*
X905720Y664840D01*
X905796Y664902D01*
X905874Y664961D01*
X905954Y665017D01*
X906037Y665070D01*
X906121Y665120D01*
X906208Y665166D01*
X906296Y665209D01*
X906386Y665248D01*
X906477Y665284D01*
X906570Y665316D01*
X906664Y665344D01*
X906759Y665369D01*
X906855Y665390D01*
X906951Y665407D01*
X907048Y665421D01*
X907146Y665430D01*
X907244Y665436D01*
X907342Y665438D01*
X910672Y665438D01*
X916802Y662107D02*
X916802Y658777D01*
X916802Y662107D02*
X916804Y662221D01*
X916810Y662334D01*
X916819Y662448D01*
X916833Y662560D01*
X916850Y662673D01*
X916872Y662785D01*
X916897Y662895D01*
X916925Y663005D01*
X916958Y663114D01*
X916994Y663222D01*
X917034Y663329D01*
X917078Y663434D01*
X917125Y663537D01*
X917175Y663639D01*
X917229Y663739D01*
X917287Y663837D01*
X917348Y663933D01*
X917411Y664027D01*
X917479Y664119D01*
X917549Y664209D01*
X917622Y664295D01*
X917698Y664380D01*
X917777Y664462D01*
X917859Y664541D01*
X917944Y664617D01*
X918030Y664690D01*
X918120Y664760D01*
X918212Y664828D01*
X918306Y664891D01*
X918402Y664952D01*
X918500Y665010D01*
X918600Y665064D01*
X918702Y665114D01*
X918805Y665161D01*
X918910Y665205D01*
X919017Y665245D01*
X919125Y665281D01*
X919234Y665314D01*
X919344Y665342D01*
X919454Y665367D01*
X919566Y665389D01*
X919679Y665406D01*
X919791Y665420D01*
X919905Y665429D01*
X920018Y665435D01*
X920132Y665437D01*
X920246Y665435D01*
X920359Y665429D01*
X920473Y665420D01*
X920585Y665406D01*
X920698Y665389D01*
X920810Y665367D01*
X920920Y665342D01*
X921030Y665314D01*
X921139Y665281D01*
X921247Y665245D01*
X921354Y665205D01*
X921459Y665161D01*
X921562Y665114D01*
X921664Y665064D01*
X921764Y665010D01*
X921862Y664952D01*
X921958Y664891D01*
X922052Y664828D01*
X922144Y664760D01*
X922234Y664690D01*
X922320Y664617D01*
X922405Y664541D01*
X922487Y664462D01*
X922566Y664380D01*
X922642Y664295D01*
X922715Y664209D01*
X922785Y664119D01*
X922853Y664027D01*
X922916Y663933D01*
X922977Y663837D01*
X923035Y663739D01*
X923089Y663639D01*
X923139Y663537D01*
X923186Y663434D01*
X923230Y663329D01*
X923270Y663222D01*
X923306Y663114D01*
X923339Y663005D01*
X923367Y662895D01*
X923392Y662785D01*
X923414Y662673D01*
X923431Y662560D01*
X923445Y662448D01*
X923454Y662334D01*
X923460Y662221D01*
X923462Y662107D01*
X923462Y658777D01*
X923460Y658663D01*
X923454Y658550D01*
X923445Y658436D01*
X923431Y658324D01*
X923414Y658211D01*
X923392Y658099D01*
X923367Y657989D01*
X923339Y657879D01*
X923306Y657770D01*
X923270Y657662D01*
X923230Y657555D01*
X923186Y657450D01*
X923139Y657347D01*
X923089Y657245D01*
X923035Y657145D01*
X922977Y657047D01*
X922916Y656951D01*
X922853Y656857D01*
X922785Y656765D01*
X922715Y656675D01*
X922642Y656589D01*
X922566Y656504D01*
X922487Y656422D01*
X922405Y656343D01*
X922320Y656267D01*
X922234Y656194D01*
X922144Y656124D01*
X922052Y656056D01*
X921958Y655993D01*
X921862Y655932D01*
X921764Y655874D01*
X921664Y655820D01*
X921562Y655770D01*
X921459Y655723D01*
X921354Y655679D01*
X921247Y655639D01*
X921139Y655603D01*
X921030Y655570D01*
X920920Y655542D01*
X920810Y655517D01*
X920698Y655495D01*
X920585Y655478D01*
X920473Y655464D01*
X920359Y655455D01*
X920246Y655449D01*
X920132Y655447D01*
X920018Y655449D01*
X919905Y655455D01*
X919791Y655464D01*
X919679Y655478D01*
X919566Y655495D01*
X919454Y655517D01*
X919344Y655542D01*
X919234Y655570D01*
X919125Y655603D01*
X919017Y655639D01*
X918910Y655679D01*
X918805Y655723D01*
X918702Y655770D01*
X918600Y655820D01*
X918500Y655874D01*
X918402Y655932D01*
X918306Y655993D01*
X918212Y656056D01*
X918120Y656124D01*
X918030Y656194D01*
X917944Y656267D01*
X917859Y656343D01*
X917777Y656422D01*
X917698Y656504D01*
X917622Y656589D01*
X917549Y656675D01*
X917479Y656765D01*
X917411Y656857D01*
X917348Y656951D01*
X917287Y657047D01*
X917229Y657145D01*
X917175Y657245D01*
X917125Y657347D01*
X917078Y657450D01*
X917034Y657555D01*
X916994Y657662D01*
X916958Y657770D01*
X916925Y657879D01*
X916897Y657989D01*
X916872Y658099D01*
X916850Y658211D01*
X916833Y658324D01*
X916819Y658436D01*
X916810Y658550D01*
X916804Y658663D01*
X916802Y658777D01*
X930998Y655447D02*
X930998Y665438D01*
X935993Y665438D01*
X935993Y663773D01*
X943788Y655447D02*
X947951Y655447D01*
X943788Y655447D02*
X943690Y655449D01*
X943592Y655455D01*
X943494Y655464D01*
X943397Y655478D01*
X943301Y655495D01*
X943205Y655516D01*
X943110Y655541D01*
X943016Y655569D01*
X942923Y655601D01*
X942832Y655637D01*
X942742Y655676D01*
X942654Y655719D01*
X942567Y655766D01*
X942483Y655815D01*
X942400Y655868D01*
X942320Y655924D01*
X942242Y655983D01*
X942166Y656046D01*
X942092Y656111D01*
X942022Y656179D01*
X941954Y656249D01*
X941889Y656323D01*
X941826Y656399D01*
X941767Y656477D01*
X941711Y656557D01*
X941658Y656640D01*
X941609Y656724D01*
X941562Y656811D01*
X941519Y656899D01*
X941480Y656989D01*
X941444Y657080D01*
X941412Y657173D01*
X941384Y657267D01*
X941359Y657362D01*
X941338Y657458D01*
X941321Y657554D01*
X941307Y657651D01*
X941298Y657749D01*
X941292Y657847D01*
X941290Y657945D01*
X941290Y662107D01*
X941291Y662107D02*
X941293Y662221D01*
X941299Y662334D01*
X941308Y662448D01*
X941322Y662560D01*
X941339Y662673D01*
X941361Y662785D01*
X941386Y662895D01*
X941414Y663005D01*
X941447Y663114D01*
X941483Y663222D01*
X941523Y663329D01*
X941567Y663434D01*
X941614Y663537D01*
X941664Y663639D01*
X941718Y663739D01*
X941776Y663837D01*
X941837Y663933D01*
X941900Y664027D01*
X941968Y664119D01*
X942038Y664209D01*
X942111Y664295D01*
X942187Y664380D01*
X942266Y664462D01*
X942348Y664541D01*
X942433Y664617D01*
X942519Y664690D01*
X942609Y664760D01*
X942701Y664828D01*
X942795Y664891D01*
X942891Y664952D01*
X942989Y665010D01*
X943089Y665064D01*
X943191Y665114D01*
X943294Y665161D01*
X943399Y665205D01*
X943506Y665245D01*
X943614Y665281D01*
X943723Y665314D01*
X943833Y665342D01*
X943943Y665367D01*
X944055Y665389D01*
X944168Y665406D01*
X944280Y665420D01*
X944394Y665429D01*
X944507Y665435D01*
X944621Y665437D01*
X944735Y665435D01*
X944848Y665429D01*
X944962Y665420D01*
X945074Y665406D01*
X945187Y665389D01*
X945299Y665367D01*
X945409Y665342D01*
X945519Y665314D01*
X945628Y665281D01*
X945736Y665245D01*
X945843Y665205D01*
X945948Y665161D01*
X946051Y665114D01*
X946153Y665064D01*
X946253Y665010D01*
X946351Y664952D01*
X946447Y664891D01*
X946541Y664828D01*
X946633Y664760D01*
X946723Y664690D01*
X946809Y664617D01*
X946894Y664541D01*
X946976Y664462D01*
X947055Y664380D01*
X947131Y664295D01*
X947204Y664209D01*
X947274Y664119D01*
X947342Y664027D01*
X947405Y663933D01*
X947466Y663837D01*
X947524Y663739D01*
X947578Y663639D01*
X947628Y663537D01*
X947675Y663434D01*
X947719Y663329D01*
X947759Y663222D01*
X947795Y663114D01*
X947828Y663005D01*
X947856Y662895D01*
X947881Y662785D01*
X947903Y662673D01*
X947920Y662560D01*
X947934Y662448D01*
X947943Y662334D01*
X947949Y662221D01*
X947951Y662107D01*
X947951Y660442D01*
X941290Y660442D01*
D13*
X764540Y-5080D02*
X-68580Y-5080D01*
X764540Y-5080D02*
X764540Y-68580D01*
X-68580Y-68580D01*
X-68580Y-5080D01*
X701040Y660400D02*
X764540Y660400D01*
X764540Y0D01*
X701040Y0D01*
X701040Y660400D01*
X764540Y728980D02*
X-68580Y728980D01*
X764540Y728980D02*
X764540Y665480D01*
X-68580Y665480D01*
X-68580Y728980D01*
X-68580Y660400D02*
X-5080Y660400D01*
X-5080Y0D01*
X-68580Y0D01*
X-68580Y660400D01*
D14*
X10160Y25400D02*
X10165Y25774D01*
X10178Y26148D01*
X10201Y26521D01*
X10233Y26894D01*
X10275Y27266D01*
X10325Y27636D01*
X10384Y28005D01*
X10453Y28373D01*
X10530Y28739D01*
X10617Y29103D01*
X10712Y29465D01*
X10816Y29824D01*
X10929Y30181D01*
X11051Y30534D01*
X11181Y30885D01*
X11320Y31232D01*
X11467Y31576D01*
X11623Y31916D01*
X11787Y32252D01*
X11960Y32584D01*
X12140Y32912D01*
X12328Y33235D01*
X12524Y33553D01*
X12728Y33867D01*
X12940Y34175D01*
X13159Y34478D01*
X13386Y34776D01*
X13619Y35068D01*
X13860Y35354D01*
X14108Y35635D01*
X14362Y35909D01*
X14624Y36176D01*
X14891Y36438D01*
X15165Y36692D01*
X15446Y36940D01*
X15732Y37181D01*
X16024Y37414D01*
X16322Y37641D01*
X16625Y37860D01*
X16933Y38072D01*
X17247Y38276D01*
X17565Y38472D01*
X17888Y38660D01*
X18216Y38840D01*
X18548Y39013D01*
X18884Y39177D01*
X19224Y39333D01*
X19568Y39480D01*
X19915Y39619D01*
X20266Y39749D01*
X20619Y39871D01*
X20976Y39984D01*
X21335Y40088D01*
X21697Y40183D01*
X22061Y40270D01*
X22427Y40347D01*
X22795Y40416D01*
X23164Y40475D01*
X23534Y40525D01*
X23906Y40567D01*
X24279Y40599D01*
X24652Y40622D01*
X25026Y40635D01*
X25400Y40640D01*
X25774Y40635D01*
X26148Y40622D01*
X26521Y40599D01*
X26894Y40567D01*
X27266Y40525D01*
X27636Y40475D01*
X28005Y40416D01*
X28373Y40347D01*
X28739Y40270D01*
X29103Y40183D01*
X29465Y40088D01*
X29824Y39984D01*
X30181Y39871D01*
X30534Y39749D01*
X30885Y39619D01*
X31232Y39480D01*
X31576Y39333D01*
X31916Y39177D01*
X32252Y39013D01*
X32584Y38840D01*
X32912Y38660D01*
X33235Y38472D01*
X33553Y38276D01*
X33867Y38072D01*
X34175Y37860D01*
X34478Y37641D01*
X34776Y37414D01*
X35068Y37181D01*
X35354Y36940D01*
X35635Y36692D01*
X35909Y36438D01*
X36176Y36176D01*
X36438Y35909D01*
X36692Y35635D01*
X36940Y35354D01*
X37181Y35068D01*
X37414Y34776D01*
X37641Y34478D01*
X37860Y34175D01*
X38072Y33867D01*
X38276Y33553D01*
X38472Y33235D01*
X38660Y32912D01*
X38840Y32584D01*
X39013Y32252D01*
X39177Y31916D01*
X39333Y31576D01*
X39480Y31232D01*
X39619Y30885D01*
X39749Y30534D01*
X39871Y30181D01*
X39984Y29824D01*
X40088Y29465D01*
X40183Y29103D01*
X40270Y28739D01*
X40347Y28373D01*
X40416Y28005D01*
X40475Y27636D01*
X40525Y27266D01*
X40567Y26894D01*
X40599Y26521D01*
X40622Y26148D01*
X40635Y25774D01*
X40640Y25400D01*
X40635Y25026D01*
X40622Y24652D01*
X40599Y24279D01*
X40567Y23906D01*
X40525Y23534D01*
X40475Y23164D01*
X40416Y22795D01*
X40347Y22427D01*
X40270Y22061D01*
X40183Y21697D01*
X40088Y21335D01*
X39984Y20976D01*
X39871Y20619D01*
X39749Y20266D01*
X39619Y19915D01*
X39480Y19568D01*
X39333Y19224D01*
X39177Y18884D01*
X39013Y18548D01*
X38840Y18216D01*
X38660Y17888D01*
X38472Y17565D01*
X38276Y17247D01*
X38072Y16933D01*
X37860Y16625D01*
X37641Y16322D01*
X37414Y16024D01*
X37181Y15732D01*
X36940Y15446D01*
X36692Y15165D01*
X36438Y14891D01*
X36176Y14624D01*
X35909Y14362D01*
X35635Y14108D01*
X35354Y13860D01*
X35068Y13619D01*
X34776Y13386D01*
X34478Y13159D01*
X34175Y12940D01*
X33867Y12728D01*
X33553Y12524D01*
X33235Y12328D01*
X32912Y12140D01*
X32584Y11960D01*
X32252Y11787D01*
X31916Y11623D01*
X31576Y11467D01*
X31232Y11320D01*
X30885Y11181D01*
X30534Y11051D01*
X30181Y10929D01*
X29824Y10816D01*
X29465Y10712D01*
X29103Y10617D01*
X28739Y10530D01*
X28373Y10453D01*
X28005Y10384D01*
X27636Y10325D01*
X27266Y10275D01*
X26894Y10233D01*
X26521Y10201D01*
X26148Y10178D01*
X25774Y10165D01*
X25400Y10160D01*
X25026Y10165D01*
X24652Y10178D01*
X24279Y10201D01*
X23906Y10233D01*
X23534Y10275D01*
X23164Y10325D01*
X22795Y10384D01*
X22427Y10453D01*
X22061Y10530D01*
X21697Y10617D01*
X21335Y10712D01*
X20976Y10816D01*
X20619Y10929D01*
X20266Y11051D01*
X19915Y11181D01*
X19568Y11320D01*
X19224Y11467D01*
X18884Y11623D01*
X18548Y11787D01*
X18216Y11960D01*
X17888Y12140D01*
X17565Y12328D01*
X17247Y12524D01*
X16933Y12728D01*
X16625Y12940D01*
X16322Y13159D01*
X16024Y13386D01*
X15732Y13619D01*
X15446Y13860D01*
X15165Y14108D01*
X14891Y14362D01*
X14624Y14624D01*
X14362Y14891D01*
X14108Y15165D01*
X13860Y15446D01*
X13619Y15732D01*
X13386Y16024D01*
X13159Y16322D01*
X12940Y16625D01*
X12728Y16933D01*
X12524Y17247D01*
X12328Y17565D01*
X12140Y17888D01*
X11960Y18216D01*
X11787Y18548D01*
X11623Y18884D01*
X11467Y19224D01*
X11320Y19568D01*
X11181Y19915D01*
X11051Y20266D01*
X10929Y20619D01*
X10816Y20976D01*
X10712Y21335D01*
X10617Y21697D01*
X10530Y22061D01*
X10453Y22427D01*
X10384Y22795D01*
X10325Y23164D01*
X10275Y23534D01*
X10233Y23906D01*
X10201Y24279D01*
X10178Y24652D01*
X10165Y25026D01*
X10160Y25400D01*
X187960Y25400D02*
X187965Y25774D01*
X187978Y26148D01*
X188001Y26521D01*
X188033Y26894D01*
X188075Y27266D01*
X188125Y27636D01*
X188184Y28005D01*
X188253Y28373D01*
X188330Y28739D01*
X188417Y29103D01*
X188512Y29465D01*
X188616Y29824D01*
X188729Y30181D01*
X188851Y30534D01*
X188981Y30885D01*
X189120Y31232D01*
X189267Y31576D01*
X189423Y31916D01*
X189587Y32252D01*
X189760Y32584D01*
X189940Y32912D01*
X190128Y33235D01*
X190324Y33553D01*
X190528Y33867D01*
X190740Y34175D01*
X190959Y34478D01*
X191186Y34776D01*
X191419Y35068D01*
X191660Y35354D01*
X191908Y35635D01*
X192162Y35909D01*
X192424Y36176D01*
X192691Y36438D01*
X192965Y36692D01*
X193246Y36940D01*
X193532Y37181D01*
X193824Y37414D01*
X194122Y37641D01*
X194425Y37860D01*
X194733Y38072D01*
X195047Y38276D01*
X195365Y38472D01*
X195688Y38660D01*
X196016Y38840D01*
X196348Y39013D01*
X196684Y39177D01*
X197024Y39333D01*
X197368Y39480D01*
X197715Y39619D01*
X198066Y39749D01*
X198419Y39871D01*
X198776Y39984D01*
X199135Y40088D01*
X199497Y40183D01*
X199861Y40270D01*
X200227Y40347D01*
X200595Y40416D01*
X200964Y40475D01*
X201334Y40525D01*
X201706Y40567D01*
X202079Y40599D01*
X202452Y40622D01*
X202826Y40635D01*
X203200Y40640D01*
X203574Y40635D01*
X203948Y40622D01*
X204321Y40599D01*
X204694Y40567D01*
X205066Y40525D01*
X205436Y40475D01*
X205805Y40416D01*
X206173Y40347D01*
X206539Y40270D01*
X206903Y40183D01*
X207265Y40088D01*
X207624Y39984D01*
X207981Y39871D01*
X208334Y39749D01*
X208685Y39619D01*
X209032Y39480D01*
X209376Y39333D01*
X209716Y39177D01*
X210052Y39013D01*
X210384Y38840D01*
X210712Y38660D01*
X211035Y38472D01*
X211353Y38276D01*
X211667Y38072D01*
X211975Y37860D01*
X212278Y37641D01*
X212576Y37414D01*
X212868Y37181D01*
X213154Y36940D01*
X213435Y36692D01*
X213709Y36438D01*
X213976Y36176D01*
X214238Y35909D01*
X214492Y35635D01*
X214740Y35354D01*
X214981Y35068D01*
X215214Y34776D01*
X215441Y34478D01*
X215660Y34175D01*
X215872Y33867D01*
X216076Y33553D01*
X216272Y33235D01*
X216460Y32912D01*
X216640Y32584D01*
X216813Y32252D01*
X216977Y31916D01*
X217133Y31576D01*
X217280Y31232D01*
X217419Y30885D01*
X217549Y30534D01*
X217671Y30181D01*
X217784Y29824D01*
X217888Y29465D01*
X217983Y29103D01*
X218070Y28739D01*
X218147Y28373D01*
X218216Y28005D01*
X218275Y27636D01*
X218325Y27266D01*
X218367Y26894D01*
X218399Y26521D01*
X218422Y26148D01*
X218435Y25774D01*
X218440Y25400D01*
X218435Y25026D01*
X218422Y24652D01*
X218399Y24279D01*
X218367Y23906D01*
X218325Y23534D01*
X218275Y23164D01*
X218216Y22795D01*
X218147Y22427D01*
X218070Y22061D01*
X217983Y21697D01*
X217888Y21335D01*
X217784Y20976D01*
X217671Y20619D01*
X217549Y20266D01*
X217419Y19915D01*
X217280Y19568D01*
X217133Y19224D01*
X216977Y18884D01*
X216813Y18548D01*
X216640Y18216D01*
X216460Y17888D01*
X216272Y17565D01*
X216076Y17247D01*
X215872Y16933D01*
X215660Y16625D01*
X215441Y16322D01*
X215214Y16024D01*
X214981Y15732D01*
X214740Y15446D01*
X214492Y15165D01*
X214238Y14891D01*
X213976Y14624D01*
X213709Y14362D01*
X213435Y14108D01*
X213154Y13860D01*
X212868Y13619D01*
X212576Y13386D01*
X212278Y13159D01*
X211975Y12940D01*
X211667Y12728D01*
X211353Y12524D01*
X211035Y12328D01*
X210712Y12140D01*
X210384Y11960D01*
X210052Y11787D01*
X209716Y11623D01*
X209376Y11467D01*
X209032Y11320D01*
X208685Y11181D01*
X208334Y11051D01*
X207981Y10929D01*
X207624Y10816D01*
X207265Y10712D01*
X206903Y10617D01*
X206539Y10530D01*
X206173Y10453D01*
X205805Y10384D01*
X205436Y10325D01*
X205066Y10275D01*
X204694Y10233D01*
X204321Y10201D01*
X203948Y10178D01*
X203574Y10165D01*
X203200Y10160D01*
X202826Y10165D01*
X202452Y10178D01*
X202079Y10201D01*
X201706Y10233D01*
X201334Y10275D01*
X200964Y10325D01*
X200595Y10384D01*
X200227Y10453D01*
X199861Y10530D01*
X199497Y10617D01*
X199135Y10712D01*
X198776Y10816D01*
X198419Y10929D01*
X198066Y11051D01*
X197715Y11181D01*
X197368Y11320D01*
X197024Y11467D01*
X196684Y11623D01*
X196348Y11787D01*
X196016Y11960D01*
X195688Y12140D01*
X195365Y12328D01*
X195047Y12524D01*
X194733Y12728D01*
X194425Y12940D01*
X194122Y13159D01*
X193824Y13386D01*
X193532Y13619D01*
X193246Y13860D01*
X192965Y14108D01*
X192691Y14362D01*
X192424Y14624D01*
X192162Y14891D01*
X191908Y15165D01*
X191660Y15446D01*
X191419Y15732D01*
X191186Y16024D01*
X190959Y16322D01*
X190740Y16625D01*
X190528Y16933D01*
X190324Y17247D01*
X190128Y17565D01*
X189940Y17888D01*
X189760Y18216D01*
X189587Y18548D01*
X189423Y18884D01*
X189267Y19224D01*
X189120Y19568D01*
X188981Y19915D01*
X188851Y20266D01*
X188729Y20619D01*
X188616Y20976D01*
X188512Y21335D01*
X188417Y21697D01*
X188330Y22061D01*
X188253Y22427D01*
X188184Y22795D01*
X188125Y23164D01*
X188075Y23534D01*
X188033Y23906D01*
X188001Y24279D01*
X187978Y24652D01*
X187965Y25026D01*
X187960Y25400D01*
X187960Y558800D02*
X187965Y559174D01*
X187978Y559548D01*
X188001Y559921D01*
X188033Y560294D01*
X188075Y560666D01*
X188125Y561036D01*
X188184Y561405D01*
X188253Y561773D01*
X188330Y562139D01*
X188417Y562503D01*
X188512Y562865D01*
X188616Y563224D01*
X188729Y563581D01*
X188851Y563934D01*
X188981Y564285D01*
X189120Y564632D01*
X189267Y564976D01*
X189423Y565316D01*
X189587Y565652D01*
X189760Y565984D01*
X189940Y566312D01*
X190128Y566635D01*
X190324Y566953D01*
X190528Y567267D01*
X190740Y567575D01*
X190959Y567878D01*
X191186Y568176D01*
X191419Y568468D01*
X191660Y568754D01*
X191908Y569035D01*
X192162Y569309D01*
X192424Y569576D01*
X192691Y569838D01*
X192965Y570092D01*
X193246Y570340D01*
X193532Y570581D01*
X193824Y570814D01*
X194122Y571041D01*
X194425Y571260D01*
X194733Y571472D01*
X195047Y571676D01*
X195365Y571872D01*
X195688Y572060D01*
X196016Y572240D01*
X196348Y572413D01*
X196684Y572577D01*
X197024Y572733D01*
X197368Y572880D01*
X197715Y573019D01*
X198066Y573149D01*
X198419Y573271D01*
X198776Y573384D01*
X199135Y573488D01*
X199497Y573583D01*
X199861Y573670D01*
X200227Y573747D01*
X200595Y573816D01*
X200964Y573875D01*
X201334Y573925D01*
X201706Y573967D01*
X202079Y573999D01*
X202452Y574022D01*
X202826Y574035D01*
X203200Y574040D01*
X203574Y574035D01*
X203948Y574022D01*
X204321Y573999D01*
X204694Y573967D01*
X205066Y573925D01*
X205436Y573875D01*
X205805Y573816D01*
X206173Y573747D01*
X206539Y573670D01*
X206903Y573583D01*
X207265Y573488D01*
X207624Y573384D01*
X207981Y573271D01*
X208334Y573149D01*
X208685Y573019D01*
X209032Y572880D01*
X209376Y572733D01*
X209716Y572577D01*
X210052Y572413D01*
X210384Y572240D01*
X210712Y572060D01*
X211035Y571872D01*
X211353Y571676D01*
X211667Y571472D01*
X211975Y571260D01*
X212278Y571041D01*
X212576Y570814D01*
X212868Y570581D01*
X213154Y570340D01*
X213435Y570092D01*
X213709Y569838D01*
X213976Y569576D01*
X214238Y569309D01*
X214492Y569035D01*
X214740Y568754D01*
X214981Y568468D01*
X215214Y568176D01*
X215441Y567878D01*
X215660Y567575D01*
X215872Y567267D01*
X216076Y566953D01*
X216272Y566635D01*
X216460Y566312D01*
X216640Y565984D01*
X216813Y565652D01*
X216977Y565316D01*
X217133Y564976D01*
X217280Y564632D01*
X217419Y564285D01*
X217549Y563934D01*
X217671Y563581D01*
X217784Y563224D01*
X217888Y562865D01*
X217983Y562503D01*
X218070Y562139D01*
X218147Y561773D01*
X218216Y561405D01*
X218275Y561036D01*
X218325Y560666D01*
X218367Y560294D01*
X218399Y559921D01*
X218422Y559548D01*
X218435Y559174D01*
X218440Y558800D01*
X218435Y558426D01*
X218422Y558052D01*
X218399Y557679D01*
X218367Y557306D01*
X218325Y556934D01*
X218275Y556564D01*
X218216Y556195D01*
X218147Y555827D01*
X218070Y555461D01*
X217983Y555097D01*
X217888Y554735D01*
X217784Y554376D01*
X217671Y554019D01*
X217549Y553666D01*
X217419Y553315D01*
X217280Y552968D01*
X217133Y552624D01*
X216977Y552284D01*
X216813Y551948D01*
X216640Y551616D01*
X216460Y551288D01*
X216272Y550965D01*
X216076Y550647D01*
X215872Y550333D01*
X215660Y550025D01*
X215441Y549722D01*
X215214Y549424D01*
X214981Y549132D01*
X214740Y548846D01*
X214492Y548565D01*
X214238Y548291D01*
X213976Y548024D01*
X213709Y547762D01*
X213435Y547508D01*
X213154Y547260D01*
X212868Y547019D01*
X212576Y546786D01*
X212278Y546559D01*
X211975Y546340D01*
X211667Y546128D01*
X211353Y545924D01*
X211035Y545728D01*
X210712Y545540D01*
X210384Y545360D01*
X210052Y545187D01*
X209716Y545023D01*
X209376Y544867D01*
X209032Y544720D01*
X208685Y544581D01*
X208334Y544451D01*
X207981Y544329D01*
X207624Y544216D01*
X207265Y544112D01*
X206903Y544017D01*
X206539Y543930D01*
X206173Y543853D01*
X205805Y543784D01*
X205436Y543725D01*
X205066Y543675D01*
X204694Y543633D01*
X204321Y543601D01*
X203948Y543578D01*
X203574Y543565D01*
X203200Y543560D01*
X202826Y543565D01*
X202452Y543578D01*
X202079Y543601D01*
X201706Y543633D01*
X201334Y543675D01*
X200964Y543725D01*
X200595Y543784D01*
X200227Y543853D01*
X199861Y543930D01*
X199497Y544017D01*
X199135Y544112D01*
X198776Y544216D01*
X198419Y544329D01*
X198066Y544451D01*
X197715Y544581D01*
X197368Y544720D01*
X197024Y544867D01*
X196684Y545023D01*
X196348Y545187D01*
X196016Y545360D01*
X195688Y545540D01*
X195365Y545728D01*
X195047Y545924D01*
X194733Y546128D01*
X194425Y546340D01*
X194122Y546559D01*
X193824Y546786D01*
X193532Y547019D01*
X193246Y547260D01*
X192965Y547508D01*
X192691Y547762D01*
X192424Y548024D01*
X192162Y548291D01*
X191908Y548565D01*
X191660Y548846D01*
X191419Y549132D01*
X191186Y549424D01*
X190959Y549722D01*
X190740Y550025D01*
X190528Y550333D01*
X190324Y550647D01*
X190128Y550965D01*
X189940Y551288D01*
X189760Y551616D01*
X189587Y551948D01*
X189423Y552284D01*
X189267Y552624D01*
X189120Y552968D01*
X188981Y553315D01*
X188851Y553666D01*
X188729Y554019D01*
X188616Y554376D01*
X188512Y554735D01*
X188417Y555097D01*
X188330Y555461D01*
X188253Y555827D01*
X188184Y556195D01*
X188125Y556564D01*
X188075Y556934D01*
X188033Y557306D01*
X188001Y557679D01*
X187978Y558052D01*
X187965Y558426D01*
X187960Y558800D01*
X10160Y558800D02*
X10165Y559174D01*
X10178Y559548D01*
X10201Y559921D01*
X10233Y560294D01*
X10275Y560666D01*
X10325Y561036D01*
X10384Y561405D01*
X10453Y561773D01*
X10530Y562139D01*
X10617Y562503D01*
X10712Y562865D01*
X10816Y563224D01*
X10929Y563581D01*
X11051Y563934D01*
X11181Y564285D01*
X11320Y564632D01*
X11467Y564976D01*
X11623Y565316D01*
X11787Y565652D01*
X11960Y565984D01*
X12140Y566312D01*
X12328Y566635D01*
X12524Y566953D01*
X12728Y567267D01*
X12940Y567575D01*
X13159Y567878D01*
X13386Y568176D01*
X13619Y568468D01*
X13860Y568754D01*
X14108Y569035D01*
X14362Y569309D01*
X14624Y569576D01*
X14891Y569838D01*
X15165Y570092D01*
X15446Y570340D01*
X15732Y570581D01*
X16024Y570814D01*
X16322Y571041D01*
X16625Y571260D01*
X16933Y571472D01*
X17247Y571676D01*
X17565Y571872D01*
X17888Y572060D01*
X18216Y572240D01*
X18548Y572413D01*
X18884Y572577D01*
X19224Y572733D01*
X19568Y572880D01*
X19915Y573019D01*
X20266Y573149D01*
X20619Y573271D01*
X20976Y573384D01*
X21335Y573488D01*
X21697Y573583D01*
X22061Y573670D01*
X22427Y573747D01*
X22795Y573816D01*
X23164Y573875D01*
X23534Y573925D01*
X23906Y573967D01*
X24279Y573999D01*
X24652Y574022D01*
X25026Y574035D01*
X25400Y574040D01*
X25774Y574035D01*
X26148Y574022D01*
X26521Y573999D01*
X26894Y573967D01*
X27266Y573925D01*
X27636Y573875D01*
X28005Y573816D01*
X28373Y573747D01*
X28739Y573670D01*
X29103Y573583D01*
X29465Y573488D01*
X29824Y573384D01*
X30181Y573271D01*
X30534Y573149D01*
X30885Y573019D01*
X31232Y572880D01*
X31576Y572733D01*
X31916Y572577D01*
X32252Y572413D01*
X32584Y572240D01*
X32912Y572060D01*
X33235Y571872D01*
X33553Y571676D01*
X33867Y571472D01*
X34175Y571260D01*
X34478Y571041D01*
X34776Y570814D01*
X35068Y570581D01*
X35354Y570340D01*
X35635Y570092D01*
X35909Y569838D01*
X36176Y569576D01*
X36438Y569309D01*
X36692Y569035D01*
X36940Y568754D01*
X37181Y568468D01*
X37414Y568176D01*
X37641Y567878D01*
X37860Y567575D01*
X38072Y567267D01*
X38276Y566953D01*
X38472Y566635D01*
X38660Y566312D01*
X38840Y565984D01*
X39013Y565652D01*
X39177Y565316D01*
X39333Y564976D01*
X39480Y564632D01*
X39619Y564285D01*
X39749Y563934D01*
X39871Y563581D01*
X39984Y563224D01*
X40088Y562865D01*
X40183Y562503D01*
X40270Y562139D01*
X40347Y561773D01*
X40416Y561405D01*
X40475Y561036D01*
X40525Y560666D01*
X40567Y560294D01*
X40599Y559921D01*
X40622Y559548D01*
X40635Y559174D01*
X40640Y558800D01*
X40635Y558426D01*
X40622Y558052D01*
X40599Y557679D01*
X40567Y557306D01*
X40525Y556934D01*
X40475Y556564D01*
X40416Y556195D01*
X40347Y555827D01*
X40270Y555461D01*
X40183Y555097D01*
X40088Y554735D01*
X39984Y554376D01*
X39871Y554019D01*
X39749Y553666D01*
X39619Y553315D01*
X39480Y552968D01*
X39333Y552624D01*
X39177Y552284D01*
X39013Y551948D01*
X38840Y551616D01*
X38660Y551288D01*
X38472Y550965D01*
X38276Y550647D01*
X38072Y550333D01*
X37860Y550025D01*
X37641Y549722D01*
X37414Y549424D01*
X37181Y549132D01*
X36940Y548846D01*
X36692Y548565D01*
X36438Y548291D01*
X36176Y548024D01*
X35909Y547762D01*
X35635Y547508D01*
X35354Y547260D01*
X35068Y547019D01*
X34776Y546786D01*
X34478Y546559D01*
X34175Y546340D01*
X33867Y546128D01*
X33553Y545924D01*
X33235Y545728D01*
X32912Y545540D01*
X32584Y545360D01*
X32252Y545187D01*
X31916Y545023D01*
X31576Y544867D01*
X31232Y544720D01*
X30885Y544581D01*
X30534Y544451D01*
X30181Y544329D01*
X29824Y544216D01*
X29465Y544112D01*
X29103Y544017D01*
X28739Y543930D01*
X28373Y543853D01*
X28005Y543784D01*
X27636Y543725D01*
X27266Y543675D01*
X26894Y543633D01*
X26521Y543601D01*
X26148Y543578D01*
X25774Y543565D01*
X25400Y543560D01*
X25026Y543565D01*
X24652Y543578D01*
X24279Y543601D01*
X23906Y543633D01*
X23534Y543675D01*
X23164Y543725D01*
X22795Y543784D01*
X22427Y543853D01*
X22061Y543930D01*
X21697Y544017D01*
X21335Y544112D01*
X20976Y544216D01*
X20619Y544329D01*
X20266Y544451D01*
X19915Y544581D01*
X19568Y544720D01*
X19224Y544867D01*
X18884Y545023D01*
X18548Y545187D01*
X18216Y545360D01*
X17888Y545540D01*
X17565Y545728D01*
X17247Y545924D01*
X16933Y546128D01*
X16625Y546340D01*
X16322Y546559D01*
X16024Y546786D01*
X15732Y547019D01*
X15446Y547260D01*
X15165Y547508D01*
X14891Y547762D01*
X14624Y548024D01*
X14362Y548291D01*
X14108Y548565D01*
X13860Y548846D01*
X13619Y549132D01*
X13386Y549424D01*
X13159Y549722D01*
X12940Y550025D01*
X12728Y550333D01*
X12524Y550647D01*
X12328Y550965D01*
X12140Y551288D01*
X11960Y551616D01*
X11787Y551948D01*
X11623Y552284D01*
X11467Y552624D01*
X11320Y552968D01*
X11181Y553315D01*
X11051Y553666D01*
X10929Y554019D01*
X10816Y554376D01*
X10712Y554735D01*
X10617Y555097D01*
X10530Y555461D01*
X10453Y555827D01*
X10384Y556195D01*
X10325Y556564D01*
X10275Y556934D01*
X10233Y557306D01*
X10201Y557679D01*
X10178Y558052D01*
X10165Y558426D01*
X10160Y558800D01*
X82150Y47526D02*
X82152Y47639D01*
X82158Y47753D01*
X82168Y47866D01*
X82182Y47978D01*
X82199Y48090D01*
X82221Y48202D01*
X82247Y48312D01*
X82276Y48422D01*
X82309Y48530D01*
X82346Y48638D01*
X82387Y48743D01*
X82431Y48848D01*
X82479Y48951D01*
X82530Y49052D01*
X82585Y49151D01*
X82644Y49248D01*
X82706Y49343D01*
X82771Y49436D01*
X82839Y49527D01*
X82910Y49615D01*
X82985Y49701D01*
X83062Y49784D01*
X83142Y49864D01*
X83225Y49941D01*
X83311Y50016D01*
X83399Y50087D01*
X83490Y50155D01*
X83583Y50220D01*
X83678Y50282D01*
X83775Y50341D01*
X83874Y50396D01*
X83975Y50447D01*
X84078Y50495D01*
X84183Y50539D01*
X84288Y50580D01*
X84396Y50617D01*
X84504Y50650D01*
X84614Y50679D01*
X84724Y50705D01*
X84836Y50727D01*
X84948Y50744D01*
X85060Y50758D01*
X85173Y50768D01*
X85287Y50774D01*
X85400Y50776D01*
X85513Y50774D01*
X85627Y50768D01*
X85740Y50758D01*
X85852Y50744D01*
X85964Y50727D01*
X86076Y50705D01*
X86186Y50679D01*
X86296Y50650D01*
X86404Y50617D01*
X86512Y50580D01*
X86617Y50539D01*
X86722Y50495D01*
X86825Y50447D01*
X86926Y50396D01*
X87025Y50341D01*
X87122Y50282D01*
X87217Y50220D01*
X87310Y50155D01*
X87401Y50087D01*
X87489Y50016D01*
X87575Y49941D01*
X87658Y49864D01*
X87738Y49784D01*
X87815Y49701D01*
X87890Y49615D01*
X87961Y49527D01*
X88029Y49436D01*
X88094Y49343D01*
X88156Y49248D01*
X88215Y49151D01*
X88270Y49052D01*
X88321Y48951D01*
X88369Y48848D01*
X88413Y48743D01*
X88454Y48638D01*
X88491Y48530D01*
X88524Y48422D01*
X88553Y48312D01*
X88579Y48202D01*
X88601Y48090D01*
X88618Y47978D01*
X88632Y47866D01*
X88642Y47753D01*
X88648Y47639D01*
X88650Y47526D01*
X88648Y47413D01*
X88642Y47299D01*
X88632Y47186D01*
X88618Y47074D01*
X88601Y46962D01*
X88579Y46850D01*
X88553Y46740D01*
X88524Y46630D01*
X88491Y46522D01*
X88454Y46414D01*
X88413Y46309D01*
X88369Y46204D01*
X88321Y46101D01*
X88270Y46000D01*
X88215Y45901D01*
X88156Y45804D01*
X88094Y45709D01*
X88029Y45616D01*
X87961Y45525D01*
X87890Y45437D01*
X87815Y45351D01*
X87738Y45268D01*
X87658Y45188D01*
X87575Y45111D01*
X87489Y45036D01*
X87401Y44965D01*
X87310Y44897D01*
X87217Y44832D01*
X87122Y44770D01*
X87025Y44711D01*
X86926Y44656D01*
X86825Y44605D01*
X86722Y44557D01*
X86617Y44513D01*
X86512Y44472D01*
X86404Y44435D01*
X86296Y44402D01*
X86186Y44373D01*
X86076Y44347D01*
X85964Y44325D01*
X85852Y44308D01*
X85740Y44294D01*
X85627Y44284D01*
X85513Y44278D01*
X85400Y44276D01*
X85287Y44278D01*
X85173Y44284D01*
X85060Y44294D01*
X84948Y44308D01*
X84836Y44325D01*
X84724Y44347D01*
X84614Y44373D01*
X84504Y44402D01*
X84396Y44435D01*
X84288Y44472D01*
X84183Y44513D01*
X84078Y44557D01*
X83975Y44605D01*
X83874Y44656D01*
X83775Y44711D01*
X83678Y44770D01*
X83583Y44832D01*
X83490Y44897D01*
X83399Y44965D01*
X83311Y45036D01*
X83225Y45111D01*
X83142Y45188D01*
X83062Y45268D01*
X82985Y45351D01*
X82910Y45437D01*
X82839Y45525D01*
X82771Y45616D01*
X82706Y45709D01*
X82644Y45804D01*
X82585Y45901D01*
X82530Y46000D01*
X82479Y46101D01*
X82431Y46204D01*
X82387Y46309D01*
X82346Y46414D01*
X82309Y46522D01*
X82276Y46630D01*
X82247Y46740D01*
X82221Y46850D01*
X82199Y46962D01*
X82182Y47074D01*
X82168Y47186D01*
X82158Y47299D01*
X82152Y47413D01*
X82150Y47526D01*
X139950Y47526D02*
X139952Y47639D01*
X139958Y47753D01*
X139968Y47866D01*
X139982Y47978D01*
X139999Y48090D01*
X140021Y48202D01*
X140047Y48312D01*
X140076Y48422D01*
X140109Y48530D01*
X140146Y48638D01*
X140187Y48743D01*
X140231Y48848D01*
X140279Y48951D01*
X140330Y49052D01*
X140385Y49151D01*
X140444Y49248D01*
X140506Y49343D01*
X140571Y49436D01*
X140639Y49527D01*
X140710Y49615D01*
X140785Y49701D01*
X140862Y49784D01*
X140942Y49864D01*
X141025Y49941D01*
X141111Y50016D01*
X141199Y50087D01*
X141290Y50155D01*
X141383Y50220D01*
X141478Y50282D01*
X141575Y50341D01*
X141674Y50396D01*
X141775Y50447D01*
X141878Y50495D01*
X141983Y50539D01*
X142088Y50580D01*
X142196Y50617D01*
X142304Y50650D01*
X142414Y50679D01*
X142524Y50705D01*
X142636Y50727D01*
X142748Y50744D01*
X142860Y50758D01*
X142973Y50768D01*
X143087Y50774D01*
X143200Y50776D01*
X143313Y50774D01*
X143427Y50768D01*
X143540Y50758D01*
X143652Y50744D01*
X143764Y50727D01*
X143876Y50705D01*
X143986Y50679D01*
X144096Y50650D01*
X144204Y50617D01*
X144312Y50580D01*
X144417Y50539D01*
X144522Y50495D01*
X144625Y50447D01*
X144726Y50396D01*
X144825Y50341D01*
X144922Y50282D01*
X145017Y50220D01*
X145110Y50155D01*
X145201Y50087D01*
X145289Y50016D01*
X145375Y49941D01*
X145458Y49864D01*
X145538Y49784D01*
X145615Y49701D01*
X145690Y49615D01*
X145761Y49527D01*
X145829Y49436D01*
X145894Y49343D01*
X145956Y49248D01*
X146015Y49151D01*
X146070Y49052D01*
X146121Y48951D01*
X146169Y48848D01*
X146213Y48743D01*
X146254Y48638D01*
X146291Y48530D01*
X146324Y48422D01*
X146353Y48312D01*
X146379Y48202D01*
X146401Y48090D01*
X146418Y47978D01*
X146432Y47866D01*
X146442Y47753D01*
X146448Y47639D01*
X146450Y47526D01*
X146448Y47413D01*
X146442Y47299D01*
X146432Y47186D01*
X146418Y47074D01*
X146401Y46962D01*
X146379Y46850D01*
X146353Y46740D01*
X146324Y46630D01*
X146291Y46522D01*
X146254Y46414D01*
X146213Y46309D01*
X146169Y46204D01*
X146121Y46101D01*
X146070Y46000D01*
X146015Y45901D01*
X145956Y45804D01*
X145894Y45709D01*
X145829Y45616D01*
X145761Y45525D01*
X145690Y45437D01*
X145615Y45351D01*
X145538Y45268D01*
X145458Y45188D01*
X145375Y45111D01*
X145289Y45036D01*
X145201Y44965D01*
X145110Y44897D01*
X145017Y44832D01*
X144922Y44770D01*
X144825Y44711D01*
X144726Y44656D01*
X144625Y44605D01*
X144522Y44557D01*
X144417Y44513D01*
X144312Y44472D01*
X144204Y44435D01*
X144096Y44402D01*
X143986Y44373D01*
X143876Y44347D01*
X143764Y44325D01*
X143652Y44308D01*
X143540Y44294D01*
X143427Y44284D01*
X143313Y44278D01*
X143200Y44276D01*
X143087Y44278D01*
X142973Y44284D01*
X142860Y44294D01*
X142748Y44308D01*
X142636Y44325D01*
X142524Y44347D01*
X142414Y44373D01*
X142304Y44402D01*
X142196Y44435D01*
X142088Y44472D01*
X141983Y44513D01*
X141878Y44557D01*
X141775Y44605D01*
X141674Y44656D01*
X141575Y44711D01*
X141478Y44770D01*
X141383Y44832D01*
X141290Y44897D01*
X141199Y44965D01*
X141111Y45036D01*
X141025Y45111D01*
X140942Y45188D01*
X140862Y45268D01*
X140785Y45351D01*
X140710Y45437D01*
X140639Y45525D01*
X140571Y45616D01*
X140506Y45709D01*
X140444Y45804D01*
X140385Y45901D01*
X140330Y46000D01*
X140279Y46101D01*
X140231Y46204D01*
X140187Y46309D01*
X140146Y46414D01*
X140109Y46522D01*
X140076Y46630D01*
X140047Y46740D01*
X140021Y46850D01*
X139999Y46962D01*
X139982Y47074D01*
X139968Y47186D01*
X139958Y47299D01*
X139952Y47413D01*
X139950Y47526D01*
D15*
X68100Y14176D02*
X68100Y7976D01*
X74100Y7976D02*
X74100Y14176D01*
X74098Y14284D01*
X74092Y14392D01*
X74082Y14500D01*
X74069Y14608D01*
X74051Y14715D01*
X74030Y14821D01*
X74005Y14926D01*
X73976Y15031D01*
X73943Y15134D01*
X73907Y15236D01*
X73866Y15337D01*
X73823Y15436D01*
X73775Y15533D01*
X73725Y15629D01*
X73671Y15723D01*
X73613Y15814D01*
X73552Y15904D01*
X73488Y15992D01*
X73421Y16077D01*
X73351Y16159D01*
X73278Y16239D01*
X73202Y16316D01*
X73123Y16391D01*
X73042Y16462D01*
X72958Y16531D01*
X72872Y16597D01*
X72784Y16659D01*
X72693Y16718D01*
X72600Y16774D01*
X72505Y16827D01*
X72409Y16876D01*
X72310Y16921D01*
X72210Y16963D01*
X72109Y17001D01*
X72006Y17036D01*
X71903Y17067D01*
X71798Y17094D01*
X71692Y17117D01*
X71585Y17136D01*
X71478Y17152D01*
X71370Y17164D01*
X71262Y17172D01*
X71154Y17176D01*
X71046Y17176D01*
X70938Y17172D01*
X70830Y17164D01*
X70722Y17152D01*
X70615Y17136D01*
X70508Y17117D01*
X70402Y17094D01*
X70297Y17067D01*
X70194Y17036D01*
X70091Y17001D01*
X69990Y16963D01*
X69890Y16921D01*
X69791Y16876D01*
X69695Y16827D01*
X69600Y16774D01*
X69507Y16718D01*
X69416Y16659D01*
X69328Y16597D01*
X69242Y16531D01*
X69158Y16462D01*
X69077Y16391D01*
X68998Y16316D01*
X68922Y16239D01*
X68849Y16159D01*
X68779Y16077D01*
X68712Y15992D01*
X68648Y15904D01*
X68587Y15814D01*
X68529Y15723D01*
X68475Y15629D01*
X68425Y15533D01*
X68377Y15436D01*
X68334Y15337D01*
X68293Y15236D01*
X68257Y15134D01*
X68224Y15031D01*
X68195Y14926D01*
X68170Y14821D01*
X68149Y14715D01*
X68131Y14608D01*
X68118Y14500D01*
X68108Y14392D01*
X68102Y14284D01*
X68100Y14176D01*
X68100Y7976D02*
X68102Y7868D01*
X68108Y7760D01*
X68118Y7652D01*
X68131Y7544D01*
X68149Y7437D01*
X68170Y7331D01*
X68195Y7226D01*
X68224Y7121D01*
X68257Y7018D01*
X68293Y6916D01*
X68334Y6815D01*
X68377Y6716D01*
X68425Y6619D01*
X68475Y6523D01*
X68529Y6429D01*
X68587Y6338D01*
X68648Y6248D01*
X68712Y6160D01*
X68779Y6075D01*
X68849Y5993D01*
X68922Y5913D01*
X68998Y5836D01*
X69077Y5761D01*
X69158Y5690D01*
X69242Y5621D01*
X69328Y5555D01*
X69416Y5493D01*
X69507Y5434D01*
X69600Y5378D01*
X69695Y5325D01*
X69791Y5276D01*
X69890Y5231D01*
X69990Y5189D01*
X70091Y5151D01*
X70194Y5116D01*
X70297Y5085D01*
X70402Y5058D01*
X70508Y5035D01*
X70615Y5016D01*
X70722Y5000D01*
X70830Y4988D01*
X70938Y4980D01*
X71046Y4976D01*
X71154Y4976D01*
X71262Y4980D01*
X71370Y4988D01*
X71478Y5000D01*
X71585Y5016D01*
X71692Y5035D01*
X71798Y5058D01*
X71903Y5085D01*
X72006Y5116D01*
X72109Y5151D01*
X72210Y5189D01*
X72310Y5231D01*
X72409Y5276D01*
X72505Y5325D01*
X72600Y5378D01*
X72693Y5434D01*
X72784Y5493D01*
X72872Y5555D01*
X72958Y5621D01*
X73042Y5690D01*
X73123Y5761D01*
X73202Y5836D01*
X73278Y5913D01*
X73351Y5993D01*
X73421Y6075D01*
X73488Y6160D01*
X73552Y6248D01*
X73613Y6338D01*
X73671Y6429D01*
X73725Y6523D01*
X73775Y6619D01*
X73823Y6716D01*
X73866Y6815D01*
X73907Y6916D01*
X73943Y7018D01*
X73976Y7121D01*
X74005Y7226D01*
X74030Y7331D01*
X74051Y7437D01*
X74069Y7544D01*
X74082Y7652D01*
X74092Y7760D01*
X74098Y7868D01*
X74100Y7976D01*
X68100Y47326D02*
X68100Y58326D01*
X74100Y58326D02*
X74100Y47326D01*
X74098Y47218D01*
X74092Y47110D01*
X74082Y47002D01*
X74069Y46894D01*
X74051Y46787D01*
X74030Y46681D01*
X74005Y46576D01*
X73976Y46471D01*
X73943Y46368D01*
X73907Y46266D01*
X73866Y46165D01*
X73823Y46066D01*
X73775Y45969D01*
X73725Y45873D01*
X73671Y45779D01*
X73613Y45688D01*
X73552Y45598D01*
X73488Y45510D01*
X73421Y45425D01*
X73351Y45343D01*
X73278Y45263D01*
X73202Y45186D01*
X73123Y45111D01*
X73042Y45040D01*
X72958Y44971D01*
X72872Y44905D01*
X72784Y44843D01*
X72693Y44784D01*
X72600Y44728D01*
X72505Y44675D01*
X72409Y44626D01*
X72310Y44581D01*
X72210Y44539D01*
X72109Y44501D01*
X72006Y44466D01*
X71903Y44435D01*
X71798Y44408D01*
X71692Y44385D01*
X71585Y44366D01*
X71478Y44350D01*
X71370Y44338D01*
X71262Y44330D01*
X71154Y44326D01*
X71046Y44326D01*
X70938Y44330D01*
X70830Y44338D01*
X70722Y44350D01*
X70615Y44366D01*
X70508Y44385D01*
X70402Y44408D01*
X70297Y44435D01*
X70194Y44466D01*
X70091Y44501D01*
X69990Y44539D01*
X69890Y44581D01*
X69791Y44626D01*
X69695Y44675D01*
X69600Y44728D01*
X69507Y44784D01*
X69416Y44843D01*
X69328Y44905D01*
X69242Y44971D01*
X69158Y45040D01*
X69077Y45111D01*
X68998Y45186D01*
X68922Y45263D01*
X68849Y45343D01*
X68779Y45425D01*
X68712Y45510D01*
X68648Y45598D01*
X68587Y45688D01*
X68529Y45779D01*
X68475Y45873D01*
X68425Y45969D01*
X68377Y46066D01*
X68334Y46165D01*
X68293Y46266D01*
X68257Y46368D01*
X68224Y46471D01*
X68195Y46576D01*
X68170Y46681D01*
X68149Y46787D01*
X68131Y46894D01*
X68118Y47002D01*
X68108Y47110D01*
X68102Y47218D01*
X68100Y47326D01*
X68100Y58326D02*
X68102Y58434D01*
X68108Y58542D01*
X68118Y58650D01*
X68131Y58758D01*
X68149Y58865D01*
X68170Y58971D01*
X68195Y59076D01*
X68224Y59181D01*
X68257Y59284D01*
X68293Y59386D01*
X68334Y59487D01*
X68377Y59586D01*
X68425Y59683D01*
X68475Y59779D01*
X68529Y59873D01*
X68587Y59964D01*
X68648Y60054D01*
X68712Y60142D01*
X68779Y60227D01*
X68849Y60309D01*
X68922Y60389D01*
X68998Y60466D01*
X69077Y60541D01*
X69158Y60612D01*
X69242Y60681D01*
X69328Y60747D01*
X69416Y60809D01*
X69507Y60868D01*
X69600Y60924D01*
X69695Y60977D01*
X69791Y61026D01*
X69890Y61071D01*
X69990Y61113D01*
X70091Y61151D01*
X70194Y61186D01*
X70297Y61217D01*
X70402Y61244D01*
X70508Y61267D01*
X70615Y61286D01*
X70722Y61302D01*
X70830Y61314D01*
X70938Y61322D01*
X71046Y61326D01*
X71154Y61326D01*
X71262Y61322D01*
X71370Y61314D01*
X71478Y61302D01*
X71585Y61286D01*
X71692Y61267D01*
X71798Y61244D01*
X71903Y61217D01*
X72006Y61186D01*
X72109Y61151D01*
X72210Y61113D01*
X72310Y61071D01*
X72409Y61026D01*
X72505Y60977D01*
X72600Y60924D01*
X72693Y60868D01*
X72784Y60809D01*
X72872Y60747D01*
X72958Y60681D01*
X73042Y60612D01*
X73123Y60541D01*
X73202Y60466D01*
X73278Y60389D01*
X73351Y60309D01*
X73421Y60227D01*
X73488Y60142D01*
X73552Y60054D01*
X73613Y59964D01*
X73671Y59873D01*
X73725Y59779D01*
X73775Y59683D01*
X73823Y59586D01*
X73866Y59487D01*
X73907Y59386D01*
X73943Y59284D01*
X73976Y59181D01*
X74005Y59076D01*
X74030Y58971D01*
X74051Y58865D01*
X74069Y58758D01*
X74082Y58650D01*
X74092Y58542D01*
X74098Y58434D01*
X74100Y58326D01*
X154500Y14176D02*
X154500Y7976D01*
X160500Y7976D02*
X160500Y14176D01*
X160498Y14284D01*
X160492Y14392D01*
X160482Y14500D01*
X160469Y14608D01*
X160451Y14715D01*
X160430Y14821D01*
X160405Y14926D01*
X160376Y15031D01*
X160343Y15134D01*
X160307Y15236D01*
X160266Y15337D01*
X160223Y15436D01*
X160175Y15533D01*
X160125Y15629D01*
X160071Y15723D01*
X160013Y15814D01*
X159952Y15904D01*
X159888Y15992D01*
X159821Y16077D01*
X159751Y16159D01*
X159678Y16239D01*
X159602Y16316D01*
X159523Y16391D01*
X159442Y16462D01*
X159358Y16531D01*
X159272Y16597D01*
X159184Y16659D01*
X159093Y16718D01*
X159000Y16774D01*
X158905Y16827D01*
X158809Y16876D01*
X158710Y16921D01*
X158610Y16963D01*
X158509Y17001D01*
X158406Y17036D01*
X158303Y17067D01*
X158198Y17094D01*
X158092Y17117D01*
X157985Y17136D01*
X157878Y17152D01*
X157770Y17164D01*
X157662Y17172D01*
X157554Y17176D01*
X157446Y17176D01*
X157338Y17172D01*
X157230Y17164D01*
X157122Y17152D01*
X157015Y17136D01*
X156908Y17117D01*
X156802Y17094D01*
X156697Y17067D01*
X156594Y17036D01*
X156491Y17001D01*
X156390Y16963D01*
X156290Y16921D01*
X156191Y16876D01*
X156095Y16827D01*
X156000Y16774D01*
X155907Y16718D01*
X155816Y16659D01*
X155728Y16597D01*
X155642Y16531D01*
X155558Y16462D01*
X155477Y16391D01*
X155398Y16316D01*
X155322Y16239D01*
X155249Y16159D01*
X155179Y16077D01*
X155112Y15992D01*
X155048Y15904D01*
X154987Y15814D01*
X154929Y15723D01*
X154875Y15629D01*
X154825Y15533D01*
X154777Y15436D01*
X154734Y15337D01*
X154693Y15236D01*
X154657Y15134D01*
X154624Y15031D01*
X154595Y14926D01*
X154570Y14821D01*
X154549Y14715D01*
X154531Y14608D01*
X154518Y14500D01*
X154508Y14392D01*
X154502Y14284D01*
X154500Y14176D01*
X154500Y7976D02*
X154502Y7868D01*
X154508Y7760D01*
X154518Y7652D01*
X154531Y7544D01*
X154549Y7437D01*
X154570Y7331D01*
X154595Y7226D01*
X154624Y7121D01*
X154657Y7018D01*
X154693Y6916D01*
X154734Y6815D01*
X154777Y6716D01*
X154825Y6619D01*
X154875Y6523D01*
X154929Y6429D01*
X154987Y6338D01*
X155048Y6248D01*
X155112Y6160D01*
X155179Y6075D01*
X155249Y5993D01*
X155322Y5913D01*
X155398Y5836D01*
X155477Y5761D01*
X155558Y5690D01*
X155642Y5621D01*
X155728Y5555D01*
X155816Y5493D01*
X155907Y5434D01*
X156000Y5378D01*
X156095Y5325D01*
X156191Y5276D01*
X156290Y5231D01*
X156390Y5189D01*
X156491Y5151D01*
X156594Y5116D01*
X156697Y5085D01*
X156802Y5058D01*
X156908Y5035D01*
X157015Y5016D01*
X157122Y5000D01*
X157230Y4988D01*
X157338Y4980D01*
X157446Y4976D01*
X157554Y4976D01*
X157662Y4980D01*
X157770Y4988D01*
X157878Y5000D01*
X157985Y5016D01*
X158092Y5035D01*
X158198Y5058D01*
X158303Y5085D01*
X158406Y5116D01*
X158509Y5151D01*
X158610Y5189D01*
X158710Y5231D01*
X158809Y5276D01*
X158905Y5325D01*
X159000Y5378D01*
X159093Y5434D01*
X159184Y5493D01*
X159272Y5555D01*
X159358Y5621D01*
X159442Y5690D01*
X159523Y5761D01*
X159602Y5836D01*
X159678Y5913D01*
X159751Y5993D01*
X159821Y6075D01*
X159888Y6160D01*
X159952Y6248D01*
X160013Y6338D01*
X160071Y6429D01*
X160125Y6523D01*
X160175Y6619D01*
X160223Y6716D01*
X160266Y6815D01*
X160307Y6916D01*
X160343Y7018D01*
X160376Y7121D01*
X160405Y7226D01*
X160430Y7331D01*
X160451Y7437D01*
X160469Y7544D01*
X160482Y7652D01*
X160492Y7760D01*
X160498Y7868D01*
X160500Y7976D01*
X154500Y47326D02*
X154500Y58326D01*
X160500Y58326D02*
X160500Y47326D01*
X160498Y47218D01*
X160492Y47110D01*
X160482Y47002D01*
X160469Y46894D01*
X160451Y46787D01*
X160430Y46681D01*
X160405Y46576D01*
X160376Y46471D01*
X160343Y46368D01*
X160307Y46266D01*
X160266Y46165D01*
X160223Y46066D01*
X160175Y45969D01*
X160125Y45873D01*
X160071Y45779D01*
X160013Y45688D01*
X159952Y45598D01*
X159888Y45510D01*
X159821Y45425D01*
X159751Y45343D01*
X159678Y45263D01*
X159602Y45186D01*
X159523Y45111D01*
X159442Y45040D01*
X159358Y44971D01*
X159272Y44905D01*
X159184Y44843D01*
X159093Y44784D01*
X159000Y44728D01*
X158905Y44675D01*
X158809Y44626D01*
X158710Y44581D01*
X158610Y44539D01*
X158509Y44501D01*
X158406Y44466D01*
X158303Y44435D01*
X158198Y44408D01*
X158092Y44385D01*
X157985Y44366D01*
X157878Y44350D01*
X157770Y44338D01*
X157662Y44330D01*
X157554Y44326D01*
X157446Y44326D01*
X157338Y44330D01*
X157230Y44338D01*
X157122Y44350D01*
X157015Y44366D01*
X156908Y44385D01*
X156802Y44408D01*
X156697Y44435D01*
X156594Y44466D01*
X156491Y44501D01*
X156390Y44539D01*
X156290Y44581D01*
X156191Y44626D01*
X156095Y44675D01*
X156000Y44728D01*
X155907Y44784D01*
X155816Y44843D01*
X155728Y44905D01*
X155642Y44971D01*
X155558Y45040D01*
X155477Y45111D01*
X155398Y45186D01*
X155322Y45263D01*
X155249Y45343D01*
X155179Y45425D01*
X155112Y45510D01*
X155048Y45598D01*
X154987Y45688D01*
X154929Y45779D01*
X154875Y45873D01*
X154825Y45969D01*
X154777Y46066D01*
X154734Y46165D01*
X154693Y46266D01*
X154657Y46368D01*
X154624Y46471D01*
X154595Y46576D01*
X154570Y46681D01*
X154549Y46787D01*
X154531Y46894D01*
X154518Y47002D01*
X154508Y47110D01*
X154502Y47218D01*
X154500Y47326D01*
X154500Y58326D02*
X154502Y58434D01*
X154508Y58542D01*
X154518Y58650D01*
X154531Y58758D01*
X154549Y58865D01*
X154570Y58971D01*
X154595Y59076D01*
X154624Y59181D01*
X154657Y59284D01*
X154693Y59386D01*
X154734Y59487D01*
X154777Y59586D01*
X154825Y59683D01*
X154875Y59779D01*
X154929Y59873D01*
X154987Y59964D01*
X155048Y60054D01*
X155112Y60142D01*
X155179Y60227D01*
X155249Y60309D01*
X155322Y60389D01*
X155398Y60466D01*
X155477Y60541D01*
X155558Y60612D01*
X155642Y60681D01*
X155728Y60747D01*
X155816Y60809D01*
X155907Y60868D01*
X156000Y60924D01*
X156095Y60977D01*
X156191Y61026D01*
X156290Y61071D01*
X156390Y61113D01*
X156491Y61151D01*
X156594Y61186D01*
X156697Y61217D01*
X156802Y61244D01*
X156908Y61267D01*
X157015Y61286D01*
X157122Y61302D01*
X157230Y61314D01*
X157338Y61322D01*
X157446Y61326D01*
X157554Y61326D01*
X157662Y61322D01*
X157770Y61314D01*
X157878Y61302D01*
X157985Y61286D01*
X158092Y61267D01*
X158198Y61244D01*
X158303Y61217D01*
X158406Y61186D01*
X158509Y61151D01*
X158610Y61113D01*
X158710Y61071D01*
X158809Y61026D01*
X158905Y60977D01*
X159000Y60924D01*
X159093Y60868D01*
X159184Y60809D01*
X159272Y60747D01*
X159358Y60681D01*
X159442Y60612D01*
X159523Y60541D01*
X159602Y60466D01*
X159678Y60389D01*
X159751Y60309D01*
X159821Y60227D01*
X159888Y60142D01*
X159952Y60054D01*
X160013Y59964D01*
X160071Y59873D01*
X160125Y59779D01*
X160175Y59683D01*
X160223Y59586D01*
X160266Y59487D01*
X160307Y59386D01*
X160343Y59284D01*
X160376Y59181D01*
X160405Y59076D01*
X160430Y58971D01*
X160451Y58865D01*
X160469Y58758D01*
X160482Y58650D01*
X160492Y58542D01*
X160498Y58434D01*
X160500Y58326D01*
D14*
X243840Y25400D02*
X243845Y25774D01*
X243858Y26148D01*
X243881Y26521D01*
X243913Y26894D01*
X243955Y27266D01*
X244005Y27636D01*
X244064Y28005D01*
X244133Y28373D01*
X244210Y28739D01*
X244297Y29103D01*
X244392Y29465D01*
X244496Y29824D01*
X244609Y30181D01*
X244731Y30534D01*
X244861Y30885D01*
X245000Y31232D01*
X245147Y31576D01*
X245303Y31916D01*
X245467Y32252D01*
X245640Y32584D01*
X245820Y32912D01*
X246008Y33235D01*
X246204Y33553D01*
X246408Y33867D01*
X246620Y34175D01*
X246839Y34478D01*
X247066Y34776D01*
X247299Y35068D01*
X247540Y35354D01*
X247788Y35635D01*
X248042Y35909D01*
X248304Y36176D01*
X248571Y36438D01*
X248845Y36692D01*
X249126Y36940D01*
X249412Y37181D01*
X249704Y37414D01*
X250002Y37641D01*
X250305Y37860D01*
X250613Y38072D01*
X250927Y38276D01*
X251245Y38472D01*
X251568Y38660D01*
X251896Y38840D01*
X252228Y39013D01*
X252564Y39177D01*
X252904Y39333D01*
X253248Y39480D01*
X253595Y39619D01*
X253946Y39749D01*
X254299Y39871D01*
X254656Y39984D01*
X255015Y40088D01*
X255377Y40183D01*
X255741Y40270D01*
X256107Y40347D01*
X256475Y40416D01*
X256844Y40475D01*
X257214Y40525D01*
X257586Y40567D01*
X257959Y40599D01*
X258332Y40622D01*
X258706Y40635D01*
X259080Y40640D01*
X259454Y40635D01*
X259828Y40622D01*
X260201Y40599D01*
X260574Y40567D01*
X260946Y40525D01*
X261316Y40475D01*
X261685Y40416D01*
X262053Y40347D01*
X262419Y40270D01*
X262783Y40183D01*
X263145Y40088D01*
X263504Y39984D01*
X263861Y39871D01*
X264214Y39749D01*
X264565Y39619D01*
X264912Y39480D01*
X265256Y39333D01*
X265596Y39177D01*
X265932Y39013D01*
X266264Y38840D01*
X266592Y38660D01*
X266915Y38472D01*
X267233Y38276D01*
X267547Y38072D01*
X267855Y37860D01*
X268158Y37641D01*
X268456Y37414D01*
X268748Y37181D01*
X269034Y36940D01*
X269315Y36692D01*
X269589Y36438D01*
X269856Y36176D01*
X270118Y35909D01*
X270372Y35635D01*
X270620Y35354D01*
X270861Y35068D01*
X271094Y34776D01*
X271321Y34478D01*
X271540Y34175D01*
X271752Y33867D01*
X271956Y33553D01*
X272152Y33235D01*
X272340Y32912D01*
X272520Y32584D01*
X272693Y32252D01*
X272857Y31916D01*
X273013Y31576D01*
X273160Y31232D01*
X273299Y30885D01*
X273429Y30534D01*
X273551Y30181D01*
X273664Y29824D01*
X273768Y29465D01*
X273863Y29103D01*
X273950Y28739D01*
X274027Y28373D01*
X274096Y28005D01*
X274155Y27636D01*
X274205Y27266D01*
X274247Y26894D01*
X274279Y26521D01*
X274302Y26148D01*
X274315Y25774D01*
X274320Y25400D01*
X274315Y25026D01*
X274302Y24652D01*
X274279Y24279D01*
X274247Y23906D01*
X274205Y23534D01*
X274155Y23164D01*
X274096Y22795D01*
X274027Y22427D01*
X273950Y22061D01*
X273863Y21697D01*
X273768Y21335D01*
X273664Y20976D01*
X273551Y20619D01*
X273429Y20266D01*
X273299Y19915D01*
X273160Y19568D01*
X273013Y19224D01*
X272857Y18884D01*
X272693Y18548D01*
X272520Y18216D01*
X272340Y17888D01*
X272152Y17565D01*
X271956Y17247D01*
X271752Y16933D01*
X271540Y16625D01*
X271321Y16322D01*
X271094Y16024D01*
X270861Y15732D01*
X270620Y15446D01*
X270372Y15165D01*
X270118Y14891D01*
X269856Y14624D01*
X269589Y14362D01*
X269315Y14108D01*
X269034Y13860D01*
X268748Y13619D01*
X268456Y13386D01*
X268158Y13159D01*
X267855Y12940D01*
X267547Y12728D01*
X267233Y12524D01*
X266915Y12328D01*
X266592Y12140D01*
X266264Y11960D01*
X265932Y11787D01*
X265596Y11623D01*
X265256Y11467D01*
X264912Y11320D01*
X264565Y11181D01*
X264214Y11051D01*
X263861Y10929D01*
X263504Y10816D01*
X263145Y10712D01*
X262783Y10617D01*
X262419Y10530D01*
X262053Y10453D01*
X261685Y10384D01*
X261316Y10325D01*
X260946Y10275D01*
X260574Y10233D01*
X260201Y10201D01*
X259828Y10178D01*
X259454Y10165D01*
X259080Y10160D01*
X258706Y10165D01*
X258332Y10178D01*
X257959Y10201D01*
X257586Y10233D01*
X257214Y10275D01*
X256844Y10325D01*
X256475Y10384D01*
X256107Y10453D01*
X255741Y10530D01*
X255377Y10617D01*
X255015Y10712D01*
X254656Y10816D01*
X254299Y10929D01*
X253946Y11051D01*
X253595Y11181D01*
X253248Y11320D01*
X252904Y11467D01*
X252564Y11623D01*
X252228Y11787D01*
X251896Y11960D01*
X251568Y12140D01*
X251245Y12328D01*
X250927Y12524D01*
X250613Y12728D01*
X250305Y12940D01*
X250002Y13159D01*
X249704Y13386D01*
X249412Y13619D01*
X249126Y13860D01*
X248845Y14108D01*
X248571Y14362D01*
X248304Y14624D01*
X248042Y14891D01*
X247788Y15165D01*
X247540Y15446D01*
X247299Y15732D01*
X247066Y16024D01*
X246839Y16322D01*
X246620Y16625D01*
X246408Y16933D01*
X246204Y17247D01*
X246008Y17565D01*
X245820Y17888D01*
X245640Y18216D01*
X245467Y18548D01*
X245303Y18884D01*
X245147Y19224D01*
X245000Y19568D01*
X244861Y19915D01*
X244731Y20266D01*
X244609Y20619D01*
X244496Y20976D01*
X244392Y21335D01*
X244297Y21697D01*
X244210Y22061D01*
X244133Y22427D01*
X244064Y22795D01*
X244005Y23164D01*
X243955Y23534D01*
X243913Y23906D01*
X243881Y24279D01*
X243858Y24652D01*
X243845Y25026D01*
X243840Y25400D01*
X421640Y25400D02*
X421645Y25774D01*
X421658Y26148D01*
X421681Y26521D01*
X421713Y26894D01*
X421755Y27266D01*
X421805Y27636D01*
X421864Y28005D01*
X421933Y28373D01*
X422010Y28739D01*
X422097Y29103D01*
X422192Y29465D01*
X422296Y29824D01*
X422409Y30181D01*
X422531Y30534D01*
X422661Y30885D01*
X422800Y31232D01*
X422947Y31576D01*
X423103Y31916D01*
X423267Y32252D01*
X423440Y32584D01*
X423620Y32912D01*
X423808Y33235D01*
X424004Y33553D01*
X424208Y33867D01*
X424420Y34175D01*
X424639Y34478D01*
X424866Y34776D01*
X425099Y35068D01*
X425340Y35354D01*
X425588Y35635D01*
X425842Y35909D01*
X426104Y36176D01*
X426371Y36438D01*
X426645Y36692D01*
X426926Y36940D01*
X427212Y37181D01*
X427504Y37414D01*
X427802Y37641D01*
X428105Y37860D01*
X428413Y38072D01*
X428727Y38276D01*
X429045Y38472D01*
X429368Y38660D01*
X429696Y38840D01*
X430028Y39013D01*
X430364Y39177D01*
X430704Y39333D01*
X431048Y39480D01*
X431395Y39619D01*
X431746Y39749D01*
X432099Y39871D01*
X432456Y39984D01*
X432815Y40088D01*
X433177Y40183D01*
X433541Y40270D01*
X433907Y40347D01*
X434275Y40416D01*
X434644Y40475D01*
X435014Y40525D01*
X435386Y40567D01*
X435759Y40599D01*
X436132Y40622D01*
X436506Y40635D01*
X436880Y40640D01*
X437254Y40635D01*
X437628Y40622D01*
X438001Y40599D01*
X438374Y40567D01*
X438746Y40525D01*
X439116Y40475D01*
X439485Y40416D01*
X439853Y40347D01*
X440219Y40270D01*
X440583Y40183D01*
X440945Y40088D01*
X441304Y39984D01*
X441661Y39871D01*
X442014Y39749D01*
X442365Y39619D01*
X442712Y39480D01*
X443056Y39333D01*
X443396Y39177D01*
X443732Y39013D01*
X444064Y38840D01*
X444392Y38660D01*
X444715Y38472D01*
X445033Y38276D01*
X445347Y38072D01*
X445655Y37860D01*
X445958Y37641D01*
X446256Y37414D01*
X446548Y37181D01*
X446834Y36940D01*
X447115Y36692D01*
X447389Y36438D01*
X447656Y36176D01*
X447918Y35909D01*
X448172Y35635D01*
X448420Y35354D01*
X448661Y35068D01*
X448894Y34776D01*
X449121Y34478D01*
X449340Y34175D01*
X449552Y33867D01*
X449756Y33553D01*
X449952Y33235D01*
X450140Y32912D01*
X450320Y32584D01*
X450493Y32252D01*
X450657Y31916D01*
X450813Y31576D01*
X450960Y31232D01*
X451099Y30885D01*
X451229Y30534D01*
X451351Y30181D01*
X451464Y29824D01*
X451568Y29465D01*
X451663Y29103D01*
X451750Y28739D01*
X451827Y28373D01*
X451896Y28005D01*
X451955Y27636D01*
X452005Y27266D01*
X452047Y26894D01*
X452079Y26521D01*
X452102Y26148D01*
X452115Y25774D01*
X452120Y25400D01*
X452115Y25026D01*
X452102Y24652D01*
X452079Y24279D01*
X452047Y23906D01*
X452005Y23534D01*
X451955Y23164D01*
X451896Y22795D01*
X451827Y22427D01*
X451750Y22061D01*
X451663Y21697D01*
X451568Y21335D01*
X451464Y20976D01*
X451351Y20619D01*
X451229Y20266D01*
X451099Y19915D01*
X450960Y19568D01*
X450813Y19224D01*
X450657Y18884D01*
X450493Y18548D01*
X450320Y18216D01*
X450140Y17888D01*
X449952Y17565D01*
X449756Y17247D01*
X449552Y16933D01*
X449340Y16625D01*
X449121Y16322D01*
X448894Y16024D01*
X448661Y15732D01*
X448420Y15446D01*
X448172Y15165D01*
X447918Y14891D01*
X447656Y14624D01*
X447389Y14362D01*
X447115Y14108D01*
X446834Y13860D01*
X446548Y13619D01*
X446256Y13386D01*
X445958Y13159D01*
X445655Y12940D01*
X445347Y12728D01*
X445033Y12524D01*
X444715Y12328D01*
X444392Y12140D01*
X444064Y11960D01*
X443732Y11787D01*
X443396Y11623D01*
X443056Y11467D01*
X442712Y11320D01*
X442365Y11181D01*
X442014Y11051D01*
X441661Y10929D01*
X441304Y10816D01*
X440945Y10712D01*
X440583Y10617D01*
X440219Y10530D01*
X439853Y10453D01*
X439485Y10384D01*
X439116Y10325D01*
X438746Y10275D01*
X438374Y10233D01*
X438001Y10201D01*
X437628Y10178D01*
X437254Y10165D01*
X436880Y10160D01*
X436506Y10165D01*
X436132Y10178D01*
X435759Y10201D01*
X435386Y10233D01*
X435014Y10275D01*
X434644Y10325D01*
X434275Y10384D01*
X433907Y10453D01*
X433541Y10530D01*
X433177Y10617D01*
X432815Y10712D01*
X432456Y10816D01*
X432099Y10929D01*
X431746Y11051D01*
X431395Y11181D01*
X431048Y11320D01*
X430704Y11467D01*
X430364Y11623D01*
X430028Y11787D01*
X429696Y11960D01*
X429368Y12140D01*
X429045Y12328D01*
X428727Y12524D01*
X428413Y12728D01*
X428105Y12940D01*
X427802Y13159D01*
X427504Y13386D01*
X427212Y13619D01*
X426926Y13860D01*
X426645Y14108D01*
X426371Y14362D01*
X426104Y14624D01*
X425842Y14891D01*
X425588Y15165D01*
X425340Y15446D01*
X425099Y15732D01*
X424866Y16024D01*
X424639Y16322D01*
X424420Y16625D01*
X424208Y16933D01*
X424004Y17247D01*
X423808Y17565D01*
X423620Y17888D01*
X423440Y18216D01*
X423267Y18548D01*
X423103Y18884D01*
X422947Y19224D01*
X422800Y19568D01*
X422661Y19915D01*
X422531Y20266D01*
X422409Y20619D01*
X422296Y20976D01*
X422192Y21335D01*
X422097Y21697D01*
X422010Y22061D01*
X421933Y22427D01*
X421864Y22795D01*
X421805Y23164D01*
X421755Y23534D01*
X421713Y23906D01*
X421681Y24279D01*
X421658Y24652D01*
X421645Y25026D01*
X421640Y25400D01*
X421640Y558800D02*
X421645Y559174D01*
X421658Y559548D01*
X421681Y559921D01*
X421713Y560294D01*
X421755Y560666D01*
X421805Y561036D01*
X421864Y561405D01*
X421933Y561773D01*
X422010Y562139D01*
X422097Y562503D01*
X422192Y562865D01*
X422296Y563224D01*
X422409Y563581D01*
X422531Y563934D01*
X422661Y564285D01*
X422800Y564632D01*
X422947Y564976D01*
X423103Y565316D01*
X423267Y565652D01*
X423440Y565984D01*
X423620Y566312D01*
X423808Y566635D01*
X424004Y566953D01*
X424208Y567267D01*
X424420Y567575D01*
X424639Y567878D01*
X424866Y568176D01*
X425099Y568468D01*
X425340Y568754D01*
X425588Y569035D01*
X425842Y569309D01*
X426104Y569576D01*
X426371Y569838D01*
X426645Y570092D01*
X426926Y570340D01*
X427212Y570581D01*
X427504Y570814D01*
X427802Y571041D01*
X428105Y571260D01*
X428413Y571472D01*
X428727Y571676D01*
X429045Y571872D01*
X429368Y572060D01*
X429696Y572240D01*
X430028Y572413D01*
X430364Y572577D01*
X430704Y572733D01*
X431048Y572880D01*
X431395Y573019D01*
X431746Y573149D01*
X432099Y573271D01*
X432456Y573384D01*
X432815Y573488D01*
X433177Y573583D01*
X433541Y573670D01*
X433907Y573747D01*
X434275Y573816D01*
X434644Y573875D01*
X435014Y573925D01*
X435386Y573967D01*
X435759Y573999D01*
X436132Y574022D01*
X436506Y574035D01*
X436880Y574040D01*
X437254Y574035D01*
X437628Y574022D01*
X438001Y573999D01*
X438374Y573967D01*
X438746Y573925D01*
X439116Y573875D01*
X439485Y573816D01*
X439853Y573747D01*
X440219Y573670D01*
X440583Y573583D01*
X440945Y573488D01*
X441304Y573384D01*
X441661Y573271D01*
X442014Y573149D01*
X442365Y573019D01*
X442712Y572880D01*
X443056Y572733D01*
X443396Y572577D01*
X443732Y572413D01*
X444064Y572240D01*
X444392Y572060D01*
X444715Y571872D01*
X445033Y571676D01*
X445347Y571472D01*
X445655Y571260D01*
X445958Y571041D01*
X446256Y570814D01*
X446548Y570581D01*
X446834Y570340D01*
X447115Y570092D01*
X447389Y569838D01*
X447656Y569576D01*
X447918Y569309D01*
X448172Y569035D01*
X448420Y568754D01*
X448661Y568468D01*
X448894Y568176D01*
X449121Y567878D01*
X449340Y567575D01*
X449552Y567267D01*
X449756Y566953D01*
X449952Y566635D01*
X450140Y566312D01*
X450320Y565984D01*
X450493Y565652D01*
X450657Y565316D01*
X450813Y564976D01*
X450960Y564632D01*
X451099Y564285D01*
X451229Y563934D01*
X451351Y563581D01*
X451464Y563224D01*
X451568Y562865D01*
X451663Y562503D01*
X451750Y562139D01*
X451827Y561773D01*
X451896Y561405D01*
X451955Y561036D01*
X452005Y560666D01*
X452047Y560294D01*
X452079Y559921D01*
X452102Y559548D01*
X452115Y559174D01*
X452120Y558800D01*
X452115Y558426D01*
X452102Y558052D01*
X452079Y557679D01*
X452047Y557306D01*
X452005Y556934D01*
X451955Y556564D01*
X451896Y556195D01*
X451827Y555827D01*
X451750Y555461D01*
X451663Y555097D01*
X451568Y554735D01*
X451464Y554376D01*
X451351Y554019D01*
X451229Y553666D01*
X451099Y553315D01*
X450960Y552968D01*
X450813Y552624D01*
X450657Y552284D01*
X450493Y551948D01*
X450320Y551616D01*
X450140Y551288D01*
X449952Y550965D01*
X449756Y550647D01*
X449552Y550333D01*
X449340Y550025D01*
X449121Y549722D01*
X448894Y549424D01*
X448661Y549132D01*
X448420Y548846D01*
X448172Y548565D01*
X447918Y548291D01*
X447656Y548024D01*
X447389Y547762D01*
X447115Y547508D01*
X446834Y547260D01*
X446548Y547019D01*
X446256Y546786D01*
X445958Y546559D01*
X445655Y546340D01*
X445347Y546128D01*
X445033Y545924D01*
X444715Y545728D01*
X444392Y545540D01*
X444064Y545360D01*
X443732Y545187D01*
X443396Y545023D01*
X443056Y544867D01*
X442712Y544720D01*
X442365Y544581D01*
X442014Y544451D01*
X441661Y544329D01*
X441304Y544216D01*
X440945Y544112D01*
X440583Y544017D01*
X440219Y543930D01*
X439853Y543853D01*
X439485Y543784D01*
X439116Y543725D01*
X438746Y543675D01*
X438374Y543633D01*
X438001Y543601D01*
X437628Y543578D01*
X437254Y543565D01*
X436880Y543560D01*
X436506Y543565D01*
X436132Y543578D01*
X435759Y543601D01*
X435386Y543633D01*
X435014Y543675D01*
X434644Y543725D01*
X434275Y543784D01*
X433907Y543853D01*
X433541Y543930D01*
X433177Y544017D01*
X432815Y544112D01*
X432456Y544216D01*
X432099Y544329D01*
X431746Y544451D01*
X431395Y544581D01*
X431048Y544720D01*
X430704Y544867D01*
X430364Y545023D01*
X430028Y545187D01*
X429696Y545360D01*
X429368Y545540D01*
X429045Y545728D01*
X428727Y545924D01*
X428413Y546128D01*
X428105Y546340D01*
X427802Y546559D01*
X427504Y546786D01*
X427212Y547019D01*
X426926Y547260D01*
X426645Y547508D01*
X426371Y547762D01*
X426104Y548024D01*
X425842Y548291D01*
X425588Y548565D01*
X425340Y548846D01*
X425099Y549132D01*
X424866Y549424D01*
X424639Y549722D01*
X424420Y550025D01*
X424208Y550333D01*
X424004Y550647D01*
X423808Y550965D01*
X423620Y551288D01*
X423440Y551616D01*
X423267Y551948D01*
X423103Y552284D01*
X422947Y552624D01*
X422800Y552968D01*
X422661Y553315D01*
X422531Y553666D01*
X422409Y554019D01*
X422296Y554376D01*
X422192Y554735D01*
X422097Y555097D01*
X422010Y555461D01*
X421933Y555827D01*
X421864Y556195D01*
X421805Y556564D01*
X421755Y556934D01*
X421713Y557306D01*
X421681Y557679D01*
X421658Y558052D01*
X421645Y558426D01*
X421640Y558800D01*
X243840Y558800D02*
X243845Y559174D01*
X243858Y559548D01*
X243881Y559921D01*
X243913Y560294D01*
X243955Y560666D01*
X244005Y561036D01*
X244064Y561405D01*
X244133Y561773D01*
X244210Y562139D01*
X244297Y562503D01*
X244392Y562865D01*
X244496Y563224D01*
X244609Y563581D01*
X244731Y563934D01*
X244861Y564285D01*
X245000Y564632D01*
X245147Y564976D01*
X245303Y565316D01*
X245467Y565652D01*
X245640Y565984D01*
X245820Y566312D01*
X246008Y566635D01*
X246204Y566953D01*
X246408Y567267D01*
X246620Y567575D01*
X246839Y567878D01*
X247066Y568176D01*
X247299Y568468D01*
X247540Y568754D01*
X247788Y569035D01*
X248042Y569309D01*
X248304Y569576D01*
X248571Y569838D01*
X248845Y570092D01*
X249126Y570340D01*
X249412Y570581D01*
X249704Y570814D01*
X250002Y571041D01*
X250305Y571260D01*
X250613Y571472D01*
X250927Y571676D01*
X251245Y571872D01*
X251568Y572060D01*
X251896Y572240D01*
X252228Y572413D01*
X252564Y572577D01*
X252904Y572733D01*
X253248Y572880D01*
X253595Y573019D01*
X253946Y573149D01*
X254299Y573271D01*
X254656Y573384D01*
X255015Y573488D01*
X255377Y573583D01*
X255741Y573670D01*
X256107Y573747D01*
X256475Y573816D01*
X256844Y573875D01*
X257214Y573925D01*
X257586Y573967D01*
X257959Y573999D01*
X258332Y574022D01*
X258706Y574035D01*
X259080Y574040D01*
X259454Y574035D01*
X259828Y574022D01*
X260201Y573999D01*
X260574Y573967D01*
X260946Y573925D01*
X261316Y573875D01*
X261685Y573816D01*
X262053Y573747D01*
X262419Y573670D01*
X262783Y573583D01*
X263145Y573488D01*
X263504Y573384D01*
X263861Y573271D01*
X264214Y573149D01*
X264565Y573019D01*
X264912Y572880D01*
X265256Y572733D01*
X265596Y572577D01*
X265932Y572413D01*
X266264Y572240D01*
X266592Y572060D01*
X266915Y571872D01*
X267233Y571676D01*
X267547Y571472D01*
X267855Y571260D01*
X268158Y571041D01*
X268456Y570814D01*
X268748Y570581D01*
X269034Y570340D01*
X269315Y570092D01*
X269589Y569838D01*
X269856Y569576D01*
X270118Y569309D01*
X270372Y569035D01*
X270620Y568754D01*
X270861Y568468D01*
X271094Y568176D01*
X271321Y567878D01*
X271540Y567575D01*
X271752Y567267D01*
X271956Y566953D01*
X272152Y566635D01*
X272340Y566312D01*
X272520Y565984D01*
X272693Y565652D01*
X272857Y565316D01*
X273013Y564976D01*
X273160Y564632D01*
X273299Y564285D01*
X273429Y563934D01*
X273551Y563581D01*
X273664Y563224D01*
X273768Y562865D01*
X273863Y562503D01*
X273950Y562139D01*
X274027Y561773D01*
X274096Y561405D01*
X274155Y561036D01*
X274205Y560666D01*
X274247Y560294D01*
X274279Y559921D01*
X274302Y559548D01*
X274315Y559174D01*
X274320Y558800D01*
X274315Y558426D01*
X274302Y558052D01*
X274279Y557679D01*
X274247Y557306D01*
X274205Y556934D01*
X274155Y556564D01*
X274096Y556195D01*
X274027Y555827D01*
X273950Y555461D01*
X273863Y555097D01*
X273768Y554735D01*
X273664Y554376D01*
X273551Y554019D01*
X273429Y553666D01*
X273299Y553315D01*
X273160Y552968D01*
X273013Y552624D01*
X272857Y552284D01*
X272693Y551948D01*
X272520Y551616D01*
X272340Y551288D01*
X272152Y550965D01*
X271956Y550647D01*
X271752Y550333D01*
X271540Y550025D01*
X271321Y549722D01*
X271094Y549424D01*
X270861Y549132D01*
X270620Y548846D01*
X270372Y548565D01*
X270118Y548291D01*
X269856Y548024D01*
X269589Y547762D01*
X269315Y547508D01*
X269034Y547260D01*
X268748Y547019D01*
X268456Y546786D01*
X268158Y546559D01*
X267855Y546340D01*
X267547Y546128D01*
X267233Y545924D01*
X266915Y545728D01*
X266592Y545540D01*
X266264Y545360D01*
X265932Y545187D01*
X265596Y545023D01*
X265256Y544867D01*
X264912Y544720D01*
X264565Y544581D01*
X264214Y544451D01*
X263861Y544329D01*
X263504Y544216D01*
X263145Y544112D01*
X262783Y544017D01*
X262419Y543930D01*
X262053Y543853D01*
X261685Y543784D01*
X261316Y543725D01*
X260946Y543675D01*
X260574Y543633D01*
X260201Y543601D01*
X259828Y543578D01*
X259454Y543565D01*
X259080Y543560D01*
X258706Y543565D01*
X258332Y543578D01*
X257959Y543601D01*
X257586Y543633D01*
X257214Y543675D01*
X256844Y543725D01*
X256475Y543784D01*
X256107Y543853D01*
X255741Y543930D01*
X255377Y544017D01*
X255015Y544112D01*
X254656Y544216D01*
X254299Y544329D01*
X253946Y544451D01*
X253595Y544581D01*
X253248Y544720D01*
X252904Y544867D01*
X252564Y545023D01*
X252228Y545187D01*
X251896Y545360D01*
X251568Y545540D01*
X251245Y545728D01*
X250927Y545924D01*
X250613Y546128D01*
X250305Y546340D01*
X250002Y546559D01*
X249704Y546786D01*
X249412Y547019D01*
X249126Y547260D01*
X248845Y547508D01*
X248571Y547762D01*
X248304Y548024D01*
X248042Y548291D01*
X247788Y548565D01*
X247540Y548846D01*
X247299Y549132D01*
X247066Y549424D01*
X246839Y549722D01*
X246620Y550025D01*
X246408Y550333D01*
X246204Y550647D01*
X246008Y550965D01*
X245820Y551288D01*
X245640Y551616D01*
X245467Y551948D01*
X245303Y552284D01*
X245147Y552624D01*
X245000Y552968D01*
X244861Y553315D01*
X244731Y553666D01*
X244609Y554019D01*
X244496Y554376D01*
X244392Y554735D01*
X244297Y555097D01*
X244210Y555461D01*
X244133Y555827D01*
X244064Y556195D01*
X244005Y556564D01*
X243955Y556934D01*
X243913Y557306D01*
X243881Y557679D01*
X243858Y558052D01*
X243845Y558426D01*
X243840Y558800D01*
X315830Y47526D02*
X315832Y47639D01*
X315838Y47753D01*
X315848Y47866D01*
X315862Y47978D01*
X315879Y48090D01*
X315901Y48202D01*
X315927Y48312D01*
X315956Y48422D01*
X315989Y48530D01*
X316026Y48638D01*
X316067Y48743D01*
X316111Y48848D01*
X316159Y48951D01*
X316210Y49052D01*
X316265Y49151D01*
X316324Y49248D01*
X316386Y49343D01*
X316451Y49436D01*
X316519Y49527D01*
X316590Y49615D01*
X316665Y49701D01*
X316742Y49784D01*
X316822Y49864D01*
X316905Y49941D01*
X316991Y50016D01*
X317079Y50087D01*
X317170Y50155D01*
X317263Y50220D01*
X317358Y50282D01*
X317455Y50341D01*
X317554Y50396D01*
X317655Y50447D01*
X317758Y50495D01*
X317863Y50539D01*
X317968Y50580D01*
X318076Y50617D01*
X318184Y50650D01*
X318294Y50679D01*
X318404Y50705D01*
X318516Y50727D01*
X318628Y50744D01*
X318740Y50758D01*
X318853Y50768D01*
X318967Y50774D01*
X319080Y50776D01*
X319193Y50774D01*
X319307Y50768D01*
X319420Y50758D01*
X319532Y50744D01*
X319644Y50727D01*
X319756Y50705D01*
X319866Y50679D01*
X319976Y50650D01*
X320084Y50617D01*
X320192Y50580D01*
X320297Y50539D01*
X320402Y50495D01*
X320505Y50447D01*
X320606Y50396D01*
X320705Y50341D01*
X320802Y50282D01*
X320897Y50220D01*
X320990Y50155D01*
X321081Y50087D01*
X321169Y50016D01*
X321255Y49941D01*
X321338Y49864D01*
X321418Y49784D01*
X321495Y49701D01*
X321570Y49615D01*
X321641Y49527D01*
X321709Y49436D01*
X321774Y49343D01*
X321836Y49248D01*
X321895Y49151D01*
X321950Y49052D01*
X322001Y48951D01*
X322049Y48848D01*
X322093Y48743D01*
X322134Y48638D01*
X322171Y48530D01*
X322204Y48422D01*
X322233Y48312D01*
X322259Y48202D01*
X322281Y48090D01*
X322298Y47978D01*
X322312Y47866D01*
X322322Y47753D01*
X322328Y47639D01*
X322330Y47526D01*
X322328Y47413D01*
X322322Y47299D01*
X322312Y47186D01*
X322298Y47074D01*
X322281Y46962D01*
X322259Y46850D01*
X322233Y46740D01*
X322204Y46630D01*
X322171Y46522D01*
X322134Y46414D01*
X322093Y46309D01*
X322049Y46204D01*
X322001Y46101D01*
X321950Y46000D01*
X321895Y45901D01*
X321836Y45804D01*
X321774Y45709D01*
X321709Y45616D01*
X321641Y45525D01*
X321570Y45437D01*
X321495Y45351D01*
X321418Y45268D01*
X321338Y45188D01*
X321255Y45111D01*
X321169Y45036D01*
X321081Y44965D01*
X320990Y44897D01*
X320897Y44832D01*
X320802Y44770D01*
X320705Y44711D01*
X320606Y44656D01*
X320505Y44605D01*
X320402Y44557D01*
X320297Y44513D01*
X320192Y44472D01*
X320084Y44435D01*
X319976Y44402D01*
X319866Y44373D01*
X319756Y44347D01*
X319644Y44325D01*
X319532Y44308D01*
X319420Y44294D01*
X319307Y44284D01*
X319193Y44278D01*
X319080Y44276D01*
X318967Y44278D01*
X318853Y44284D01*
X318740Y44294D01*
X318628Y44308D01*
X318516Y44325D01*
X318404Y44347D01*
X318294Y44373D01*
X318184Y44402D01*
X318076Y44435D01*
X317968Y44472D01*
X317863Y44513D01*
X317758Y44557D01*
X317655Y44605D01*
X317554Y44656D01*
X317455Y44711D01*
X317358Y44770D01*
X317263Y44832D01*
X317170Y44897D01*
X317079Y44965D01*
X316991Y45036D01*
X316905Y45111D01*
X316822Y45188D01*
X316742Y45268D01*
X316665Y45351D01*
X316590Y45437D01*
X316519Y45525D01*
X316451Y45616D01*
X316386Y45709D01*
X316324Y45804D01*
X316265Y45901D01*
X316210Y46000D01*
X316159Y46101D01*
X316111Y46204D01*
X316067Y46309D01*
X316026Y46414D01*
X315989Y46522D01*
X315956Y46630D01*
X315927Y46740D01*
X315901Y46850D01*
X315879Y46962D01*
X315862Y47074D01*
X315848Y47186D01*
X315838Y47299D01*
X315832Y47413D01*
X315830Y47526D01*
X373630Y47526D02*
X373632Y47639D01*
X373638Y47753D01*
X373648Y47866D01*
X373662Y47978D01*
X373679Y48090D01*
X373701Y48202D01*
X373727Y48312D01*
X373756Y48422D01*
X373789Y48530D01*
X373826Y48638D01*
X373867Y48743D01*
X373911Y48848D01*
X373959Y48951D01*
X374010Y49052D01*
X374065Y49151D01*
X374124Y49248D01*
X374186Y49343D01*
X374251Y49436D01*
X374319Y49527D01*
X374390Y49615D01*
X374465Y49701D01*
X374542Y49784D01*
X374622Y49864D01*
X374705Y49941D01*
X374791Y50016D01*
X374879Y50087D01*
X374970Y50155D01*
X375063Y50220D01*
X375158Y50282D01*
X375255Y50341D01*
X375354Y50396D01*
X375455Y50447D01*
X375558Y50495D01*
X375663Y50539D01*
X375768Y50580D01*
X375876Y50617D01*
X375984Y50650D01*
X376094Y50679D01*
X376204Y50705D01*
X376316Y50727D01*
X376428Y50744D01*
X376540Y50758D01*
X376653Y50768D01*
X376767Y50774D01*
X376880Y50776D01*
X376993Y50774D01*
X377107Y50768D01*
X377220Y50758D01*
X377332Y50744D01*
X377444Y50727D01*
X377556Y50705D01*
X377666Y50679D01*
X377776Y50650D01*
X377884Y50617D01*
X377992Y50580D01*
X378097Y50539D01*
X378202Y50495D01*
X378305Y50447D01*
X378406Y50396D01*
X378505Y50341D01*
X378602Y50282D01*
X378697Y50220D01*
X378790Y50155D01*
X378881Y50087D01*
X378969Y50016D01*
X379055Y49941D01*
X379138Y49864D01*
X379218Y49784D01*
X379295Y49701D01*
X379370Y49615D01*
X379441Y49527D01*
X379509Y49436D01*
X379574Y49343D01*
X379636Y49248D01*
X379695Y49151D01*
X379750Y49052D01*
X379801Y48951D01*
X379849Y48848D01*
X379893Y48743D01*
X379934Y48638D01*
X379971Y48530D01*
X380004Y48422D01*
X380033Y48312D01*
X380059Y48202D01*
X380081Y48090D01*
X380098Y47978D01*
X380112Y47866D01*
X380122Y47753D01*
X380128Y47639D01*
X380130Y47526D01*
X380128Y47413D01*
X380122Y47299D01*
X380112Y47186D01*
X380098Y47074D01*
X380081Y46962D01*
X380059Y46850D01*
X380033Y46740D01*
X380004Y46630D01*
X379971Y46522D01*
X379934Y46414D01*
X379893Y46309D01*
X379849Y46204D01*
X379801Y46101D01*
X379750Y46000D01*
X379695Y45901D01*
X379636Y45804D01*
X379574Y45709D01*
X379509Y45616D01*
X379441Y45525D01*
X379370Y45437D01*
X379295Y45351D01*
X379218Y45268D01*
X379138Y45188D01*
X379055Y45111D01*
X378969Y45036D01*
X378881Y44965D01*
X378790Y44897D01*
X378697Y44832D01*
X378602Y44770D01*
X378505Y44711D01*
X378406Y44656D01*
X378305Y44605D01*
X378202Y44557D01*
X378097Y44513D01*
X377992Y44472D01*
X377884Y44435D01*
X377776Y44402D01*
X377666Y44373D01*
X377556Y44347D01*
X377444Y44325D01*
X377332Y44308D01*
X377220Y44294D01*
X377107Y44284D01*
X376993Y44278D01*
X376880Y44276D01*
X376767Y44278D01*
X376653Y44284D01*
X376540Y44294D01*
X376428Y44308D01*
X376316Y44325D01*
X376204Y44347D01*
X376094Y44373D01*
X375984Y44402D01*
X375876Y44435D01*
X375768Y44472D01*
X375663Y44513D01*
X375558Y44557D01*
X375455Y44605D01*
X375354Y44656D01*
X375255Y44711D01*
X375158Y44770D01*
X375063Y44832D01*
X374970Y44897D01*
X374879Y44965D01*
X374791Y45036D01*
X374705Y45111D01*
X374622Y45188D01*
X374542Y45268D01*
X374465Y45351D01*
X374390Y45437D01*
X374319Y45525D01*
X374251Y45616D01*
X374186Y45709D01*
X374124Y45804D01*
X374065Y45901D01*
X374010Y46000D01*
X373959Y46101D01*
X373911Y46204D01*
X373867Y46309D01*
X373826Y46414D01*
X373789Y46522D01*
X373756Y46630D01*
X373727Y46740D01*
X373701Y46850D01*
X373679Y46962D01*
X373662Y47074D01*
X373648Y47186D01*
X373638Y47299D01*
X373632Y47413D01*
X373630Y47526D01*
D15*
X301780Y14176D02*
X301780Y7976D01*
X307780Y7976D02*
X307780Y14176D01*
X307778Y14284D01*
X307772Y14392D01*
X307762Y14500D01*
X307749Y14608D01*
X307731Y14715D01*
X307710Y14821D01*
X307685Y14926D01*
X307656Y15031D01*
X307623Y15134D01*
X307587Y15236D01*
X307546Y15337D01*
X307503Y15436D01*
X307455Y15533D01*
X307405Y15629D01*
X307351Y15723D01*
X307293Y15814D01*
X307232Y15904D01*
X307168Y15992D01*
X307101Y16077D01*
X307031Y16159D01*
X306958Y16239D01*
X306882Y16316D01*
X306803Y16391D01*
X306722Y16462D01*
X306638Y16531D01*
X306552Y16597D01*
X306464Y16659D01*
X306373Y16718D01*
X306280Y16774D01*
X306185Y16827D01*
X306089Y16876D01*
X305990Y16921D01*
X305890Y16963D01*
X305789Y17001D01*
X305686Y17036D01*
X305583Y17067D01*
X305478Y17094D01*
X305372Y17117D01*
X305265Y17136D01*
X305158Y17152D01*
X305050Y17164D01*
X304942Y17172D01*
X304834Y17176D01*
X304726Y17176D01*
X304618Y17172D01*
X304510Y17164D01*
X304402Y17152D01*
X304295Y17136D01*
X304188Y17117D01*
X304082Y17094D01*
X303977Y17067D01*
X303874Y17036D01*
X303771Y17001D01*
X303670Y16963D01*
X303570Y16921D01*
X303471Y16876D01*
X303375Y16827D01*
X303280Y16774D01*
X303187Y16718D01*
X303096Y16659D01*
X303008Y16597D01*
X302922Y16531D01*
X302838Y16462D01*
X302757Y16391D01*
X302678Y16316D01*
X302602Y16239D01*
X302529Y16159D01*
X302459Y16077D01*
X302392Y15992D01*
X302328Y15904D01*
X302267Y15814D01*
X302209Y15723D01*
X302155Y15629D01*
X302105Y15533D01*
X302057Y15436D01*
X302014Y15337D01*
X301973Y15236D01*
X301937Y15134D01*
X301904Y15031D01*
X301875Y14926D01*
X301850Y14821D01*
X301829Y14715D01*
X301811Y14608D01*
X301798Y14500D01*
X301788Y14392D01*
X301782Y14284D01*
X301780Y14176D01*
X301780Y7976D02*
X301782Y7868D01*
X301788Y7760D01*
X301798Y7652D01*
X301811Y7544D01*
X301829Y7437D01*
X301850Y7331D01*
X301875Y7226D01*
X301904Y7121D01*
X301937Y7018D01*
X301973Y6916D01*
X302014Y6815D01*
X302057Y6716D01*
X302105Y6619D01*
X302155Y6523D01*
X302209Y6429D01*
X302267Y6338D01*
X302328Y6248D01*
X302392Y6160D01*
X302459Y6075D01*
X302529Y5993D01*
X302602Y5913D01*
X302678Y5836D01*
X302757Y5761D01*
X302838Y5690D01*
X302922Y5621D01*
X303008Y5555D01*
X303096Y5493D01*
X303187Y5434D01*
X303280Y5378D01*
X303375Y5325D01*
X303471Y5276D01*
X303570Y5231D01*
X303670Y5189D01*
X303771Y5151D01*
X303874Y5116D01*
X303977Y5085D01*
X304082Y5058D01*
X304188Y5035D01*
X304295Y5016D01*
X304402Y5000D01*
X304510Y4988D01*
X304618Y4980D01*
X304726Y4976D01*
X304834Y4976D01*
X304942Y4980D01*
X305050Y4988D01*
X305158Y5000D01*
X305265Y5016D01*
X305372Y5035D01*
X305478Y5058D01*
X305583Y5085D01*
X305686Y5116D01*
X305789Y5151D01*
X305890Y5189D01*
X305990Y5231D01*
X306089Y5276D01*
X306185Y5325D01*
X306280Y5378D01*
X306373Y5434D01*
X306464Y5493D01*
X306552Y5555D01*
X306638Y5621D01*
X306722Y5690D01*
X306803Y5761D01*
X306882Y5836D01*
X306958Y5913D01*
X307031Y5993D01*
X307101Y6075D01*
X307168Y6160D01*
X307232Y6248D01*
X307293Y6338D01*
X307351Y6429D01*
X307405Y6523D01*
X307455Y6619D01*
X307503Y6716D01*
X307546Y6815D01*
X307587Y6916D01*
X307623Y7018D01*
X307656Y7121D01*
X307685Y7226D01*
X307710Y7331D01*
X307731Y7437D01*
X307749Y7544D01*
X307762Y7652D01*
X307772Y7760D01*
X307778Y7868D01*
X307780Y7976D01*
X301780Y47326D02*
X301780Y58326D01*
X307780Y58326D02*
X307780Y47326D01*
X307778Y47218D01*
X307772Y47110D01*
X307762Y47002D01*
X307749Y46894D01*
X307731Y46787D01*
X307710Y46681D01*
X307685Y46576D01*
X307656Y46471D01*
X307623Y46368D01*
X307587Y46266D01*
X307546Y46165D01*
X307503Y46066D01*
X307455Y45969D01*
X307405Y45873D01*
X307351Y45779D01*
X307293Y45688D01*
X307232Y45598D01*
X307168Y45510D01*
X307101Y45425D01*
X307031Y45343D01*
X306958Y45263D01*
X306882Y45186D01*
X306803Y45111D01*
X306722Y45040D01*
X306638Y44971D01*
X306552Y44905D01*
X306464Y44843D01*
X306373Y44784D01*
X306280Y44728D01*
X306185Y44675D01*
X306089Y44626D01*
X305990Y44581D01*
X305890Y44539D01*
X305789Y44501D01*
X305686Y44466D01*
X305583Y44435D01*
X305478Y44408D01*
X305372Y44385D01*
X305265Y44366D01*
X305158Y44350D01*
X305050Y44338D01*
X304942Y44330D01*
X304834Y44326D01*
X304726Y44326D01*
X304618Y44330D01*
X304510Y44338D01*
X304402Y44350D01*
X304295Y44366D01*
X304188Y44385D01*
X304082Y44408D01*
X303977Y44435D01*
X303874Y44466D01*
X303771Y44501D01*
X303670Y44539D01*
X303570Y44581D01*
X303471Y44626D01*
X303375Y44675D01*
X303280Y44728D01*
X303187Y44784D01*
X303096Y44843D01*
X303008Y44905D01*
X302922Y44971D01*
X302838Y45040D01*
X302757Y45111D01*
X302678Y45186D01*
X302602Y45263D01*
X302529Y45343D01*
X302459Y45425D01*
X302392Y45510D01*
X302328Y45598D01*
X302267Y45688D01*
X302209Y45779D01*
X302155Y45873D01*
X302105Y45969D01*
X302057Y46066D01*
X302014Y46165D01*
X301973Y46266D01*
X301937Y46368D01*
X301904Y46471D01*
X301875Y46576D01*
X301850Y46681D01*
X301829Y46787D01*
X301811Y46894D01*
X301798Y47002D01*
X301788Y47110D01*
X301782Y47218D01*
X301780Y47326D01*
X301780Y58326D02*
X301782Y58434D01*
X301788Y58542D01*
X301798Y58650D01*
X301811Y58758D01*
X301829Y58865D01*
X301850Y58971D01*
X301875Y59076D01*
X301904Y59181D01*
X301937Y59284D01*
X301973Y59386D01*
X302014Y59487D01*
X302057Y59586D01*
X302105Y59683D01*
X302155Y59779D01*
X302209Y59873D01*
X302267Y59964D01*
X302328Y60054D01*
X302392Y60142D01*
X302459Y60227D01*
X302529Y60309D01*
X302602Y60389D01*
X302678Y60466D01*
X302757Y60541D01*
X302838Y60612D01*
X302922Y60681D01*
X303008Y60747D01*
X303096Y60809D01*
X303187Y60868D01*
X303280Y60924D01*
X303375Y60977D01*
X303471Y61026D01*
X303570Y61071D01*
X303670Y61113D01*
X303771Y61151D01*
X303874Y61186D01*
X303977Y61217D01*
X304082Y61244D01*
X304188Y61267D01*
X304295Y61286D01*
X304402Y61302D01*
X304510Y61314D01*
X304618Y61322D01*
X304726Y61326D01*
X304834Y61326D01*
X304942Y61322D01*
X305050Y61314D01*
X305158Y61302D01*
X305265Y61286D01*
X305372Y61267D01*
X305478Y61244D01*
X305583Y61217D01*
X305686Y61186D01*
X305789Y61151D01*
X305890Y61113D01*
X305990Y61071D01*
X306089Y61026D01*
X306185Y60977D01*
X306280Y60924D01*
X306373Y60868D01*
X306464Y60809D01*
X306552Y60747D01*
X306638Y60681D01*
X306722Y60612D01*
X306803Y60541D01*
X306882Y60466D01*
X306958Y60389D01*
X307031Y60309D01*
X307101Y60227D01*
X307168Y60142D01*
X307232Y60054D01*
X307293Y59964D01*
X307351Y59873D01*
X307405Y59779D01*
X307455Y59683D01*
X307503Y59586D01*
X307546Y59487D01*
X307587Y59386D01*
X307623Y59284D01*
X307656Y59181D01*
X307685Y59076D01*
X307710Y58971D01*
X307731Y58865D01*
X307749Y58758D01*
X307762Y58650D01*
X307772Y58542D01*
X307778Y58434D01*
X307780Y58326D01*
X388180Y14176D02*
X388180Y7976D01*
X394180Y7976D02*
X394180Y14176D01*
X394178Y14284D01*
X394172Y14392D01*
X394162Y14500D01*
X394149Y14608D01*
X394131Y14715D01*
X394110Y14821D01*
X394085Y14926D01*
X394056Y15031D01*
X394023Y15134D01*
X393987Y15236D01*
X393946Y15337D01*
X393903Y15436D01*
X393855Y15533D01*
X393805Y15629D01*
X393751Y15723D01*
X393693Y15814D01*
X393632Y15904D01*
X393568Y15992D01*
X393501Y16077D01*
X393431Y16159D01*
X393358Y16239D01*
X393282Y16316D01*
X393203Y16391D01*
X393122Y16462D01*
X393038Y16531D01*
X392952Y16597D01*
X392864Y16659D01*
X392773Y16718D01*
X392680Y16774D01*
X392585Y16827D01*
X392489Y16876D01*
X392390Y16921D01*
X392290Y16963D01*
X392189Y17001D01*
X392086Y17036D01*
X391983Y17067D01*
X391878Y17094D01*
X391772Y17117D01*
X391665Y17136D01*
X391558Y17152D01*
X391450Y17164D01*
X391342Y17172D01*
X391234Y17176D01*
X391126Y17176D01*
X391018Y17172D01*
X390910Y17164D01*
X390802Y17152D01*
X390695Y17136D01*
X390588Y17117D01*
X390482Y17094D01*
X390377Y17067D01*
X390274Y17036D01*
X390171Y17001D01*
X390070Y16963D01*
X389970Y16921D01*
X389871Y16876D01*
X389775Y16827D01*
X389680Y16774D01*
X389587Y16718D01*
X389496Y16659D01*
X389408Y16597D01*
X389322Y16531D01*
X389238Y16462D01*
X389157Y16391D01*
X389078Y16316D01*
X389002Y16239D01*
X388929Y16159D01*
X388859Y16077D01*
X388792Y15992D01*
X388728Y15904D01*
X388667Y15814D01*
X388609Y15723D01*
X388555Y15629D01*
X388505Y15533D01*
X388457Y15436D01*
X388414Y15337D01*
X388373Y15236D01*
X388337Y15134D01*
X388304Y15031D01*
X388275Y14926D01*
X388250Y14821D01*
X388229Y14715D01*
X388211Y14608D01*
X388198Y14500D01*
X388188Y14392D01*
X388182Y14284D01*
X388180Y14176D01*
X388180Y7976D02*
X388182Y7868D01*
X388188Y7760D01*
X388198Y7652D01*
X388211Y7544D01*
X388229Y7437D01*
X388250Y7331D01*
X388275Y7226D01*
X388304Y7121D01*
X388337Y7018D01*
X388373Y6916D01*
X388414Y6815D01*
X388457Y6716D01*
X388505Y6619D01*
X388555Y6523D01*
X388609Y6429D01*
X388667Y6338D01*
X388728Y6248D01*
X388792Y6160D01*
X388859Y6075D01*
X388929Y5993D01*
X389002Y5913D01*
X389078Y5836D01*
X389157Y5761D01*
X389238Y5690D01*
X389322Y5621D01*
X389408Y5555D01*
X389496Y5493D01*
X389587Y5434D01*
X389680Y5378D01*
X389775Y5325D01*
X389871Y5276D01*
X389970Y5231D01*
X390070Y5189D01*
X390171Y5151D01*
X390274Y5116D01*
X390377Y5085D01*
X390482Y5058D01*
X390588Y5035D01*
X390695Y5016D01*
X390802Y5000D01*
X390910Y4988D01*
X391018Y4980D01*
X391126Y4976D01*
X391234Y4976D01*
X391342Y4980D01*
X391450Y4988D01*
X391558Y5000D01*
X391665Y5016D01*
X391772Y5035D01*
X391878Y5058D01*
X391983Y5085D01*
X392086Y5116D01*
X392189Y5151D01*
X392290Y5189D01*
X392390Y5231D01*
X392489Y5276D01*
X392585Y5325D01*
X392680Y5378D01*
X392773Y5434D01*
X392864Y5493D01*
X392952Y5555D01*
X393038Y5621D01*
X393122Y5690D01*
X393203Y5761D01*
X393282Y5836D01*
X393358Y5913D01*
X393431Y5993D01*
X393501Y6075D01*
X393568Y6160D01*
X393632Y6248D01*
X393693Y6338D01*
X393751Y6429D01*
X393805Y6523D01*
X393855Y6619D01*
X393903Y6716D01*
X393946Y6815D01*
X393987Y6916D01*
X394023Y7018D01*
X394056Y7121D01*
X394085Y7226D01*
X394110Y7331D01*
X394131Y7437D01*
X394149Y7544D01*
X394162Y7652D01*
X394172Y7760D01*
X394178Y7868D01*
X394180Y7976D01*
X388180Y47326D02*
X388180Y58326D01*
X394180Y58326D02*
X394180Y47326D01*
X394178Y47218D01*
X394172Y47110D01*
X394162Y47002D01*
X394149Y46894D01*
X394131Y46787D01*
X394110Y46681D01*
X394085Y46576D01*
X394056Y46471D01*
X394023Y46368D01*
X393987Y46266D01*
X393946Y46165D01*
X393903Y46066D01*
X393855Y45969D01*
X393805Y45873D01*
X393751Y45779D01*
X393693Y45688D01*
X393632Y45598D01*
X393568Y45510D01*
X393501Y45425D01*
X393431Y45343D01*
X393358Y45263D01*
X393282Y45186D01*
X393203Y45111D01*
X393122Y45040D01*
X393038Y44971D01*
X392952Y44905D01*
X392864Y44843D01*
X392773Y44784D01*
X392680Y44728D01*
X392585Y44675D01*
X392489Y44626D01*
X392390Y44581D01*
X392290Y44539D01*
X392189Y44501D01*
X392086Y44466D01*
X391983Y44435D01*
X391878Y44408D01*
X391772Y44385D01*
X391665Y44366D01*
X391558Y44350D01*
X391450Y44338D01*
X391342Y44330D01*
X391234Y44326D01*
X391126Y44326D01*
X391018Y44330D01*
X390910Y44338D01*
X390802Y44350D01*
X390695Y44366D01*
X390588Y44385D01*
X390482Y44408D01*
X390377Y44435D01*
X390274Y44466D01*
X390171Y44501D01*
X390070Y44539D01*
X389970Y44581D01*
X389871Y44626D01*
X389775Y44675D01*
X389680Y44728D01*
X389587Y44784D01*
X389496Y44843D01*
X389408Y44905D01*
X389322Y44971D01*
X389238Y45040D01*
X389157Y45111D01*
X389078Y45186D01*
X389002Y45263D01*
X388929Y45343D01*
X388859Y45425D01*
X388792Y45510D01*
X388728Y45598D01*
X388667Y45688D01*
X388609Y45779D01*
X388555Y45873D01*
X388505Y45969D01*
X388457Y46066D01*
X388414Y46165D01*
X388373Y46266D01*
X388337Y46368D01*
X388304Y46471D01*
X388275Y46576D01*
X388250Y46681D01*
X388229Y46787D01*
X388211Y46894D01*
X388198Y47002D01*
X388188Y47110D01*
X388182Y47218D01*
X388180Y47326D01*
X388180Y58326D02*
X388182Y58434D01*
X388188Y58542D01*
X388198Y58650D01*
X388211Y58758D01*
X388229Y58865D01*
X388250Y58971D01*
X388275Y59076D01*
X388304Y59181D01*
X388337Y59284D01*
X388373Y59386D01*
X388414Y59487D01*
X388457Y59586D01*
X388505Y59683D01*
X388555Y59779D01*
X388609Y59873D01*
X388667Y59964D01*
X388728Y60054D01*
X388792Y60142D01*
X388859Y60227D01*
X388929Y60309D01*
X389002Y60389D01*
X389078Y60466D01*
X389157Y60541D01*
X389238Y60612D01*
X389322Y60681D01*
X389408Y60747D01*
X389496Y60809D01*
X389587Y60868D01*
X389680Y60924D01*
X389775Y60977D01*
X389871Y61026D01*
X389970Y61071D01*
X390070Y61113D01*
X390171Y61151D01*
X390274Y61186D01*
X390377Y61217D01*
X390482Y61244D01*
X390588Y61267D01*
X390695Y61286D01*
X390802Y61302D01*
X390910Y61314D01*
X391018Y61322D01*
X391126Y61326D01*
X391234Y61326D01*
X391342Y61322D01*
X391450Y61314D01*
X391558Y61302D01*
X391665Y61286D01*
X391772Y61267D01*
X391878Y61244D01*
X391983Y61217D01*
X392086Y61186D01*
X392189Y61151D01*
X392290Y61113D01*
X392390Y61071D01*
X392489Y61026D01*
X392585Y60977D01*
X392680Y60924D01*
X392773Y60868D01*
X392864Y60809D01*
X392952Y60747D01*
X393038Y60681D01*
X393122Y60612D01*
X393203Y60541D01*
X393282Y60466D01*
X393358Y60389D01*
X393431Y60309D01*
X393501Y60227D01*
X393568Y60142D01*
X393632Y60054D01*
X393693Y59964D01*
X393751Y59873D01*
X393805Y59779D01*
X393855Y59683D01*
X393903Y59586D01*
X393946Y59487D01*
X393987Y59386D01*
X394023Y59284D01*
X394056Y59181D01*
X394085Y59076D01*
X394110Y58971D01*
X394131Y58865D01*
X394149Y58758D01*
X394162Y58650D01*
X394172Y58542D01*
X394178Y58434D01*
X394180Y58326D01*
D14*
X477520Y25400D02*
X477525Y25774D01*
X477538Y26148D01*
X477561Y26521D01*
X477593Y26894D01*
X477635Y27266D01*
X477685Y27636D01*
X477744Y28005D01*
X477813Y28373D01*
X477890Y28739D01*
X477977Y29103D01*
X478072Y29465D01*
X478176Y29824D01*
X478289Y30181D01*
X478411Y30534D01*
X478541Y30885D01*
X478680Y31232D01*
X478827Y31576D01*
X478983Y31916D01*
X479147Y32252D01*
X479320Y32584D01*
X479500Y32912D01*
X479688Y33235D01*
X479884Y33553D01*
X480088Y33867D01*
X480300Y34175D01*
X480519Y34478D01*
X480746Y34776D01*
X480979Y35068D01*
X481220Y35354D01*
X481468Y35635D01*
X481722Y35909D01*
X481984Y36176D01*
X482251Y36438D01*
X482525Y36692D01*
X482806Y36940D01*
X483092Y37181D01*
X483384Y37414D01*
X483682Y37641D01*
X483985Y37860D01*
X484293Y38072D01*
X484607Y38276D01*
X484925Y38472D01*
X485248Y38660D01*
X485576Y38840D01*
X485908Y39013D01*
X486244Y39177D01*
X486584Y39333D01*
X486928Y39480D01*
X487275Y39619D01*
X487626Y39749D01*
X487979Y39871D01*
X488336Y39984D01*
X488695Y40088D01*
X489057Y40183D01*
X489421Y40270D01*
X489787Y40347D01*
X490155Y40416D01*
X490524Y40475D01*
X490894Y40525D01*
X491266Y40567D01*
X491639Y40599D01*
X492012Y40622D01*
X492386Y40635D01*
X492760Y40640D01*
X493134Y40635D01*
X493508Y40622D01*
X493881Y40599D01*
X494254Y40567D01*
X494626Y40525D01*
X494996Y40475D01*
X495365Y40416D01*
X495733Y40347D01*
X496099Y40270D01*
X496463Y40183D01*
X496825Y40088D01*
X497184Y39984D01*
X497541Y39871D01*
X497894Y39749D01*
X498245Y39619D01*
X498592Y39480D01*
X498936Y39333D01*
X499276Y39177D01*
X499612Y39013D01*
X499944Y38840D01*
X500272Y38660D01*
X500595Y38472D01*
X500913Y38276D01*
X501227Y38072D01*
X501535Y37860D01*
X501838Y37641D01*
X502136Y37414D01*
X502428Y37181D01*
X502714Y36940D01*
X502995Y36692D01*
X503269Y36438D01*
X503536Y36176D01*
X503798Y35909D01*
X504052Y35635D01*
X504300Y35354D01*
X504541Y35068D01*
X504774Y34776D01*
X505001Y34478D01*
X505220Y34175D01*
X505432Y33867D01*
X505636Y33553D01*
X505832Y33235D01*
X506020Y32912D01*
X506200Y32584D01*
X506373Y32252D01*
X506537Y31916D01*
X506693Y31576D01*
X506840Y31232D01*
X506979Y30885D01*
X507109Y30534D01*
X507231Y30181D01*
X507344Y29824D01*
X507448Y29465D01*
X507543Y29103D01*
X507630Y28739D01*
X507707Y28373D01*
X507776Y28005D01*
X507835Y27636D01*
X507885Y27266D01*
X507927Y26894D01*
X507959Y26521D01*
X507982Y26148D01*
X507995Y25774D01*
X508000Y25400D01*
X507995Y25026D01*
X507982Y24652D01*
X507959Y24279D01*
X507927Y23906D01*
X507885Y23534D01*
X507835Y23164D01*
X507776Y22795D01*
X507707Y22427D01*
X507630Y22061D01*
X507543Y21697D01*
X507448Y21335D01*
X507344Y20976D01*
X507231Y20619D01*
X507109Y20266D01*
X506979Y19915D01*
X506840Y19568D01*
X506693Y19224D01*
X506537Y18884D01*
X506373Y18548D01*
X506200Y18216D01*
X506020Y17888D01*
X505832Y17565D01*
X505636Y17247D01*
X505432Y16933D01*
X505220Y16625D01*
X505001Y16322D01*
X504774Y16024D01*
X504541Y15732D01*
X504300Y15446D01*
X504052Y15165D01*
X503798Y14891D01*
X503536Y14624D01*
X503269Y14362D01*
X502995Y14108D01*
X502714Y13860D01*
X502428Y13619D01*
X502136Y13386D01*
X501838Y13159D01*
X501535Y12940D01*
X501227Y12728D01*
X500913Y12524D01*
X500595Y12328D01*
X500272Y12140D01*
X499944Y11960D01*
X499612Y11787D01*
X499276Y11623D01*
X498936Y11467D01*
X498592Y11320D01*
X498245Y11181D01*
X497894Y11051D01*
X497541Y10929D01*
X497184Y10816D01*
X496825Y10712D01*
X496463Y10617D01*
X496099Y10530D01*
X495733Y10453D01*
X495365Y10384D01*
X494996Y10325D01*
X494626Y10275D01*
X494254Y10233D01*
X493881Y10201D01*
X493508Y10178D01*
X493134Y10165D01*
X492760Y10160D01*
X492386Y10165D01*
X492012Y10178D01*
X491639Y10201D01*
X491266Y10233D01*
X490894Y10275D01*
X490524Y10325D01*
X490155Y10384D01*
X489787Y10453D01*
X489421Y10530D01*
X489057Y10617D01*
X488695Y10712D01*
X488336Y10816D01*
X487979Y10929D01*
X487626Y11051D01*
X487275Y11181D01*
X486928Y11320D01*
X486584Y11467D01*
X486244Y11623D01*
X485908Y11787D01*
X485576Y11960D01*
X485248Y12140D01*
X484925Y12328D01*
X484607Y12524D01*
X484293Y12728D01*
X483985Y12940D01*
X483682Y13159D01*
X483384Y13386D01*
X483092Y13619D01*
X482806Y13860D01*
X482525Y14108D01*
X482251Y14362D01*
X481984Y14624D01*
X481722Y14891D01*
X481468Y15165D01*
X481220Y15446D01*
X480979Y15732D01*
X480746Y16024D01*
X480519Y16322D01*
X480300Y16625D01*
X480088Y16933D01*
X479884Y17247D01*
X479688Y17565D01*
X479500Y17888D01*
X479320Y18216D01*
X479147Y18548D01*
X478983Y18884D01*
X478827Y19224D01*
X478680Y19568D01*
X478541Y19915D01*
X478411Y20266D01*
X478289Y20619D01*
X478176Y20976D01*
X478072Y21335D01*
X477977Y21697D01*
X477890Y22061D01*
X477813Y22427D01*
X477744Y22795D01*
X477685Y23164D01*
X477635Y23534D01*
X477593Y23906D01*
X477561Y24279D01*
X477538Y24652D01*
X477525Y25026D01*
X477520Y25400D01*
X655320Y25400D02*
X655325Y25774D01*
X655338Y26148D01*
X655361Y26521D01*
X655393Y26894D01*
X655435Y27266D01*
X655485Y27636D01*
X655544Y28005D01*
X655613Y28373D01*
X655690Y28739D01*
X655777Y29103D01*
X655872Y29465D01*
X655976Y29824D01*
X656089Y30181D01*
X656211Y30534D01*
X656341Y30885D01*
X656480Y31232D01*
X656627Y31576D01*
X656783Y31916D01*
X656947Y32252D01*
X657120Y32584D01*
X657300Y32912D01*
X657488Y33235D01*
X657684Y33553D01*
X657888Y33867D01*
X658100Y34175D01*
X658319Y34478D01*
X658546Y34776D01*
X658779Y35068D01*
X659020Y35354D01*
X659268Y35635D01*
X659522Y35909D01*
X659784Y36176D01*
X660051Y36438D01*
X660325Y36692D01*
X660606Y36940D01*
X660892Y37181D01*
X661184Y37414D01*
X661482Y37641D01*
X661785Y37860D01*
X662093Y38072D01*
X662407Y38276D01*
X662725Y38472D01*
X663048Y38660D01*
X663376Y38840D01*
X663708Y39013D01*
X664044Y39177D01*
X664384Y39333D01*
X664728Y39480D01*
X665075Y39619D01*
X665426Y39749D01*
X665779Y39871D01*
X666136Y39984D01*
X666495Y40088D01*
X666857Y40183D01*
X667221Y40270D01*
X667587Y40347D01*
X667955Y40416D01*
X668324Y40475D01*
X668694Y40525D01*
X669066Y40567D01*
X669439Y40599D01*
X669812Y40622D01*
X670186Y40635D01*
X670560Y40640D01*
X670934Y40635D01*
X671308Y40622D01*
X671681Y40599D01*
X672054Y40567D01*
X672426Y40525D01*
X672796Y40475D01*
X673165Y40416D01*
X673533Y40347D01*
X673899Y40270D01*
X674263Y40183D01*
X674625Y40088D01*
X674984Y39984D01*
X675341Y39871D01*
X675694Y39749D01*
X676045Y39619D01*
X676392Y39480D01*
X676736Y39333D01*
X677076Y39177D01*
X677412Y39013D01*
X677744Y38840D01*
X678072Y38660D01*
X678395Y38472D01*
X678713Y38276D01*
X679027Y38072D01*
X679335Y37860D01*
X679638Y37641D01*
X679936Y37414D01*
X680228Y37181D01*
X680514Y36940D01*
X680795Y36692D01*
X681069Y36438D01*
X681336Y36176D01*
X681598Y35909D01*
X681852Y35635D01*
X682100Y35354D01*
X682341Y35068D01*
X682574Y34776D01*
X682801Y34478D01*
X683020Y34175D01*
X683232Y33867D01*
X683436Y33553D01*
X683632Y33235D01*
X683820Y32912D01*
X684000Y32584D01*
X684173Y32252D01*
X684337Y31916D01*
X684493Y31576D01*
X684640Y31232D01*
X684779Y30885D01*
X684909Y30534D01*
X685031Y30181D01*
X685144Y29824D01*
X685248Y29465D01*
X685343Y29103D01*
X685430Y28739D01*
X685507Y28373D01*
X685576Y28005D01*
X685635Y27636D01*
X685685Y27266D01*
X685727Y26894D01*
X685759Y26521D01*
X685782Y26148D01*
X685795Y25774D01*
X685800Y25400D01*
X685795Y25026D01*
X685782Y24652D01*
X685759Y24279D01*
X685727Y23906D01*
X685685Y23534D01*
X685635Y23164D01*
X685576Y22795D01*
X685507Y22427D01*
X685430Y22061D01*
X685343Y21697D01*
X685248Y21335D01*
X685144Y20976D01*
X685031Y20619D01*
X684909Y20266D01*
X684779Y19915D01*
X684640Y19568D01*
X684493Y19224D01*
X684337Y18884D01*
X684173Y18548D01*
X684000Y18216D01*
X683820Y17888D01*
X683632Y17565D01*
X683436Y17247D01*
X683232Y16933D01*
X683020Y16625D01*
X682801Y16322D01*
X682574Y16024D01*
X682341Y15732D01*
X682100Y15446D01*
X681852Y15165D01*
X681598Y14891D01*
X681336Y14624D01*
X681069Y14362D01*
X680795Y14108D01*
X680514Y13860D01*
X680228Y13619D01*
X679936Y13386D01*
X679638Y13159D01*
X679335Y12940D01*
X679027Y12728D01*
X678713Y12524D01*
X678395Y12328D01*
X678072Y12140D01*
X677744Y11960D01*
X677412Y11787D01*
X677076Y11623D01*
X676736Y11467D01*
X676392Y11320D01*
X676045Y11181D01*
X675694Y11051D01*
X675341Y10929D01*
X674984Y10816D01*
X674625Y10712D01*
X674263Y10617D01*
X673899Y10530D01*
X673533Y10453D01*
X673165Y10384D01*
X672796Y10325D01*
X672426Y10275D01*
X672054Y10233D01*
X671681Y10201D01*
X671308Y10178D01*
X670934Y10165D01*
X670560Y10160D01*
X670186Y10165D01*
X669812Y10178D01*
X669439Y10201D01*
X669066Y10233D01*
X668694Y10275D01*
X668324Y10325D01*
X667955Y10384D01*
X667587Y10453D01*
X667221Y10530D01*
X666857Y10617D01*
X666495Y10712D01*
X666136Y10816D01*
X665779Y10929D01*
X665426Y11051D01*
X665075Y11181D01*
X664728Y11320D01*
X664384Y11467D01*
X664044Y11623D01*
X663708Y11787D01*
X663376Y11960D01*
X663048Y12140D01*
X662725Y12328D01*
X662407Y12524D01*
X662093Y12728D01*
X661785Y12940D01*
X661482Y13159D01*
X661184Y13386D01*
X660892Y13619D01*
X660606Y13860D01*
X660325Y14108D01*
X660051Y14362D01*
X659784Y14624D01*
X659522Y14891D01*
X659268Y15165D01*
X659020Y15446D01*
X658779Y15732D01*
X658546Y16024D01*
X658319Y16322D01*
X658100Y16625D01*
X657888Y16933D01*
X657684Y17247D01*
X657488Y17565D01*
X657300Y17888D01*
X657120Y18216D01*
X656947Y18548D01*
X656783Y18884D01*
X656627Y19224D01*
X656480Y19568D01*
X656341Y19915D01*
X656211Y20266D01*
X656089Y20619D01*
X655976Y20976D01*
X655872Y21335D01*
X655777Y21697D01*
X655690Y22061D01*
X655613Y22427D01*
X655544Y22795D01*
X655485Y23164D01*
X655435Y23534D01*
X655393Y23906D01*
X655361Y24279D01*
X655338Y24652D01*
X655325Y25026D01*
X655320Y25400D01*
X655320Y558800D02*
X655325Y559174D01*
X655338Y559548D01*
X655361Y559921D01*
X655393Y560294D01*
X655435Y560666D01*
X655485Y561036D01*
X655544Y561405D01*
X655613Y561773D01*
X655690Y562139D01*
X655777Y562503D01*
X655872Y562865D01*
X655976Y563224D01*
X656089Y563581D01*
X656211Y563934D01*
X656341Y564285D01*
X656480Y564632D01*
X656627Y564976D01*
X656783Y565316D01*
X656947Y565652D01*
X657120Y565984D01*
X657300Y566312D01*
X657488Y566635D01*
X657684Y566953D01*
X657888Y567267D01*
X658100Y567575D01*
X658319Y567878D01*
X658546Y568176D01*
X658779Y568468D01*
X659020Y568754D01*
X659268Y569035D01*
X659522Y569309D01*
X659784Y569576D01*
X660051Y569838D01*
X660325Y570092D01*
X660606Y570340D01*
X660892Y570581D01*
X661184Y570814D01*
X661482Y571041D01*
X661785Y571260D01*
X662093Y571472D01*
X662407Y571676D01*
X662725Y571872D01*
X663048Y572060D01*
X663376Y572240D01*
X663708Y572413D01*
X664044Y572577D01*
X664384Y572733D01*
X664728Y572880D01*
X665075Y573019D01*
X665426Y573149D01*
X665779Y573271D01*
X666136Y573384D01*
X666495Y573488D01*
X666857Y573583D01*
X667221Y573670D01*
X667587Y573747D01*
X667955Y573816D01*
X668324Y573875D01*
X668694Y573925D01*
X669066Y573967D01*
X669439Y573999D01*
X669812Y574022D01*
X670186Y574035D01*
X670560Y574040D01*
X670934Y574035D01*
X671308Y574022D01*
X671681Y573999D01*
X672054Y573967D01*
X672426Y573925D01*
X672796Y573875D01*
X673165Y573816D01*
X673533Y573747D01*
X673899Y573670D01*
X674263Y573583D01*
X674625Y573488D01*
X674984Y573384D01*
X675341Y573271D01*
X675694Y573149D01*
X676045Y573019D01*
X676392Y572880D01*
X676736Y572733D01*
X677076Y572577D01*
X677412Y572413D01*
X677744Y572240D01*
X678072Y572060D01*
X678395Y571872D01*
X678713Y571676D01*
X679027Y571472D01*
X679335Y571260D01*
X679638Y571041D01*
X679936Y570814D01*
X680228Y570581D01*
X680514Y570340D01*
X680795Y570092D01*
X681069Y569838D01*
X681336Y569576D01*
X681598Y569309D01*
X681852Y569035D01*
X682100Y568754D01*
X682341Y568468D01*
X682574Y568176D01*
X682801Y567878D01*
X683020Y567575D01*
X683232Y567267D01*
X683436Y566953D01*
X683632Y566635D01*
X683820Y566312D01*
X684000Y565984D01*
X684173Y565652D01*
X684337Y565316D01*
X684493Y564976D01*
X684640Y564632D01*
X684779Y564285D01*
X684909Y563934D01*
X685031Y563581D01*
X685144Y563224D01*
X685248Y562865D01*
X685343Y562503D01*
X685430Y562139D01*
X685507Y561773D01*
X685576Y561405D01*
X685635Y561036D01*
X685685Y560666D01*
X685727Y560294D01*
X685759Y559921D01*
X685782Y559548D01*
X685795Y559174D01*
X685800Y558800D01*
X685795Y558426D01*
X685782Y558052D01*
X685759Y557679D01*
X685727Y557306D01*
X685685Y556934D01*
X685635Y556564D01*
X685576Y556195D01*
X685507Y555827D01*
X685430Y555461D01*
X685343Y555097D01*
X685248Y554735D01*
X685144Y554376D01*
X685031Y554019D01*
X684909Y553666D01*
X684779Y553315D01*
X684640Y552968D01*
X684493Y552624D01*
X684337Y552284D01*
X684173Y551948D01*
X684000Y551616D01*
X683820Y551288D01*
X683632Y550965D01*
X683436Y550647D01*
X683232Y550333D01*
X683020Y550025D01*
X682801Y549722D01*
X682574Y549424D01*
X682341Y549132D01*
X682100Y548846D01*
X681852Y548565D01*
X681598Y548291D01*
X681336Y548024D01*
X681069Y547762D01*
X680795Y547508D01*
X680514Y547260D01*
X680228Y547019D01*
X679936Y546786D01*
X679638Y546559D01*
X679335Y546340D01*
X679027Y546128D01*
X678713Y545924D01*
X678395Y545728D01*
X678072Y545540D01*
X677744Y545360D01*
X677412Y545187D01*
X677076Y545023D01*
X676736Y544867D01*
X676392Y544720D01*
X676045Y544581D01*
X675694Y544451D01*
X675341Y544329D01*
X674984Y544216D01*
X674625Y544112D01*
X674263Y544017D01*
X673899Y543930D01*
X673533Y543853D01*
X673165Y543784D01*
X672796Y543725D01*
X672426Y543675D01*
X672054Y543633D01*
X671681Y543601D01*
X671308Y543578D01*
X670934Y543565D01*
X670560Y543560D01*
X670186Y543565D01*
X669812Y543578D01*
X669439Y543601D01*
X669066Y543633D01*
X668694Y543675D01*
X668324Y543725D01*
X667955Y543784D01*
X667587Y543853D01*
X667221Y543930D01*
X666857Y544017D01*
X666495Y544112D01*
X666136Y544216D01*
X665779Y544329D01*
X665426Y544451D01*
X665075Y544581D01*
X664728Y544720D01*
X664384Y544867D01*
X664044Y545023D01*
X663708Y545187D01*
X663376Y545360D01*
X663048Y545540D01*
X662725Y545728D01*
X662407Y545924D01*
X662093Y546128D01*
X661785Y546340D01*
X661482Y546559D01*
X661184Y546786D01*
X660892Y547019D01*
X660606Y547260D01*
X660325Y547508D01*
X660051Y547762D01*
X659784Y548024D01*
X659522Y548291D01*
X659268Y548565D01*
X659020Y548846D01*
X658779Y549132D01*
X658546Y549424D01*
X658319Y549722D01*
X658100Y550025D01*
X657888Y550333D01*
X657684Y550647D01*
X657488Y550965D01*
X657300Y551288D01*
X657120Y551616D01*
X656947Y551948D01*
X656783Y552284D01*
X656627Y552624D01*
X656480Y552968D01*
X656341Y553315D01*
X656211Y553666D01*
X656089Y554019D01*
X655976Y554376D01*
X655872Y554735D01*
X655777Y555097D01*
X655690Y555461D01*
X655613Y555827D01*
X655544Y556195D01*
X655485Y556564D01*
X655435Y556934D01*
X655393Y557306D01*
X655361Y557679D01*
X655338Y558052D01*
X655325Y558426D01*
X655320Y558800D01*
X477520Y558800D02*
X477525Y559174D01*
X477538Y559548D01*
X477561Y559921D01*
X477593Y560294D01*
X477635Y560666D01*
X477685Y561036D01*
X477744Y561405D01*
X477813Y561773D01*
X477890Y562139D01*
X477977Y562503D01*
X478072Y562865D01*
X478176Y563224D01*
X478289Y563581D01*
X478411Y563934D01*
X478541Y564285D01*
X478680Y564632D01*
X478827Y564976D01*
X478983Y565316D01*
X479147Y565652D01*
X479320Y565984D01*
X479500Y566312D01*
X479688Y566635D01*
X479884Y566953D01*
X480088Y567267D01*
X480300Y567575D01*
X480519Y567878D01*
X480746Y568176D01*
X480979Y568468D01*
X481220Y568754D01*
X481468Y569035D01*
X481722Y569309D01*
X481984Y569576D01*
X482251Y569838D01*
X482525Y570092D01*
X482806Y570340D01*
X483092Y570581D01*
X483384Y570814D01*
X483682Y571041D01*
X483985Y571260D01*
X484293Y571472D01*
X484607Y571676D01*
X484925Y571872D01*
X485248Y572060D01*
X485576Y572240D01*
X485908Y572413D01*
X486244Y572577D01*
X486584Y572733D01*
X486928Y572880D01*
X487275Y573019D01*
X487626Y573149D01*
X487979Y573271D01*
X488336Y573384D01*
X488695Y573488D01*
X489057Y573583D01*
X489421Y573670D01*
X489787Y573747D01*
X490155Y573816D01*
X490524Y573875D01*
X490894Y573925D01*
X491266Y573967D01*
X491639Y573999D01*
X492012Y574022D01*
X492386Y574035D01*
X492760Y574040D01*
X493134Y574035D01*
X493508Y574022D01*
X493881Y573999D01*
X494254Y573967D01*
X494626Y573925D01*
X494996Y573875D01*
X495365Y573816D01*
X495733Y573747D01*
X496099Y573670D01*
X496463Y573583D01*
X496825Y573488D01*
X497184Y573384D01*
X497541Y573271D01*
X497894Y573149D01*
X498245Y573019D01*
X498592Y572880D01*
X498936Y572733D01*
X499276Y572577D01*
X499612Y572413D01*
X499944Y572240D01*
X500272Y572060D01*
X500595Y571872D01*
X500913Y571676D01*
X501227Y571472D01*
X501535Y571260D01*
X501838Y571041D01*
X502136Y570814D01*
X502428Y570581D01*
X502714Y570340D01*
X502995Y570092D01*
X503269Y569838D01*
X503536Y569576D01*
X503798Y569309D01*
X504052Y569035D01*
X504300Y568754D01*
X504541Y568468D01*
X504774Y568176D01*
X505001Y567878D01*
X505220Y567575D01*
X505432Y567267D01*
X505636Y566953D01*
X505832Y566635D01*
X506020Y566312D01*
X506200Y565984D01*
X506373Y565652D01*
X506537Y565316D01*
X506693Y564976D01*
X506840Y564632D01*
X506979Y564285D01*
X507109Y563934D01*
X507231Y563581D01*
X507344Y563224D01*
X507448Y562865D01*
X507543Y562503D01*
X507630Y562139D01*
X507707Y561773D01*
X507776Y561405D01*
X507835Y561036D01*
X507885Y560666D01*
X507927Y560294D01*
X507959Y559921D01*
X507982Y559548D01*
X507995Y559174D01*
X508000Y558800D01*
X507995Y558426D01*
X507982Y558052D01*
X507959Y557679D01*
X507927Y557306D01*
X507885Y556934D01*
X507835Y556564D01*
X507776Y556195D01*
X507707Y555827D01*
X507630Y555461D01*
X507543Y555097D01*
X507448Y554735D01*
X507344Y554376D01*
X507231Y554019D01*
X507109Y553666D01*
X506979Y553315D01*
X506840Y552968D01*
X506693Y552624D01*
X506537Y552284D01*
X506373Y551948D01*
X506200Y551616D01*
X506020Y551288D01*
X505832Y550965D01*
X505636Y550647D01*
X505432Y550333D01*
X505220Y550025D01*
X505001Y549722D01*
X504774Y549424D01*
X504541Y549132D01*
X504300Y548846D01*
X504052Y548565D01*
X503798Y548291D01*
X503536Y548024D01*
X503269Y547762D01*
X502995Y547508D01*
X502714Y547260D01*
X502428Y547019D01*
X502136Y546786D01*
X501838Y546559D01*
X501535Y546340D01*
X501227Y546128D01*
X500913Y545924D01*
X500595Y545728D01*
X500272Y545540D01*
X499944Y545360D01*
X499612Y545187D01*
X499276Y545023D01*
X498936Y544867D01*
X498592Y544720D01*
X498245Y544581D01*
X497894Y544451D01*
X497541Y544329D01*
X497184Y544216D01*
X496825Y544112D01*
X496463Y544017D01*
X496099Y543930D01*
X495733Y543853D01*
X495365Y543784D01*
X494996Y543725D01*
X494626Y543675D01*
X494254Y543633D01*
X493881Y543601D01*
X493508Y543578D01*
X493134Y543565D01*
X492760Y543560D01*
X492386Y543565D01*
X492012Y543578D01*
X491639Y543601D01*
X491266Y543633D01*
X490894Y543675D01*
X490524Y543725D01*
X490155Y543784D01*
X489787Y543853D01*
X489421Y543930D01*
X489057Y544017D01*
X488695Y544112D01*
X488336Y544216D01*
X487979Y544329D01*
X487626Y544451D01*
X487275Y544581D01*
X486928Y544720D01*
X486584Y544867D01*
X486244Y545023D01*
X485908Y545187D01*
X485576Y545360D01*
X485248Y545540D01*
X484925Y545728D01*
X484607Y545924D01*
X484293Y546128D01*
X483985Y546340D01*
X483682Y546559D01*
X483384Y546786D01*
X483092Y547019D01*
X482806Y547260D01*
X482525Y547508D01*
X482251Y547762D01*
X481984Y548024D01*
X481722Y548291D01*
X481468Y548565D01*
X481220Y548846D01*
X480979Y549132D01*
X480746Y549424D01*
X480519Y549722D01*
X480300Y550025D01*
X480088Y550333D01*
X479884Y550647D01*
X479688Y550965D01*
X479500Y551288D01*
X479320Y551616D01*
X479147Y551948D01*
X478983Y552284D01*
X478827Y552624D01*
X478680Y552968D01*
X478541Y553315D01*
X478411Y553666D01*
X478289Y554019D01*
X478176Y554376D01*
X478072Y554735D01*
X477977Y555097D01*
X477890Y555461D01*
X477813Y555827D01*
X477744Y556195D01*
X477685Y556564D01*
X477635Y556934D01*
X477593Y557306D01*
X477561Y557679D01*
X477538Y558052D01*
X477525Y558426D01*
X477520Y558800D01*
X549510Y47526D02*
X549512Y47639D01*
X549518Y47753D01*
X549528Y47866D01*
X549542Y47978D01*
X549559Y48090D01*
X549581Y48202D01*
X549607Y48312D01*
X549636Y48422D01*
X549669Y48530D01*
X549706Y48638D01*
X549747Y48743D01*
X549791Y48848D01*
X549839Y48951D01*
X549890Y49052D01*
X549945Y49151D01*
X550004Y49248D01*
X550066Y49343D01*
X550131Y49436D01*
X550199Y49527D01*
X550270Y49615D01*
X550345Y49701D01*
X550422Y49784D01*
X550502Y49864D01*
X550585Y49941D01*
X550671Y50016D01*
X550759Y50087D01*
X550850Y50155D01*
X550943Y50220D01*
X551038Y50282D01*
X551135Y50341D01*
X551234Y50396D01*
X551335Y50447D01*
X551438Y50495D01*
X551543Y50539D01*
X551648Y50580D01*
X551756Y50617D01*
X551864Y50650D01*
X551974Y50679D01*
X552084Y50705D01*
X552196Y50727D01*
X552308Y50744D01*
X552420Y50758D01*
X552533Y50768D01*
X552647Y50774D01*
X552760Y50776D01*
X552873Y50774D01*
X552987Y50768D01*
X553100Y50758D01*
X553212Y50744D01*
X553324Y50727D01*
X553436Y50705D01*
X553546Y50679D01*
X553656Y50650D01*
X553764Y50617D01*
X553872Y50580D01*
X553977Y50539D01*
X554082Y50495D01*
X554185Y50447D01*
X554286Y50396D01*
X554385Y50341D01*
X554482Y50282D01*
X554577Y50220D01*
X554670Y50155D01*
X554761Y50087D01*
X554849Y50016D01*
X554935Y49941D01*
X555018Y49864D01*
X555098Y49784D01*
X555175Y49701D01*
X555250Y49615D01*
X555321Y49527D01*
X555389Y49436D01*
X555454Y49343D01*
X555516Y49248D01*
X555575Y49151D01*
X555630Y49052D01*
X555681Y48951D01*
X555729Y48848D01*
X555773Y48743D01*
X555814Y48638D01*
X555851Y48530D01*
X555884Y48422D01*
X555913Y48312D01*
X555939Y48202D01*
X555961Y48090D01*
X555978Y47978D01*
X555992Y47866D01*
X556002Y47753D01*
X556008Y47639D01*
X556010Y47526D01*
X556008Y47413D01*
X556002Y47299D01*
X555992Y47186D01*
X555978Y47074D01*
X555961Y46962D01*
X555939Y46850D01*
X555913Y46740D01*
X555884Y46630D01*
X555851Y46522D01*
X555814Y46414D01*
X555773Y46309D01*
X555729Y46204D01*
X555681Y46101D01*
X555630Y46000D01*
X555575Y45901D01*
X555516Y45804D01*
X555454Y45709D01*
X555389Y45616D01*
X555321Y45525D01*
X555250Y45437D01*
X555175Y45351D01*
X555098Y45268D01*
X555018Y45188D01*
X554935Y45111D01*
X554849Y45036D01*
X554761Y44965D01*
X554670Y44897D01*
X554577Y44832D01*
X554482Y44770D01*
X554385Y44711D01*
X554286Y44656D01*
X554185Y44605D01*
X554082Y44557D01*
X553977Y44513D01*
X553872Y44472D01*
X553764Y44435D01*
X553656Y44402D01*
X553546Y44373D01*
X553436Y44347D01*
X553324Y44325D01*
X553212Y44308D01*
X553100Y44294D01*
X552987Y44284D01*
X552873Y44278D01*
X552760Y44276D01*
X552647Y44278D01*
X552533Y44284D01*
X552420Y44294D01*
X552308Y44308D01*
X552196Y44325D01*
X552084Y44347D01*
X551974Y44373D01*
X551864Y44402D01*
X551756Y44435D01*
X551648Y44472D01*
X551543Y44513D01*
X551438Y44557D01*
X551335Y44605D01*
X551234Y44656D01*
X551135Y44711D01*
X551038Y44770D01*
X550943Y44832D01*
X550850Y44897D01*
X550759Y44965D01*
X550671Y45036D01*
X550585Y45111D01*
X550502Y45188D01*
X550422Y45268D01*
X550345Y45351D01*
X550270Y45437D01*
X550199Y45525D01*
X550131Y45616D01*
X550066Y45709D01*
X550004Y45804D01*
X549945Y45901D01*
X549890Y46000D01*
X549839Y46101D01*
X549791Y46204D01*
X549747Y46309D01*
X549706Y46414D01*
X549669Y46522D01*
X549636Y46630D01*
X549607Y46740D01*
X549581Y46850D01*
X549559Y46962D01*
X549542Y47074D01*
X549528Y47186D01*
X549518Y47299D01*
X549512Y47413D01*
X549510Y47526D01*
X607310Y47526D02*
X607312Y47639D01*
X607318Y47753D01*
X607328Y47866D01*
X607342Y47978D01*
X607359Y48090D01*
X607381Y48202D01*
X607407Y48312D01*
X607436Y48422D01*
X607469Y48530D01*
X607506Y48638D01*
X607547Y48743D01*
X607591Y48848D01*
X607639Y48951D01*
X607690Y49052D01*
X607745Y49151D01*
X607804Y49248D01*
X607866Y49343D01*
X607931Y49436D01*
X607999Y49527D01*
X608070Y49615D01*
X608145Y49701D01*
X608222Y49784D01*
X608302Y49864D01*
X608385Y49941D01*
X608471Y50016D01*
X608559Y50087D01*
X608650Y50155D01*
X608743Y50220D01*
X608838Y50282D01*
X608935Y50341D01*
X609034Y50396D01*
X609135Y50447D01*
X609238Y50495D01*
X609343Y50539D01*
X609448Y50580D01*
X609556Y50617D01*
X609664Y50650D01*
X609774Y50679D01*
X609884Y50705D01*
X609996Y50727D01*
X610108Y50744D01*
X610220Y50758D01*
X610333Y50768D01*
X610447Y50774D01*
X610560Y50776D01*
X610673Y50774D01*
X610787Y50768D01*
X610900Y50758D01*
X611012Y50744D01*
X611124Y50727D01*
X611236Y50705D01*
X611346Y50679D01*
X611456Y50650D01*
X611564Y50617D01*
X611672Y50580D01*
X611777Y50539D01*
X611882Y50495D01*
X611985Y50447D01*
X612086Y50396D01*
X612185Y50341D01*
X612282Y50282D01*
X612377Y50220D01*
X612470Y50155D01*
X612561Y50087D01*
X612649Y50016D01*
X612735Y49941D01*
X612818Y49864D01*
X612898Y49784D01*
X612975Y49701D01*
X613050Y49615D01*
X613121Y49527D01*
X613189Y49436D01*
X613254Y49343D01*
X613316Y49248D01*
X613375Y49151D01*
X613430Y49052D01*
X613481Y48951D01*
X613529Y48848D01*
X613573Y48743D01*
X613614Y48638D01*
X613651Y48530D01*
X613684Y48422D01*
X613713Y48312D01*
X613739Y48202D01*
X613761Y48090D01*
X613778Y47978D01*
X613792Y47866D01*
X613802Y47753D01*
X613808Y47639D01*
X613810Y47526D01*
X613808Y47413D01*
X613802Y47299D01*
X613792Y47186D01*
X613778Y47074D01*
X613761Y46962D01*
X613739Y46850D01*
X613713Y46740D01*
X613684Y46630D01*
X613651Y46522D01*
X613614Y46414D01*
X613573Y46309D01*
X613529Y46204D01*
X613481Y46101D01*
X613430Y46000D01*
X613375Y45901D01*
X613316Y45804D01*
X613254Y45709D01*
X613189Y45616D01*
X613121Y45525D01*
X613050Y45437D01*
X612975Y45351D01*
X612898Y45268D01*
X612818Y45188D01*
X612735Y45111D01*
X612649Y45036D01*
X612561Y44965D01*
X612470Y44897D01*
X612377Y44832D01*
X612282Y44770D01*
X612185Y44711D01*
X612086Y44656D01*
X611985Y44605D01*
X611882Y44557D01*
X611777Y44513D01*
X611672Y44472D01*
X611564Y44435D01*
X611456Y44402D01*
X611346Y44373D01*
X611236Y44347D01*
X611124Y44325D01*
X611012Y44308D01*
X610900Y44294D01*
X610787Y44284D01*
X610673Y44278D01*
X610560Y44276D01*
X610447Y44278D01*
X610333Y44284D01*
X610220Y44294D01*
X610108Y44308D01*
X609996Y44325D01*
X609884Y44347D01*
X609774Y44373D01*
X609664Y44402D01*
X609556Y44435D01*
X609448Y44472D01*
X609343Y44513D01*
X609238Y44557D01*
X609135Y44605D01*
X609034Y44656D01*
X608935Y44711D01*
X608838Y44770D01*
X608743Y44832D01*
X608650Y44897D01*
X608559Y44965D01*
X608471Y45036D01*
X608385Y45111D01*
X608302Y45188D01*
X608222Y45268D01*
X608145Y45351D01*
X608070Y45437D01*
X607999Y45525D01*
X607931Y45616D01*
X607866Y45709D01*
X607804Y45804D01*
X607745Y45901D01*
X607690Y46000D01*
X607639Y46101D01*
X607591Y46204D01*
X607547Y46309D01*
X607506Y46414D01*
X607469Y46522D01*
X607436Y46630D01*
X607407Y46740D01*
X607381Y46850D01*
X607359Y46962D01*
X607342Y47074D01*
X607328Y47186D01*
X607318Y47299D01*
X607312Y47413D01*
X607310Y47526D01*
D15*
X535460Y14176D02*
X535460Y7976D01*
X541460Y7976D02*
X541460Y14176D01*
X541458Y14284D01*
X541452Y14392D01*
X541442Y14500D01*
X541429Y14608D01*
X541411Y14715D01*
X541390Y14821D01*
X541365Y14926D01*
X541336Y15031D01*
X541303Y15134D01*
X541267Y15236D01*
X541226Y15337D01*
X541183Y15436D01*
X541135Y15533D01*
X541085Y15629D01*
X541031Y15723D01*
X540973Y15814D01*
X540912Y15904D01*
X540848Y15992D01*
X540781Y16077D01*
X540711Y16159D01*
X540638Y16239D01*
X540562Y16316D01*
X540483Y16391D01*
X540402Y16462D01*
X540318Y16531D01*
X540232Y16597D01*
X540144Y16659D01*
X540053Y16718D01*
X539960Y16774D01*
X539865Y16827D01*
X539769Y16876D01*
X539670Y16921D01*
X539570Y16963D01*
X539469Y17001D01*
X539366Y17036D01*
X539263Y17067D01*
X539158Y17094D01*
X539052Y17117D01*
X538945Y17136D01*
X538838Y17152D01*
X538730Y17164D01*
X538622Y17172D01*
X538514Y17176D01*
X538406Y17176D01*
X538298Y17172D01*
X538190Y17164D01*
X538082Y17152D01*
X537975Y17136D01*
X537868Y17117D01*
X537762Y17094D01*
X537657Y17067D01*
X537554Y17036D01*
X537451Y17001D01*
X537350Y16963D01*
X537250Y16921D01*
X537151Y16876D01*
X537055Y16827D01*
X536960Y16774D01*
X536867Y16718D01*
X536776Y16659D01*
X536688Y16597D01*
X536602Y16531D01*
X536518Y16462D01*
X536437Y16391D01*
X536358Y16316D01*
X536282Y16239D01*
X536209Y16159D01*
X536139Y16077D01*
X536072Y15992D01*
X536008Y15904D01*
X535947Y15814D01*
X535889Y15723D01*
X535835Y15629D01*
X535785Y15533D01*
X535737Y15436D01*
X535694Y15337D01*
X535653Y15236D01*
X535617Y15134D01*
X535584Y15031D01*
X535555Y14926D01*
X535530Y14821D01*
X535509Y14715D01*
X535491Y14608D01*
X535478Y14500D01*
X535468Y14392D01*
X535462Y14284D01*
X535460Y14176D01*
X535460Y7976D02*
X535462Y7868D01*
X535468Y7760D01*
X535478Y7652D01*
X535491Y7544D01*
X535509Y7437D01*
X535530Y7331D01*
X535555Y7226D01*
X535584Y7121D01*
X535617Y7018D01*
X535653Y6916D01*
X535694Y6815D01*
X535737Y6716D01*
X535785Y6619D01*
X535835Y6523D01*
X535889Y6429D01*
X535947Y6338D01*
X536008Y6248D01*
X536072Y6160D01*
X536139Y6075D01*
X536209Y5993D01*
X536282Y5913D01*
X536358Y5836D01*
X536437Y5761D01*
X536518Y5690D01*
X536602Y5621D01*
X536688Y5555D01*
X536776Y5493D01*
X536867Y5434D01*
X536960Y5378D01*
X537055Y5325D01*
X537151Y5276D01*
X537250Y5231D01*
X537350Y5189D01*
X537451Y5151D01*
X537554Y5116D01*
X537657Y5085D01*
X537762Y5058D01*
X537868Y5035D01*
X537975Y5016D01*
X538082Y5000D01*
X538190Y4988D01*
X538298Y4980D01*
X538406Y4976D01*
X538514Y4976D01*
X538622Y4980D01*
X538730Y4988D01*
X538838Y5000D01*
X538945Y5016D01*
X539052Y5035D01*
X539158Y5058D01*
X539263Y5085D01*
X539366Y5116D01*
X539469Y5151D01*
X539570Y5189D01*
X539670Y5231D01*
X539769Y5276D01*
X539865Y5325D01*
X539960Y5378D01*
X540053Y5434D01*
X540144Y5493D01*
X540232Y5555D01*
X540318Y5621D01*
X540402Y5690D01*
X540483Y5761D01*
X540562Y5836D01*
X540638Y5913D01*
X540711Y5993D01*
X540781Y6075D01*
X540848Y6160D01*
X540912Y6248D01*
X540973Y6338D01*
X541031Y6429D01*
X541085Y6523D01*
X541135Y6619D01*
X541183Y6716D01*
X541226Y6815D01*
X541267Y6916D01*
X541303Y7018D01*
X541336Y7121D01*
X541365Y7226D01*
X541390Y7331D01*
X541411Y7437D01*
X541429Y7544D01*
X541442Y7652D01*
X541452Y7760D01*
X541458Y7868D01*
X541460Y7976D01*
X535460Y47326D02*
X535460Y58326D01*
X541460Y58326D02*
X541460Y47326D01*
X541458Y47218D01*
X541452Y47110D01*
X541442Y47002D01*
X541429Y46894D01*
X541411Y46787D01*
X541390Y46681D01*
X541365Y46576D01*
X541336Y46471D01*
X541303Y46368D01*
X541267Y46266D01*
X541226Y46165D01*
X541183Y46066D01*
X541135Y45969D01*
X541085Y45873D01*
X541031Y45779D01*
X540973Y45688D01*
X540912Y45598D01*
X540848Y45510D01*
X540781Y45425D01*
X540711Y45343D01*
X540638Y45263D01*
X540562Y45186D01*
X540483Y45111D01*
X540402Y45040D01*
X540318Y44971D01*
X540232Y44905D01*
X540144Y44843D01*
X540053Y44784D01*
X539960Y44728D01*
X539865Y44675D01*
X539769Y44626D01*
X539670Y44581D01*
X539570Y44539D01*
X539469Y44501D01*
X539366Y44466D01*
X539263Y44435D01*
X539158Y44408D01*
X539052Y44385D01*
X538945Y44366D01*
X538838Y44350D01*
X538730Y44338D01*
X538622Y44330D01*
X538514Y44326D01*
X538406Y44326D01*
X538298Y44330D01*
X538190Y44338D01*
X538082Y44350D01*
X537975Y44366D01*
X537868Y44385D01*
X537762Y44408D01*
X537657Y44435D01*
X537554Y44466D01*
X537451Y44501D01*
X537350Y44539D01*
X537250Y44581D01*
X537151Y44626D01*
X537055Y44675D01*
X536960Y44728D01*
X536867Y44784D01*
X536776Y44843D01*
X536688Y44905D01*
X536602Y44971D01*
X536518Y45040D01*
X536437Y45111D01*
X536358Y45186D01*
X536282Y45263D01*
X536209Y45343D01*
X536139Y45425D01*
X536072Y45510D01*
X536008Y45598D01*
X535947Y45688D01*
X535889Y45779D01*
X535835Y45873D01*
X535785Y45969D01*
X535737Y46066D01*
X535694Y46165D01*
X535653Y46266D01*
X535617Y46368D01*
X535584Y46471D01*
X535555Y46576D01*
X535530Y46681D01*
X535509Y46787D01*
X535491Y46894D01*
X535478Y47002D01*
X535468Y47110D01*
X535462Y47218D01*
X535460Y47326D01*
X535460Y58326D02*
X535462Y58434D01*
X535468Y58542D01*
X535478Y58650D01*
X535491Y58758D01*
X535509Y58865D01*
X535530Y58971D01*
X535555Y59076D01*
X535584Y59181D01*
X535617Y59284D01*
X535653Y59386D01*
X535694Y59487D01*
X535737Y59586D01*
X535785Y59683D01*
X535835Y59779D01*
X535889Y59873D01*
X535947Y59964D01*
X536008Y60054D01*
X536072Y60142D01*
X536139Y60227D01*
X536209Y60309D01*
X536282Y60389D01*
X536358Y60466D01*
X536437Y60541D01*
X536518Y60612D01*
X536602Y60681D01*
X536688Y60747D01*
X536776Y60809D01*
X536867Y60868D01*
X536960Y60924D01*
X537055Y60977D01*
X537151Y61026D01*
X537250Y61071D01*
X537350Y61113D01*
X537451Y61151D01*
X537554Y61186D01*
X537657Y61217D01*
X537762Y61244D01*
X537868Y61267D01*
X537975Y61286D01*
X538082Y61302D01*
X538190Y61314D01*
X538298Y61322D01*
X538406Y61326D01*
X538514Y61326D01*
X538622Y61322D01*
X538730Y61314D01*
X538838Y61302D01*
X538945Y61286D01*
X539052Y61267D01*
X539158Y61244D01*
X539263Y61217D01*
X539366Y61186D01*
X539469Y61151D01*
X539570Y61113D01*
X539670Y61071D01*
X539769Y61026D01*
X539865Y60977D01*
X539960Y60924D01*
X540053Y60868D01*
X540144Y60809D01*
X540232Y60747D01*
X540318Y60681D01*
X540402Y60612D01*
X540483Y60541D01*
X540562Y60466D01*
X540638Y60389D01*
X540711Y60309D01*
X540781Y60227D01*
X540848Y60142D01*
X540912Y60054D01*
X540973Y59964D01*
X541031Y59873D01*
X541085Y59779D01*
X541135Y59683D01*
X541183Y59586D01*
X541226Y59487D01*
X541267Y59386D01*
X541303Y59284D01*
X541336Y59181D01*
X541365Y59076D01*
X541390Y58971D01*
X541411Y58865D01*
X541429Y58758D01*
X541442Y58650D01*
X541452Y58542D01*
X541458Y58434D01*
X541460Y58326D01*
X621860Y14176D02*
X621860Y7976D01*
X627860Y7976D02*
X627860Y14176D01*
X627858Y14284D01*
X627852Y14392D01*
X627842Y14500D01*
X627829Y14608D01*
X627811Y14715D01*
X627790Y14821D01*
X627765Y14926D01*
X627736Y15031D01*
X627703Y15134D01*
X627667Y15236D01*
X627626Y15337D01*
X627583Y15436D01*
X627535Y15533D01*
X627485Y15629D01*
X627431Y15723D01*
X627373Y15814D01*
X627312Y15904D01*
X627248Y15992D01*
X627181Y16077D01*
X627111Y16159D01*
X627038Y16239D01*
X626962Y16316D01*
X626883Y16391D01*
X626802Y16462D01*
X626718Y16531D01*
X626632Y16597D01*
X626544Y16659D01*
X626453Y16718D01*
X626360Y16774D01*
X626265Y16827D01*
X626169Y16876D01*
X626070Y16921D01*
X625970Y16963D01*
X625869Y17001D01*
X625766Y17036D01*
X625663Y17067D01*
X625558Y17094D01*
X625452Y17117D01*
X625345Y17136D01*
X625238Y17152D01*
X625130Y17164D01*
X625022Y17172D01*
X624914Y17176D01*
X624806Y17176D01*
X624698Y17172D01*
X624590Y17164D01*
X624482Y17152D01*
X624375Y17136D01*
X624268Y17117D01*
X624162Y17094D01*
X624057Y17067D01*
X623954Y17036D01*
X623851Y17001D01*
X623750Y16963D01*
X623650Y16921D01*
X623551Y16876D01*
X623455Y16827D01*
X623360Y16774D01*
X623267Y16718D01*
X623176Y16659D01*
X623088Y16597D01*
X623002Y16531D01*
X622918Y16462D01*
X622837Y16391D01*
X622758Y16316D01*
X622682Y16239D01*
X622609Y16159D01*
X622539Y16077D01*
X622472Y15992D01*
X622408Y15904D01*
X622347Y15814D01*
X622289Y15723D01*
X622235Y15629D01*
X622185Y15533D01*
X622137Y15436D01*
X622094Y15337D01*
X622053Y15236D01*
X622017Y15134D01*
X621984Y15031D01*
X621955Y14926D01*
X621930Y14821D01*
X621909Y14715D01*
X621891Y14608D01*
X621878Y14500D01*
X621868Y14392D01*
X621862Y14284D01*
X621860Y14176D01*
X621860Y7976D02*
X621862Y7868D01*
X621868Y7760D01*
X621878Y7652D01*
X621891Y7544D01*
X621909Y7437D01*
X621930Y7331D01*
X621955Y7226D01*
X621984Y7121D01*
X622017Y7018D01*
X622053Y6916D01*
X622094Y6815D01*
X622137Y6716D01*
X622185Y6619D01*
X622235Y6523D01*
X622289Y6429D01*
X622347Y6338D01*
X622408Y6248D01*
X622472Y6160D01*
X622539Y6075D01*
X622609Y5993D01*
X622682Y5913D01*
X622758Y5836D01*
X622837Y5761D01*
X622918Y5690D01*
X623002Y5621D01*
X623088Y5555D01*
X623176Y5493D01*
X623267Y5434D01*
X623360Y5378D01*
X623455Y5325D01*
X623551Y5276D01*
X623650Y5231D01*
X623750Y5189D01*
X623851Y5151D01*
X623954Y5116D01*
X624057Y5085D01*
X624162Y5058D01*
X624268Y5035D01*
X624375Y5016D01*
X624482Y5000D01*
X624590Y4988D01*
X624698Y4980D01*
X624806Y4976D01*
X624914Y4976D01*
X625022Y4980D01*
X625130Y4988D01*
X625238Y5000D01*
X625345Y5016D01*
X625452Y5035D01*
X625558Y5058D01*
X625663Y5085D01*
X625766Y5116D01*
X625869Y5151D01*
X625970Y5189D01*
X626070Y5231D01*
X626169Y5276D01*
X626265Y5325D01*
X626360Y5378D01*
X626453Y5434D01*
X626544Y5493D01*
X626632Y5555D01*
X626718Y5621D01*
X626802Y5690D01*
X626883Y5761D01*
X626962Y5836D01*
X627038Y5913D01*
X627111Y5993D01*
X627181Y6075D01*
X627248Y6160D01*
X627312Y6248D01*
X627373Y6338D01*
X627431Y6429D01*
X627485Y6523D01*
X627535Y6619D01*
X627583Y6716D01*
X627626Y6815D01*
X627667Y6916D01*
X627703Y7018D01*
X627736Y7121D01*
X627765Y7226D01*
X627790Y7331D01*
X627811Y7437D01*
X627829Y7544D01*
X627842Y7652D01*
X627852Y7760D01*
X627858Y7868D01*
X627860Y7976D01*
X621860Y47326D02*
X621860Y58326D01*
X627860Y58326D02*
X627860Y47326D01*
X627858Y47218D01*
X627852Y47110D01*
X627842Y47002D01*
X627829Y46894D01*
X627811Y46787D01*
X627790Y46681D01*
X627765Y46576D01*
X627736Y46471D01*
X627703Y46368D01*
X627667Y46266D01*
X627626Y46165D01*
X627583Y46066D01*
X627535Y45969D01*
X627485Y45873D01*
X627431Y45779D01*
X627373Y45688D01*
X627312Y45598D01*
X627248Y45510D01*
X627181Y45425D01*
X627111Y45343D01*
X627038Y45263D01*
X626962Y45186D01*
X626883Y45111D01*
X626802Y45040D01*
X626718Y44971D01*
X626632Y44905D01*
X626544Y44843D01*
X626453Y44784D01*
X626360Y44728D01*
X626265Y44675D01*
X626169Y44626D01*
X626070Y44581D01*
X625970Y44539D01*
X625869Y44501D01*
X625766Y44466D01*
X625663Y44435D01*
X625558Y44408D01*
X625452Y44385D01*
X625345Y44366D01*
X625238Y44350D01*
X625130Y44338D01*
X625022Y44330D01*
X624914Y44326D01*
X624806Y44326D01*
X624698Y44330D01*
X624590Y44338D01*
X624482Y44350D01*
X624375Y44366D01*
X624268Y44385D01*
X624162Y44408D01*
X624057Y44435D01*
X623954Y44466D01*
X623851Y44501D01*
X623750Y44539D01*
X623650Y44581D01*
X623551Y44626D01*
X623455Y44675D01*
X623360Y44728D01*
X623267Y44784D01*
X623176Y44843D01*
X623088Y44905D01*
X623002Y44971D01*
X622918Y45040D01*
X622837Y45111D01*
X622758Y45186D01*
X622682Y45263D01*
X622609Y45343D01*
X622539Y45425D01*
X622472Y45510D01*
X622408Y45598D01*
X622347Y45688D01*
X622289Y45779D01*
X622235Y45873D01*
X622185Y45969D01*
X622137Y46066D01*
X622094Y46165D01*
X622053Y46266D01*
X622017Y46368D01*
X621984Y46471D01*
X621955Y46576D01*
X621930Y46681D01*
X621909Y46787D01*
X621891Y46894D01*
X621878Y47002D01*
X621868Y47110D01*
X621862Y47218D01*
X621860Y47326D01*
X621860Y58326D02*
X621862Y58434D01*
X621868Y58542D01*
X621878Y58650D01*
X621891Y58758D01*
X621909Y58865D01*
X621930Y58971D01*
X621955Y59076D01*
X621984Y59181D01*
X622017Y59284D01*
X622053Y59386D01*
X622094Y59487D01*
X622137Y59586D01*
X622185Y59683D01*
X622235Y59779D01*
X622289Y59873D01*
X622347Y59964D01*
X622408Y60054D01*
X622472Y60142D01*
X622539Y60227D01*
X622609Y60309D01*
X622682Y60389D01*
X622758Y60466D01*
X622837Y60541D01*
X622918Y60612D01*
X623002Y60681D01*
X623088Y60747D01*
X623176Y60809D01*
X623267Y60868D01*
X623360Y60924D01*
X623455Y60977D01*
X623551Y61026D01*
X623650Y61071D01*
X623750Y61113D01*
X623851Y61151D01*
X623954Y61186D01*
X624057Y61217D01*
X624162Y61244D01*
X624268Y61267D01*
X624375Y61286D01*
X624482Y61302D01*
X624590Y61314D01*
X624698Y61322D01*
X624806Y61326D01*
X624914Y61326D01*
X625022Y61322D01*
X625130Y61314D01*
X625238Y61302D01*
X625345Y61286D01*
X625452Y61267D01*
X625558Y61244D01*
X625663Y61217D01*
X625766Y61186D01*
X625869Y61151D01*
X625970Y61113D01*
X626070Y61071D01*
X626169Y61026D01*
X626265Y60977D01*
X626360Y60924D01*
X626453Y60868D01*
X626544Y60809D01*
X626632Y60747D01*
X626718Y60681D01*
X626802Y60612D01*
X626883Y60541D01*
X626962Y60466D01*
X627038Y60389D01*
X627111Y60309D01*
X627181Y60227D01*
X627248Y60142D01*
X627312Y60054D01*
X627373Y59964D01*
X627431Y59873D01*
X627485Y59779D01*
X627535Y59683D01*
X627583Y59586D01*
X627626Y59487D01*
X627667Y59386D01*
X627703Y59284D01*
X627736Y59181D01*
X627765Y59076D01*
X627790Y58971D01*
X627811Y58865D01*
X627829Y58758D01*
X627842Y58650D01*
X627852Y58542D01*
X627858Y58434D01*
X627860Y58326D01*
M02*
