G04 EAGLE Gerber RS-274X export*
G75*
%MOMM*%
%FSLAX34Y34*%
%LPD*%
%INSoldermask Top*%
%IPPOS*%
%AMOC8*
5,1,8,0,0,1.08239X$1,22.5*%
G01*
%ADD10C,2.006600*%
%ADD11C,3.175000*%
%ADD12C,0.762000*%
%ADD13C,0.230578*%
%ADD14C,0.225369*%
%ADD15C,0.777000*%
%ADD16C,0.223409*%
%ADD17C,0.231559*%
%ADD18C,0.225400*%
%ADD19C,0.224509*%
%ADD20C,0.428259*%
%ADD21C,0.231750*%
%ADD22C,0.227100*%
%ADD23R,0.440000X0.840000*%
%ADD24R,1.520000X0.940000*%
%ADD25C,0.224709*%
%ADD26C,0.225938*%
%ADD27C,0.225588*%
%ADD28C,0.228959*%
%ADD29C,0.228600*%
%ADD30C,1.127000*%
%ADD31C,1.270000*%
%ADD32C,1.627000*%

G36*
X626144Y41359D02*
X626144Y41359D01*
X626150Y41365D01*
X626155Y41361D01*
X627385Y41726D01*
X627390Y41733D01*
X627395Y41731D01*
X628514Y42361D01*
X628517Y42368D01*
X628523Y42367D01*
X629473Y43230D01*
X629474Y43238D01*
X629480Y43238D01*
X630214Y44291D01*
X630214Y44299D01*
X630219Y44301D01*
X630701Y45491D01*
X630699Y45496D01*
X630703Y45499D01*
X630702Y45500D01*
X630704Y45501D01*
X630909Y46768D01*
X630906Y46773D01*
X630909Y46776D01*
X630909Y58776D01*
X630906Y58780D01*
X630909Y58783D01*
X630754Y59905D01*
X630749Y59910D01*
X630752Y59914D01*
X630381Y60985D01*
X630375Y60989D01*
X630377Y60994D01*
X629804Y61971D01*
X629798Y61974D01*
X629799Y61979D01*
X629046Y62826D01*
X629039Y62828D01*
X629039Y62833D01*
X628136Y63517D01*
X628129Y63517D01*
X628128Y63522D01*
X627109Y64017D01*
X627102Y64015D01*
X627100Y64020D01*
X626003Y64307D01*
X625997Y64304D01*
X625994Y64308D01*
X624863Y64375D01*
X624857Y64375D01*
X623726Y64308D01*
X623721Y64303D01*
X623717Y64307D01*
X622620Y64020D01*
X622616Y64014D01*
X622611Y64017D01*
X621592Y63522D01*
X621589Y63516D01*
X621584Y63517D01*
X620681Y62833D01*
X620679Y62826D01*
X620674Y62826D01*
X619921Y61979D01*
X619921Y61972D01*
X619916Y61971D01*
X619343Y60994D01*
X619344Y60991D01*
X619343Y60990D01*
X619344Y60989D01*
X619344Y60987D01*
X619339Y60985D01*
X618968Y59914D01*
X618970Y59909D01*
X618967Y59907D01*
X618967Y59906D01*
X618966Y59905D01*
X618811Y58783D01*
X618814Y58778D01*
X618811Y58776D01*
X618811Y46776D01*
X618814Y46771D01*
X618811Y46768D01*
X619016Y45501D01*
X619022Y45495D01*
X619019Y45491D01*
X619501Y44301D01*
X619508Y44297D01*
X619506Y44291D01*
X620240Y43238D01*
X620248Y43236D01*
X620247Y43230D01*
X621197Y42367D01*
X621206Y42366D01*
X621206Y42361D01*
X622325Y41731D01*
X622333Y41732D01*
X622335Y41726D01*
X623565Y41361D01*
X623573Y41364D01*
X623576Y41359D01*
X624857Y41277D01*
X624861Y41280D01*
X624863Y41277D01*
X626144Y41359D01*
G37*
G36*
X306064Y41359D02*
X306064Y41359D01*
X306070Y41365D01*
X306075Y41361D01*
X307305Y41726D01*
X307310Y41733D01*
X307315Y41731D01*
X308434Y42361D01*
X308437Y42368D01*
X308443Y42367D01*
X309393Y43230D01*
X309394Y43238D01*
X309400Y43238D01*
X310134Y44291D01*
X310134Y44299D01*
X310139Y44301D01*
X310621Y45491D01*
X310619Y45496D01*
X310623Y45499D01*
X310622Y45500D01*
X310624Y45501D01*
X310829Y46768D01*
X310826Y46773D01*
X310829Y46776D01*
X310829Y58776D01*
X310826Y58780D01*
X310829Y58783D01*
X310674Y59905D01*
X310669Y59910D01*
X310672Y59914D01*
X310301Y60985D01*
X310295Y60989D01*
X310297Y60994D01*
X309724Y61971D01*
X309718Y61974D01*
X309719Y61979D01*
X308966Y62826D01*
X308959Y62828D01*
X308959Y62833D01*
X308056Y63517D01*
X308049Y63517D01*
X308048Y63522D01*
X307029Y64017D01*
X307022Y64015D01*
X307020Y64020D01*
X305923Y64307D01*
X305917Y64304D01*
X305914Y64308D01*
X304783Y64375D01*
X304777Y64375D01*
X303646Y64308D01*
X303641Y64303D01*
X303637Y64307D01*
X302540Y64020D01*
X302536Y64014D01*
X302531Y64017D01*
X301512Y63522D01*
X301509Y63516D01*
X301504Y63517D01*
X300601Y62833D01*
X300599Y62826D01*
X300594Y62826D01*
X299841Y61979D01*
X299841Y61972D01*
X299836Y61971D01*
X299263Y60994D01*
X299264Y60991D01*
X299263Y60990D01*
X299264Y60989D01*
X299264Y60987D01*
X299259Y60985D01*
X298888Y59914D01*
X298890Y59909D01*
X298887Y59907D01*
X298887Y59906D01*
X298886Y59905D01*
X298731Y58783D01*
X298734Y58778D01*
X298731Y58776D01*
X298731Y46776D01*
X298734Y46771D01*
X298731Y46768D01*
X298936Y45501D01*
X298942Y45495D01*
X298939Y45491D01*
X299421Y44301D01*
X299428Y44297D01*
X299426Y44291D01*
X300160Y43238D01*
X300168Y43236D01*
X300167Y43230D01*
X301117Y42367D01*
X301126Y42366D01*
X301126Y42361D01*
X302245Y41731D01*
X302253Y41732D01*
X302255Y41726D01*
X303485Y41361D01*
X303493Y41364D01*
X303496Y41359D01*
X304777Y41277D01*
X304781Y41280D01*
X304783Y41277D01*
X306064Y41359D01*
G37*
G36*
X539744Y41359D02*
X539744Y41359D01*
X539750Y41365D01*
X539755Y41361D01*
X540985Y41726D01*
X540990Y41733D01*
X540995Y41731D01*
X542114Y42361D01*
X542117Y42368D01*
X542123Y42367D01*
X543073Y43230D01*
X543074Y43238D01*
X543080Y43238D01*
X543814Y44291D01*
X543814Y44299D01*
X543819Y44301D01*
X544301Y45491D01*
X544299Y45496D01*
X544303Y45499D01*
X544302Y45500D01*
X544304Y45501D01*
X544509Y46768D01*
X544506Y46773D01*
X544509Y46776D01*
X544509Y58776D01*
X544506Y58780D01*
X544509Y58783D01*
X544354Y59905D01*
X544349Y59910D01*
X544352Y59914D01*
X543981Y60985D01*
X543975Y60989D01*
X543977Y60994D01*
X543404Y61971D01*
X543398Y61974D01*
X543399Y61979D01*
X542646Y62826D01*
X542639Y62828D01*
X542639Y62833D01*
X541736Y63517D01*
X541729Y63517D01*
X541728Y63522D01*
X540709Y64017D01*
X540702Y64015D01*
X540700Y64020D01*
X539603Y64307D01*
X539597Y64304D01*
X539594Y64308D01*
X538463Y64375D01*
X538457Y64375D01*
X537326Y64308D01*
X537321Y64303D01*
X537317Y64307D01*
X536220Y64020D01*
X536216Y64014D01*
X536211Y64017D01*
X535192Y63522D01*
X535189Y63516D01*
X535184Y63517D01*
X534281Y62833D01*
X534279Y62826D01*
X534274Y62826D01*
X533521Y61979D01*
X533521Y61972D01*
X533516Y61971D01*
X532943Y60994D01*
X532944Y60991D01*
X532943Y60990D01*
X532944Y60989D01*
X532944Y60987D01*
X532939Y60985D01*
X532568Y59914D01*
X532570Y59909D01*
X532567Y59907D01*
X532567Y59906D01*
X532566Y59905D01*
X532411Y58783D01*
X532414Y58778D01*
X532411Y58776D01*
X532411Y46776D01*
X532414Y46771D01*
X532411Y46768D01*
X532616Y45501D01*
X532622Y45495D01*
X532619Y45491D01*
X533101Y44301D01*
X533108Y44297D01*
X533106Y44291D01*
X533840Y43238D01*
X533848Y43236D01*
X533847Y43230D01*
X534797Y42367D01*
X534806Y42366D01*
X534806Y42361D01*
X535925Y41731D01*
X535933Y41732D01*
X535935Y41726D01*
X537165Y41361D01*
X537173Y41364D01*
X537176Y41359D01*
X538457Y41277D01*
X538461Y41280D01*
X538463Y41277D01*
X539744Y41359D01*
G37*
G36*
X158784Y41359D02*
X158784Y41359D01*
X158790Y41365D01*
X158795Y41361D01*
X160025Y41726D01*
X160030Y41733D01*
X160035Y41731D01*
X161154Y42361D01*
X161157Y42368D01*
X161163Y42367D01*
X162113Y43230D01*
X162114Y43238D01*
X162120Y43238D01*
X162854Y44291D01*
X162854Y44299D01*
X162859Y44301D01*
X163341Y45491D01*
X163339Y45496D01*
X163343Y45499D01*
X163342Y45500D01*
X163344Y45501D01*
X163549Y46768D01*
X163546Y46773D01*
X163549Y46776D01*
X163549Y58776D01*
X163546Y58780D01*
X163549Y58783D01*
X163394Y59905D01*
X163389Y59910D01*
X163392Y59914D01*
X163021Y60985D01*
X163015Y60989D01*
X163017Y60994D01*
X162444Y61971D01*
X162438Y61974D01*
X162439Y61979D01*
X161686Y62826D01*
X161679Y62828D01*
X161679Y62833D01*
X160776Y63517D01*
X160769Y63517D01*
X160768Y63522D01*
X159749Y64017D01*
X159742Y64015D01*
X159740Y64020D01*
X158643Y64307D01*
X158637Y64304D01*
X158634Y64308D01*
X157503Y64375D01*
X157497Y64375D01*
X156366Y64308D01*
X156361Y64303D01*
X156357Y64307D01*
X155260Y64020D01*
X155256Y64014D01*
X155251Y64017D01*
X154232Y63522D01*
X154229Y63516D01*
X154224Y63517D01*
X153321Y62833D01*
X153319Y62826D01*
X153314Y62826D01*
X152561Y61979D01*
X152561Y61972D01*
X152556Y61971D01*
X151983Y60994D01*
X151984Y60991D01*
X151983Y60990D01*
X151984Y60989D01*
X151984Y60987D01*
X151979Y60985D01*
X151608Y59914D01*
X151610Y59909D01*
X151607Y59907D01*
X151607Y59906D01*
X151606Y59905D01*
X151451Y58783D01*
X151454Y58778D01*
X151451Y58776D01*
X151451Y46776D01*
X151454Y46771D01*
X151451Y46768D01*
X151656Y45501D01*
X151662Y45495D01*
X151659Y45491D01*
X152141Y44301D01*
X152148Y44297D01*
X152146Y44291D01*
X152880Y43238D01*
X152888Y43236D01*
X152887Y43230D01*
X153837Y42367D01*
X153846Y42366D01*
X153846Y42361D01*
X154965Y41731D01*
X154973Y41732D01*
X154975Y41726D01*
X156205Y41361D01*
X156213Y41364D01*
X156216Y41359D01*
X157497Y41277D01*
X157501Y41280D01*
X157503Y41277D01*
X158784Y41359D01*
G37*
G36*
X392464Y41359D02*
X392464Y41359D01*
X392470Y41365D01*
X392475Y41361D01*
X393705Y41726D01*
X393710Y41733D01*
X393715Y41731D01*
X394834Y42361D01*
X394837Y42368D01*
X394843Y42367D01*
X395793Y43230D01*
X395794Y43238D01*
X395800Y43238D01*
X396534Y44291D01*
X396534Y44299D01*
X396539Y44301D01*
X397021Y45491D01*
X397019Y45496D01*
X397023Y45499D01*
X397022Y45500D01*
X397024Y45501D01*
X397229Y46768D01*
X397226Y46773D01*
X397229Y46776D01*
X397229Y58776D01*
X397226Y58780D01*
X397229Y58783D01*
X397074Y59905D01*
X397069Y59910D01*
X397072Y59914D01*
X396701Y60985D01*
X396695Y60989D01*
X396697Y60994D01*
X396124Y61971D01*
X396118Y61974D01*
X396119Y61979D01*
X395366Y62826D01*
X395359Y62828D01*
X395359Y62833D01*
X394456Y63517D01*
X394449Y63517D01*
X394448Y63522D01*
X393429Y64017D01*
X393422Y64015D01*
X393420Y64020D01*
X392323Y64307D01*
X392317Y64304D01*
X392314Y64308D01*
X391183Y64375D01*
X391177Y64375D01*
X390046Y64308D01*
X390041Y64303D01*
X390037Y64307D01*
X388940Y64020D01*
X388936Y64014D01*
X388931Y64017D01*
X387912Y63522D01*
X387909Y63516D01*
X387904Y63517D01*
X387001Y62833D01*
X386999Y62826D01*
X386994Y62826D01*
X386241Y61979D01*
X386241Y61972D01*
X386236Y61971D01*
X385663Y60994D01*
X385664Y60991D01*
X385663Y60990D01*
X385664Y60989D01*
X385664Y60987D01*
X385659Y60985D01*
X385288Y59914D01*
X385290Y59909D01*
X385287Y59907D01*
X385287Y59906D01*
X385286Y59905D01*
X385131Y58783D01*
X385134Y58778D01*
X385131Y58776D01*
X385131Y46776D01*
X385134Y46771D01*
X385131Y46768D01*
X385336Y45501D01*
X385342Y45495D01*
X385339Y45491D01*
X385821Y44301D01*
X385828Y44297D01*
X385826Y44291D01*
X386560Y43238D01*
X386568Y43236D01*
X386567Y43230D01*
X387517Y42367D01*
X387526Y42366D01*
X387526Y42361D01*
X388645Y41731D01*
X388653Y41732D01*
X388655Y41726D01*
X389885Y41361D01*
X389893Y41364D01*
X389896Y41359D01*
X391177Y41277D01*
X391181Y41280D01*
X391183Y41277D01*
X392464Y41359D01*
G37*
G36*
X72384Y41359D02*
X72384Y41359D01*
X72390Y41365D01*
X72395Y41361D01*
X73625Y41726D01*
X73630Y41733D01*
X73635Y41731D01*
X74754Y42361D01*
X74757Y42368D01*
X74763Y42367D01*
X75713Y43230D01*
X75714Y43238D01*
X75720Y43238D01*
X76454Y44291D01*
X76454Y44299D01*
X76459Y44301D01*
X76941Y45491D01*
X76939Y45496D01*
X76943Y45499D01*
X76942Y45500D01*
X76944Y45501D01*
X77149Y46768D01*
X77146Y46773D01*
X77149Y46776D01*
X77149Y58776D01*
X77146Y58780D01*
X77149Y58783D01*
X76994Y59905D01*
X76989Y59910D01*
X76992Y59914D01*
X76621Y60985D01*
X76615Y60989D01*
X76617Y60994D01*
X76044Y61971D01*
X76038Y61974D01*
X76039Y61979D01*
X75286Y62826D01*
X75279Y62828D01*
X75279Y62833D01*
X74376Y63517D01*
X74369Y63517D01*
X74368Y63522D01*
X73349Y64017D01*
X73342Y64015D01*
X73340Y64020D01*
X72243Y64307D01*
X72237Y64304D01*
X72234Y64308D01*
X71103Y64375D01*
X71097Y64375D01*
X69966Y64308D01*
X69961Y64303D01*
X69957Y64307D01*
X68860Y64020D01*
X68856Y64014D01*
X68851Y64017D01*
X67832Y63522D01*
X67829Y63516D01*
X67824Y63517D01*
X66921Y62833D01*
X66919Y62826D01*
X66914Y62826D01*
X66161Y61979D01*
X66161Y61972D01*
X66156Y61971D01*
X65583Y60994D01*
X65584Y60991D01*
X65583Y60990D01*
X65584Y60989D01*
X65584Y60987D01*
X65579Y60985D01*
X65208Y59914D01*
X65210Y59909D01*
X65207Y59907D01*
X65207Y59906D01*
X65206Y59905D01*
X65051Y58783D01*
X65054Y58778D01*
X65051Y58776D01*
X65051Y46776D01*
X65054Y46771D01*
X65051Y46768D01*
X65256Y45501D01*
X65262Y45495D01*
X65259Y45491D01*
X65741Y44301D01*
X65748Y44297D01*
X65746Y44291D01*
X66480Y43238D01*
X66488Y43236D01*
X66487Y43230D01*
X67437Y42367D01*
X67446Y42366D01*
X67446Y42361D01*
X68565Y41731D01*
X68573Y41732D01*
X68575Y41726D01*
X69805Y41361D01*
X69813Y41364D01*
X69816Y41359D01*
X71097Y41277D01*
X71101Y41280D01*
X71103Y41277D01*
X72384Y41359D01*
G37*
G36*
X392351Y2087D02*
X392351Y2087D01*
X392356Y2092D01*
X392360Y2089D01*
X393483Y2424D01*
X393487Y2430D01*
X393491Y2428D01*
X394527Y2976D01*
X394530Y2982D01*
X394535Y2981D01*
X395443Y3720D01*
X395445Y3727D01*
X395450Y3727D01*
X396197Y4629D01*
X396197Y4637D01*
X396203Y4637D01*
X396759Y5668D01*
X396758Y5675D01*
X396763Y5677D01*
X397107Y6796D01*
X397105Y6803D01*
X397109Y6806D01*
X397229Y7971D01*
X397227Y7974D01*
X397229Y7976D01*
X397229Y13976D01*
X397227Y13979D01*
X397229Y13981D01*
X397118Y15157D01*
X397113Y15162D01*
X397116Y15166D01*
X396778Y16298D01*
X396772Y16302D01*
X396774Y16307D01*
X396222Y17351D01*
X396215Y17354D01*
X396217Y17359D01*
X395471Y18275D01*
X395464Y18276D01*
X395464Y18282D01*
X394555Y19035D01*
X394547Y19035D01*
X394547Y19040D01*
X393507Y19601D01*
X393500Y19600D01*
X393498Y19605D01*
X392369Y19952D01*
X392363Y19950D01*
X392360Y19954D01*
X391185Y20075D01*
X391178Y20071D01*
X391174Y20075D01*
X389834Y19918D01*
X389828Y19913D01*
X389823Y19916D01*
X388552Y19465D01*
X388547Y19458D01*
X388542Y19460D01*
X387403Y18738D01*
X387400Y18730D01*
X387394Y18731D01*
X386444Y17773D01*
X386443Y17765D01*
X386437Y17764D01*
X385724Y16619D01*
X385725Y16611D01*
X385719Y16609D01*
X385279Y15333D01*
X385281Y15326D01*
X385277Y15323D01*
X385131Y13981D01*
X385133Y13978D01*
X385131Y13976D01*
X385131Y7976D01*
X385133Y7973D01*
X385131Y7970D01*
X385286Y6641D01*
X385292Y6635D01*
X385289Y6631D01*
X385736Y5370D01*
X385743Y5365D01*
X385741Y5360D01*
X386458Y4230D01*
X386465Y4227D01*
X386464Y4221D01*
X387415Y3279D01*
X387423Y3278D01*
X387423Y3272D01*
X388559Y2565D01*
X388567Y2566D01*
X388569Y2560D01*
X389834Y2124D01*
X389839Y2125D01*
X389840Y2125D01*
X389843Y2125D01*
X389845Y2121D01*
X391175Y1977D01*
X391181Y1981D01*
X391185Y1977D01*
X392351Y2087D01*
G37*
G36*
X626031Y2087D02*
X626031Y2087D01*
X626036Y2092D01*
X626040Y2089D01*
X627163Y2424D01*
X627167Y2430D01*
X627171Y2428D01*
X628207Y2976D01*
X628210Y2982D01*
X628215Y2981D01*
X629123Y3720D01*
X629125Y3727D01*
X629130Y3727D01*
X629877Y4629D01*
X629877Y4637D01*
X629883Y4637D01*
X630439Y5668D01*
X630438Y5675D01*
X630443Y5677D01*
X630787Y6796D01*
X630785Y6803D01*
X630789Y6806D01*
X630909Y7971D01*
X630907Y7974D01*
X630909Y7976D01*
X630909Y13976D01*
X630907Y13979D01*
X630909Y13981D01*
X630798Y15157D01*
X630793Y15162D01*
X630796Y15166D01*
X630458Y16298D01*
X630452Y16302D01*
X630454Y16307D01*
X629902Y17351D01*
X629895Y17354D01*
X629897Y17359D01*
X629151Y18275D01*
X629144Y18276D01*
X629144Y18282D01*
X628235Y19035D01*
X628227Y19035D01*
X628227Y19040D01*
X627187Y19601D01*
X627180Y19600D01*
X627178Y19605D01*
X626049Y19952D01*
X626043Y19950D01*
X626040Y19954D01*
X624865Y20075D01*
X624858Y20071D01*
X624854Y20075D01*
X623514Y19918D01*
X623508Y19913D01*
X623503Y19916D01*
X622232Y19465D01*
X622227Y19458D01*
X622222Y19460D01*
X621083Y18738D01*
X621080Y18730D01*
X621074Y18731D01*
X620124Y17773D01*
X620123Y17765D01*
X620117Y17764D01*
X619404Y16619D01*
X619405Y16611D01*
X619399Y16609D01*
X618959Y15333D01*
X618961Y15326D01*
X618957Y15323D01*
X618811Y13981D01*
X618813Y13978D01*
X618811Y13976D01*
X618811Y7976D01*
X618813Y7973D01*
X618811Y7970D01*
X618966Y6641D01*
X618972Y6635D01*
X618969Y6631D01*
X619416Y5370D01*
X619423Y5365D01*
X619421Y5360D01*
X620138Y4230D01*
X620145Y4227D01*
X620144Y4221D01*
X621095Y3279D01*
X621103Y3278D01*
X621103Y3272D01*
X622239Y2565D01*
X622247Y2566D01*
X622249Y2560D01*
X623514Y2124D01*
X623519Y2125D01*
X623520Y2125D01*
X623523Y2125D01*
X623525Y2121D01*
X624855Y1977D01*
X624861Y1981D01*
X624865Y1977D01*
X626031Y2087D01*
G37*
G36*
X158671Y2087D02*
X158671Y2087D01*
X158676Y2092D01*
X158680Y2089D01*
X159803Y2424D01*
X159807Y2430D01*
X159811Y2428D01*
X160847Y2976D01*
X160850Y2982D01*
X160855Y2981D01*
X161763Y3720D01*
X161765Y3727D01*
X161770Y3727D01*
X162517Y4629D01*
X162517Y4637D01*
X162523Y4637D01*
X163079Y5668D01*
X163078Y5675D01*
X163083Y5677D01*
X163427Y6796D01*
X163425Y6803D01*
X163429Y6806D01*
X163549Y7971D01*
X163547Y7974D01*
X163549Y7976D01*
X163549Y13976D01*
X163547Y13979D01*
X163549Y13981D01*
X163438Y15157D01*
X163433Y15162D01*
X163436Y15166D01*
X163098Y16298D01*
X163092Y16302D01*
X163094Y16307D01*
X162542Y17351D01*
X162535Y17354D01*
X162537Y17359D01*
X161791Y18275D01*
X161784Y18276D01*
X161784Y18282D01*
X160875Y19035D01*
X160867Y19035D01*
X160867Y19040D01*
X159827Y19601D01*
X159820Y19600D01*
X159818Y19605D01*
X158689Y19952D01*
X158683Y19950D01*
X158680Y19954D01*
X157505Y20075D01*
X157498Y20071D01*
X157494Y20075D01*
X156154Y19918D01*
X156148Y19913D01*
X156143Y19916D01*
X154872Y19465D01*
X154867Y19458D01*
X154862Y19460D01*
X153723Y18738D01*
X153720Y18730D01*
X153714Y18731D01*
X152764Y17773D01*
X152763Y17765D01*
X152757Y17764D01*
X152044Y16619D01*
X152045Y16611D01*
X152039Y16609D01*
X151599Y15333D01*
X151601Y15326D01*
X151597Y15323D01*
X151451Y13981D01*
X151453Y13978D01*
X151451Y13976D01*
X151451Y7976D01*
X151453Y7973D01*
X151451Y7970D01*
X151606Y6641D01*
X151612Y6635D01*
X151609Y6631D01*
X152056Y5370D01*
X152063Y5365D01*
X152061Y5360D01*
X152778Y4230D01*
X152785Y4227D01*
X152784Y4221D01*
X153735Y3279D01*
X153743Y3278D01*
X153743Y3272D01*
X154879Y2565D01*
X154887Y2566D01*
X154889Y2560D01*
X156154Y2124D01*
X156159Y2125D01*
X156160Y2125D01*
X156163Y2125D01*
X156165Y2121D01*
X157495Y1977D01*
X157501Y1981D01*
X157505Y1977D01*
X158671Y2087D01*
G37*
G36*
X72271Y2087D02*
X72271Y2087D01*
X72276Y2092D01*
X72280Y2089D01*
X73403Y2424D01*
X73407Y2430D01*
X73411Y2428D01*
X74447Y2976D01*
X74450Y2982D01*
X74455Y2981D01*
X75363Y3720D01*
X75365Y3727D01*
X75370Y3727D01*
X76117Y4629D01*
X76117Y4637D01*
X76123Y4637D01*
X76679Y5668D01*
X76678Y5675D01*
X76683Y5677D01*
X77027Y6796D01*
X77025Y6803D01*
X77029Y6806D01*
X77149Y7971D01*
X77147Y7974D01*
X77149Y7976D01*
X77149Y13976D01*
X77147Y13979D01*
X77149Y13981D01*
X77038Y15157D01*
X77033Y15162D01*
X77036Y15166D01*
X76698Y16298D01*
X76692Y16302D01*
X76694Y16307D01*
X76142Y17351D01*
X76135Y17354D01*
X76137Y17359D01*
X75391Y18275D01*
X75384Y18276D01*
X75384Y18282D01*
X74475Y19035D01*
X74467Y19035D01*
X74467Y19040D01*
X73427Y19601D01*
X73420Y19600D01*
X73418Y19605D01*
X72289Y19952D01*
X72283Y19950D01*
X72280Y19954D01*
X71105Y20075D01*
X71098Y20071D01*
X71094Y20075D01*
X69754Y19918D01*
X69748Y19913D01*
X69743Y19916D01*
X68472Y19465D01*
X68467Y19458D01*
X68462Y19460D01*
X67323Y18738D01*
X67320Y18730D01*
X67314Y18731D01*
X66364Y17773D01*
X66363Y17765D01*
X66357Y17764D01*
X65644Y16619D01*
X65645Y16611D01*
X65639Y16609D01*
X65199Y15333D01*
X65201Y15326D01*
X65197Y15323D01*
X65051Y13981D01*
X65053Y13978D01*
X65051Y13976D01*
X65051Y7976D01*
X65053Y7973D01*
X65051Y7970D01*
X65206Y6641D01*
X65212Y6635D01*
X65209Y6631D01*
X65656Y5370D01*
X65663Y5365D01*
X65661Y5360D01*
X66378Y4230D01*
X66385Y4227D01*
X66384Y4221D01*
X67335Y3279D01*
X67343Y3278D01*
X67343Y3272D01*
X68479Y2565D01*
X68487Y2566D01*
X68489Y2560D01*
X69754Y2124D01*
X69759Y2125D01*
X69760Y2125D01*
X69763Y2125D01*
X69765Y2121D01*
X71095Y1977D01*
X71101Y1981D01*
X71105Y1977D01*
X72271Y2087D01*
G37*
G36*
X539631Y2087D02*
X539631Y2087D01*
X539636Y2092D01*
X539640Y2089D01*
X540763Y2424D01*
X540767Y2430D01*
X540771Y2428D01*
X541807Y2976D01*
X541810Y2982D01*
X541815Y2981D01*
X542723Y3720D01*
X542725Y3727D01*
X542730Y3727D01*
X543477Y4629D01*
X543477Y4637D01*
X543483Y4637D01*
X544039Y5668D01*
X544038Y5675D01*
X544043Y5677D01*
X544387Y6796D01*
X544385Y6803D01*
X544389Y6806D01*
X544509Y7971D01*
X544507Y7974D01*
X544509Y7976D01*
X544509Y13976D01*
X544507Y13979D01*
X544509Y13981D01*
X544398Y15157D01*
X544393Y15162D01*
X544396Y15166D01*
X544058Y16298D01*
X544052Y16302D01*
X544054Y16307D01*
X543502Y17351D01*
X543495Y17354D01*
X543497Y17359D01*
X542751Y18275D01*
X542744Y18276D01*
X542744Y18282D01*
X541835Y19035D01*
X541827Y19035D01*
X541827Y19040D01*
X540787Y19601D01*
X540780Y19600D01*
X540778Y19605D01*
X539649Y19952D01*
X539643Y19950D01*
X539640Y19954D01*
X538465Y20075D01*
X538458Y20071D01*
X538454Y20075D01*
X537114Y19918D01*
X537108Y19913D01*
X537103Y19916D01*
X535832Y19465D01*
X535827Y19458D01*
X535822Y19460D01*
X534683Y18738D01*
X534680Y18730D01*
X534674Y18731D01*
X533724Y17773D01*
X533723Y17765D01*
X533717Y17764D01*
X533004Y16619D01*
X533005Y16611D01*
X532999Y16609D01*
X532559Y15333D01*
X532561Y15326D01*
X532557Y15323D01*
X532411Y13981D01*
X532413Y13978D01*
X532411Y13976D01*
X532411Y7976D01*
X532413Y7973D01*
X532411Y7970D01*
X532566Y6641D01*
X532572Y6635D01*
X532569Y6631D01*
X533016Y5370D01*
X533023Y5365D01*
X533021Y5360D01*
X533738Y4230D01*
X533745Y4227D01*
X533744Y4221D01*
X534695Y3279D01*
X534703Y3278D01*
X534703Y3272D01*
X535839Y2565D01*
X535847Y2566D01*
X535849Y2560D01*
X537114Y2124D01*
X537119Y2125D01*
X537120Y2125D01*
X537123Y2125D01*
X537125Y2121D01*
X538455Y1977D01*
X538461Y1981D01*
X538465Y1977D01*
X539631Y2087D01*
G37*
G36*
X305951Y2087D02*
X305951Y2087D01*
X305956Y2092D01*
X305960Y2089D01*
X307083Y2424D01*
X307087Y2430D01*
X307091Y2428D01*
X308127Y2976D01*
X308130Y2982D01*
X308135Y2981D01*
X309043Y3720D01*
X309045Y3727D01*
X309050Y3727D01*
X309797Y4629D01*
X309797Y4637D01*
X309803Y4637D01*
X310359Y5668D01*
X310358Y5675D01*
X310363Y5677D01*
X310707Y6796D01*
X310705Y6803D01*
X310709Y6806D01*
X310829Y7971D01*
X310827Y7974D01*
X310829Y7976D01*
X310829Y13976D01*
X310827Y13979D01*
X310829Y13981D01*
X310718Y15157D01*
X310713Y15162D01*
X310716Y15166D01*
X310378Y16298D01*
X310372Y16302D01*
X310374Y16307D01*
X309822Y17351D01*
X309815Y17354D01*
X309817Y17359D01*
X309071Y18275D01*
X309064Y18276D01*
X309064Y18282D01*
X308155Y19035D01*
X308147Y19035D01*
X308147Y19040D01*
X307107Y19601D01*
X307100Y19600D01*
X307098Y19605D01*
X305969Y19952D01*
X305963Y19950D01*
X305960Y19954D01*
X304785Y20075D01*
X304778Y20071D01*
X304774Y20075D01*
X303434Y19918D01*
X303428Y19913D01*
X303423Y19916D01*
X302152Y19465D01*
X302147Y19458D01*
X302142Y19460D01*
X301003Y18738D01*
X301000Y18730D01*
X300994Y18731D01*
X300044Y17773D01*
X300043Y17765D01*
X300037Y17764D01*
X299324Y16619D01*
X299325Y16611D01*
X299319Y16609D01*
X298879Y15333D01*
X298881Y15326D01*
X298877Y15323D01*
X298731Y13981D01*
X298733Y13978D01*
X298731Y13976D01*
X298731Y7976D01*
X298733Y7973D01*
X298731Y7970D01*
X298886Y6641D01*
X298892Y6635D01*
X298889Y6631D01*
X299336Y5370D01*
X299343Y5365D01*
X299341Y5360D01*
X300058Y4230D01*
X300065Y4227D01*
X300064Y4221D01*
X301015Y3279D01*
X301023Y3278D01*
X301023Y3272D01*
X302159Y2565D01*
X302167Y2566D01*
X302169Y2560D01*
X303434Y2124D01*
X303439Y2125D01*
X303440Y2125D01*
X303443Y2125D01*
X303445Y2121D01*
X304775Y1977D01*
X304781Y1981D01*
X304785Y1977D01*
X305951Y2087D01*
G37*
G36*
X382349Y285472D02*
X382349Y285472D01*
X382415Y285474D01*
X382458Y285492D01*
X382505Y285500D01*
X382562Y285534D01*
X382622Y285559D01*
X382657Y285590D01*
X382698Y285615D01*
X382740Y285666D01*
X382788Y285710D01*
X382810Y285752D01*
X382839Y285789D01*
X382860Y285851D01*
X382891Y285910D01*
X382899Y285964D01*
X382911Y286001D01*
X382910Y286041D01*
X382918Y286095D01*
X382918Y289905D01*
X382907Y289970D01*
X382905Y290036D01*
X382887Y290079D01*
X382879Y290126D01*
X382845Y290183D01*
X382820Y290243D01*
X382789Y290278D01*
X382764Y290319D01*
X382713Y290361D01*
X382669Y290409D01*
X382627Y290431D01*
X382590Y290460D01*
X382528Y290481D01*
X382469Y290512D01*
X382415Y290520D01*
X382378Y290532D01*
X382338Y290531D01*
X382284Y290539D01*
X369076Y290539D01*
X369011Y290528D01*
X368945Y290526D01*
X368902Y290508D01*
X368855Y290500D01*
X368798Y290466D01*
X368738Y290441D01*
X368703Y290410D01*
X368662Y290385D01*
X368621Y290334D01*
X368572Y290290D01*
X368550Y290248D01*
X368521Y290211D01*
X368500Y290149D01*
X368469Y290090D01*
X368461Y290036D01*
X368449Y289999D01*
X368449Y289995D01*
X368449Y289994D01*
X368450Y289959D01*
X368442Y289905D01*
X368442Y286095D01*
X368453Y286030D01*
X368455Y285964D01*
X368473Y285921D01*
X368481Y285874D01*
X368515Y285817D01*
X368540Y285757D01*
X368571Y285722D01*
X368596Y285681D01*
X368647Y285640D01*
X368691Y285591D01*
X368733Y285569D01*
X368770Y285540D01*
X368832Y285519D01*
X368891Y285488D01*
X368945Y285480D01*
X368982Y285468D01*
X369022Y285469D01*
X369076Y285461D01*
X382284Y285461D01*
X382349Y285472D01*
G37*
G36*
X148669Y285472D02*
X148669Y285472D01*
X148735Y285474D01*
X148778Y285492D01*
X148825Y285500D01*
X148882Y285534D01*
X148942Y285559D01*
X148977Y285590D01*
X149018Y285615D01*
X149060Y285666D01*
X149108Y285710D01*
X149130Y285752D01*
X149159Y285789D01*
X149180Y285851D01*
X149211Y285910D01*
X149219Y285964D01*
X149231Y286001D01*
X149230Y286041D01*
X149238Y286095D01*
X149238Y289905D01*
X149227Y289970D01*
X149225Y290036D01*
X149207Y290079D01*
X149199Y290126D01*
X149165Y290183D01*
X149140Y290243D01*
X149109Y290278D01*
X149084Y290319D01*
X149033Y290361D01*
X148989Y290409D01*
X148947Y290431D01*
X148910Y290460D01*
X148848Y290481D01*
X148789Y290512D01*
X148735Y290520D01*
X148698Y290532D01*
X148658Y290531D01*
X148604Y290539D01*
X135396Y290539D01*
X135331Y290528D01*
X135265Y290526D01*
X135222Y290508D01*
X135175Y290500D01*
X135118Y290466D01*
X135058Y290441D01*
X135023Y290410D01*
X134982Y290385D01*
X134941Y290334D01*
X134892Y290290D01*
X134870Y290248D01*
X134841Y290211D01*
X134820Y290149D01*
X134789Y290090D01*
X134781Y290036D01*
X134769Y289999D01*
X134769Y289995D01*
X134769Y289994D01*
X134770Y289959D01*
X134762Y289905D01*
X134762Y286095D01*
X134773Y286030D01*
X134775Y285964D01*
X134793Y285921D01*
X134801Y285874D01*
X134835Y285817D01*
X134860Y285757D01*
X134891Y285722D01*
X134916Y285681D01*
X134967Y285640D01*
X135011Y285591D01*
X135053Y285569D01*
X135090Y285540D01*
X135152Y285519D01*
X135211Y285488D01*
X135265Y285480D01*
X135302Y285468D01*
X135342Y285469D01*
X135396Y285461D01*
X148604Y285461D01*
X148669Y285472D01*
G37*
G36*
X616029Y285472D02*
X616029Y285472D01*
X616095Y285474D01*
X616138Y285492D01*
X616185Y285500D01*
X616242Y285534D01*
X616302Y285559D01*
X616337Y285590D01*
X616378Y285615D01*
X616420Y285666D01*
X616468Y285710D01*
X616490Y285752D01*
X616519Y285789D01*
X616540Y285851D01*
X616571Y285910D01*
X616579Y285964D01*
X616591Y286001D01*
X616590Y286041D01*
X616598Y286095D01*
X616598Y289905D01*
X616587Y289970D01*
X616585Y290036D01*
X616567Y290079D01*
X616559Y290126D01*
X616525Y290183D01*
X616500Y290243D01*
X616469Y290278D01*
X616444Y290319D01*
X616393Y290361D01*
X616349Y290409D01*
X616307Y290431D01*
X616270Y290460D01*
X616208Y290481D01*
X616149Y290512D01*
X616095Y290520D01*
X616058Y290532D01*
X616018Y290531D01*
X615964Y290539D01*
X602756Y290539D01*
X602691Y290528D01*
X602625Y290526D01*
X602582Y290508D01*
X602535Y290500D01*
X602478Y290466D01*
X602418Y290441D01*
X602383Y290410D01*
X602342Y290385D01*
X602301Y290334D01*
X602252Y290290D01*
X602230Y290248D01*
X602201Y290211D01*
X602180Y290149D01*
X602149Y290090D01*
X602141Y290036D01*
X602129Y289999D01*
X602129Y289995D01*
X602129Y289994D01*
X602130Y289959D01*
X602122Y289905D01*
X602122Y286095D01*
X602133Y286030D01*
X602135Y285964D01*
X602153Y285921D01*
X602161Y285874D01*
X602195Y285817D01*
X602220Y285757D01*
X602251Y285722D01*
X602276Y285681D01*
X602327Y285640D01*
X602371Y285591D01*
X602413Y285569D01*
X602450Y285540D01*
X602512Y285519D01*
X602571Y285488D01*
X602625Y285480D01*
X602662Y285468D01*
X602702Y285469D01*
X602756Y285461D01*
X615964Y285461D01*
X616029Y285472D01*
G37*
D10*
X215900Y520700D03*
X215900Y495300D03*
X215900Y469900D03*
X215900Y444500D03*
X215900Y419100D03*
X215900Y393700D03*
X215900Y368300D03*
X215900Y342900D03*
X215900Y317500D03*
X215900Y292100D03*
X215900Y266700D03*
X215900Y241300D03*
X215900Y215900D03*
X215900Y190500D03*
X215900Y165100D03*
X215900Y139700D03*
X12700Y241300D03*
X12700Y266700D03*
X12700Y292100D03*
X12700Y317500D03*
X12700Y342900D03*
X12700Y368300D03*
X12700Y393700D03*
X12700Y419100D03*
X12700Y444500D03*
X12700Y469900D03*
X12700Y495300D03*
X12700Y520700D03*
D11*
X25400Y25400D03*
X203200Y25400D03*
X203200Y558800D03*
X25400Y558800D03*
D12*
X6000Y534000D03*
X221000Y53000D03*
D13*
X122782Y54094D02*
X120818Y54094D01*
X120818Y63058D01*
X122782Y63058D01*
X122782Y54094D01*
X122782Y56285D02*
X120818Y56285D01*
X120818Y58476D02*
X122782Y58476D01*
X122782Y60667D02*
X120818Y60667D01*
X120818Y62858D02*
X122782Y62858D01*
X117782Y54094D02*
X115818Y54094D01*
X115818Y63058D01*
X117782Y63058D01*
X117782Y54094D01*
X117782Y56285D02*
X115818Y56285D01*
X115818Y58476D02*
X117782Y58476D01*
X117782Y60667D02*
X115818Y60667D01*
X115818Y62858D02*
X117782Y62858D01*
D14*
X144042Y54068D02*
X149058Y54068D01*
X144042Y54068D02*
X144042Y63084D01*
X149058Y63084D01*
X149058Y54068D01*
X149058Y56209D02*
X144042Y56209D01*
X144042Y58350D02*
X149058Y58350D01*
X149058Y60491D02*
X144042Y60491D01*
X144042Y62632D02*
X149058Y62632D01*
X141308Y54068D02*
X136292Y54068D01*
X136292Y63084D01*
X141308Y63084D01*
X141308Y54068D01*
X141308Y56209D02*
X136292Y56209D01*
X136292Y58350D02*
X141308Y58350D01*
X141308Y60491D02*
X136292Y60491D01*
X136292Y62632D02*
X141308Y62632D01*
D13*
X132782Y54094D02*
X130818Y54094D01*
X130818Y63058D01*
X132782Y63058D01*
X132782Y54094D01*
X132782Y56285D02*
X130818Y56285D01*
X130818Y58476D02*
X132782Y58476D01*
X132782Y60667D02*
X130818Y60667D01*
X130818Y62858D02*
X132782Y62858D01*
X127782Y54094D02*
X125818Y54094D01*
X125818Y63058D01*
X127782Y63058D01*
X127782Y54094D01*
X127782Y56285D02*
X125818Y56285D01*
X125818Y58476D02*
X127782Y58476D01*
X127782Y60667D02*
X125818Y60667D01*
X125818Y62858D02*
X127782Y62858D01*
X107782Y63058D02*
X105818Y63058D01*
X107782Y63058D02*
X107782Y54094D01*
X105818Y54094D01*
X105818Y63058D01*
X105818Y56285D02*
X107782Y56285D01*
X107782Y58476D02*
X105818Y58476D01*
X105818Y60667D02*
X107782Y60667D01*
X107782Y62858D02*
X105818Y62858D01*
X110818Y63058D02*
X112782Y63058D01*
X112782Y54094D01*
X110818Y54094D01*
X110818Y63058D01*
X110818Y56285D02*
X112782Y56285D01*
X112782Y58476D02*
X110818Y58476D01*
X110818Y60667D02*
X112782Y60667D01*
X112782Y62858D02*
X110818Y62858D01*
D14*
X84558Y63084D02*
X79542Y63084D01*
X84558Y63084D02*
X84558Y54068D01*
X79542Y54068D01*
X79542Y63084D01*
X79542Y56209D02*
X84558Y56209D01*
X84558Y58350D02*
X79542Y58350D01*
X79542Y60491D02*
X84558Y60491D01*
X84558Y62632D02*
X79542Y62632D01*
X87292Y63084D02*
X92308Y63084D01*
X92308Y54068D01*
X87292Y54068D01*
X87292Y63084D01*
X87292Y56209D02*
X92308Y56209D01*
X92308Y58350D02*
X87292Y58350D01*
X87292Y60491D02*
X92308Y60491D01*
X92308Y62632D02*
X87292Y62632D01*
D13*
X95818Y63058D02*
X97782Y63058D01*
X97782Y54094D01*
X95818Y54094D01*
X95818Y63058D01*
X95818Y56285D02*
X97782Y56285D01*
X97782Y58476D02*
X95818Y58476D01*
X95818Y60667D02*
X97782Y60667D01*
X97782Y62858D02*
X95818Y62858D01*
X100818Y63058D02*
X102782Y63058D01*
X102782Y54094D01*
X100818Y54094D01*
X100818Y63058D01*
X100818Y56285D02*
X102782Y56285D01*
X102782Y58476D02*
X100818Y58476D01*
X100818Y60667D02*
X102782Y60667D01*
X102782Y62858D02*
X100818Y62858D01*
D15*
X85400Y47526D03*
X143200Y47526D03*
D16*
X181019Y88232D02*
X181019Y92768D01*
X181019Y88232D02*
X168483Y88232D01*
X168483Y92768D01*
X181019Y92768D01*
X181019Y90354D02*
X168483Y90354D01*
X168483Y92476D02*
X181019Y92476D01*
X181019Y97732D02*
X181019Y102268D01*
X181019Y97732D02*
X168483Y97732D01*
X168483Y102268D01*
X181019Y102268D01*
X181019Y99854D02*
X168483Y99854D01*
X168483Y101976D02*
X181019Y101976D01*
X181019Y107232D02*
X181019Y111768D01*
X181019Y107232D02*
X168483Y107232D01*
X168483Y111768D01*
X181019Y111768D01*
X181019Y109354D02*
X168483Y109354D01*
X168483Y111476D02*
X181019Y111476D01*
X153517Y111768D02*
X153517Y107232D01*
X140981Y107232D01*
X140981Y111768D01*
X153517Y111768D01*
X153517Y109354D02*
X140981Y109354D01*
X140981Y111476D02*
X153517Y111476D01*
X153517Y102268D02*
X153517Y97732D01*
X140981Y97732D01*
X140981Y102268D01*
X153517Y102268D01*
X153517Y99854D02*
X140981Y99854D01*
X140981Y101976D02*
X153517Y101976D01*
X153517Y92768D02*
X153517Y88232D01*
X140981Y88232D01*
X140981Y92768D01*
X153517Y92768D01*
X153517Y90354D02*
X140981Y90354D01*
X140981Y92476D02*
X153517Y92476D01*
D14*
X171492Y60508D02*
X171492Y55492D01*
X171492Y60508D02*
X176508Y60508D01*
X176508Y55492D01*
X171492Y55492D01*
X171492Y57633D02*
X176508Y57633D01*
X176508Y59774D02*
X171492Y59774D01*
X171492Y50508D02*
X171492Y45492D01*
X171492Y50508D02*
X176508Y50508D01*
X176508Y45492D01*
X171492Y45492D01*
X171492Y47633D02*
X176508Y47633D01*
X176508Y49774D02*
X171492Y49774D01*
X94308Y72692D02*
X89292Y72692D01*
X89292Y77708D01*
X94308Y77708D01*
X94308Y72692D01*
X94308Y74833D02*
X89292Y74833D01*
X89292Y76974D02*
X94308Y76974D01*
X99292Y72692D02*
X104308Y72692D01*
X99292Y72692D02*
X99292Y77708D01*
X104308Y77708D01*
X104308Y72692D01*
X104308Y74833D02*
X99292Y74833D01*
X99292Y76974D02*
X104308Y76974D01*
D17*
X148323Y522423D02*
X148323Y528377D01*
X158777Y528377D01*
X158777Y522423D01*
X148323Y522423D01*
X148323Y524623D02*
X158777Y524623D01*
X158777Y526823D02*
X148323Y526823D01*
X148323Y532423D02*
X148323Y538377D01*
X158777Y538377D01*
X158777Y532423D01*
X148323Y532423D01*
X148323Y534623D02*
X158777Y534623D01*
X158777Y536823D02*
X148323Y536823D01*
X148323Y542423D02*
X148323Y548377D01*
X158777Y548377D01*
X158777Y542423D01*
X148323Y542423D01*
X148323Y544623D02*
X158777Y544623D01*
X158777Y546823D02*
X148323Y546823D01*
X148323Y552423D02*
X148323Y558377D01*
X158777Y558377D01*
X158777Y552423D01*
X148323Y552423D01*
X148323Y554623D02*
X158777Y554623D01*
X158777Y556823D02*
X148323Y556823D01*
X148323Y562423D02*
X148323Y568377D01*
X158777Y568377D01*
X158777Y562423D01*
X148323Y562423D01*
X148323Y564623D02*
X158777Y564623D01*
X158777Y566823D02*
X148323Y566823D01*
X148323Y572423D02*
X148323Y578377D01*
X158777Y578377D01*
X158777Y572423D01*
X148323Y572423D01*
X148323Y574623D02*
X158777Y574623D01*
X158777Y576823D02*
X148323Y576823D01*
X148323Y582423D02*
X148323Y588377D01*
X158777Y588377D01*
X158777Y582423D01*
X148323Y582423D01*
X148323Y584623D02*
X158777Y584623D01*
X158777Y586823D02*
X148323Y586823D01*
X148323Y592423D02*
X148323Y598377D01*
X158777Y598377D01*
X158777Y592423D01*
X148323Y592423D01*
X148323Y594623D02*
X158777Y594623D01*
X158777Y596823D02*
X148323Y596823D01*
X148323Y602423D02*
X148323Y608377D01*
X158777Y608377D01*
X158777Y602423D01*
X148323Y602423D01*
X148323Y604623D02*
X158777Y604623D01*
X158777Y606823D02*
X148323Y606823D01*
X148323Y612423D02*
X148323Y618377D01*
X158777Y618377D01*
X158777Y612423D01*
X148323Y612423D01*
X148323Y614623D02*
X158777Y614623D01*
X158777Y616823D02*
X148323Y616823D01*
X135277Y619877D02*
X129323Y619877D01*
X135277Y619877D02*
X135277Y609423D01*
X129323Y609423D01*
X129323Y619877D01*
X129323Y611623D02*
X135277Y611623D01*
X135277Y613823D02*
X129323Y613823D01*
X129323Y616023D02*
X135277Y616023D01*
X135277Y618223D02*
X129323Y618223D01*
X125277Y619877D02*
X119323Y619877D01*
X125277Y619877D02*
X125277Y609423D01*
X119323Y609423D01*
X119323Y619877D01*
X119323Y611623D02*
X125277Y611623D01*
X125277Y613823D02*
X119323Y613823D01*
X119323Y616023D02*
X125277Y616023D01*
X125277Y618223D02*
X119323Y618223D01*
X115277Y619877D02*
X109323Y619877D01*
X115277Y619877D02*
X115277Y609423D01*
X109323Y609423D01*
X109323Y619877D01*
X109323Y611623D02*
X115277Y611623D01*
X115277Y613823D02*
X109323Y613823D01*
X109323Y616023D02*
X115277Y616023D01*
X115277Y618223D02*
X109323Y618223D01*
X105277Y619877D02*
X99323Y619877D01*
X105277Y619877D02*
X105277Y609423D01*
X99323Y609423D01*
X99323Y619877D01*
X99323Y611623D02*
X105277Y611623D01*
X105277Y613823D02*
X99323Y613823D01*
X99323Y616023D02*
X105277Y616023D01*
X105277Y618223D02*
X99323Y618223D01*
X95277Y619877D02*
X89323Y619877D01*
X95277Y619877D02*
X95277Y609423D01*
X89323Y609423D01*
X89323Y619877D01*
X89323Y611623D02*
X95277Y611623D01*
X95277Y613823D02*
X89323Y613823D01*
X89323Y616023D02*
X95277Y616023D01*
X95277Y618223D02*
X89323Y618223D01*
X65823Y618377D02*
X65823Y612423D01*
X65823Y618377D02*
X76277Y618377D01*
X76277Y612423D01*
X65823Y612423D01*
X65823Y614623D02*
X76277Y614623D01*
X76277Y616823D02*
X65823Y616823D01*
X65823Y608377D02*
X65823Y602423D01*
X65823Y608377D02*
X76277Y608377D01*
X76277Y602423D01*
X65823Y602423D01*
X65823Y604623D02*
X76277Y604623D01*
X76277Y606823D02*
X65823Y606823D01*
X65823Y598377D02*
X65823Y592423D01*
X65823Y598377D02*
X76277Y598377D01*
X76277Y592423D01*
X65823Y592423D01*
X65823Y594623D02*
X76277Y594623D01*
X76277Y596823D02*
X65823Y596823D01*
X65823Y588377D02*
X65823Y582423D01*
X65823Y588377D02*
X76277Y588377D01*
X76277Y582423D01*
X65823Y582423D01*
X65823Y584623D02*
X76277Y584623D01*
X76277Y586823D02*
X65823Y586823D01*
X65823Y578377D02*
X65823Y572423D01*
X65823Y578377D02*
X76277Y578377D01*
X76277Y572423D01*
X65823Y572423D01*
X65823Y574623D02*
X76277Y574623D01*
X76277Y576823D02*
X65823Y576823D01*
X65823Y568377D02*
X65823Y562423D01*
X65823Y568377D02*
X76277Y568377D01*
X76277Y562423D01*
X65823Y562423D01*
X65823Y564623D02*
X76277Y564623D01*
X76277Y566823D02*
X65823Y566823D01*
X65823Y558377D02*
X65823Y552423D01*
X65823Y558377D02*
X76277Y558377D01*
X76277Y552423D01*
X65823Y552423D01*
X65823Y554623D02*
X76277Y554623D01*
X76277Y556823D02*
X65823Y556823D01*
X65823Y548377D02*
X65823Y542423D01*
X65823Y548377D02*
X76277Y548377D01*
X76277Y542423D01*
X65823Y542423D01*
X65823Y544623D02*
X76277Y544623D01*
X76277Y546823D02*
X65823Y546823D01*
X65823Y538377D02*
X65823Y532423D01*
X65823Y538377D02*
X76277Y538377D01*
X76277Y532423D01*
X65823Y532423D01*
X65823Y534623D02*
X76277Y534623D01*
X76277Y536823D02*
X65823Y536823D01*
X65823Y528377D02*
X65823Y522423D01*
X65823Y528377D02*
X76277Y528377D01*
X76277Y522423D01*
X65823Y522423D01*
X65823Y524623D02*
X76277Y524623D01*
X76277Y526823D02*
X65823Y526823D01*
X89323Y531377D02*
X95277Y531377D01*
X95277Y520923D01*
X89323Y520923D01*
X89323Y531377D01*
X89323Y523123D02*
X95277Y523123D01*
X95277Y525323D02*
X89323Y525323D01*
X89323Y527523D02*
X95277Y527523D01*
X95277Y529723D02*
X89323Y529723D01*
X99323Y531377D02*
X105277Y531377D01*
X105277Y520923D01*
X99323Y520923D01*
X99323Y531377D01*
X99323Y523123D02*
X105277Y523123D01*
X105277Y525323D02*
X99323Y525323D01*
X99323Y527523D02*
X105277Y527523D01*
X105277Y529723D02*
X99323Y529723D01*
X109323Y531377D02*
X115277Y531377D01*
X115277Y520923D01*
X109323Y520923D01*
X109323Y531377D01*
X109323Y523123D02*
X115277Y523123D01*
X115277Y525323D02*
X109323Y525323D01*
X109323Y527523D02*
X115277Y527523D01*
X115277Y529723D02*
X109323Y529723D01*
X119323Y531377D02*
X125277Y531377D01*
X125277Y520923D01*
X119323Y520923D01*
X119323Y531377D01*
X119323Y523123D02*
X125277Y523123D01*
X125277Y525323D02*
X119323Y525323D01*
X119323Y527523D02*
X125277Y527523D01*
X125277Y529723D02*
X119323Y529723D01*
X129323Y531377D02*
X135277Y531377D01*
X135277Y520923D01*
X129323Y520923D01*
X129323Y531377D01*
X129323Y523123D02*
X135277Y523123D01*
X135277Y525323D02*
X129323Y525323D01*
X129323Y527523D02*
X135277Y527523D01*
X135277Y529723D02*
X129323Y529723D01*
X136823Y542877D02*
X142777Y542877D01*
X142777Y536923D01*
X136823Y536923D01*
X136823Y542877D01*
X136823Y539123D02*
X142777Y539123D01*
X142777Y541323D02*
X136823Y541323D01*
X136823Y553877D02*
X142777Y553877D01*
X142777Y547923D01*
X136823Y547923D01*
X136823Y553877D01*
X136823Y550123D02*
X142777Y550123D01*
X142777Y552323D02*
X136823Y552323D01*
X136823Y564877D02*
X142777Y564877D01*
X142777Y558923D01*
X136823Y558923D01*
X136823Y564877D01*
X136823Y561123D02*
X142777Y561123D01*
X142777Y563323D02*
X136823Y563323D01*
X136823Y575877D02*
X142777Y575877D01*
X142777Y569923D01*
X136823Y569923D01*
X136823Y575877D01*
X136823Y572123D02*
X142777Y572123D01*
X142777Y574323D02*
X136823Y574323D01*
X136823Y586877D02*
X142777Y586877D01*
X142777Y580923D01*
X136823Y580923D01*
X136823Y586877D01*
X136823Y583123D02*
X142777Y583123D01*
X142777Y585323D02*
X136823Y585323D01*
X136823Y597877D02*
X142777Y597877D01*
X142777Y591923D01*
X136823Y591923D01*
X136823Y597877D01*
X136823Y594123D02*
X142777Y594123D01*
X142777Y596323D02*
X136823Y596323D01*
X87777Y597877D02*
X81823Y597877D01*
X87777Y597877D02*
X87777Y591923D01*
X81823Y591923D01*
X81823Y597877D01*
X81823Y594123D02*
X87777Y594123D01*
X87777Y596323D02*
X81823Y596323D01*
X81823Y586877D02*
X87777Y586877D01*
X87777Y580923D01*
X81823Y580923D01*
X81823Y586877D01*
X81823Y583123D02*
X87777Y583123D01*
X87777Y585323D02*
X81823Y585323D01*
X81823Y575877D02*
X87777Y575877D01*
X87777Y569923D01*
X81823Y569923D01*
X81823Y575877D01*
X81823Y572123D02*
X87777Y572123D01*
X87777Y574323D02*
X81823Y574323D01*
X81823Y564877D02*
X87777Y564877D01*
X87777Y558923D01*
X81823Y558923D01*
X81823Y564877D01*
X81823Y561123D02*
X87777Y561123D01*
X87777Y563323D02*
X81823Y563323D01*
X81823Y553877D02*
X87777Y553877D01*
X87777Y547923D01*
X81823Y547923D01*
X81823Y553877D01*
X81823Y550123D02*
X87777Y550123D01*
X87777Y552323D02*
X81823Y552323D01*
X81823Y542877D02*
X87777Y542877D01*
X87777Y536923D01*
X81823Y536923D01*
X81823Y542877D01*
X81823Y539123D02*
X87777Y539123D01*
X87777Y541323D02*
X81823Y541323D01*
X92823Y542877D02*
X98777Y542877D01*
X98777Y536923D01*
X92823Y536923D01*
X92823Y542877D01*
X92823Y539123D02*
X98777Y539123D01*
X98777Y541323D02*
X92823Y541323D01*
X103823Y542877D02*
X109777Y542877D01*
X109777Y536923D01*
X103823Y536923D01*
X103823Y542877D01*
X103823Y539123D02*
X109777Y539123D01*
X109777Y541323D02*
X103823Y541323D01*
X114823Y542877D02*
X120777Y542877D01*
X120777Y536923D01*
X114823Y536923D01*
X114823Y542877D01*
X114823Y539123D02*
X120777Y539123D01*
X120777Y541323D02*
X114823Y541323D01*
X125823Y542877D02*
X131777Y542877D01*
X131777Y536923D01*
X125823Y536923D01*
X125823Y542877D01*
X125823Y539123D02*
X131777Y539123D01*
X131777Y541323D02*
X125823Y541323D01*
X75277Y516877D02*
X69323Y516877D01*
X75277Y516877D02*
X75277Y510923D01*
X69323Y510923D01*
X69323Y516877D01*
X69323Y513123D02*
X75277Y513123D01*
X75277Y515323D02*
X69323Y515323D01*
X79323Y516877D02*
X85277Y516877D01*
X85277Y510923D01*
X79323Y510923D01*
X79323Y516877D01*
X79323Y513123D02*
X85277Y513123D01*
X85277Y515323D02*
X79323Y515323D01*
X89323Y516877D02*
X95277Y516877D01*
X95277Y510923D01*
X89323Y510923D01*
X89323Y516877D01*
X89323Y513123D02*
X95277Y513123D01*
X95277Y515323D02*
X89323Y515323D01*
X99323Y516877D02*
X105277Y516877D01*
X105277Y510923D01*
X99323Y510923D01*
X99323Y516877D01*
X99323Y513123D02*
X105277Y513123D01*
X105277Y515323D02*
X99323Y515323D01*
X109323Y516877D02*
X115277Y516877D01*
X115277Y510923D01*
X109323Y510923D01*
X109323Y516877D01*
X109323Y513123D02*
X115277Y513123D01*
X115277Y515323D02*
X109323Y515323D01*
X119323Y516877D02*
X125277Y516877D01*
X125277Y510923D01*
X119323Y510923D01*
X119323Y516877D01*
X119323Y513123D02*
X125277Y513123D01*
X125277Y515323D02*
X119323Y515323D01*
X129323Y516877D02*
X135277Y516877D01*
X135277Y510923D01*
X129323Y510923D01*
X129323Y516877D01*
X129323Y513123D02*
X135277Y513123D01*
X135277Y515323D02*
X129323Y515323D01*
X139323Y516877D02*
X145277Y516877D01*
X145277Y510923D01*
X139323Y510923D01*
X139323Y516877D01*
X139323Y513123D02*
X145277Y513123D01*
X145277Y515323D02*
X139323Y515323D01*
X149323Y516877D02*
X155277Y516877D01*
X155277Y510923D01*
X149323Y510923D01*
X149323Y516877D01*
X149323Y513123D02*
X155277Y513123D01*
X155277Y515323D02*
X149323Y515323D01*
X132527Y590627D02*
X126573Y590627D01*
X132527Y590627D02*
X132527Y584673D01*
X126573Y584673D01*
X126573Y590627D01*
X126573Y586873D02*
X132527Y586873D01*
X132527Y589073D02*
X126573Y589073D01*
X121027Y590627D02*
X115073Y590627D01*
X121027Y590627D02*
X121027Y584673D01*
X115073Y584673D01*
X115073Y590627D01*
X115073Y586873D02*
X121027Y586873D01*
X121027Y589073D02*
X115073Y589073D01*
X109527Y590627D02*
X103573Y590627D01*
X109527Y590627D02*
X109527Y584673D01*
X103573Y584673D01*
X103573Y590627D01*
X103573Y586873D02*
X109527Y586873D01*
X109527Y589073D02*
X103573Y589073D01*
X98027Y590627D02*
X92073Y590627D01*
X98027Y590627D02*
X98027Y584673D01*
X92073Y584673D01*
X92073Y590627D01*
X92073Y586873D02*
X98027Y586873D01*
X98027Y589073D02*
X92073Y589073D01*
X115073Y579127D02*
X121027Y579127D01*
X121027Y573173D01*
X115073Y573173D01*
X115073Y579127D01*
X115073Y575373D02*
X121027Y575373D01*
X121027Y577573D02*
X115073Y577573D01*
X109527Y579127D02*
X103573Y579127D01*
X109527Y579127D02*
X109527Y573173D01*
X103573Y573173D01*
X103573Y579127D01*
X103573Y575373D02*
X109527Y575373D01*
X109527Y577573D02*
X103573Y577573D01*
X126573Y567627D02*
X132527Y567627D01*
X132527Y561673D01*
X126573Y561673D01*
X126573Y567627D01*
X126573Y563873D02*
X132527Y563873D01*
X132527Y566073D02*
X126573Y566073D01*
X121027Y567627D02*
X115073Y567627D01*
X121027Y567627D02*
X121027Y561673D01*
X115073Y561673D01*
X115073Y567627D01*
X115073Y563873D02*
X121027Y563873D01*
X121027Y566073D02*
X115073Y566073D01*
X109527Y567627D02*
X103573Y567627D01*
X109527Y567627D02*
X109527Y561673D01*
X103573Y561673D01*
X103573Y567627D01*
X103573Y563873D02*
X109527Y563873D01*
X109527Y566073D02*
X103573Y566073D01*
X98027Y567627D02*
X92073Y567627D01*
X98027Y567627D02*
X98027Y561673D01*
X92073Y561673D01*
X92073Y567627D01*
X92073Y563873D02*
X98027Y563873D01*
X98027Y566073D02*
X92073Y566073D01*
X115073Y556127D02*
X121027Y556127D01*
X121027Y550173D01*
X115073Y550173D01*
X115073Y556127D01*
X115073Y552373D02*
X121027Y552373D01*
X121027Y554573D02*
X115073Y554573D01*
X109527Y556127D02*
X103573Y556127D01*
X109527Y556127D02*
X109527Y550173D01*
X103573Y550173D01*
X103573Y556127D01*
X103573Y552373D02*
X109527Y552373D01*
X109527Y554573D02*
X103573Y554573D01*
X152823Y628377D02*
X158777Y628377D01*
X158777Y622423D01*
X152823Y622423D01*
X152823Y628377D01*
X152823Y624623D02*
X158777Y624623D01*
X158777Y626823D02*
X152823Y626823D01*
X152823Y653877D02*
X158777Y653877D01*
X158777Y647923D01*
X152823Y647923D01*
X152823Y653877D01*
X152823Y650123D02*
X158777Y650123D01*
X158777Y652323D02*
X152823Y652323D01*
X71777Y653877D02*
X65823Y653877D01*
X71777Y653877D02*
X71777Y647923D01*
X65823Y647923D01*
X65823Y653877D01*
X65823Y650123D02*
X71777Y650123D01*
X71777Y652323D02*
X65823Y652323D01*
X65823Y628377D02*
X71777Y628377D01*
X71777Y622423D01*
X65823Y622423D01*
X65823Y628377D01*
X65823Y624623D02*
X71777Y624623D01*
X71777Y626823D02*
X65823Y626823D01*
D18*
X95068Y172308D02*
X95068Y163292D01*
X50052Y163292D01*
X50052Y172308D01*
X95068Y172308D01*
X95068Y165433D02*
X50052Y165433D01*
X50052Y167574D02*
X95068Y167574D01*
X95068Y169715D02*
X50052Y169715D01*
X50052Y171856D02*
X95068Y171856D01*
X95068Y183292D02*
X95068Y192308D01*
X95068Y183292D02*
X50052Y183292D01*
X50052Y192308D01*
X95068Y192308D01*
X95068Y185433D02*
X50052Y185433D01*
X50052Y187574D02*
X95068Y187574D01*
X95068Y189715D02*
X50052Y189715D01*
X50052Y191856D02*
X95068Y191856D01*
D19*
X37073Y151313D02*
X4047Y151313D01*
X37073Y151313D02*
X37073Y136287D01*
X4047Y136287D01*
X4047Y151313D01*
X4047Y138420D02*
X37073Y138420D01*
X37073Y140553D02*
X4047Y140553D01*
X4047Y142686D02*
X37073Y142686D01*
X37073Y144819D02*
X4047Y144819D01*
X4047Y146952D02*
X37073Y146952D01*
X37073Y149085D02*
X4047Y149085D01*
X4047Y151218D02*
X37073Y151218D01*
X37073Y219313D02*
X4047Y219313D01*
X37073Y219313D02*
X37073Y204287D01*
X4047Y204287D01*
X4047Y219313D01*
X4047Y206420D02*
X37073Y206420D01*
X37073Y208553D02*
X4047Y208553D01*
X4047Y210686D02*
X37073Y210686D01*
X37073Y212819D02*
X4047Y212819D01*
X4047Y214952D02*
X37073Y214952D01*
X37073Y217085D02*
X4047Y217085D01*
X4047Y219218D02*
X37073Y219218D01*
D16*
X122781Y193268D02*
X122781Y188732D01*
X122781Y193268D02*
X133817Y193268D01*
X133817Y188732D01*
X122781Y188732D01*
X122781Y190854D02*
X133817Y190854D01*
X133817Y192976D02*
X122781Y192976D01*
X122781Y183768D02*
X122781Y179232D01*
X122781Y183768D02*
X133817Y183768D01*
X133817Y179232D01*
X122781Y179232D01*
X122781Y181354D02*
X133817Y181354D01*
X133817Y183476D02*
X122781Y183476D01*
X122781Y174268D02*
X122781Y169732D01*
X122781Y174268D02*
X133817Y174268D01*
X133817Y169732D01*
X122781Y169732D01*
X122781Y171854D02*
X133817Y171854D01*
X133817Y173976D02*
X122781Y173976D01*
X148783Y174268D02*
X148783Y169732D01*
X148783Y174268D02*
X159819Y174268D01*
X159819Y169732D01*
X148783Y169732D01*
X148783Y171854D02*
X159819Y171854D01*
X159819Y173976D02*
X148783Y173976D01*
X148783Y188732D02*
X148783Y193268D01*
X159819Y193268D01*
X159819Y188732D01*
X148783Y188732D01*
X148783Y190854D02*
X159819Y190854D01*
X159819Y192976D02*
X148783Y192976D01*
D20*
X117276Y203506D02*
X117276Y210494D01*
X124264Y210494D01*
X124264Y203506D01*
X117276Y203506D01*
X117276Y207575D02*
X124264Y207575D01*
X99736Y210494D02*
X99736Y203506D01*
X99736Y210494D02*
X106724Y210494D01*
X106724Y203506D01*
X99736Y203506D01*
X99736Y207575D02*
X106724Y207575D01*
D14*
X104492Y217492D02*
X109508Y217492D01*
X104492Y217492D02*
X104492Y222508D01*
X109508Y222508D01*
X109508Y217492D01*
X109508Y219633D02*
X104492Y219633D01*
X104492Y221774D02*
X109508Y221774D01*
X114492Y217492D02*
X119508Y217492D01*
X114492Y217492D02*
X114492Y222508D01*
X119508Y222508D01*
X119508Y217492D01*
X119508Y219633D02*
X114492Y219633D01*
X114492Y221774D02*
X119508Y221774D01*
X166492Y174508D02*
X166492Y169492D01*
X166492Y174508D02*
X171508Y174508D01*
X171508Y169492D01*
X166492Y169492D01*
X166492Y171633D02*
X171508Y171633D01*
X171508Y173774D02*
X166492Y173774D01*
X166492Y164508D02*
X166492Y159492D01*
X166492Y164508D02*
X171508Y164508D01*
X171508Y159492D01*
X166492Y159492D01*
X166492Y161633D02*
X171508Y161633D01*
X171508Y163774D02*
X166492Y163774D01*
X174492Y198492D02*
X174492Y203508D01*
X179508Y203508D01*
X179508Y198492D01*
X174492Y198492D01*
X174492Y200633D02*
X179508Y200633D01*
X179508Y202774D02*
X174492Y202774D01*
X174492Y193508D02*
X174492Y188492D01*
X174492Y193508D02*
X179508Y193508D01*
X179508Y188492D01*
X174492Y188492D01*
X174492Y190633D02*
X179508Y190633D01*
X179508Y192774D02*
X174492Y192774D01*
X107492Y174508D02*
X107492Y169492D01*
X107492Y174508D02*
X112508Y174508D01*
X112508Y169492D01*
X107492Y169492D01*
X107492Y171633D02*
X112508Y171633D01*
X112508Y173774D02*
X107492Y173774D01*
X107492Y164508D02*
X107492Y159492D01*
X107492Y164508D02*
X112508Y164508D01*
X112508Y159492D01*
X107492Y159492D01*
X107492Y161633D02*
X112508Y161633D01*
X112508Y163774D02*
X107492Y163774D01*
D21*
X125976Y231024D02*
X125976Y237976D01*
X125976Y231024D02*
X118024Y231024D01*
X118024Y237976D01*
X125976Y237976D01*
X125976Y233226D02*
X118024Y233226D01*
X118024Y235428D02*
X125976Y235428D01*
X125976Y237630D02*
X118024Y237630D01*
X125976Y250024D02*
X125976Y256976D01*
X125976Y250024D02*
X118024Y250024D01*
X118024Y256976D01*
X125976Y256976D01*
X125976Y252226D02*
X118024Y252226D01*
X118024Y254428D02*
X125976Y254428D01*
X125976Y256630D02*
X118024Y256630D01*
X104976Y247476D02*
X104976Y240524D01*
X97024Y240524D01*
X97024Y247476D01*
X104976Y247476D01*
X104976Y242726D02*
X97024Y242726D01*
X97024Y244928D02*
X104976Y244928D01*
X104976Y247130D02*
X97024Y247130D01*
D22*
X138150Y252850D02*
X138150Y258150D01*
X145450Y258150D01*
X145450Y252850D01*
X138150Y252850D01*
X138150Y255007D02*
X145450Y255007D01*
X145450Y257164D02*
X138150Y257164D01*
X138150Y235150D02*
X138150Y229850D01*
X138150Y235150D02*
X145450Y235150D01*
X145450Y229850D01*
X138150Y229850D01*
X138150Y232007D02*
X145450Y232007D01*
X145450Y234164D02*
X138150Y234164D01*
D14*
X160492Y203508D02*
X165508Y203508D01*
X165508Y198492D01*
X160492Y198492D01*
X160492Y203508D01*
X160492Y200633D02*
X165508Y200633D01*
X165508Y202774D02*
X160492Y202774D01*
X155508Y203508D02*
X150492Y203508D01*
X155508Y203508D02*
X155508Y198492D01*
X150492Y198492D01*
X150492Y203508D01*
X150492Y200633D02*
X155508Y200633D01*
X155508Y202774D02*
X150492Y202774D01*
X170492Y272492D02*
X170492Y277508D01*
X175508Y277508D01*
X175508Y272492D01*
X170492Y272492D01*
X170492Y274633D02*
X175508Y274633D01*
X175508Y276774D02*
X170492Y276774D01*
X170492Y267508D02*
X170492Y262492D01*
X170492Y267508D02*
X175508Y267508D01*
X175508Y262492D01*
X170492Y262492D01*
X170492Y264633D02*
X175508Y264633D01*
X175508Y266774D02*
X170492Y266774D01*
D16*
X150068Y339081D02*
X145532Y339081D01*
X145532Y350117D01*
X150068Y350117D01*
X150068Y339081D01*
X150068Y341203D02*
X145532Y341203D01*
X145532Y343325D02*
X150068Y343325D01*
X150068Y345447D02*
X145532Y345447D01*
X145532Y347569D02*
X150068Y347569D01*
X150068Y349691D02*
X145532Y349691D01*
X155032Y339081D02*
X159568Y339081D01*
X155032Y339081D02*
X155032Y350117D01*
X159568Y350117D01*
X159568Y339081D01*
X159568Y341203D02*
X155032Y341203D01*
X155032Y343325D02*
X159568Y343325D01*
X159568Y345447D02*
X155032Y345447D01*
X155032Y347569D02*
X159568Y347569D01*
X159568Y349691D02*
X155032Y349691D01*
X164532Y339081D02*
X169068Y339081D01*
X164532Y339081D02*
X164532Y350117D01*
X169068Y350117D01*
X169068Y339081D01*
X169068Y341203D02*
X164532Y341203D01*
X164532Y343325D02*
X169068Y343325D01*
X169068Y345447D02*
X164532Y345447D01*
X164532Y347569D02*
X169068Y347569D01*
X169068Y349691D02*
X164532Y349691D01*
X164532Y365083D02*
X169068Y365083D01*
X164532Y365083D02*
X164532Y376119D01*
X169068Y376119D01*
X169068Y365083D01*
X169068Y367205D02*
X164532Y367205D01*
X164532Y369327D02*
X169068Y369327D01*
X169068Y371449D02*
X164532Y371449D01*
X164532Y373571D02*
X169068Y373571D01*
X169068Y375693D02*
X164532Y375693D01*
X150068Y365083D02*
X145532Y365083D01*
X145532Y376119D01*
X150068Y376119D01*
X150068Y365083D01*
X150068Y367205D02*
X145532Y367205D01*
X145532Y369327D02*
X150068Y369327D01*
X150068Y371449D02*
X145532Y371449D01*
X145532Y373571D02*
X150068Y373571D01*
X150068Y375693D02*
X145532Y375693D01*
D14*
X164008Y277508D02*
X164008Y272492D01*
X158992Y272492D01*
X158992Y277508D01*
X164008Y277508D01*
X164008Y274633D02*
X158992Y274633D01*
X158992Y276774D02*
X164008Y276774D01*
X164008Y282492D02*
X164008Y287508D01*
X164008Y282492D02*
X158992Y282492D01*
X158992Y287508D01*
X164008Y287508D01*
X164008Y284633D02*
X158992Y284633D01*
X158992Y286774D02*
X164008Y286774D01*
X150508Y382492D02*
X145492Y382492D01*
X145492Y387508D01*
X150508Y387508D01*
X150508Y382492D01*
X150508Y384633D02*
X145492Y384633D01*
X145492Y386774D02*
X150508Y386774D01*
X155492Y382492D02*
X160508Y382492D01*
X155492Y382492D02*
X155492Y387508D01*
X160508Y387508D01*
X160508Y382492D01*
X160508Y384633D02*
X155492Y384633D01*
X155492Y386774D02*
X160508Y386774D01*
X157508Y437508D02*
X152492Y437508D01*
X157508Y437508D02*
X157508Y432492D01*
X152492Y432492D01*
X152492Y437508D01*
X152492Y434633D02*
X157508Y434633D01*
X157508Y436774D02*
X152492Y436774D01*
X147508Y437508D02*
X142492Y437508D01*
X147508Y437508D02*
X147508Y432492D01*
X142492Y432492D01*
X142492Y437508D01*
X142492Y434633D02*
X147508Y434633D01*
X147508Y436774D02*
X142492Y436774D01*
D20*
X151506Y466276D02*
X158494Y466276D01*
X151506Y466276D02*
X151506Y473264D01*
X158494Y473264D01*
X158494Y466276D01*
X158494Y470345D02*
X151506Y470345D01*
X151506Y448736D02*
X158494Y448736D01*
X151506Y448736D02*
X151506Y455724D01*
X158494Y455724D01*
X158494Y448736D01*
X158494Y452805D02*
X151506Y452805D01*
D23*
X59000Y262000D03*
X64000Y262000D03*
X69000Y262000D03*
X74000Y262000D03*
X74000Y242000D03*
X69000Y242000D03*
X64000Y242000D03*
X59000Y242000D03*
D24*
X66500Y252100D03*
D14*
X87508Y238508D02*
X87508Y233492D01*
X82492Y233492D01*
X82492Y238508D01*
X87508Y238508D01*
X87508Y235633D02*
X82492Y235633D01*
X82492Y237774D02*
X87508Y237774D01*
X87508Y243492D02*
X87508Y248508D01*
X87508Y243492D02*
X82492Y243492D01*
X82492Y248508D01*
X87508Y248508D01*
X87508Y245633D02*
X82492Y245633D01*
X82492Y247774D02*
X87508Y247774D01*
X99492Y93508D02*
X104508Y93508D01*
X104508Y88492D01*
X99492Y88492D01*
X99492Y93508D01*
X99492Y90633D02*
X104508Y90633D01*
X104508Y92774D02*
X99492Y92774D01*
X94508Y93508D02*
X89492Y93508D01*
X94508Y93508D02*
X94508Y88492D01*
X89492Y88492D01*
X89492Y93508D01*
X89492Y90633D02*
X94508Y90633D01*
X94508Y92774D02*
X89492Y92774D01*
D17*
X117173Y466823D02*
X123127Y466823D01*
X117173Y466823D02*
X117173Y472777D01*
X123127Y472777D01*
X123127Y466823D01*
X123127Y469023D02*
X117173Y469023D01*
X117173Y471223D02*
X123127Y471223D01*
X123127Y455823D02*
X117173Y455823D01*
X117173Y461777D01*
X123127Y461777D01*
X123127Y455823D01*
X123127Y458023D02*
X117173Y458023D01*
X117173Y460223D02*
X123127Y460223D01*
X104827Y455823D02*
X98873Y455823D01*
X98873Y461777D01*
X104827Y461777D01*
X104827Y455823D01*
X104827Y458023D02*
X98873Y458023D01*
X98873Y460223D02*
X104827Y460223D01*
X104827Y466823D02*
X98873Y466823D01*
X98873Y472777D01*
X104827Y472777D01*
X104827Y466823D01*
X104827Y469023D02*
X98873Y469023D01*
X98873Y471223D02*
X104827Y471223D01*
D14*
X103492Y441492D02*
X108508Y441492D01*
X103492Y441492D02*
X103492Y446508D01*
X108508Y446508D01*
X108508Y441492D01*
X108508Y443633D02*
X103492Y443633D01*
X103492Y445774D02*
X108508Y445774D01*
X113492Y441492D02*
X118508Y441492D01*
X113492Y441492D02*
X113492Y446508D01*
X118508Y446508D01*
X118508Y441492D01*
X118508Y443633D02*
X113492Y443633D01*
X113492Y445774D02*
X118508Y445774D01*
X32808Y481892D02*
X27792Y481892D01*
X27792Y486908D01*
X32808Y486908D01*
X32808Y481892D01*
X32808Y484033D02*
X27792Y484033D01*
X27792Y486174D02*
X32808Y486174D01*
X37792Y481892D02*
X42808Y481892D01*
X37792Y481892D02*
X37792Y486908D01*
X42808Y486908D01*
X42808Y481892D01*
X42808Y484033D02*
X37792Y484033D01*
X37792Y486174D02*
X42808Y486174D01*
X33808Y505492D02*
X28792Y505492D01*
X28792Y510508D01*
X33808Y510508D01*
X33808Y505492D01*
X33808Y507633D02*
X28792Y507633D01*
X28792Y509774D02*
X33808Y509774D01*
X38792Y505492D02*
X43808Y505492D01*
X38792Y505492D02*
X38792Y510508D01*
X43808Y510508D01*
X43808Y505492D01*
X43808Y507633D02*
X38792Y507633D01*
X38792Y509774D02*
X43808Y509774D01*
D25*
X154438Y223988D02*
X161962Y223988D01*
X154438Y223988D02*
X154438Y232012D01*
X161962Y232012D01*
X161962Y223988D01*
X161962Y226123D02*
X154438Y226123D01*
X154438Y228258D02*
X161962Y228258D01*
X161962Y230393D02*
X154438Y230393D01*
X166038Y223988D02*
X173562Y223988D01*
X166038Y223988D02*
X166038Y232012D01*
X173562Y232012D01*
X173562Y223988D01*
X173562Y226123D02*
X166038Y226123D01*
X166038Y228258D02*
X173562Y228258D01*
X173562Y230393D02*
X166038Y230393D01*
D14*
X167092Y246508D02*
X172108Y246508D01*
X172108Y241492D01*
X167092Y241492D01*
X167092Y246508D01*
X167092Y243633D02*
X172108Y243633D01*
X172108Y245774D02*
X167092Y245774D01*
X162108Y246508D02*
X157092Y246508D01*
X162108Y246508D02*
X162108Y241492D01*
X157092Y241492D01*
X157092Y246508D01*
X157092Y243633D02*
X162108Y243633D01*
X162108Y245774D02*
X157092Y245774D01*
X155508Y210492D02*
X150492Y210492D01*
X150492Y215508D01*
X155508Y215508D01*
X155508Y210492D01*
X155508Y212633D02*
X150492Y212633D01*
X150492Y214774D02*
X155508Y214774D01*
X160492Y210492D02*
X165508Y210492D01*
X160492Y210492D02*
X160492Y215508D01*
X165508Y215508D01*
X165508Y210492D01*
X165508Y212633D02*
X160492Y212633D01*
X160492Y214774D02*
X165508Y214774D01*
D20*
X79994Y462676D02*
X73006Y462676D01*
X73006Y469664D01*
X79994Y469664D01*
X79994Y462676D01*
X79994Y466745D02*
X73006Y466745D01*
X73006Y445136D02*
X79994Y445136D01*
X73006Y445136D02*
X73006Y452124D01*
X79994Y452124D01*
X79994Y445136D01*
X79994Y449205D02*
X73006Y449205D01*
D14*
X77492Y436508D02*
X82508Y436508D01*
X82508Y431492D01*
X77492Y431492D01*
X77492Y436508D01*
X77492Y433633D02*
X82508Y433633D01*
X82508Y435774D02*
X77492Y435774D01*
X72508Y436508D02*
X67492Y436508D01*
X72508Y436508D02*
X72508Y431492D01*
X67492Y431492D01*
X67492Y436508D01*
X67492Y433633D02*
X72508Y433633D01*
X72508Y435774D02*
X67492Y435774D01*
D26*
X214034Y69606D02*
X214034Y61594D01*
X214034Y69606D02*
X223046Y69606D01*
X223046Y61594D01*
X214034Y61594D01*
X214034Y63740D02*
X223046Y63740D01*
X223046Y65886D02*
X214034Y65886D01*
X214034Y68032D02*
X223046Y68032D01*
X198034Y69606D02*
X198034Y61594D01*
X198034Y69606D02*
X207046Y69606D01*
X207046Y61594D01*
X198034Y61594D01*
X198034Y63740D02*
X207046Y63740D01*
X207046Y65886D02*
X198034Y65886D01*
X198034Y68032D02*
X207046Y68032D01*
X198034Y102594D02*
X198034Y110606D01*
X207046Y110606D01*
X207046Y102594D01*
X198034Y102594D01*
X198034Y104740D02*
X207046Y104740D01*
X207046Y106886D02*
X198034Y106886D01*
X198034Y109032D02*
X207046Y109032D01*
X214034Y110606D02*
X214034Y102594D01*
X214034Y110606D02*
X223046Y110606D01*
X223046Y102594D01*
X214034Y102594D01*
X214034Y104740D02*
X223046Y104740D01*
X223046Y106886D02*
X214034Y106886D01*
X214034Y109032D02*
X223046Y109032D01*
D14*
X217508Y124508D02*
X212492Y124508D01*
X217508Y124508D02*
X217508Y119492D01*
X212492Y119492D01*
X212492Y124508D01*
X212492Y121633D02*
X217508Y121633D01*
X217508Y123774D02*
X212492Y123774D01*
X207508Y124508D02*
X202492Y124508D01*
X207508Y124508D02*
X207508Y119492D01*
X202492Y119492D01*
X202492Y124508D01*
X202492Y121633D02*
X207508Y121633D01*
X207508Y123774D02*
X202492Y123774D01*
D27*
X4543Y122407D02*
X4543Y111393D01*
X4543Y122407D02*
X23557Y122407D01*
X23557Y111393D01*
X4543Y111393D01*
X4543Y113536D02*
X23557Y113536D01*
X23557Y115679D02*
X4543Y115679D01*
X4543Y117822D02*
X23557Y117822D01*
X23557Y119965D02*
X4543Y119965D01*
X4543Y122108D02*
X23557Y122108D01*
X4543Y66407D02*
X4543Y55393D01*
X4543Y66407D02*
X23557Y66407D01*
X23557Y55393D01*
X4543Y55393D01*
X4543Y57536D02*
X23557Y57536D01*
X23557Y59679D02*
X4543Y59679D01*
X4543Y61822D02*
X23557Y61822D01*
X23557Y63965D02*
X4543Y63965D01*
X4543Y66108D02*
X23557Y66108D01*
D14*
X44542Y101392D02*
X44542Y106408D01*
X57058Y106408D01*
X57058Y101392D01*
X44542Y101392D01*
X44542Y103533D02*
X57058Y103533D01*
X57058Y105674D02*
X44542Y105674D01*
X44542Y96408D02*
X44542Y91392D01*
X44542Y96408D02*
X57058Y96408D01*
X57058Y91392D01*
X44542Y91392D01*
X44542Y93533D02*
X57058Y93533D01*
X57058Y95674D02*
X44542Y95674D01*
X44542Y86408D02*
X44542Y81392D01*
X44542Y86408D02*
X57058Y86408D01*
X57058Y81392D01*
X44542Y81392D01*
X44542Y83533D02*
X57058Y83533D01*
X57058Y85674D02*
X44542Y85674D01*
X44542Y76408D02*
X44542Y71392D01*
X44542Y76408D02*
X57058Y76408D01*
X57058Y71392D01*
X44542Y71392D01*
X44542Y73533D02*
X57058Y73533D01*
X57058Y75674D02*
X44542Y75674D01*
D21*
X98024Y129976D02*
X104976Y129976D01*
X104976Y122024D01*
X98024Y122024D01*
X98024Y129976D01*
X98024Y124226D02*
X104976Y124226D01*
X104976Y126428D02*
X98024Y126428D01*
X98024Y128630D02*
X104976Y128630D01*
X85976Y129976D02*
X79024Y129976D01*
X85976Y129976D02*
X85976Y122024D01*
X79024Y122024D01*
X79024Y129976D01*
X79024Y124226D02*
X85976Y124226D01*
X85976Y126428D02*
X79024Y126428D01*
X79024Y128630D02*
X85976Y128630D01*
X88524Y108976D02*
X95476Y108976D01*
X95476Y101024D01*
X88524Y101024D01*
X88524Y108976D01*
X88524Y103226D02*
X95476Y103226D01*
X95476Y105428D02*
X88524Y105428D01*
X88524Y107630D02*
X95476Y107630D01*
D14*
X119492Y152492D02*
X124508Y152492D01*
X119492Y152492D02*
X119492Y157508D01*
X124508Y157508D01*
X124508Y152492D01*
X124508Y154633D02*
X119492Y154633D01*
X119492Y156774D02*
X124508Y156774D01*
X129492Y152492D02*
X134508Y152492D01*
X129492Y152492D02*
X129492Y157508D01*
X134508Y157508D01*
X134508Y152492D01*
X134508Y154633D02*
X129492Y154633D01*
X129492Y156774D02*
X134508Y156774D01*
X118508Y134508D02*
X118508Y129492D01*
X113492Y129492D01*
X113492Y134508D01*
X118508Y134508D01*
X118508Y131633D02*
X113492Y131633D01*
X113492Y133774D02*
X118508Y133774D01*
X118508Y139492D02*
X118508Y144508D01*
X118508Y139492D02*
X113492Y139492D01*
X113492Y144508D01*
X118508Y144508D01*
X118508Y141633D02*
X113492Y141633D01*
X113492Y143774D02*
X118508Y143774D01*
D21*
X146024Y143976D02*
X152976Y143976D01*
X152976Y136024D01*
X146024Y136024D01*
X146024Y143976D01*
X146024Y138226D02*
X152976Y138226D01*
X152976Y140428D02*
X146024Y140428D01*
X146024Y142630D02*
X152976Y142630D01*
X133976Y143976D02*
X127024Y143976D01*
X133976Y143976D02*
X133976Y136024D01*
X127024Y136024D01*
X127024Y143976D01*
X127024Y138226D02*
X133976Y138226D01*
X133976Y140428D02*
X127024Y140428D01*
X127024Y142630D02*
X133976Y142630D01*
X136524Y122976D02*
X143476Y122976D01*
X143476Y115024D01*
X136524Y115024D01*
X136524Y122976D01*
X136524Y117226D02*
X143476Y117226D01*
X143476Y119428D02*
X136524Y119428D01*
X136524Y121630D02*
X143476Y121630D01*
D14*
X118508Y110508D02*
X118508Y105492D01*
X113492Y105492D01*
X113492Y110508D01*
X118508Y110508D01*
X118508Y107633D02*
X113492Y107633D01*
X113492Y109774D02*
X118508Y109774D01*
X118508Y115492D02*
X118508Y120508D01*
X118508Y115492D02*
X113492Y115492D01*
X113492Y120508D01*
X118508Y120508D01*
X118508Y117633D02*
X113492Y117633D01*
X113492Y119774D02*
X118508Y119774D01*
X176492Y612492D02*
X181508Y612492D01*
X176492Y612492D02*
X176492Y617508D01*
X181508Y617508D01*
X181508Y612492D01*
X181508Y614633D02*
X176492Y614633D01*
X176492Y616774D02*
X181508Y616774D01*
X186492Y612492D02*
X191508Y612492D01*
X186492Y612492D02*
X186492Y617508D01*
X191508Y617508D01*
X191508Y612492D01*
X191508Y614633D02*
X186492Y614633D01*
X186492Y616774D02*
X191508Y616774D01*
X181508Y602492D02*
X176492Y602492D01*
X176492Y607508D01*
X181508Y607508D01*
X181508Y602492D01*
X181508Y604633D02*
X176492Y604633D01*
X176492Y606774D02*
X181508Y606774D01*
X186492Y602492D02*
X191508Y602492D01*
X186492Y602492D02*
X186492Y607508D01*
X191508Y607508D01*
X191508Y602492D01*
X191508Y604633D02*
X186492Y604633D01*
X186492Y606774D02*
X191508Y606774D01*
D28*
X58740Y300490D02*
X54760Y300490D01*
X58740Y300490D02*
X58740Y298010D01*
X54760Y298010D01*
X54760Y300490D01*
X54760Y300185D02*
X58740Y300185D01*
X58740Y306990D02*
X54760Y306990D01*
X58740Y306990D02*
X58740Y304510D01*
X54760Y304510D01*
X54760Y306990D01*
X54760Y306685D02*
X58740Y306685D01*
X58740Y313490D02*
X54760Y313490D01*
X58740Y313490D02*
X58740Y311010D01*
X54760Y311010D01*
X54760Y313490D01*
X54760Y313185D02*
X58740Y313185D01*
X58740Y319990D02*
X54760Y319990D01*
X58740Y319990D02*
X58740Y317510D01*
X54760Y317510D01*
X54760Y319990D01*
X54760Y319685D02*
X58740Y319685D01*
X75260Y319990D02*
X79240Y319990D01*
X79240Y317510D01*
X75260Y317510D01*
X75260Y319990D01*
X75260Y319685D02*
X79240Y319685D01*
X79240Y313490D02*
X75260Y313490D01*
X79240Y313490D02*
X79240Y311010D01*
X75260Y311010D01*
X75260Y313490D01*
X75260Y313185D02*
X79240Y313185D01*
X79240Y306990D02*
X75260Y306990D01*
X79240Y306990D02*
X79240Y304510D01*
X75260Y304510D01*
X75260Y306990D01*
X75260Y306685D02*
X79240Y306685D01*
X79240Y300490D02*
X75260Y300490D01*
X79240Y300490D02*
X79240Y298010D01*
X75260Y298010D01*
X75260Y300490D01*
X75260Y300185D02*
X79240Y300185D01*
D14*
X91508Y310492D02*
X91508Y315508D01*
X91508Y310492D02*
X86492Y310492D01*
X86492Y315508D01*
X91508Y315508D01*
X91508Y312633D02*
X86492Y312633D01*
X86492Y314774D02*
X91508Y314774D01*
X91508Y320492D02*
X91508Y325508D01*
X91508Y320492D02*
X86492Y320492D01*
X86492Y325508D01*
X91508Y325508D01*
X91508Y322633D02*
X86492Y322633D01*
X86492Y324774D02*
X91508Y324774D01*
X79508Y291508D02*
X74492Y291508D01*
X79508Y291508D02*
X79508Y286492D01*
X74492Y286492D01*
X74492Y291508D01*
X74492Y288633D02*
X79508Y288633D01*
X79508Y290774D02*
X74492Y290774D01*
X69508Y291508D02*
X64492Y291508D01*
X69508Y291508D02*
X69508Y286492D01*
X64492Y286492D01*
X64492Y291508D01*
X64492Y288633D02*
X69508Y288633D01*
X69508Y290774D02*
X64492Y290774D01*
X74492Y281508D02*
X79508Y281508D01*
X79508Y276492D01*
X74492Y276492D01*
X74492Y281508D01*
X74492Y278633D02*
X79508Y278633D01*
X79508Y280774D02*
X74492Y280774D01*
X69508Y281508D02*
X64492Y281508D01*
X69508Y281508D02*
X69508Y276492D01*
X64492Y276492D01*
X64492Y281508D01*
X64492Y278633D02*
X69508Y278633D01*
X69508Y280774D02*
X64492Y280774D01*
D13*
X100793Y400218D02*
X104557Y400218D01*
X100793Y400218D02*
X100793Y402182D01*
X104557Y402182D01*
X104557Y400218D01*
X104557Y395218D02*
X100793Y395218D01*
X100793Y397182D01*
X104557Y397182D01*
X104557Y395218D01*
X104557Y390218D02*
X100793Y390218D01*
X100793Y392182D01*
X104557Y392182D01*
X104557Y390218D01*
X104557Y385218D02*
X100793Y385218D01*
X100793Y387182D01*
X104557Y387182D01*
X104557Y385218D01*
X124043Y387182D02*
X127807Y387182D01*
X127807Y385218D01*
X124043Y385218D01*
X124043Y387182D01*
X124043Y392182D02*
X127807Y392182D01*
X127807Y390218D01*
X124043Y390218D01*
X124043Y392182D01*
X124043Y397182D02*
X127807Y397182D01*
X127807Y395218D01*
X124043Y395218D01*
X124043Y397182D01*
X124043Y402182D02*
X127807Y402182D01*
X127807Y400218D01*
X124043Y400218D01*
X124043Y402182D01*
X110282Y381818D02*
X108318Y381818D01*
X108318Y385582D01*
X110282Y385582D01*
X110282Y381818D01*
X110282Y384009D02*
X108318Y384009D01*
X113318Y381818D02*
X115282Y381818D01*
X113318Y381818D02*
X113318Y385582D01*
X115282Y385582D01*
X115282Y381818D01*
X115282Y384009D02*
X113318Y384009D01*
X118318Y381818D02*
X120282Y381818D01*
X118318Y381818D02*
X118318Y385582D01*
X120282Y385582D01*
X120282Y381818D01*
X120282Y384009D02*
X118318Y384009D01*
X118318Y405582D02*
X120282Y405582D01*
X120282Y401818D01*
X118318Y401818D01*
X118318Y405582D01*
X118318Y404009D02*
X120282Y404009D01*
X115282Y405582D02*
X113318Y405582D01*
X115282Y405582D02*
X115282Y401818D01*
X113318Y401818D01*
X113318Y405582D01*
X113318Y404009D02*
X115282Y404009D01*
X110282Y405582D02*
X108318Y405582D01*
X110282Y405582D02*
X110282Y401818D01*
X108318Y401818D01*
X108318Y405582D01*
X108318Y404009D02*
X110282Y404009D01*
D14*
X136992Y426508D02*
X142008Y426508D01*
X142008Y421492D01*
X136992Y421492D01*
X136992Y426508D01*
X136992Y423633D02*
X142008Y423633D01*
X142008Y425774D02*
X136992Y425774D01*
X132008Y426508D02*
X126992Y426508D01*
X132008Y426508D02*
X132008Y421492D01*
X126992Y421492D01*
X126992Y426508D01*
X126992Y423633D02*
X132008Y423633D01*
X132008Y425774D02*
X126992Y425774D01*
X88492Y406108D02*
X88492Y401092D01*
X88492Y406108D02*
X93508Y406108D01*
X93508Y401092D01*
X88492Y401092D01*
X88492Y403233D02*
X93508Y403233D01*
X93508Y405374D02*
X88492Y405374D01*
X88492Y396108D02*
X88492Y391092D01*
X88492Y396108D02*
X93508Y396108D01*
X93508Y391092D01*
X88492Y391092D01*
X88492Y393233D02*
X93508Y393233D01*
X93508Y395374D02*
X88492Y395374D01*
X99492Y370492D02*
X104508Y370492D01*
X99492Y370492D02*
X99492Y375508D01*
X104508Y375508D01*
X104508Y370492D01*
X104508Y372633D02*
X99492Y372633D01*
X99492Y374774D02*
X104508Y374774D01*
X109492Y370492D02*
X114508Y370492D01*
X109492Y370492D02*
X109492Y375508D01*
X114508Y375508D01*
X114508Y370492D01*
X114508Y372633D02*
X109492Y372633D01*
X109492Y374774D02*
X114508Y374774D01*
X131492Y375508D02*
X136508Y375508D01*
X136508Y370492D01*
X131492Y370492D01*
X131492Y375508D01*
X131492Y372633D02*
X136508Y372633D01*
X136508Y374774D02*
X131492Y374774D01*
X126508Y375508D02*
X121492Y375508D01*
X126508Y375508D02*
X126508Y370492D01*
X121492Y370492D01*
X121492Y375508D01*
X121492Y372633D02*
X126508Y372633D01*
X126508Y374774D02*
X121492Y374774D01*
D29*
X147842Y285587D02*
X147842Y280253D01*
X136158Y280253D01*
X136158Y285587D01*
X147842Y285587D01*
X147842Y282425D02*
X136158Y282425D01*
X136158Y284597D02*
X147842Y284597D01*
X147842Y290413D02*
X147842Y295747D01*
X147842Y290413D02*
X136158Y290413D01*
X136158Y295747D01*
X147842Y295747D01*
X147842Y292585D02*
X136158Y292585D01*
X136158Y294757D02*
X147842Y294757D01*
D10*
X142000Y275300D03*
X142000Y300700D03*
X449580Y520700D03*
X449580Y495300D03*
X449580Y469900D03*
X449580Y444500D03*
X449580Y419100D03*
X449580Y393700D03*
X449580Y368300D03*
X449580Y342900D03*
X449580Y317500D03*
X449580Y292100D03*
X449580Y266700D03*
X449580Y241300D03*
X449580Y215900D03*
X449580Y190500D03*
X449580Y165100D03*
X449580Y139700D03*
X246380Y241300D03*
X246380Y266700D03*
X246380Y292100D03*
X246380Y317500D03*
X246380Y342900D03*
X246380Y368300D03*
X246380Y393700D03*
X246380Y419100D03*
X246380Y444500D03*
X246380Y469900D03*
X246380Y495300D03*
X246380Y520700D03*
D11*
X259080Y25400D03*
X436880Y25400D03*
X436880Y558800D03*
X259080Y558800D03*
D12*
X239680Y534000D03*
X454680Y53000D03*
D13*
X356462Y54094D02*
X354498Y54094D01*
X354498Y63058D01*
X356462Y63058D01*
X356462Y54094D01*
X356462Y56285D02*
X354498Y56285D01*
X354498Y58476D02*
X356462Y58476D01*
X356462Y60667D02*
X354498Y60667D01*
X354498Y62858D02*
X356462Y62858D01*
X351462Y54094D02*
X349498Y54094D01*
X349498Y63058D01*
X351462Y63058D01*
X351462Y54094D01*
X351462Y56285D02*
X349498Y56285D01*
X349498Y58476D02*
X351462Y58476D01*
X351462Y60667D02*
X349498Y60667D01*
X349498Y62858D02*
X351462Y62858D01*
D14*
X377722Y54068D02*
X382738Y54068D01*
X377722Y54068D02*
X377722Y63084D01*
X382738Y63084D01*
X382738Y54068D01*
X382738Y56209D02*
X377722Y56209D01*
X377722Y58350D02*
X382738Y58350D01*
X382738Y60491D02*
X377722Y60491D01*
X377722Y62632D02*
X382738Y62632D01*
X374988Y54068D02*
X369972Y54068D01*
X369972Y63084D01*
X374988Y63084D01*
X374988Y54068D01*
X374988Y56209D02*
X369972Y56209D01*
X369972Y58350D02*
X374988Y58350D01*
X374988Y60491D02*
X369972Y60491D01*
X369972Y62632D02*
X374988Y62632D01*
D13*
X366462Y54094D02*
X364498Y54094D01*
X364498Y63058D01*
X366462Y63058D01*
X366462Y54094D01*
X366462Y56285D02*
X364498Y56285D01*
X364498Y58476D02*
X366462Y58476D01*
X366462Y60667D02*
X364498Y60667D01*
X364498Y62858D02*
X366462Y62858D01*
X361462Y54094D02*
X359498Y54094D01*
X359498Y63058D01*
X361462Y63058D01*
X361462Y54094D01*
X361462Y56285D02*
X359498Y56285D01*
X359498Y58476D02*
X361462Y58476D01*
X361462Y60667D02*
X359498Y60667D01*
X359498Y62858D02*
X361462Y62858D01*
X341462Y63058D02*
X339498Y63058D01*
X341462Y63058D02*
X341462Y54094D01*
X339498Y54094D01*
X339498Y63058D01*
X339498Y56285D02*
X341462Y56285D01*
X341462Y58476D02*
X339498Y58476D01*
X339498Y60667D02*
X341462Y60667D01*
X341462Y62858D02*
X339498Y62858D01*
X344498Y63058D02*
X346462Y63058D01*
X346462Y54094D01*
X344498Y54094D01*
X344498Y63058D01*
X344498Y56285D02*
X346462Y56285D01*
X346462Y58476D02*
X344498Y58476D01*
X344498Y60667D02*
X346462Y60667D01*
X346462Y62858D02*
X344498Y62858D01*
D14*
X318238Y63084D02*
X313222Y63084D01*
X318238Y63084D02*
X318238Y54068D01*
X313222Y54068D01*
X313222Y63084D01*
X313222Y56209D02*
X318238Y56209D01*
X318238Y58350D02*
X313222Y58350D01*
X313222Y60491D02*
X318238Y60491D01*
X318238Y62632D02*
X313222Y62632D01*
X320972Y63084D02*
X325988Y63084D01*
X325988Y54068D01*
X320972Y54068D01*
X320972Y63084D01*
X320972Y56209D02*
X325988Y56209D01*
X325988Y58350D02*
X320972Y58350D01*
X320972Y60491D02*
X325988Y60491D01*
X325988Y62632D02*
X320972Y62632D01*
D13*
X329498Y63058D02*
X331462Y63058D01*
X331462Y54094D01*
X329498Y54094D01*
X329498Y63058D01*
X329498Y56285D02*
X331462Y56285D01*
X331462Y58476D02*
X329498Y58476D01*
X329498Y60667D02*
X331462Y60667D01*
X331462Y62858D02*
X329498Y62858D01*
X334498Y63058D02*
X336462Y63058D01*
X336462Y54094D01*
X334498Y54094D01*
X334498Y63058D01*
X334498Y56285D02*
X336462Y56285D01*
X336462Y58476D02*
X334498Y58476D01*
X334498Y60667D02*
X336462Y60667D01*
X336462Y62858D02*
X334498Y62858D01*
D15*
X319080Y47526D03*
X376880Y47526D03*
D16*
X414699Y88232D02*
X414699Y92768D01*
X414699Y88232D02*
X402163Y88232D01*
X402163Y92768D01*
X414699Y92768D01*
X414699Y90354D02*
X402163Y90354D01*
X402163Y92476D02*
X414699Y92476D01*
X414699Y97732D02*
X414699Y102268D01*
X414699Y97732D02*
X402163Y97732D01*
X402163Y102268D01*
X414699Y102268D01*
X414699Y99854D02*
X402163Y99854D01*
X402163Y101976D02*
X414699Y101976D01*
X414699Y107232D02*
X414699Y111768D01*
X414699Y107232D02*
X402163Y107232D01*
X402163Y111768D01*
X414699Y111768D01*
X414699Y109354D02*
X402163Y109354D01*
X402163Y111476D02*
X414699Y111476D01*
X387197Y111768D02*
X387197Y107232D01*
X374661Y107232D01*
X374661Y111768D01*
X387197Y111768D01*
X387197Y109354D02*
X374661Y109354D01*
X374661Y111476D02*
X387197Y111476D01*
X387197Y102268D02*
X387197Y97732D01*
X374661Y97732D01*
X374661Y102268D01*
X387197Y102268D01*
X387197Y99854D02*
X374661Y99854D01*
X374661Y101976D02*
X387197Y101976D01*
X387197Y92768D02*
X387197Y88232D01*
X374661Y88232D01*
X374661Y92768D01*
X387197Y92768D01*
X387197Y90354D02*
X374661Y90354D01*
X374661Y92476D02*
X387197Y92476D01*
D14*
X405172Y60508D02*
X405172Y55492D01*
X405172Y60508D02*
X410188Y60508D01*
X410188Y55492D01*
X405172Y55492D01*
X405172Y57633D02*
X410188Y57633D01*
X410188Y59774D02*
X405172Y59774D01*
X405172Y50508D02*
X405172Y45492D01*
X405172Y50508D02*
X410188Y50508D01*
X410188Y45492D01*
X405172Y45492D01*
X405172Y47633D02*
X410188Y47633D01*
X410188Y49774D02*
X405172Y49774D01*
X327988Y72692D02*
X322972Y72692D01*
X322972Y77708D01*
X327988Y77708D01*
X327988Y72692D01*
X327988Y74833D02*
X322972Y74833D01*
X322972Y76974D02*
X327988Y76974D01*
X332972Y72692D02*
X337988Y72692D01*
X332972Y72692D02*
X332972Y77708D01*
X337988Y77708D01*
X337988Y72692D01*
X337988Y74833D02*
X332972Y74833D01*
X332972Y76974D02*
X337988Y76974D01*
D17*
X382003Y522423D02*
X382003Y528377D01*
X392457Y528377D01*
X392457Y522423D01*
X382003Y522423D01*
X382003Y524623D02*
X392457Y524623D01*
X392457Y526823D02*
X382003Y526823D01*
X382003Y532423D02*
X382003Y538377D01*
X392457Y538377D01*
X392457Y532423D01*
X382003Y532423D01*
X382003Y534623D02*
X392457Y534623D01*
X392457Y536823D02*
X382003Y536823D01*
X382003Y542423D02*
X382003Y548377D01*
X392457Y548377D01*
X392457Y542423D01*
X382003Y542423D01*
X382003Y544623D02*
X392457Y544623D01*
X392457Y546823D02*
X382003Y546823D01*
X382003Y552423D02*
X382003Y558377D01*
X392457Y558377D01*
X392457Y552423D01*
X382003Y552423D01*
X382003Y554623D02*
X392457Y554623D01*
X392457Y556823D02*
X382003Y556823D01*
X382003Y562423D02*
X382003Y568377D01*
X392457Y568377D01*
X392457Y562423D01*
X382003Y562423D01*
X382003Y564623D02*
X392457Y564623D01*
X392457Y566823D02*
X382003Y566823D01*
X382003Y572423D02*
X382003Y578377D01*
X392457Y578377D01*
X392457Y572423D01*
X382003Y572423D01*
X382003Y574623D02*
X392457Y574623D01*
X392457Y576823D02*
X382003Y576823D01*
X382003Y582423D02*
X382003Y588377D01*
X392457Y588377D01*
X392457Y582423D01*
X382003Y582423D01*
X382003Y584623D02*
X392457Y584623D01*
X392457Y586823D02*
X382003Y586823D01*
X382003Y592423D02*
X382003Y598377D01*
X392457Y598377D01*
X392457Y592423D01*
X382003Y592423D01*
X382003Y594623D02*
X392457Y594623D01*
X392457Y596823D02*
X382003Y596823D01*
X382003Y602423D02*
X382003Y608377D01*
X392457Y608377D01*
X392457Y602423D01*
X382003Y602423D01*
X382003Y604623D02*
X392457Y604623D01*
X392457Y606823D02*
X382003Y606823D01*
X382003Y612423D02*
X382003Y618377D01*
X392457Y618377D01*
X392457Y612423D01*
X382003Y612423D01*
X382003Y614623D02*
X392457Y614623D01*
X392457Y616823D02*
X382003Y616823D01*
X368957Y619877D02*
X363003Y619877D01*
X368957Y619877D02*
X368957Y609423D01*
X363003Y609423D01*
X363003Y619877D01*
X363003Y611623D02*
X368957Y611623D01*
X368957Y613823D02*
X363003Y613823D01*
X363003Y616023D02*
X368957Y616023D01*
X368957Y618223D02*
X363003Y618223D01*
X358957Y619877D02*
X353003Y619877D01*
X358957Y619877D02*
X358957Y609423D01*
X353003Y609423D01*
X353003Y619877D01*
X353003Y611623D02*
X358957Y611623D01*
X358957Y613823D02*
X353003Y613823D01*
X353003Y616023D02*
X358957Y616023D01*
X358957Y618223D02*
X353003Y618223D01*
X348957Y619877D02*
X343003Y619877D01*
X348957Y619877D02*
X348957Y609423D01*
X343003Y609423D01*
X343003Y619877D01*
X343003Y611623D02*
X348957Y611623D01*
X348957Y613823D02*
X343003Y613823D01*
X343003Y616023D02*
X348957Y616023D01*
X348957Y618223D02*
X343003Y618223D01*
X338957Y619877D02*
X333003Y619877D01*
X338957Y619877D02*
X338957Y609423D01*
X333003Y609423D01*
X333003Y619877D01*
X333003Y611623D02*
X338957Y611623D01*
X338957Y613823D02*
X333003Y613823D01*
X333003Y616023D02*
X338957Y616023D01*
X338957Y618223D02*
X333003Y618223D01*
X328957Y619877D02*
X323003Y619877D01*
X328957Y619877D02*
X328957Y609423D01*
X323003Y609423D01*
X323003Y619877D01*
X323003Y611623D02*
X328957Y611623D01*
X328957Y613823D02*
X323003Y613823D01*
X323003Y616023D02*
X328957Y616023D01*
X328957Y618223D02*
X323003Y618223D01*
X299503Y618377D02*
X299503Y612423D01*
X299503Y618377D02*
X309957Y618377D01*
X309957Y612423D01*
X299503Y612423D01*
X299503Y614623D02*
X309957Y614623D01*
X309957Y616823D02*
X299503Y616823D01*
X299503Y608377D02*
X299503Y602423D01*
X299503Y608377D02*
X309957Y608377D01*
X309957Y602423D01*
X299503Y602423D01*
X299503Y604623D02*
X309957Y604623D01*
X309957Y606823D02*
X299503Y606823D01*
X299503Y598377D02*
X299503Y592423D01*
X299503Y598377D02*
X309957Y598377D01*
X309957Y592423D01*
X299503Y592423D01*
X299503Y594623D02*
X309957Y594623D01*
X309957Y596823D02*
X299503Y596823D01*
X299503Y588377D02*
X299503Y582423D01*
X299503Y588377D02*
X309957Y588377D01*
X309957Y582423D01*
X299503Y582423D01*
X299503Y584623D02*
X309957Y584623D01*
X309957Y586823D02*
X299503Y586823D01*
X299503Y578377D02*
X299503Y572423D01*
X299503Y578377D02*
X309957Y578377D01*
X309957Y572423D01*
X299503Y572423D01*
X299503Y574623D02*
X309957Y574623D01*
X309957Y576823D02*
X299503Y576823D01*
X299503Y568377D02*
X299503Y562423D01*
X299503Y568377D02*
X309957Y568377D01*
X309957Y562423D01*
X299503Y562423D01*
X299503Y564623D02*
X309957Y564623D01*
X309957Y566823D02*
X299503Y566823D01*
X299503Y558377D02*
X299503Y552423D01*
X299503Y558377D02*
X309957Y558377D01*
X309957Y552423D01*
X299503Y552423D01*
X299503Y554623D02*
X309957Y554623D01*
X309957Y556823D02*
X299503Y556823D01*
X299503Y548377D02*
X299503Y542423D01*
X299503Y548377D02*
X309957Y548377D01*
X309957Y542423D01*
X299503Y542423D01*
X299503Y544623D02*
X309957Y544623D01*
X309957Y546823D02*
X299503Y546823D01*
X299503Y538377D02*
X299503Y532423D01*
X299503Y538377D02*
X309957Y538377D01*
X309957Y532423D01*
X299503Y532423D01*
X299503Y534623D02*
X309957Y534623D01*
X309957Y536823D02*
X299503Y536823D01*
X299503Y528377D02*
X299503Y522423D01*
X299503Y528377D02*
X309957Y528377D01*
X309957Y522423D01*
X299503Y522423D01*
X299503Y524623D02*
X309957Y524623D01*
X309957Y526823D02*
X299503Y526823D01*
X323003Y531377D02*
X328957Y531377D01*
X328957Y520923D01*
X323003Y520923D01*
X323003Y531377D01*
X323003Y523123D02*
X328957Y523123D01*
X328957Y525323D02*
X323003Y525323D01*
X323003Y527523D02*
X328957Y527523D01*
X328957Y529723D02*
X323003Y529723D01*
X333003Y531377D02*
X338957Y531377D01*
X338957Y520923D01*
X333003Y520923D01*
X333003Y531377D01*
X333003Y523123D02*
X338957Y523123D01*
X338957Y525323D02*
X333003Y525323D01*
X333003Y527523D02*
X338957Y527523D01*
X338957Y529723D02*
X333003Y529723D01*
X343003Y531377D02*
X348957Y531377D01*
X348957Y520923D01*
X343003Y520923D01*
X343003Y531377D01*
X343003Y523123D02*
X348957Y523123D01*
X348957Y525323D02*
X343003Y525323D01*
X343003Y527523D02*
X348957Y527523D01*
X348957Y529723D02*
X343003Y529723D01*
X353003Y531377D02*
X358957Y531377D01*
X358957Y520923D01*
X353003Y520923D01*
X353003Y531377D01*
X353003Y523123D02*
X358957Y523123D01*
X358957Y525323D02*
X353003Y525323D01*
X353003Y527523D02*
X358957Y527523D01*
X358957Y529723D02*
X353003Y529723D01*
X363003Y531377D02*
X368957Y531377D01*
X368957Y520923D01*
X363003Y520923D01*
X363003Y531377D01*
X363003Y523123D02*
X368957Y523123D01*
X368957Y525323D02*
X363003Y525323D01*
X363003Y527523D02*
X368957Y527523D01*
X368957Y529723D02*
X363003Y529723D01*
X370503Y542877D02*
X376457Y542877D01*
X376457Y536923D01*
X370503Y536923D01*
X370503Y542877D01*
X370503Y539123D02*
X376457Y539123D01*
X376457Y541323D02*
X370503Y541323D01*
X370503Y553877D02*
X376457Y553877D01*
X376457Y547923D01*
X370503Y547923D01*
X370503Y553877D01*
X370503Y550123D02*
X376457Y550123D01*
X376457Y552323D02*
X370503Y552323D01*
X370503Y564877D02*
X376457Y564877D01*
X376457Y558923D01*
X370503Y558923D01*
X370503Y564877D01*
X370503Y561123D02*
X376457Y561123D01*
X376457Y563323D02*
X370503Y563323D01*
X370503Y575877D02*
X376457Y575877D01*
X376457Y569923D01*
X370503Y569923D01*
X370503Y575877D01*
X370503Y572123D02*
X376457Y572123D01*
X376457Y574323D02*
X370503Y574323D01*
X370503Y586877D02*
X376457Y586877D01*
X376457Y580923D01*
X370503Y580923D01*
X370503Y586877D01*
X370503Y583123D02*
X376457Y583123D01*
X376457Y585323D02*
X370503Y585323D01*
X370503Y597877D02*
X376457Y597877D01*
X376457Y591923D01*
X370503Y591923D01*
X370503Y597877D01*
X370503Y594123D02*
X376457Y594123D01*
X376457Y596323D02*
X370503Y596323D01*
X321457Y597877D02*
X315503Y597877D01*
X321457Y597877D02*
X321457Y591923D01*
X315503Y591923D01*
X315503Y597877D01*
X315503Y594123D02*
X321457Y594123D01*
X321457Y596323D02*
X315503Y596323D01*
X315503Y586877D02*
X321457Y586877D01*
X321457Y580923D01*
X315503Y580923D01*
X315503Y586877D01*
X315503Y583123D02*
X321457Y583123D01*
X321457Y585323D02*
X315503Y585323D01*
X315503Y575877D02*
X321457Y575877D01*
X321457Y569923D01*
X315503Y569923D01*
X315503Y575877D01*
X315503Y572123D02*
X321457Y572123D01*
X321457Y574323D02*
X315503Y574323D01*
X315503Y564877D02*
X321457Y564877D01*
X321457Y558923D01*
X315503Y558923D01*
X315503Y564877D01*
X315503Y561123D02*
X321457Y561123D01*
X321457Y563323D02*
X315503Y563323D01*
X315503Y553877D02*
X321457Y553877D01*
X321457Y547923D01*
X315503Y547923D01*
X315503Y553877D01*
X315503Y550123D02*
X321457Y550123D01*
X321457Y552323D02*
X315503Y552323D01*
X315503Y542877D02*
X321457Y542877D01*
X321457Y536923D01*
X315503Y536923D01*
X315503Y542877D01*
X315503Y539123D02*
X321457Y539123D01*
X321457Y541323D02*
X315503Y541323D01*
X326503Y542877D02*
X332457Y542877D01*
X332457Y536923D01*
X326503Y536923D01*
X326503Y542877D01*
X326503Y539123D02*
X332457Y539123D01*
X332457Y541323D02*
X326503Y541323D01*
X337503Y542877D02*
X343457Y542877D01*
X343457Y536923D01*
X337503Y536923D01*
X337503Y542877D01*
X337503Y539123D02*
X343457Y539123D01*
X343457Y541323D02*
X337503Y541323D01*
X348503Y542877D02*
X354457Y542877D01*
X354457Y536923D01*
X348503Y536923D01*
X348503Y542877D01*
X348503Y539123D02*
X354457Y539123D01*
X354457Y541323D02*
X348503Y541323D01*
X359503Y542877D02*
X365457Y542877D01*
X365457Y536923D01*
X359503Y536923D01*
X359503Y542877D01*
X359503Y539123D02*
X365457Y539123D01*
X365457Y541323D02*
X359503Y541323D01*
X308957Y516877D02*
X303003Y516877D01*
X308957Y516877D02*
X308957Y510923D01*
X303003Y510923D01*
X303003Y516877D01*
X303003Y513123D02*
X308957Y513123D01*
X308957Y515323D02*
X303003Y515323D01*
X313003Y516877D02*
X318957Y516877D01*
X318957Y510923D01*
X313003Y510923D01*
X313003Y516877D01*
X313003Y513123D02*
X318957Y513123D01*
X318957Y515323D02*
X313003Y515323D01*
X323003Y516877D02*
X328957Y516877D01*
X328957Y510923D01*
X323003Y510923D01*
X323003Y516877D01*
X323003Y513123D02*
X328957Y513123D01*
X328957Y515323D02*
X323003Y515323D01*
X333003Y516877D02*
X338957Y516877D01*
X338957Y510923D01*
X333003Y510923D01*
X333003Y516877D01*
X333003Y513123D02*
X338957Y513123D01*
X338957Y515323D02*
X333003Y515323D01*
X343003Y516877D02*
X348957Y516877D01*
X348957Y510923D01*
X343003Y510923D01*
X343003Y516877D01*
X343003Y513123D02*
X348957Y513123D01*
X348957Y515323D02*
X343003Y515323D01*
X353003Y516877D02*
X358957Y516877D01*
X358957Y510923D01*
X353003Y510923D01*
X353003Y516877D01*
X353003Y513123D02*
X358957Y513123D01*
X358957Y515323D02*
X353003Y515323D01*
X363003Y516877D02*
X368957Y516877D01*
X368957Y510923D01*
X363003Y510923D01*
X363003Y516877D01*
X363003Y513123D02*
X368957Y513123D01*
X368957Y515323D02*
X363003Y515323D01*
X373003Y516877D02*
X378957Y516877D01*
X378957Y510923D01*
X373003Y510923D01*
X373003Y516877D01*
X373003Y513123D02*
X378957Y513123D01*
X378957Y515323D02*
X373003Y515323D01*
X383003Y516877D02*
X388957Y516877D01*
X388957Y510923D01*
X383003Y510923D01*
X383003Y516877D01*
X383003Y513123D02*
X388957Y513123D01*
X388957Y515323D02*
X383003Y515323D01*
X366207Y590627D02*
X360253Y590627D01*
X366207Y590627D02*
X366207Y584673D01*
X360253Y584673D01*
X360253Y590627D01*
X360253Y586873D02*
X366207Y586873D01*
X366207Y589073D02*
X360253Y589073D01*
X354707Y590627D02*
X348753Y590627D01*
X354707Y590627D02*
X354707Y584673D01*
X348753Y584673D01*
X348753Y590627D01*
X348753Y586873D02*
X354707Y586873D01*
X354707Y589073D02*
X348753Y589073D01*
X343207Y590627D02*
X337253Y590627D01*
X343207Y590627D02*
X343207Y584673D01*
X337253Y584673D01*
X337253Y590627D01*
X337253Y586873D02*
X343207Y586873D01*
X343207Y589073D02*
X337253Y589073D01*
X331707Y590627D02*
X325753Y590627D01*
X331707Y590627D02*
X331707Y584673D01*
X325753Y584673D01*
X325753Y590627D01*
X325753Y586873D02*
X331707Y586873D01*
X331707Y589073D02*
X325753Y589073D01*
X348753Y579127D02*
X354707Y579127D01*
X354707Y573173D01*
X348753Y573173D01*
X348753Y579127D01*
X348753Y575373D02*
X354707Y575373D01*
X354707Y577573D02*
X348753Y577573D01*
X343207Y579127D02*
X337253Y579127D01*
X343207Y579127D02*
X343207Y573173D01*
X337253Y573173D01*
X337253Y579127D01*
X337253Y575373D02*
X343207Y575373D01*
X343207Y577573D02*
X337253Y577573D01*
X360253Y567627D02*
X366207Y567627D01*
X366207Y561673D01*
X360253Y561673D01*
X360253Y567627D01*
X360253Y563873D02*
X366207Y563873D01*
X366207Y566073D02*
X360253Y566073D01*
X354707Y567627D02*
X348753Y567627D01*
X354707Y567627D02*
X354707Y561673D01*
X348753Y561673D01*
X348753Y567627D01*
X348753Y563873D02*
X354707Y563873D01*
X354707Y566073D02*
X348753Y566073D01*
X343207Y567627D02*
X337253Y567627D01*
X343207Y567627D02*
X343207Y561673D01*
X337253Y561673D01*
X337253Y567627D01*
X337253Y563873D02*
X343207Y563873D01*
X343207Y566073D02*
X337253Y566073D01*
X331707Y567627D02*
X325753Y567627D01*
X331707Y567627D02*
X331707Y561673D01*
X325753Y561673D01*
X325753Y567627D01*
X325753Y563873D02*
X331707Y563873D01*
X331707Y566073D02*
X325753Y566073D01*
X348753Y556127D02*
X354707Y556127D01*
X354707Y550173D01*
X348753Y550173D01*
X348753Y556127D01*
X348753Y552373D02*
X354707Y552373D01*
X354707Y554573D02*
X348753Y554573D01*
X343207Y556127D02*
X337253Y556127D01*
X343207Y556127D02*
X343207Y550173D01*
X337253Y550173D01*
X337253Y556127D01*
X337253Y552373D02*
X343207Y552373D01*
X343207Y554573D02*
X337253Y554573D01*
X386503Y628377D02*
X392457Y628377D01*
X392457Y622423D01*
X386503Y622423D01*
X386503Y628377D01*
X386503Y624623D02*
X392457Y624623D01*
X392457Y626823D02*
X386503Y626823D01*
X386503Y653877D02*
X392457Y653877D01*
X392457Y647923D01*
X386503Y647923D01*
X386503Y653877D01*
X386503Y650123D02*
X392457Y650123D01*
X392457Y652323D02*
X386503Y652323D01*
X305457Y653877D02*
X299503Y653877D01*
X305457Y653877D02*
X305457Y647923D01*
X299503Y647923D01*
X299503Y653877D01*
X299503Y650123D02*
X305457Y650123D01*
X305457Y652323D02*
X299503Y652323D01*
X299503Y628377D02*
X305457Y628377D01*
X305457Y622423D01*
X299503Y622423D01*
X299503Y628377D01*
X299503Y624623D02*
X305457Y624623D01*
X305457Y626823D02*
X299503Y626823D01*
D18*
X328748Y172308D02*
X328748Y163292D01*
X283732Y163292D01*
X283732Y172308D01*
X328748Y172308D01*
X328748Y165433D02*
X283732Y165433D01*
X283732Y167574D02*
X328748Y167574D01*
X328748Y169715D02*
X283732Y169715D01*
X283732Y171856D02*
X328748Y171856D01*
X328748Y183292D02*
X328748Y192308D01*
X328748Y183292D02*
X283732Y183292D01*
X283732Y192308D01*
X328748Y192308D01*
X328748Y185433D02*
X283732Y185433D01*
X283732Y187574D02*
X328748Y187574D01*
X328748Y189715D02*
X283732Y189715D01*
X283732Y191856D02*
X328748Y191856D01*
D19*
X270753Y151313D02*
X237727Y151313D01*
X270753Y151313D02*
X270753Y136287D01*
X237727Y136287D01*
X237727Y151313D01*
X237727Y138420D02*
X270753Y138420D01*
X270753Y140553D02*
X237727Y140553D01*
X237727Y142686D02*
X270753Y142686D01*
X270753Y144819D02*
X237727Y144819D01*
X237727Y146952D02*
X270753Y146952D01*
X270753Y149085D02*
X237727Y149085D01*
X237727Y151218D02*
X270753Y151218D01*
X270753Y219313D02*
X237727Y219313D01*
X270753Y219313D02*
X270753Y204287D01*
X237727Y204287D01*
X237727Y219313D01*
X237727Y206420D02*
X270753Y206420D01*
X270753Y208553D02*
X237727Y208553D01*
X237727Y210686D02*
X270753Y210686D01*
X270753Y212819D02*
X237727Y212819D01*
X237727Y214952D02*
X270753Y214952D01*
X270753Y217085D02*
X237727Y217085D01*
X237727Y219218D02*
X270753Y219218D01*
D16*
X356461Y193268D02*
X356461Y188732D01*
X356461Y193268D02*
X367497Y193268D01*
X367497Y188732D01*
X356461Y188732D01*
X356461Y190854D02*
X367497Y190854D01*
X367497Y192976D02*
X356461Y192976D01*
X356461Y183768D02*
X356461Y179232D01*
X356461Y183768D02*
X367497Y183768D01*
X367497Y179232D01*
X356461Y179232D01*
X356461Y181354D02*
X367497Y181354D01*
X367497Y183476D02*
X356461Y183476D01*
X356461Y174268D02*
X356461Y169732D01*
X356461Y174268D02*
X367497Y174268D01*
X367497Y169732D01*
X356461Y169732D01*
X356461Y171854D02*
X367497Y171854D01*
X367497Y173976D02*
X356461Y173976D01*
X382463Y174268D02*
X382463Y169732D01*
X382463Y174268D02*
X393499Y174268D01*
X393499Y169732D01*
X382463Y169732D01*
X382463Y171854D02*
X393499Y171854D01*
X393499Y173976D02*
X382463Y173976D01*
X382463Y188732D02*
X382463Y193268D01*
X393499Y193268D01*
X393499Y188732D01*
X382463Y188732D01*
X382463Y190854D02*
X393499Y190854D01*
X393499Y192976D02*
X382463Y192976D01*
D20*
X350956Y203506D02*
X350956Y210494D01*
X357944Y210494D01*
X357944Y203506D01*
X350956Y203506D01*
X350956Y207575D02*
X357944Y207575D01*
X333416Y210494D02*
X333416Y203506D01*
X333416Y210494D02*
X340404Y210494D01*
X340404Y203506D01*
X333416Y203506D01*
X333416Y207575D02*
X340404Y207575D01*
D14*
X338172Y217492D02*
X343188Y217492D01*
X338172Y217492D02*
X338172Y222508D01*
X343188Y222508D01*
X343188Y217492D01*
X343188Y219633D02*
X338172Y219633D01*
X338172Y221774D02*
X343188Y221774D01*
X348172Y217492D02*
X353188Y217492D01*
X348172Y217492D02*
X348172Y222508D01*
X353188Y222508D01*
X353188Y217492D01*
X353188Y219633D02*
X348172Y219633D01*
X348172Y221774D02*
X353188Y221774D01*
X400172Y174508D02*
X400172Y169492D01*
X400172Y174508D02*
X405188Y174508D01*
X405188Y169492D01*
X400172Y169492D01*
X400172Y171633D02*
X405188Y171633D01*
X405188Y173774D02*
X400172Y173774D01*
X400172Y164508D02*
X400172Y159492D01*
X400172Y164508D02*
X405188Y164508D01*
X405188Y159492D01*
X400172Y159492D01*
X400172Y161633D02*
X405188Y161633D01*
X405188Y163774D02*
X400172Y163774D01*
X408172Y198492D02*
X408172Y203508D01*
X413188Y203508D01*
X413188Y198492D01*
X408172Y198492D01*
X408172Y200633D02*
X413188Y200633D01*
X413188Y202774D02*
X408172Y202774D01*
X408172Y193508D02*
X408172Y188492D01*
X408172Y193508D02*
X413188Y193508D01*
X413188Y188492D01*
X408172Y188492D01*
X408172Y190633D02*
X413188Y190633D01*
X413188Y192774D02*
X408172Y192774D01*
X341172Y174508D02*
X341172Y169492D01*
X341172Y174508D02*
X346188Y174508D01*
X346188Y169492D01*
X341172Y169492D01*
X341172Y171633D02*
X346188Y171633D01*
X346188Y173774D02*
X341172Y173774D01*
X341172Y164508D02*
X341172Y159492D01*
X341172Y164508D02*
X346188Y164508D01*
X346188Y159492D01*
X341172Y159492D01*
X341172Y161633D02*
X346188Y161633D01*
X346188Y163774D02*
X341172Y163774D01*
D21*
X359656Y231024D02*
X359656Y237976D01*
X359656Y231024D02*
X351704Y231024D01*
X351704Y237976D01*
X359656Y237976D01*
X359656Y233226D02*
X351704Y233226D01*
X351704Y235428D02*
X359656Y235428D01*
X359656Y237630D02*
X351704Y237630D01*
X359656Y250024D02*
X359656Y256976D01*
X359656Y250024D02*
X351704Y250024D01*
X351704Y256976D01*
X359656Y256976D01*
X359656Y252226D02*
X351704Y252226D01*
X351704Y254428D02*
X359656Y254428D01*
X359656Y256630D02*
X351704Y256630D01*
X338656Y247476D02*
X338656Y240524D01*
X330704Y240524D01*
X330704Y247476D01*
X338656Y247476D01*
X338656Y242726D02*
X330704Y242726D01*
X330704Y244928D02*
X338656Y244928D01*
X338656Y247130D02*
X330704Y247130D01*
D22*
X371830Y252850D02*
X371830Y258150D01*
X379130Y258150D01*
X379130Y252850D01*
X371830Y252850D01*
X371830Y255007D02*
X379130Y255007D01*
X379130Y257164D02*
X371830Y257164D01*
X371830Y235150D02*
X371830Y229850D01*
X371830Y235150D02*
X379130Y235150D01*
X379130Y229850D01*
X371830Y229850D01*
X371830Y232007D02*
X379130Y232007D01*
X379130Y234164D02*
X371830Y234164D01*
D14*
X394172Y203508D02*
X399188Y203508D01*
X399188Y198492D01*
X394172Y198492D01*
X394172Y203508D01*
X394172Y200633D02*
X399188Y200633D01*
X399188Y202774D02*
X394172Y202774D01*
X389188Y203508D02*
X384172Y203508D01*
X389188Y203508D02*
X389188Y198492D01*
X384172Y198492D01*
X384172Y203508D01*
X384172Y200633D02*
X389188Y200633D01*
X389188Y202774D02*
X384172Y202774D01*
X404172Y272492D02*
X404172Y277508D01*
X409188Y277508D01*
X409188Y272492D01*
X404172Y272492D01*
X404172Y274633D02*
X409188Y274633D01*
X409188Y276774D02*
X404172Y276774D01*
X404172Y267508D02*
X404172Y262492D01*
X404172Y267508D02*
X409188Y267508D01*
X409188Y262492D01*
X404172Y262492D01*
X404172Y264633D02*
X409188Y264633D01*
X409188Y266774D02*
X404172Y266774D01*
D16*
X383748Y339081D02*
X379212Y339081D01*
X379212Y350117D01*
X383748Y350117D01*
X383748Y339081D01*
X383748Y341203D02*
X379212Y341203D01*
X379212Y343325D02*
X383748Y343325D01*
X383748Y345447D02*
X379212Y345447D01*
X379212Y347569D02*
X383748Y347569D01*
X383748Y349691D02*
X379212Y349691D01*
X388712Y339081D02*
X393248Y339081D01*
X388712Y339081D02*
X388712Y350117D01*
X393248Y350117D01*
X393248Y339081D01*
X393248Y341203D02*
X388712Y341203D01*
X388712Y343325D02*
X393248Y343325D01*
X393248Y345447D02*
X388712Y345447D01*
X388712Y347569D02*
X393248Y347569D01*
X393248Y349691D02*
X388712Y349691D01*
X398212Y339081D02*
X402748Y339081D01*
X398212Y339081D02*
X398212Y350117D01*
X402748Y350117D01*
X402748Y339081D01*
X402748Y341203D02*
X398212Y341203D01*
X398212Y343325D02*
X402748Y343325D01*
X402748Y345447D02*
X398212Y345447D01*
X398212Y347569D02*
X402748Y347569D01*
X402748Y349691D02*
X398212Y349691D01*
X398212Y365083D02*
X402748Y365083D01*
X398212Y365083D02*
X398212Y376119D01*
X402748Y376119D01*
X402748Y365083D01*
X402748Y367205D02*
X398212Y367205D01*
X398212Y369327D02*
X402748Y369327D01*
X402748Y371449D02*
X398212Y371449D01*
X398212Y373571D02*
X402748Y373571D01*
X402748Y375693D02*
X398212Y375693D01*
X383748Y365083D02*
X379212Y365083D01*
X379212Y376119D01*
X383748Y376119D01*
X383748Y365083D01*
X383748Y367205D02*
X379212Y367205D01*
X379212Y369327D02*
X383748Y369327D01*
X383748Y371449D02*
X379212Y371449D01*
X379212Y373571D02*
X383748Y373571D01*
X383748Y375693D02*
X379212Y375693D01*
D14*
X397688Y277508D02*
X397688Y272492D01*
X392672Y272492D01*
X392672Y277508D01*
X397688Y277508D01*
X397688Y274633D02*
X392672Y274633D01*
X392672Y276774D02*
X397688Y276774D01*
X397688Y282492D02*
X397688Y287508D01*
X397688Y282492D02*
X392672Y282492D01*
X392672Y287508D01*
X397688Y287508D01*
X397688Y284633D02*
X392672Y284633D01*
X392672Y286774D02*
X397688Y286774D01*
X384188Y382492D02*
X379172Y382492D01*
X379172Y387508D01*
X384188Y387508D01*
X384188Y382492D01*
X384188Y384633D02*
X379172Y384633D01*
X379172Y386774D02*
X384188Y386774D01*
X389172Y382492D02*
X394188Y382492D01*
X389172Y382492D02*
X389172Y387508D01*
X394188Y387508D01*
X394188Y382492D01*
X394188Y384633D02*
X389172Y384633D01*
X389172Y386774D02*
X394188Y386774D01*
X391188Y437508D02*
X386172Y437508D01*
X391188Y437508D02*
X391188Y432492D01*
X386172Y432492D01*
X386172Y437508D01*
X386172Y434633D02*
X391188Y434633D01*
X391188Y436774D02*
X386172Y436774D01*
X381188Y437508D02*
X376172Y437508D01*
X381188Y437508D02*
X381188Y432492D01*
X376172Y432492D01*
X376172Y437508D01*
X376172Y434633D02*
X381188Y434633D01*
X381188Y436774D02*
X376172Y436774D01*
D20*
X385186Y466276D02*
X392174Y466276D01*
X385186Y466276D02*
X385186Y473264D01*
X392174Y473264D01*
X392174Y466276D01*
X392174Y470345D02*
X385186Y470345D01*
X385186Y448736D02*
X392174Y448736D01*
X385186Y448736D02*
X385186Y455724D01*
X392174Y455724D01*
X392174Y448736D01*
X392174Y452805D02*
X385186Y452805D01*
D23*
X292680Y262000D03*
X297680Y262000D03*
X302680Y262000D03*
X307680Y262000D03*
X307680Y242000D03*
X302680Y242000D03*
X297680Y242000D03*
X292680Y242000D03*
D24*
X300180Y252100D03*
D14*
X321188Y238508D02*
X321188Y233492D01*
X316172Y233492D01*
X316172Y238508D01*
X321188Y238508D01*
X321188Y235633D02*
X316172Y235633D01*
X316172Y237774D02*
X321188Y237774D01*
X321188Y243492D02*
X321188Y248508D01*
X321188Y243492D02*
X316172Y243492D01*
X316172Y248508D01*
X321188Y248508D01*
X321188Y245633D02*
X316172Y245633D01*
X316172Y247774D02*
X321188Y247774D01*
X333172Y93508D02*
X338188Y93508D01*
X338188Y88492D01*
X333172Y88492D01*
X333172Y93508D01*
X333172Y90633D02*
X338188Y90633D01*
X338188Y92774D02*
X333172Y92774D01*
X328188Y93508D02*
X323172Y93508D01*
X328188Y93508D02*
X328188Y88492D01*
X323172Y88492D01*
X323172Y93508D01*
X323172Y90633D02*
X328188Y90633D01*
X328188Y92774D02*
X323172Y92774D01*
D17*
X350853Y466823D02*
X356807Y466823D01*
X350853Y466823D02*
X350853Y472777D01*
X356807Y472777D01*
X356807Y466823D01*
X356807Y469023D02*
X350853Y469023D01*
X350853Y471223D02*
X356807Y471223D01*
X356807Y455823D02*
X350853Y455823D01*
X350853Y461777D01*
X356807Y461777D01*
X356807Y455823D01*
X356807Y458023D02*
X350853Y458023D01*
X350853Y460223D02*
X356807Y460223D01*
X338507Y455823D02*
X332553Y455823D01*
X332553Y461777D01*
X338507Y461777D01*
X338507Y455823D01*
X338507Y458023D02*
X332553Y458023D01*
X332553Y460223D02*
X338507Y460223D01*
X338507Y466823D02*
X332553Y466823D01*
X332553Y472777D01*
X338507Y472777D01*
X338507Y466823D01*
X338507Y469023D02*
X332553Y469023D01*
X332553Y471223D02*
X338507Y471223D01*
D14*
X337172Y441492D02*
X342188Y441492D01*
X337172Y441492D02*
X337172Y446508D01*
X342188Y446508D01*
X342188Y441492D01*
X342188Y443633D02*
X337172Y443633D01*
X337172Y445774D02*
X342188Y445774D01*
X347172Y441492D02*
X352188Y441492D01*
X347172Y441492D02*
X347172Y446508D01*
X352188Y446508D01*
X352188Y441492D01*
X352188Y443633D02*
X347172Y443633D01*
X347172Y445774D02*
X352188Y445774D01*
X266488Y481892D02*
X261472Y481892D01*
X261472Y486908D01*
X266488Y486908D01*
X266488Y481892D01*
X266488Y484033D02*
X261472Y484033D01*
X261472Y486174D02*
X266488Y486174D01*
X271472Y481892D02*
X276488Y481892D01*
X271472Y481892D02*
X271472Y486908D01*
X276488Y486908D01*
X276488Y481892D01*
X276488Y484033D02*
X271472Y484033D01*
X271472Y486174D02*
X276488Y486174D01*
X267488Y505492D02*
X262472Y505492D01*
X262472Y510508D01*
X267488Y510508D01*
X267488Y505492D01*
X267488Y507633D02*
X262472Y507633D01*
X262472Y509774D02*
X267488Y509774D01*
X272472Y505492D02*
X277488Y505492D01*
X272472Y505492D02*
X272472Y510508D01*
X277488Y510508D01*
X277488Y505492D01*
X277488Y507633D02*
X272472Y507633D01*
X272472Y509774D02*
X277488Y509774D01*
D25*
X388118Y223988D02*
X395642Y223988D01*
X388118Y223988D02*
X388118Y232012D01*
X395642Y232012D01*
X395642Y223988D01*
X395642Y226123D02*
X388118Y226123D01*
X388118Y228258D02*
X395642Y228258D01*
X395642Y230393D02*
X388118Y230393D01*
X399718Y223988D02*
X407242Y223988D01*
X399718Y223988D02*
X399718Y232012D01*
X407242Y232012D01*
X407242Y223988D01*
X407242Y226123D02*
X399718Y226123D01*
X399718Y228258D02*
X407242Y228258D01*
X407242Y230393D02*
X399718Y230393D01*
D14*
X400772Y246508D02*
X405788Y246508D01*
X405788Y241492D01*
X400772Y241492D01*
X400772Y246508D01*
X400772Y243633D02*
X405788Y243633D01*
X405788Y245774D02*
X400772Y245774D01*
X395788Y246508D02*
X390772Y246508D01*
X395788Y246508D02*
X395788Y241492D01*
X390772Y241492D01*
X390772Y246508D01*
X390772Y243633D02*
X395788Y243633D01*
X395788Y245774D02*
X390772Y245774D01*
X389188Y210492D02*
X384172Y210492D01*
X384172Y215508D01*
X389188Y215508D01*
X389188Y210492D01*
X389188Y212633D02*
X384172Y212633D01*
X384172Y214774D02*
X389188Y214774D01*
X394172Y210492D02*
X399188Y210492D01*
X394172Y210492D02*
X394172Y215508D01*
X399188Y215508D01*
X399188Y210492D01*
X399188Y212633D02*
X394172Y212633D01*
X394172Y214774D02*
X399188Y214774D01*
D20*
X313674Y462676D02*
X306686Y462676D01*
X306686Y469664D01*
X313674Y469664D01*
X313674Y462676D01*
X313674Y466745D02*
X306686Y466745D01*
X306686Y445136D02*
X313674Y445136D01*
X306686Y445136D02*
X306686Y452124D01*
X313674Y452124D01*
X313674Y445136D01*
X313674Y449205D02*
X306686Y449205D01*
D14*
X311172Y436508D02*
X316188Y436508D01*
X316188Y431492D01*
X311172Y431492D01*
X311172Y436508D01*
X311172Y433633D02*
X316188Y433633D01*
X316188Y435774D02*
X311172Y435774D01*
X306188Y436508D02*
X301172Y436508D01*
X306188Y436508D02*
X306188Y431492D01*
X301172Y431492D01*
X301172Y436508D01*
X301172Y433633D02*
X306188Y433633D01*
X306188Y435774D02*
X301172Y435774D01*
D26*
X447714Y69606D02*
X447714Y61594D01*
X447714Y69606D02*
X456726Y69606D01*
X456726Y61594D01*
X447714Y61594D01*
X447714Y63740D02*
X456726Y63740D01*
X456726Y65886D02*
X447714Y65886D01*
X447714Y68032D02*
X456726Y68032D01*
X431714Y69606D02*
X431714Y61594D01*
X431714Y69606D02*
X440726Y69606D01*
X440726Y61594D01*
X431714Y61594D01*
X431714Y63740D02*
X440726Y63740D01*
X440726Y65886D02*
X431714Y65886D01*
X431714Y68032D02*
X440726Y68032D01*
X431714Y102594D02*
X431714Y110606D01*
X440726Y110606D01*
X440726Y102594D01*
X431714Y102594D01*
X431714Y104740D02*
X440726Y104740D01*
X440726Y106886D02*
X431714Y106886D01*
X431714Y109032D02*
X440726Y109032D01*
X447714Y110606D02*
X447714Y102594D01*
X447714Y110606D02*
X456726Y110606D01*
X456726Y102594D01*
X447714Y102594D01*
X447714Y104740D02*
X456726Y104740D01*
X456726Y106886D02*
X447714Y106886D01*
X447714Y109032D02*
X456726Y109032D01*
D14*
X451188Y124508D02*
X446172Y124508D01*
X451188Y124508D02*
X451188Y119492D01*
X446172Y119492D01*
X446172Y124508D01*
X446172Y121633D02*
X451188Y121633D01*
X451188Y123774D02*
X446172Y123774D01*
X441188Y124508D02*
X436172Y124508D01*
X441188Y124508D02*
X441188Y119492D01*
X436172Y119492D01*
X436172Y124508D01*
X436172Y121633D02*
X441188Y121633D01*
X441188Y123774D02*
X436172Y123774D01*
D27*
X238223Y122407D02*
X238223Y111393D01*
X238223Y122407D02*
X257237Y122407D01*
X257237Y111393D01*
X238223Y111393D01*
X238223Y113536D02*
X257237Y113536D01*
X257237Y115679D02*
X238223Y115679D01*
X238223Y117822D02*
X257237Y117822D01*
X257237Y119965D02*
X238223Y119965D01*
X238223Y122108D02*
X257237Y122108D01*
X238223Y66407D02*
X238223Y55393D01*
X238223Y66407D02*
X257237Y66407D01*
X257237Y55393D01*
X238223Y55393D01*
X238223Y57536D02*
X257237Y57536D01*
X257237Y59679D02*
X238223Y59679D01*
X238223Y61822D02*
X257237Y61822D01*
X257237Y63965D02*
X238223Y63965D01*
X238223Y66108D02*
X257237Y66108D01*
D14*
X278222Y101392D02*
X278222Y106408D01*
X290738Y106408D01*
X290738Y101392D01*
X278222Y101392D01*
X278222Y103533D02*
X290738Y103533D01*
X290738Y105674D02*
X278222Y105674D01*
X278222Y96408D02*
X278222Y91392D01*
X278222Y96408D02*
X290738Y96408D01*
X290738Y91392D01*
X278222Y91392D01*
X278222Y93533D02*
X290738Y93533D01*
X290738Y95674D02*
X278222Y95674D01*
X278222Y86408D02*
X278222Y81392D01*
X278222Y86408D02*
X290738Y86408D01*
X290738Y81392D01*
X278222Y81392D01*
X278222Y83533D02*
X290738Y83533D01*
X290738Y85674D02*
X278222Y85674D01*
X278222Y76408D02*
X278222Y71392D01*
X278222Y76408D02*
X290738Y76408D01*
X290738Y71392D01*
X278222Y71392D01*
X278222Y73533D02*
X290738Y73533D01*
X290738Y75674D02*
X278222Y75674D01*
D21*
X331704Y129976D02*
X338656Y129976D01*
X338656Y122024D01*
X331704Y122024D01*
X331704Y129976D01*
X331704Y124226D02*
X338656Y124226D01*
X338656Y126428D02*
X331704Y126428D01*
X331704Y128630D02*
X338656Y128630D01*
X319656Y129976D02*
X312704Y129976D01*
X319656Y129976D02*
X319656Y122024D01*
X312704Y122024D01*
X312704Y129976D01*
X312704Y124226D02*
X319656Y124226D01*
X319656Y126428D02*
X312704Y126428D01*
X312704Y128630D02*
X319656Y128630D01*
X322204Y108976D02*
X329156Y108976D01*
X329156Y101024D01*
X322204Y101024D01*
X322204Y108976D01*
X322204Y103226D02*
X329156Y103226D01*
X329156Y105428D02*
X322204Y105428D01*
X322204Y107630D02*
X329156Y107630D01*
D14*
X353172Y152492D02*
X358188Y152492D01*
X353172Y152492D02*
X353172Y157508D01*
X358188Y157508D01*
X358188Y152492D01*
X358188Y154633D02*
X353172Y154633D01*
X353172Y156774D02*
X358188Y156774D01*
X363172Y152492D02*
X368188Y152492D01*
X363172Y152492D02*
X363172Y157508D01*
X368188Y157508D01*
X368188Y152492D01*
X368188Y154633D02*
X363172Y154633D01*
X363172Y156774D02*
X368188Y156774D01*
X352188Y134508D02*
X352188Y129492D01*
X347172Y129492D01*
X347172Y134508D01*
X352188Y134508D01*
X352188Y131633D02*
X347172Y131633D01*
X347172Y133774D02*
X352188Y133774D01*
X352188Y139492D02*
X352188Y144508D01*
X352188Y139492D02*
X347172Y139492D01*
X347172Y144508D01*
X352188Y144508D01*
X352188Y141633D02*
X347172Y141633D01*
X347172Y143774D02*
X352188Y143774D01*
D21*
X379704Y143976D02*
X386656Y143976D01*
X386656Y136024D01*
X379704Y136024D01*
X379704Y143976D01*
X379704Y138226D02*
X386656Y138226D01*
X386656Y140428D02*
X379704Y140428D01*
X379704Y142630D02*
X386656Y142630D01*
X367656Y143976D02*
X360704Y143976D01*
X367656Y143976D02*
X367656Y136024D01*
X360704Y136024D01*
X360704Y143976D01*
X360704Y138226D02*
X367656Y138226D01*
X367656Y140428D02*
X360704Y140428D01*
X360704Y142630D02*
X367656Y142630D01*
X370204Y122976D02*
X377156Y122976D01*
X377156Y115024D01*
X370204Y115024D01*
X370204Y122976D01*
X370204Y117226D02*
X377156Y117226D01*
X377156Y119428D02*
X370204Y119428D01*
X370204Y121630D02*
X377156Y121630D01*
D14*
X352188Y110508D02*
X352188Y105492D01*
X347172Y105492D01*
X347172Y110508D01*
X352188Y110508D01*
X352188Y107633D02*
X347172Y107633D01*
X347172Y109774D02*
X352188Y109774D01*
X352188Y115492D02*
X352188Y120508D01*
X352188Y115492D02*
X347172Y115492D01*
X347172Y120508D01*
X352188Y120508D01*
X352188Y117633D02*
X347172Y117633D01*
X347172Y119774D02*
X352188Y119774D01*
X410172Y612492D02*
X415188Y612492D01*
X410172Y612492D02*
X410172Y617508D01*
X415188Y617508D01*
X415188Y612492D01*
X415188Y614633D02*
X410172Y614633D01*
X410172Y616774D02*
X415188Y616774D01*
X420172Y612492D02*
X425188Y612492D01*
X420172Y612492D02*
X420172Y617508D01*
X425188Y617508D01*
X425188Y612492D01*
X425188Y614633D02*
X420172Y614633D01*
X420172Y616774D02*
X425188Y616774D01*
X415188Y602492D02*
X410172Y602492D01*
X410172Y607508D01*
X415188Y607508D01*
X415188Y602492D01*
X415188Y604633D02*
X410172Y604633D01*
X410172Y606774D02*
X415188Y606774D01*
X420172Y602492D02*
X425188Y602492D01*
X420172Y602492D02*
X420172Y607508D01*
X425188Y607508D01*
X425188Y602492D01*
X425188Y604633D02*
X420172Y604633D01*
X420172Y606774D02*
X425188Y606774D01*
D28*
X292420Y300490D02*
X288440Y300490D01*
X292420Y300490D02*
X292420Y298010D01*
X288440Y298010D01*
X288440Y300490D01*
X288440Y300185D02*
X292420Y300185D01*
X292420Y306990D02*
X288440Y306990D01*
X292420Y306990D02*
X292420Y304510D01*
X288440Y304510D01*
X288440Y306990D01*
X288440Y306685D02*
X292420Y306685D01*
X292420Y313490D02*
X288440Y313490D01*
X292420Y313490D02*
X292420Y311010D01*
X288440Y311010D01*
X288440Y313490D01*
X288440Y313185D02*
X292420Y313185D01*
X292420Y319990D02*
X288440Y319990D01*
X292420Y319990D02*
X292420Y317510D01*
X288440Y317510D01*
X288440Y319990D01*
X288440Y319685D02*
X292420Y319685D01*
X308940Y319990D02*
X312920Y319990D01*
X312920Y317510D01*
X308940Y317510D01*
X308940Y319990D01*
X308940Y319685D02*
X312920Y319685D01*
X312920Y313490D02*
X308940Y313490D01*
X312920Y313490D02*
X312920Y311010D01*
X308940Y311010D01*
X308940Y313490D01*
X308940Y313185D02*
X312920Y313185D01*
X312920Y306990D02*
X308940Y306990D01*
X312920Y306990D02*
X312920Y304510D01*
X308940Y304510D01*
X308940Y306990D01*
X308940Y306685D02*
X312920Y306685D01*
X312920Y300490D02*
X308940Y300490D01*
X312920Y300490D02*
X312920Y298010D01*
X308940Y298010D01*
X308940Y300490D01*
X308940Y300185D02*
X312920Y300185D01*
D14*
X325188Y310492D02*
X325188Y315508D01*
X325188Y310492D02*
X320172Y310492D01*
X320172Y315508D01*
X325188Y315508D01*
X325188Y312633D02*
X320172Y312633D01*
X320172Y314774D02*
X325188Y314774D01*
X325188Y320492D02*
X325188Y325508D01*
X325188Y320492D02*
X320172Y320492D01*
X320172Y325508D01*
X325188Y325508D01*
X325188Y322633D02*
X320172Y322633D01*
X320172Y324774D02*
X325188Y324774D01*
X313188Y291508D02*
X308172Y291508D01*
X313188Y291508D02*
X313188Y286492D01*
X308172Y286492D01*
X308172Y291508D01*
X308172Y288633D02*
X313188Y288633D01*
X313188Y290774D02*
X308172Y290774D01*
X303188Y291508D02*
X298172Y291508D01*
X303188Y291508D02*
X303188Y286492D01*
X298172Y286492D01*
X298172Y291508D01*
X298172Y288633D02*
X303188Y288633D01*
X303188Y290774D02*
X298172Y290774D01*
X308172Y281508D02*
X313188Y281508D01*
X313188Y276492D01*
X308172Y276492D01*
X308172Y281508D01*
X308172Y278633D02*
X313188Y278633D01*
X313188Y280774D02*
X308172Y280774D01*
X303188Y281508D02*
X298172Y281508D01*
X303188Y281508D02*
X303188Y276492D01*
X298172Y276492D01*
X298172Y281508D01*
X298172Y278633D02*
X303188Y278633D01*
X303188Y280774D02*
X298172Y280774D01*
D13*
X334473Y400218D02*
X338237Y400218D01*
X334473Y400218D02*
X334473Y402182D01*
X338237Y402182D01*
X338237Y400218D01*
X338237Y395218D02*
X334473Y395218D01*
X334473Y397182D01*
X338237Y397182D01*
X338237Y395218D01*
X338237Y390218D02*
X334473Y390218D01*
X334473Y392182D01*
X338237Y392182D01*
X338237Y390218D01*
X338237Y385218D02*
X334473Y385218D01*
X334473Y387182D01*
X338237Y387182D01*
X338237Y385218D01*
X357723Y387182D02*
X361487Y387182D01*
X361487Y385218D01*
X357723Y385218D01*
X357723Y387182D01*
X357723Y392182D02*
X361487Y392182D01*
X361487Y390218D01*
X357723Y390218D01*
X357723Y392182D01*
X357723Y397182D02*
X361487Y397182D01*
X361487Y395218D01*
X357723Y395218D01*
X357723Y397182D01*
X357723Y402182D02*
X361487Y402182D01*
X361487Y400218D01*
X357723Y400218D01*
X357723Y402182D01*
X343962Y381818D02*
X341998Y381818D01*
X341998Y385582D01*
X343962Y385582D01*
X343962Y381818D01*
X343962Y384009D02*
X341998Y384009D01*
X346998Y381818D02*
X348962Y381818D01*
X346998Y381818D02*
X346998Y385582D01*
X348962Y385582D01*
X348962Y381818D01*
X348962Y384009D02*
X346998Y384009D01*
X351998Y381818D02*
X353962Y381818D01*
X351998Y381818D02*
X351998Y385582D01*
X353962Y385582D01*
X353962Y381818D01*
X353962Y384009D02*
X351998Y384009D01*
X351998Y405582D02*
X353962Y405582D01*
X353962Y401818D01*
X351998Y401818D01*
X351998Y405582D01*
X351998Y404009D02*
X353962Y404009D01*
X348962Y405582D02*
X346998Y405582D01*
X348962Y405582D02*
X348962Y401818D01*
X346998Y401818D01*
X346998Y405582D01*
X346998Y404009D02*
X348962Y404009D01*
X343962Y405582D02*
X341998Y405582D01*
X343962Y405582D02*
X343962Y401818D01*
X341998Y401818D01*
X341998Y405582D01*
X341998Y404009D02*
X343962Y404009D01*
D14*
X370672Y426508D02*
X375688Y426508D01*
X375688Y421492D01*
X370672Y421492D01*
X370672Y426508D01*
X370672Y423633D02*
X375688Y423633D01*
X375688Y425774D02*
X370672Y425774D01*
X365688Y426508D02*
X360672Y426508D01*
X365688Y426508D02*
X365688Y421492D01*
X360672Y421492D01*
X360672Y426508D01*
X360672Y423633D02*
X365688Y423633D01*
X365688Y425774D02*
X360672Y425774D01*
X322172Y406108D02*
X322172Y401092D01*
X322172Y406108D02*
X327188Y406108D01*
X327188Y401092D01*
X322172Y401092D01*
X322172Y403233D02*
X327188Y403233D01*
X327188Y405374D02*
X322172Y405374D01*
X322172Y396108D02*
X322172Y391092D01*
X322172Y396108D02*
X327188Y396108D01*
X327188Y391092D01*
X322172Y391092D01*
X322172Y393233D02*
X327188Y393233D01*
X327188Y395374D02*
X322172Y395374D01*
X333172Y370492D02*
X338188Y370492D01*
X333172Y370492D02*
X333172Y375508D01*
X338188Y375508D01*
X338188Y370492D01*
X338188Y372633D02*
X333172Y372633D01*
X333172Y374774D02*
X338188Y374774D01*
X343172Y370492D02*
X348188Y370492D01*
X343172Y370492D02*
X343172Y375508D01*
X348188Y375508D01*
X348188Y370492D01*
X348188Y372633D02*
X343172Y372633D01*
X343172Y374774D02*
X348188Y374774D01*
X365172Y375508D02*
X370188Y375508D01*
X370188Y370492D01*
X365172Y370492D01*
X365172Y375508D01*
X365172Y372633D02*
X370188Y372633D01*
X370188Y374774D02*
X365172Y374774D01*
X360188Y375508D02*
X355172Y375508D01*
X360188Y375508D02*
X360188Y370492D01*
X355172Y370492D01*
X355172Y375508D01*
X355172Y372633D02*
X360188Y372633D01*
X360188Y374774D02*
X355172Y374774D01*
D29*
X381522Y285587D02*
X381522Y280253D01*
X369838Y280253D01*
X369838Y285587D01*
X381522Y285587D01*
X381522Y282425D02*
X369838Y282425D01*
X369838Y284597D02*
X381522Y284597D01*
X381522Y290413D02*
X381522Y295747D01*
X381522Y290413D02*
X369838Y290413D01*
X369838Y295747D01*
X381522Y295747D01*
X381522Y292585D02*
X369838Y292585D01*
X369838Y294757D02*
X381522Y294757D01*
D10*
X375680Y275300D03*
X375680Y300700D03*
X683260Y520700D03*
X683260Y495300D03*
X683260Y469900D03*
X683260Y444500D03*
X683260Y419100D03*
X683260Y393700D03*
X683260Y368300D03*
X683260Y342900D03*
X683260Y317500D03*
X683260Y292100D03*
X683260Y266700D03*
X683260Y241300D03*
X683260Y215900D03*
X683260Y190500D03*
X683260Y165100D03*
X683260Y139700D03*
X480060Y241300D03*
X480060Y266700D03*
X480060Y292100D03*
X480060Y317500D03*
X480060Y342900D03*
X480060Y368300D03*
X480060Y393700D03*
X480060Y419100D03*
X480060Y444500D03*
X480060Y469900D03*
X480060Y495300D03*
X480060Y520700D03*
D11*
X492760Y25400D03*
X670560Y25400D03*
X670560Y558800D03*
X492760Y558800D03*
D12*
X473360Y534000D03*
X688360Y53000D03*
D13*
X590142Y54094D02*
X588178Y54094D01*
X588178Y63058D01*
X590142Y63058D01*
X590142Y54094D01*
X590142Y56285D02*
X588178Y56285D01*
X588178Y58476D02*
X590142Y58476D01*
X590142Y60667D02*
X588178Y60667D01*
X588178Y62858D02*
X590142Y62858D01*
X585142Y54094D02*
X583178Y54094D01*
X583178Y63058D01*
X585142Y63058D01*
X585142Y54094D01*
X585142Y56285D02*
X583178Y56285D01*
X583178Y58476D02*
X585142Y58476D01*
X585142Y60667D02*
X583178Y60667D01*
X583178Y62858D02*
X585142Y62858D01*
D14*
X611402Y54068D02*
X616418Y54068D01*
X611402Y54068D02*
X611402Y63084D01*
X616418Y63084D01*
X616418Y54068D01*
X616418Y56209D02*
X611402Y56209D01*
X611402Y58350D02*
X616418Y58350D01*
X616418Y60491D02*
X611402Y60491D01*
X611402Y62632D02*
X616418Y62632D01*
X608668Y54068D02*
X603652Y54068D01*
X603652Y63084D01*
X608668Y63084D01*
X608668Y54068D01*
X608668Y56209D02*
X603652Y56209D01*
X603652Y58350D02*
X608668Y58350D01*
X608668Y60491D02*
X603652Y60491D01*
X603652Y62632D02*
X608668Y62632D01*
D13*
X600142Y54094D02*
X598178Y54094D01*
X598178Y63058D01*
X600142Y63058D01*
X600142Y54094D01*
X600142Y56285D02*
X598178Y56285D01*
X598178Y58476D02*
X600142Y58476D01*
X600142Y60667D02*
X598178Y60667D01*
X598178Y62858D02*
X600142Y62858D01*
X595142Y54094D02*
X593178Y54094D01*
X593178Y63058D01*
X595142Y63058D01*
X595142Y54094D01*
X595142Y56285D02*
X593178Y56285D01*
X593178Y58476D02*
X595142Y58476D01*
X595142Y60667D02*
X593178Y60667D01*
X593178Y62858D02*
X595142Y62858D01*
X575142Y63058D02*
X573178Y63058D01*
X575142Y63058D02*
X575142Y54094D01*
X573178Y54094D01*
X573178Y63058D01*
X573178Y56285D02*
X575142Y56285D01*
X575142Y58476D02*
X573178Y58476D01*
X573178Y60667D02*
X575142Y60667D01*
X575142Y62858D02*
X573178Y62858D01*
X578178Y63058D02*
X580142Y63058D01*
X580142Y54094D01*
X578178Y54094D01*
X578178Y63058D01*
X578178Y56285D02*
X580142Y56285D01*
X580142Y58476D02*
X578178Y58476D01*
X578178Y60667D02*
X580142Y60667D01*
X580142Y62858D02*
X578178Y62858D01*
D14*
X551918Y63084D02*
X546902Y63084D01*
X551918Y63084D02*
X551918Y54068D01*
X546902Y54068D01*
X546902Y63084D01*
X546902Y56209D02*
X551918Y56209D01*
X551918Y58350D02*
X546902Y58350D01*
X546902Y60491D02*
X551918Y60491D01*
X551918Y62632D02*
X546902Y62632D01*
X554652Y63084D02*
X559668Y63084D01*
X559668Y54068D01*
X554652Y54068D01*
X554652Y63084D01*
X554652Y56209D02*
X559668Y56209D01*
X559668Y58350D02*
X554652Y58350D01*
X554652Y60491D02*
X559668Y60491D01*
X559668Y62632D02*
X554652Y62632D01*
D13*
X563178Y63058D02*
X565142Y63058D01*
X565142Y54094D01*
X563178Y54094D01*
X563178Y63058D01*
X563178Y56285D02*
X565142Y56285D01*
X565142Y58476D02*
X563178Y58476D01*
X563178Y60667D02*
X565142Y60667D01*
X565142Y62858D02*
X563178Y62858D01*
X568178Y63058D02*
X570142Y63058D01*
X570142Y54094D01*
X568178Y54094D01*
X568178Y63058D01*
X568178Y56285D02*
X570142Y56285D01*
X570142Y58476D02*
X568178Y58476D01*
X568178Y60667D02*
X570142Y60667D01*
X570142Y62858D02*
X568178Y62858D01*
D15*
X552760Y47526D03*
X610560Y47526D03*
D16*
X648379Y88232D02*
X648379Y92768D01*
X648379Y88232D02*
X635843Y88232D01*
X635843Y92768D01*
X648379Y92768D01*
X648379Y90354D02*
X635843Y90354D01*
X635843Y92476D02*
X648379Y92476D01*
X648379Y97732D02*
X648379Y102268D01*
X648379Y97732D02*
X635843Y97732D01*
X635843Y102268D01*
X648379Y102268D01*
X648379Y99854D02*
X635843Y99854D01*
X635843Y101976D02*
X648379Y101976D01*
X648379Y107232D02*
X648379Y111768D01*
X648379Y107232D02*
X635843Y107232D01*
X635843Y111768D01*
X648379Y111768D01*
X648379Y109354D02*
X635843Y109354D01*
X635843Y111476D02*
X648379Y111476D01*
X620877Y111768D02*
X620877Y107232D01*
X608341Y107232D01*
X608341Y111768D01*
X620877Y111768D01*
X620877Y109354D02*
X608341Y109354D01*
X608341Y111476D02*
X620877Y111476D01*
X620877Y102268D02*
X620877Y97732D01*
X608341Y97732D01*
X608341Y102268D01*
X620877Y102268D01*
X620877Y99854D02*
X608341Y99854D01*
X608341Y101976D02*
X620877Y101976D01*
X620877Y92768D02*
X620877Y88232D01*
X608341Y88232D01*
X608341Y92768D01*
X620877Y92768D01*
X620877Y90354D02*
X608341Y90354D01*
X608341Y92476D02*
X620877Y92476D01*
D14*
X638852Y60508D02*
X638852Y55492D01*
X638852Y60508D02*
X643868Y60508D01*
X643868Y55492D01*
X638852Y55492D01*
X638852Y57633D02*
X643868Y57633D01*
X643868Y59774D02*
X638852Y59774D01*
X638852Y50508D02*
X638852Y45492D01*
X638852Y50508D02*
X643868Y50508D01*
X643868Y45492D01*
X638852Y45492D01*
X638852Y47633D02*
X643868Y47633D01*
X643868Y49774D02*
X638852Y49774D01*
X561668Y72692D02*
X556652Y72692D01*
X556652Y77708D01*
X561668Y77708D01*
X561668Y72692D01*
X561668Y74833D02*
X556652Y74833D01*
X556652Y76974D02*
X561668Y76974D01*
X566652Y72692D02*
X571668Y72692D01*
X566652Y72692D02*
X566652Y77708D01*
X571668Y77708D01*
X571668Y72692D01*
X571668Y74833D02*
X566652Y74833D01*
X566652Y76974D02*
X571668Y76974D01*
D17*
X615683Y522423D02*
X615683Y528377D01*
X626137Y528377D01*
X626137Y522423D01*
X615683Y522423D01*
X615683Y524623D02*
X626137Y524623D01*
X626137Y526823D02*
X615683Y526823D01*
X615683Y532423D02*
X615683Y538377D01*
X626137Y538377D01*
X626137Y532423D01*
X615683Y532423D01*
X615683Y534623D02*
X626137Y534623D01*
X626137Y536823D02*
X615683Y536823D01*
X615683Y542423D02*
X615683Y548377D01*
X626137Y548377D01*
X626137Y542423D01*
X615683Y542423D01*
X615683Y544623D02*
X626137Y544623D01*
X626137Y546823D02*
X615683Y546823D01*
X615683Y552423D02*
X615683Y558377D01*
X626137Y558377D01*
X626137Y552423D01*
X615683Y552423D01*
X615683Y554623D02*
X626137Y554623D01*
X626137Y556823D02*
X615683Y556823D01*
X615683Y562423D02*
X615683Y568377D01*
X626137Y568377D01*
X626137Y562423D01*
X615683Y562423D01*
X615683Y564623D02*
X626137Y564623D01*
X626137Y566823D02*
X615683Y566823D01*
X615683Y572423D02*
X615683Y578377D01*
X626137Y578377D01*
X626137Y572423D01*
X615683Y572423D01*
X615683Y574623D02*
X626137Y574623D01*
X626137Y576823D02*
X615683Y576823D01*
X615683Y582423D02*
X615683Y588377D01*
X626137Y588377D01*
X626137Y582423D01*
X615683Y582423D01*
X615683Y584623D02*
X626137Y584623D01*
X626137Y586823D02*
X615683Y586823D01*
X615683Y592423D02*
X615683Y598377D01*
X626137Y598377D01*
X626137Y592423D01*
X615683Y592423D01*
X615683Y594623D02*
X626137Y594623D01*
X626137Y596823D02*
X615683Y596823D01*
X615683Y602423D02*
X615683Y608377D01*
X626137Y608377D01*
X626137Y602423D01*
X615683Y602423D01*
X615683Y604623D02*
X626137Y604623D01*
X626137Y606823D02*
X615683Y606823D01*
X615683Y612423D02*
X615683Y618377D01*
X626137Y618377D01*
X626137Y612423D01*
X615683Y612423D01*
X615683Y614623D02*
X626137Y614623D01*
X626137Y616823D02*
X615683Y616823D01*
X602637Y619877D02*
X596683Y619877D01*
X602637Y619877D02*
X602637Y609423D01*
X596683Y609423D01*
X596683Y619877D01*
X596683Y611623D02*
X602637Y611623D01*
X602637Y613823D02*
X596683Y613823D01*
X596683Y616023D02*
X602637Y616023D01*
X602637Y618223D02*
X596683Y618223D01*
X592637Y619877D02*
X586683Y619877D01*
X592637Y619877D02*
X592637Y609423D01*
X586683Y609423D01*
X586683Y619877D01*
X586683Y611623D02*
X592637Y611623D01*
X592637Y613823D02*
X586683Y613823D01*
X586683Y616023D02*
X592637Y616023D01*
X592637Y618223D02*
X586683Y618223D01*
X582637Y619877D02*
X576683Y619877D01*
X582637Y619877D02*
X582637Y609423D01*
X576683Y609423D01*
X576683Y619877D01*
X576683Y611623D02*
X582637Y611623D01*
X582637Y613823D02*
X576683Y613823D01*
X576683Y616023D02*
X582637Y616023D01*
X582637Y618223D02*
X576683Y618223D01*
X572637Y619877D02*
X566683Y619877D01*
X572637Y619877D02*
X572637Y609423D01*
X566683Y609423D01*
X566683Y619877D01*
X566683Y611623D02*
X572637Y611623D01*
X572637Y613823D02*
X566683Y613823D01*
X566683Y616023D02*
X572637Y616023D01*
X572637Y618223D02*
X566683Y618223D01*
X562637Y619877D02*
X556683Y619877D01*
X562637Y619877D02*
X562637Y609423D01*
X556683Y609423D01*
X556683Y619877D01*
X556683Y611623D02*
X562637Y611623D01*
X562637Y613823D02*
X556683Y613823D01*
X556683Y616023D02*
X562637Y616023D01*
X562637Y618223D02*
X556683Y618223D01*
X533183Y618377D02*
X533183Y612423D01*
X533183Y618377D02*
X543637Y618377D01*
X543637Y612423D01*
X533183Y612423D01*
X533183Y614623D02*
X543637Y614623D01*
X543637Y616823D02*
X533183Y616823D01*
X533183Y608377D02*
X533183Y602423D01*
X533183Y608377D02*
X543637Y608377D01*
X543637Y602423D01*
X533183Y602423D01*
X533183Y604623D02*
X543637Y604623D01*
X543637Y606823D02*
X533183Y606823D01*
X533183Y598377D02*
X533183Y592423D01*
X533183Y598377D02*
X543637Y598377D01*
X543637Y592423D01*
X533183Y592423D01*
X533183Y594623D02*
X543637Y594623D01*
X543637Y596823D02*
X533183Y596823D01*
X533183Y588377D02*
X533183Y582423D01*
X533183Y588377D02*
X543637Y588377D01*
X543637Y582423D01*
X533183Y582423D01*
X533183Y584623D02*
X543637Y584623D01*
X543637Y586823D02*
X533183Y586823D01*
X533183Y578377D02*
X533183Y572423D01*
X533183Y578377D02*
X543637Y578377D01*
X543637Y572423D01*
X533183Y572423D01*
X533183Y574623D02*
X543637Y574623D01*
X543637Y576823D02*
X533183Y576823D01*
X533183Y568377D02*
X533183Y562423D01*
X533183Y568377D02*
X543637Y568377D01*
X543637Y562423D01*
X533183Y562423D01*
X533183Y564623D02*
X543637Y564623D01*
X543637Y566823D02*
X533183Y566823D01*
X533183Y558377D02*
X533183Y552423D01*
X533183Y558377D02*
X543637Y558377D01*
X543637Y552423D01*
X533183Y552423D01*
X533183Y554623D02*
X543637Y554623D01*
X543637Y556823D02*
X533183Y556823D01*
X533183Y548377D02*
X533183Y542423D01*
X533183Y548377D02*
X543637Y548377D01*
X543637Y542423D01*
X533183Y542423D01*
X533183Y544623D02*
X543637Y544623D01*
X543637Y546823D02*
X533183Y546823D01*
X533183Y538377D02*
X533183Y532423D01*
X533183Y538377D02*
X543637Y538377D01*
X543637Y532423D01*
X533183Y532423D01*
X533183Y534623D02*
X543637Y534623D01*
X543637Y536823D02*
X533183Y536823D01*
X533183Y528377D02*
X533183Y522423D01*
X533183Y528377D02*
X543637Y528377D01*
X543637Y522423D01*
X533183Y522423D01*
X533183Y524623D02*
X543637Y524623D01*
X543637Y526823D02*
X533183Y526823D01*
X556683Y531377D02*
X562637Y531377D01*
X562637Y520923D01*
X556683Y520923D01*
X556683Y531377D01*
X556683Y523123D02*
X562637Y523123D01*
X562637Y525323D02*
X556683Y525323D01*
X556683Y527523D02*
X562637Y527523D01*
X562637Y529723D02*
X556683Y529723D01*
X566683Y531377D02*
X572637Y531377D01*
X572637Y520923D01*
X566683Y520923D01*
X566683Y531377D01*
X566683Y523123D02*
X572637Y523123D01*
X572637Y525323D02*
X566683Y525323D01*
X566683Y527523D02*
X572637Y527523D01*
X572637Y529723D02*
X566683Y529723D01*
X576683Y531377D02*
X582637Y531377D01*
X582637Y520923D01*
X576683Y520923D01*
X576683Y531377D01*
X576683Y523123D02*
X582637Y523123D01*
X582637Y525323D02*
X576683Y525323D01*
X576683Y527523D02*
X582637Y527523D01*
X582637Y529723D02*
X576683Y529723D01*
X586683Y531377D02*
X592637Y531377D01*
X592637Y520923D01*
X586683Y520923D01*
X586683Y531377D01*
X586683Y523123D02*
X592637Y523123D01*
X592637Y525323D02*
X586683Y525323D01*
X586683Y527523D02*
X592637Y527523D01*
X592637Y529723D02*
X586683Y529723D01*
X596683Y531377D02*
X602637Y531377D01*
X602637Y520923D01*
X596683Y520923D01*
X596683Y531377D01*
X596683Y523123D02*
X602637Y523123D01*
X602637Y525323D02*
X596683Y525323D01*
X596683Y527523D02*
X602637Y527523D01*
X602637Y529723D02*
X596683Y529723D01*
X604183Y542877D02*
X610137Y542877D01*
X610137Y536923D01*
X604183Y536923D01*
X604183Y542877D01*
X604183Y539123D02*
X610137Y539123D01*
X610137Y541323D02*
X604183Y541323D01*
X604183Y553877D02*
X610137Y553877D01*
X610137Y547923D01*
X604183Y547923D01*
X604183Y553877D01*
X604183Y550123D02*
X610137Y550123D01*
X610137Y552323D02*
X604183Y552323D01*
X604183Y564877D02*
X610137Y564877D01*
X610137Y558923D01*
X604183Y558923D01*
X604183Y564877D01*
X604183Y561123D02*
X610137Y561123D01*
X610137Y563323D02*
X604183Y563323D01*
X604183Y575877D02*
X610137Y575877D01*
X610137Y569923D01*
X604183Y569923D01*
X604183Y575877D01*
X604183Y572123D02*
X610137Y572123D01*
X610137Y574323D02*
X604183Y574323D01*
X604183Y586877D02*
X610137Y586877D01*
X610137Y580923D01*
X604183Y580923D01*
X604183Y586877D01*
X604183Y583123D02*
X610137Y583123D01*
X610137Y585323D02*
X604183Y585323D01*
X604183Y597877D02*
X610137Y597877D01*
X610137Y591923D01*
X604183Y591923D01*
X604183Y597877D01*
X604183Y594123D02*
X610137Y594123D01*
X610137Y596323D02*
X604183Y596323D01*
X555137Y597877D02*
X549183Y597877D01*
X555137Y597877D02*
X555137Y591923D01*
X549183Y591923D01*
X549183Y597877D01*
X549183Y594123D02*
X555137Y594123D01*
X555137Y596323D02*
X549183Y596323D01*
X549183Y586877D02*
X555137Y586877D01*
X555137Y580923D01*
X549183Y580923D01*
X549183Y586877D01*
X549183Y583123D02*
X555137Y583123D01*
X555137Y585323D02*
X549183Y585323D01*
X549183Y575877D02*
X555137Y575877D01*
X555137Y569923D01*
X549183Y569923D01*
X549183Y575877D01*
X549183Y572123D02*
X555137Y572123D01*
X555137Y574323D02*
X549183Y574323D01*
X549183Y564877D02*
X555137Y564877D01*
X555137Y558923D01*
X549183Y558923D01*
X549183Y564877D01*
X549183Y561123D02*
X555137Y561123D01*
X555137Y563323D02*
X549183Y563323D01*
X549183Y553877D02*
X555137Y553877D01*
X555137Y547923D01*
X549183Y547923D01*
X549183Y553877D01*
X549183Y550123D02*
X555137Y550123D01*
X555137Y552323D02*
X549183Y552323D01*
X549183Y542877D02*
X555137Y542877D01*
X555137Y536923D01*
X549183Y536923D01*
X549183Y542877D01*
X549183Y539123D02*
X555137Y539123D01*
X555137Y541323D02*
X549183Y541323D01*
X560183Y542877D02*
X566137Y542877D01*
X566137Y536923D01*
X560183Y536923D01*
X560183Y542877D01*
X560183Y539123D02*
X566137Y539123D01*
X566137Y541323D02*
X560183Y541323D01*
X571183Y542877D02*
X577137Y542877D01*
X577137Y536923D01*
X571183Y536923D01*
X571183Y542877D01*
X571183Y539123D02*
X577137Y539123D01*
X577137Y541323D02*
X571183Y541323D01*
X582183Y542877D02*
X588137Y542877D01*
X588137Y536923D01*
X582183Y536923D01*
X582183Y542877D01*
X582183Y539123D02*
X588137Y539123D01*
X588137Y541323D02*
X582183Y541323D01*
X593183Y542877D02*
X599137Y542877D01*
X599137Y536923D01*
X593183Y536923D01*
X593183Y542877D01*
X593183Y539123D02*
X599137Y539123D01*
X599137Y541323D02*
X593183Y541323D01*
X542637Y516877D02*
X536683Y516877D01*
X542637Y516877D02*
X542637Y510923D01*
X536683Y510923D01*
X536683Y516877D01*
X536683Y513123D02*
X542637Y513123D01*
X542637Y515323D02*
X536683Y515323D01*
X546683Y516877D02*
X552637Y516877D01*
X552637Y510923D01*
X546683Y510923D01*
X546683Y516877D01*
X546683Y513123D02*
X552637Y513123D01*
X552637Y515323D02*
X546683Y515323D01*
X556683Y516877D02*
X562637Y516877D01*
X562637Y510923D01*
X556683Y510923D01*
X556683Y516877D01*
X556683Y513123D02*
X562637Y513123D01*
X562637Y515323D02*
X556683Y515323D01*
X566683Y516877D02*
X572637Y516877D01*
X572637Y510923D01*
X566683Y510923D01*
X566683Y516877D01*
X566683Y513123D02*
X572637Y513123D01*
X572637Y515323D02*
X566683Y515323D01*
X576683Y516877D02*
X582637Y516877D01*
X582637Y510923D01*
X576683Y510923D01*
X576683Y516877D01*
X576683Y513123D02*
X582637Y513123D01*
X582637Y515323D02*
X576683Y515323D01*
X586683Y516877D02*
X592637Y516877D01*
X592637Y510923D01*
X586683Y510923D01*
X586683Y516877D01*
X586683Y513123D02*
X592637Y513123D01*
X592637Y515323D02*
X586683Y515323D01*
X596683Y516877D02*
X602637Y516877D01*
X602637Y510923D01*
X596683Y510923D01*
X596683Y516877D01*
X596683Y513123D02*
X602637Y513123D01*
X602637Y515323D02*
X596683Y515323D01*
X606683Y516877D02*
X612637Y516877D01*
X612637Y510923D01*
X606683Y510923D01*
X606683Y516877D01*
X606683Y513123D02*
X612637Y513123D01*
X612637Y515323D02*
X606683Y515323D01*
X616683Y516877D02*
X622637Y516877D01*
X622637Y510923D01*
X616683Y510923D01*
X616683Y516877D01*
X616683Y513123D02*
X622637Y513123D01*
X622637Y515323D02*
X616683Y515323D01*
X599887Y590627D02*
X593933Y590627D01*
X599887Y590627D02*
X599887Y584673D01*
X593933Y584673D01*
X593933Y590627D01*
X593933Y586873D02*
X599887Y586873D01*
X599887Y589073D02*
X593933Y589073D01*
X588387Y590627D02*
X582433Y590627D01*
X588387Y590627D02*
X588387Y584673D01*
X582433Y584673D01*
X582433Y590627D01*
X582433Y586873D02*
X588387Y586873D01*
X588387Y589073D02*
X582433Y589073D01*
X576887Y590627D02*
X570933Y590627D01*
X576887Y590627D02*
X576887Y584673D01*
X570933Y584673D01*
X570933Y590627D01*
X570933Y586873D02*
X576887Y586873D01*
X576887Y589073D02*
X570933Y589073D01*
X565387Y590627D02*
X559433Y590627D01*
X565387Y590627D02*
X565387Y584673D01*
X559433Y584673D01*
X559433Y590627D01*
X559433Y586873D02*
X565387Y586873D01*
X565387Y589073D02*
X559433Y589073D01*
X582433Y579127D02*
X588387Y579127D01*
X588387Y573173D01*
X582433Y573173D01*
X582433Y579127D01*
X582433Y575373D02*
X588387Y575373D01*
X588387Y577573D02*
X582433Y577573D01*
X576887Y579127D02*
X570933Y579127D01*
X576887Y579127D02*
X576887Y573173D01*
X570933Y573173D01*
X570933Y579127D01*
X570933Y575373D02*
X576887Y575373D01*
X576887Y577573D02*
X570933Y577573D01*
X593933Y567627D02*
X599887Y567627D01*
X599887Y561673D01*
X593933Y561673D01*
X593933Y567627D01*
X593933Y563873D02*
X599887Y563873D01*
X599887Y566073D02*
X593933Y566073D01*
X588387Y567627D02*
X582433Y567627D01*
X588387Y567627D02*
X588387Y561673D01*
X582433Y561673D01*
X582433Y567627D01*
X582433Y563873D02*
X588387Y563873D01*
X588387Y566073D02*
X582433Y566073D01*
X576887Y567627D02*
X570933Y567627D01*
X576887Y567627D02*
X576887Y561673D01*
X570933Y561673D01*
X570933Y567627D01*
X570933Y563873D02*
X576887Y563873D01*
X576887Y566073D02*
X570933Y566073D01*
X565387Y567627D02*
X559433Y567627D01*
X565387Y567627D02*
X565387Y561673D01*
X559433Y561673D01*
X559433Y567627D01*
X559433Y563873D02*
X565387Y563873D01*
X565387Y566073D02*
X559433Y566073D01*
X582433Y556127D02*
X588387Y556127D01*
X588387Y550173D01*
X582433Y550173D01*
X582433Y556127D01*
X582433Y552373D02*
X588387Y552373D01*
X588387Y554573D02*
X582433Y554573D01*
X576887Y556127D02*
X570933Y556127D01*
X576887Y556127D02*
X576887Y550173D01*
X570933Y550173D01*
X570933Y556127D01*
X570933Y552373D02*
X576887Y552373D01*
X576887Y554573D02*
X570933Y554573D01*
X620183Y628377D02*
X626137Y628377D01*
X626137Y622423D01*
X620183Y622423D01*
X620183Y628377D01*
X620183Y624623D02*
X626137Y624623D01*
X626137Y626823D02*
X620183Y626823D01*
X620183Y653877D02*
X626137Y653877D01*
X626137Y647923D01*
X620183Y647923D01*
X620183Y653877D01*
X620183Y650123D02*
X626137Y650123D01*
X626137Y652323D02*
X620183Y652323D01*
X539137Y653877D02*
X533183Y653877D01*
X539137Y653877D02*
X539137Y647923D01*
X533183Y647923D01*
X533183Y653877D01*
X533183Y650123D02*
X539137Y650123D01*
X539137Y652323D02*
X533183Y652323D01*
X533183Y628377D02*
X539137Y628377D01*
X539137Y622423D01*
X533183Y622423D01*
X533183Y628377D01*
X533183Y624623D02*
X539137Y624623D01*
X539137Y626823D02*
X533183Y626823D01*
D18*
X562428Y172308D02*
X562428Y163292D01*
X517412Y163292D01*
X517412Y172308D01*
X562428Y172308D01*
X562428Y165433D02*
X517412Y165433D01*
X517412Y167574D02*
X562428Y167574D01*
X562428Y169715D02*
X517412Y169715D01*
X517412Y171856D02*
X562428Y171856D01*
X562428Y183292D02*
X562428Y192308D01*
X562428Y183292D02*
X517412Y183292D01*
X517412Y192308D01*
X562428Y192308D01*
X562428Y185433D02*
X517412Y185433D01*
X517412Y187574D02*
X562428Y187574D01*
X562428Y189715D02*
X517412Y189715D01*
X517412Y191856D02*
X562428Y191856D01*
D19*
X504433Y151313D02*
X471407Y151313D01*
X504433Y151313D02*
X504433Y136287D01*
X471407Y136287D01*
X471407Y151313D01*
X471407Y138420D02*
X504433Y138420D01*
X504433Y140553D02*
X471407Y140553D01*
X471407Y142686D02*
X504433Y142686D01*
X504433Y144819D02*
X471407Y144819D01*
X471407Y146952D02*
X504433Y146952D01*
X504433Y149085D02*
X471407Y149085D01*
X471407Y151218D02*
X504433Y151218D01*
X504433Y219313D02*
X471407Y219313D01*
X504433Y219313D02*
X504433Y204287D01*
X471407Y204287D01*
X471407Y219313D01*
X471407Y206420D02*
X504433Y206420D01*
X504433Y208553D02*
X471407Y208553D01*
X471407Y210686D02*
X504433Y210686D01*
X504433Y212819D02*
X471407Y212819D01*
X471407Y214952D02*
X504433Y214952D01*
X504433Y217085D02*
X471407Y217085D01*
X471407Y219218D02*
X504433Y219218D01*
D16*
X590141Y193268D02*
X590141Y188732D01*
X590141Y193268D02*
X601177Y193268D01*
X601177Y188732D01*
X590141Y188732D01*
X590141Y190854D02*
X601177Y190854D01*
X601177Y192976D02*
X590141Y192976D01*
X590141Y183768D02*
X590141Y179232D01*
X590141Y183768D02*
X601177Y183768D01*
X601177Y179232D01*
X590141Y179232D01*
X590141Y181354D02*
X601177Y181354D01*
X601177Y183476D02*
X590141Y183476D01*
X590141Y174268D02*
X590141Y169732D01*
X590141Y174268D02*
X601177Y174268D01*
X601177Y169732D01*
X590141Y169732D01*
X590141Y171854D02*
X601177Y171854D01*
X601177Y173976D02*
X590141Y173976D01*
X616143Y174268D02*
X616143Y169732D01*
X616143Y174268D02*
X627179Y174268D01*
X627179Y169732D01*
X616143Y169732D01*
X616143Y171854D02*
X627179Y171854D01*
X627179Y173976D02*
X616143Y173976D01*
X616143Y188732D02*
X616143Y193268D01*
X627179Y193268D01*
X627179Y188732D01*
X616143Y188732D01*
X616143Y190854D02*
X627179Y190854D01*
X627179Y192976D02*
X616143Y192976D01*
D20*
X584636Y203506D02*
X584636Y210494D01*
X591624Y210494D01*
X591624Y203506D01*
X584636Y203506D01*
X584636Y207575D02*
X591624Y207575D01*
X567096Y210494D02*
X567096Y203506D01*
X567096Y210494D02*
X574084Y210494D01*
X574084Y203506D01*
X567096Y203506D01*
X567096Y207575D02*
X574084Y207575D01*
D14*
X571852Y217492D02*
X576868Y217492D01*
X571852Y217492D02*
X571852Y222508D01*
X576868Y222508D01*
X576868Y217492D01*
X576868Y219633D02*
X571852Y219633D01*
X571852Y221774D02*
X576868Y221774D01*
X581852Y217492D02*
X586868Y217492D01*
X581852Y217492D02*
X581852Y222508D01*
X586868Y222508D01*
X586868Y217492D01*
X586868Y219633D02*
X581852Y219633D01*
X581852Y221774D02*
X586868Y221774D01*
X633852Y174508D02*
X633852Y169492D01*
X633852Y174508D02*
X638868Y174508D01*
X638868Y169492D01*
X633852Y169492D01*
X633852Y171633D02*
X638868Y171633D01*
X638868Y173774D02*
X633852Y173774D01*
X633852Y164508D02*
X633852Y159492D01*
X633852Y164508D02*
X638868Y164508D01*
X638868Y159492D01*
X633852Y159492D01*
X633852Y161633D02*
X638868Y161633D01*
X638868Y163774D02*
X633852Y163774D01*
X641852Y198492D02*
X641852Y203508D01*
X646868Y203508D01*
X646868Y198492D01*
X641852Y198492D01*
X641852Y200633D02*
X646868Y200633D01*
X646868Y202774D02*
X641852Y202774D01*
X641852Y193508D02*
X641852Y188492D01*
X641852Y193508D02*
X646868Y193508D01*
X646868Y188492D01*
X641852Y188492D01*
X641852Y190633D02*
X646868Y190633D01*
X646868Y192774D02*
X641852Y192774D01*
X574852Y174508D02*
X574852Y169492D01*
X574852Y174508D02*
X579868Y174508D01*
X579868Y169492D01*
X574852Y169492D01*
X574852Y171633D02*
X579868Y171633D01*
X579868Y173774D02*
X574852Y173774D01*
X574852Y164508D02*
X574852Y159492D01*
X574852Y164508D02*
X579868Y164508D01*
X579868Y159492D01*
X574852Y159492D01*
X574852Y161633D02*
X579868Y161633D01*
X579868Y163774D02*
X574852Y163774D01*
D21*
X593336Y231024D02*
X593336Y237976D01*
X593336Y231024D02*
X585384Y231024D01*
X585384Y237976D01*
X593336Y237976D01*
X593336Y233226D02*
X585384Y233226D01*
X585384Y235428D02*
X593336Y235428D01*
X593336Y237630D02*
X585384Y237630D01*
X593336Y250024D02*
X593336Y256976D01*
X593336Y250024D02*
X585384Y250024D01*
X585384Y256976D01*
X593336Y256976D01*
X593336Y252226D02*
X585384Y252226D01*
X585384Y254428D02*
X593336Y254428D01*
X593336Y256630D02*
X585384Y256630D01*
X572336Y247476D02*
X572336Y240524D01*
X564384Y240524D01*
X564384Y247476D01*
X572336Y247476D01*
X572336Y242726D02*
X564384Y242726D01*
X564384Y244928D02*
X572336Y244928D01*
X572336Y247130D02*
X564384Y247130D01*
D22*
X605510Y252850D02*
X605510Y258150D01*
X612810Y258150D01*
X612810Y252850D01*
X605510Y252850D01*
X605510Y255007D02*
X612810Y255007D01*
X612810Y257164D02*
X605510Y257164D01*
X605510Y235150D02*
X605510Y229850D01*
X605510Y235150D02*
X612810Y235150D01*
X612810Y229850D01*
X605510Y229850D01*
X605510Y232007D02*
X612810Y232007D01*
X612810Y234164D02*
X605510Y234164D01*
D14*
X627852Y203508D02*
X632868Y203508D01*
X632868Y198492D01*
X627852Y198492D01*
X627852Y203508D01*
X627852Y200633D02*
X632868Y200633D01*
X632868Y202774D02*
X627852Y202774D01*
X622868Y203508D02*
X617852Y203508D01*
X622868Y203508D02*
X622868Y198492D01*
X617852Y198492D01*
X617852Y203508D01*
X617852Y200633D02*
X622868Y200633D01*
X622868Y202774D02*
X617852Y202774D01*
X637852Y272492D02*
X637852Y277508D01*
X642868Y277508D01*
X642868Y272492D01*
X637852Y272492D01*
X637852Y274633D02*
X642868Y274633D01*
X642868Y276774D02*
X637852Y276774D01*
X637852Y267508D02*
X637852Y262492D01*
X637852Y267508D02*
X642868Y267508D01*
X642868Y262492D01*
X637852Y262492D01*
X637852Y264633D02*
X642868Y264633D01*
X642868Y266774D02*
X637852Y266774D01*
D16*
X617428Y339081D02*
X612892Y339081D01*
X612892Y350117D01*
X617428Y350117D01*
X617428Y339081D01*
X617428Y341203D02*
X612892Y341203D01*
X612892Y343325D02*
X617428Y343325D01*
X617428Y345447D02*
X612892Y345447D01*
X612892Y347569D02*
X617428Y347569D01*
X617428Y349691D02*
X612892Y349691D01*
X622392Y339081D02*
X626928Y339081D01*
X622392Y339081D02*
X622392Y350117D01*
X626928Y350117D01*
X626928Y339081D01*
X626928Y341203D02*
X622392Y341203D01*
X622392Y343325D02*
X626928Y343325D01*
X626928Y345447D02*
X622392Y345447D01*
X622392Y347569D02*
X626928Y347569D01*
X626928Y349691D02*
X622392Y349691D01*
X631892Y339081D02*
X636428Y339081D01*
X631892Y339081D02*
X631892Y350117D01*
X636428Y350117D01*
X636428Y339081D01*
X636428Y341203D02*
X631892Y341203D01*
X631892Y343325D02*
X636428Y343325D01*
X636428Y345447D02*
X631892Y345447D01*
X631892Y347569D02*
X636428Y347569D01*
X636428Y349691D02*
X631892Y349691D01*
X631892Y365083D02*
X636428Y365083D01*
X631892Y365083D02*
X631892Y376119D01*
X636428Y376119D01*
X636428Y365083D01*
X636428Y367205D02*
X631892Y367205D01*
X631892Y369327D02*
X636428Y369327D01*
X636428Y371449D02*
X631892Y371449D01*
X631892Y373571D02*
X636428Y373571D01*
X636428Y375693D02*
X631892Y375693D01*
X617428Y365083D02*
X612892Y365083D01*
X612892Y376119D01*
X617428Y376119D01*
X617428Y365083D01*
X617428Y367205D02*
X612892Y367205D01*
X612892Y369327D02*
X617428Y369327D01*
X617428Y371449D02*
X612892Y371449D01*
X612892Y373571D02*
X617428Y373571D01*
X617428Y375693D02*
X612892Y375693D01*
D14*
X631368Y277508D02*
X631368Y272492D01*
X626352Y272492D01*
X626352Y277508D01*
X631368Y277508D01*
X631368Y274633D02*
X626352Y274633D01*
X626352Y276774D02*
X631368Y276774D01*
X631368Y282492D02*
X631368Y287508D01*
X631368Y282492D02*
X626352Y282492D01*
X626352Y287508D01*
X631368Y287508D01*
X631368Y284633D02*
X626352Y284633D01*
X626352Y286774D02*
X631368Y286774D01*
X617868Y382492D02*
X612852Y382492D01*
X612852Y387508D01*
X617868Y387508D01*
X617868Y382492D01*
X617868Y384633D02*
X612852Y384633D01*
X612852Y386774D02*
X617868Y386774D01*
X622852Y382492D02*
X627868Y382492D01*
X622852Y382492D02*
X622852Y387508D01*
X627868Y387508D01*
X627868Y382492D01*
X627868Y384633D02*
X622852Y384633D01*
X622852Y386774D02*
X627868Y386774D01*
X624868Y437508D02*
X619852Y437508D01*
X624868Y437508D02*
X624868Y432492D01*
X619852Y432492D01*
X619852Y437508D01*
X619852Y434633D02*
X624868Y434633D01*
X624868Y436774D02*
X619852Y436774D01*
X614868Y437508D02*
X609852Y437508D01*
X614868Y437508D02*
X614868Y432492D01*
X609852Y432492D01*
X609852Y437508D01*
X609852Y434633D02*
X614868Y434633D01*
X614868Y436774D02*
X609852Y436774D01*
D20*
X618866Y466276D02*
X625854Y466276D01*
X618866Y466276D02*
X618866Y473264D01*
X625854Y473264D01*
X625854Y466276D01*
X625854Y470345D02*
X618866Y470345D01*
X618866Y448736D02*
X625854Y448736D01*
X618866Y448736D02*
X618866Y455724D01*
X625854Y455724D01*
X625854Y448736D01*
X625854Y452805D02*
X618866Y452805D01*
D23*
X526360Y262000D03*
X531360Y262000D03*
X536360Y262000D03*
X541360Y262000D03*
X541360Y242000D03*
X536360Y242000D03*
X531360Y242000D03*
X526360Y242000D03*
D24*
X533860Y252100D03*
D14*
X554868Y238508D02*
X554868Y233492D01*
X549852Y233492D01*
X549852Y238508D01*
X554868Y238508D01*
X554868Y235633D02*
X549852Y235633D01*
X549852Y237774D02*
X554868Y237774D01*
X554868Y243492D02*
X554868Y248508D01*
X554868Y243492D02*
X549852Y243492D01*
X549852Y248508D01*
X554868Y248508D01*
X554868Y245633D02*
X549852Y245633D01*
X549852Y247774D02*
X554868Y247774D01*
X566852Y93508D02*
X571868Y93508D01*
X571868Y88492D01*
X566852Y88492D01*
X566852Y93508D01*
X566852Y90633D02*
X571868Y90633D01*
X571868Y92774D02*
X566852Y92774D01*
X561868Y93508D02*
X556852Y93508D01*
X561868Y93508D02*
X561868Y88492D01*
X556852Y88492D01*
X556852Y93508D01*
X556852Y90633D02*
X561868Y90633D01*
X561868Y92774D02*
X556852Y92774D01*
D17*
X584533Y466823D02*
X590487Y466823D01*
X584533Y466823D02*
X584533Y472777D01*
X590487Y472777D01*
X590487Y466823D01*
X590487Y469023D02*
X584533Y469023D01*
X584533Y471223D02*
X590487Y471223D01*
X590487Y455823D02*
X584533Y455823D01*
X584533Y461777D01*
X590487Y461777D01*
X590487Y455823D01*
X590487Y458023D02*
X584533Y458023D01*
X584533Y460223D02*
X590487Y460223D01*
X572187Y455823D02*
X566233Y455823D01*
X566233Y461777D01*
X572187Y461777D01*
X572187Y455823D01*
X572187Y458023D02*
X566233Y458023D01*
X566233Y460223D02*
X572187Y460223D01*
X572187Y466823D02*
X566233Y466823D01*
X566233Y472777D01*
X572187Y472777D01*
X572187Y466823D01*
X572187Y469023D02*
X566233Y469023D01*
X566233Y471223D02*
X572187Y471223D01*
D14*
X570852Y441492D02*
X575868Y441492D01*
X570852Y441492D02*
X570852Y446508D01*
X575868Y446508D01*
X575868Y441492D01*
X575868Y443633D02*
X570852Y443633D01*
X570852Y445774D02*
X575868Y445774D01*
X580852Y441492D02*
X585868Y441492D01*
X580852Y441492D02*
X580852Y446508D01*
X585868Y446508D01*
X585868Y441492D01*
X585868Y443633D02*
X580852Y443633D01*
X580852Y445774D02*
X585868Y445774D01*
X500168Y481892D02*
X495152Y481892D01*
X495152Y486908D01*
X500168Y486908D01*
X500168Y481892D01*
X500168Y484033D02*
X495152Y484033D01*
X495152Y486174D02*
X500168Y486174D01*
X505152Y481892D02*
X510168Y481892D01*
X505152Y481892D02*
X505152Y486908D01*
X510168Y486908D01*
X510168Y481892D01*
X510168Y484033D02*
X505152Y484033D01*
X505152Y486174D02*
X510168Y486174D01*
X501168Y505492D02*
X496152Y505492D01*
X496152Y510508D01*
X501168Y510508D01*
X501168Y505492D01*
X501168Y507633D02*
X496152Y507633D01*
X496152Y509774D02*
X501168Y509774D01*
X506152Y505492D02*
X511168Y505492D01*
X506152Y505492D02*
X506152Y510508D01*
X511168Y510508D01*
X511168Y505492D01*
X511168Y507633D02*
X506152Y507633D01*
X506152Y509774D02*
X511168Y509774D01*
D25*
X621798Y223988D02*
X629322Y223988D01*
X621798Y223988D02*
X621798Y232012D01*
X629322Y232012D01*
X629322Y223988D01*
X629322Y226123D02*
X621798Y226123D01*
X621798Y228258D02*
X629322Y228258D01*
X629322Y230393D02*
X621798Y230393D01*
X633398Y223988D02*
X640922Y223988D01*
X633398Y223988D02*
X633398Y232012D01*
X640922Y232012D01*
X640922Y223988D01*
X640922Y226123D02*
X633398Y226123D01*
X633398Y228258D02*
X640922Y228258D01*
X640922Y230393D02*
X633398Y230393D01*
D14*
X634452Y246508D02*
X639468Y246508D01*
X639468Y241492D01*
X634452Y241492D01*
X634452Y246508D01*
X634452Y243633D02*
X639468Y243633D01*
X639468Y245774D02*
X634452Y245774D01*
X629468Y246508D02*
X624452Y246508D01*
X629468Y246508D02*
X629468Y241492D01*
X624452Y241492D01*
X624452Y246508D01*
X624452Y243633D02*
X629468Y243633D01*
X629468Y245774D02*
X624452Y245774D01*
X622868Y210492D02*
X617852Y210492D01*
X617852Y215508D01*
X622868Y215508D01*
X622868Y210492D01*
X622868Y212633D02*
X617852Y212633D01*
X617852Y214774D02*
X622868Y214774D01*
X627852Y210492D02*
X632868Y210492D01*
X627852Y210492D02*
X627852Y215508D01*
X632868Y215508D01*
X632868Y210492D01*
X632868Y212633D02*
X627852Y212633D01*
X627852Y214774D02*
X632868Y214774D01*
D20*
X547354Y462676D02*
X540366Y462676D01*
X540366Y469664D01*
X547354Y469664D01*
X547354Y462676D01*
X547354Y466745D02*
X540366Y466745D01*
X540366Y445136D02*
X547354Y445136D01*
X540366Y445136D02*
X540366Y452124D01*
X547354Y452124D01*
X547354Y445136D01*
X547354Y449205D02*
X540366Y449205D01*
D14*
X544852Y436508D02*
X549868Y436508D01*
X549868Y431492D01*
X544852Y431492D01*
X544852Y436508D01*
X544852Y433633D02*
X549868Y433633D01*
X549868Y435774D02*
X544852Y435774D01*
X539868Y436508D02*
X534852Y436508D01*
X539868Y436508D02*
X539868Y431492D01*
X534852Y431492D01*
X534852Y436508D01*
X534852Y433633D02*
X539868Y433633D01*
X539868Y435774D02*
X534852Y435774D01*
D26*
X681394Y69606D02*
X681394Y61594D01*
X681394Y69606D02*
X690406Y69606D01*
X690406Y61594D01*
X681394Y61594D01*
X681394Y63740D02*
X690406Y63740D01*
X690406Y65886D02*
X681394Y65886D01*
X681394Y68032D02*
X690406Y68032D01*
X665394Y69606D02*
X665394Y61594D01*
X665394Y69606D02*
X674406Y69606D01*
X674406Y61594D01*
X665394Y61594D01*
X665394Y63740D02*
X674406Y63740D01*
X674406Y65886D02*
X665394Y65886D01*
X665394Y68032D02*
X674406Y68032D01*
X665394Y102594D02*
X665394Y110606D01*
X674406Y110606D01*
X674406Y102594D01*
X665394Y102594D01*
X665394Y104740D02*
X674406Y104740D01*
X674406Y106886D02*
X665394Y106886D01*
X665394Y109032D02*
X674406Y109032D01*
X681394Y110606D02*
X681394Y102594D01*
X681394Y110606D02*
X690406Y110606D01*
X690406Y102594D01*
X681394Y102594D01*
X681394Y104740D02*
X690406Y104740D01*
X690406Y106886D02*
X681394Y106886D01*
X681394Y109032D02*
X690406Y109032D01*
D14*
X684868Y124508D02*
X679852Y124508D01*
X684868Y124508D02*
X684868Y119492D01*
X679852Y119492D01*
X679852Y124508D01*
X679852Y121633D02*
X684868Y121633D01*
X684868Y123774D02*
X679852Y123774D01*
X674868Y124508D02*
X669852Y124508D01*
X674868Y124508D02*
X674868Y119492D01*
X669852Y119492D01*
X669852Y124508D01*
X669852Y121633D02*
X674868Y121633D01*
X674868Y123774D02*
X669852Y123774D01*
D27*
X471903Y122407D02*
X471903Y111393D01*
X471903Y122407D02*
X490917Y122407D01*
X490917Y111393D01*
X471903Y111393D01*
X471903Y113536D02*
X490917Y113536D01*
X490917Y115679D02*
X471903Y115679D01*
X471903Y117822D02*
X490917Y117822D01*
X490917Y119965D02*
X471903Y119965D01*
X471903Y122108D02*
X490917Y122108D01*
X471903Y66407D02*
X471903Y55393D01*
X471903Y66407D02*
X490917Y66407D01*
X490917Y55393D01*
X471903Y55393D01*
X471903Y57536D02*
X490917Y57536D01*
X490917Y59679D02*
X471903Y59679D01*
X471903Y61822D02*
X490917Y61822D01*
X490917Y63965D02*
X471903Y63965D01*
X471903Y66108D02*
X490917Y66108D01*
D14*
X511902Y101392D02*
X511902Y106408D01*
X524418Y106408D01*
X524418Y101392D01*
X511902Y101392D01*
X511902Y103533D02*
X524418Y103533D01*
X524418Y105674D02*
X511902Y105674D01*
X511902Y96408D02*
X511902Y91392D01*
X511902Y96408D02*
X524418Y96408D01*
X524418Y91392D01*
X511902Y91392D01*
X511902Y93533D02*
X524418Y93533D01*
X524418Y95674D02*
X511902Y95674D01*
X511902Y86408D02*
X511902Y81392D01*
X511902Y86408D02*
X524418Y86408D01*
X524418Y81392D01*
X511902Y81392D01*
X511902Y83533D02*
X524418Y83533D01*
X524418Y85674D02*
X511902Y85674D01*
X511902Y76408D02*
X511902Y71392D01*
X511902Y76408D02*
X524418Y76408D01*
X524418Y71392D01*
X511902Y71392D01*
X511902Y73533D02*
X524418Y73533D01*
X524418Y75674D02*
X511902Y75674D01*
D21*
X565384Y129976D02*
X572336Y129976D01*
X572336Y122024D01*
X565384Y122024D01*
X565384Y129976D01*
X565384Y124226D02*
X572336Y124226D01*
X572336Y126428D02*
X565384Y126428D01*
X565384Y128630D02*
X572336Y128630D01*
X553336Y129976D02*
X546384Y129976D01*
X553336Y129976D02*
X553336Y122024D01*
X546384Y122024D01*
X546384Y129976D01*
X546384Y124226D02*
X553336Y124226D01*
X553336Y126428D02*
X546384Y126428D01*
X546384Y128630D02*
X553336Y128630D01*
X555884Y108976D02*
X562836Y108976D01*
X562836Y101024D01*
X555884Y101024D01*
X555884Y108976D01*
X555884Y103226D02*
X562836Y103226D01*
X562836Y105428D02*
X555884Y105428D01*
X555884Y107630D02*
X562836Y107630D01*
D14*
X586852Y152492D02*
X591868Y152492D01*
X586852Y152492D02*
X586852Y157508D01*
X591868Y157508D01*
X591868Y152492D01*
X591868Y154633D02*
X586852Y154633D01*
X586852Y156774D02*
X591868Y156774D01*
X596852Y152492D02*
X601868Y152492D01*
X596852Y152492D02*
X596852Y157508D01*
X601868Y157508D01*
X601868Y152492D01*
X601868Y154633D02*
X596852Y154633D01*
X596852Y156774D02*
X601868Y156774D01*
X585868Y134508D02*
X585868Y129492D01*
X580852Y129492D01*
X580852Y134508D01*
X585868Y134508D01*
X585868Y131633D02*
X580852Y131633D01*
X580852Y133774D02*
X585868Y133774D01*
X585868Y139492D02*
X585868Y144508D01*
X585868Y139492D02*
X580852Y139492D01*
X580852Y144508D01*
X585868Y144508D01*
X585868Y141633D02*
X580852Y141633D01*
X580852Y143774D02*
X585868Y143774D01*
D21*
X613384Y143976D02*
X620336Y143976D01*
X620336Y136024D01*
X613384Y136024D01*
X613384Y143976D01*
X613384Y138226D02*
X620336Y138226D01*
X620336Y140428D02*
X613384Y140428D01*
X613384Y142630D02*
X620336Y142630D01*
X601336Y143976D02*
X594384Y143976D01*
X601336Y143976D02*
X601336Y136024D01*
X594384Y136024D01*
X594384Y143976D01*
X594384Y138226D02*
X601336Y138226D01*
X601336Y140428D02*
X594384Y140428D01*
X594384Y142630D02*
X601336Y142630D01*
X603884Y122976D02*
X610836Y122976D01*
X610836Y115024D01*
X603884Y115024D01*
X603884Y122976D01*
X603884Y117226D02*
X610836Y117226D01*
X610836Y119428D02*
X603884Y119428D01*
X603884Y121630D02*
X610836Y121630D01*
D14*
X585868Y110508D02*
X585868Y105492D01*
X580852Y105492D01*
X580852Y110508D01*
X585868Y110508D01*
X585868Y107633D02*
X580852Y107633D01*
X580852Y109774D02*
X585868Y109774D01*
X585868Y115492D02*
X585868Y120508D01*
X585868Y115492D02*
X580852Y115492D01*
X580852Y120508D01*
X585868Y120508D01*
X585868Y117633D02*
X580852Y117633D01*
X580852Y119774D02*
X585868Y119774D01*
X643852Y612492D02*
X648868Y612492D01*
X643852Y612492D02*
X643852Y617508D01*
X648868Y617508D01*
X648868Y612492D01*
X648868Y614633D02*
X643852Y614633D01*
X643852Y616774D02*
X648868Y616774D01*
X653852Y612492D02*
X658868Y612492D01*
X653852Y612492D02*
X653852Y617508D01*
X658868Y617508D01*
X658868Y612492D01*
X658868Y614633D02*
X653852Y614633D01*
X653852Y616774D02*
X658868Y616774D01*
X648868Y602492D02*
X643852Y602492D01*
X643852Y607508D01*
X648868Y607508D01*
X648868Y602492D01*
X648868Y604633D02*
X643852Y604633D01*
X643852Y606774D02*
X648868Y606774D01*
X653852Y602492D02*
X658868Y602492D01*
X653852Y602492D02*
X653852Y607508D01*
X658868Y607508D01*
X658868Y602492D01*
X658868Y604633D02*
X653852Y604633D01*
X653852Y606774D02*
X658868Y606774D01*
D28*
X526100Y300490D02*
X522120Y300490D01*
X526100Y300490D02*
X526100Y298010D01*
X522120Y298010D01*
X522120Y300490D01*
X522120Y300185D02*
X526100Y300185D01*
X526100Y306990D02*
X522120Y306990D01*
X526100Y306990D02*
X526100Y304510D01*
X522120Y304510D01*
X522120Y306990D01*
X522120Y306685D02*
X526100Y306685D01*
X526100Y313490D02*
X522120Y313490D01*
X526100Y313490D02*
X526100Y311010D01*
X522120Y311010D01*
X522120Y313490D01*
X522120Y313185D02*
X526100Y313185D01*
X526100Y319990D02*
X522120Y319990D01*
X526100Y319990D02*
X526100Y317510D01*
X522120Y317510D01*
X522120Y319990D01*
X522120Y319685D02*
X526100Y319685D01*
X542620Y319990D02*
X546600Y319990D01*
X546600Y317510D01*
X542620Y317510D01*
X542620Y319990D01*
X542620Y319685D02*
X546600Y319685D01*
X546600Y313490D02*
X542620Y313490D01*
X546600Y313490D02*
X546600Y311010D01*
X542620Y311010D01*
X542620Y313490D01*
X542620Y313185D02*
X546600Y313185D01*
X546600Y306990D02*
X542620Y306990D01*
X546600Y306990D02*
X546600Y304510D01*
X542620Y304510D01*
X542620Y306990D01*
X542620Y306685D02*
X546600Y306685D01*
X546600Y300490D02*
X542620Y300490D01*
X546600Y300490D02*
X546600Y298010D01*
X542620Y298010D01*
X542620Y300490D01*
X542620Y300185D02*
X546600Y300185D01*
D14*
X558868Y310492D02*
X558868Y315508D01*
X558868Y310492D02*
X553852Y310492D01*
X553852Y315508D01*
X558868Y315508D01*
X558868Y312633D02*
X553852Y312633D01*
X553852Y314774D02*
X558868Y314774D01*
X558868Y320492D02*
X558868Y325508D01*
X558868Y320492D02*
X553852Y320492D01*
X553852Y325508D01*
X558868Y325508D01*
X558868Y322633D02*
X553852Y322633D01*
X553852Y324774D02*
X558868Y324774D01*
X546868Y291508D02*
X541852Y291508D01*
X546868Y291508D02*
X546868Y286492D01*
X541852Y286492D01*
X541852Y291508D01*
X541852Y288633D02*
X546868Y288633D01*
X546868Y290774D02*
X541852Y290774D01*
X536868Y291508D02*
X531852Y291508D01*
X536868Y291508D02*
X536868Y286492D01*
X531852Y286492D01*
X531852Y291508D01*
X531852Y288633D02*
X536868Y288633D01*
X536868Y290774D02*
X531852Y290774D01*
X541852Y281508D02*
X546868Y281508D01*
X546868Y276492D01*
X541852Y276492D01*
X541852Y281508D01*
X541852Y278633D02*
X546868Y278633D01*
X546868Y280774D02*
X541852Y280774D01*
X536868Y281508D02*
X531852Y281508D01*
X536868Y281508D02*
X536868Y276492D01*
X531852Y276492D01*
X531852Y281508D01*
X531852Y278633D02*
X536868Y278633D01*
X536868Y280774D02*
X531852Y280774D01*
D13*
X568153Y400218D02*
X571917Y400218D01*
X568153Y400218D02*
X568153Y402182D01*
X571917Y402182D01*
X571917Y400218D01*
X571917Y395218D02*
X568153Y395218D01*
X568153Y397182D01*
X571917Y397182D01*
X571917Y395218D01*
X571917Y390218D02*
X568153Y390218D01*
X568153Y392182D01*
X571917Y392182D01*
X571917Y390218D01*
X571917Y385218D02*
X568153Y385218D01*
X568153Y387182D01*
X571917Y387182D01*
X571917Y385218D01*
X591403Y387182D02*
X595167Y387182D01*
X595167Y385218D01*
X591403Y385218D01*
X591403Y387182D01*
X591403Y392182D02*
X595167Y392182D01*
X595167Y390218D01*
X591403Y390218D01*
X591403Y392182D01*
X591403Y397182D02*
X595167Y397182D01*
X595167Y395218D01*
X591403Y395218D01*
X591403Y397182D01*
X591403Y402182D02*
X595167Y402182D01*
X595167Y400218D01*
X591403Y400218D01*
X591403Y402182D01*
X577642Y381818D02*
X575678Y381818D01*
X575678Y385582D01*
X577642Y385582D01*
X577642Y381818D01*
X577642Y384009D02*
X575678Y384009D01*
X580678Y381818D02*
X582642Y381818D01*
X580678Y381818D02*
X580678Y385582D01*
X582642Y385582D01*
X582642Y381818D01*
X582642Y384009D02*
X580678Y384009D01*
X585678Y381818D02*
X587642Y381818D01*
X585678Y381818D02*
X585678Y385582D01*
X587642Y385582D01*
X587642Y381818D01*
X587642Y384009D02*
X585678Y384009D01*
X585678Y405582D02*
X587642Y405582D01*
X587642Y401818D01*
X585678Y401818D01*
X585678Y405582D01*
X585678Y404009D02*
X587642Y404009D01*
X582642Y405582D02*
X580678Y405582D01*
X582642Y405582D02*
X582642Y401818D01*
X580678Y401818D01*
X580678Y405582D01*
X580678Y404009D02*
X582642Y404009D01*
X577642Y405582D02*
X575678Y405582D01*
X577642Y405582D02*
X577642Y401818D01*
X575678Y401818D01*
X575678Y405582D01*
X575678Y404009D02*
X577642Y404009D01*
D14*
X604352Y426508D02*
X609368Y426508D01*
X609368Y421492D01*
X604352Y421492D01*
X604352Y426508D01*
X604352Y423633D02*
X609368Y423633D01*
X609368Y425774D02*
X604352Y425774D01*
X599368Y426508D02*
X594352Y426508D01*
X599368Y426508D02*
X599368Y421492D01*
X594352Y421492D01*
X594352Y426508D01*
X594352Y423633D02*
X599368Y423633D01*
X599368Y425774D02*
X594352Y425774D01*
X555852Y406108D02*
X555852Y401092D01*
X555852Y406108D02*
X560868Y406108D01*
X560868Y401092D01*
X555852Y401092D01*
X555852Y403233D02*
X560868Y403233D01*
X560868Y405374D02*
X555852Y405374D01*
X555852Y396108D02*
X555852Y391092D01*
X555852Y396108D02*
X560868Y396108D01*
X560868Y391092D01*
X555852Y391092D01*
X555852Y393233D02*
X560868Y393233D01*
X560868Y395374D02*
X555852Y395374D01*
X566852Y370492D02*
X571868Y370492D01*
X566852Y370492D02*
X566852Y375508D01*
X571868Y375508D01*
X571868Y370492D01*
X571868Y372633D02*
X566852Y372633D01*
X566852Y374774D02*
X571868Y374774D01*
X576852Y370492D02*
X581868Y370492D01*
X576852Y370492D02*
X576852Y375508D01*
X581868Y375508D01*
X581868Y370492D01*
X581868Y372633D02*
X576852Y372633D01*
X576852Y374774D02*
X581868Y374774D01*
X598852Y375508D02*
X603868Y375508D01*
X603868Y370492D01*
X598852Y370492D01*
X598852Y375508D01*
X598852Y372633D02*
X603868Y372633D01*
X603868Y374774D02*
X598852Y374774D01*
X593868Y375508D02*
X588852Y375508D01*
X593868Y375508D02*
X593868Y370492D01*
X588852Y370492D01*
X588852Y375508D01*
X588852Y372633D02*
X593868Y372633D01*
X593868Y374774D02*
X588852Y374774D01*
D29*
X615202Y285587D02*
X615202Y280253D01*
X603518Y280253D01*
X603518Y285587D01*
X615202Y285587D01*
X615202Y282425D02*
X603518Y282425D01*
X603518Y284597D02*
X615202Y284597D01*
X615202Y290413D02*
X615202Y295747D01*
X615202Y290413D02*
X603518Y290413D01*
X603518Y295747D01*
X615202Y295747D01*
X615202Y292585D02*
X603518Y292585D01*
X603518Y294757D02*
X615202Y294757D01*
D10*
X609360Y275300D03*
X609360Y300700D03*
D30*
X-26238Y633730D03*
X722198Y633730D03*
D31*
X-35293Y63500D02*
X-35290Y63722D01*
X-35282Y63944D01*
X-35268Y64166D01*
X-35249Y64388D01*
X-35225Y64608D01*
X-35195Y64829D01*
X-35160Y65048D01*
X-35119Y65267D01*
X-35073Y65484D01*
X-35022Y65700D01*
X-34965Y65915D01*
X-34903Y66129D01*
X-34836Y66340D01*
X-34764Y66551D01*
X-34686Y66759D01*
X-34604Y66965D01*
X-34516Y67169D01*
X-34424Y67372D01*
X-34326Y67571D01*
X-34224Y67768D01*
X-34117Y67963D01*
X-34005Y68155D01*
X-33888Y68344D01*
X-33767Y68531D01*
X-33641Y68714D01*
X-33511Y68894D01*
X-33376Y69071D01*
X-33238Y69244D01*
X-33095Y69414D01*
X-32947Y69581D01*
X-32796Y69744D01*
X-32641Y69903D01*
X-32482Y70058D01*
X-32319Y70209D01*
X-32152Y70357D01*
X-31982Y70500D01*
X-31809Y70638D01*
X-31632Y70773D01*
X-31452Y70903D01*
X-31269Y71029D01*
X-31082Y71150D01*
X-30893Y71267D01*
X-30701Y71379D01*
X-30506Y71486D01*
X-30309Y71588D01*
X-30110Y71686D01*
X-29907Y71778D01*
X-29703Y71866D01*
X-29497Y71948D01*
X-29289Y72026D01*
X-29078Y72098D01*
X-28867Y72165D01*
X-28653Y72227D01*
X-28438Y72284D01*
X-28222Y72335D01*
X-28005Y72381D01*
X-27786Y72422D01*
X-27567Y72457D01*
X-27346Y72487D01*
X-27126Y72511D01*
X-26904Y72530D01*
X-26682Y72544D01*
X-26460Y72552D01*
X-26238Y72555D01*
X-26016Y72552D01*
X-25794Y72544D01*
X-25572Y72530D01*
X-25350Y72511D01*
X-25130Y72487D01*
X-24909Y72457D01*
X-24690Y72422D01*
X-24471Y72381D01*
X-24254Y72335D01*
X-24038Y72284D01*
X-23823Y72227D01*
X-23609Y72165D01*
X-23398Y72098D01*
X-23187Y72026D01*
X-22979Y71948D01*
X-22773Y71866D01*
X-22569Y71778D01*
X-22366Y71686D01*
X-22167Y71588D01*
X-21970Y71486D01*
X-21775Y71379D01*
X-21583Y71267D01*
X-21394Y71150D01*
X-21207Y71029D01*
X-21024Y70903D01*
X-20844Y70773D01*
X-20667Y70638D01*
X-20494Y70500D01*
X-20324Y70357D01*
X-20157Y70209D01*
X-19994Y70058D01*
X-19835Y69903D01*
X-19680Y69744D01*
X-19529Y69581D01*
X-19381Y69414D01*
X-19238Y69244D01*
X-19100Y69071D01*
X-18965Y68894D01*
X-18835Y68714D01*
X-18709Y68531D01*
X-18588Y68344D01*
X-18471Y68155D01*
X-18359Y67963D01*
X-18252Y67768D01*
X-18150Y67571D01*
X-18052Y67372D01*
X-17960Y67169D01*
X-17872Y66965D01*
X-17790Y66759D01*
X-17712Y66551D01*
X-17640Y66340D01*
X-17573Y66129D01*
X-17511Y65915D01*
X-17454Y65700D01*
X-17403Y65484D01*
X-17357Y65267D01*
X-17316Y65048D01*
X-17281Y64829D01*
X-17251Y64608D01*
X-17227Y64388D01*
X-17208Y64166D01*
X-17194Y63944D01*
X-17186Y63722D01*
X-17183Y63500D01*
X-17186Y63278D01*
X-17194Y63056D01*
X-17208Y62834D01*
X-17227Y62612D01*
X-17251Y62392D01*
X-17281Y62171D01*
X-17316Y61952D01*
X-17357Y61733D01*
X-17403Y61516D01*
X-17454Y61300D01*
X-17511Y61085D01*
X-17573Y60871D01*
X-17640Y60660D01*
X-17712Y60449D01*
X-17790Y60241D01*
X-17872Y60035D01*
X-17960Y59831D01*
X-18052Y59628D01*
X-18150Y59429D01*
X-18252Y59232D01*
X-18359Y59037D01*
X-18471Y58845D01*
X-18588Y58656D01*
X-18709Y58469D01*
X-18835Y58286D01*
X-18965Y58106D01*
X-19100Y57929D01*
X-19238Y57756D01*
X-19381Y57586D01*
X-19529Y57419D01*
X-19680Y57256D01*
X-19835Y57097D01*
X-19994Y56942D01*
X-20157Y56791D01*
X-20324Y56643D01*
X-20494Y56500D01*
X-20667Y56362D01*
X-20844Y56227D01*
X-21024Y56097D01*
X-21207Y55971D01*
X-21394Y55850D01*
X-21583Y55733D01*
X-21775Y55621D01*
X-21970Y55514D01*
X-22167Y55412D01*
X-22366Y55314D01*
X-22569Y55222D01*
X-22773Y55134D01*
X-22979Y55052D01*
X-23187Y54974D01*
X-23398Y54902D01*
X-23609Y54835D01*
X-23823Y54773D01*
X-24038Y54716D01*
X-24254Y54665D01*
X-24471Y54619D01*
X-24690Y54578D01*
X-24909Y54543D01*
X-25130Y54513D01*
X-25350Y54489D01*
X-25572Y54470D01*
X-25794Y54456D01*
X-26016Y54448D01*
X-26238Y54445D01*
X-26460Y54448D01*
X-26682Y54456D01*
X-26904Y54470D01*
X-27126Y54489D01*
X-27346Y54513D01*
X-27567Y54543D01*
X-27786Y54578D01*
X-28005Y54619D01*
X-28222Y54665D01*
X-28438Y54716D01*
X-28653Y54773D01*
X-28867Y54835D01*
X-29078Y54902D01*
X-29289Y54974D01*
X-29497Y55052D01*
X-29703Y55134D01*
X-29907Y55222D01*
X-30110Y55314D01*
X-30309Y55412D01*
X-30506Y55514D01*
X-30701Y55621D01*
X-30893Y55733D01*
X-31082Y55850D01*
X-31269Y55971D01*
X-31452Y56097D01*
X-31632Y56227D01*
X-31809Y56362D01*
X-31982Y56500D01*
X-32152Y56643D01*
X-32319Y56791D01*
X-32482Y56942D01*
X-32641Y57097D01*
X-32796Y57256D01*
X-32947Y57419D01*
X-33095Y57586D01*
X-33238Y57756D01*
X-33376Y57929D01*
X-33511Y58106D01*
X-33641Y58286D01*
X-33767Y58469D01*
X-33888Y58656D01*
X-34005Y58845D01*
X-34117Y59037D01*
X-34224Y59232D01*
X-34326Y59429D01*
X-34424Y59628D01*
X-34516Y59831D01*
X-34604Y60035D01*
X-34686Y60241D01*
X-34764Y60449D01*
X-34836Y60660D01*
X-34903Y60871D01*
X-34965Y61085D01*
X-35022Y61300D01*
X-35073Y61516D01*
X-35119Y61733D01*
X-35160Y61952D01*
X-35195Y62171D01*
X-35225Y62392D01*
X-35249Y62612D01*
X-35268Y62834D01*
X-35282Y63056D01*
X-35290Y63278D01*
X-35293Y63500D01*
D32*
X-26238Y63500D03*
M02*
