G04 EAGLE Gerber RS-274X export*
G75*
%MOMM*%
%FSLAX34Y34*%
%LPD*%
%INSolderpaste Top*%
%IPPOS*%
%AMOC8*
5,1,8,0,0,1.08239X$1,22.5*%
G01*
%ADD10C,0.102000*%
%ADD11C,0.099000*%
%ADD12R,0.500000X0.500000*%
%ADD13R,0.950000X0.500000*%
%ADD14R,0.500000X0.950000*%
%ADD15C,0.100000*%
%ADD16C,0.096000*%
%ADD17C,0.300000*%
%ADD18C,0.104000*%
%ADD19C,0.100800*%
%ADD20R,0.250000X0.637500*%
%ADD21R,0.500000X0.640000*%
%ADD22C,0.105000*%
%ADD23C,0.101500*%

G36*
X390980Y42427D02*
X390980Y42427D01*
X390981Y42427D01*
X392049Y42446D01*
X392056Y42451D01*
X392060Y42447D01*
X393097Y42703D01*
X393102Y42710D01*
X393108Y42707D01*
X394062Y43188D01*
X394066Y43195D01*
X394071Y43194D01*
X394895Y43875D01*
X394896Y43883D01*
X394902Y43883D01*
X395553Y44730D01*
X395553Y44738D01*
X395559Y44739D01*
X396006Y45710D01*
X396004Y45718D01*
X396009Y45720D01*
X396228Y46766D01*
X396225Y46773D01*
X396229Y46776D01*
X396229Y58776D01*
X396226Y58781D01*
X396229Y58784D01*
X396049Y59879D01*
X396043Y59885D01*
X396046Y59890D01*
X395627Y60918D01*
X395620Y60922D01*
X395622Y60927D01*
X394985Y61836D01*
X394977Y61839D01*
X394977Y61844D01*
X394154Y62588D01*
X394146Y62589D01*
X394145Y62595D01*
X393177Y63137D01*
X393168Y63136D01*
X393166Y63142D01*
X392102Y63455D01*
X392097Y63453D01*
X392093Y63453D01*
X392091Y63457D01*
X390983Y63525D01*
X390977Y63521D01*
X390973Y63525D01*
X389865Y63355D01*
X389859Y63349D01*
X389854Y63352D01*
X388812Y62940D01*
X388808Y62933D01*
X388803Y62935D01*
X387878Y62301D01*
X387876Y62293D01*
X387870Y62294D01*
X387110Y61471D01*
X387109Y61462D01*
X387103Y61462D01*
X386546Y60490D01*
X386547Y60482D01*
X386541Y60480D01*
X386214Y59408D01*
X386217Y59400D01*
X386212Y59397D01*
X386131Y58280D01*
X386132Y58277D01*
X386131Y58276D01*
X386131Y46276D01*
X386136Y46269D01*
X386132Y46265D01*
X386351Y45321D01*
X386357Y45315D01*
X386355Y45310D01*
X386779Y44438D01*
X386786Y44435D01*
X386784Y44429D01*
X387391Y43673D01*
X387399Y43671D01*
X387399Y43665D01*
X388159Y43064D01*
X388168Y43064D01*
X388169Y43058D01*
X389044Y42640D01*
X389052Y42642D01*
X389054Y42637D01*
X390000Y42425D01*
X390007Y42428D01*
X390011Y42423D01*
X390980Y42427D01*
G37*
G36*
X157300Y42427D02*
X157300Y42427D01*
X157301Y42427D01*
X158369Y42446D01*
X158376Y42451D01*
X158380Y42447D01*
X159417Y42703D01*
X159422Y42710D01*
X159428Y42707D01*
X160382Y43188D01*
X160386Y43195D01*
X160391Y43194D01*
X161215Y43875D01*
X161216Y43883D01*
X161222Y43883D01*
X161873Y44730D01*
X161873Y44738D01*
X161879Y44739D01*
X162326Y45710D01*
X162324Y45718D01*
X162329Y45720D01*
X162548Y46766D01*
X162545Y46773D01*
X162549Y46776D01*
X162549Y58776D01*
X162546Y58781D01*
X162549Y58784D01*
X162369Y59879D01*
X162363Y59885D01*
X162366Y59890D01*
X161947Y60918D01*
X161940Y60922D01*
X161942Y60927D01*
X161305Y61836D01*
X161297Y61839D01*
X161297Y61844D01*
X160474Y62588D01*
X160466Y62589D01*
X160465Y62595D01*
X159497Y63137D01*
X159488Y63136D01*
X159486Y63142D01*
X158422Y63455D01*
X158417Y63453D01*
X158413Y63453D01*
X158411Y63457D01*
X157303Y63525D01*
X157297Y63521D01*
X157293Y63525D01*
X156185Y63355D01*
X156179Y63349D01*
X156174Y63352D01*
X155132Y62940D01*
X155128Y62933D01*
X155123Y62935D01*
X154198Y62301D01*
X154196Y62293D01*
X154190Y62294D01*
X153430Y61471D01*
X153429Y61462D01*
X153423Y61462D01*
X152866Y60490D01*
X152867Y60482D01*
X152861Y60480D01*
X152534Y59408D01*
X152537Y59400D01*
X152532Y59397D01*
X152451Y58280D01*
X152452Y58277D01*
X152451Y58276D01*
X152451Y46276D01*
X152456Y46269D01*
X152452Y46265D01*
X152671Y45321D01*
X152677Y45315D01*
X152675Y45310D01*
X153099Y44438D01*
X153106Y44435D01*
X153104Y44429D01*
X153711Y43673D01*
X153719Y43671D01*
X153719Y43665D01*
X154479Y43064D01*
X154488Y43064D01*
X154489Y43058D01*
X155364Y42640D01*
X155372Y42642D01*
X155374Y42637D01*
X156320Y42425D01*
X156327Y42428D01*
X156331Y42423D01*
X157300Y42427D01*
G37*
G36*
X624660Y42427D02*
X624660Y42427D01*
X624661Y42427D01*
X625729Y42446D01*
X625736Y42451D01*
X625740Y42447D01*
X626777Y42703D01*
X626782Y42710D01*
X626788Y42707D01*
X627742Y43188D01*
X627746Y43195D01*
X627751Y43194D01*
X628575Y43875D01*
X628576Y43883D01*
X628582Y43883D01*
X629233Y44730D01*
X629233Y44738D01*
X629239Y44739D01*
X629686Y45710D01*
X629684Y45718D01*
X629689Y45720D01*
X629908Y46766D01*
X629905Y46773D01*
X629909Y46776D01*
X629909Y58776D01*
X629906Y58781D01*
X629909Y58784D01*
X629729Y59879D01*
X629723Y59885D01*
X629726Y59890D01*
X629307Y60918D01*
X629300Y60922D01*
X629302Y60927D01*
X628665Y61836D01*
X628657Y61839D01*
X628657Y61844D01*
X627834Y62588D01*
X627826Y62589D01*
X627825Y62595D01*
X626857Y63137D01*
X626848Y63136D01*
X626846Y63142D01*
X625782Y63455D01*
X625777Y63453D01*
X625773Y63453D01*
X625771Y63457D01*
X624663Y63525D01*
X624657Y63521D01*
X624653Y63525D01*
X623545Y63355D01*
X623539Y63349D01*
X623534Y63352D01*
X622492Y62940D01*
X622488Y62933D01*
X622483Y62935D01*
X621558Y62301D01*
X621556Y62293D01*
X621550Y62294D01*
X620790Y61471D01*
X620789Y61462D01*
X620783Y61462D01*
X620226Y60490D01*
X620227Y60482D01*
X620221Y60480D01*
X619894Y59408D01*
X619897Y59400D01*
X619892Y59397D01*
X619811Y58280D01*
X619812Y58277D01*
X619811Y58276D01*
X619811Y46276D01*
X619816Y46269D01*
X619812Y46265D01*
X620031Y45321D01*
X620037Y45315D01*
X620035Y45310D01*
X620459Y44438D01*
X620466Y44435D01*
X620464Y44429D01*
X621071Y43673D01*
X621079Y43671D01*
X621079Y43665D01*
X621839Y43064D01*
X621848Y43064D01*
X621849Y43058D01*
X622724Y42640D01*
X622732Y42642D01*
X622734Y42637D01*
X623680Y42425D01*
X623687Y42428D01*
X623691Y42423D01*
X624660Y42427D01*
G37*
G36*
X539241Y42436D02*
X539241Y42436D01*
X539248Y42441D01*
X539252Y42437D01*
X540304Y42687D01*
X540309Y42693D01*
X540314Y42690D01*
X541284Y43167D01*
X541287Y43175D01*
X541293Y43173D01*
X542132Y43854D01*
X542134Y43862D01*
X542140Y43862D01*
X542806Y44713D01*
X542807Y44721D01*
X542812Y44722D01*
X543273Y45699D01*
X543271Y45707D01*
X543277Y45710D01*
X543508Y46765D01*
X543505Y46773D01*
X543509Y46776D01*
X543509Y58776D01*
X543505Y58781D01*
X543509Y58784D01*
X543316Y59890D01*
X543310Y59895D01*
X543313Y59900D01*
X542880Y60935D01*
X542873Y60939D01*
X542875Y60944D01*
X542222Y61857D01*
X542214Y61859D01*
X542215Y61865D01*
X541376Y62609D01*
X541367Y62610D01*
X541367Y62615D01*
X540383Y63154D01*
X540375Y63153D01*
X540373Y63158D01*
X539294Y63465D01*
X539286Y63462D01*
X539283Y63467D01*
X538163Y63525D01*
X538158Y63522D01*
X538155Y63525D01*
X537109Y63407D01*
X537103Y63401D01*
X537098Y63405D01*
X536104Y63057D01*
X536100Y63050D01*
X536095Y63052D01*
X535203Y62492D01*
X535201Y62485D01*
X535195Y62485D01*
X534451Y61741D01*
X534449Y61733D01*
X534444Y61733D01*
X533884Y60841D01*
X533884Y60833D01*
X533879Y60832D01*
X533531Y59838D01*
X533534Y59830D01*
X533529Y59827D01*
X533411Y58782D01*
X533413Y58778D01*
X533411Y58776D01*
X533411Y46776D01*
X533414Y46771D01*
X533411Y46768D01*
X533569Y45772D01*
X533575Y45766D01*
X533572Y45761D01*
X533947Y44825D01*
X533954Y44821D01*
X533952Y44815D01*
X534526Y43986D01*
X534534Y43983D01*
X534533Y43978D01*
X535277Y43297D01*
X535286Y43296D01*
X535286Y43290D01*
X536163Y42792D01*
X536172Y42793D01*
X536174Y42788D01*
X537139Y42497D01*
X537147Y42500D01*
X537150Y42495D01*
X538157Y42427D01*
X538159Y42428D01*
X538160Y42427D01*
X539241Y42436D01*
G37*
G36*
X305561Y42436D02*
X305561Y42436D01*
X305568Y42441D01*
X305572Y42437D01*
X306624Y42687D01*
X306629Y42693D01*
X306634Y42690D01*
X307604Y43167D01*
X307607Y43175D01*
X307613Y43173D01*
X308452Y43854D01*
X308454Y43862D01*
X308460Y43862D01*
X309126Y44713D01*
X309127Y44721D01*
X309132Y44722D01*
X309593Y45699D01*
X309591Y45707D01*
X309597Y45710D01*
X309828Y46765D01*
X309825Y46773D01*
X309829Y46776D01*
X309829Y58776D01*
X309825Y58781D01*
X309829Y58784D01*
X309636Y59890D01*
X309630Y59895D01*
X309633Y59900D01*
X309200Y60935D01*
X309193Y60939D01*
X309195Y60944D01*
X308542Y61857D01*
X308534Y61859D01*
X308535Y61865D01*
X307696Y62609D01*
X307687Y62610D01*
X307687Y62615D01*
X306703Y63154D01*
X306695Y63153D01*
X306693Y63158D01*
X305614Y63465D01*
X305606Y63462D01*
X305603Y63467D01*
X304483Y63525D01*
X304478Y63522D01*
X304475Y63525D01*
X303429Y63407D01*
X303423Y63401D01*
X303418Y63405D01*
X302424Y63057D01*
X302420Y63050D01*
X302415Y63052D01*
X301523Y62492D01*
X301521Y62485D01*
X301515Y62485D01*
X300771Y61741D01*
X300769Y61733D01*
X300764Y61733D01*
X300204Y60841D01*
X300204Y60833D01*
X300199Y60832D01*
X299851Y59838D01*
X299854Y59830D01*
X299849Y59827D01*
X299731Y58782D01*
X299733Y58778D01*
X299731Y58776D01*
X299731Y46776D01*
X299734Y46771D01*
X299731Y46768D01*
X299889Y45772D01*
X299895Y45766D01*
X299892Y45761D01*
X300267Y44825D01*
X300274Y44821D01*
X300272Y44815D01*
X300846Y43986D01*
X300854Y43983D01*
X300853Y43978D01*
X301597Y43297D01*
X301606Y43296D01*
X301606Y43290D01*
X302483Y42792D01*
X302492Y42793D01*
X302494Y42788D01*
X303459Y42497D01*
X303467Y42500D01*
X303470Y42495D01*
X304477Y42427D01*
X304479Y42428D01*
X304480Y42427D01*
X305561Y42436D01*
G37*
G36*
X71881Y42436D02*
X71881Y42436D01*
X71888Y42441D01*
X71892Y42437D01*
X72944Y42687D01*
X72949Y42693D01*
X72954Y42690D01*
X73924Y43167D01*
X73927Y43175D01*
X73933Y43173D01*
X74772Y43854D01*
X74774Y43862D01*
X74780Y43862D01*
X75446Y44713D01*
X75447Y44721D01*
X75452Y44722D01*
X75913Y45699D01*
X75911Y45707D01*
X75917Y45710D01*
X76148Y46765D01*
X76145Y46773D01*
X76149Y46776D01*
X76149Y58776D01*
X76145Y58781D01*
X76149Y58784D01*
X75956Y59890D01*
X75950Y59895D01*
X75953Y59900D01*
X75520Y60935D01*
X75513Y60939D01*
X75515Y60944D01*
X74862Y61857D01*
X74854Y61859D01*
X74855Y61865D01*
X74016Y62609D01*
X74007Y62610D01*
X74007Y62615D01*
X73023Y63154D01*
X73015Y63153D01*
X73013Y63158D01*
X71934Y63465D01*
X71926Y63462D01*
X71923Y63467D01*
X70803Y63525D01*
X70798Y63522D01*
X70795Y63525D01*
X69749Y63407D01*
X69743Y63401D01*
X69738Y63405D01*
X68744Y63057D01*
X68740Y63050D01*
X68735Y63052D01*
X67843Y62492D01*
X67841Y62485D01*
X67835Y62485D01*
X67091Y61741D01*
X67089Y61733D01*
X67084Y61733D01*
X66524Y60841D01*
X66524Y60833D01*
X66519Y60832D01*
X66171Y59838D01*
X66174Y59830D01*
X66169Y59827D01*
X66051Y58782D01*
X66053Y58778D01*
X66051Y58776D01*
X66051Y46776D01*
X66054Y46771D01*
X66051Y46768D01*
X66209Y45772D01*
X66215Y45766D01*
X66212Y45761D01*
X66587Y44825D01*
X66594Y44821D01*
X66592Y44815D01*
X67166Y43986D01*
X67174Y43983D01*
X67173Y43978D01*
X67917Y43297D01*
X67926Y43296D01*
X67926Y43290D01*
X68803Y42792D01*
X68812Y42793D01*
X68814Y42788D01*
X69779Y42497D01*
X69787Y42500D01*
X69790Y42495D01*
X70797Y42427D01*
X70799Y42428D01*
X70800Y42427D01*
X71881Y42436D01*
G37*
G36*
X625164Y2931D02*
X625164Y2931D01*
X625167Y2927D01*
X626243Y3082D01*
X626248Y3088D01*
X626253Y3085D01*
X627267Y3475D01*
X627271Y3482D01*
X627277Y3481D01*
X628179Y4087D01*
X628181Y4095D01*
X628187Y4094D01*
X628931Y4886D01*
X628932Y4894D01*
X628938Y4894D01*
X629487Y5832D01*
X629486Y5840D01*
X629492Y5842D01*
X629819Y6878D01*
X629816Y6886D01*
X629821Y6889D01*
X629909Y7972D01*
X629907Y7975D01*
X629909Y7976D01*
X629909Y13976D01*
X629906Y13980D01*
X629909Y13982D01*
X629759Y15115D01*
X629753Y15121D01*
X629756Y15126D01*
X629358Y16196D01*
X629351Y16200D01*
X629353Y16206D01*
X628726Y17161D01*
X628718Y17164D01*
X628719Y17169D01*
X627896Y17961D01*
X627888Y17962D01*
X627887Y17968D01*
X626908Y18557D01*
X626900Y18556D01*
X626898Y18561D01*
X625813Y18917D01*
X625805Y18915D01*
X625802Y18919D01*
X624665Y19025D01*
X624656Y19020D01*
X624651Y19024D01*
X623514Y18817D01*
X623508Y18811D01*
X623503Y18814D01*
X622441Y18359D01*
X622437Y18352D01*
X622431Y18354D01*
X621496Y17674D01*
X621494Y17666D01*
X621488Y17667D01*
X620728Y16796D01*
X620728Y16788D01*
X620722Y16787D01*
X620175Y15768D01*
X620176Y15760D01*
X620171Y15758D01*
X620167Y15745D01*
X620154Y15696D01*
X620153Y15696D01*
X620154Y15696D01*
X620140Y15647D01*
X620126Y15597D01*
X620113Y15548D01*
X620099Y15499D01*
X620086Y15450D01*
X620072Y15400D01*
X620059Y15351D01*
X620045Y15302D01*
X620031Y15253D01*
X620018Y15203D01*
X620004Y15154D01*
X619991Y15105D01*
X619977Y15056D01*
X619964Y15006D01*
X619950Y14957D01*
X619937Y14908D01*
X619936Y14908D01*
X619923Y14859D01*
X619909Y14809D01*
X619864Y14644D01*
X619867Y14636D01*
X619862Y14633D01*
X619811Y13478D01*
X619812Y13477D01*
X619811Y13476D01*
X619811Y7476D01*
X619815Y7470D01*
X619812Y7467D01*
X620024Y6386D01*
X620030Y6381D01*
X620027Y6376D01*
X620474Y5370D01*
X620481Y5366D01*
X620479Y5360D01*
X621139Y4479D01*
X621147Y4476D01*
X621147Y4471D01*
X621986Y3758D01*
X621994Y3758D01*
X621995Y3752D01*
X622972Y3244D01*
X622980Y3245D01*
X622982Y3240D01*
X624047Y2962D01*
X624055Y2965D01*
X624058Y2961D01*
X625159Y2927D01*
X625164Y2931D01*
G37*
G36*
X157804Y2931D02*
X157804Y2931D01*
X157807Y2927D01*
X158883Y3082D01*
X158888Y3088D01*
X158893Y3085D01*
X159907Y3475D01*
X159911Y3482D01*
X159917Y3481D01*
X160819Y4087D01*
X160821Y4095D01*
X160827Y4094D01*
X161571Y4886D01*
X161572Y4894D01*
X161578Y4894D01*
X162127Y5832D01*
X162126Y5840D01*
X162132Y5842D01*
X162459Y6878D01*
X162456Y6886D01*
X162461Y6889D01*
X162549Y7972D01*
X162547Y7975D01*
X162549Y7976D01*
X162549Y13976D01*
X162546Y13980D01*
X162549Y13982D01*
X162399Y15115D01*
X162393Y15121D01*
X162396Y15126D01*
X161998Y16196D01*
X161991Y16200D01*
X161993Y16206D01*
X161366Y17161D01*
X161358Y17164D01*
X161359Y17169D01*
X160536Y17961D01*
X160528Y17962D01*
X160527Y17968D01*
X159548Y18557D01*
X159540Y18556D01*
X159538Y18561D01*
X158453Y18917D01*
X158445Y18915D01*
X158442Y18919D01*
X157305Y19025D01*
X157296Y19020D01*
X157291Y19024D01*
X156154Y18817D01*
X156148Y18811D01*
X156143Y18814D01*
X155081Y18359D01*
X155077Y18352D01*
X155071Y18354D01*
X154136Y17674D01*
X154134Y17666D01*
X154128Y17667D01*
X153368Y16796D01*
X153368Y16788D01*
X153362Y16787D01*
X152815Y15768D01*
X152816Y15760D01*
X152811Y15758D01*
X152807Y15745D01*
X152794Y15696D01*
X152793Y15696D01*
X152794Y15696D01*
X152780Y15647D01*
X152766Y15597D01*
X152753Y15548D01*
X152739Y15499D01*
X152726Y15450D01*
X152712Y15400D01*
X152699Y15351D01*
X152685Y15302D01*
X152671Y15253D01*
X152658Y15203D01*
X152644Y15154D01*
X152631Y15105D01*
X152617Y15056D01*
X152604Y15006D01*
X152590Y14957D01*
X152577Y14908D01*
X152576Y14908D01*
X152563Y14859D01*
X152549Y14809D01*
X152504Y14644D01*
X152507Y14636D01*
X152502Y14633D01*
X152451Y13478D01*
X152452Y13477D01*
X152451Y13476D01*
X152451Y7476D01*
X152455Y7470D01*
X152452Y7467D01*
X152664Y6386D01*
X152670Y6381D01*
X152667Y6376D01*
X153114Y5370D01*
X153121Y5366D01*
X153119Y5360D01*
X153779Y4479D01*
X153787Y4476D01*
X153787Y4471D01*
X154626Y3758D01*
X154634Y3758D01*
X154635Y3752D01*
X155612Y3244D01*
X155620Y3245D01*
X155622Y3240D01*
X156687Y2962D01*
X156695Y2965D01*
X156698Y2961D01*
X157799Y2927D01*
X157804Y2931D01*
G37*
G36*
X391484Y2931D02*
X391484Y2931D01*
X391487Y2927D01*
X392563Y3082D01*
X392568Y3088D01*
X392573Y3085D01*
X393587Y3475D01*
X393591Y3482D01*
X393597Y3481D01*
X394499Y4087D01*
X394501Y4095D01*
X394507Y4094D01*
X395251Y4886D01*
X395252Y4894D01*
X395258Y4894D01*
X395807Y5832D01*
X395806Y5840D01*
X395812Y5842D01*
X396139Y6878D01*
X396136Y6886D01*
X396141Y6889D01*
X396229Y7972D01*
X396227Y7975D01*
X396229Y7976D01*
X396229Y13976D01*
X396226Y13980D01*
X396229Y13982D01*
X396079Y15115D01*
X396073Y15121D01*
X396076Y15126D01*
X395678Y16196D01*
X395671Y16200D01*
X395673Y16206D01*
X395046Y17161D01*
X395038Y17164D01*
X395039Y17169D01*
X394216Y17961D01*
X394208Y17962D01*
X394207Y17968D01*
X393228Y18557D01*
X393220Y18556D01*
X393218Y18561D01*
X392133Y18917D01*
X392125Y18915D01*
X392122Y18919D01*
X390985Y19025D01*
X390976Y19020D01*
X390971Y19024D01*
X389834Y18817D01*
X389828Y18811D01*
X389823Y18814D01*
X388761Y18359D01*
X388757Y18352D01*
X388751Y18354D01*
X387816Y17674D01*
X387814Y17666D01*
X387808Y17667D01*
X387048Y16796D01*
X387048Y16788D01*
X387042Y16787D01*
X386495Y15768D01*
X386496Y15760D01*
X386491Y15758D01*
X386487Y15745D01*
X386474Y15696D01*
X386473Y15696D01*
X386474Y15696D01*
X386460Y15647D01*
X386446Y15597D01*
X386433Y15548D01*
X386419Y15499D01*
X386406Y15450D01*
X386392Y15400D01*
X386379Y15351D01*
X386365Y15302D01*
X386351Y15253D01*
X386338Y15203D01*
X386324Y15154D01*
X386311Y15105D01*
X386297Y15056D01*
X386284Y15006D01*
X386270Y14957D01*
X386257Y14908D01*
X386256Y14908D01*
X386243Y14859D01*
X386229Y14809D01*
X386184Y14644D01*
X386187Y14636D01*
X386182Y14633D01*
X386131Y13478D01*
X386132Y13477D01*
X386131Y13476D01*
X386131Y7476D01*
X386135Y7470D01*
X386132Y7467D01*
X386344Y6386D01*
X386350Y6381D01*
X386347Y6376D01*
X386794Y5370D01*
X386801Y5366D01*
X386799Y5360D01*
X387459Y4479D01*
X387467Y4476D01*
X387467Y4471D01*
X388306Y3758D01*
X388314Y3758D01*
X388315Y3752D01*
X389292Y3244D01*
X389300Y3245D01*
X389302Y3240D01*
X390367Y2962D01*
X390375Y2965D01*
X390378Y2961D01*
X391479Y2927D01*
X391484Y2931D01*
G37*
G36*
X304982Y2931D02*
X304982Y2931D01*
X304987Y2927D01*
X306074Y3072D01*
X306080Y3078D01*
X306085Y3075D01*
X307113Y3459D01*
X307118Y3465D01*
X307123Y3464D01*
X308040Y4066D01*
X308043Y4074D01*
X308049Y4073D01*
X308809Y4865D01*
X308810Y4873D01*
X308816Y4874D01*
X309380Y5815D01*
X309380Y5818D01*
X309381Y5819D01*
X309380Y5821D01*
X309379Y5823D01*
X309385Y5825D01*
X309726Y6868D01*
X309724Y6876D01*
X309728Y6879D01*
X309829Y7972D01*
X309827Y7974D01*
X309829Y7976D01*
X309829Y13976D01*
X309827Y13979D01*
X309829Y13981D01*
X309728Y15073D01*
X309723Y15079D01*
X309726Y15084D01*
X309385Y16127D01*
X309378Y16132D01*
X309380Y16137D01*
X308816Y17078D01*
X308808Y17081D01*
X308809Y17087D01*
X308049Y17879D01*
X308041Y17880D01*
X308040Y17886D01*
X307123Y18489D01*
X307115Y18488D01*
X307113Y18494D01*
X306085Y18877D01*
X306077Y18875D01*
X306074Y18880D01*
X304987Y19025D01*
X304979Y19021D01*
X304975Y19025D01*
X303838Y18919D01*
X303832Y18914D01*
X303827Y18917D01*
X302742Y18561D01*
X302737Y18554D01*
X302732Y18557D01*
X301753Y17968D01*
X301750Y17960D01*
X301744Y17961D01*
X300921Y17169D01*
X300920Y17161D01*
X300914Y17161D01*
X300287Y16206D01*
X300288Y16198D01*
X300282Y16196D01*
X299884Y15126D01*
X299886Y15118D01*
X299881Y15115D01*
X299731Y13982D01*
X299734Y13978D01*
X299731Y13976D01*
X299731Y7976D01*
X299734Y7972D01*
X299731Y7970D01*
X299881Y6837D01*
X299887Y6831D01*
X299884Y6826D01*
X300282Y5756D01*
X300289Y5752D01*
X300287Y5746D01*
X300914Y4791D01*
X300922Y4788D01*
X300921Y4783D01*
X301744Y3991D01*
X301752Y3990D01*
X301753Y3984D01*
X302732Y3395D01*
X302740Y3396D01*
X302742Y3391D01*
X303827Y3035D01*
X303835Y3038D01*
X303838Y3033D01*
X304975Y2927D01*
X304982Y2931D01*
G37*
G36*
X71302Y2931D02*
X71302Y2931D01*
X71307Y2927D01*
X72394Y3072D01*
X72400Y3078D01*
X72405Y3075D01*
X73433Y3459D01*
X73438Y3465D01*
X73443Y3464D01*
X74360Y4066D01*
X74363Y4074D01*
X74369Y4073D01*
X75129Y4865D01*
X75130Y4873D01*
X75136Y4874D01*
X75700Y5815D01*
X75700Y5818D01*
X75701Y5819D01*
X75700Y5821D01*
X75699Y5823D01*
X75705Y5825D01*
X76046Y6868D01*
X76044Y6876D01*
X76048Y6879D01*
X76149Y7972D01*
X76147Y7974D01*
X76149Y7976D01*
X76149Y13976D01*
X76147Y13979D01*
X76149Y13981D01*
X76048Y15073D01*
X76043Y15079D01*
X76046Y15084D01*
X75705Y16127D01*
X75698Y16132D01*
X75700Y16137D01*
X75136Y17078D01*
X75128Y17081D01*
X75129Y17087D01*
X74369Y17879D01*
X74361Y17880D01*
X74360Y17886D01*
X73443Y18489D01*
X73435Y18488D01*
X73433Y18494D01*
X72405Y18877D01*
X72397Y18875D01*
X72394Y18880D01*
X71307Y19025D01*
X71299Y19021D01*
X71295Y19025D01*
X70158Y18919D01*
X70152Y18914D01*
X70147Y18917D01*
X69062Y18561D01*
X69057Y18554D01*
X69052Y18557D01*
X68073Y17968D01*
X68070Y17960D01*
X68064Y17961D01*
X67241Y17169D01*
X67240Y17161D01*
X67234Y17161D01*
X66607Y16206D01*
X66608Y16198D01*
X66602Y16196D01*
X66204Y15126D01*
X66206Y15118D01*
X66201Y15115D01*
X66051Y13982D01*
X66054Y13978D01*
X66051Y13976D01*
X66051Y7976D01*
X66054Y7972D01*
X66051Y7970D01*
X66201Y6837D01*
X66207Y6831D01*
X66204Y6826D01*
X66602Y5756D01*
X66609Y5752D01*
X66607Y5746D01*
X67234Y4791D01*
X67242Y4788D01*
X67241Y4783D01*
X68064Y3991D01*
X68072Y3990D01*
X68073Y3984D01*
X69052Y3395D01*
X69060Y3396D01*
X69062Y3391D01*
X70147Y3035D01*
X70155Y3038D01*
X70158Y3033D01*
X71295Y2927D01*
X71302Y2931D01*
G37*
G36*
X538662Y2931D02*
X538662Y2931D01*
X538667Y2927D01*
X539754Y3072D01*
X539760Y3078D01*
X539765Y3075D01*
X540793Y3459D01*
X540798Y3465D01*
X540803Y3464D01*
X541720Y4066D01*
X541723Y4074D01*
X541729Y4073D01*
X542489Y4865D01*
X542490Y4873D01*
X542496Y4874D01*
X543060Y5815D01*
X543060Y5818D01*
X543061Y5819D01*
X543060Y5821D01*
X543059Y5823D01*
X543065Y5825D01*
X543406Y6868D01*
X543404Y6876D01*
X543408Y6879D01*
X543509Y7972D01*
X543507Y7974D01*
X543509Y7976D01*
X543509Y13976D01*
X543507Y13979D01*
X543509Y13981D01*
X543408Y15073D01*
X543403Y15079D01*
X543406Y15084D01*
X543065Y16127D01*
X543058Y16132D01*
X543060Y16137D01*
X542496Y17078D01*
X542488Y17081D01*
X542489Y17087D01*
X541729Y17879D01*
X541721Y17880D01*
X541720Y17886D01*
X540803Y18489D01*
X540795Y18488D01*
X540793Y18494D01*
X539765Y18877D01*
X539757Y18875D01*
X539754Y18880D01*
X538667Y19025D01*
X538659Y19021D01*
X538655Y19025D01*
X537518Y18919D01*
X537512Y18914D01*
X537507Y18917D01*
X536422Y18561D01*
X536417Y18554D01*
X536412Y18557D01*
X535433Y17968D01*
X535430Y17960D01*
X535424Y17961D01*
X534601Y17169D01*
X534600Y17161D01*
X534594Y17161D01*
X533967Y16206D01*
X533968Y16198D01*
X533962Y16196D01*
X533564Y15126D01*
X533566Y15118D01*
X533561Y15115D01*
X533411Y13982D01*
X533414Y13978D01*
X533411Y13976D01*
X533411Y7976D01*
X533414Y7972D01*
X533411Y7970D01*
X533561Y6837D01*
X533567Y6831D01*
X533564Y6826D01*
X533962Y5756D01*
X533969Y5752D01*
X533967Y5746D01*
X534594Y4791D01*
X534602Y4788D01*
X534601Y4783D01*
X535424Y3991D01*
X535432Y3990D01*
X535433Y3984D01*
X536412Y3395D01*
X536420Y3396D01*
X536422Y3391D01*
X537507Y3035D01*
X537515Y3038D01*
X537518Y3033D01*
X538655Y2927D01*
X538662Y2931D01*
G37*
D10*
X122790Y54086D02*
X120810Y54086D01*
X120810Y63066D01*
X122790Y63066D01*
X122790Y54086D01*
X122790Y55055D02*
X120810Y55055D01*
X120810Y56024D02*
X122790Y56024D01*
X122790Y56993D02*
X120810Y56993D01*
X120810Y57962D02*
X122790Y57962D01*
X122790Y58931D02*
X120810Y58931D01*
X120810Y59900D02*
X122790Y59900D01*
X122790Y60869D02*
X120810Y60869D01*
X120810Y61838D02*
X122790Y61838D01*
X122790Y62807D02*
X120810Y62807D01*
X117790Y54086D02*
X115810Y54086D01*
X115810Y63066D01*
X117790Y63066D01*
X117790Y54086D01*
X117790Y55055D02*
X115810Y55055D01*
X115810Y56024D02*
X117790Y56024D01*
X117790Y56993D02*
X115810Y56993D01*
X115810Y57962D02*
X117790Y57962D01*
X117790Y58931D02*
X115810Y58931D01*
X115810Y59900D02*
X117790Y59900D01*
X117790Y60869D02*
X115810Y60869D01*
X115810Y61838D02*
X117790Y61838D01*
X117790Y62807D02*
X115810Y62807D01*
X144060Y54086D02*
X149040Y54086D01*
X144060Y54086D02*
X144060Y63066D01*
X149040Y63066D01*
X149040Y54086D01*
X149040Y55055D02*
X144060Y55055D01*
X144060Y56024D02*
X149040Y56024D01*
X149040Y56993D02*
X144060Y56993D01*
X144060Y57962D02*
X149040Y57962D01*
X149040Y58931D02*
X144060Y58931D01*
X144060Y59900D02*
X149040Y59900D01*
X149040Y60869D02*
X144060Y60869D01*
X144060Y61838D02*
X149040Y61838D01*
X149040Y62807D02*
X144060Y62807D01*
X141290Y54086D02*
X136310Y54086D01*
X136310Y63066D01*
X141290Y63066D01*
X141290Y54086D01*
X141290Y55055D02*
X136310Y55055D01*
X136310Y56024D02*
X141290Y56024D01*
X141290Y56993D02*
X136310Y56993D01*
X136310Y57962D02*
X141290Y57962D01*
X141290Y58931D02*
X136310Y58931D01*
X136310Y59900D02*
X141290Y59900D01*
X141290Y60869D02*
X136310Y60869D01*
X136310Y61838D02*
X141290Y61838D01*
X141290Y62807D02*
X136310Y62807D01*
X132790Y54086D02*
X130810Y54086D01*
X130810Y63066D01*
X132790Y63066D01*
X132790Y54086D01*
X132790Y55055D02*
X130810Y55055D01*
X130810Y56024D02*
X132790Y56024D01*
X132790Y56993D02*
X130810Y56993D01*
X130810Y57962D02*
X132790Y57962D01*
X132790Y58931D02*
X130810Y58931D01*
X130810Y59900D02*
X132790Y59900D01*
X132790Y60869D02*
X130810Y60869D01*
X130810Y61838D02*
X132790Y61838D01*
X132790Y62807D02*
X130810Y62807D01*
X127790Y54086D02*
X125810Y54086D01*
X125810Y63066D01*
X127790Y63066D01*
X127790Y54086D01*
X127790Y55055D02*
X125810Y55055D01*
X125810Y56024D02*
X127790Y56024D01*
X127790Y56993D02*
X125810Y56993D01*
X125810Y57962D02*
X127790Y57962D01*
X127790Y58931D02*
X125810Y58931D01*
X125810Y59900D02*
X127790Y59900D01*
X127790Y60869D02*
X125810Y60869D01*
X125810Y61838D02*
X127790Y61838D01*
X127790Y62807D02*
X125810Y62807D01*
X107790Y63066D02*
X105810Y63066D01*
X107790Y63066D02*
X107790Y54086D01*
X105810Y54086D01*
X105810Y63066D01*
X105810Y55055D02*
X107790Y55055D01*
X107790Y56024D02*
X105810Y56024D01*
X105810Y56993D02*
X107790Y56993D01*
X107790Y57962D02*
X105810Y57962D01*
X105810Y58931D02*
X107790Y58931D01*
X107790Y59900D02*
X105810Y59900D01*
X105810Y60869D02*
X107790Y60869D01*
X107790Y61838D02*
X105810Y61838D01*
X105810Y62807D02*
X107790Y62807D01*
X110810Y63066D02*
X112790Y63066D01*
X112790Y54086D01*
X110810Y54086D01*
X110810Y63066D01*
X110810Y55055D02*
X112790Y55055D01*
X112790Y56024D02*
X110810Y56024D01*
X110810Y56993D02*
X112790Y56993D01*
X112790Y57962D02*
X110810Y57962D01*
X110810Y58931D02*
X112790Y58931D01*
X112790Y59900D02*
X110810Y59900D01*
X110810Y60869D02*
X112790Y60869D01*
X112790Y61838D02*
X110810Y61838D01*
X110810Y62807D02*
X112790Y62807D01*
X84540Y63066D02*
X79560Y63066D01*
X84540Y63066D02*
X84540Y54086D01*
X79560Y54086D01*
X79560Y63066D01*
X79560Y55055D02*
X84540Y55055D01*
X84540Y56024D02*
X79560Y56024D01*
X79560Y56993D02*
X84540Y56993D01*
X84540Y57962D02*
X79560Y57962D01*
X79560Y58931D02*
X84540Y58931D01*
X84540Y59900D02*
X79560Y59900D01*
X79560Y60869D02*
X84540Y60869D01*
X84540Y61838D02*
X79560Y61838D01*
X79560Y62807D02*
X84540Y62807D01*
X87310Y63066D02*
X92290Y63066D01*
X92290Y54086D01*
X87310Y54086D01*
X87310Y63066D01*
X87310Y55055D02*
X92290Y55055D01*
X92290Y56024D02*
X87310Y56024D01*
X87310Y56993D02*
X92290Y56993D01*
X92290Y57962D02*
X87310Y57962D01*
X87310Y58931D02*
X92290Y58931D01*
X92290Y59900D02*
X87310Y59900D01*
X87310Y60869D02*
X92290Y60869D01*
X92290Y61838D02*
X87310Y61838D01*
X87310Y62807D02*
X92290Y62807D01*
X95810Y63066D02*
X97790Y63066D01*
X97790Y54086D01*
X95810Y54086D01*
X95810Y63066D01*
X95810Y55055D02*
X97790Y55055D01*
X97790Y56024D02*
X95810Y56024D01*
X95810Y56993D02*
X97790Y56993D01*
X97790Y57962D02*
X95810Y57962D01*
X95810Y58931D02*
X97790Y58931D01*
X97790Y59900D02*
X95810Y59900D01*
X95810Y60869D02*
X97790Y60869D01*
X97790Y61838D02*
X95810Y61838D01*
X95810Y62807D02*
X97790Y62807D01*
X100810Y63066D02*
X102790Y63066D01*
X102790Y54086D01*
X100810Y54086D01*
X100810Y63066D01*
X100810Y55055D02*
X102790Y55055D01*
X102790Y56024D02*
X100810Y56024D01*
X100810Y56993D02*
X102790Y56993D01*
X102790Y57962D02*
X100810Y57962D01*
X100810Y58931D02*
X102790Y58931D01*
X102790Y59900D02*
X100810Y59900D01*
X100810Y60869D02*
X102790Y60869D01*
X102790Y61838D02*
X100810Y61838D01*
X100810Y62807D02*
X102790Y62807D01*
D11*
X181006Y88245D02*
X181006Y92755D01*
X181006Y88245D02*
X168496Y88245D01*
X168496Y92755D01*
X181006Y92755D01*
X181006Y89185D02*
X168496Y89185D01*
X168496Y90125D02*
X181006Y90125D01*
X181006Y91065D02*
X168496Y91065D01*
X168496Y92005D02*
X181006Y92005D01*
X181006Y97745D02*
X181006Y102255D01*
X181006Y97745D02*
X168496Y97745D01*
X168496Y102255D01*
X181006Y102255D01*
X181006Y98685D02*
X168496Y98685D01*
X168496Y99625D02*
X181006Y99625D01*
X181006Y100565D02*
X168496Y100565D01*
X168496Y101505D02*
X181006Y101505D01*
X181006Y107245D02*
X181006Y111755D01*
X181006Y107245D02*
X168496Y107245D01*
X168496Y111755D01*
X181006Y111755D01*
X181006Y108185D02*
X168496Y108185D01*
X168496Y109125D02*
X181006Y109125D01*
X181006Y110065D02*
X168496Y110065D01*
X168496Y111005D02*
X181006Y111005D01*
X153504Y111755D02*
X153504Y107245D01*
X140994Y107245D01*
X140994Y111755D01*
X153504Y111755D01*
X153504Y108185D02*
X140994Y108185D01*
X140994Y109125D02*
X153504Y109125D01*
X153504Y110065D02*
X140994Y110065D01*
X140994Y111005D02*
X153504Y111005D01*
X153504Y102255D02*
X153504Y97745D01*
X140994Y97745D01*
X140994Y102255D01*
X153504Y102255D01*
X153504Y98685D02*
X140994Y98685D01*
X140994Y99625D02*
X153504Y99625D01*
X153504Y100565D02*
X140994Y100565D01*
X140994Y101505D02*
X153504Y101505D01*
X153504Y92755D02*
X153504Y88245D01*
X140994Y88245D01*
X140994Y92755D01*
X153504Y92755D01*
X153504Y89185D02*
X140994Y89185D01*
X140994Y90125D02*
X153504Y90125D01*
X153504Y91065D02*
X140994Y91065D01*
X140994Y92005D02*
X153504Y92005D01*
D10*
X171510Y60490D02*
X171510Y55510D01*
X171510Y60490D02*
X176490Y60490D01*
X176490Y55510D01*
X171510Y55510D01*
X171510Y56479D02*
X176490Y56479D01*
X176490Y57448D02*
X171510Y57448D01*
X171510Y58417D02*
X176490Y58417D01*
X176490Y59386D02*
X171510Y59386D01*
X171510Y60355D02*
X176490Y60355D01*
X171510Y50490D02*
X171510Y45510D01*
X171510Y50490D02*
X176490Y50490D01*
X176490Y45510D01*
X171510Y45510D01*
X171510Y46479D02*
X176490Y46479D01*
X176490Y47448D02*
X171510Y47448D01*
X171510Y48417D02*
X176490Y48417D01*
X176490Y49386D02*
X171510Y49386D01*
X171510Y50355D02*
X176490Y50355D01*
X94290Y72710D02*
X89310Y72710D01*
X89310Y77690D01*
X94290Y77690D01*
X94290Y72710D01*
X94290Y73679D02*
X89310Y73679D01*
X89310Y74648D02*
X94290Y74648D01*
X94290Y75617D02*
X89310Y75617D01*
X89310Y76586D02*
X94290Y76586D01*
X94290Y77555D02*
X89310Y77555D01*
X99310Y72710D02*
X104290Y72710D01*
X99310Y72710D02*
X99310Y77690D01*
X104290Y77690D01*
X104290Y72710D01*
X104290Y73679D02*
X99310Y73679D01*
X99310Y74648D02*
X104290Y74648D01*
X104290Y75617D02*
X99310Y75617D01*
X99310Y76586D02*
X104290Y76586D01*
X104290Y77555D02*
X99310Y77555D01*
D12*
X139800Y539900D03*
X139800Y550900D03*
X139800Y561900D03*
X139800Y572900D03*
X139800Y583900D03*
X139800Y594900D03*
X84800Y539900D03*
X84800Y550900D03*
X84800Y561900D03*
X84800Y572900D03*
X84800Y583900D03*
X84800Y594900D03*
X128800Y539900D03*
X117800Y539900D03*
X106800Y539900D03*
X95800Y539900D03*
X72300Y513900D03*
X82300Y513900D03*
X92300Y513900D03*
X102300Y513900D03*
X112300Y513900D03*
X122300Y513900D03*
X132300Y513900D03*
X142300Y513900D03*
X152300Y513900D03*
X95050Y564650D03*
X106550Y564650D03*
X118050Y564650D03*
X129550Y564650D03*
X106550Y576150D03*
X118050Y576150D03*
X106550Y553150D03*
X118050Y553150D03*
X95050Y587650D03*
X106550Y587650D03*
X118050Y587650D03*
X129550Y587650D03*
X68800Y625400D03*
X68800Y650900D03*
X155800Y650900D03*
X155800Y625400D03*
D13*
X153550Y525400D03*
X153550Y535400D03*
X153550Y545400D03*
X153550Y555400D03*
X153550Y565400D03*
X153550Y575400D03*
X153550Y585400D03*
X153550Y595400D03*
X153550Y605400D03*
X153550Y615400D03*
X71050Y525400D03*
X71050Y535400D03*
X71050Y545400D03*
X71050Y555400D03*
X71050Y565400D03*
X71050Y575400D03*
X71050Y585400D03*
X71050Y595400D03*
X71050Y605400D03*
X71050Y615400D03*
D14*
X132300Y526150D03*
X122300Y526150D03*
X112300Y526150D03*
X102300Y526150D03*
X92300Y526150D03*
X132300Y614650D03*
X122300Y614650D03*
X112300Y614650D03*
X102300Y614650D03*
X92300Y614650D03*
D15*
X95060Y172300D02*
X95060Y163300D01*
X50060Y163300D01*
X50060Y172300D01*
X95060Y172300D01*
X95060Y164250D02*
X50060Y164250D01*
X50060Y165200D02*
X95060Y165200D01*
X95060Y166150D02*
X50060Y166150D01*
X50060Y167100D02*
X95060Y167100D01*
X95060Y168050D02*
X50060Y168050D01*
X50060Y169000D02*
X95060Y169000D01*
X95060Y169950D02*
X50060Y169950D01*
X50060Y170900D02*
X95060Y170900D01*
X95060Y171850D02*
X50060Y171850D01*
X95060Y183300D02*
X95060Y192300D01*
X95060Y183300D02*
X50060Y183300D01*
X50060Y192300D01*
X95060Y192300D01*
X95060Y184250D02*
X50060Y184250D01*
X50060Y185200D02*
X95060Y185200D01*
X95060Y186150D02*
X50060Y186150D01*
X50060Y187100D02*
X95060Y187100D01*
X95060Y188050D02*
X50060Y188050D01*
X50060Y189000D02*
X95060Y189000D01*
X95060Y189950D02*
X50060Y189950D01*
X50060Y190900D02*
X95060Y190900D01*
X95060Y191850D02*
X50060Y191850D01*
D16*
X37080Y151320D02*
X4040Y151320D01*
X37080Y151320D02*
X37080Y136280D01*
X4040Y136280D01*
X4040Y151320D01*
X4040Y137192D02*
X37080Y137192D01*
X37080Y138104D02*
X4040Y138104D01*
X4040Y139016D02*
X37080Y139016D01*
X37080Y139928D02*
X4040Y139928D01*
X4040Y140840D02*
X37080Y140840D01*
X37080Y141752D02*
X4040Y141752D01*
X4040Y142664D02*
X37080Y142664D01*
X37080Y143576D02*
X4040Y143576D01*
X4040Y144488D02*
X37080Y144488D01*
X37080Y145400D02*
X4040Y145400D01*
X4040Y146312D02*
X37080Y146312D01*
X37080Y147224D02*
X4040Y147224D01*
X4040Y148136D02*
X37080Y148136D01*
X37080Y149048D02*
X4040Y149048D01*
X4040Y149960D02*
X37080Y149960D01*
X37080Y150872D02*
X4040Y150872D01*
X4040Y219320D02*
X37080Y219320D01*
X37080Y204280D01*
X4040Y204280D01*
X4040Y219320D01*
X4040Y205192D02*
X37080Y205192D01*
X37080Y206104D02*
X4040Y206104D01*
X4040Y207016D02*
X37080Y207016D01*
X37080Y207928D02*
X4040Y207928D01*
X4040Y208840D02*
X37080Y208840D01*
X37080Y209752D02*
X4040Y209752D01*
X4040Y210664D02*
X37080Y210664D01*
X37080Y211576D02*
X4040Y211576D01*
X4040Y212488D02*
X37080Y212488D01*
X37080Y213400D02*
X4040Y213400D01*
X4040Y214312D02*
X37080Y214312D01*
X37080Y215224D02*
X4040Y215224D01*
X4040Y216136D02*
X37080Y216136D01*
X37080Y217048D02*
X4040Y217048D01*
X4040Y217960D02*
X37080Y217960D01*
X37080Y218872D02*
X4040Y218872D01*
D11*
X122794Y193255D02*
X122794Y188745D01*
X122794Y193255D02*
X133804Y193255D01*
X133804Y188745D01*
X122794Y188745D01*
X122794Y189685D02*
X133804Y189685D01*
X133804Y190625D02*
X122794Y190625D01*
X122794Y191565D02*
X133804Y191565D01*
X133804Y192505D02*
X122794Y192505D01*
X122794Y183755D02*
X122794Y179245D01*
X122794Y183755D02*
X133804Y183755D01*
X133804Y179245D01*
X122794Y179245D01*
X122794Y180185D02*
X133804Y180185D01*
X133804Y181125D02*
X122794Y181125D01*
X122794Y182065D02*
X133804Y182065D01*
X133804Y183005D02*
X122794Y183005D01*
X122794Y174255D02*
X122794Y169745D01*
X122794Y174255D02*
X133804Y174255D01*
X133804Y169745D01*
X122794Y169745D01*
X122794Y170685D02*
X133804Y170685D01*
X133804Y171625D02*
X122794Y171625D01*
X122794Y172565D02*
X133804Y172565D01*
X133804Y173505D02*
X122794Y173505D01*
X148796Y174255D02*
X148796Y169745D01*
X148796Y174255D02*
X159806Y174255D01*
X159806Y169745D01*
X148796Y169745D01*
X148796Y170685D02*
X159806Y170685D01*
X159806Y171625D02*
X148796Y171625D01*
X148796Y172565D02*
X159806Y172565D01*
X159806Y173505D02*
X148796Y173505D01*
X148796Y188745D02*
X148796Y193255D01*
X159806Y193255D01*
X159806Y188745D01*
X148796Y188745D01*
X148796Y189685D02*
X159806Y189685D01*
X159806Y190625D02*
X148796Y190625D01*
X148796Y191565D02*
X159806Y191565D01*
X159806Y192505D02*
X148796Y192505D01*
D17*
X117270Y203500D02*
X117270Y210500D01*
X124270Y210500D01*
X124270Y203500D01*
X117270Y203500D01*
X117270Y206350D02*
X124270Y206350D01*
X124270Y209200D02*
X117270Y209200D01*
X99730Y210500D02*
X99730Y203500D01*
X99730Y210500D02*
X106730Y210500D01*
X106730Y203500D01*
X99730Y203500D01*
X99730Y206350D02*
X106730Y206350D01*
X106730Y209200D02*
X99730Y209200D01*
D10*
X104510Y217510D02*
X109490Y217510D01*
X104510Y217510D02*
X104510Y222490D01*
X109490Y222490D01*
X109490Y217510D01*
X109490Y218479D02*
X104510Y218479D01*
X104510Y219448D02*
X109490Y219448D01*
X109490Y220417D02*
X104510Y220417D01*
X104510Y221386D02*
X109490Y221386D01*
X109490Y222355D02*
X104510Y222355D01*
X114510Y217510D02*
X119490Y217510D01*
X114510Y217510D02*
X114510Y222490D01*
X119490Y222490D01*
X119490Y217510D01*
X119490Y218479D02*
X114510Y218479D01*
X114510Y219448D02*
X119490Y219448D01*
X119490Y220417D02*
X114510Y220417D01*
X114510Y221386D02*
X119490Y221386D01*
X119490Y222355D02*
X114510Y222355D01*
X166510Y174490D02*
X166510Y169510D01*
X166510Y174490D02*
X171490Y174490D01*
X171490Y169510D01*
X166510Y169510D01*
X166510Y170479D02*
X171490Y170479D01*
X171490Y171448D02*
X166510Y171448D01*
X166510Y172417D02*
X171490Y172417D01*
X171490Y173386D02*
X166510Y173386D01*
X166510Y174355D02*
X171490Y174355D01*
X166510Y164490D02*
X166510Y159510D01*
X166510Y164490D02*
X171490Y164490D01*
X171490Y159510D01*
X166510Y159510D01*
X166510Y160479D02*
X171490Y160479D01*
X171490Y161448D02*
X166510Y161448D01*
X166510Y162417D02*
X171490Y162417D01*
X171490Y163386D02*
X166510Y163386D01*
X166510Y164355D02*
X171490Y164355D01*
X174510Y198510D02*
X174510Y203490D01*
X179490Y203490D01*
X179490Y198510D01*
X174510Y198510D01*
X174510Y199479D02*
X179490Y199479D01*
X179490Y200448D02*
X174510Y200448D01*
X174510Y201417D02*
X179490Y201417D01*
X179490Y202386D02*
X174510Y202386D01*
X174510Y203355D02*
X179490Y203355D01*
X174510Y193490D02*
X174510Y188510D01*
X174510Y193490D02*
X179490Y193490D01*
X179490Y188510D01*
X174510Y188510D01*
X174510Y189479D02*
X179490Y189479D01*
X179490Y190448D02*
X174510Y190448D01*
X174510Y191417D02*
X179490Y191417D01*
X179490Y192386D02*
X174510Y192386D01*
X174510Y193355D02*
X179490Y193355D01*
X107510Y174490D02*
X107510Y169510D01*
X107510Y174490D02*
X112490Y174490D01*
X112490Y169510D01*
X107510Y169510D01*
X107510Y170479D02*
X112490Y170479D01*
X112490Y171448D02*
X107510Y171448D01*
X107510Y172417D02*
X112490Y172417D01*
X112490Y173386D02*
X107510Y173386D01*
X107510Y174355D02*
X112490Y174355D01*
X107510Y164490D02*
X107510Y159510D01*
X107510Y164490D02*
X112490Y164490D01*
X112490Y159510D01*
X107510Y159510D01*
X107510Y160479D02*
X112490Y160479D01*
X112490Y161448D02*
X107510Y161448D01*
X107510Y162417D02*
X112490Y162417D01*
X112490Y163386D02*
X107510Y163386D01*
X107510Y164355D02*
X112490Y164355D01*
D18*
X125980Y231020D02*
X125980Y237980D01*
X125980Y231020D02*
X118020Y231020D01*
X118020Y237980D01*
X125980Y237980D01*
X125980Y232008D02*
X118020Y232008D01*
X118020Y232996D02*
X125980Y232996D01*
X125980Y233984D02*
X118020Y233984D01*
X118020Y234972D02*
X125980Y234972D01*
X125980Y235960D02*
X118020Y235960D01*
X118020Y236948D02*
X125980Y236948D01*
X125980Y237936D02*
X118020Y237936D01*
X125980Y250020D02*
X125980Y256980D01*
X125980Y250020D02*
X118020Y250020D01*
X118020Y256980D01*
X125980Y256980D01*
X125980Y251008D02*
X118020Y251008D01*
X118020Y251996D02*
X125980Y251996D01*
X125980Y252984D02*
X118020Y252984D01*
X118020Y253972D02*
X125980Y253972D01*
X125980Y254960D02*
X118020Y254960D01*
X118020Y255948D02*
X125980Y255948D01*
X125980Y256936D02*
X118020Y256936D01*
X104980Y247480D02*
X104980Y240520D01*
X97020Y240520D01*
X97020Y247480D01*
X104980Y247480D01*
X104980Y241508D02*
X97020Y241508D01*
X97020Y242496D02*
X104980Y242496D01*
X104980Y243484D02*
X97020Y243484D01*
X97020Y244472D02*
X104980Y244472D01*
X104980Y245460D02*
X97020Y245460D01*
X97020Y246448D02*
X104980Y246448D01*
X104980Y247436D02*
X97020Y247436D01*
D19*
X138154Y252854D02*
X138154Y258146D01*
X145446Y258146D01*
X145446Y252854D01*
X138154Y252854D01*
X138154Y253812D02*
X145446Y253812D01*
X145446Y254770D02*
X138154Y254770D01*
X138154Y255728D02*
X145446Y255728D01*
X145446Y256686D02*
X138154Y256686D01*
X138154Y257644D02*
X145446Y257644D01*
X138154Y235146D02*
X138154Y229854D01*
X138154Y235146D02*
X145446Y235146D01*
X145446Y229854D01*
X138154Y229854D01*
X138154Y230812D02*
X145446Y230812D01*
X145446Y231770D02*
X138154Y231770D01*
X138154Y232728D02*
X145446Y232728D01*
X145446Y233686D02*
X138154Y233686D01*
X138154Y234644D02*
X145446Y234644D01*
D10*
X160510Y203490D02*
X165490Y203490D01*
X165490Y198510D01*
X160510Y198510D01*
X160510Y203490D01*
X160510Y199479D02*
X165490Y199479D01*
X165490Y200448D02*
X160510Y200448D01*
X160510Y201417D02*
X165490Y201417D01*
X165490Y202386D02*
X160510Y202386D01*
X160510Y203355D02*
X165490Y203355D01*
X155490Y203490D02*
X150510Y203490D01*
X155490Y203490D02*
X155490Y198510D01*
X150510Y198510D01*
X150510Y203490D01*
X150510Y199479D02*
X155490Y199479D01*
X155490Y200448D02*
X150510Y200448D01*
X150510Y201417D02*
X155490Y201417D01*
X155490Y202386D02*
X150510Y202386D01*
X150510Y203355D02*
X155490Y203355D01*
X170510Y272510D02*
X170510Y277490D01*
X175490Y277490D01*
X175490Y272510D01*
X170510Y272510D01*
X170510Y273479D02*
X175490Y273479D01*
X175490Y274448D02*
X170510Y274448D01*
X170510Y275417D02*
X175490Y275417D01*
X175490Y276386D02*
X170510Y276386D01*
X170510Y277355D02*
X175490Y277355D01*
X170510Y267490D02*
X170510Y262510D01*
X170510Y267490D02*
X175490Y267490D01*
X175490Y262510D01*
X170510Y262510D01*
X170510Y263479D02*
X175490Y263479D01*
X175490Y264448D02*
X170510Y264448D01*
X170510Y265417D02*
X175490Y265417D01*
X175490Y266386D02*
X170510Y266386D01*
X170510Y267355D02*
X175490Y267355D01*
D11*
X150055Y339094D02*
X145545Y339094D01*
X145545Y350104D01*
X150055Y350104D01*
X150055Y339094D01*
X150055Y340034D02*
X145545Y340034D01*
X145545Y340974D02*
X150055Y340974D01*
X150055Y341914D02*
X145545Y341914D01*
X145545Y342854D02*
X150055Y342854D01*
X150055Y343794D02*
X145545Y343794D01*
X145545Y344734D02*
X150055Y344734D01*
X150055Y345674D02*
X145545Y345674D01*
X145545Y346614D02*
X150055Y346614D01*
X150055Y347554D02*
X145545Y347554D01*
X145545Y348494D02*
X150055Y348494D01*
X150055Y349434D02*
X145545Y349434D01*
X155045Y339094D02*
X159555Y339094D01*
X155045Y339094D02*
X155045Y350104D01*
X159555Y350104D01*
X159555Y339094D01*
X159555Y340034D02*
X155045Y340034D01*
X155045Y340974D02*
X159555Y340974D01*
X159555Y341914D02*
X155045Y341914D01*
X155045Y342854D02*
X159555Y342854D01*
X159555Y343794D02*
X155045Y343794D01*
X155045Y344734D02*
X159555Y344734D01*
X159555Y345674D02*
X155045Y345674D01*
X155045Y346614D02*
X159555Y346614D01*
X159555Y347554D02*
X155045Y347554D01*
X155045Y348494D02*
X159555Y348494D01*
X159555Y349434D02*
X155045Y349434D01*
X164545Y339094D02*
X169055Y339094D01*
X164545Y339094D02*
X164545Y350104D01*
X169055Y350104D01*
X169055Y339094D01*
X169055Y340034D02*
X164545Y340034D01*
X164545Y340974D02*
X169055Y340974D01*
X169055Y341914D02*
X164545Y341914D01*
X164545Y342854D02*
X169055Y342854D01*
X169055Y343794D02*
X164545Y343794D01*
X164545Y344734D02*
X169055Y344734D01*
X169055Y345674D02*
X164545Y345674D01*
X164545Y346614D02*
X169055Y346614D01*
X169055Y347554D02*
X164545Y347554D01*
X164545Y348494D02*
X169055Y348494D01*
X169055Y349434D02*
X164545Y349434D01*
X164545Y365096D02*
X169055Y365096D01*
X164545Y365096D02*
X164545Y376106D01*
X169055Y376106D01*
X169055Y365096D01*
X169055Y366036D02*
X164545Y366036D01*
X164545Y366976D02*
X169055Y366976D01*
X169055Y367916D02*
X164545Y367916D01*
X164545Y368856D02*
X169055Y368856D01*
X169055Y369796D02*
X164545Y369796D01*
X164545Y370736D02*
X169055Y370736D01*
X169055Y371676D02*
X164545Y371676D01*
X164545Y372616D02*
X169055Y372616D01*
X169055Y373556D02*
X164545Y373556D01*
X164545Y374496D02*
X169055Y374496D01*
X169055Y375436D02*
X164545Y375436D01*
X150055Y365096D02*
X145545Y365096D01*
X145545Y376106D01*
X150055Y376106D01*
X150055Y365096D01*
X150055Y366036D02*
X145545Y366036D01*
X145545Y366976D02*
X150055Y366976D01*
X150055Y367916D02*
X145545Y367916D01*
X145545Y368856D02*
X150055Y368856D01*
X150055Y369796D02*
X145545Y369796D01*
X145545Y370736D02*
X150055Y370736D01*
X150055Y371676D02*
X145545Y371676D01*
X145545Y372616D02*
X150055Y372616D01*
X150055Y373556D02*
X145545Y373556D01*
X145545Y374496D02*
X150055Y374496D01*
X150055Y375436D02*
X145545Y375436D01*
D10*
X163990Y277490D02*
X163990Y272510D01*
X159010Y272510D01*
X159010Y277490D01*
X163990Y277490D01*
X163990Y273479D02*
X159010Y273479D01*
X159010Y274448D02*
X163990Y274448D01*
X163990Y275417D02*
X159010Y275417D01*
X159010Y276386D02*
X163990Y276386D01*
X163990Y277355D02*
X159010Y277355D01*
X163990Y282510D02*
X163990Y287490D01*
X163990Y282510D02*
X159010Y282510D01*
X159010Y287490D01*
X163990Y287490D01*
X163990Y283479D02*
X159010Y283479D01*
X159010Y284448D02*
X163990Y284448D01*
X163990Y285417D02*
X159010Y285417D01*
X159010Y286386D02*
X163990Y286386D01*
X163990Y287355D02*
X159010Y287355D01*
X150490Y382510D02*
X145510Y382510D01*
X145510Y387490D01*
X150490Y387490D01*
X150490Y382510D01*
X150490Y383479D02*
X145510Y383479D01*
X145510Y384448D02*
X150490Y384448D01*
X150490Y385417D02*
X145510Y385417D01*
X145510Y386386D02*
X150490Y386386D01*
X150490Y387355D02*
X145510Y387355D01*
X155510Y382510D02*
X160490Y382510D01*
X155510Y382510D02*
X155510Y387490D01*
X160490Y387490D01*
X160490Y382510D01*
X160490Y383479D02*
X155510Y383479D01*
X155510Y384448D02*
X160490Y384448D01*
X160490Y385417D02*
X155510Y385417D01*
X155510Y386386D02*
X160490Y386386D01*
X160490Y387355D02*
X155510Y387355D01*
X157490Y437490D02*
X152510Y437490D01*
X157490Y437490D02*
X157490Y432510D01*
X152510Y432510D01*
X152510Y437490D01*
X152510Y433479D02*
X157490Y433479D01*
X157490Y434448D02*
X152510Y434448D01*
X152510Y435417D02*
X157490Y435417D01*
X157490Y436386D02*
X152510Y436386D01*
X152510Y437355D02*
X157490Y437355D01*
X147490Y437490D02*
X142510Y437490D01*
X147490Y437490D02*
X147490Y432510D01*
X142510Y432510D01*
X142510Y437490D01*
X142510Y433479D02*
X147490Y433479D01*
X147490Y434448D02*
X142510Y434448D01*
X142510Y435417D02*
X147490Y435417D01*
X147490Y436386D02*
X142510Y436386D01*
X142510Y437355D02*
X147490Y437355D01*
D17*
X151500Y466270D02*
X158500Y466270D01*
X151500Y466270D02*
X151500Y473270D01*
X158500Y473270D01*
X158500Y466270D01*
X158500Y469120D02*
X151500Y469120D01*
X151500Y471970D02*
X158500Y471970D01*
X158500Y448730D02*
X151500Y448730D01*
X151500Y455730D01*
X158500Y455730D01*
X158500Y448730D01*
X158500Y451580D02*
X151500Y451580D01*
X151500Y454430D02*
X158500Y454430D01*
D20*
X59000Y241913D03*
X64000Y262288D03*
X59000Y262288D03*
X69000Y262288D03*
X74000Y262288D03*
X64000Y241913D03*
X69000Y241913D03*
X74000Y241913D03*
D21*
X69900Y252100D03*
X63100Y252100D03*
D10*
X87490Y238490D02*
X87490Y233510D01*
X82510Y233510D01*
X82510Y238490D01*
X87490Y238490D01*
X87490Y234479D02*
X82510Y234479D01*
X82510Y235448D02*
X87490Y235448D01*
X87490Y236417D02*
X82510Y236417D01*
X82510Y237386D02*
X87490Y237386D01*
X87490Y238355D02*
X82510Y238355D01*
X87490Y243510D02*
X87490Y248490D01*
X87490Y243510D02*
X82510Y243510D01*
X82510Y248490D01*
X87490Y248490D01*
X87490Y244479D02*
X82510Y244479D01*
X82510Y245448D02*
X87490Y245448D01*
X87490Y246417D02*
X82510Y246417D01*
X82510Y247386D02*
X87490Y247386D01*
X87490Y248355D02*
X82510Y248355D01*
X99510Y93490D02*
X104490Y93490D01*
X104490Y88510D01*
X99510Y88510D01*
X99510Y93490D01*
X99510Y89479D02*
X104490Y89479D01*
X104490Y90448D02*
X99510Y90448D01*
X99510Y91417D02*
X104490Y91417D01*
X104490Y92386D02*
X99510Y92386D01*
X99510Y93355D02*
X104490Y93355D01*
X94490Y93490D02*
X89510Y93490D01*
X94490Y93490D02*
X94490Y88510D01*
X89510Y88510D01*
X89510Y93490D01*
X89510Y89479D02*
X94490Y89479D01*
X94490Y90448D02*
X89510Y90448D01*
X89510Y91417D02*
X94490Y91417D01*
X94490Y92386D02*
X89510Y92386D01*
X89510Y93355D02*
X94490Y93355D01*
D22*
X117175Y466825D02*
X123125Y466825D01*
X117175Y466825D02*
X117175Y472775D01*
X123125Y472775D01*
X123125Y466825D01*
X123125Y467822D02*
X117175Y467822D01*
X117175Y468819D02*
X123125Y468819D01*
X123125Y469816D02*
X117175Y469816D01*
X117175Y470813D02*
X123125Y470813D01*
X123125Y471810D02*
X117175Y471810D01*
X117175Y455825D02*
X123125Y455825D01*
X117175Y455825D02*
X117175Y461775D01*
X123125Y461775D01*
X123125Y455825D01*
X123125Y456822D02*
X117175Y456822D01*
X117175Y457819D02*
X123125Y457819D01*
X123125Y458816D02*
X117175Y458816D01*
X117175Y459813D02*
X123125Y459813D01*
X123125Y460810D02*
X117175Y460810D01*
X104825Y455825D02*
X98875Y455825D01*
X98875Y461775D01*
X104825Y461775D01*
X104825Y455825D01*
X104825Y456822D02*
X98875Y456822D01*
X98875Y457819D02*
X104825Y457819D01*
X104825Y458816D02*
X98875Y458816D01*
X98875Y459813D02*
X104825Y459813D01*
X104825Y460810D02*
X98875Y460810D01*
X98875Y466825D02*
X104825Y466825D01*
X98875Y466825D02*
X98875Y472775D01*
X104825Y472775D01*
X104825Y466825D01*
X104825Y467822D02*
X98875Y467822D01*
X98875Y468819D02*
X104825Y468819D01*
X104825Y469816D02*
X98875Y469816D01*
X98875Y470813D02*
X104825Y470813D01*
X104825Y471810D02*
X98875Y471810D01*
D10*
X103510Y441510D02*
X108490Y441510D01*
X103510Y441510D02*
X103510Y446490D01*
X108490Y446490D01*
X108490Y441510D01*
X108490Y442479D02*
X103510Y442479D01*
X103510Y443448D02*
X108490Y443448D01*
X108490Y444417D02*
X103510Y444417D01*
X103510Y445386D02*
X108490Y445386D01*
X108490Y446355D02*
X103510Y446355D01*
X113510Y441510D02*
X118490Y441510D01*
X113510Y441510D02*
X113510Y446490D01*
X118490Y446490D01*
X118490Y441510D01*
X118490Y442479D02*
X113510Y442479D01*
X113510Y443448D02*
X118490Y443448D01*
X118490Y444417D02*
X113510Y444417D01*
X113510Y445386D02*
X118490Y445386D01*
X118490Y446355D02*
X113510Y446355D01*
X32790Y481910D02*
X27810Y481910D01*
X27810Y486890D01*
X32790Y486890D01*
X32790Y481910D01*
X32790Y482879D02*
X27810Y482879D01*
X27810Y483848D02*
X32790Y483848D01*
X32790Y484817D02*
X27810Y484817D01*
X27810Y485786D02*
X32790Y485786D01*
X32790Y486755D02*
X27810Y486755D01*
X37810Y481910D02*
X42790Y481910D01*
X37810Y481910D02*
X37810Y486890D01*
X42790Y486890D01*
X42790Y481910D01*
X42790Y482879D02*
X37810Y482879D01*
X37810Y483848D02*
X42790Y483848D01*
X42790Y484817D02*
X37810Y484817D01*
X37810Y485786D02*
X42790Y485786D01*
X42790Y486755D02*
X37810Y486755D01*
X33790Y505510D02*
X28810Y505510D01*
X28810Y510490D01*
X33790Y510490D01*
X33790Y505510D01*
X33790Y506479D02*
X28810Y506479D01*
X28810Y507448D02*
X33790Y507448D01*
X33790Y508417D02*
X28810Y508417D01*
X28810Y509386D02*
X33790Y509386D01*
X33790Y510355D02*
X28810Y510355D01*
X38810Y505510D02*
X43790Y505510D01*
X38810Y505510D02*
X38810Y510490D01*
X43790Y510490D01*
X43790Y505510D01*
X43790Y506479D02*
X38810Y506479D01*
X38810Y507448D02*
X43790Y507448D01*
X43790Y508417D02*
X38810Y508417D01*
X38810Y509386D02*
X43790Y509386D01*
X43790Y510355D02*
X38810Y510355D01*
X154460Y224010D02*
X161940Y224010D01*
X154460Y224010D02*
X154460Y231990D01*
X161940Y231990D01*
X161940Y224010D01*
X161940Y224979D02*
X154460Y224979D01*
X154460Y225948D02*
X161940Y225948D01*
X161940Y226917D02*
X154460Y226917D01*
X154460Y227886D02*
X161940Y227886D01*
X161940Y228855D02*
X154460Y228855D01*
X154460Y229824D02*
X161940Y229824D01*
X161940Y230793D02*
X154460Y230793D01*
X154460Y231762D02*
X161940Y231762D01*
X166060Y224010D02*
X173540Y224010D01*
X166060Y224010D02*
X166060Y231990D01*
X173540Y231990D01*
X173540Y224010D01*
X173540Y224979D02*
X166060Y224979D01*
X166060Y225948D02*
X173540Y225948D01*
X173540Y226917D02*
X166060Y226917D01*
X166060Y227886D02*
X173540Y227886D01*
X173540Y228855D02*
X166060Y228855D01*
X166060Y229824D02*
X173540Y229824D01*
X173540Y230793D02*
X166060Y230793D01*
X166060Y231762D02*
X173540Y231762D01*
X172090Y246490D02*
X167110Y246490D01*
X172090Y246490D02*
X172090Y241510D01*
X167110Y241510D01*
X167110Y246490D01*
X167110Y242479D02*
X172090Y242479D01*
X172090Y243448D02*
X167110Y243448D01*
X167110Y244417D02*
X172090Y244417D01*
X172090Y245386D02*
X167110Y245386D01*
X167110Y246355D02*
X172090Y246355D01*
X162090Y246490D02*
X157110Y246490D01*
X162090Y246490D02*
X162090Y241510D01*
X157110Y241510D01*
X157110Y246490D01*
X157110Y242479D02*
X162090Y242479D01*
X162090Y243448D02*
X157110Y243448D01*
X157110Y244417D02*
X162090Y244417D01*
X162090Y245386D02*
X157110Y245386D01*
X157110Y246355D02*
X162090Y246355D01*
X155490Y210510D02*
X150510Y210510D01*
X150510Y215490D01*
X155490Y215490D01*
X155490Y210510D01*
X155490Y211479D02*
X150510Y211479D01*
X150510Y212448D02*
X155490Y212448D01*
X155490Y213417D02*
X150510Y213417D01*
X150510Y214386D02*
X155490Y214386D01*
X155490Y215355D02*
X150510Y215355D01*
X160510Y210510D02*
X165490Y210510D01*
X160510Y210510D02*
X160510Y215490D01*
X165490Y215490D01*
X165490Y210510D01*
X165490Y211479D02*
X160510Y211479D01*
X160510Y212448D02*
X165490Y212448D01*
X165490Y213417D02*
X160510Y213417D01*
X160510Y214386D02*
X165490Y214386D01*
X165490Y215355D02*
X160510Y215355D01*
D17*
X80000Y462670D02*
X73000Y462670D01*
X73000Y469670D01*
X80000Y469670D01*
X80000Y462670D01*
X80000Y465520D02*
X73000Y465520D01*
X73000Y468370D02*
X80000Y468370D01*
X80000Y445130D02*
X73000Y445130D01*
X73000Y452130D01*
X80000Y452130D01*
X80000Y445130D01*
X80000Y447980D02*
X73000Y447980D01*
X73000Y450830D02*
X80000Y450830D01*
D10*
X77510Y436490D02*
X82490Y436490D01*
X82490Y431510D01*
X77510Y431510D01*
X77510Y436490D01*
X77510Y432479D02*
X82490Y432479D01*
X82490Y433448D02*
X77510Y433448D01*
X77510Y434417D02*
X82490Y434417D01*
X82490Y435386D02*
X77510Y435386D01*
X77510Y436355D02*
X82490Y436355D01*
X72490Y436490D02*
X67510Y436490D01*
X72490Y436490D02*
X72490Y431510D01*
X67510Y431510D01*
X67510Y436490D01*
X67510Y432479D02*
X72490Y432479D01*
X72490Y433448D02*
X67510Y433448D01*
X67510Y434417D02*
X72490Y434417D01*
X72490Y435386D02*
X67510Y435386D01*
X67510Y436355D02*
X72490Y436355D01*
D11*
X214035Y69605D02*
X214035Y61595D01*
X214035Y69605D02*
X223045Y69605D01*
X223045Y61595D01*
X214035Y61595D01*
X214035Y62535D02*
X223045Y62535D01*
X223045Y63475D02*
X214035Y63475D01*
X214035Y64415D02*
X223045Y64415D01*
X223045Y65355D02*
X214035Y65355D01*
X214035Y66295D02*
X223045Y66295D01*
X223045Y67235D02*
X214035Y67235D01*
X214035Y68175D02*
X223045Y68175D01*
X223045Y69115D02*
X214035Y69115D01*
X198035Y69605D02*
X198035Y61595D01*
X198035Y69605D02*
X207045Y69605D01*
X207045Y61595D01*
X198035Y61595D01*
X198035Y62535D02*
X207045Y62535D01*
X207045Y63475D02*
X198035Y63475D01*
X198035Y64415D02*
X207045Y64415D01*
X207045Y65355D02*
X198035Y65355D01*
X198035Y66295D02*
X207045Y66295D01*
X207045Y67235D02*
X198035Y67235D01*
X198035Y68175D02*
X207045Y68175D01*
X207045Y69115D02*
X198035Y69115D01*
X198035Y102595D02*
X198035Y110605D01*
X207045Y110605D01*
X207045Y102595D01*
X198035Y102595D01*
X198035Y103535D02*
X207045Y103535D01*
X207045Y104475D02*
X198035Y104475D01*
X198035Y105415D02*
X207045Y105415D01*
X207045Y106355D02*
X198035Y106355D01*
X198035Y107295D02*
X207045Y107295D01*
X207045Y108235D02*
X198035Y108235D01*
X198035Y109175D02*
X207045Y109175D01*
X207045Y110115D02*
X198035Y110115D01*
X214035Y110605D02*
X214035Y102595D01*
X214035Y110605D02*
X223045Y110605D01*
X223045Y102595D01*
X214035Y102595D01*
X214035Y103535D02*
X223045Y103535D01*
X223045Y104475D02*
X214035Y104475D01*
X214035Y105415D02*
X223045Y105415D01*
X223045Y106355D02*
X214035Y106355D01*
X214035Y107295D02*
X223045Y107295D01*
X223045Y108235D02*
X214035Y108235D01*
X214035Y109175D02*
X223045Y109175D01*
X223045Y110115D02*
X214035Y110115D01*
D10*
X212510Y124490D02*
X217490Y124490D01*
X217490Y119510D01*
X212510Y119510D01*
X212510Y124490D01*
X212510Y120479D02*
X217490Y120479D01*
X217490Y121448D02*
X212510Y121448D01*
X212510Y122417D02*
X217490Y122417D01*
X217490Y123386D02*
X212510Y123386D01*
X212510Y124355D02*
X217490Y124355D01*
X207490Y124490D02*
X202510Y124490D01*
X207490Y124490D02*
X207490Y119510D01*
X202510Y119510D01*
X202510Y124490D01*
X202510Y120479D02*
X207490Y120479D01*
X207490Y121448D02*
X202510Y121448D01*
X202510Y122417D02*
X207490Y122417D01*
X207490Y123386D02*
X202510Y123386D01*
X202510Y124355D02*
X207490Y124355D01*
D16*
X4530Y122420D02*
X4530Y111380D01*
X4530Y122420D02*
X23570Y122420D01*
X23570Y111380D01*
X4530Y111380D01*
X4530Y112292D02*
X23570Y112292D01*
X23570Y113204D02*
X4530Y113204D01*
X4530Y114116D02*
X23570Y114116D01*
X23570Y115028D02*
X4530Y115028D01*
X4530Y115940D02*
X23570Y115940D01*
X23570Y116852D02*
X4530Y116852D01*
X4530Y117764D02*
X23570Y117764D01*
X23570Y118676D02*
X4530Y118676D01*
X4530Y119588D02*
X23570Y119588D01*
X23570Y120500D02*
X4530Y120500D01*
X4530Y121412D02*
X23570Y121412D01*
X23570Y122324D02*
X4530Y122324D01*
X4530Y66420D02*
X4530Y55380D01*
X4530Y66420D02*
X23570Y66420D01*
X23570Y55380D01*
X4530Y55380D01*
X4530Y56292D02*
X23570Y56292D01*
X23570Y57204D02*
X4530Y57204D01*
X4530Y58116D02*
X23570Y58116D01*
X23570Y59028D02*
X4530Y59028D01*
X4530Y59940D02*
X23570Y59940D01*
X23570Y60852D02*
X4530Y60852D01*
X4530Y61764D02*
X23570Y61764D01*
X23570Y62676D02*
X4530Y62676D01*
X4530Y63588D02*
X23570Y63588D01*
X23570Y64500D02*
X4530Y64500D01*
X4530Y65412D02*
X23570Y65412D01*
X23570Y66324D02*
X4530Y66324D01*
D10*
X44560Y101410D02*
X44560Y106390D01*
X57040Y106390D01*
X57040Y101410D01*
X44560Y101410D01*
X44560Y102379D02*
X57040Y102379D01*
X57040Y103348D02*
X44560Y103348D01*
X44560Y104317D02*
X57040Y104317D01*
X57040Y105286D02*
X44560Y105286D01*
X44560Y106255D02*
X57040Y106255D01*
X44560Y96390D02*
X44560Y91410D01*
X44560Y96390D02*
X57040Y96390D01*
X57040Y91410D01*
X44560Y91410D01*
X44560Y92379D02*
X57040Y92379D01*
X57040Y93348D02*
X44560Y93348D01*
X44560Y94317D02*
X57040Y94317D01*
X57040Y95286D02*
X44560Y95286D01*
X44560Y96255D02*
X57040Y96255D01*
X44560Y86390D02*
X44560Y81410D01*
X44560Y86390D02*
X57040Y86390D01*
X57040Y81410D01*
X44560Y81410D01*
X44560Y82379D02*
X57040Y82379D01*
X57040Y83348D02*
X44560Y83348D01*
X44560Y84317D02*
X57040Y84317D01*
X57040Y85286D02*
X44560Y85286D01*
X44560Y86255D02*
X57040Y86255D01*
X44560Y76390D02*
X44560Y71410D01*
X44560Y76390D02*
X57040Y76390D01*
X57040Y71410D01*
X44560Y71410D01*
X44560Y72379D02*
X57040Y72379D01*
X57040Y73348D02*
X44560Y73348D01*
X44560Y74317D02*
X57040Y74317D01*
X57040Y75286D02*
X44560Y75286D01*
X44560Y76255D02*
X57040Y76255D01*
D18*
X98020Y129980D02*
X104980Y129980D01*
X104980Y122020D01*
X98020Y122020D01*
X98020Y129980D01*
X98020Y123008D02*
X104980Y123008D01*
X104980Y123996D02*
X98020Y123996D01*
X98020Y124984D02*
X104980Y124984D01*
X104980Y125972D02*
X98020Y125972D01*
X98020Y126960D02*
X104980Y126960D01*
X104980Y127948D02*
X98020Y127948D01*
X98020Y128936D02*
X104980Y128936D01*
X104980Y129924D02*
X98020Y129924D01*
X85980Y129980D02*
X79020Y129980D01*
X85980Y129980D02*
X85980Y122020D01*
X79020Y122020D01*
X79020Y129980D01*
X79020Y123008D02*
X85980Y123008D01*
X85980Y123996D02*
X79020Y123996D01*
X79020Y124984D02*
X85980Y124984D01*
X85980Y125972D02*
X79020Y125972D01*
X79020Y126960D02*
X85980Y126960D01*
X85980Y127948D02*
X79020Y127948D01*
X79020Y128936D02*
X85980Y128936D01*
X85980Y129924D02*
X79020Y129924D01*
X88520Y108980D02*
X95480Y108980D01*
X95480Y101020D01*
X88520Y101020D01*
X88520Y108980D01*
X88520Y102008D02*
X95480Y102008D01*
X95480Y102996D02*
X88520Y102996D01*
X88520Y103984D02*
X95480Y103984D01*
X95480Y104972D02*
X88520Y104972D01*
X88520Y105960D02*
X95480Y105960D01*
X95480Y106948D02*
X88520Y106948D01*
X88520Y107936D02*
X95480Y107936D01*
X95480Y108924D02*
X88520Y108924D01*
D10*
X119510Y152510D02*
X124490Y152510D01*
X119510Y152510D02*
X119510Y157490D01*
X124490Y157490D01*
X124490Y152510D01*
X124490Y153479D02*
X119510Y153479D01*
X119510Y154448D02*
X124490Y154448D01*
X124490Y155417D02*
X119510Y155417D01*
X119510Y156386D02*
X124490Y156386D01*
X124490Y157355D02*
X119510Y157355D01*
X129510Y152510D02*
X134490Y152510D01*
X129510Y152510D02*
X129510Y157490D01*
X134490Y157490D01*
X134490Y152510D01*
X134490Y153479D02*
X129510Y153479D01*
X129510Y154448D02*
X134490Y154448D01*
X134490Y155417D02*
X129510Y155417D01*
X129510Y156386D02*
X134490Y156386D01*
X134490Y157355D02*
X129510Y157355D01*
X118490Y134490D02*
X118490Y129510D01*
X113510Y129510D01*
X113510Y134490D01*
X118490Y134490D01*
X118490Y130479D02*
X113510Y130479D01*
X113510Y131448D02*
X118490Y131448D01*
X118490Y132417D02*
X113510Y132417D01*
X113510Y133386D02*
X118490Y133386D01*
X118490Y134355D02*
X113510Y134355D01*
X118490Y139510D02*
X118490Y144490D01*
X118490Y139510D02*
X113510Y139510D01*
X113510Y144490D01*
X118490Y144490D01*
X118490Y140479D02*
X113510Y140479D01*
X113510Y141448D02*
X118490Y141448D01*
X118490Y142417D02*
X113510Y142417D01*
X113510Y143386D02*
X118490Y143386D01*
X118490Y144355D02*
X113510Y144355D01*
D18*
X146020Y143980D02*
X152980Y143980D01*
X152980Y136020D01*
X146020Y136020D01*
X146020Y143980D01*
X146020Y137008D02*
X152980Y137008D01*
X152980Y137996D02*
X146020Y137996D01*
X146020Y138984D02*
X152980Y138984D01*
X152980Y139972D02*
X146020Y139972D01*
X146020Y140960D02*
X152980Y140960D01*
X152980Y141948D02*
X146020Y141948D01*
X146020Y142936D02*
X152980Y142936D01*
X152980Y143924D02*
X146020Y143924D01*
X133980Y143980D02*
X127020Y143980D01*
X133980Y143980D02*
X133980Y136020D01*
X127020Y136020D01*
X127020Y143980D01*
X127020Y137008D02*
X133980Y137008D01*
X133980Y137996D02*
X127020Y137996D01*
X127020Y138984D02*
X133980Y138984D01*
X133980Y139972D02*
X127020Y139972D01*
X127020Y140960D02*
X133980Y140960D01*
X133980Y141948D02*
X127020Y141948D01*
X127020Y142936D02*
X133980Y142936D01*
X133980Y143924D02*
X127020Y143924D01*
X136520Y122980D02*
X143480Y122980D01*
X143480Y115020D01*
X136520Y115020D01*
X136520Y122980D01*
X136520Y116008D02*
X143480Y116008D01*
X143480Y116996D02*
X136520Y116996D01*
X136520Y117984D02*
X143480Y117984D01*
X143480Y118972D02*
X136520Y118972D01*
X136520Y119960D02*
X143480Y119960D01*
X143480Y120948D02*
X136520Y120948D01*
X136520Y121936D02*
X143480Y121936D01*
X143480Y122924D02*
X136520Y122924D01*
D10*
X118490Y110490D02*
X118490Y105510D01*
X113510Y105510D01*
X113510Y110490D01*
X118490Y110490D01*
X118490Y106479D02*
X113510Y106479D01*
X113510Y107448D02*
X118490Y107448D01*
X118490Y108417D02*
X113510Y108417D01*
X113510Y109386D02*
X118490Y109386D01*
X118490Y110355D02*
X113510Y110355D01*
X118490Y115510D02*
X118490Y120490D01*
X118490Y115510D02*
X113510Y115510D01*
X113510Y120490D01*
X118490Y120490D01*
X118490Y116479D02*
X113510Y116479D01*
X113510Y117448D02*
X118490Y117448D01*
X118490Y118417D02*
X113510Y118417D01*
X113510Y119386D02*
X118490Y119386D01*
X118490Y120355D02*
X113510Y120355D01*
X176510Y612510D02*
X181490Y612510D01*
X176510Y612510D02*
X176510Y617490D01*
X181490Y617490D01*
X181490Y612510D01*
X181490Y613479D02*
X176510Y613479D01*
X176510Y614448D02*
X181490Y614448D01*
X181490Y615417D02*
X176510Y615417D01*
X176510Y616386D02*
X181490Y616386D01*
X181490Y617355D02*
X176510Y617355D01*
X186510Y612510D02*
X191490Y612510D01*
X186510Y612510D02*
X186510Y617490D01*
X191490Y617490D01*
X191490Y612510D01*
X191490Y613479D02*
X186510Y613479D01*
X186510Y614448D02*
X191490Y614448D01*
X191490Y615417D02*
X186510Y615417D01*
X186510Y616386D02*
X191490Y616386D01*
X191490Y617355D02*
X186510Y617355D01*
X181490Y602510D02*
X176510Y602510D01*
X176510Y607490D01*
X181490Y607490D01*
X181490Y602510D01*
X181490Y603479D02*
X176510Y603479D01*
X176510Y604448D02*
X181490Y604448D01*
X181490Y605417D02*
X176510Y605417D01*
X176510Y606386D02*
X181490Y606386D01*
X181490Y607355D02*
X176510Y607355D01*
X186510Y602510D02*
X191490Y602510D01*
X186510Y602510D02*
X186510Y607490D01*
X191490Y607490D01*
X191490Y602510D01*
X191490Y603479D02*
X186510Y603479D01*
X186510Y604448D02*
X191490Y604448D01*
X191490Y605417D02*
X186510Y605417D01*
X186510Y606386D02*
X191490Y606386D01*
X191490Y607355D02*
X186510Y607355D01*
D23*
X58743Y300493D02*
X54757Y300493D01*
X58743Y300493D02*
X58743Y298007D01*
X54757Y298007D01*
X54757Y300493D01*
X54757Y298971D02*
X58743Y298971D01*
X58743Y299935D02*
X54757Y299935D01*
X54757Y306993D02*
X58743Y306993D01*
X58743Y304507D01*
X54757Y304507D01*
X54757Y306993D01*
X54757Y305471D02*
X58743Y305471D01*
X58743Y306435D02*
X54757Y306435D01*
X54757Y313493D02*
X58743Y313493D01*
X58743Y311007D01*
X54757Y311007D01*
X54757Y313493D01*
X54757Y311971D02*
X58743Y311971D01*
X58743Y312935D02*
X54757Y312935D01*
X54757Y319993D02*
X58743Y319993D01*
X58743Y317507D01*
X54757Y317507D01*
X54757Y319993D01*
X54757Y318471D02*
X58743Y318471D01*
X58743Y319435D02*
X54757Y319435D01*
X75257Y319993D02*
X79243Y319993D01*
X79243Y317507D01*
X75257Y317507D01*
X75257Y319993D01*
X75257Y318471D02*
X79243Y318471D01*
X79243Y319435D02*
X75257Y319435D01*
X75257Y313493D02*
X79243Y313493D01*
X79243Y311007D01*
X75257Y311007D01*
X75257Y313493D01*
X75257Y311971D02*
X79243Y311971D01*
X79243Y312935D02*
X75257Y312935D01*
X75257Y306993D02*
X79243Y306993D01*
X79243Y304507D01*
X75257Y304507D01*
X75257Y306993D01*
X75257Y305471D02*
X79243Y305471D01*
X79243Y306435D02*
X75257Y306435D01*
X75257Y300493D02*
X79243Y300493D01*
X79243Y298007D01*
X75257Y298007D01*
X75257Y300493D01*
X75257Y298971D02*
X79243Y298971D01*
X79243Y299935D02*
X75257Y299935D01*
D10*
X91490Y310510D02*
X91490Y315490D01*
X91490Y310510D02*
X86510Y310510D01*
X86510Y315490D01*
X91490Y315490D01*
X91490Y311479D02*
X86510Y311479D01*
X86510Y312448D02*
X91490Y312448D01*
X91490Y313417D02*
X86510Y313417D01*
X86510Y314386D02*
X91490Y314386D01*
X91490Y315355D02*
X86510Y315355D01*
X91490Y320510D02*
X91490Y325490D01*
X91490Y320510D02*
X86510Y320510D01*
X86510Y325490D01*
X91490Y325490D01*
X91490Y321479D02*
X86510Y321479D01*
X86510Y322448D02*
X91490Y322448D01*
X91490Y323417D02*
X86510Y323417D01*
X86510Y324386D02*
X91490Y324386D01*
X91490Y325355D02*
X86510Y325355D01*
X79490Y291490D02*
X74510Y291490D01*
X79490Y291490D02*
X79490Y286510D01*
X74510Y286510D01*
X74510Y291490D01*
X74510Y287479D02*
X79490Y287479D01*
X79490Y288448D02*
X74510Y288448D01*
X74510Y289417D02*
X79490Y289417D01*
X79490Y290386D02*
X74510Y290386D01*
X74510Y291355D02*
X79490Y291355D01*
X69490Y291490D02*
X64510Y291490D01*
X69490Y291490D02*
X69490Y286510D01*
X64510Y286510D01*
X64510Y291490D01*
X64510Y287479D02*
X69490Y287479D01*
X69490Y288448D02*
X64510Y288448D01*
X64510Y289417D02*
X69490Y289417D01*
X69490Y290386D02*
X64510Y290386D01*
X64510Y291355D02*
X69490Y291355D01*
X74510Y281490D02*
X79490Y281490D01*
X79490Y276510D01*
X74510Y276510D01*
X74510Y281490D01*
X74510Y277479D02*
X79490Y277479D01*
X79490Y278448D02*
X74510Y278448D01*
X74510Y279417D02*
X79490Y279417D01*
X79490Y280386D02*
X74510Y280386D01*
X74510Y281355D02*
X79490Y281355D01*
X69490Y281490D02*
X64510Y281490D01*
X69490Y281490D02*
X69490Y276510D01*
X64510Y276510D01*
X64510Y281490D01*
X64510Y277479D02*
X69490Y277479D01*
X69490Y278448D02*
X64510Y278448D01*
X64510Y279417D02*
X69490Y279417D01*
X69490Y280386D02*
X64510Y280386D01*
X64510Y281355D02*
X69490Y281355D01*
X100785Y400210D02*
X104565Y400210D01*
X100785Y400210D02*
X100785Y402190D01*
X104565Y402190D01*
X104565Y400210D01*
X104565Y401179D02*
X100785Y401179D01*
X100785Y402148D02*
X104565Y402148D01*
X104565Y395210D02*
X100785Y395210D01*
X100785Y397190D01*
X104565Y397190D01*
X104565Y395210D01*
X104565Y396179D02*
X100785Y396179D01*
X100785Y397148D02*
X104565Y397148D01*
X104565Y390210D02*
X100785Y390210D01*
X100785Y392190D01*
X104565Y392190D01*
X104565Y390210D01*
X104565Y391179D02*
X100785Y391179D01*
X100785Y392148D02*
X104565Y392148D01*
X104565Y385210D02*
X100785Y385210D01*
X100785Y387190D01*
X104565Y387190D01*
X104565Y385210D01*
X104565Y386179D02*
X100785Y386179D01*
X100785Y387148D02*
X104565Y387148D01*
X124035Y387190D02*
X127815Y387190D01*
X127815Y385210D01*
X124035Y385210D01*
X124035Y387190D01*
X124035Y386179D02*
X127815Y386179D01*
X127815Y387148D02*
X124035Y387148D01*
X124035Y392190D02*
X127815Y392190D01*
X127815Y390210D01*
X124035Y390210D01*
X124035Y392190D01*
X124035Y391179D02*
X127815Y391179D01*
X127815Y392148D02*
X124035Y392148D01*
X124035Y397190D02*
X127815Y397190D01*
X127815Y395210D01*
X124035Y395210D01*
X124035Y397190D01*
X124035Y396179D02*
X127815Y396179D01*
X127815Y397148D02*
X124035Y397148D01*
X124035Y402190D02*
X127815Y402190D01*
X127815Y400210D01*
X124035Y400210D01*
X124035Y402190D01*
X124035Y401179D02*
X127815Y401179D01*
X127815Y402148D02*
X124035Y402148D01*
X110290Y381810D02*
X108310Y381810D01*
X108310Y385590D01*
X110290Y385590D01*
X110290Y381810D01*
X110290Y382779D02*
X108310Y382779D01*
X108310Y383748D02*
X110290Y383748D01*
X110290Y384717D02*
X108310Y384717D01*
X113310Y381810D02*
X115290Y381810D01*
X113310Y381810D02*
X113310Y385590D01*
X115290Y385590D01*
X115290Y381810D01*
X115290Y382779D02*
X113310Y382779D01*
X113310Y383748D02*
X115290Y383748D01*
X115290Y384717D02*
X113310Y384717D01*
X118310Y381810D02*
X120290Y381810D01*
X118310Y381810D02*
X118310Y385590D01*
X120290Y385590D01*
X120290Y381810D01*
X120290Y382779D02*
X118310Y382779D01*
X118310Y383748D02*
X120290Y383748D01*
X120290Y384717D02*
X118310Y384717D01*
X118310Y405590D02*
X120290Y405590D01*
X120290Y401810D01*
X118310Y401810D01*
X118310Y405590D01*
X118310Y402779D02*
X120290Y402779D01*
X120290Y403748D02*
X118310Y403748D01*
X118310Y404717D02*
X120290Y404717D01*
X115290Y405590D02*
X113310Y405590D01*
X115290Y405590D02*
X115290Y401810D01*
X113310Y401810D01*
X113310Y405590D01*
X113310Y402779D02*
X115290Y402779D01*
X115290Y403748D02*
X113310Y403748D01*
X113310Y404717D02*
X115290Y404717D01*
X110290Y405590D02*
X108310Y405590D01*
X110290Y405590D02*
X110290Y401810D01*
X108310Y401810D01*
X108310Y405590D01*
X108310Y402779D02*
X110290Y402779D01*
X110290Y403748D02*
X108310Y403748D01*
X108310Y404717D02*
X110290Y404717D01*
X137010Y426490D02*
X141990Y426490D01*
X141990Y421510D01*
X137010Y421510D01*
X137010Y426490D01*
X137010Y422479D02*
X141990Y422479D01*
X141990Y423448D02*
X137010Y423448D01*
X137010Y424417D02*
X141990Y424417D01*
X141990Y425386D02*
X137010Y425386D01*
X137010Y426355D02*
X141990Y426355D01*
X131990Y426490D02*
X127010Y426490D01*
X131990Y426490D02*
X131990Y421510D01*
X127010Y421510D01*
X127010Y426490D01*
X127010Y422479D02*
X131990Y422479D01*
X131990Y423448D02*
X127010Y423448D01*
X127010Y424417D02*
X131990Y424417D01*
X131990Y425386D02*
X127010Y425386D01*
X127010Y426355D02*
X131990Y426355D01*
X88510Y406090D02*
X88510Y401110D01*
X88510Y406090D02*
X93490Y406090D01*
X93490Y401110D01*
X88510Y401110D01*
X88510Y402079D02*
X93490Y402079D01*
X93490Y403048D02*
X88510Y403048D01*
X88510Y404017D02*
X93490Y404017D01*
X93490Y404986D02*
X88510Y404986D01*
X88510Y405955D02*
X93490Y405955D01*
X88510Y396090D02*
X88510Y391110D01*
X88510Y396090D02*
X93490Y396090D01*
X93490Y391110D01*
X88510Y391110D01*
X88510Y392079D02*
X93490Y392079D01*
X93490Y393048D02*
X88510Y393048D01*
X88510Y394017D02*
X93490Y394017D01*
X93490Y394986D02*
X88510Y394986D01*
X88510Y395955D02*
X93490Y395955D01*
X99510Y370510D02*
X104490Y370510D01*
X99510Y370510D02*
X99510Y375490D01*
X104490Y375490D01*
X104490Y370510D01*
X104490Y371479D02*
X99510Y371479D01*
X99510Y372448D02*
X104490Y372448D01*
X104490Y373417D02*
X99510Y373417D01*
X99510Y374386D02*
X104490Y374386D01*
X104490Y375355D02*
X99510Y375355D01*
X109510Y370510D02*
X114490Y370510D01*
X109510Y370510D02*
X109510Y375490D01*
X114490Y375490D01*
X114490Y370510D01*
X114490Y371479D02*
X109510Y371479D01*
X109510Y372448D02*
X114490Y372448D01*
X114490Y373417D02*
X109510Y373417D01*
X109510Y374386D02*
X114490Y374386D01*
X114490Y375355D02*
X109510Y375355D01*
X131510Y375490D02*
X136490Y375490D01*
X136490Y370510D01*
X131510Y370510D01*
X131510Y375490D01*
X131510Y371479D02*
X136490Y371479D01*
X136490Y372448D02*
X131510Y372448D01*
X131510Y373417D02*
X136490Y373417D01*
X136490Y374386D02*
X131510Y374386D01*
X131510Y375355D02*
X136490Y375355D01*
X126490Y375490D02*
X121510Y375490D01*
X126490Y375490D02*
X126490Y370510D01*
X121510Y370510D01*
X121510Y375490D01*
X121510Y371479D02*
X126490Y371479D01*
X126490Y372448D02*
X121510Y372448D01*
X121510Y373417D02*
X126490Y373417D01*
X126490Y374386D02*
X121510Y374386D01*
X121510Y375355D02*
X126490Y375355D01*
X354490Y54086D02*
X356470Y54086D01*
X354490Y54086D02*
X354490Y63066D01*
X356470Y63066D01*
X356470Y54086D01*
X356470Y55055D02*
X354490Y55055D01*
X354490Y56024D02*
X356470Y56024D01*
X356470Y56993D02*
X354490Y56993D01*
X354490Y57962D02*
X356470Y57962D01*
X356470Y58931D02*
X354490Y58931D01*
X354490Y59900D02*
X356470Y59900D01*
X356470Y60869D02*
X354490Y60869D01*
X354490Y61838D02*
X356470Y61838D01*
X356470Y62807D02*
X354490Y62807D01*
X351470Y54086D02*
X349490Y54086D01*
X349490Y63066D01*
X351470Y63066D01*
X351470Y54086D01*
X351470Y55055D02*
X349490Y55055D01*
X349490Y56024D02*
X351470Y56024D01*
X351470Y56993D02*
X349490Y56993D01*
X349490Y57962D02*
X351470Y57962D01*
X351470Y58931D02*
X349490Y58931D01*
X349490Y59900D02*
X351470Y59900D01*
X351470Y60869D02*
X349490Y60869D01*
X349490Y61838D02*
X351470Y61838D01*
X351470Y62807D02*
X349490Y62807D01*
X377740Y54086D02*
X382720Y54086D01*
X377740Y54086D02*
X377740Y63066D01*
X382720Y63066D01*
X382720Y54086D01*
X382720Y55055D02*
X377740Y55055D01*
X377740Y56024D02*
X382720Y56024D01*
X382720Y56993D02*
X377740Y56993D01*
X377740Y57962D02*
X382720Y57962D01*
X382720Y58931D02*
X377740Y58931D01*
X377740Y59900D02*
X382720Y59900D01*
X382720Y60869D02*
X377740Y60869D01*
X377740Y61838D02*
X382720Y61838D01*
X382720Y62807D02*
X377740Y62807D01*
X374970Y54086D02*
X369990Y54086D01*
X369990Y63066D01*
X374970Y63066D01*
X374970Y54086D01*
X374970Y55055D02*
X369990Y55055D01*
X369990Y56024D02*
X374970Y56024D01*
X374970Y56993D02*
X369990Y56993D01*
X369990Y57962D02*
X374970Y57962D01*
X374970Y58931D02*
X369990Y58931D01*
X369990Y59900D02*
X374970Y59900D01*
X374970Y60869D02*
X369990Y60869D01*
X369990Y61838D02*
X374970Y61838D01*
X374970Y62807D02*
X369990Y62807D01*
X366470Y54086D02*
X364490Y54086D01*
X364490Y63066D01*
X366470Y63066D01*
X366470Y54086D01*
X366470Y55055D02*
X364490Y55055D01*
X364490Y56024D02*
X366470Y56024D01*
X366470Y56993D02*
X364490Y56993D01*
X364490Y57962D02*
X366470Y57962D01*
X366470Y58931D02*
X364490Y58931D01*
X364490Y59900D02*
X366470Y59900D01*
X366470Y60869D02*
X364490Y60869D01*
X364490Y61838D02*
X366470Y61838D01*
X366470Y62807D02*
X364490Y62807D01*
X361470Y54086D02*
X359490Y54086D01*
X359490Y63066D01*
X361470Y63066D01*
X361470Y54086D01*
X361470Y55055D02*
X359490Y55055D01*
X359490Y56024D02*
X361470Y56024D01*
X361470Y56993D02*
X359490Y56993D01*
X359490Y57962D02*
X361470Y57962D01*
X361470Y58931D02*
X359490Y58931D01*
X359490Y59900D02*
X361470Y59900D01*
X361470Y60869D02*
X359490Y60869D01*
X359490Y61838D02*
X361470Y61838D01*
X361470Y62807D02*
X359490Y62807D01*
X341470Y63066D02*
X339490Y63066D01*
X341470Y63066D02*
X341470Y54086D01*
X339490Y54086D01*
X339490Y63066D01*
X339490Y55055D02*
X341470Y55055D01*
X341470Y56024D02*
X339490Y56024D01*
X339490Y56993D02*
X341470Y56993D01*
X341470Y57962D02*
X339490Y57962D01*
X339490Y58931D02*
X341470Y58931D01*
X341470Y59900D02*
X339490Y59900D01*
X339490Y60869D02*
X341470Y60869D01*
X341470Y61838D02*
X339490Y61838D01*
X339490Y62807D02*
X341470Y62807D01*
X344490Y63066D02*
X346470Y63066D01*
X346470Y54086D01*
X344490Y54086D01*
X344490Y63066D01*
X344490Y55055D02*
X346470Y55055D01*
X346470Y56024D02*
X344490Y56024D01*
X344490Y56993D02*
X346470Y56993D01*
X346470Y57962D02*
X344490Y57962D01*
X344490Y58931D02*
X346470Y58931D01*
X346470Y59900D02*
X344490Y59900D01*
X344490Y60869D02*
X346470Y60869D01*
X346470Y61838D02*
X344490Y61838D01*
X344490Y62807D02*
X346470Y62807D01*
X318220Y63066D02*
X313240Y63066D01*
X318220Y63066D02*
X318220Y54086D01*
X313240Y54086D01*
X313240Y63066D01*
X313240Y55055D02*
X318220Y55055D01*
X318220Y56024D02*
X313240Y56024D01*
X313240Y56993D02*
X318220Y56993D01*
X318220Y57962D02*
X313240Y57962D01*
X313240Y58931D02*
X318220Y58931D01*
X318220Y59900D02*
X313240Y59900D01*
X313240Y60869D02*
X318220Y60869D01*
X318220Y61838D02*
X313240Y61838D01*
X313240Y62807D02*
X318220Y62807D01*
X320990Y63066D02*
X325970Y63066D01*
X325970Y54086D01*
X320990Y54086D01*
X320990Y63066D01*
X320990Y55055D02*
X325970Y55055D01*
X325970Y56024D02*
X320990Y56024D01*
X320990Y56993D02*
X325970Y56993D01*
X325970Y57962D02*
X320990Y57962D01*
X320990Y58931D02*
X325970Y58931D01*
X325970Y59900D02*
X320990Y59900D01*
X320990Y60869D02*
X325970Y60869D01*
X325970Y61838D02*
X320990Y61838D01*
X320990Y62807D02*
X325970Y62807D01*
X329490Y63066D02*
X331470Y63066D01*
X331470Y54086D01*
X329490Y54086D01*
X329490Y63066D01*
X329490Y55055D02*
X331470Y55055D01*
X331470Y56024D02*
X329490Y56024D01*
X329490Y56993D02*
X331470Y56993D01*
X331470Y57962D02*
X329490Y57962D01*
X329490Y58931D02*
X331470Y58931D01*
X331470Y59900D02*
X329490Y59900D01*
X329490Y60869D02*
X331470Y60869D01*
X331470Y61838D02*
X329490Y61838D01*
X329490Y62807D02*
X331470Y62807D01*
X334490Y63066D02*
X336470Y63066D01*
X336470Y54086D01*
X334490Y54086D01*
X334490Y63066D01*
X334490Y55055D02*
X336470Y55055D01*
X336470Y56024D02*
X334490Y56024D01*
X334490Y56993D02*
X336470Y56993D01*
X336470Y57962D02*
X334490Y57962D01*
X334490Y58931D02*
X336470Y58931D01*
X336470Y59900D02*
X334490Y59900D01*
X334490Y60869D02*
X336470Y60869D01*
X336470Y61838D02*
X334490Y61838D01*
X334490Y62807D02*
X336470Y62807D01*
D11*
X414686Y88245D02*
X414686Y92755D01*
X414686Y88245D02*
X402176Y88245D01*
X402176Y92755D01*
X414686Y92755D01*
X414686Y89185D02*
X402176Y89185D01*
X402176Y90125D02*
X414686Y90125D01*
X414686Y91065D02*
X402176Y91065D01*
X402176Y92005D02*
X414686Y92005D01*
X414686Y97745D02*
X414686Y102255D01*
X414686Y97745D02*
X402176Y97745D01*
X402176Y102255D01*
X414686Y102255D01*
X414686Y98685D02*
X402176Y98685D01*
X402176Y99625D02*
X414686Y99625D01*
X414686Y100565D02*
X402176Y100565D01*
X402176Y101505D02*
X414686Y101505D01*
X414686Y107245D02*
X414686Y111755D01*
X414686Y107245D02*
X402176Y107245D01*
X402176Y111755D01*
X414686Y111755D01*
X414686Y108185D02*
X402176Y108185D01*
X402176Y109125D02*
X414686Y109125D01*
X414686Y110065D02*
X402176Y110065D01*
X402176Y111005D02*
X414686Y111005D01*
X387184Y111755D02*
X387184Y107245D01*
X374674Y107245D01*
X374674Y111755D01*
X387184Y111755D01*
X387184Y108185D02*
X374674Y108185D01*
X374674Y109125D02*
X387184Y109125D01*
X387184Y110065D02*
X374674Y110065D01*
X374674Y111005D02*
X387184Y111005D01*
X387184Y102255D02*
X387184Y97745D01*
X374674Y97745D01*
X374674Y102255D01*
X387184Y102255D01*
X387184Y98685D02*
X374674Y98685D01*
X374674Y99625D02*
X387184Y99625D01*
X387184Y100565D02*
X374674Y100565D01*
X374674Y101505D02*
X387184Y101505D01*
X387184Y92755D02*
X387184Y88245D01*
X374674Y88245D01*
X374674Y92755D01*
X387184Y92755D01*
X387184Y89185D02*
X374674Y89185D01*
X374674Y90125D02*
X387184Y90125D01*
X387184Y91065D02*
X374674Y91065D01*
X374674Y92005D02*
X387184Y92005D01*
D10*
X405190Y60490D02*
X405190Y55510D01*
X405190Y60490D02*
X410170Y60490D01*
X410170Y55510D01*
X405190Y55510D01*
X405190Y56479D02*
X410170Y56479D01*
X410170Y57448D02*
X405190Y57448D01*
X405190Y58417D02*
X410170Y58417D01*
X410170Y59386D02*
X405190Y59386D01*
X405190Y60355D02*
X410170Y60355D01*
X405190Y50490D02*
X405190Y45510D01*
X405190Y50490D02*
X410170Y50490D01*
X410170Y45510D01*
X405190Y45510D01*
X405190Y46479D02*
X410170Y46479D01*
X410170Y47448D02*
X405190Y47448D01*
X405190Y48417D02*
X410170Y48417D01*
X410170Y49386D02*
X405190Y49386D01*
X405190Y50355D02*
X410170Y50355D01*
X327970Y72710D02*
X322990Y72710D01*
X322990Y77690D01*
X327970Y77690D01*
X327970Y72710D01*
X327970Y73679D02*
X322990Y73679D01*
X322990Y74648D02*
X327970Y74648D01*
X327970Y75617D02*
X322990Y75617D01*
X322990Y76586D02*
X327970Y76586D01*
X327970Y77555D02*
X322990Y77555D01*
X332990Y72710D02*
X337970Y72710D01*
X332990Y72710D02*
X332990Y77690D01*
X337970Y77690D01*
X337970Y72710D01*
X337970Y73679D02*
X332990Y73679D01*
X332990Y74648D02*
X337970Y74648D01*
X337970Y75617D02*
X332990Y75617D01*
X332990Y76586D02*
X337970Y76586D01*
X337970Y77555D02*
X332990Y77555D01*
D12*
X373480Y539900D03*
X373480Y550900D03*
X373480Y561900D03*
X373480Y572900D03*
X373480Y583900D03*
X373480Y594900D03*
X318480Y539900D03*
X318480Y550900D03*
X318480Y561900D03*
X318480Y572900D03*
X318480Y583900D03*
X318480Y594900D03*
X362480Y539900D03*
X351480Y539900D03*
X340480Y539900D03*
X329480Y539900D03*
X305980Y513900D03*
X315980Y513900D03*
X325980Y513900D03*
X335980Y513900D03*
X345980Y513900D03*
X355980Y513900D03*
X365980Y513900D03*
X375980Y513900D03*
X385980Y513900D03*
X328730Y564650D03*
X340230Y564650D03*
X351730Y564650D03*
X363230Y564650D03*
X340230Y576150D03*
X351730Y576150D03*
X340230Y553150D03*
X351730Y553150D03*
X328730Y587650D03*
X340230Y587650D03*
X351730Y587650D03*
X363230Y587650D03*
X302480Y625400D03*
X302480Y650900D03*
X389480Y650900D03*
X389480Y625400D03*
D13*
X387230Y525400D03*
X387230Y535400D03*
X387230Y545400D03*
X387230Y555400D03*
X387230Y565400D03*
X387230Y575400D03*
X387230Y585400D03*
X387230Y595400D03*
X387230Y605400D03*
X387230Y615400D03*
X304730Y525400D03*
X304730Y535400D03*
X304730Y545400D03*
X304730Y555400D03*
X304730Y565400D03*
X304730Y575400D03*
X304730Y585400D03*
X304730Y595400D03*
X304730Y605400D03*
X304730Y615400D03*
D14*
X365980Y526150D03*
X355980Y526150D03*
X345980Y526150D03*
X335980Y526150D03*
X325980Y526150D03*
X365980Y614650D03*
X355980Y614650D03*
X345980Y614650D03*
X335980Y614650D03*
X325980Y614650D03*
D15*
X328740Y172300D02*
X328740Y163300D01*
X283740Y163300D01*
X283740Y172300D01*
X328740Y172300D01*
X328740Y164250D02*
X283740Y164250D01*
X283740Y165200D02*
X328740Y165200D01*
X328740Y166150D02*
X283740Y166150D01*
X283740Y167100D02*
X328740Y167100D01*
X328740Y168050D02*
X283740Y168050D01*
X283740Y169000D02*
X328740Y169000D01*
X328740Y169950D02*
X283740Y169950D01*
X283740Y170900D02*
X328740Y170900D01*
X328740Y171850D02*
X283740Y171850D01*
X328740Y183300D02*
X328740Y192300D01*
X328740Y183300D02*
X283740Y183300D01*
X283740Y192300D01*
X328740Y192300D01*
X328740Y184250D02*
X283740Y184250D01*
X283740Y185200D02*
X328740Y185200D01*
X328740Y186150D02*
X283740Y186150D01*
X283740Y187100D02*
X328740Y187100D01*
X328740Y188050D02*
X283740Y188050D01*
X283740Y189000D02*
X328740Y189000D01*
X328740Y189950D02*
X283740Y189950D01*
X283740Y190900D02*
X328740Y190900D01*
X328740Y191850D02*
X283740Y191850D01*
D16*
X270760Y151320D02*
X237720Y151320D01*
X270760Y151320D02*
X270760Y136280D01*
X237720Y136280D01*
X237720Y151320D01*
X237720Y137192D02*
X270760Y137192D01*
X270760Y138104D02*
X237720Y138104D01*
X237720Y139016D02*
X270760Y139016D01*
X270760Y139928D02*
X237720Y139928D01*
X237720Y140840D02*
X270760Y140840D01*
X270760Y141752D02*
X237720Y141752D01*
X237720Y142664D02*
X270760Y142664D01*
X270760Y143576D02*
X237720Y143576D01*
X237720Y144488D02*
X270760Y144488D01*
X270760Y145400D02*
X237720Y145400D01*
X237720Y146312D02*
X270760Y146312D01*
X270760Y147224D02*
X237720Y147224D01*
X237720Y148136D02*
X270760Y148136D01*
X270760Y149048D02*
X237720Y149048D01*
X237720Y149960D02*
X270760Y149960D01*
X270760Y150872D02*
X237720Y150872D01*
X237720Y219320D02*
X270760Y219320D01*
X270760Y204280D01*
X237720Y204280D01*
X237720Y219320D01*
X237720Y205192D02*
X270760Y205192D01*
X270760Y206104D02*
X237720Y206104D01*
X237720Y207016D02*
X270760Y207016D01*
X270760Y207928D02*
X237720Y207928D01*
X237720Y208840D02*
X270760Y208840D01*
X270760Y209752D02*
X237720Y209752D01*
X237720Y210664D02*
X270760Y210664D01*
X270760Y211576D02*
X237720Y211576D01*
X237720Y212488D02*
X270760Y212488D01*
X270760Y213400D02*
X237720Y213400D01*
X237720Y214312D02*
X270760Y214312D01*
X270760Y215224D02*
X237720Y215224D01*
X237720Y216136D02*
X270760Y216136D01*
X270760Y217048D02*
X237720Y217048D01*
X237720Y217960D02*
X270760Y217960D01*
X270760Y218872D02*
X237720Y218872D01*
D11*
X356474Y193255D02*
X356474Y188745D01*
X356474Y193255D02*
X367484Y193255D01*
X367484Y188745D01*
X356474Y188745D01*
X356474Y189685D02*
X367484Y189685D01*
X367484Y190625D02*
X356474Y190625D01*
X356474Y191565D02*
X367484Y191565D01*
X367484Y192505D02*
X356474Y192505D01*
X356474Y183755D02*
X356474Y179245D01*
X356474Y183755D02*
X367484Y183755D01*
X367484Y179245D01*
X356474Y179245D01*
X356474Y180185D02*
X367484Y180185D01*
X367484Y181125D02*
X356474Y181125D01*
X356474Y182065D02*
X367484Y182065D01*
X367484Y183005D02*
X356474Y183005D01*
X356474Y174255D02*
X356474Y169745D01*
X356474Y174255D02*
X367484Y174255D01*
X367484Y169745D01*
X356474Y169745D01*
X356474Y170685D02*
X367484Y170685D01*
X367484Y171625D02*
X356474Y171625D01*
X356474Y172565D02*
X367484Y172565D01*
X367484Y173505D02*
X356474Y173505D01*
X382476Y174255D02*
X382476Y169745D01*
X382476Y174255D02*
X393486Y174255D01*
X393486Y169745D01*
X382476Y169745D01*
X382476Y170685D02*
X393486Y170685D01*
X393486Y171625D02*
X382476Y171625D01*
X382476Y172565D02*
X393486Y172565D01*
X393486Y173505D02*
X382476Y173505D01*
X382476Y188745D02*
X382476Y193255D01*
X393486Y193255D01*
X393486Y188745D01*
X382476Y188745D01*
X382476Y189685D02*
X393486Y189685D01*
X393486Y190625D02*
X382476Y190625D01*
X382476Y191565D02*
X393486Y191565D01*
X393486Y192505D02*
X382476Y192505D01*
D17*
X350950Y203500D02*
X350950Y210500D01*
X357950Y210500D01*
X357950Y203500D01*
X350950Y203500D01*
X350950Y206350D02*
X357950Y206350D01*
X357950Y209200D02*
X350950Y209200D01*
X333410Y210500D02*
X333410Y203500D01*
X333410Y210500D02*
X340410Y210500D01*
X340410Y203500D01*
X333410Y203500D01*
X333410Y206350D02*
X340410Y206350D01*
X340410Y209200D02*
X333410Y209200D01*
D10*
X338190Y217510D02*
X343170Y217510D01*
X338190Y217510D02*
X338190Y222490D01*
X343170Y222490D01*
X343170Y217510D01*
X343170Y218479D02*
X338190Y218479D01*
X338190Y219448D02*
X343170Y219448D01*
X343170Y220417D02*
X338190Y220417D01*
X338190Y221386D02*
X343170Y221386D01*
X343170Y222355D02*
X338190Y222355D01*
X348190Y217510D02*
X353170Y217510D01*
X348190Y217510D02*
X348190Y222490D01*
X353170Y222490D01*
X353170Y217510D01*
X353170Y218479D02*
X348190Y218479D01*
X348190Y219448D02*
X353170Y219448D01*
X353170Y220417D02*
X348190Y220417D01*
X348190Y221386D02*
X353170Y221386D01*
X353170Y222355D02*
X348190Y222355D01*
X400190Y174490D02*
X400190Y169510D01*
X400190Y174490D02*
X405170Y174490D01*
X405170Y169510D01*
X400190Y169510D01*
X400190Y170479D02*
X405170Y170479D01*
X405170Y171448D02*
X400190Y171448D01*
X400190Y172417D02*
X405170Y172417D01*
X405170Y173386D02*
X400190Y173386D01*
X400190Y174355D02*
X405170Y174355D01*
X400190Y164490D02*
X400190Y159510D01*
X400190Y164490D02*
X405170Y164490D01*
X405170Y159510D01*
X400190Y159510D01*
X400190Y160479D02*
X405170Y160479D01*
X405170Y161448D02*
X400190Y161448D01*
X400190Y162417D02*
X405170Y162417D01*
X405170Y163386D02*
X400190Y163386D01*
X400190Y164355D02*
X405170Y164355D01*
X408190Y198510D02*
X408190Y203490D01*
X413170Y203490D01*
X413170Y198510D01*
X408190Y198510D01*
X408190Y199479D02*
X413170Y199479D01*
X413170Y200448D02*
X408190Y200448D01*
X408190Y201417D02*
X413170Y201417D01*
X413170Y202386D02*
X408190Y202386D01*
X408190Y203355D02*
X413170Y203355D01*
X408190Y193490D02*
X408190Y188510D01*
X408190Y193490D02*
X413170Y193490D01*
X413170Y188510D01*
X408190Y188510D01*
X408190Y189479D02*
X413170Y189479D01*
X413170Y190448D02*
X408190Y190448D01*
X408190Y191417D02*
X413170Y191417D01*
X413170Y192386D02*
X408190Y192386D01*
X408190Y193355D02*
X413170Y193355D01*
X341190Y174490D02*
X341190Y169510D01*
X341190Y174490D02*
X346170Y174490D01*
X346170Y169510D01*
X341190Y169510D01*
X341190Y170479D02*
X346170Y170479D01*
X346170Y171448D02*
X341190Y171448D01*
X341190Y172417D02*
X346170Y172417D01*
X346170Y173386D02*
X341190Y173386D01*
X341190Y174355D02*
X346170Y174355D01*
X341190Y164490D02*
X341190Y159510D01*
X341190Y164490D02*
X346170Y164490D01*
X346170Y159510D01*
X341190Y159510D01*
X341190Y160479D02*
X346170Y160479D01*
X346170Y161448D02*
X341190Y161448D01*
X341190Y162417D02*
X346170Y162417D01*
X346170Y163386D02*
X341190Y163386D01*
X341190Y164355D02*
X346170Y164355D01*
D18*
X359660Y231020D02*
X359660Y237980D01*
X359660Y231020D02*
X351700Y231020D01*
X351700Y237980D01*
X359660Y237980D01*
X359660Y232008D02*
X351700Y232008D01*
X351700Y232996D02*
X359660Y232996D01*
X359660Y233984D02*
X351700Y233984D01*
X351700Y234972D02*
X359660Y234972D01*
X359660Y235960D02*
X351700Y235960D01*
X351700Y236948D02*
X359660Y236948D01*
X359660Y237936D02*
X351700Y237936D01*
X359660Y250020D02*
X359660Y256980D01*
X359660Y250020D02*
X351700Y250020D01*
X351700Y256980D01*
X359660Y256980D01*
X359660Y251008D02*
X351700Y251008D01*
X351700Y251996D02*
X359660Y251996D01*
X359660Y252984D02*
X351700Y252984D01*
X351700Y253972D02*
X359660Y253972D01*
X359660Y254960D02*
X351700Y254960D01*
X351700Y255948D02*
X359660Y255948D01*
X359660Y256936D02*
X351700Y256936D01*
X338660Y247480D02*
X338660Y240520D01*
X330700Y240520D01*
X330700Y247480D01*
X338660Y247480D01*
X338660Y241508D02*
X330700Y241508D01*
X330700Y242496D02*
X338660Y242496D01*
X338660Y243484D02*
X330700Y243484D01*
X330700Y244472D02*
X338660Y244472D01*
X338660Y245460D02*
X330700Y245460D01*
X330700Y246448D02*
X338660Y246448D01*
X338660Y247436D02*
X330700Y247436D01*
D19*
X371834Y252854D02*
X371834Y258146D01*
X379126Y258146D01*
X379126Y252854D01*
X371834Y252854D01*
X371834Y253812D02*
X379126Y253812D01*
X379126Y254770D02*
X371834Y254770D01*
X371834Y255728D02*
X379126Y255728D01*
X379126Y256686D02*
X371834Y256686D01*
X371834Y257644D02*
X379126Y257644D01*
X371834Y235146D02*
X371834Y229854D01*
X371834Y235146D02*
X379126Y235146D01*
X379126Y229854D01*
X371834Y229854D01*
X371834Y230812D02*
X379126Y230812D01*
X379126Y231770D02*
X371834Y231770D01*
X371834Y232728D02*
X379126Y232728D01*
X379126Y233686D02*
X371834Y233686D01*
X371834Y234644D02*
X379126Y234644D01*
D10*
X394190Y203490D02*
X399170Y203490D01*
X399170Y198510D01*
X394190Y198510D01*
X394190Y203490D01*
X394190Y199479D02*
X399170Y199479D01*
X399170Y200448D02*
X394190Y200448D01*
X394190Y201417D02*
X399170Y201417D01*
X399170Y202386D02*
X394190Y202386D01*
X394190Y203355D02*
X399170Y203355D01*
X389170Y203490D02*
X384190Y203490D01*
X389170Y203490D02*
X389170Y198510D01*
X384190Y198510D01*
X384190Y203490D01*
X384190Y199479D02*
X389170Y199479D01*
X389170Y200448D02*
X384190Y200448D01*
X384190Y201417D02*
X389170Y201417D01*
X389170Y202386D02*
X384190Y202386D01*
X384190Y203355D02*
X389170Y203355D01*
X404190Y272510D02*
X404190Y277490D01*
X409170Y277490D01*
X409170Y272510D01*
X404190Y272510D01*
X404190Y273479D02*
X409170Y273479D01*
X409170Y274448D02*
X404190Y274448D01*
X404190Y275417D02*
X409170Y275417D01*
X409170Y276386D02*
X404190Y276386D01*
X404190Y277355D02*
X409170Y277355D01*
X404190Y267490D02*
X404190Y262510D01*
X404190Y267490D02*
X409170Y267490D01*
X409170Y262510D01*
X404190Y262510D01*
X404190Y263479D02*
X409170Y263479D01*
X409170Y264448D02*
X404190Y264448D01*
X404190Y265417D02*
X409170Y265417D01*
X409170Y266386D02*
X404190Y266386D01*
X404190Y267355D02*
X409170Y267355D01*
D11*
X383735Y339094D02*
X379225Y339094D01*
X379225Y350104D01*
X383735Y350104D01*
X383735Y339094D01*
X383735Y340034D02*
X379225Y340034D01*
X379225Y340974D02*
X383735Y340974D01*
X383735Y341914D02*
X379225Y341914D01*
X379225Y342854D02*
X383735Y342854D01*
X383735Y343794D02*
X379225Y343794D01*
X379225Y344734D02*
X383735Y344734D01*
X383735Y345674D02*
X379225Y345674D01*
X379225Y346614D02*
X383735Y346614D01*
X383735Y347554D02*
X379225Y347554D01*
X379225Y348494D02*
X383735Y348494D01*
X383735Y349434D02*
X379225Y349434D01*
X388725Y339094D02*
X393235Y339094D01*
X388725Y339094D02*
X388725Y350104D01*
X393235Y350104D01*
X393235Y339094D01*
X393235Y340034D02*
X388725Y340034D01*
X388725Y340974D02*
X393235Y340974D01*
X393235Y341914D02*
X388725Y341914D01*
X388725Y342854D02*
X393235Y342854D01*
X393235Y343794D02*
X388725Y343794D01*
X388725Y344734D02*
X393235Y344734D01*
X393235Y345674D02*
X388725Y345674D01*
X388725Y346614D02*
X393235Y346614D01*
X393235Y347554D02*
X388725Y347554D01*
X388725Y348494D02*
X393235Y348494D01*
X393235Y349434D02*
X388725Y349434D01*
X398225Y339094D02*
X402735Y339094D01*
X398225Y339094D02*
X398225Y350104D01*
X402735Y350104D01*
X402735Y339094D01*
X402735Y340034D02*
X398225Y340034D01*
X398225Y340974D02*
X402735Y340974D01*
X402735Y341914D02*
X398225Y341914D01*
X398225Y342854D02*
X402735Y342854D01*
X402735Y343794D02*
X398225Y343794D01*
X398225Y344734D02*
X402735Y344734D01*
X402735Y345674D02*
X398225Y345674D01*
X398225Y346614D02*
X402735Y346614D01*
X402735Y347554D02*
X398225Y347554D01*
X398225Y348494D02*
X402735Y348494D01*
X402735Y349434D02*
X398225Y349434D01*
X398225Y365096D02*
X402735Y365096D01*
X398225Y365096D02*
X398225Y376106D01*
X402735Y376106D01*
X402735Y365096D01*
X402735Y366036D02*
X398225Y366036D01*
X398225Y366976D02*
X402735Y366976D01*
X402735Y367916D02*
X398225Y367916D01*
X398225Y368856D02*
X402735Y368856D01*
X402735Y369796D02*
X398225Y369796D01*
X398225Y370736D02*
X402735Y370736D01*
X402735Y371676D02*
X398225Y371676D01*
X398225Y372616D02*
X402735Y372616D01*
X402735Y373556D02*
X398225Y373556D01*
X398225Y374496D02*
X402735Y374496D01*
X402735Y375436D02*
X398225Y375436D01*
X383735Y365096D02*
X379225Y365096D01*
X379225Y376106D01*
X383735Y376106D01*
X383735Y365096D01*
X383735Y366036D02*
X379225Y366036D01*
X379225Y366976D02*
X383735Y366976D01*
X383735Y367916D02*
X379225Y367916D01*
X379225Y368856D02*
X383735Y368856D01*
X383735Y369796D02*
X379225Y369796D01*
X379225Y370736D02*
X383735Y370736D01*
X383735Y371676D02*
X379225Y371676D01*
X379225Y372616D02*
X383735Y372616D01*
X383735Y373556D02*
X379225Y373556D01*
X379225Y374496D02*
X383735Y374496D01*
X383735Y375436D02*
X379225Y375436D01*
D10*
X397670Y277490D02*
X397670Y272510D01*
X392690Y272510D01*
X392690Y277490D01*
X397670Y277490D01*
X397670Y273479D02*
X392690Y273479D01*
X392690Y274448D02*
X397670Y274448D01*
X397670Y275417D02*
X392690Y275417D01*
X392690Y276386D02*
X397670Y276386D01*
X397670Y277355D02*
X392690Y277355D01*
X397670Y282510D02*
X397670Y287490D01*
X397670Y282510D02*
X392690Y282510D01*
X392690Y287490D01*
X397670Y287490D01*
X397670Y283479D02*
X392690Y283479D01*
X392690Y284448D02*
X397670Y284448D01*
X397670Y285417D02*
X392690Y285417D01*
X392690Y286386D02*
X397670Y286386D01*
X397670Y287355D02*
X392690Y287355D01*
X384170Y382510D02*
X379190Y382510D01*
X379190Y387490D01*
X384170Y387490D01*
X384170Y382510D01*
X384170Y383479D02*
X379190Y383479D01*
X379190Y384448D02*
X384170Y384448D01*
X384170Y385417D02*
X379190Y385417D01*
X379190Y386386D02*
X384170Y386386D01*
X384170Y387355D02*
X379190Y387355D01*
X389190Y382510D02*
X394170Y382510D01*
X389190Y382510D02*
X389190Y387490D01*
X394170Y387490D01*
X394170Y382510D01*
X394170Y383479D02*
X389190Y383479D01*
X389190Y384448D02*
X394170Y384448D01*
X394170Y385417D02*
X389190Y385417D01*
X389190Y386386D02*
X394170Y386386D01*
X394170Y387355D02*
X389190Y387355D01*
X391170Y437490D02*
X386190Y437490D01*
X391170Y437490D02*
X391170Y432510D01*
X386190Y432510D01*
X386190Y437490D01*
X386190Y433479D02*
X391170Y433479D01*
X391170Y434448D02*
X386190Y434448D01*
X386190Y435417D02*
X391170Y435417D01*
X391170Y436386D02*
X386190Y436386D01*
X386190Y437355D02*
X391170Y437355D01*
X381170Y437490D02*
X376190Y437490D01*
X381170Y437490D02*
X381170Y432510D01*
X376190Y432510D01*
X376190Y437490D01*
X376190Y433479D02*
X381170Y433479D01*
X381170Y434448D02*
X376190Y434448D01*
X376190Y435417D02*
X381170Y435417D01*
X381170Y436386D02*
X376190Y436386D01*
X376190Y437355D02*
X381170Y437355D01*
D17*
X385180Y466270D02*
X392180Y466270D01*
X385180Y466270D02*
X385180Y473270D01*
X392180Y473270D01*
X392180Y466270D01*
X392180Y469120D02*
X385180Y469120D01*
X385180Y471970D02*
X392180Y471970D01*
X392180Y448730D02*
X385180Y448730D01*
X385180Y455730D01*
X392180Y455730D01*
X392180Y448730D01*
X392180Y451580D02*
X385180Y451580D01*
X385180Y454430D02*
X392180Y454430D01*
D20*
X292680Y241913D03*
X297680Y262288D03*
X292680Y262288D03*
X302680Y262288D03*
X307680Y262288D03*
X297680Y241913D03*
X302680Y241913D03*
X307680Y241913D03*
D21*
X303580Y252100D03*
X296780Y252100D03*
D10*
X321170Y238490D02*
X321170Y233510D01*
X316190Y233510D01*
X316190Y238490D01*
X321170Y238490D01*
X321170Y234479D02*
X316190Y234479D01*
X316190Y235448D02*
X321170Y235448D01*
X321170Y236417D02*
X316190Y236417D01*
X316190Y237386D02*
X321170Y237386D01*
X321170Y238355D02*
X316190Y238355D01*
X321170Y243510D02*
X321170Y248490D01*
X321170Y243510D02*
X316190Y243510D01*
X316190Y248490D01*
X321170Y248490D01*
X321170Y244479D02*
X316190Y244479D01*
X316190Y245448D02*
X321170Y245448D01*
X321170Y246417D02*
X316190Y246417D01*
X316190Y247386D02*
X321170Y247386D01*
X321170Y248355D02*
X316190Y248355D01*
X333190Y93490D02*
X338170Y93490D01*
X338170Y88510D01*
X333190Y88510D01*
X333190Y93490D01*
X333190Y89479D02*
X338170Y89479D01*
X338170Y90448D02*
X333190Y90448D01*
X333190Y91417D02*
X338170Y91417D01*
X338170Y92386D02*
X333190Y92386D01*
X333190Y93355D02*
X338170Y93355D01*
X328170Y93490D02*
X323190Y93490D01*
X328170Y93490D02*
X328170Y88510D01*
X323190Y88510D01*
X323190Y93490D01*
X323190Y89479D02*
X328170Y89479D01*
X328170Y90448D02*
X323190Y90448D01*
X323190Y91417D02*
X328170Y91417D01*
X328170Y92386D02*
X323190Y92386D01*
X323190Y93355D02*
X328170Y93355D01*
D22*
X350855Y466825D02*
X356805Y466825D01*
X350855Y466825D02*
X350855Y472775D01*
X356805Y472775D01*
X356805Y466825D01*
X356805Y467822D02*
X350855Y467822D01*
X350855Y468819D02*
X356805Y468819D01*
X356805Y469816D02*
X350855Y469816D01*
X350855Y470813D02*
X356805Y470813D01*
X356805Y471810D02*
X350855Y471810D01*
X350855Y455825D02*
X356805Y455825D01*
X350855Y455825D02*
X350855Y461775D01*
X356805Y461775D01*
X356805Y455825D01*
X356805Y456822D02*
X350855Y456822D01*
X350855Y457819D02*
X356805Y457819D01*
X356805Y458816D02*
X350855Y458816D01*
X350855Y459813D02*
X356805Y459813D01*
X356805Y460810D02*
X350855Y460810D01*
X338505Y455825D02*
X332555Y455825D01*
X332555Y461775D01*
X338505Y461775D01*
X338505Y455825D01*
X338505Y456822D02*
X332555Y456822D01*
X332555Y457819D02*
X338505Y457819D01*
X338505Y458816D02*
X332555Y458816D01*
X332555Y459813D02*
X338505Y459813D01*
X338505Y460810D02*
X332555Y460810D01*
X332555Y466825D02*
X338505Y466825D01*
X332555Y466825D02*
X332555Y472775D01*
X338505Y472775D01*
X338505Y466825D01*
X338505Y467822D02*
X332555Y467822D01*
X332555Y468819D02*
X338505Y468819D01*
X338505Y469816D02*
X332555Y469816D01*
X332555Y470813D02*
X338505Y470813D01*
X338505Y471810D02*
X332555Y471810D01*
D10*
X337190Y441510D02*
X342170Y441510D01*
X337190Y441510D02*
X337190Y446490D01*
X342170Y446490D01*
X342170Y441510D01*
X342170Y442479D02*
X337190Y442479D01*
X337190Y443448D02*
X342170Y443448D01*
X342170Y444417D02*
X337190Y444417D01*
X337190Y445386D02*
X342170Y445386D01*
X342170Y446355D02*
X337190Y446355D01*
X347190Y441510D02*
X352170Y441510D01*
X347190Y441510D02*
X347190Y446490D01*
X352170Y446490D01*
X352170Y441510D01*
X352170Y442479D02*
X347190Y442479D01*
X347190Y443448D02*
X352170Y443448D01*
X352170Y444417D02*
X347190Y444417D01*
X347190Y445386D02*
X352170Y445386D01*
X352170Y446355D02*
X347190Y446355D01*
X266470Y481910D02*
X261490Y481910D01*
X261490Y486890D01*
X266470Y486890D01*
X266470Y481910D01*
X266470Y482879D02*
X261490Y482879D01*
X261490Y483848D02*
X266470Y483848D01*
X266470Y484817D02*
X261490Y484817D01*
X261490Y485786D02*
X266470Y485786D01*
X266470Y486755D02*
X261490Y486755D01*
X271490Y481910D02*
X276470Y481910D01*
X271490Y481910D02*
X271490Y486890D01*
X276470Y486890D01*
X276470Y481910D01*
X276470Y482879D02*
X271490Y482879D01*
X271490Y483848D02*
X276470Y483848D01*
X276470Y484817D02*
X271490Y484817D01*
X271490Y485786D02*
X276470Y485786D01*
X276470Y486755D02*
X271490Y486755D01*
X267470Y505510D02*
X262490Y505510D01*
X262490Y510490D01*
X267470Y510490D01*
X267470Y505510D01*
X267470Y506479D02*
X262490Y506479D01*
X262490Y507448D02*
X267470Y507448D01*
X267470Y508417D02*
X262490Y508417D01*
X262490Y509386D02*
X267470Y509386D01*
X267470Y510355D02*
X262490Y510355D01*
X272490Y505510D02*
X277470Y505510D01*
X272490Y505510D02*
X272490Y510490D01*
X277470Y510490D01*
X277470Y505510D01*
X277470Y506479D02*
X272490Y506479D01*
X272490Y507448D02*
X277470Y507448D01*
X277470Y508417D02*
X272490Y508417D01*
X272490Y509386D02*
X277470Y509386D01*
X277470Y510355D02*
X272490Y510355D01*
X388140Y224010D02*
X395620Y224010D01*
X388140Y224010D02*
X388140Y231990D01*
X395620Y231990D01*
X395620Y224010D01*
X395620Y224979D02*
X388140Y224979D01*
X388140Y225948D02*
X395620Y225948D01*
X395620Y226917D02*
X388140Y226917D01*
X388140Y227886D02*
X395620Y227886D01*
X395620Y228855D02*
X388140Y228855D01*
X388140Y229824D02*
X395620Y229824D01*
X395620Y230793D02*
X388140Y230793D01*
X388140Y231762D02*
X395620Y231762D01*
X399740Y224010D02*
X407220Y224010D01*
X399740Y224010D02*
X399740Y231990D01*
X407220Y231990D01*
X407220Y224010D01*
X407220Y224979D02*
X399740Y224979D01*
X399740Y225948D02*
X407220Y225948D01*
X407220Y226917D02*
X399740Y226917D01*
X399740Y227886D02*
X407220Y227886D01*
X407220Y228855D02*
X399740Y228855D01*
X399740Y229824D02*
X407220Y229824D01*
X407220Y230793D02*
X399740Y230793D01*
X399740Y231762D02*
X407220Y231762D01*
X405770Y246490D02*
X400790Y246490D01*
X405770Y246490D02*
X405770Y241510D01*
X400790Y241510D01*
X400790Y246490D01*
X400790Y242479D02*
X405770Y242479D01*
X405770Y243448D02*
X400790Y243448D01*
X400790Y244417D02*
X405770Y244417D01*
X405770Y245386D02*
X400790Y245386D01*
X400790Y246355D02*
X405770Y246355D01*
X395770Y246490D02*
X390790Y246490D01*
X395770Y246490D02*
X395770Y241510D01*
X390790Y241510D01*
X390790Y246490D01*
X390790Y242479D02*
X395770Y242479D01*
X395770Y243448D02*
X390790Y243448D01*
X390790Y244417D02*
X395770Y244417D01*
X395770Y245386D02*
X390790Y245386D01*
X390790Y246355D02*
X395770Y246355D01*
X389170Y210510D02*
X384190Y210510D01*
X384190Y215490D01*
X389170Y215490D01*
X389170Y210510D01*
X389170Y211479D02*
X384190Y211479D01*
X384190Y212448D02*
X389170Y212448D01*
X389170Y213417D02*
X384190Y213417D01*
X384190Y214386D02*
X389170Y214386D01*
X389170Y215355D02*
X384190Y215355D01*
X394190Y210510D02*
X399170Y210510D01*
X394190Y210510D02*
X394190Y215490D01*
X399170Y215490D01*
X399170Y210510D01*
X399170Y211479D02*
X394190Y211479D01*
X394190Y212448D02*
X399170Y212448D01*
X399170Y213417D02*
X394190Y213417D01*
X394190Y214386D02*
X399170Y214386D01*
X399170Y215355D02*
X394190Y215355D01*
D17*
X313680Y462670D02*
X306680Y462670D01*
X306680Y469670D01*
X313680Y469670D01*
X313680Y462670D01*
X313680Y465520D02*
X306680Y465520D01*
X306680Y468370D02*
X313680Y468370D01*
X313680Y445130D02*
X306680Y445130D01*
X306680Y452130D01*
X313680Y452130D01*
X313680Y445130D01*
X313680Y447980D02*
X306680Y447980D01*
X306680Y450830D02*
X313680Y450830D01*
D10*
X311190Y436490D02*
X316170Y436490D01*
X316170Y431510D01*
X311190Y431510D01*
X311190Y436490D01*
X311190Y432479D02*
X316170Y432479D01*
X316170Y433448D02*
X311190Y433448D01*
X311190Y434417D02*
X316170Y434417D01*
X316170Y435386D02*
X311190Y435386D01*
X311190Y436355D02*
X316170Y436355D01*
X306170Y436490D02*
X301190Y436490D01*
X306170Y436490D02*
X306170Y431510D01*
X301190Y431510D01*
X301190Y436490D01*
X301190Y432479D02*
X306170Y432479D01*
X306170Y433448D02*
X301190Y433448D01*
X301190Y434417D02*
X306170Y434417D01*
X306170Y435386D02*
X301190Y435386D01*
X301190Y436355D02*
X306170Y436355D01*
D11*
X447715Y69605D02*
X447715Y61595D01*
X447715Y69605D02*
X456725Y69605D01*
X456725Y61595D01*
X447715Y61595D01*
X447715Y62535D02*
X456725Y62535D01*
X456725Y63475D02*
X447715Y63475D01*
X447715Y64415D02*
X456725Y64415D01*
X456725Y65355D02*
X447715Y65355D01*
X447715Y66295D02*
X456725Y66295D01*
X456725Y67235D02*
X447715Y67235D01*
X447715Y68175D02*
X456725Y68175D01*
X456725Y69115D02*
X447715Y69115D01*
X431715Y69605D02*
X431715Y61595D01*
X431715Y69605D02*
X440725Y69605D01*
X440725Y61595D01*
X431715Y61595D01*
X431715Y62535D02*
X440725Y62535D01*
X440725Y63475D02*
X431715Y63475D01*
X431715Y64415D02*
X440725Y64415D01*
X440725Y65355D02*
X431715Y65355D01*
X431715Y66295D02*
X440725Y66295D01*
X440725Y67235D02*
X431715Y67235D01*
X431715Y68175D02*
X440725Y68175D01*
X440725Y69115D02*
X431715Y69115D01*
X431715Y102595D02*
X431715Y110605D01*
X440725Y110605D01*
X440725Y102595D01*
X431715Y102595D01*
X431715Y103535D02*
X440725Y103535D01*
X440725Y104475D02*
X431715Y104475D01*
X431715Y105415D02*
X440725Y105415D01*
X440725Y106355D02*
X431715Y106355D01*
X431715Y107295D02*
X440725Y107295D01*
X440725Y108235D02*
X431715Y108235D01*
X431715Y109175D02*
X440725Y109175D01*
X440725Y110115D02*
X431715Y110115D01*
X447715Y110605D02*
X447715Y102595D01*
X447715Y110605D02*
X456725Y110605D01*
X456725Y102595D01*
X447715Y102595D01*
X447715Y103535D02*
X456725Y103535D01*
X456725Y104475D02*
X447715Y104475D01*
X447715Y105415D02*
X456725Y105415D01*
X456725Y106355D02*
X447715Y106355D01*
X447715Y107295D02*
X456725Y107295D01*
X456725Y108235D02*
X447715Y108235D01*
X447715Y109175D02*
X456725Y109175D01*
X456725Y110115D02*
X447715Y110115D01*
D10*
X446190Y124490D02*
X451170Y124490D01*
X451170Y119510D01*
X446190Y119510D01*
X446190Y124490D01*
X446190Y120479D02*
X451170Y120479D01*
X451170Y121448D02*
X446190Y121448D01*
X446190Y122417D02*
X451170Y122417D01*
X451170Y123386D02*
X446190Y123386D01*
X446190Y124355D02*
X451170Y124355D01*
X441170Y124490D02*
X436190Y124490D01*
X441170Y124490D02*
X441170Y119510D01*
X436190Y119510D01*
X436190Y124490D01*
X436190Y120479D02*
X441170Y120479D01*
X441170Y121448D02*
X436190Y121448D01*
X436190Y122417D02*
X441170Y122417D01*
X441170Y123386D02*
X436190Y123386D01*
X436190Y124355D02*
X441170Y124355D01*
D16*
X238210Y122420D02*
X238210Y111380D01*
X238210Y122420D02*
X257250Y122420D01*
X257250Y111380D01*
X238210Y111380D01*
X238210Y112292D02*
X257250Y112292D01*
X257250Y113204D02*
X238210Y113204D01*
X238210Y114116D02*
X257250Y114116D01*
X257250Y115028D02*
X238210Y115028D01*
X238210Y115940D02*
X257250Y115940D01*
X257250Y116852D02*
X238210Y116852D01*
X238210Y117764D02*
X257250Y117764D01*
X257250Y118676D02*
X238210Y118676D01*
X238210Y119588D02*
X257250Y119588D01*
X257250Y120500D02*
X238210Y120500D01*
X238210Y121412D02*
X257250Y121412D01*
X257250Y122324D02*
X238210Y122324D01*
X238210Y66420D02*
X238210Y55380D01*
X238210Y66420D02*
X257250Y66420D01*
X257250Y55380D01*
X238210Y55380D01*
X238210Y56292D02*
X257250Y56292D01*
X257250Y57204D02*
X238210Y57204D01*
X238210Y58116D02*
X257250Y58116D01*
X257250Y59028D02*
X238210Y59028D01*
X238210Y59940D02*
X257250Y59940D01*
X257250Y60852D02*
X238210Y60852D01*
X238210Y61764D02*
X257250Y61764D01*
X257250Y62676D02*
X238210Y62676D01*
X238210Y63588D02*
X257250Y63588D01*
X257250Y64500D02*
X238210Y64500D01*
X238210Y65412D02*
X257250Y65412D01*
X257250Y66324D02*
X238210Y66324D01*
D10*
X278240Y101410D02*
X278240Y106390D01*
X290720Y106390D01*
X290720Y101410D01*
X278240Y101410D01*
X278240Y102379D02*
X290720Y102379D01*
X290720Y103348D02*
X278240Y103348D01*
X278240Y104317D02*
X290720Y104317D01*
X290720Y105286D02*
X278240Y105286D01*
X278240Y106255D02*
X290720Y106255D01*
X278240Y96390D02*
X278240Y91410D01*
X278240Y96390D02*
X290720Y96390D01*
X290720Y91410D01*
X278240Y91410D01*
X278240Y92379D02*
X290720Y92379D01*
X290720Y93348D02*
X278240Y93348D01*
X278240Y94317D02*
X290720Y94317D01*
X290720Y95286D02*
X278240Y95286D01*
X278240Y96255D02*
X290720Y96255D01*
X278240Y86390D02*
X278240Y81410D01*
X278240Y86390D02*
X290720Y86390D01*
X290720Y81410D01*
X278240Y81410D01*
X278240Y82379D02*
X290720Y82379D01*
X290720Y83348D02*
X278240Y83348D01*
X278240Y84317D02*
X290720Y84317D01*
X290720Y85286D02*
X278240Y85286D01*
X278240Y86255D02*
X290720Y86255D01*
X278240Y76390D02*
X278240Y71410D01*
X278240Y76390D02*
X290720Y76390D01*
X290720Y71410D01*
X278240Y71410D01*
X278240Y72379D02*
X290720Y72379D01*
X290720Y73348D02*
X278240Y73348D01*
X278240Y74317D02*
X290720Y74317D01*
X290720Y75286D02*
X278240Y75286D01*
X278240Y76255D02*
X290720Y76255D01*
D18*
X331700Y129980D02*
X338660Y129980D01*
X338660Y122020D01*
X331700Y122020D01*
X331700Y129980D01*
X331700Y123008D02*
X338660Y123008D01*
X338660Y123996D02*
X331700Y123996D01*
X331700Y124984D02*
X338660Y124984D01*
X338660Y125972D02*
X331700Y125972D01*
X331700Y126960D02*
X338660Y126960D01*
X338660Y127948D02*
X331700Y127948D01*
X331700Y128936D02*
X338660Y128936D01*
X338660Y129924D02*
X331700Y129924D01*
X319660Y129980D02*
X312700Y129980D01*
X319660Y129980D02*
X319660Y122020D01*
X312700Y122020D01*
X312700Y129980D01*
X312700Y123008D02*
X319660Y123008D01*
X319660Y123996D02*
X312700Y123996D01*
X312700Y124984D02*
X319660Y124984D01*
X319660Y125972D02*
X312700Y125972D01*
X312700Y126960D02*
X319660Y126960D01*
X319660Y127948D02*
X312700Y127948D01*
X312700Y128936D02*
X319660Y128936D01*
X319660Y129924D02*
X312700Y129924D01*
X322200Y108980D02*
X329160Y108980D01*
X329160Y101020D01*
X322200Y101020D01*
X322200Y108980D01*
X322200Y102008D02*
X329160Y102008D01*
X329160Y102996D02*
X322200Y102996D01*
X322200Y103984D02*
X329160Y103984D01*
X329160Y104972D02*
X322200Y104972D01*
X322200Y105960D02*
X329160Y105960D01*
X329160Y106948D02*
X322200Y106948D01*
X322200Y107936D02*
X329160Y107936D01*
X329160Y108924D02*
X322200Y108924D01*
D10*
X353190Y152510D02*
X358170Y152510D01*
X353190Y152510D02*
X353190Y157490D01*
X358170Y157490D01*
X358170Y152510D01*
X358170Y153479D02*
X353190Y153479D01*
X353190Y154448D02*
X358170Y154448D01*
X358170Y155417D02*
X353190Y155417D01*
X353190Y156386D02*
X358170Y156386D01*
X358170Y157355D02*
X353190Y157355D01*
X363190Y152510D02*
X368170Y152510D01*
X363190Y152510D02*
X363190Y157490D01*
X368170Y157490D01*
X368170Y152510D01*
X368170Y153479D02*
X363190Y153479D01*
X363190Y154448D02*
X368170Y154448D01*
X368170Y155417D02*
X363190Y155417D01*
X363190Y156386D02*
X368170Y156386D01*
X368170Y157355D02*
X363190Y157355D01*
X352170Y134490D02*
X352170Y129510D01*
X347190Y129510D01*
X347190Y134490D01*
X352170Y134490D01*
X352170Y130479D02*
X347190Y130479D01*
X347190Y131448D02*
X352170Y131448D01*
X352170Y132417D02*
X347190Y132417D01*
X347190Y133386D02*
X352170Y133386D01*
X352170Y134355D02*
X347190Y134355D01*
X352170Y139510D02*
X352170Y144490D01*
X352170Y139510D02*
X347190Y139510D01*
X347190Y144490D01*
X352170Y144490D01*
X352170Y140479D02*
X347190Y140479D01*
X347190Y141448D02*
X352170Y141448D01*
X352170Y142417D02*
X347190Y142417D01*
X347190Y143386D02*
X352170Y143386D01*
X352170Y144355D02*
X347190Y144355D01*
D18*
X379700Y143980D02*
X386660Y143980D01*
X386660Y136020D01*
X379700Y136020D01*
X379700Y143980D01*
X379700Y137008D02*
X386660Y137008D01*
X386660Y137996D02*
X379700Y137996D01*
X379700Y138984D02*
X386660Y138984D01*
X386660Y139972D02*
X379700Y139972D01*
X379700Y140960D02*
X386660Y140960D01*
X386660Y141948D02*
X379700Y141948D01*
X379700Y142936D02*
X386660Y142936D01*
X386660Y143924D02*
X379700Y143924D01*
X367660Y143980D02*
X360700Y143980D01*
X367660Y143980D02*
X367660Y136020D01*
X360700Y136020D01*
X360700Y143980D01*
X360700Y137008D02*
X367660Y137008D01*
X367660Y137996D02*
X360700Y137996D01*
X360700Y138984D02*
X367660Y138984D01*
X367660Y139972D02*
X360700Y139972D01*
X360700Y140960D02*
X367660Y140960D01*
X367660Y141948D02*
X360700Y141948D01*
X360700Y142936D02*
X367660Y142936D01*
X367660Y143924D02*
X360700Y143924D01*
X370200Y122980D02*
X377160Y122980D01*
X377160Y115020D01*
X370200Y115020D01*
X370200Y122980D01*
X370200Y116008D02*
X377160Y116008D01*
X377160Y116996D02*
X370200Y116996D01*
X370200Y117984D02*
X377160Y117984D01*
X377160Y118972D02*
X370200Y118972D01*
X370200Y119960D02*
X377160Y119960D01*
X377160Y120948D02*
X370200Y120948D01*
X370200Y121936D02*
X377160Y121936D01*
X377160Y122924D02*
X370200Y122924D01*
D10*
X352170Y110490D02*
X352170Y105510D01*
X347190Y105510D01*
X347190Y110490D01*
X352170Y110490D01*
X352170Y106479D02*
X347190Y106479D01*
X347190Y107448D02*
X352170Y107448D01*
X352170Y108417D02*
X347190Y108417D01*
X347190Y109386D02*
X352170Y109386D01*
X352170Y110355D02*
X347190Y110355D01*
X352170Y115510D02*
X352170Y120490D01*
X352170Y115510D02*
X347190Y115510D01*
X347190Y120490D01*
X352170Y120490D01*
X352170Y116479D02*
X347190Y116479D01*
X347190Y117448D02*
X352170Y117448D01*
X352170Y118417D02*
X347190Y118417D01*
X347190Y119386D02*
X352170Y119386D01*
X352170Y120355D02*
X347190Y120355D01*
X410190Y612510D02*
X415170Y612510D01*
X410190Y612510D02*
X410190Y617490D01*
X415170Y617490D01*
X415170Y612510D01*
X415170Y613479D02*
X410190Y613479D01*
X410190Y614448D02*
X415170Y614448D01*
X415170Y615417D02*
X410190Y615417D01*
X410190Y616386D02*
X415170Y616386D01*
X415170Y617355D02*
X410190Y617355D01*
X420190Y612510D02*
X425170Y612510D01*
X420190Y612510D02*
X420190Y617490D01*
X425170Y617490D01*
X425170Y612510D01*
X425170Y613479D02*
X420190Y613479D01*
X420190Y614448D02*
X425170Y614448D01*
X425170Y615417D02*
X420190Y615417D01*
X420190Y616386D02*
X425170Y616386D01*
X425170Y617355D02*
X420190Y617355D01*
X415170Y602510D02*
X410190Y602510D01*
X410190Y607490D01*
X415170Y607490D01*
X415170Y602510D01*
X415170Y603479D02*
X410190Y603479D01*
X410190Y604448D02*
X415170Y604448D01*
X415170Y605417D02*
X410190Y605417D01*
X410190Y606386D02*
X415170Y606386D01*
X415170Y607355D02*
X410190Y607355D01*
X420190Y602510D02*
X425170Y602510D01*
X420190Y602510D02*
X420190Y607490D01*
X425170Y607490D01*
X425170Y602510D01*
X425170Y603479D02*
X420190Y603479D01*
X420190Y604448D02*
X425170Y604448D01*
X425170Y605417D02*
X420190Y605417D01*
X420190Y606386D02*
X425170Y606386D01*
X425170Y607355D02*
X420190Y607355D01*
D23*
X292423Y300493D02*
X288437Y300493D01*
X292423Y300493D02*
X292423Y298007D01*
X288437Y298007D01*
X288437Y300493D01*
X288437Y298971D02*
X292423Y298971D01*
X292423Y299935D02*
X288437Y299935D01*
X288437Y306993D02*
X292423Y306993D01*
X292423Y304507D01*
X288437Y304507D01*
X288437Y306993D01*
X288437Y305471D02*
X292423Y305471D01*
X292423Y306435D02*
X288437Y306435D01*
X288437Y313493D02*
X292423Y313493D01*
X292423Y311007D01*
X288437Y311007D01*
X288437Y313493D01*
X288437Y311971D02*
X292423Y311971D01*
X292423Y312935D02*
X288437Y312935D01*
X288437Y319993D02*
X292423Y319993D01*
X292423Y317507D01*
X288437Y317507D01*
X288437Y319993D01*
X288437Y318471D02*
X292423Y318471D01*
X292423Y319435D02*
X288437Y319435D01*
X308937Y319993D02*
X312923Y319993D01*
X312923Y317507D01*
X308937Y317507D01*
X308937Y319993D01*
X308937Y318471D02*
X312923Y318471D01*
X312923Y319435D02*
X308937Y319435D01*
X308937Y313493D02*
X312923Y313493D01*
X312923Y311007D01*
X308937Y311007D01*
X308937Y313493D01*
X308937Y311971D02*
X312923Y311971D01*
X312923Y312935D02*
X308937Y312935D01*
X308937Y306993D02*
X312923Y306993D01*
X312923Y304507D01*
X308937Y304507D01*
X308937Y306993D01*
X308937Y305471D02*
X312923Y305471D01*
X312923Y306435D02*
X308937Y306435D01*
X308937Y300493D02*
X312923Y300493D01*
X312923Y298007D01*
X308937Y298007D01*
X308937Y300493D01*
X308937Y298971D02*
X312923Y298971D01*
X312923Y299935D02*
X308937Y299935D01*
D10*
X325170Y310510D02*
X325170Y315490D01*
X325170Y310510D02*
X320190Y310510D01*
X320190Y315490D01*
X325170Y315490D01*
X325170Y311479D02*
X320190Y311479D01*
X320190Y312448D02*
X325170Y312448D01*
X325170Y313417D02*
X320190Y313417D01*
X320190Y314386D02*
X325170Y314386D01*
X325170Y315355D02*
X320190Y315355D01*
X325170Y320510D02*
X325170Y325490D01*
X325170Y320510D02*
X320190Y320510D01*
X320190Y325490D01*
X325170Y325490D01*
X325170Y321479D02*
X320190Y321479D01*
X320190Y322448D02*
X325170Y322448D01*
X325170Y323417D02*
X320190Y323417D01*
X320190Y324386D02*
X325170Y324386D01*
X325170Y325355D02*
X320190Y325355D01*
X313170Y291490D02*
X308190Y291490D01*
X313170Y291490D02*
X313170Y286510D01*
X308190Y286510D01*
X308190Y291490D01*
X308190Y287479D02*
X313170Y287479D01*
X313170Y288448D02*
X308190Y288448D01*
X308190Y289417D02*
X313170Y289417D01*
X313170Y290386D02*
X308190Y290386D01*
X308190Y291355D02*
X313170Y291355D01*
X303170Y291490D02*
X298190Y291490D01*
X303170Y291490D02*
X303170Y286510D01*
X298190Y286510D01*
X298190Y291490D01*
X298190Y287479D02*
X303170Y287479D01*
X303170Y288448D02*
X298190Y288448D01*
X298190Y289417D02*
X303170Y289417D01*
X303170Y290386D02*
X298190Y290386D01*
X298190Y291355D02*
X303170Y291355D01*
X308190Y281490D02*
X313170Y281490D01*
X313170Y276510D01*
X308190Y276510D01*
X308190Y281490D01*
X308190Y277479D02*
X313170Y277479D01*
X313170Y278448D02*
X308190Y278448D01*
X308190Y279417D02*
X313170Y279417D01*
X313170Y280386D02*
X308190Y280386D01*
X308190Y281355D02*
X313170Y281355D01*
X303170Y281490D02*
X298190Y281490D01*
X303170Y281490D02*
X303170Y276510D01*
X298190Y276510D01*
X298190Y281490D01*
X298190Y277479D02*
X303170Y277479D01*
X303170Y278448D02*
X298190Y278448D01*
X298190Y279417D02*
X303170Y279417D01*
X303170Y280386D02*
X298190Y280386D01*
X298190Y281355D02*
X303170Y281355D01*
X334465Y400210D02*
X338245Y400210D01*
X334465Y400210D02*
X334465Y402190D01*
X338245Y402190D01*
X338245Y400210D01*
X338245Y401179D02*
X334465Y401179D01*
X334465Y402148D02*
X338245Y402148D01*
X338245Y395210D02*
X334465Y395210D01*
X334465Y397190D01*
X338245Y397190D01*
X338245Y395210D01*
X338245Y396179D02*
X334465Y396179D01*
X334465Y397148D02*
X338245Y397148D01*
X338245Y390210D02*
X334465Y390210D01*
X334465Y392190D01*
X338245Y392190D01*
X338245Y390210D01*
X338245Y391179D02*
X334465Y391179D01*
X334465Y392148D02*
X338245Y392148D01*
X338245Y385210D02*
X334465Y385210D01*
X334465Y387190D01*
X338245Y387190D01*
X338245Y385210D01*
X338245Y386179D02*
X334465Y386179D01*
X334465Y387148D02*
X338245Y387148D01*
X357715Y387190D02*
X361495Y387190D01*
X361495Y385210D01*
X357715Y385210D01*
X357715Y387190D01*
X357715Y386179D02*
X361495Y386179D01*
X361495Y387148D02*
X357715Y387148D01*
X357715Y392190D02*
X361495Y392190D01*
X361495Y390210D01*
X357715Y390210D01*
X357715Y392190D01*
X357715Y391179D02*
X361495Y391179D01*
X361495Y392148D02*
X357715Y392148D01*
X357715Y397190D02*
X361495Y397190D01*
X361495Y395210D01*
X357715Y395210D01*
X357715Y397190D01*
X357715Y396179D02*
X361495Y396179D01*
X361495Y397148D02*
X357715Y397148D01*
X357715Y402190D02*
X361495Y402190D01*
X361495Y400210D01*
X357715Y400210D01*
X357715Y402190D01*
X357715Y401179D02*
X361495Y401179D01*
X361495Y402148D02*
X357715Y402148D01*
X343970Y381810D02*
X341990Y381810D01*
X341990Y385590D01*
X343970Y385590D01*
X343970Y381810D01*
X343970Y382779D02*
X341990Y382779D01*
X341990Y383748D02*
X343970Y383748D01*
X343970Y384717D02*
X341990Y384717D01*
X346990Y381810D02*
X348970Y381810D01*
X346990Y381810D02*
X346990Y385590D01*
X348970Y385590D01*
X348970Y381810D01*
X348970Y382779D02*
X346990Y382779D01*
X346990Y383748D02*
X348970Y383748D01*
X348970Y384717D02*
X346990Y384717D01*
X351990Y381810D02*
X353970Y381810D01*
X351990Y381810D02*
X351990Y385590D01*
X353970Y385590D01*
X353970Y381810D01*
X353970Y382779D02*
X351990Y382779D01*
X351990Y383748D02*
X353970Y383748D01*
X353970Y384717D02*
X351990Y384717D01*
X351990Y405590D02*
X353970Y405590D01*
X353970Y401810D01*
X351990Y401810D01*
X351990Y405590D01*
X351990Y402779D02*
X353970Y402779D01*
X353970Y403748D02*
X351990Y403748D01*
X351990Y404717D02*
X353970Y404717D01*
X348970Y405590D02*
X346990Y405590D01*
X348970Y405590D02*
X348970Y401810D01*
X346990Y401810D01*
X346990Y405590D01*
X346990Y402779D02*
X348970Y402779D01*
X348970Y403748D02*
X346990Y403748D01*
X346990Y404717D02*
X348970Y404717D01*
X343970Y405590D02*
X341990Y405590D01*
X343970Y405590D02*
X343970Y401810D01*
X341990Y401810D01*
X341990Y405590D01*
X341990Y402779D02*
X343970Y402779D01*
X343970Y403748D02*
X341990Y403748D01*
X341990Y404717D02*
X343970Y404717D01*
X370690Y426490D02*
X375670Y426490D01*
X375670Y421510D01*
X370690Y421510D01*
X370690Y426490D01*
X370690Y422479D02*
X375670Y422479D01*
X375670Y423448D02*
X370690Y423448D01*
X370690Y424417D02*
X375670Y424417D01*
X375670Y425386D02*
X370690Y425386D01*
X370690Y426355D02*
X375670Y426355D01*
X365670Y426490D02*
X360690Y426490D01*
X365670Y426490D02*
X365670Y421510D01*
X360690Y421510D01*
X360690Y426490D01*
X360690Y422479D02*
X365670Y422479D01*
X365670Y423448D02*
X360690Y423448D01*
X360690Y424417D02*
X365670Y424417D01*
X365670Y425386D02*
X360690Y425386D01*
X360690Y426355D02*
X365670Y426355D01*
X322190Y406090D02*
X322190Y401110D01*
X322190Y406090D02*
X327170Y406090D01*
X327170Y401110D01*
X322190Y401110D01*
X322190Y402079D02*
X327170Y402079D01*
X327170Y403048D02*
X322190Y403048D01*
X322190Y404017D02*
X327170Y404017D01*
X327170Y404986D02*
X322190Y404986D01*
X322190Y405955D02*
X327170Y405955D01*
X322190Y396090D02*
X322190Y391110D01*
X322190Y396090D02*
X327170Y396090D01*
X327170Y391110D01*
X322190Y391110D01*
X322190Y392079D02*
X327170Y392079D01*
X327170Y393048D02*
X322190Y393048D01*
X322190Y394017D02*
X327170Y394017D01*
X327170Y394986D02*
X322190Y394986D01*
X322190Y395955D02*
X327170Y395955D01*
X333190Y370510D02*
X338170Y370510D01*
X333190Y370510D02*
X333190Y375490D01*
X338170Y375490D01*
X338170Y370510D01*
X338170Y371479D02*
X333190Y371479D01*
X333190Y372448D02*
X338170Y372448D01*
X338170Y373417D02*
X333190Y373417D01*
X333190Y374386D02*
X338170Y374386D01*
X338170Y375355D02*
X333190Y375355D01*
X343190Y370510D02*
X348170Y370510D01*
X343190Y370510D02*
X343190Y375490D01*
X348170Y375490D01*
X348170Y370510D01*
X348170Y371479D02*
X343190Y371479D01*
X343190Y372448D02*
X348170Y372448D01*
X348170Y373417D02*
X343190Y373417D01*
X343190Y374386D02*
X348170Y374386D01*
X348170Y375355D02*
X343190Y375355D01*
X365190Y375490D02*
X370170Y375490D01*
X370170Y370510D01*
X365190Y370510D01*
X365190Y375490D01*
X365190Y371479D02*
X370170Y371479D01*
X370170Y372448D02*
X365190Y372448D01*
X365190Y373417D02*
X370170Y373417D01*
X370170Y374386D02*
X365190Y374386D01*
X365190Y375355D02*
X370170Y375355D01*
X360170Y375490D02*
X355190Y375490D01*
X360170Y375490D02*
X360170Y370510D01*
X355190Y370510D01*
X355190Y375490D01*
X355190Y371479D02*
X360170Y371479D01*
X360170Y372448D02*
X355190Y372448D01*
X355190Y373417D02*
X360170Y373417D01*
X360170Y374386D02*
X355190Y374386D01*
X355190Y375355D02*
X360170Y375355D01*
X588170Y54086D02*
X590150Y54086D01*
X588170Y54086D02*
X588170Y63066D01*
X590150Y63066D01*
X590150Y54086D01*
X590150Y55055D02*
X588170Y55055D01*
X588170Y56024D02*
X590150Y56024D01*
X590150Y56993D02*
X588170Y56993D01*
X588170Y57962D02*
X590150Y57962D01*
X590150Y58931D02*
X588170Y58931D01*
X588170Y59900D02*
X590150Y59900D01*
X590150Y60869D02*
X588170Y60869D01*
X588170Y61838D02*
X590150Y61838D01*
X590150Y62807D02*
X588170Y62807D01*
X585150Y54086D02*
X583170Y54086D01*
X583170Y63066D01*
X585150Y63066D01*
X585150Y54086D01*
X585150Y55055D02*
X583170Y55055D01*
X583170Y56024D02*
X585150Y56024D01*
X585150Y56993D02*
X583170Y56993D01*
X583170Y57962D02*
X585150Y57962D01*
X585150Y58931D02*
X583170Y58931D01*
X583170Y59900D02*
X585150Y59900D01*
X585150Y60869D02*
X583170Y60869D01*
X583170Y61838D02*
X585150Y61838D01*
X585150Y62807D02*
X583170Y62807D01*
X611420Y54086D02*
X616400Y54086D01*
X611420Y54086D02*
X611420Y63066D01*
X616400Y63066D01*
X616400Y54086D01*
X616400Y55055D02*
X611420Y55055D01*
X611420Y56024D02*
X616400Y56024D01*
X616400Y56993D02*
X611420Y56993D01*
X611420Y57962D02*
X616400Y57962D01*
X616400Y58931D02*
X611420Y58931D01*
X611420Y59900D02*
X616400Y59900D01*
X616400Y60869D02*
X611420Y60869D01*
X611420Y61838D02*
X616400Y61838D01*
X616400Y62807D02*
X611420Y62807D01*
X608650Y54086D02*
X603670Y54086D01*
X603670Y63066D01*
X608650Y63066D01*
X608650Y54086D01*
X608650Y55055D02*
X603670Y55055D01*
X603670Y56024D02*
X608650Y56024D01*
X608650Y56993D02*
X603670Y56993D01*
X603670Y57962D02*
X608650Y57962D01*
X608650Y58931D02*
X603670Y58931D01*
X603670Y59900D02*
X608650Y59900D01*
X608650Y60869D02*
X603670Y60869D01*
X603670Y61838D02*
X608650Y61838D01*
X608650Y62807D02*
X603670Y62807D01*
X600150Y54086D02*
X598170Y54086D01*
X598170Y63066D01*
X600150Y63066D01*
X600150Y54086D01*
X600150Y55055D02*
X598170Y55055D01*
X598170Y56024D02*
X600150Y56024D01*
X600150Y56993D02*
X598170Y56993D01*
X598170Y57962D02*
X600150Y57962D01*
X600150Y58931D02*
X598170Y58931D01*
X598170Y59900D02*
X600150Y59900D01*
X600150Y60869D02*
X598170Y60869D01*
X598170Y61838D02*
X600150Y61838D01*
X600150Y62807D02*
X598170Y62807D01*
X595150Y54086D02*
X593170Y54086D01*
X593170Y63066D01*
X595150Y63066D01*
X595150Y54086D01*
X595150Y55055D02*
X593170Y55055D01*
X593170Y56024D02*
X595150Y56024D01*
X595150Y56993D02*
X593170Y56993D01*
X593170Y57962D02*
X595150Y57962D01*
X595150Y58931D02*
X593170Y58931D01*
X593170Y59900D02*
X595150Y59900D01*
X595150Y60869D02*
X593170Y60869D01*
X593170Y61838D02*
X595150Y61838D01*
X595150Y62807D02*
X593170Y62807D01*
X575150Y63066D02*
X573170Y63066D01*
X575150Y63066D02*
X575150Y54086D01*
X573170Y54086D01*
X573170Y63066D01*
X573170Y55055D02*
X575150Y55055D01*
X575150Y56024D02*
X573170Y56024D01*
X573170Y56993D02*
X575150Y56993D01*
X575150Y57962D02*
X573170Y57962D01*
X573170Y58931D02*
X575150Y58931D01*
X575150Y59900D02*
X573170Y59900D01*
X573170Y60869D02*
X575150Y60869D01*
X575150Y61838D02*
X573170Y61838D01*
X573170Y62807D02*
X575150Y62807D01*
X578170Y63066D02*
X580150Y63066D01*
X580150Y54086D01*
X578170Y54086D01*
X578170Y63066D01*
X578170Y55055D02*
X580150Y55055D01*
X580150Y56024D02*
X578170Y56024D01*
X578170Y56993D02*
X580150Y56993D01*
X580150Y57962D02*
X578170Y57962D01*
X578170Y58931D02*
X580150Y58931D01*
X580150Y59900D02*
X578170Y59900D01*
X578170Y60869D02*
X580150Y60869D01*
X580150Y61838D02*
X578170Y61838D01*
X578170Y62807D02*
X580150Y62807D01*
X551900Y63066D02*
X546920Y63066D01*
X551900Y63066D02*
X551900Y54086D01*
X546920Y54086D01*
X546920Y63066D01*
X546920Y55055D02*
X551900Y55055D01*
X551900Y56024D02*
X546920Y56024D01*
X546920Y56993D02*
X551900Y56993D01*
X551900Y57962D02*
X546920Y57962D01*
X546920Y58931D02*
X551900Y58931D01*
X551900Y59900D02*
X546920Y59900D01*
X546920Y60869D02*
X551900Y60869D01*
X551900Y61838D02*
X546920Y61838D01*
X546920Y62807D02*
X551900Y62807D01*
X554670Y63066D02*
X559650Y63066D01*
X559650Y54086D01*
X554670Y54086D01*
X554670Y63066D01*
X554670Y55055D02*
X559650Y55055D01*
X559650Y56024D02*
X554670Y56024D01*
X554670Y56993D02*
X559650Y56993D01*
X559650Y57962D02*
X554670Y57962D01*
X554670Y58931D02*
X559650Y58931D01*
X559650Y59900D02*
X554670Y59900D01*
X554670Y60869D02*
X559650Y60869D01*
X559650Y61838D02*
X554670Y61838D01*
X554670Y62807D02*
X559650Y62807D01*
X563170Y63066D02*
X565150Y63066D01*
X565150Y54086D01*
X563170Y54086D01*
X563170Y63066D01*
X563170Y55055D02*
X565150Y55055D01*
X565150Y56024D02*
X563170Y56024D01*
X563170Y56993D02*
X565150Y56993D01*
X565150Y57962D02*
X563170Y57962D01*
X563170Y58931D02*
X565150Y58931D01*
X565150Y59900D02*
X563170Y59900D01*
X563170Y60869D02*
X565150Y60869D01*
X565150Y61838D02*
X563170Y61838D01*
X563170Y62807D02*
X565150Y62807D01*
X568170Y63066D02*
X570150Y63066D01*
X570150Y54086D01*
X568170Y54086D01*
X568170Y63066D01*
X568170Y55055D02*
X570150Y55055D01*
X570150Y56024D02*
X568170Y56024D01*
X568170Y56993D02*
X570150Y56993D01*
X570150Y57962D02*
X568170Y57962D01*
X568170Y58931D02*
X570150Y58931D01*
X570150Y59900D02*
X568170Y59900D01*
X568170Y60869D02*
X570150Y60869D01*
X570150Y61838D02*
X568170Y61838D01*
X568170Y62807D02*
X570150Y62807D01*
D11*
X648366Y88245D02*
X648366Y92755D01*
X648366Y88245D02*
X635856Y88245D01*
X635856Y92755D01*
X648366Y92755D01*
X648366Y89185D02*
X635856Y89185D01*
X635856Y90125D02*
X648366Y90125D01*
X648366Y91065D02*
X635856Y91065D01*
X635856Y92005D02*
X648366Y92005D01*
X648366Y97745D02*
X648366Y102255D01*
X648366Y97745D02*
X635856Y97745D01*
X635856Y102255D01*
X648366Y102255D01*
X648366Y98685D02*
X635856Y98685D01*
X635856Y99625D02*
X648366Y99625D01*
X648366Y100565D02*
X635856Y100565D01*
X635856Y101505D02*
X648366Y101505D01*
X648366Y107245D02*
X648366Y111755D01*
X648366Y107245D02*
X635856Y107245D01*
X635856Y111755D01*
X648366Y111755D01*
X648366Y108185D02*
X635856Y108185D01*
X635856Y109125D02*
X648366Y109125D01*
X648366Y110065D02*
X635856Y110065D01*
X635856Y111005D02*
X648366Y111005D01*
X620864Y111755D02*
X620864Y107245D01*
X608354Y107245D01*
X608354Y111755D01*
X620864Y111755D01*
X620864Y108185D02*
X608354Y108185D01*
X608354Y109125D02*
X620864Y109125D01*
X620864Y110065D02*
X608354Y110065D01*
X608354Y111005D02*
X620864Y111005D01*
X620864Y102255D02*
X620864Y97745D01*
X608354Y97745D01*
X608354Y102255D01*
X620864Y102255D01*
X620864Y98685D02*
X608354Y98685D01*
X608354Y99625D02*
X620864Y99625D01*
X620864Y100565D02*
X608354Y100565D01*
X608354Y101505D02*
X620864Y101505D01*
X620864Y92755D02*
X620864Y88245D01*
X608354Y88245D01*
X608354Y92755D01*
X620864Y92755D01*
X620864Y89185D02*
X608354Y89185D01*
X608354Y90125D02*
X620864Y90125D01*
X620864Y91065D02*
X608354Y91065D01*
X608354Y92005D02*
X620864Y92005D01*
D10*
X638870Y60490D02*
X638870Y55510D01*
X638870Y60490D02*
X643850Y60490D01*
X643850Y55510D01*
X638870Y55510D01*
X638870Y56479D02*
X643850Y56479D01*
X643850Y57448D02*
X638870Y57448D01*
X638870Y58417D02*
X643850Y58417D01*
X643850Y59386D02*
X638870Y59386D01*
X638870Y60355D02*
X643850Y60355D01*
X638870Y50490D02*
X638870Y45510D01*
X638870Y50490D02*
X643850Y50490D01*
X643850Y45510D01*
X638870Y45510D01*
X638870Y46479D02*
X643850Y46479D01*
X643850Y47448D02*
X638870Y47448D01*
X638870Y48417D02*
X643850Y48417D01*
X643850Y49386D02*
X638870Y49386D01*
X638870Y50355D02*
X643850Y50355D01*
X561650Y72710D02*
X556670Y72710D01*
X556670Y77690D01*
X561650Y77690D01*
X561650Y72710D01*
X561650Y73679D02*
X556670Y73679D01*
X556670Y74648D02*
X561650Y74648D01*
X561650Y75617D02*
X556670Y75617D01*
X556670Y76586D02*
X561650Y76586D01*
X561650Y77555D02*
X556670Y77555D01*
X566670Y72710D02*
X571650Y72710D01*
X566670Y72710D02*
X566670Y77690D01*
X571650Y77690D01*
X571650Y72710D01*
X571650Y73679D02*
X566670Y73679D01*
X566670Y74648D02*
X571650Y74648D01*
X571650Y75617D02*
X566670Y75617D01*
X566670Y76586D02*
X571650Y76586D01*
X571650Y77555D02*
X566670Y77555D01*
D12*
X607160Y539900D03*
X607160Y550900D03*
X607160Y561900D03*
X607160Y572900D03*
X607160Y583900D03*
X607160Y594900D03*
X552160Y539900D03*
X552160Y550900D03*
X552160Y561900D03*
X552160Y572900D03*
X552160Y583900D03*
X552160Y594900D03*
X596160Y539900D03*
X585160Y539900D03*
X574160Y539900D03*
X563160Y539900D03*
X539660Y513900D03*
X549660Y513900D03*
X559660Y513900D03*
X569660Y513900D03*
X579660Y513900D03*
X589660Y513900D03*
X599660Y513900D03*
X609660Y513900D03*
X619660Y513900D03*
X562410Y564650D03*
X573910Y564650D03*
X585410Y564650D03*
X596910Y564650D03*
X573910Y576150D03*
X585410Y576150D03*
X573910Y553150D03*
X585410Y553150D03*
X562410Y587650D03*
X573910Y587650D03*
X585410Y587650D03*
X596910Y587650D03*
X536160Y625400D03*
X536160Y650900D03*
X623160Y650900D03*
X623160Y625400D03*
D13*
X620910Y525400D03*
X620910Y535400D03*
X620910Y545400D03*
X620910Y555400D03*
X620910Y565400D03*
X620910Y575400D03*
X620910Y585400D03*
X620910Y595400D03*
X620910Y605400D03*
X620910Y615400D03*
X538410Y525400D03*
X538410Y535400D03*
X538410Y545400D03*
X538410Y555400D03*
X538410Y565400D03*
X538410Y575400D03*
X538410Y585400D03*
X538410Y595400D03*
X538410Y605400D03*
X538410Y615400D03*
D14*
X599660Y526150D03*
X589660Y526150D03*
X579660Y526150D03*
X569660Y526150D03*
X559660Y526150D03*
X599660Y614650D03*
X589660Y614650D03*
X579660Y614650D03*
X569660Y614650D03*
X559660Y614650D03*
D15*
X562420Y172300D02*
X562420Y163300D01*
X517420Y163300D01*
X517420Y172300D01*
X562420Y172300D01*
X562420Y164250D02*
X517420Y164250D01*
X517420Y165200D02*
X562420Y165200D01*
X562420Y166150D02*
X517420Y166150D01*
X517420Y167100D02*
X562420Y167100D01*
X562420Y168050D02*
X517420Y168050D01*
X517420Y169000D02*
X562420Y169000D01*
X562420Y169950D02*
X517420Y169950D01*
X517420Y170900D02*
X562420Y170900D01*
X562420Y171850D02*
X517420Y171850D01*
X562420Y183300D02*
X562420Y192300D01*
X562420Y183300D02*
X517420Y183300D01*
X517420Y192300D01*
X562420Y192300D01*
X562420Y184250D02*
X517420Y184250D01*
X517420Y185200D02*
X562420Y185200D01*
X562420Y186150D02*
X517420Y186150D01*
X517420Y187100D02*
X562420Y187100D01*
X562420Y188050D02*
X517420Y188050D01*
X517420Y189000D02*
X562420Y189000D01*
X562420Y189950D02*
X517420Y189950D01*
X517420Y190900D02*
X562420Y190900D01*
X562420Y191850D02*
X517420Y191850D01*
D16*
X504440Y151320D02*
X471400Y151320D01*
X504440Y151320D02*
X504440Y136280D01*
X471400Y136280D01*
X471400Y151320D01*
X471400Y137192D02*
X504440Y137192D01*
X504440Y138104D02*
X471400Y138104D01*
X471400Y139016D02*
X504440Y139016D01*
X504440Y139928D02*
X471400Y139928D01*
X471400Y140840D02*
X504440Y140840D01*
X504440Y141752D02*
X471400Y141752D01*
X471400Y142664D02*
X504440Y142664D01*
X504440Y143576D02*
X471400Y143576D01*
X471400Y144488D02*
X504440Y144488D01*
X504440Y145400D02*
X471400Y145400D01*
X471400Y146312D02*
X504440Y146312D01*
X504440Y147224D02*
X471400Y147224D01*
X471400Y148136D02*
X504440Y148136D01*
X504440Y149048D02*
X471400Y149048D01*
X471400Y149960D02*
X504440Y149960D01*
X504440Y150872D02*
X471400Y150872D01*
X471400Y219320D02*
X504440Y219320D01*
X504440Y204280D01*
X471400Y204280D01*
X471400Y219320D01*
X471400Y205192D02*
X504440Y205192D01*
X504440Y206104D02*
X471400Y206104D01*
X471400Y207016D02*
X504440Y207016D01*
X504440Y207928D02*
X471400Y207928D01*
X471400Y208840D02*
X504440Y208840D01*
X504440Y209752D02*
X471400Y209752D01*
X471400Y210664D02*
X504440Y210664D01*
X504440Y211576D02*
X471400Y211576D01*
X471400Y212488D02*
X504440Y212488D01*
X504440Y213400D02*
X471400Y213400D01*
X471400Y214312D02*
X504440Y214312D01*
X504440Y215224D02*
X471400Y215224D01*
X471400Y216136D02*
X504440Y216136D01*
X504440Y217048D02*
X471400Y217048D01*
X471400Y217960D02*
X504440Y217960D01*
X504440Y218872D02*
X471400Y218872D01*
D11*
X590154Y193255D02*
X590154Y188745D01*
X590154Y193255D02*
X601164Y193255D01*
X601164Y188745D01*
X590154Y188745D01*
X590154Y189685D02*
X601164Y189685D01*
X601164Y190625D02*
X590154Y190625D01*
X590154Y191565D02*
X601164Y191565D01*
X601164Y192505D02*
X590154Y192505D01*
X590154Y183755D02*
X590154Y179245D01*
X590154Y183755D02*
X601164Y183755D01*
X601164Y179245D01*
X590154Y179245D01*
X590154Y180185D02*
X601164Y180185D01*
X601164Y181125D02*
X590154Y181125D01*
X590154Y182065D02*
X601164Y182065D01*
X601164Y183005D02*
X590154Y183005D01*
X590154Y174255D02*
X590154Y169745D01*
X590154Y174255D02*
X601164Y174255D01*
X601164Y169745D01*
X590154Y169745D01*
X590154Y170685D02*
X601164Y170685D01*
X601164Y171625D02*
X590154Y171625D01*
X590154Y172565D02*
X601164Y172565D01*
X601164Y173505D02*
X590154Y173505D01*
X616156Y174255D02*
X616156Y169745D01*
X616156Y174255D02*
X627166Y174255D01*
X627166Y169745D01*
X616156Y169745D01*
X616156Y170685D02*
X627166Y170685D01*
X627166Y171625D02*
X616156Y171625D01*
X616156Y172565D02*
X627166Y172565D01*
X627166Y173505D02*
X616156Y173505D01*
X616156Y188745D02*
X616156Y193255D01*
X627166Y193255D01*
X627166Y188745D01*
X616156Y188745D01*
X616156Y189685D02*
X627166Y189685D01*
X627166Y190625D02*
X616156Y190625D01*
X616156Y191565D02*
X627166Y191565D01*
X627166Y192505D02*
X616156Y192505D01*
D17*
X584630Y203500D02*
X584630Y210500D01*
X591630Y210500D01*
X591630Y203500D01*
X584630Y203500D01*
X584630Y206350D02*
X591630Y206350D01*
X591630Y209200D02*
X584630Y209200D01*
X567090Y210500D02*
X567090Y203500D01*
X567090Y210500D02*
X574090Y210500D01*
X574090Y203500D01*
X567090Y203500D01*
X567090Y206350D02*
X574090Y206350D01*
X574090Y209200D02*
X567090Y209200D01*
D10*
X571870Y217510D02*
X576850Y217510D01*
X571870Y217510D02*
X571870Y222490D01*
X576850Y222490D01*
X576850Y217510D01*
X576850Y218479D02*
X571870Y218479D01*
X571870Y219448D02*
X576850Y219448D01*
X576850Y220417D02*
X571870Y220417D01*
X571870Y221386D02*
X576850Y221386D01*
X576850Y222355D02*
X571870Y222355D01*
X581870Y217510D02*
X586850Y217510D01*
X581870Y217510D02*
X581870Y222490D01*
X586850Y222490D01*
X586850Y217510D01*
X586850Y218479D02*
X581870Y218479D01*
X581870Y219448D02*
X586850Y219448D01*
X586850Y220417D02*
X581870Y220417D01*
X581870Y221386D02*
X586850Y221386D01*
X586850Y222355D02*
X581870Y222355D01*
X633870Y174490D02*
X633870Y169510D01*
X633870Y174490D02*
X638850Y174490D01*
X638850Y169510D01*
X633870Y169510D01*
X633870Y170479D02*
X638850Y170479D01*
X638850Y171448D02*
X633870Y171448D01*
X633870Y172417D02*
X638850Y172417D01*
X638850Y173386D02*
X633870Y173386D01*
X633870Y174355D02*
X638850Y174355D01*
X633870Y164490D02*
X633870Y159510D01*
X633870Y164490D02*
X638850Y164490D01*
X638850Y159510D01*
X633870Y159510D01*
X633870Y160479D02*
X638850Y160479D01*
X638850Y161448D02*
X633870Y161448D01*
X633870Y162417D02*
X638850Y162417D01*
X638850Y163386D02*
X633870Y163386D01*
X633870Y164355D02*
X638850Y164355D01*
X641870Y198510D02*
X641870Y203490D01*
X646850Y203490D01*
X646850Y198510D01*
X641870Y198510D01*
X641870Y199479D02*
X646850Y199479D01*
X646850Y200448D02*
X641870Y200448D01*
X641870Y201417D02*
X646850Y201417D01*
X646850Y202386D02*
X641870Y202386D01*
X641870Y203355D02*
X646850Y203355D01*
X641870Y193490D02*
X641870Y188510D01*
X641870Y193490D02*
X646850Y193490D01*
X646850Y188510D01*
X641870Y188510D01*
X641870Y189479D02*
X646850Y189479D01*
X646850Y190448D02*
X641870Y190448D01*
X641870Y191417D02*
X646850Y191417D01*
X646850Y192386D02*
X641870Y192386D01*
X641870Y193355D02*
X646850Y193355D01*
X574870Y174490D02*
X574870Y169510D01*
X574870Y174490D02*
X579850Y174490D01*
X579850Y169510D01*
X574870Y169510D01*
X574870Y170479D02*
X579850Y170479D01*
X579850Y171448D02*
X574870Y171448D01*
X574870Y172417D02*
X579850Y172417D01*
X579850Y173386D02*
X574870Y173386D01*
X574870Y174355D02*
X579850Y174355D01*
X574870Y164490D02*
X574870Y159510D01*
X574870Y164490D02*
X579850Y164490D01*
X579850Y159510D01*
X574870Y159510D01*
X574870Y160479D02*
X579850Y160479D01*
X579850Y161448D02*
X574870Y161448D01*
X574870Y162417D02*
X579850Y162417D01*
X579850Y163386D02*
X574870Y163386D01*
X574870Y164355D02*
X579850Y164355D01*
D18*
X593340Y231020D02*
X593340Y237980D01*
X593340Y231020D02*
X585380Y231020D01*
X585380Y237980D01*
X593340Y237980D01*
X593340Y232008D02*
X585380Y232008D01*
X585380Y232996D02*
X593340Y232996D01*
X593340Y233984D02*
X585380Y233984D01*
X585380Y234972D02*
X593340Y234972D01*
X593340Y235960D02*
X585380Y235960D01*
X585380Y236948D02*
X593340Y236948D01*
X593340Y237936D02*
X585380Y237936D01*
X593340Y250020D02*
X593340Y256980D01*
X593340Y250020D02*
X585380Y250020D01*
X585380Y256980D01*
X593340Y256980D01*
X593340Y251008D02*
X585380Y251008D01*
X585380Y251996D02*
X593340Y251996D01*
X593340Y252984D02*
X585380Y252984D01*
X585380Y253972D02*
X593340Y253972D01*
X593340Y254960D02*
X585380Y254960D01*
X585380Y255948D02*
X593340Y255948D01*
X593340Y256936D02*
X585380Y256936D01*
X572340Y247480D02*
X572340Y240520D01*
X564380Y240520D01*
X564380Y247480D01*
X572340Y247480D01*
X572340Y241508D02*
X564380Y241508D01*
X564380Y242496D02*
X572340Y242496D01*
X572340Y243484D02*
X564380Y243484D01*
X564380Y244472D02*
X572340Y244472D01*
X572340Y245460D02*
X564380Y245460D01*
X564380Y246448D02*
X572340Y246448D01*
X572340Y247436D02*
X564380Y247436D01*
D19*
X605514Y252854D02*
X605514Y258146D01*
X612806Y258146D01*
X612806Y252854D01*
X605514Y252854D01*
X605514Y253812D02*
X612806Y253812D01*
X612806Y254770D02*
X605514Y254770D01*
X605514Y255728D02*
X612806Y255728D01*
X612806Y256686D02*
X605514Y256686D01*
X605514Y257644D02*
X612806Y257644D01*
X605514Y235146D02*
X605514Y229854D01*
X605514Y235146D02*
X612806Y235146D01*
X612806Y229854D01*
X605514Y229854D01*
X605514Y230812D02*
X612806Y230812D01*
X612806Y231770D02*
X605514Y231770D01*
X605514Y232728D02*
X612806Y232728D01*
X612806Y233686D02*
X605514Y233686D01*
X605514Y234644D02*
X612806Y234644D01*
D10*
X627870Y203490D02*
X632850Y203490D01*
X632850Y198510D01*
X627870Y198510D01*
X627870Y203490D01*
X627870Y199479D02*
X632850Y199479D01*
X632850Y200448D02*
X627870Y200448D01*
X627870Y201417D02*
X632850Y201417D01*
X632850Y202386D02*
X627870Y202386D01*
X627870Y203355D02*
X632850Y203355D01*
X622850Y203490D02*
X617870Y203490D01*
X622850Y203490D02*
X622850Y198510D01*
X617870Y198510D01*
X617870Y203490D01*
X617870Y199479D02*
X622850Y199479D01*
X622850Y200448D02*
X617870Y200448D01*
X617870Y201417D02*
X622850Y201417D01*
X622850Y202386D02*
X617870Y202386D01*
X617870Y203355D02*
X622850Y203355D01*
X637870Y272510D02*
X637870Y277490D01*
X642850Y277490D01*
X642850Y272510D01*
X637870Y272510D01*
X637870Y273479D02*
X642850Y273479D01*
X642850Y274448D02*
X637870Y274448D01*
X637870Y275417D02*
X642850Y275417D01*
X642850Y276386D02*
X637870Y276386D01*
X637870Y277355D02*
X642850Y277355D01*
X637870Y267490D02*
X637870Y262510D01*
X637870Y267490D02*
X642850Y267490D01*
X642850Y262510D01*
X637870Y262510D01*
X637870Y263479D02*
X642850Y263479D01*
X642850Y264448D02*
X637870Y264448D01*
X637870Y265417D02*
X642850Y265417D01*
X642850Y266386D02*
X637870Y266386D01*
X637870Y267355D02*
X642850Y267355D01*
D11*
X617415Y339094D02*
X612905Y339094D01*
X612905Y350104D01*
X617415Y350104D01*
X617415Y339094D01*
X617415Y340034D02*
X612905Y340034D01*
X612905Y340974D02*
X617415Y340974D01*
X617415Y341914D02*
X612905Y341914D01*
X612905Y342854D02*
X617415Y342854D01*
X617415Y343794D02*
X612905Y343794D01*
X612905Y344734D02*
X617415Y344734D01*
X617415Y345674D02*
X612905Y345674D01*
X612905Y346614D02*
X617415Y346614D01*
X617415Y347554D02*
X612905Y347554D01*
X612905Y348494D02*
X617415Y348494D01*
X617415Y349434D02*
X612905Y349434D01*
X622405Y339094D02*
X626915Y339094D01*
X622405Y339094D02*
X622405Y350104D01*
X626915Y350104D01*
X626915Y339094D01*
X626915Y340034D02*
X622405Y340034D01*
X622405Y340974D02*
X626915Y340974D01*
X626915Y341914D02*
X622405Y341914D01*
X622405Y342854D02*
X626915Y342854D01*
X626915Y343794D02*
X622405Y343794D01*
X622405Y344734D02*
X626915Y344734D01*
X626915Y345674D02*
X622405Y345674D01*
X622405Y346614D02*
X626915Y346614D01*
X626915Y347554D02*
X622405Y347554D01*
X622405Y348494D02*
X626915Y348494D01*
X626915Y349434D02*
X622405Y349434D01*
X631905Y339094D02*
X636415Y339094D01*
X631905Y339094D02*
X631905Y350104D01*
X636415Y350104D01*
X636415Y339094D01*
X636415Y340034D02*
X631905Y340034D01*
X631905Y340974D02*
X636415Y340974D01*
X636415Y341914D02*
X631905Y341914D01*
X631905Y342854D02*
X636415Y342854D01*
X636415Y343794D02*
X631905Y343794D01*
X631905Y344734D02*
X636415Y344734D01*
X636415Y345674D02*
X631905Y345674D01*
X631905Y346614D02*
X636415Y346614D01*
X636415Y347554D02*
X631905Y347554D01*
X631905Y348494D02*
X636415Y348494D01*
X636415Y349434D02*
X631905Y349434D01*
X631905Y365096D02*
X636415Y365096D01*
X631905Y365096D02*
X631905Y376106D01*
X636415Y376106D01*
X636415Y365096D01*
X636415Y366036D02*
X631905Y366036D01*
X631905Y366976D02*
X636415Y366976D01*
X636415Y367916D02*
X631905Y367916D01*
X631905Y368856D02*
X636415Y368856D01*
X636415Y369796D02*
X631905Y369796D01*
X631905Y370736D02*
X636415Y370736D01*
X636415Y371676D02*
X631905Y371676D01*
X631905Y372616D02*
X636415Y372616D01*
X636415Y373556D02*
X631905Y373556D01*
X631905Y374496D02*
X636415Y374496D01*
X636415Y375436D02*
X631905Y375436D01*
X617415Y365096D02*
X612905Y365096D01*
X612905Y376106D01*
X617415Y376106D01*
X617415Y365096D01*
X617415Y366036D02*
X612905Y366036D01*
X612905Y366976D02*
X617415Y366976D01*
X617415Y367916D02*
X612905Y367916D01*
X612905Y368856D02*
X617415Y368856D01*
X617415Y369796D02*
X612905Y369796D01*
X612905Y370736D02*
X617415Y370736D01*
X617415Y371676D02*
X612905Y371676D01*
X612905Y372616D02*
X617415Y372616D01*
X617415Y373556D02*
X612905Y373556D01*
X612905Y374496D02*
X617415Y374496D01*
X617415Y375436D02*
X612905Y375436D01*
D10*
X631350Y277490D02*
X631350Y272510D01*
X626370Y272510D01*
X626370Y277490D01*
X631350Y277490D01*
X631350Y273479D02*
X626370Y273479D01*
X626370Y274448D02*
X631350Y274448D01*
X631350Y275417D02*
X626370Y275417D01*
X626370Y276386D02*
X631350Y276386D01*
X631350Y277355D02*
X626370Y277355D01*
X631350Y282510D02*
X631350Y287490D01*
X631350Y282510D02*
X626370Y282510D01*
X626370Y287490D01*
X631350Y287490D01*
X631350Y283479D02*
X626370Y283479D01*
X626370Y284448D02*
X631350Y284448D01*
X631350Y285417D02*
X626370Y285417D01*
X626370Y286386D02*
X631350Y286386D01*
X631350Y287355D02*
X626370Y287355D01*
X617850Y382510D02*
X612870Y382510D01*
X612870Y387490D01*
X617850Y387490D01*
X617850Y382510D01*
X617850Y383479D02*
X612870Y383479D01*
X612870Y384448D02*
X617850Y384448D01*
X617850Y385417D02*
X612870Y385417D01*
X612870Y386386D02*
X617850Y386386D01*
X617850Y387355D02*
X612870Y387355D01*
X622870Y382510D02*
X627850Y382510D01*
X622870Y382510D02*
X622870Y387490D01*
X627850Y387490D01*
X627850Y382510D01*
X627850Y383479D02*
X622870Y383479D01*
X622870Y384448D02*
X627850Y384448D01*
X627850Y385417D02*
X622870Y385417D01*
X622870Y386386D02*
X627850Y386386D01*
X627850Y387355D02*
X622870Y387355D01*
X624850Y437490D02*
X619870Y437490D01*
X624850Y437490D02*
X624850Y432510D01*
X619870Y432510D01*
X619870Y437490D01*
X619870Y433479D02*
X624850Y433479D01*
X624850Y434448D02*
X619870Y434448D01*
X619870Y435417D02*
X624850Y435417D01*
X624850Y436386D02*
X619870Y436386D01*
X619870Y437355D02*
X624850Y437355D01*
X614850Y437490D02*
X609870Y437490D01*
X614850Y437490D02*
X614850Y432510D01*
X609870Y432510D01*
X609870Y437490D01*
X609870Y433479D02*
X614850Y433479D01*
X614850Y434448D02*
X609870Y434448D01*
X609870Y435417D02*
X614850Y435417D01*
X614850Y436386D02*
X609870Y436386D01*
X609870Y437355D02*
X614850Y437355D01*
D17*
X618860Y466270D02*
X625860Y466270D01*
X618860Y466270D02*
X618860Y473270D01*
X625860Y473270D01*
X625860Y466270D01*
X625860Y469120D02*
X618860Y469120D01*
X618860Y471970D02*
X625860Y471970D01*
X625860Y448730D02*
X618860Y448730D01*
X618860Y455730D01*
X625860Y455730D01*
X625860Y448730D01*
X625860Y451580D02*
X618860Y451580D01*
X618860Y454430D02*
X625860Y454430D01*
D20*
X526360Y241913D03*
X531360Y262288D03*
X526360Y262288D03*
X536360Y262288D03*
X541360Y262288D03*
X531360Y241913D03*
X536360Y241913D03*
X541360Y241913D03*
D21*
X537260Y252100D03*
X530460Y252100D03*
D10*
X554850Y238490D02*
X554850Y233510D01*
X549870Y233510D01*
X549870Y238490D01*
X554850Y238490D01*
X554850Y234479D02*
X549870Y234479D01*
X549870Y235448D02*
X554850Y235448D01*
X554850Y236417D02*
X549870Y236417D01*
X549870Y237386D02*
X554850Y237386D01*
X554850Y238355D02*
X549870Y238355D01*
X554850Y243510D02*
X554850Y248490D01*
X554850Y243510D02*
X549870Y243510D01*
X549870Y248490D01*
X554850Y248490D01*
X554850Y244479D02*
X549870Y244479D01*
X549870Y245448D02*
X554850Y245448D01*
X554850Y246417D02*
X549870Y246417D01*
X549870Y247386D02*
X554850Y247386D01*
X554850Y248355D02*
X549870Y248355D01*
X566870Y93490D02*
X571850Y93490D01*
X571850Y88510D01*
X566870Y88510D01*
X566870Y93490D01*
X566870Y89479D02*
X571850Y89479D01*
X571850Y90448D02*
X566870Y90448D01*
X566870Y91417D02*
X571850Y91417D01*
X571850Y92386D02*
X566870Y92386D01*
X566870Y93355D02*
X571850Y93355D01*
X561850Y93490D02*
X556870Y93490D01*
X561850Y93490D02*
X561850Y88510D01*
X556870Y88510D01*
X556870Y93490D01*
X556870Y89479D02*
X561850Y89479D01*
X561850Y90448D02*
X556870Y90448D01*
X556870Y91417D02*
X561850Y91417D01*
X561850Y92386D02*
X556870Y92386D01*
X556870Y93355D02*
X561850Y93355D01*
D22*
X584535Y466825D02*
X590485Y466825D01*
X584535Y466825D02*
X584535Y472775D01*
X590485Y472775D01*
X590485Y466825D01*
X590485Y467822D02*
X584535Y467822D01*
X584535Y468819D02*
X590485Y468819D01*
X590485Y469816D02*
X584535Y469816D01*
X584535Y470813D02*
X590485Y470813D01*
X590485Y471810D02*
X584535Y471810D01*
X584535Y455825D02*
X590485Y455825D01*
X584535Y455825D02*
X584535Y461775D01*
X590485Y461775D01*
X590485Y455825D01*
X590485Y456822D02*
X584535Y456822D01*
X584535Y457819D02*
X590485Y457819D01*
X590485Y458816D02*
X584535Y458816D01*
X584535Y459813D02*
X590485Y459813D01*
X590485Y460810D02*
X584535Y460810D01*
X572185Y455825D02*
X566235Y455825D01*
X566235Y461775D01*
X572185Y461775D01*
X572185Y455825D01*
X572185Y456822D02*
X566235Y456822D01*
X566235Y457819D02*
X572185Y457819D01*
X572185Y458816D02*
X566235Y458816D01*
X566235Y459813D02*
X572185Y459813D01*
X572185Y460810D02*
X566235Y460810D01*
X566235Y466825D02*
X572185Y466825D01*
X566235Y466825D02*
X566235Y472775D01*
X572185Y472775D01*
X572185Y466825D01*
X572185Y467822D02*
X566235Y467822D01*
X566235Y468819D02*
X572185Y468819D01*
X572185Y469816D02*
X566235Y469816D01*
X566235Y470813D02*
X572185Y470813D01*
X572185Y471810D02*
X566235Y471810D01*
D10*
X570870Y441510D02*
X575850Y441510D01*
X570870Y441510D02*
X570870Y446490D01*
X575850Y446490D01*
X575850Y441510D01*
X575850Y442479D02*
X570870Y442479D01*
X570870Y443448D02*
X575850Y443448D01*
X575850Y444417D02*
X570870Y444417D01*
X570870Y445386D02*
X575850Y445386D01*
X575850Y446355D02*
X570870Y446355D01*
X580870Y441510D02*
X585850Y441510D01*
X580870Y441510D02*
X580870Y446490D01*
X585850Y446490D01*
X585850Y441510D01*
X585850Y442479D02*
X580870Y442479D01*
X580870Y443448D02*
X585850Y443448D01*
X585850Y444417D02*
X580870Y444417D01*
X580870Y445386D02*
X585850Y445386D01*
X585850Y446355D02*
X580870Y446355D01*
X500150Y481910D02*
X495170Y481910D01*
X495170Y486890D01*
X500150Y486890D01*
X500150Y481910D01*
X500150Y482879D02*
X495170Y482879D01*
X495170Y483848D02*
X500150Y483848D01*
X500150Y484817D02*
X495170Y484817D01*
X495170Y485786D02*
X500150Y485786D01*
X500150Y486755D02*
X495170Y486755D01*
X505170Y481910D02*
X510150Y481910D01*
X505170Y481910D02*
X505170Y486890D01*
X510150Y486890D01*
X510150Y481910D01*
X510150Y482879D02*
X505170Y482879D01*
X505170Y483848D02*
X510150Y483848D01*
X510150Y484817D02*
X505170Y484817D01*
X505170Y485786D02*
X510150Y485786D01*
X510150Y486755D02*
X505170Y486755D01*
X501150Y505510D02*
X496170Y505510D01*
X496170Y510490D01*
X501150Y510490D01*
X501150Y505510D01*
X501150Y506479D02*
X496170Y506479D01*
X496170Y507448D02*
X501150Y507448D01*
X501150Y508417D02*
X496170Y508417D01*
X496170Y509386D02*
X501150Y509386D01*
X501150Y510355D02*
X496170Y510355D01*
X506170Y505510D02*
X511150Y505510D01*
X506170Y505510D02*
X506170Y510490D01*
X511150Y510490D01*
X511150Y505510D01*
X511150Y506479D02*
X506170Y506479D01*
X506170Y507448D02*
X511150Y507448D01*
X511150Y508417D02*
X506170Y508417D01*
X506170Y509386D02*
X511150Y509386D01*
X511150Y510355D02*
X506170Y510355D01*
X621820Y224010D02*
X629300Y224010D01*
X621820Y224010D02*
X621820Y231990D01*
X629300Y231990D01*
X629300Y224010D01*
X629300Y224979D02*
X621820Y224979D01*
X621820Y225948D02*
X629300Y225948D01*
X629300Y226917D02*
X621820Y226917D01*
X621820Y227886D02*
X629300Y227886D01*
X629300Y228855D02*
X621820Y228855D01*
X621820Y229824D02*
X629300Y229824D01*
X629300Y230793D02*
X621820Y230793D01*
X621820Y231762D02*
X629300Y231762D01*
X633420Y224010D02*
X640900Y224010D01*
X633420Y224010D02*
X633420Y231990D01*
X640900Y231990D01*
X640900Y224010D01*
X640900Y224979D02*
X633420Y224979D01*
X633420Y225948D02*
X640900Y225948D01*
X640900Y226917D02*
X633420Y226917D01*
X633420Y227886D02*
X640900Y227886D01*
X640900Y228855D02*
X633420Y228855D01*
X633420Y229824D02*
X640900Y229824D01*
X640900Y230793D02*
X633420Y230793D01*
X633420Y231762D02*
X640900Y231762D01*
X639450Y246490D02*
X634470Y246490D01*
X639450Y246490D02*
X639450Y241510D01*
X634470Y241510D01*
X634470Y246490D01*
X634470Y242479D02*
X639450Y242479D01*
X639450Y243448D02*
X634470Y243448D01*
X634470Y244417D02*
X639450Y244417D01*
X639450Y245386D02*
X634470Y245386D01*
X634470Y246355D02*
X639450Y246355D01*
X629450Y246490D02*
X624470Y246490D01*
X629450Y246490D02*
X629450Y241510D01*
X624470Y241510D01*
X624470Y246490D01*
X624470Y242479D02*
X629450Y242479D01*
X629450Y243448D02*
X624470Y243448D01*
X624470Y244417D02*
X629450Y244417D01*
X629450Y245386D02*
X624470Y245386D01*
X624470Y246355D02*
X629450Y246355D01*
X622850Y210510D02*
X617870Y210510D01*
X617870Y215490D01*
X622850Y215490D01*
X622850Y210510D01*
X622850Y211479D02*
X617870Y211479D01*
X617870Y212448D02*
X622850Y212448D01*
X622850Y213417D02*
X617870Y213417D01*
X617870Y214386D02*
X622850Y214386D01*
X622850Y215355D02*
X617870Y215355D01*
X627870Y210510D02*
X632850Y210510D01*
X627870Y210510D02*
X627870Y215490D01*
X632850Y215490D01*
X632850Y210510D01*
X632850Y211479D02*
X627870Y211479D01*
X627870Y212448D02*
X632850Y212448D01*
X632850Y213417D02*
X627870Y213417D01*
X627870Y214386D02*
X632850Y214386D01*
X632850Y215355D02*
X627870Y215355D01*
D17*
X547360Y462670D02*
X540360Y462670D01*
X540360Y469670D01*
X547360Y469670D01*
X547360Y462670D01*
X547360Y465520D02*
X540360Y465520D01*
X540360Y468370D02*
X547360Y468370D01*
X547360Y445130D02*
X540360Y445130D01*
X540360Y452130D01*
X547360Y452130D01*
X547360Y445130D01*
X547360Y447980D02*
X540360Y447980D01*
X540360Y450830D02*
X547360Y450830D01*
D10*
X544870Y436490D02*
X549850Y436490D01*
X549850Y431510D01*
X544870Y431510D01*
X544870Y436490D01*
X544870Y432479D02*
X549850Y432479D01*
X549850Y433448D02*
X544870Y433448D01*
X544870Y434417D02*
X549850Y434417D01*
X549850Y435386D02*
X544870Y435386D01*
X544870Y436355D02*
X549850Y436355D01*
X539850Y436490D02*
X534870Y436490D01*
X539850Y436490D02*
X539850Y431510D01*
X534870Y431510D01*
X534870Y436490D01*
X534870Y432479D02*
X539850Y432479D01*
X539850Y433448D02*
X534870Y433448D01*
X534870Y434417D02*
X539850Y434417D01*
X539850Y435386D02*
X534870Y435386D01*
X534870Y436355D02*
X539850Y436355D01*
D11*
X681395Y69605D02*
X681395Y61595D01*
X681395Y69605D02*
X690405Y69605D01*
X690405Y61595D01*
X681395Y61595D01*
X681395Y62535D02*
X690405Y62535D01*
X690405Y63475D02*
X681395Y63475D01*
X681395Y64415D02*
X690405Y64415D01*
X690405Y65355D02*
X681395Y65355D01*
X681395Y66295D02*
X690405Y66295D01*
X690405Y67235D02*
X681395Y67235D01*
X681395Y68175D02*
X690405Y68175D01*
X690405Y69115D02*
X681395Y69115D01*
X665395Y69605D02*
X665395Y61595D01*
X665395Y69605D02*
X674405Y69605D01*
X674405Y61595D01*
X665395Y61595D01*
X665395Y62535D02*
X674405Y62535D01*
X674405Y63475D02*
X665395Y63475D01*
X665395Y64415D02*
X674405Y64415D01*
X674405Y65355D02*
X665395Y65355D01*
X665395Y66295D02*
X674405Y66295D01*
X674405Y67235D02*
X665395Y67235D01*
X665395Y68175D02*
X674405Y68175D01*
X674405Y69115D02*
X665395Y69115D01*
X665395Y102595D02*
X665395Y110605D01*
X674405Y110605D01*
X674405Y102595D01*
X665395Y102595D01*
X665395Y103535D02*
X674405Y103535D01*
X674405Y104475D02*
X665395Y104475D01*
X665395Y105415D02*
X674405Y105415D01*
X674405Y106355D02*
X665395Y106355D01*
X665395Y107295D02*
X674405Y107295D01*
X674405Y108235D02*
X665395Y108235D01*
X665395Y109175D02*
X674405Y109175D01*
X674405Y110115D02*
X665395Y110115D01*
X681395Y110605D02*
X681395Y102595D01*
X681395Y110605D02*
X690405Y110605D01*
X690405Y102595D01*
X681395Y102595D01*
X681395Y103535D02*
X690405Y103535D01*
X690405Y104475D02*
X681395Y104475D01*
X681395Y105415D02*
X690405Y105415D01*
X690405Y106355D02*
X681395Y106355D01*
X681395Y107295D02*
X690405Y107295D01*
X690405Y108235D02*
X681395Y108235D01*
X681395Y109175D02*
X690405Y109175D01*
X690405Y110115D02*
X681395Y110115D01*
D10*
X679870Y124490D02*
X684850Y124490D01*
X684850Y119510D01*
X679870Y119510D01*
X679870Y124490D01*
X679870Y120479D02*
X684850Y120479D01*
X684850Y121448D02*
X679870Y121448D01*
X679870Y122417D02*
X684850Y122417D01*
X684850Y123386D02*
X679870Y123386D01*
X679870Y124355D02*
X684850Y124355D01*
X674850Y124490D02*
X669870Y124490D01*
X674850Y124490D02*
X674850Y119510D01*
X669870Y119510D01*
X669870Y124490D01*
X669870Y120479D02*
X674850Y120479D01*
X674850Y121448D02*
X669870Y121448D01*
X669870Y122417D02*
X674850Y122417D01*
X674850Y123386D02*
X669870Y123386D01*
X669870Y124355D02*
X674850Y124355D01*
D16*
X471890Y122420D02*
X471890Y111380D01*
X471890Y122420D02*
X490930Y122420D01*
X490930Y111380D01*
X471890Y111380D01*
X471890Y112292D02*
X490930Y112292D01*
X490930Y113204D02*
X471890Y113204D01*
X471890Y114116D02*
X490930Y114116D01*
X490930Y115028D02*
X471890Y115028D01*
X471890Y115940D02*
X490930Y115940D01*
X490930Y116852D02*
X471890Y116852D01*
X471890Y117764D02*
X490930Y117764D01*
X490930Y118676D02*
X471890Y118676D01*
X471890Y119588D02*
X490930Y119588D01*
X490930Y120500D02*
X471890Y120500D01*
X471890Y121412D02*
X490930Y121412D01*
X490930Y122324D02*
X471890Y122324D01*
X471890Y66420D02*
X471890Y55380D01*
X471890Y66420D02*
X490930Y66420D01*
X490930Y55380D01*
X471890Y55380D01*
X471890Y56292D02*
X490930Y56292D01*
X490930Y57204D02*
X471890Y57204D01*
X471890Y58116D02*
X490930Y58116D01*
X490930Y59028D02*
X471890Y59028D01*
X471890Y59940D02*
X490930Y59940D01*
X490930Y60852D02*
X471890Y60852D01*
X471890Y61764D02*
X490930Y61764D01*
X490930Y62676D02*
X471890Y62676D01*
X471890Y63588D02*
X490930Y63588D01*
X490930Y64500D02*
X471890Y64500D01*
X471890Y65412D02*
X490930Y65412D01*
X490930Y66324D02*
X471890Y66324D01*
D10*
X511920Y101410D02*
X511920Y106390D01*
X524400Y106390D01*
X524400Y101410D01*
X511920Y101410D01*
X511920Y102379D02*
X524400Y102379D01*
X524400Y103348D02*
X511920Y103348D01*
X511920Y104317D02*
X524400Y104317D01*
X524400Y105286D02*
X511920Y105286D01*
X511920Y106255D02*
X524400Y106255D01*
X511920Y96390D02*
X511920Y91410D01*
X511920Y96390D02*
X524400Y96390D01*
X524400Y91410D01*
X511920Y91410D01*
X511920Y92379D02*
X524400Y92379D01*
X524400Y93348D02*
X511920Y93348D01*
X511920Y94317D02*
X524400Y94317D01*
X524400Y95286D02*
X511920Y95286D01*
X511920Y96255D02*
X524400Y96255D01*
X511920Y86390D02*
X511920Y81410D01*
X511920Y86390D02*
X524400Y86390D01*
X524400Y81410D01*
X511920Y81410D01*
X511920Y82379D02*
X524400Y82379D01*
X524400Y83348D02*
X511920Y83348D01*
X511920Y84317D02*
X524400Y84317D01*
X524400Y85286D02*
X511920Y85286D01*
X511920Y86255D02*
X524400Y86255D01*
X511920Y76390D02*
X511920Y71410D01*
X511920Y76390D02*
X524400Y76390D01*
X524400Y71410D01*
X511920Y71410D01*
X511920Y72379D02*
X524400Y72379D01*
X524400Y73348D02*
X511920Y73348D01*
X511920Y74317D02*
X524400Y74317D01*
X524400Y75286D02*
X511920Y75286D01*
X511920Y76255D02*
X524400Y76255D01*
D18*
X565380Y129980D02*
X572340Y129980D01*
X572340Y122020D01*
X565380Y122020D01*
X565380Y129980D01*
X565380Y123008D02*
X572340Y123008D01*
X572340Y123996D02*
X565380Y123996D01*
X565380Y124984D02*
X572340Y124984D01*
X572340Y125972D02*
X565380Y125972D01*
X565380Y126960D02*
X572340Y126960D01*
X572340Y127948D02*
X565380Y127948D01*
X565380Y128936D02*
X572340Y128936D01*
X572340Y129924D02*
X565380Y129924D01*
X553340Y129980D02*
X546380Y129980D01*
X553340Y129980D02*
X553340Y122020D01*
X546380Y122020D01*
X546380Y129980D01*
X546380Y123008D02*
X553340Y123008D01*
X553340Y123996D02*
X546380Y123996D01*
X546380Y124984D02*
X553340Y124984D01*
X553340Y125972D02*
X546380Y125972D01*
X546380Y126960D02*
X553340Y126960D01*
X553340Y127948D02*
X546380Y127948D01*
X546380Y128936D02*
X553340Y128936D01*
X553340Y129924D02*
X546380Y129924D01*
X555880Y108980D02*
X562840Y108980D01*
X562840Y101020D01*
X555880Y101020D01*
X555880Y108980D01*
X555880Y102008D02*
X562840Y102008D01*
X562840Y102996D02*
X555880Y102996D01*
X555880Y103984D02*
X562840Y103984D01*
X562840Y104972D02*
X555880Y104972D01*
X555880Y105960D02*
X562840Y105960D01*
X562840Y106948D02*
X555880Y106948D01*
X555880Y107936D02*
X562840Y107936D01*
X562840Y108924D02*
X555880Y108924D01*
D10*
X586870Y152510D02*
X591850Y152510D01*
X586870Y152510D02*
X586870Y157490D01*
X591850Y157490D01*
X591850Y152510D01*
X591850Y153479D02*
X586870Y153479D01*
X586870Y154448D02*
X591850Y154448D01*
X591850Y155417D02*
X586870Y155417D01*
X586870Y156386D02*
X591850Y156386D01*
X591850Y157355D02*
X586870Y157355D01*
X596870Y152510D02*
X601850Y152510D01*
X596870Y152510D02*
X596870Y157490D01*
X601850Y157490D01*
X601850Y152510D01*
X601850Y153479D02*
X596870Y153479D01*
X596870Y154448D02*
X601850Y154448D01*
X601850Y155417D02*
X596870Y155417D01*
X596870Y156386D02*
X601850Y156386D01*
X601850Y157355D02*
X596870Y157355D01*
X585850Y134490D02*
X585850Y129510D01*
X580870Y129510D01*
X580870Y134490D01*
X585850Y134490D01*
X585850Y130479D02*
X580870Y130479D01*
X580870Y131448D02*
X585850Y131448D01*
X585850Y132417D02*
X580870Y132417D01*
X580870Y133386D02*
X585850Y133386D01*
X585850Y134355D02*
X580870Y134355D01*
X585850Y139510D02*
X585850Y144490D01*
X585850Y139510D02*
X580870Y139510D01*
X580870Y144490D01*
X585850Y144490D01*
X585850Y140479D02*
X580870Y140479D01*
X580870Y141448D02*
X585850Y141448D01*
X585850Y142417D02*
X580870Y142417D01*
X580870Y143386D02*
X585850Y143386D01*
X585850Y144355D02*
X580870Y144355D01*
D18*
X613380Y143980D02*
X620340Y143980D01*
X620340Y136020D01*
X613380Y136020D01*
X613380Y143980D01*
X613380Y137008D02*
X620340Y137008D01*
X620340Y137996D02*
X613380Y137996D01*
X613380Y138984D02*
X620340Y138984D01*
X620340Y139972D02*
X613380Y139972D01*
X613380Y140960D02*
X620340Y140960D01*
X620340Y141948D02*
X613380Y141948D01*
X613380Y142936D02*
X620340Y142936D01*
X620340Y143924D02*
X613380Y143924D01*
X601340Y143980D02*
X594380Y143980D01*
X601340Y143980D02*
X601340Y136020D01*
X594380Y136020D01*
X594380Y143980D01*
X594380Y137008D02*
X601340Y137008D01*
X601340Y137996D02*
X594380Y137996D01*
X594380Y138984D02*
X601340Y138984D01*
X601340Y139972D02*
X594380Y139972D01*
X594380Y140960D02*
X601340Y140960D01*
X601340Y141948D02*
X594380Y141948D01*
X594380Y142936D02*
X601340Y142936D01*
X601340Y143924D02*
X594380Y143924D01*
X603880Y122980D02*
X610840Y122980D01*
X610840Y115020D01*
X603880Y115020D01*
X603880Y122980D01*
X603880Y116008D02*
X610840Y116008D01*
X610840Y116996D02*
X603880Y116996D01*
X603880Y117984D02*
X610840Y117984D01*
X610840Y118972D02*
X603880Y118972D01*
X603880Y119960D02*
X610840Y119960D01*
X610840Y120948D02*
X603880Y120948D01*
X603880Y121936D02*
X610840Y121936D01*
X610840Y122924D02*
X603880Y122924D01*
D10*
X585850Y110490D02*
X585850Y105510D01*
X580870Y105510D01*
X580870Y110490D01*
X585850Y110490D01*
X585850Y106479D02*
X580870Y106479D01*
X580870Y107448D02*
X585850Y107448D01*
X585850Y108417D02*
X580870Y108417D01*
X580870Y109386D02*
X585850Y109386D01*
X585850Y110355D02*
X580870Y110355D01*
X585850Y115510D02*
X585850Y120490D01*
X585850Y115510D02*
X580870Y115510D01*
X580870Y120490D01*
X585850Y120490D01*
X585850Y116479D02*
X580870Y116479D01*
X580870Y117448D02*
X585850Y117448D01*
X585850Y118417D02*
X580870Y118417D01*
X580870Y119386D02*
X585850Y119386D01*
X585850Y120355D02*
X580870Y120355D01*
X643870Y612510D02*
X648850Y612510D01*
X643870Y612510D02*
X643870Y617490D01*
X648850Y617490D01*
X648850Y612510D01*
X648850Y613479D02*
X643870Y613479D01*
X643870Y614448D02*
X648850Y614448D01*
X648850Y615417D02*
X643870Y615417D01*
X643870Y616386D02*
X648850Y616386D01*
X648850Y617355D02*
X643870Y617355D01*
X653870Y612510D02*
X658850Y612510D01*
X653870Y612510D02*
X653870Y617490D01*
X658850Y617490D01*
X658850Y612510D01*
X658850Y613479D02*
X653870Y613479D01*
X653870Y614448D02*
X658850Y614448D01*
X658850Y615417D02*
X653870Y615417D01*
X653870Y616386D02*
X658850Y616386D01*
X658850Y617355D02*
X653870Y617355D01*
X648850Y602510D02*
X643870Y602510D01*
X643870Y607490D01*
X648850Y607490D01*
X648850Y602510D01*
X648850Y603479D02*
X643870Y603479D01*
X643870Y604448D02*
X648850Y604448D01*
X648850Y605417D02*
X643870Y605417D01*
X643870Y606386D02*
X648850Y606386D01*
X648850Y607355D02*
X643870Y607355D01*
X653870Y602510D02*
X658850Y602510D01*
X653870Y602510D02*
X653870Y607490D01*
X658850Y607490D01*
X658850Y602510D01*
X658850Y603479D02*
X653870Y603479D01*
X653870Y604448D02*
X658850Y604448D01*
X658850Y605417D02*
X653870Y605417D01*
X653870Y606386D02*
X658850Y606386D01*
X658850Y607355D02*
X653870Y607355D01*
D23*
X526103Y300493D02*
X522117Y300493D01*
X526103Y300493D02*
X526103Y298007D01*
X522117Y298007D01*
X522117Y300493D01*
X522117Y298971D02*
X526103Y298971D01*
X526103Y299935D02*
X522117Y299935D01*
X522117Y306993D02*
X526103Y306993D01*
X526103Y304507D01*
X522117Y304507D01*
X522117Y306993D01*
X522117Y305471D02*
X526103Y305471D01*
X526103Y306435D02*
X522117Y306435D01*
X522117Y313493D02*
X526103Y313493D01*
X526103Y311007D01*
X522117Y311007D01*
X522117Y313493D01*
X522117Y311971D02*
X526103Y311971D01*
X526103Y312935D02*
X522117Y312935D01*
X522117Y319993D02*
X526103Y319993D01*
X526103Y317507D01*
X522117Y317507D01*
X522117Y319993D01*
X522117Y318471D02*
X526103Y318471D01*
X526103Y319435D02*
X522117Y319435D01*
X542617Y319993D02*
X546603Y319993D01*
X546603Y317507D01*
X542617Y317507D01*
X542617Y319993D01*
X542617Y318471D02*
X546603Y318471D01*
X546603Y319435D02*
X542617Y319435D01*
X542617Y313493D02*
X546603Y313493D01*
X546603Y311007D01*
X542617Y311007D01*
X542617Y313493D01*
X542617Y311971D02*
X546603Y311971D01*
X546603Y312935D02*
X542617Y312935D01*
X542617Y306993D02*
X546603Y306993D01*
X546603Y304507D01*
X542617Y304507D01*
X542617Y306993D01*
X542617Y305471D02*
X546603Y305471D01*
X546603Y306435D02*
X542617Y306435D01*
X542617Y300493D02*
X546603Y300493D01*
X546603Y298007D01*
X542617Y298007D01*
X542617Y300493D01*
X542617Y298971D02*
X546603Y298971D01*
X546603Y299935D02*
X542617Y299935D01*
D10*
X558850Y310510D02*
X558850Y315490D01*
X558850Y310510D02*
X553870Y310510D01*
X553870Y315490D01*
X558850Y315490D01*
X558850Y311479D02*
X553870Y311479D01*
X553870Y312448D02*
X558850Y312448D01*
X558850Y313417D02*
X553870Y313417D01*
X553870Y314386D02*
X558850Y314386D01*
X558850Y315355D02*
X553870Y315355D01*
X558850Y320510D02*
X558850Y325490D01*
X558850Y320510D02*
X553870Y320510D01*
X553870Y325490D01*
X558850Y325490D01*
X558850Y321479D02*
X553870Y321479D01*
X553870Y322448D02*
X558850Y322448D01*
X558850Y323417D02*
X553870Y323417D01*
X553870Y324386D02*
X558850Y324386D01*
X558850Y325355D02*
X553870Y325355D01*
X546850Y291490D02*
X541870Y291490D01*
X546850Y291490D02*
X546850Y286510D01*
X541870Y286510D01*
X541870Y291490D01*
X541870Y287479D02*
X546850Y287479D01*
X546850Y288448D02*
X541870Y288448D01*
X541870Y289417D02*
X546850Y289417D01*
X546850Y290386D02*
X541870Y290386D01*
X541870Y291355D02*
X546850Y291355D01*
X536850Y291490D02*
X531870Y291490D01*
X536850Y291490D02*
X536850Y286510D01*
X531870Y286510D01*
X531870Y291490D01*
X531870Y287479D02*
X536850Y287479D01*
X536850Y288448D02*
X531870Y288448D01*
X531870Y289417D02*
X536850Y289417D01*
X536850Y290386D02*
X531870Y290386D01*
X531870Y291355D02*
X536850Y291355D01*
X541870Y281490D02*
X546850Y281490D01*
X546850Y276510D01*
X541870Y276510D01*
X541870Y281490D01*
X541870Y277479D02*
X546850Y277479D01*
X546850Y278448D02*
X541870Y278448D01*
X541870Y279417D02*
X546850Y279417D01*
X546850Y280386D02*
X541870Y280386D01*
X541870Y281355D02*
X546850Y281355D01*
X536850Y281490D02*
X531870Y281490D01*
X536850Y281490D02*
X536850Y276510D01*
X531870Y276510D01*
X531870Y281490D01*
X531870Y277479D02*
X536850Y277479D01*
X536850Y278448D02*
X531870Y278448D01*
X531870Y279417D02*
X536850Y279417D01*
X536850Y280386D02*
X531870Y280386D01*
X531870Y281355D02*
X536850Y281355D01*
X568145Y400210D02*
X571925Y400210D01*
X568145Y400210D02*
X568145Y402190D01*
X571925Y402190D01*
X571925Y400210D01*
X571925Y401179D02*
X568145Y401179D01*
X568145Y402148D02*
X571925Y402148D01*
X571925Y395210D02*
X568145Y395210D01*
X568145Y397190D01*
X571925Y397190D01*
X571925Y395210D01*
X571925Y396179D02*
X568145Y396179D01*
X568145Y397148D02*
X571925Y397148D01*
X571925Y390210D02*
X568145Y390210D01*
X568145Y392190D01*
X571925Y392190D01*
X571925Y390210D01*
X571925Y391179D02*
X568145Y391179D01*
X568145Y392148D02*
X571925Y392148D01*
X571925Y385210D02*
X568145Y385210D01*
X568145Y387190D01*
X571925Y387190D01*
X571925Y385210D01*
X571925Y386179D02*
X568145Y386179D01*
X568145Y387148D02*
X571925Y387148D01*
X591395Y387190D02*
X595175Y387190D01*
X595175Y385210D01*
X591395Y385210D01*
X591395Y387190D01*
X591395Y386179D02*
X595175Y386179D01*
X595175Y387148D02*
X591395Y387148D01*
X591395Y392190D02*
X595175Y392190D01*
X595175Y390210D01*
X591395Y390210D01*
X591395Y392190D01*
X591395Y391179D02*
X595175Y391179D01*
X595175Y392148D02*
X591395Y392148D01*
X591395Y397190D02*
X595175Y397190D01*
X595175Y395210D01*
X591395Y395210D01*
X591395Y397190D01*
X591395Y396179D02*
X595175Y396179D01*
X595175Y397148D02*
X591395Y397148D01*
X591395Y402190D02*
X595175Y402190D01*
X595175Y400210D01*
X591395Y400210D01*
X591395Y402190D01*
X591395Y401179D02*
X595175Y401179D01*
X595175Y402148D02*
X591395Y402148D01*
X577650Y381810D02*
X575670Y381810D01*
X575670Y385590D01*
X577650Y385590D01*
X577650Y381810D01*
X577650Y382779D02*
X575670Y382779D01*
X575670Y383748D02*
X577650Y383748D01*
X577650Y384717D02*
X575670Y384717D01*
X580670Y381810D02*
X582650Y381810D01*
X580670Y381810D02*
X580670Y385590D01*
X582650Y385590D01*
X582650Y381810D01*
X582650Y382779D02*
X580670Y382779D01*
X580670Y383748D02*
X582650Y383748D01*
X582650Y384717D02*
X580670Y384717D01*
X585670Y381810D02*
X587650Y381810D01*
X585670Y381810D02*
X585670Y385590D01*
X587650Y385590D01*
X587650Y381810D01*
X587650Y382779D02*
X585670Y382779D01*
X585670Y383748D02*
X587650Y383748D01*
X587650Y384717D02*
X585670Y384717D01*
X585670Y405590D02*
X587650Y405590D01*
X587650Y401810D01*
X585670Y401810D01*
X585670Y405590D01*
X585670Y402779D02*
X587650Y402779D01*
X587650Y403748D02*
X585670Y403748D01*
X585670Y404717D02*
X587650Y404717D01*
X582650Y405590D02*
X580670Y405590D01*
X582650Y405590D02*
X582650Y401810D01*
X580670Y401810D01*
X580670Y405590D01*
X580670Y402779D02*
X582650Y402779D01*
X582650Y403748D02*
X580670Y403748D01*
X580670Y404717D02*
X582650Y404717D01*
X577650Y405590D02*
X575670Y405590D01*
X577650Y405590D02*
X577650Y401810D01*
X575670Y401810D01*
X575670Y405590D01*
X575670Y402779D02*
X577650Y402779D01*
X577650Y403748D02*
X575670Y403748D01*
X575670Y404717D02*
X577650Y404717D01*
X604370Y426490D02*
X609350Y426490D01*
X609350Y421510D01*
X604370Y421510D01*
X604370Y426490D01*
X604370Y422479D02*
X609350Y422479D01*
X609350Y423448D02*
X604370Y423448D01*
X604370Y424417D02*
X609350Y424417D01*
X609350Y425386D02*
X604370Y425386D01*
X604370Y426355D02*
X609350Y426355D01*
X599350Y426490D02*
X594370Y426490D01*
X599350Y426490D02*
X599350Y421510D01*
X594370Y421510D01*
X594370Y426490D01*
X594370Y422479D02*
X599350Y422479D01*
X599350Y423448D02*
X594370Y423448D01*
X594370Y424417D02*
X599350Y424417D01*
X599350Y425386D02*
X594370Y425386D01*
X594370Y426355D02*
X599350Y426355D01*
X555870Y406090D02*
X555870Y401110D01*
X555870Y406090D02*
X560850Y406090D01*
X560850Y401110D01*
X555870Y401110D01*
X555870Y402079D02*
X560850Y402079D01*
X560850Y403048D02*
X555870Y403048D01*
X555870Y404017D02*
X560850Y404017D01*
X560850Y404986D02*
X555870Y404986D01*
X555870Y405955D02*
X560850Y405955D01*
X555870Y396090D02*
X555870Y391110D01*
X555870Y396090D02*
X560850Y396090D01*
X560850Y391110D01*
X555870Y391110D01*
X555870Y392079D02*
X560850Y392079D01*
X560850Y393048D02*
X555870Y393048D01*
X555870Y394017D02*
X560850Y394017D01*
X560850Y394986D02*
X555870Y394986D01*
X555870Y395955D02*
X560850Y395955D01*
X566870Y370510D02*
X571850Y370510D01*
X566870Y370510D02*
X566870Y375490D01*
X571850Y375490D01*
X571850Y370510D01*
X571850Y371479D02*
X566870Y371479D01*
X566870Y372448D02*
X571850Y372448D01*
X571850Y373417D02*
X566870Y373417D01*
X566870Y374386D02*
X571850Y374386D01*
X571850Y375355D02*
X566870Y375355D01*
X576870Y370510D02*
X581850Y370510D01*
X576870Y370510D02*
X576870Y375490D01*
X581850Y375490D01*
X581850Y370510D01*
X581850Y371479D02*
X576870Y371479D01*
X576870Y372448D02*
X581850Y372448D01*
X581850Y373417D02*
X576870Y373417D01*
X576870Y374386D02*
X581850Y374386D01*
X581850Y375355D02*
X576870Y375355D01*
X598870Y375490D02*
X603850Y375490D01*
X603850Y370510D01*
X598870Y370510D01*
X598870Y375490D01*
X598870Y371479D02*
X603850Y371479D01*
X603850Y372448D02*
X598870Y372448D01*
X598870Y373417D02*
X603850Y373417D01*
X603850Y374386D02*
X598870Y374386D01*
X598870Y375355D02*
X603850Y375355D01*
X593850Y375490D02*
X588870Y375490D01*
X593850Y375490D02*
X593850Y370510D01*
X588870Y370510D01*
X588870Y375490D01*
X588870Y371479D02*
X593850Y371479D01*
X593850Y372448D02*
X588870Y372448D01*
X588870Y373417D02*
X593850Y373417D01*
X593850Y374386D02*
X588870Y374386D01*
X588870Y375355D02*
X593850Y375355D01*
M02*
