G04 EAGLE Gerber RS-274X export*
G75*
%MOMM*%
%FSLAX34Y34*%
%LPD*%
%INSoldermask Bottom*%
%IPPOS*%
%AMOC8*
5,1,8,0,0,1.08239X$1,22.5*%
G01*
%ADD10C,2.006600*%
%ADD11C,3.175000*%
%ADD12C,0.762000*%
%ADD13C,0.777000*%
%ADD14C,0.228344*%
%ADD15C,1.397000*%
%ADD16C,0.225719*%
%ADD17C,0.228688*%
%ADD18C,0.235400*%
%ADD19C,0.223409*%
%ADD20C,1.127000*%
%ADD21C,1.270000*%
%ADD22C,1.627000*%

G36*
X266127Y75717D02*
X266127Y75717D01*
X266122Y75724D01*
X266129Y75730D01*
X266129Y88530D01*
X266127Y88533D01*
X266129Y88535D01*
X265929Y90335D01*
X265924Y90341D01*
X265927Y90346D01*
X265727Y90946D01*
X265722Y90949D01*
X265724Y90952D01*
X265424Y91552D01*
X265421Y91553D01*
X265422Y91555D01*
X265122Y92055D01*
X265107Y92062D01*
X265105Y92072D01*
X264608Y92371D01*
X264210Y92669D01*
X264200Y92669D01*
X264198Y92676D01*
X263198Y93076D01*
X263191Y93074D01*
X263188Y93079D01*
X262588Y93179D01*
X262583Y93176D01*
X262580Y93179D01*
X261780Y93179D01*
X261773Y93174D01*
X261768Y93178D01*
X261374Y93079D01*
X261180Y93079D01*
X261167Y93070D01*
X261158Y93074D01*
X260958Y92974D01*
X260957Y92973D01*
X260956Y92973D01*
X260955Y92969D01*
X260932Y92921D01*
X260948Y92913D01*
X260945Y92895D01*
X261045Y92795D01*
X261057Y92794D01*
X261058Y92786D01*
X261458Y92586D01*
X261463Y92587D01*
X261464Y92583D01*
X261753Y92487D01*
X262142Y92099D01*
X262335Y91808D01*
X262431Y91522D01*
X262431Y91238D01*
X262334Y90949D01*
X262139Y90559D01*
X261849Y90268D01*
X261557Y90074D01*
X261066Y89877D01*
X260575Y89779D01*
X259786Y89779D01*
X259000Y89976D01*
X258414Y90367D01*
X258024Y90854D01*
X257829Y91438D01*
X257829Y92120D01*
X258122Y92803D01*
X258817Y93597D01*
X259617Y94497D01*
X259617Y94498D01*
X260317Y95298D01*
X260318Y95305D01*
X260323Y95306D01*
X260823Y96206D01*
X260822Y96216D01*
X260828Y96219D01*
X261028Y97119D01*
X261025Y97127D01*
X261029Y97130D01*
X261029Y97930D01*
X261022Y97939D01*
X261027Y97946D01*
X260727Y98846D01*
X260718Y98852D01*
X260720Y98859D01*
X260220Y99559D01*
X260212Y99561D01*
X260213Y99567D01*
X259313Y100367D01*
X259304Y100367D01*
X259304Y100373D01*
X258204Y100973D01*
X258192Y100972D01*
X258189Y100978D01*
X257089Y101178D01*
X257083Y101175D01*
X257080Y101179D01*
X256080Y101179D01*
X256071Y101172D01*
X256064Y101177D01*
X255164Y100877D01*
X255164Y100876D01*
X255163Y100876D01*
X254363Y100576D01*
X254361Y100573D01*
X254358Y100574D01*
X253758Y100274D01*
X253755Y100268D01*
X253750Y100269D01*
X253350Y99969D01*
X253349Y99964D01*
X253345Y99965D01*
X253245Y99865D01*
X253243Y99851D01*
X253233Y99843D01*
X253241Y99833D01*
X253237Y99806D01*
X253264Y99802D01*
X253280Y99781D01*
X253580Y99781D01*
X253589Y99788D01*
X253596Y99783D01*
X253888Y99881D01*
X254174Y99881D01*
X254568Y99782D01*
X254570Y99783D01*
X254570Y99782D01*
X255064Y99683D01*
X255454Y99488D01*
X255844Y99196D01*
X256035Y98908D01*
X256133Y98614D01*
X256138Y98611D01*
X256136Y98608D01*
X256234Y98411D01*
X256328Y98130D01*
X256233Y97846D01*
X256234Y97843D01*
X256232Y97842D01*
X256134Y97450D01*
X255939Y97157D01*
X255939Y97153D01*
X255936Y97152D01*
X255739Y96759D01*
X255449Y96468D01*
X255153Y96271D01*
X255152Y96269D01*
X255150Y96269D01*
X254751Y95970D01*
X254455Y95773D01*
X253668Y95379D01*
X252988Y95379D01*
X252702Y95475D01*
X252421Y95662D01*
X252229Y96238D01*
X252229Y97030D01*
X252226Y97034D01*
X252228Y97039D01*
X252219Y97044D01*
X252193Y97077D01*
X252177Y97065D01*
X252158Y97074D01*
X251358Y96674D01*
X251352Y96662D01*
X251343Y96663D01*
X250543Y95763D01*
X250543Y95755D01*
X250537Y95755D01*
X249837Y94555D01*
X249838Y94548D01*
X249834Y94547D01*
X249334Y93147D01*
X249335Y93141D01*
X249332Y93139D01*
X249032Y91539D01*
X249036Y91531D01*
X249031Y91527D01*
X249131Y89727D01*
X249136Y89721D01*
X249133Y89717D01*
X249633Y87917D01*
X249639Y87912D01*
X249637Y87906D01*
X250637Y86106D01*
X250642Y86104D01*
X250641Y86100D01*
X251341Y85200D01*
X251346Y85199D01*
X251345Y85195D01*
X252145Y84395D01*
X252148Y84395D01*
X252148Y84393D01*
X252948Y83693D01*
X252954Y83692D01*
X252955Y83688D01*
X253955Y83088D01*
X253961Y83088D01*
X253962Y83084D01*
X254962Y82684D01*
X254966Y82685D01*
X254967Y82683D01*
X256067Y82383D01*
X256071Y82384D01*
X256072Y82381D01*
X257272Y82181D01*
X257274Y82182D01*
X257279Y82182D01*
X257280Y82181D01*
X259176Y82181D01*
X259763Y82083D01*
X260252Y81790D01*
X261245Y80995D01*
X261742Y80398D01*
X261746Y80398D01*
X261745Y80395D01*
X263042Y79098D01*
X263540Y78401D01*
X263546Y78400D01*
X263545Y78395D01*
X264143Y77797D01*
X264642Y77198D01*
X264646Y77198D01*
X264645Y77195D01*
X265143Y76698D01*
X265441Y76300D01*
X265446Y76299D01*
X265445Y76295D01*
X265742Y75999D01*
X265939Y75703D01*
X265972Y75691D01*
X265980Y75681D01*
X266080Y75681D01*
X266127Y75717D01*
G37*
G36*
X32447Y75717D02*
X32447Y75717D01*
X32442Y75724D01*
X32449Y75730D01*
X32449Y88530D01*
X32447Y88533D01*
X32449Y88535D01*
X32249Y90335D01*
X32244Y90341D01*
X32247Y90346D01*
X32047Y90946D01*
X32042Y90949D01*
X32044Y90952D01*
X31744Y91552D01*
X31741Y91553D01*
X31742Y91555D01*
X31442Y92055D01*
X31427Y92062D01*
X31425Y92072D01*
X30928Y92371D01*
X30530Y92669D01*
X30520Y92669D01*
X30518Y92676D01*
X29518Y93076D01*
X29511Y93074D01*
X29508Y93079D01*
X28908Y93179D01*
X28903Y93176D01*
X28900Y93179D01*
X28100Y93179D01*
X28093Y93174D01*
X28088Y93178D01*
X27694Y93079D01*
X27500Y93079D01*
X27487Y93070D01*
X27478Y93074D01*
X27278Y92974D01*
X27277Y92973D01*
X27276Y92973D01*
X27275Y92969D01*
X27252Y92921D01*
X27268Y92913D01*
X27265Y92895D01*
X27365Y92795D01*
X27377Y92794D01*
X27378Y92786D01*
X27778Y92586D01*
X27783Y92587D01*
X27784Y92583D01*
X28073Y92487D01*
X28462Y92099D01*
X28655Y91808D01*
X28751Y91522D01*
X28751Y91238D01*
X28654Y90949D01*
X28459Y90559D01*
X28169Y90268D01*
X27877Y90074D01*
X27386Y89877D01*
X26895Y89779D01*
X26106Y89779D01*
X25320Y89976D01*
X24734Y90367D01*
X24344Y90854D01*
X24149Y91438D01*
X24149Y92120D01*
X24442Y92803D01*
X25137Y93597D01*
X25937Y94497D01*
X25937Y94498D01*
X26637Y95298D01*
X26638Y95305D01*
X26643Y95306D01*
X27143Y96206D01*
X27142Y96216D01*
X27148Y96219D01*
X27348Y97119D01*
X27345Y97127D01*
X27349Y97130D01*
X27349Y97930D01*
X27342Y97939D01*
X27347Y97946D01*
X27047Y98846D01*
X27038Y98852D01*
X27040Y98859D01*
X26540Y99559D01*
X26532Y99561D01*
X26533Y99567D01*
X25633Y100367D01*
X25624Y100367D01*
X25624Y100373D01*
X24524Y100973D01*
X24512Y100972D01*
X24509Y100978D01*
X23409Y101178D01*
X23403Y101175D01*
X23400Y101179D01*
X22400Y101179D01*
X22391Y101172D01*
X22384Y101177D01*
X21484Y100877D01*
X21484Y100876D01*
X21483Y100876D01*
X20683Y100576D01*
X20681Y100573D01*
X20678Y100574D01*
X20078Y100274D01*
X20075Y100268D01*
X20070Y100269D01*
X19670Y99969D01*
X19669Y99964D01*
X19665Y99965D01*
X19565Y99865D01*
X19563Y99851D01*
X19553Y99843D01*
X19561Y99833D01*
X19557Y99806D01*
X19584Y99802D01*
X19600Y99781D01*
X19900Y99781D01*
X19909Y99788D01*
X19916Y99783D01*
X20208Y99881D01*
X20494Y99881D01*
X20888Y99782D01*
X20890Y99783D01*
X20890Y99782D01*
X21384Y99683D01*
X21774Y99488D01*
X22164Y99196D01*
X22355Y98908D01*
X22453Y98614D01*
X22458Y98611D01*
X22456Y98608D01*
X22554Y98411D01*
X22648Y98130D01*
X22553Y97846D01*
X22554Y97843D01*
X22552Y97842D01*
X22454Y97450D01*
X22259Y97157D01*
X22259Y97153D01*
X22256Y97152D01*
X22059Y96759D01*
X21769Y96468D01*
X21473Y96271D01*
X21472Y96269D01*
X21470Y96269D01*
X21071Y95970D01*
X20775Y95773D01*
X19988Y95379D01*
X19308Y95379D01*
X19022Y95475D01*
X18741Y95662D01*
X18549Y96238D01*
X18549Y97030D01*
X18546Y97034D01*
X18548Y97039D01*
X18539Y97044D01*
X18513Y97077D01*
X18497Y97065D01*
X18478Y97074D01*
X17678Y96674D01*
X17672Y96662D01*
X17663Y96663D01*
X16863Y95763D01*
X16863Y95755D01*
X16857Y95755D01*
X16157Y94555D01*
X16158Y94548D01*
X16154Y94547D01*
X15654Y93147D01*
X15655Y93141D01*
X15652Y93139D01*
X15352Y91539D01*
X15356Y91531D01*
X15351Y91527D01*
X15451Y89727D01*
X15456Y89721D01*
X15453Y89717D01*
X15953Y87917D01*
X15959Y87912D01*
X15957Y87906D01*
X16957Y86106D01*
X16962Y86104D01*
X16961Y86100D01*
X17661Y85200D01*
X17666Y85199D01*
X17665Y85195D01*
X18465Y84395D01*
X18468Y84395D01*
X18468Y84393D01*
X19268Y83693D01*
X19274Y83692D01*
X19275Y83688D01*
X20275Y83088D01*
X20281Y83088D01*
X20282Y83084D01*
X21282Y82684D01*
X21286Y82685D01*
X21287Y82683D01*
X22387Y82383D01*
X22391Y82384D01*
X22392Y82381D01*
X23592Y82181D01*
X23594Y82182D01*
X23599Y82182D01*
X23600Y82181D01*
X25496Y82181D01*
X26083Y82083D01*
X26572Y81790D01*
X27565Y80995D01*
X28062Y80398D01*
X28066Y80398D01*
X28065Y80395D01*
X29362Y79098D01*
X29860Y78401D01*
X29866Y78400D01*
X29865Y78395D01*
X30463Y77797D01*
X30962Y77198D01*
X30966Y77198D01*
X30965Y77195D01*
X31463Y76698D01*
X31761Y76300D01*
X31766Y76299D01*
X31765Y76295D01*
X32062Y75999D01*
X32259Y75703D01*
X32292Y75691D01*
X32300Y75681D01*
X32400Y75681D01*
X32447Y75717D01*
G37*
G36*
X499807Y75717D02*
X499807Y75717D01*
X499802Y75724D01*
X499809Y75730D01*
X499809Y88530D01*
X499807Y88533D01*
X499809Y88535D01*
X499609Y90335D01*
X499604Y90341D01*
X499607Y90346D01*
X499407Y90946D01*
X499402Y90949D01*
X499404Y90952D01*
X499104Y91552D01*
X499101Y91553D01*
X499102Y91555D01*
X498802Y92055D01*
X498787Y92062D01*
X498785Y92072D01*
X498288Y92371D01*
X497890Y92669D01*
X497880Y92669D01*
X497878Y92676D01*
X496878Y93076D01*
X496871Y93074D01*
X496868Y93079D01*
X496268Y93179D01*
X496263Y93176D01*
X496260Y93179D01*
X495460Y93179D01*
X495453Y93174D01*
X495448Y93178D01*
X495054Y93079D01*
X494860Y93079D01*
X494847Y93070D01*
X494838Y93074D01*
X494638Y92974D01*
X494637Y92973D01*
X494636Y92973D01*
X494635Y92969D01*
X494612Y92921D01*
X494628Y92913D01*
X494625Y92895D01*
X494725Y92795D01*
X494737Y92794D01*
X494738Y92786D01*
X495138Y92586D01*
X495143Y92587D01*
X495144Y92583D01*
X495433Y92487D01*
X495822Y92099D01*
X496015Y91808D01*
X496111Y91522D01*
X496111Y91238D01*
X496014Y90949D01*
X495819Y90559D01*
X495529Y90268D01*
X495237Y90074D01*
X494746Y89877D01*
X494255Y89779D01*
X493466Y89779D01*
X492680Y89976D01*
X492094Y90367D01*
X491704Y90854D01*
X491509Y91438D01*
X491509Y92120D01*
X491802Y92803D01*
X492497Y93597D01*
X493297Y94497D01*
X493297Y94498D01*
X493997Y95298D01*
X493998Y95305D01*
X494003Y95306D01*
X494503Y96206D01*
X494502Y96216D01*
X494508Y96219D01*
X494708Y97119D01*
X494705Y97127D01*
X494709Y97130D01*
X494709Y97930D01*
X494702Y97939D01*
X494707Y97946D01*
X494407Y98846D01*
X494398Y98852D01*
X494400Y98859D01*
X493900Y99559D01*
X493892Y99561D01*
X493893Y99567D01*
X492993Y100367D01*
X492984Y100367D01*
X492984Y100373D01*
X491884Y100973D01*
X491872Y100972D01*
X491869Y100978D01*
X490769Y101178D01*
X490763Y101175D01*
X490760Y101179D01*
X489760Y101179D01*
X489751Y101172D01*
X489744Y101177D01*
X488844Y100877D01*
X488844Y100876D01*
X488843Y100876D01*
X488043Y100576D01*
X488041Y100573D01*
X488038Y100574D01*
X487438Y100274D01*
X487435Y100268D01*
X487430Y100269D01*
X487030Y99969D01*
X487029Y99964D01*
X487025Y99965D01*
X486925Y99865D01*
X486923Y99851D01*
X486913Y99843D01*
X486921Y99833D01*
X486917Y99806D01*
X486944Y99802D01*
X486960Y99781D01*
X487260Y99781D01*
X487269Y99788D01*
X487276Y99783D01*
X487568Y99881D01*
X487854Y99881D01*
X488248Y99782D01*
X488250Y99783D01*
X488250Y99782D01*
X488744Y99683D01*
X489134Y99488D01*
X489524Y99196D01*
X489715Y98908D01*
X489813Y98614D01*
X489818Y98611D01*
X489816Y98608D01*
X489914Y98411D01*
X490008Y98130D01*
X489913Y97846D01*
X489914Y97843D01*
X489912Y97842D01*
X489814Y97450D01*
X489619Y97157D01*
X489619Y97153D01*
X489616Y97152D01*
X489419Y96759D01*
X489129Y96468D01*
X488833Y96271D01*
X488832Y96269D01*
X488830Y96269D01*
X488431Y95970D01*
X488135Y95773D01*
X487348Y95379D01*
X486668Y95379D01*
X486382Y95475D01*
X486101Y95662D01*
X485909Y96238D01*
X485909Y97030D01*
X485906Y97034D01*
X485908Y97039D01*
X485899Y97044D01*
X485873Y97077D01*
X485857Y97065D01*
X485838Y97074D01*
X485038Y96674D01*
X485032Y96662D01*
X485023Y96663D01*
X484223Y95763D01*
X484223Y95755D01*
X484217Y95755D01*
X483517Y94555D01*
X483518Y94548D01*
X483514Y94547D01*
X483014Y93147D01*
X483015Y93141D01*
X483012Y93139D01*
X482712Y91539D01*
X482716Y91531D01*
X482711Y91527D01*
X482811Y89727D01*
X482816Y89721D01*
X482813Y89717D01*
X483313Y87917D01*
X483319Y87912D01*
X483317Y87906D01*
X484317Y86106D01*
X484322Y86104D01*
X484321Y86100D01*
X485021Y85200D01*
X485026Y85199D01*
X485025Y85195D01*
X485825Y84395D01*
X485828Y84395D01*
X485828Y84393D01*
X486628Y83693D01*
X486634Y83692D01*
X486635Y83688D01*
X487635Y83088D01*
X487641Y83088D01*
X487642Y83084D01*
X488642Y82684D01*
X488646Y82685D01*
X488647Y82683D01*
X489747Y82383D01*
X489751Y82384D01*
X489752Y82381D01*
X490952Y82181D01*
X490954Y82182D01*
X490959Y82182D01*
X490960Y82181D01*
X492856Y82181D01*
X493443Y82083D01*
X493932Y81790D01*
X494925Y80995D01*
X495422Y80398D01*
X495426Y80398D01*
X495425Y80395D01*
X496722Y79098D01*
X497220Y78401D01*
X497226Y78400D01*
X497225Y78395D01*
X497823Y77797D01*
X498322Y77198D01*
X498326Y77198D01*
X498325Y77195D01*
X498823Y76698D01*
X499121Y76300D01*
X499126Y76299D01*
X499125Y76295D01*
X499422Y75999D01*
X499619Y75703D01*
X499652Y75691D01*
X499660Y75681D01*
X499760Y75681D01*
X499807Y75717D01*
G37*
G36*
X274015Y509552D02*
X274015Y509552D01*
X274081Y509554D01*
X274124Y509572D01*
X274171Y509580D01*
X274228Y509614D01*
X274288Y509639D01*
X274323Y509670D01*
X274364Y509695D01*
X274406Y509746D01*
X274454Y509790D01*
X274476Y509832D01*
X274505Y509869D01*
X274526Y509931D01*
X274557Y509990D01*
X274565Y510044D01*
X274577Y510081D01*
X274576Y510121D01*
X274584Y510175D01*
X274584Y513985D01*
X274573Y514050D01*
X274571Y514116D01*
X274553Y514159D01*
X274545Y514206D01*
X274511Y514263D01*
X274486Y514323D01*
X274455Y514358D01*
X274430Y514399D01*
X274379Y514441D01*
X274335Y514489D01*
X274293Y514511D01*
X274256Y514540D01*
X274194Y514561D01*
X274135Y514592D01*
X274081Y514600D01*
X274044Y514612D01*
X274004Y514611D01*
X273950Y514619D01*
X271410Y514619D01*
X271345Y514608D01*
X271279Y514606D01*
X271236Y514588D01*
X271189Y514580D01*
X271132Y514546D01*
X271072Y514521D01*
X271037Y514490D01*
X270996Y514465D01*
X270955Y514414D01*
X270906Y514370D01*
X270884Y514328D01*
X270855Y514291D01*
X270834Y514229D01*
X270803Y514170D01*
X270795Y514116D01*
X270783Y514079D01*
X270783Y514075D01*
X270783Y514074D01*
X270784Y514039D01*
X270776Y513985D01*
X270776Y510175D01*
X270787Y510110D01*
X270789Y510044D01*
X270807Y510001D01*
X270815Y509954D01*
X270849Y509897D01*
X270874Y509837D01*
X270905Y509802D01*
X270930Y509761D01*
X270981Y509720D01*
X271025Y509671D01*
X271067Y509649D01*
X271104Y509620D01*
X271166Y509599D01*
X271225Y509568D01*
X271279Y509560D01*
X271316Y509548D01*
X271356Y509549D01*
X271410Y509541D01*
X273950Y509541D01*
X274015Y509552D01*
G37*
G36*
X507695Y509552D02*
X507695Y509552D01*
X507761Y509554D01*
X507804Y509572D01*
X507851Y509580D01*
X507908Y509614D01*
X507968Y509639D01*
X508003Y509670D01*
X508044Y509695D01*
X508086Y509746D01*
X508134Y509790D01*
X508156Y509832D01*
X508185Y509869D01*
X508206Y509931D01*
X508237Y509990D01*
X508245Y510044D01*
X508257Y510081D01*
X508256Y510121D01*
X508264Y510175D01*
X508264Y513985D01*
X508253Y514050D01*
X508251Y514116D01*
X508233Y514159D01*
X508225Y514206D01*
X508191Y514263D01*
X508166Y514323D01*
X508135Y514358D01*
X508110Y514399D01*
X508059Y514441D01*
X508015Y514489D01*
X507973Y514511D01*
X507936Y514540D01*
X507874Y514561D01*
X507815Y514592D01*
X507761Y514600D01*
X507724Y514612D01*
X507684Y514611D01*
X507630Y514619D01*
X505090Y514619D01*
X505025Y514608D01*
X504959Y514606D01*
X504916Y514588D01*
X504869Y514580D01*
X504812Y514546D01*
X504752Y514521D01*
X504717Y514490D01*
X504676Y514465D01*
X504635Y514414D01*
X504586Y514370D01*
X504564Y514328D01*
X504535Y514291D01*
X504514Y514229D01*
X504483Y514170D01*
X504475Y514116D01*
X504463Y514079D01*
X504463Y514075D01*
X504463Y514074D01*
X504464Y514039D01*
X504456Y513985D01*
X504456Y510175D01*
X504467Y510110D01*
X504469Y510044D01*
X504487Y510001D01*
X504495Y509954D01*
X504529Y509897D01*
X504554Y509837D01*
X504585Y509802D01*
X504610Y509761D01*
X504661Y509720D01*
X504705Y509671D01*
X504747Y509649D01*
X504784Y509620D01*
X504846Y509599D01*
X504905Y509568D01*
X504959Y509560D01*
X504996Y509548D01*
X505036Y509549D01*
X505090Y509541D01*
X507630Y509541D01*
X507695Y509552D01*
G37*
G36*
X40335Y509552D02*
X40335Y509552D01*
X40401Y509554D01*
X40444Y509572D01*
X40491Y509580D01*
X40548Y509614D01*
X40608Y509639D01*
X40643Y509670D01*
X40684Y509695D01*
X40726Y509746D01*
X40774Y509790D01*
X40796Y509832D01*
X40825Y509869D01*
X40846Y509931D01*
X40877Y509990D01*
X40885Y510044D01*
X40897Y510081D01*
X40896Y510121D01*
X40904Y510175D01*
X40904Y513985D01*
X40893Y514050D01*
X40891Y514116D01*
X40873Y514159D01*
X40865Y514206D01*
X40831Y514263D01*
X40806Y514323D01*
X40775Y514358D01*
X40750Y514399D01*
X40699Y514441D01*
X40655Y514489D01*
X40613Y514511D01*
X40576Y514540D01*
X40514Y514561D01*
X40455Y514592D01*
X40401Y514600D01*
X40364Y514612D01*
X40324Y514611D01*
X40270Y514619D01*
X37730Y514619D01*
X37665Y514608D01*
X37599Y514606D01*
X37556Y514588D01*
X37509Y514580D01*
X37452Y514546D01*
X37392Y514521D01*
X37357Y514490D01*
X37316Y514465D01*
X37275Y514414D01*
X37226Y514370D01*
X37204Y514328D01*
X37175Y514291D01*
X37154Y514229D01*
X37123Y514170D01*
X37115Y514116D01*
X37103Y514079D01*
X37103Y514075D01*
X37103Y514074D01*
X37104Y514039D01*
X37096Y513985D01*
X37096Y510175D01*
X37107Y510110D01*
X37109Y510044D01*
X37127Y510001D01*
X37135Y509954D01*
X37169Y509897D01*
X37194Y509837D01*
X37225Y509802D01*
X37250Y509761D01*
X37301Y509720D01*
X37345Y509671D01*
X37387Y509649D01*
X37424Y509620D01*
X37486Y509599D01*
X37545Y509568D01*
X37599Y509560D01*
X37636Y509548D01*
X37676Y509549D01*
X37730Y509541D01*
X40270Y509541D01*
X40335Y509552D01*
G37*
G36*
X507695Y499392D02*
X507695Y499392D01*
X507761Y499394D01*
X507804Y499412D01*
X507851Y499420D01*
X507908Y499454D01*
X507968Y499479D01*
X508003Y499510D01*
X508044Y499535D01*
X508086Y499586D01*
X508134Y499630D01*
X508156Y499672D01*
X508185Y499709D01*
X508206Y499771D01*
X508237Y499830D01*
X508245Y499884D01*
X508257Y499921D01*
X508256Y499961D01*
X508264Y500015D01*
X508264Y503825D01*
X508253Y503890D01*
X508251Y503956D01*
X508233Y503999D01*
X508225Y504046D01*
X508191Y504103D01*
X508166Y504163D01*
X508135Y504198D01*
X508110Y504239D01*
X508059Y504281D01*
X508015Y504329D01*
X507973Y504351D01*
X507936Y504380D01*
X507874Y504401D01*
X507815Y504432D01*
X507761Y504440D01*
X507724Y504452D01*
X507684Y504451D01*
X507630Y504459D01*
X505090Y504459D01*
X505025Y504448D01*
X504959Y504446D01*
X504916Y504428D01*
X504869Y504420D01*
X504812Y504386D01*
X504752Y504361D01*
X504717Y504330D01*
X504676Y504305D01*
X504635Y504254D01*
X504586Y504210D01*
X504564Y504168D01*
X504535Y504131D01*
X504514Y504069D01*
X504483Y504010D01*
X504475Y503956D01*
X504463Y503919D01*
X504463Y503915D01*
X504463Y503914D01*
X504464Y503879D01*
X504456Y503825D01*
X504456Y500015D01*
X504467Y499950D01*
X504469Y499884D01*
X504487Y499841D01*
X504495Y499794D01*
X504529Y499737D01*
X504554Y499677D01*
X504585Y499642D01*
X504610Y499601D01*
X504661Y499560D01*
X504705Y499511D01*
X504747Y499489D01*
X504784Y499460D01*
X504846Y499439D01*
X504905Y499408D01*
X504959Y499400D01*
X504996Y499388D01*
X505036Y499389D01*
X505090Y499381D01*
X507630Y499381D01*
X507695Y499392D01*
G37*
G36*
X40335Y499392D02*
X40335Y499392D01*
X40401Y499394D01*
X40444Y499412D01*
X40491Y499420D01*
X40548Y499454D01*
X40608Y499479D01*
X40643Y499510D01*
X40684Y499535D01*
X40726Y499586D01*
X40774Y499630D01*
X40796Y499672D01*
X40825Y499709D01*
X40846Y499771D01*
X40877Y499830D01*
X40885Y499884D01*
X40897Y499921D01*
X40896Y499961D01*
X40904Y500015D01*
X40904Y503825D01*
X40893Y503890D01*
X40891Y503956D01*
X40873Y503999D01*
X40865Y504046D01*
X40831Y504103D01*
X40806Y504163D01*
X40775Y504198D01*
X40750Y504239D01*
X40699Y504281D01*
X40655Y504329D01*
X40613Y504351D01*
X40576Y504380D01*
X40514Y504401D01*
X40455Y504432D01*
X40401Y504440D01*
X40364Y504452D01*
X40324Y504451D01*
X40270Y504459D01*
X37730Y504459D01*
X37665Y504448D01*
X37599Y504446D01*
X37556Y504428D01*
X37509Y504420D01*
X37452Y504386D01*
X37392Y504361D01*
X37357Y504330D01*
X37316Y504305D01*
X37275Y504254D01*
X37226Y504210D01*
X37204Y504168D01*
X37175Y504131D01*
X37154Y504069D01*
X37123Y504010D01*
X37115Y503956D01*
X37103Y503919D01*
X37103Y503915D01*
X37103Y503914D01*
X37104Y503879D01*
X37096Y503825D01*
X37096Y500015D01*
X37107Y499950D01*
X37109Y499884D01*
X37127Y499841D01*
X37135Y499794D01*
X37169Y499737D01*
X37194Y499677D01*
X37225Y499642D01*
X37250Y499601D01*
X37301Y499560D01*
X37345Y499511D01*
X37387Y499489D01*
X37424Y499460D01*
X37486Y499439D01*
X37545Y499408D01*
X37599Y499400D01*
X37636Y499388D01*
X37676Y499389D01*
X37730Y499381D01*
X40270Y499381D01*
X40335Y499392D01*
G37*
G36*
X274015Y499392D02*
X274015Y499392D01*
X274081Y499394D01*
X274124Y499412D01*
X274171Y499420D01*
X274228Y499454D01*
X274288Y499479D01*
X274323Y499510D01*
X274364Y499535D01*
X274406Y499586D01*
X274454Y499630D01*
X274476Y499672D01*
X274505Y499709D01*
X274526Y499771D01*
X274557Y499830D01*
X274565Y499884D01*
X274577Y499921D01*
X274576Y499961D01*
X274584Y500015D01*
X274584Y503825D01*
X274573Y503890D01*
X274571Y503956D01*
X274553Y503999D01*
X274545Y504046D01*
X274511Y504103D01*
X274486Y504163D01*
X274455Y504198D01*
X274430Y504239D01*
X274379Y504281D01*
X274335Y504329D01*
X274293Y504351D01*
X274256Y504380D01*
X274194Y504401D01*
X274135Y504432D01*
X274081Y504440D01*
X274044Y504452D01*
X274004Y504451D01*
X273950Y504459D01*
X271410Y504459D01*
X271345Y504448D01*
X271279Y504446D01*
X271236Y504428D01*
X271189Y504420D01*
X271132Y504386D01*
X271072Y504361D01*
X271037Y504330D01*
X270996Y504305D01*
X270955Y504254D01*
X270906Y504210D01*
X270884Y504168D01*
X270855Y504131D01*
X270834Y504069D01*
X270803Y504010D01*
X270795Y503956D01*
X270783Y503919D01*
X270783Y503915D01*
X270783Y503914D01*
X270784Y503879D01*
X270776Y503825D01*
X270776Y500015D01*
X270787Y499950D01*
X270789Y499884D01*
X270807Y499841D01*
X270815Y499794D01*
X270849Y499737D01*
X270874Y499677D01*
X270905Y499642D01*
X270930Y499601D01*
X270981Y499560D01*
X271025Y499511D01*
X271067Y499489D01*
X271104Y499460D01*
X271166Y499439D01*
X271225Y499408D01*
X271279Y499400D01*
X271316Y499388D01*
X271356Y499389D01*
X271410Y499381D01*
X273950Y499381D01*
X274015Y499392D01*
G37*
G36*
X353015Y223472D02*
X353015Y223472D01*
X353081Y223474D01*
X353124Y223492D01*
X353171Y223500D01*
X353228Y223534D01*
X353288Y223559D01*
X353323Y223590D01*
X353364Y223615D01*
X353406Y223666D01*
X353454Y223710D01*
X353476Y223752D01*
X353505Y223789D01*
X353526Y223851D01*
X353557Y223910D01*
X353565Y223964D01*
X353577Y224001D01*
X353576Y224041D01*
X353584Y224095D01*
X353584Y227905D01*
X353573Y227970D01*
X353571Y228036D01*
X353553Y228079D01*
X353545Y228126D01*
X353511Y228183D01*
X353486Y228243D01*
X353455Y228278D01*
X353430Y228319D01*
X353379Y228361D01*
X353335Y228409D01*
X353293Y228431D01*
X353256Y228460D01*
X353194Y228481D01*
X353135Y228512D01*
X353081Y228520D01*
X353044Y228532D01*
X353004Y228531D01*
X352950Y228539D01*
X350410Y228539D01*
X350345Y228528D01*
X350279Y228526D01*
X350236Y228508D01*
X350189Y228500D01*
X350132Y228466D01*
X350072Y228441D01*
X350037Y228410D01*
X349996Y228385D01*
X349955Y228334D01*
X349906Y228290D01*
X349884Y228248D01*
X349855Y228211D01*
X349834Y228149D01*
X349803Y228090D01*
X349795Y228036D01*
X349783Y227999D01*
X349783Y227995D01*
X349783Y227994D01*
X349784Y227959D01*
X349776Y227905D01*
X349776Y224095D01*
X349787Y224030D01*
X349789Y223964D01*
X349807Y223921D01*
X349815Y223874D01*
X349849Y223817D01*
X349874Y223757D01*
X349905Y223722D01*
X349930Y223681D01*
X349981Y223640D01*
X350025Y223591D01*
X350067Y223569D01*
X350104Y223540D01*
X350166Y223519D01*
X350225Y223488D01*
X350279Y223480D01*
X350316Y223468D01*
X350356Y223469D01*
X350410Y223461D01*
X352950Y223461D01*
X353015Y223472D01*
G37*
G36*
X119335Y223472D02*
X119335Y223472D01*
X119401Y223474D01*
X119444Y223492D01*
X119491Y223500D01*
X119548Y223534D01*
X119608Y223559D01*
X119643Y223590D01*
X119684Y223615D01*
X119726Y223666D01*
X119774Y223710D01*
X119796Y223752D01*
X119825Y223789D01*
X119846Y223851D01*
X119877Y223910D01*
X119885Y223964D01*
X119897Y224001D01*
X119896Y224041D01*
X119904Y224095D01*
X119904Y227905D01*
X119893Y227970D01*
X119891Y228036D01*
X119873Y228079D01*
X119865Y228126D01*
X119831Y228183D01*
X119806Y228243D01*
X119775Y228278D01*
X119750Y228319D01*
X119699Y228361D01*
X119655Y228409D01*
X119613Y228431D01*
X119576Y228460D01*
X119514Y228481D01*
X119455Y228512D01*
X119401Y228520D01*
X119364Y228532D01*
X119324Y228531D01*
X119270Y228539D01*
X116730Y228539D01*
X116665Y228528D01*
X116599Y228526D01*
X116556Y228508D01*
X116509Y228500D01*
X116452Y228466D01*
X116392Y228441D01*
X116357Y228410D01*
X116316Y228385D01*
X116275Y228334D01*
X116226Y228290D01*
X116204Y228248D01*
X116175Y228211D01*
X116154Y228149D01*
X116123Y228090D01*
X116115Y228036D01*
X116103Y227999D01*
X116103Y227995D01*
X116103Y227994D01*
X116104Y227959D01*
X116096Y227905D01*
X116096Y224095D01*
X116107Y224030D01*
X116109Y223964D01*
X116127Y223921D01*
X116135Y223874D01*
X116169Y223817D01*
X116194Y223757D01*
X116225Y223722D01*
X116250Y223681D01*
X116301Y223640D01*
X116345Y223591D01*
X116387Y223569D01*
X116424Y223540D01*
X116486Y223519D01*
X116545Y223488D01*
X116599Y223480D01*
X116636Y223468D01*
X116676Y223469D01*
X116730Y223461D01*
X119270Y223461D01*
X119335Y223472D01*
G37*
G36*
X586695Y223472D02*
X586695Y223472D01*
X586761Y223474D01*
X586804Y223492D01*
X586851Y223500D01*
X586908Y223534D01*
X586968Y223559D01*
X587003Y223590D01*
X587044Y223615D01*
X587086Y223666D01*
X587134Y223710D01*
X587156Y223752D01*
X587185Y223789D01*
X587206Y223851D01*
X587237Y223910D01*
X587245Y223964D01*
X587257Y224001D01*
X587256Y224041D01*
X587264Y224095D01*
X587264Y227905D01*
X587253Y227970D01*
X587251Y228036D01*
X587233Y228079D01*
X587225Y228126D01*
X587191Y228183D01*
X587166Y228243D01*
X587135Y228278D01*
X587110Y228319D01*
X587059Y228361D01*
X587015Y228409D01*
X586973Y228431D01*
X586936Y228460D01*
X586874Y228481D01*
X586815Y228512D01*
X586761Y228520D01*
X586724Y228532D01*
X586684Y228531D01*
X586630Y228539D01*
X584090Y228539D01*
X584025Y228528D01*
X583959Y228526D01*
X583916Y228508D01*
X583869Y228500D01*
X583812Y228466D01*
X583752Y228441D01*
X583717Y228410D01*
X583676Y228385D01*
X583635Y228334D01*
X583586Y228290D01*
X583564Y228248D01*
X583535Y228211D01*
X583514Y228149D01*
X583483Y228090D01*
X583475Y228036D01*
X583463Y227999D01*
X583463Y227995D01*
X583463Y227994D01*
X583464Y227959D01*
X583456Y227905D01*
X583456Y224095D01*
X583467Y224030D01*
X583469Y223964D01*
X583487Y223921D01*
X583495Y223874D01*
X583529Y223817D01*
X583554Y223757D01*
X583585Y223722D01*
X583610Y223681D01*
X583661Y223640D01*
X583705Y223591D01*
X583747Y223569D01*
X583784Y223540D01*
X583846Y223519D01*
X583905Y223488D01*
X583959Y223480D01*
X583996Y223468D01*
X584036Y223469D01*
X584090Y223461D01*
X586630Y223461D01*
X586695Y223472D01*
G37*
G36*
X117970Y423107D02*
X117970Y423107D01*
X118036Y423109D01*
X118079Y423127D01*
X118126Y423135D01*
X118183Y423169D01*
X118243Y423194D01*
X118278Y423225D01*
X118319Y423250D01*
X118361Y423301D01*
X118409Y423345D01*
X118431Y423387D01*
X118460Y423424D01*
X118481Y423486D01*
X118512Y423545D01*
X118520Y423599D01*
X118532Y423636D01*
X118531Y423676D01*
X118539Y423730D01*
X118539Y426270D01*
X118528Y426335D01*
X118526Y426401D01*
X118508Y426444D01*
X118500Y426491D01*
X118466Y426548D01*
X118441Y426608D01*
X118410Y426643D01*
X118385Y426684D01*
X118334Y426726D01*
X118290Y426774D01*
X118248Y426796D01*
X118211Y426825D01*
X118149Y426846D01*
X118090Y426877D01*
X118036Y426885D01*
X117999Y426897D01*
X117959Y426896D01*
X117905Y426904D01*
X114095Y426904D01*
X114030Y426893D01*
X113964Y426891D01*
X113921Y426873D01*
X113874Y426865D01*
X113817Y426831D01*
X113757Y426806D01*
X113722Y426775D01*
X113681Y426750D01*
X113640Y426699D01*
X113591Y426655D01*
X113569Y426613D01*
X113540Y426576D01*
X113519Y426514D01*
X113488Y426455D01*
X113480Y426401D01*
X113468Y426364D01*
X113468Y426361D01*
X113469Y426324D01*
X113461Y426270D01*
X113461Y423730D01*
X113472Y423665D01*
X113474Y423599D01*
X113492Y423556D01*
X113500Y423509D01*
X113534Y423452D01*
X113559Y423392D01*
X113590Y423357D01*
X113615Y423316D01*
X113666Y423275D01*
X113710Y423226D01*
X113752Y423204D01*
X113789Y423175D01*
X113851Y423154D01*
X113910Y423123D01*
X113964Y423115D01*
X114001Y423103D01*
X114041Y423104D01*
X114095Y423096D01*
X117905Y423096D01*
X117970Y423107D01*
G37*
G36*
X351650Y423107D02*
X351650Y423107D01*
X351716Y423109D01*
X351759Y423127D01*
X351806Y423135D01*
X351863Y423169D01*
X351923Y423194D01*
X351958Y423225D01*
X351999Y423250D01*
X352041Y423301D01*
X352089Y423345D01*
X352111Y423387D01*
X352140Y423424D01*
X352161Y423486D01*
X352192Y423545D01*
X352200Y423599D01*
X352212Y423636D01*
X352211Y423676D01*
X352219Y423730D01*
X352219Y426270D01*
X352208Y426335D01*
X352206Y426401D01*
X352188Y426444D01*
X352180Y426491D01*
X352146Y426548D01*
X352121Y426608D01*
X352090Y426643D01*
X352065Y426684D01*
X352014Y426726D01*
X351970Y426774D01*
X351928Y426796D01*
X351891Y426825D01*
X351829Y426846D01*
X351770Y426877D01*
X351716Y426885D01*
X351679Y426897D01*
X351639Y426896D01*
X351585Y426904D01*
X347775Y426904D01*
X347710Y426893D01*
X347644Y426891D01*
X347601Y426873D01*
X347554Y426865D01*
X347497Y426831D01*
X347437Y426806D01*
X347402Y426775D01*
X347361Y426750D01*
X347320Y426699D01*
X347271Y426655D01*
X347249Y426613D01*
X347220Y426576D01*
X347199Y426514D01*
X347168Y426455D01*
X347160Y426401D01*
X347148Y426364D01*
X347148Y426361D01*
X347149Y426324D01*
X347141Y426270D01*
X347141Y423730D01*
X347152Y423665D01*
X347154Y423599D01*
X347172Y423556D01*
X347180Y423509D01*
X347214Y423452D01*
X347239Y423392D01*
X347270Y423357D01*
X347295Y423316D01*
X347346Y423275D01*
X347390Y423226D01*
X347432Y423204D01*
X347469Y423175D01*
X347531Y423154D01*
X347590Y423123D01*
X347644Y423115D01*
X347681Y423103D01*
X347721Y423104D01*
X347775Y423096D01*
X351585Y423096D01*
X351650Y423107D01*
G37*
G36*
X585330Y423107D02*
X585330Y423107D01*
X585396Y423109D01*
X585439Y423127D01*
X585486Y423135D01*
X585543Y423169D01*
X585603Y423194D01*
X585638Y423225D01*
X585679Y423250D01*
X585721Y423301D01*
X585769Y423345D01*
X585791Y423387D01*
X585820Y423424D01*
X585841Y423486D01*
X585872Y423545D01*
X585880Y423599D01*
X585892Y423636D01*
X585891Y423676D01*
X585899Y423730D01*
X585899Y426270D01*
X585888Y426335D01*
X585886Y426401D01*
X585868Y426444D01*
X585860Y426491D01*
X585826Y426548D01*
X585801Y426608D01*
X585770Y426643D01*
X585745Y426684D01*
X585694Y426726D01*
X585650Y426774D01*
X585608Y426796D01*
X585571Y426825D01*
X585509Y426846D01*
X585450Y426877D01*
X585396Y426885D01*
X585359Y426897D01*
X585319Y426896D01*
X585265Y426904D01*
X581455Y426904D01*
X581390Y426893D01*
X581324Y426891D01*
X581281Y426873D01*
X581234Y426865D01*
X581177Y426831D01*
X581117Y426806D01*
X581082Y426775D01*
X581041Y426750D01*
X581000Y426699D01*
X580951Y426655D01*
X580929Y426613D01*
X580900Y426576D01*
X580879Y426514D01*
X580848Y426455D01*
X580840Y426401D01*
X580828Y426364D01*
X580828Y426361D01*
X580829Y426324D01*
X580821Y426270D01*
X580821Y423730D01*
X580832Y423665D01*
X580834Y423599D01*
X580852Y423556D01*
X580860Y423509D01*
X580894Y423452D01*
X580919Y423392D01*
X580950Y423357D01*
X580975Y423316D01*
X581026Y423275D01*
X581070Y423226D01*
X581112Y423204D01*
X581149Y423175D01*
X581211Y423154D01*
X581270Y423123D01*
X581324Y423115D01*
X581361Y423103D01*
X581401Y423104D01*
X581455Y423096D01*
X585265Y423096D01*
X585330Y423107D01*
G37*
G36*
X164970Y28107D02*
X164970Y28107D01*
X165036Y28109D01*
X165079Y28127D01*
X165126Y28135D01*
X165183Y28169D01*
X165243Y28194D01*
X165278Y28225D01*
X165319Y28250D01*
X165361Y28301D01*
X165409Y28345D01*
X165431Y28387D01*
X165460Y28424D01*
X165481Y28486D01*
X165512Y28545D01*
X165520Y28599D01*
X165532Y28636D01*
X165531Y28676D01*
X165539Y28730D01*
X165539Y31270D01*
X165528Y31335D01*
X165526Y31401D01*
X165508Y31444D01*
X165500Y31491D01*
X165466Y31548D01*
X165441Y31608D01*
X165410Y31643D01*
X165385Y31684D01*
X165334Y31726D01*
X165290Y31774D01*
X165248Y31796D01*
X165211Y31825D01*
X165149Y31846D01*
X165090Y31877D01*
X165036Y31885D01*
X164999Y31897D01*
X164959Y31896D01*
X164905Y31904D01*
X161095Y31904D01*
X161030Y31893D01*
X160964Y31891D01*
X160921Y31873D01*
X160874Y31865D01*
X160817Y31831D01*
X160757Y31806D01*
X160722Y31775D01*
X160681Y31750D01*
X160640Y31699D01*
X160591Y31655D01*
X160569Y31613D01*
X160540Y31576D01*
X160519Y31514D01*
X160488Y31455D01*
X160480Y31401D01*
X160468Y31364D01*
X160468Y31361D01*
X160469Y31324D01*
X160461Y31270D01*
X160461Y28730D01*
X160472Y28665D01*
X160474Y28599D01*
X160492Y28556D01*
X160500Y28509D01*
X160534Y28452D01*
X160559Y28392D01*
X160590Y28357D01*
X160615Y28316D01*
X160666Y28275D01*
X160710Y28226D01*
X160752Y28204D01*
X160789Y28175D01*
X160851Y28154D01*
X160910Y28123D01*
X160964Y28115D01*
X161001Y28103D01*
X161041Y28104D01*
X161095Y28096D01*
X164905Y28096D01*
X164970Y28107D01*
G37*
G36*
X398650Y28107D02*
X398650Y28107D01*
X398716Y28109D01*
X398759Y28127D01*
X398806Y28135D01*
X398863Y28169D01*
X398923Y28194D01*
X398958Y28225D01*
X398999Y28250D01*
X399041Y28301D01*
X399089Y28345D01*
X399111Y28387D01*
X399140Y28424D01*
X399161Y28486D01*
X399192Y28545D01*
X399200Y28599D01*
X399212Y28636D01*
X399211Y28676D01*
X399219Y28730D01*
X399219Y31270D01*
X399208Y31335D01*
X399206Y31401D01*
X399188Y31444D01*
X399180Y31491D01*
X399146Y31548D01*
X399121Y31608D01*
X399090Y31643D01*
X399065Y31684D01*
X399014Y31726D01*
X398970Y31774D01*
X398928Y31796D01*
X398891Y31825D01*
X398829Y31846D01*
X398770Y31877D01*
X398716Y31885D01*
X398679Y31897D01*
X398639Y31896D01*
X398585Y31904D01*
X394775Y31904D01*
X394710Y31893D01*
X394644Y31891D01*
X394601Y31873D01*
X394554Y31865D01*
X394497Y31831D01*
X394437Y31806D01*
X394402Y31775D01*
X394361Y31750D01*
X394320Y31699D01*
X394271Y31655D01*
X394249Y31613D01*
X394220Y31576D01*
X394199Y31514D01*
X394168Y31455D01*
X394160Y31401D01*
X394148Y31364D01*
X394148Y31361D01*
X394149Y31324D01*
X394141Y31270D01*
X394141Y28730D01*
X394152Y28665D01*
X394154Y28599D01*
X394172Y28556D01*
X394180Y28509D01*
X394214Y28452D01*
X394239Y28392D01*
X394270Y28357D01*
X394295Y28316D01*
X394346Y28275D01*
X394390Y28226D01*
X394432Y28204D01*
X394469Y28175D01*
X394531Y28154D01*
X394590Y28123D01*
X394644Y28115D01*
X394681Y28103D01*
X394721Y28104D01*
X394775Y28096D01*
X398585Y28096D01*
X398650Y28107D01*
G37*
G36*
X632330Y28107D02*
X632330Y28107D01*
X632396Y28109D01*
X632439Y28127D01*
X632486Y28135D01*
X632543Y28169D01*
X632603Y28194D01*
X632638Y28225D01*
X632679Y28250D01*
X632721Y28301D01*
X632769Y28345D01*
X632791Y28387D01*
X632820Y28424D01*
X632841Y28486D01*
X632872Y28545D01*
X632880Y28599D01*
X632892Y28636D01*
X632891Y28676D01*
X632899Y28730D01*
X632899Y31270D01*
X632888Y31335D01*
X632886Y31401D01*
X632868Y31444D01*
X632860Y31491D01*
X632826Y31548D01*
X632801Y31608D01*
X632770Y31643D01*
X632745Y31684D01*
X632694Y31726D01*
X632650Y31774D01*
X632608Y31796D01*
X632571Y31825D01*
X632509Y31846D01*
X632450Y31877D01*
X632396Y31885D01*
X632359Y31897D01*
X632319Y31896D01*
X632265Y31904D01*
X628455Y31904D01*
X628390Y31893D01*
X628324Y31891D01*
X628281Y31873D01*
X628234Y31865D01*
X628177Y31831D01*
X628117Y31806D01*
X628082Y31775D01*
X628041Y31750D01*
X628000Y31699D01*
X627951Y31655D01*
X627929Y31613D01*
X627900Y31576D01*
X627879Y31514D01*
X627848Y31455D01*
X627840Y31401D01*
X627828Y31364D01*
X627828Y31361D01*
X627829Y31324D01*
X627821Y31270D01*
X627821Y28730D01*
X627832Y28665D01*
X627834Y28599D01*
X627852Y28556D01*
X627860Y28509D01*
X627894Y28452D01*
X627919Y28392D01*
X627950Y28357D01*
X627975Y28316D01*
X628026Y28275D01*
X628070Y28226D01*
X628112Y28204D01*
X628149Y28175D01*
X628211Y28154D01*
X628270Y28123D01*
X628324Y28115D01*
X628361Y28103D01*
X628401Y28104D01*
X628455Y28096D01*
X632265Y28096D01*
X632330Y28107D01*
G37*
D10*
X215900Y520700D03*
X215900Y495300D03*
X215900Y469900D03*
X215900Y444500D03*
X215900Y419100D03*
X215900Y393700D03*
X215900Y368300D03*
X215900Y342900D03*
X215900Y317500D03*
X215900Y292100D03*
X215900Y266700D03*
X215900Y241300D03*
X215900Y215900D03*
X215900Y190500D03*
X215900Y165100D03*
X215900Y139700D03*
X12700Y241300D03*
X12700Y266700D03*
X12700Y292100D03*
X12700Y317500D03*
X12700Y342900D03*
X12700Y368300D03*
X12700Y393700D03*
X12700Y419100D03*
X12700Y444500D03*
X12700Y469900D03*
X12700Y495300D03*
X12700Y520700D03*
D11*
X25400Y25400D03*
X203200Y25400D03*
X203200Y558800D03*
X25400Y558800D03*
D12*
X6000Y534000D03*
X221000Y53000D03*
D13*
X85400Y47526D03*
X143200Y47526D03*
D14*
X165411Y35844D02*
X171003Y35844D01*
X171003Y24156D01*
X165411Y24156D01*
X165411Y35844D01*
X165411Y26325D02*
X171003Y26325D01*
X171003Y28494D02*
X165411Y28494D01*
X165411Y30663D02*
X171003Y30663D01*
X171003Y32832D02*
X165411Y32832D01*
X165411Y35001D02*
X171003Y35001D01*
X160589Y35844D02*
X154997Y35844D01*
X160589Y35844D02*
X160589Y24156D01*
X154997Y24156D01*
X154997Y35844D01*
X154997Y26325D02*
X160589Y26325D01*
X160589Y28494D02*
X154997Y28494D01*
X154997Y30663D02*
X160589Y30663D01*
X160589Y32832D02*
X154997Y32832D01*
X154997Y35001D02*
X160589Y35001D01*
X123844Y217997D02*
X123844Y223589D01*
X123844Y217997D02*
X112156Y217997D01*
X112156Y223589D01*
X123844Y223589D01*
X123844Y220166D02*
X112156Y220166D01*
X112156Y222335D02*
X123844Y222335D01*
X123844Y228411D02*
X123844Y234003D01*
X123844Y228411D02*
X112156Y228411D01*
X112156Y234003D01*
X123844Y234003D01*
X123844Y230580D02*
X112156Y230580D01*
X112156Y232749D02*
X123844Y232749D01*
D15*
X50800Y63500D03*
D16*
X87919Y64993D02*
X87919Y74007D01*
X87919Y64993D02*
X83905Y64993D01*
X83905Y74007D01*
X87919Y74007D01*
X87919Y67137D02*
X83905Y67137D01*
X83905Y69281D02*
X87919Y69281D01*
X87919Y71425D02*
X83905Y71425D01*
X83905Y73569D02*
X87919Y73569D01*
X98919Y74007D02*
X98919Y64993D01*
X94905Y64993D01*
X94905Y74007D01*
X98919Y74007D01*
X98919Y67137D02*
X94905Y67137D01*
X94905Y69281D02*
X98919Y69281D01*
X98919Y71425D02*
X94905Y71425D01*
X94905Y73569D02*
X98919Y73569D01*
X109919Y74007D02*
X109919Y64993D01*
X105905Y64993D01*
X105905Y74007D01*
X109919Y74007D01*
X109919Y67137D02*
X105905Y67137D01*
X105905Y69281D02*
X109919Y69281D01*
X109919Y71425D02*
X105905Y71425D01*
X105905Y73569D02*
X109919Y73569D01*
X120919Y74007D02*
X120919Y64993D01*
X116905Y64993D01*
X116905Y74007D01*
X120919Y74007D01*
X120919Y67137D02*
X116905Y67137D01*
X116905Y69281D02*
X120919Y69281D01*
X120919Y71425D02*
X116905Y71425D01*
X116905Y73569D02*
X120919Y73569D01*
X131919Y74007D02*
X131919Y64993D01*
X127905Y64993D01*
X127905Y74007D01*
X131919Y74007D01*
X131919Y67137D02*
X127905Y67137D01*
X127905Y69281D02*
X131919Y69281D01*
X131919Y71425D02*
X127905Y71425D01*
X127905Y73569D02*
X131919Y73569D01*
X142919Y74007D02*
X142919Y64993D01*
X138905Y64993D01*
X138905Y74007D01*
X142919Y74007D01*
X142919Y67137D02*
X138905Y67137D01*
X138905Y69281D02*
X142919Y69281D01*
X142919Y71425D02*
X138905Y71425D01*
X138905Y73569D02*
X142919Y73569D01*
X153919Y74007D02*
X153919Y64993D01*
X149905Y64993D01*
X149905Y74007D01*
X153919Y74007D01*
X153919Y67137D02*
X149905Y67137D01*
X149905Y69281D02*
X153919Y69281D01*
X153919Y71425D02*
X149905Y71425D01*
X149905Y73569D02*
X153919Y73569D01*
X164919Y74007D02*
X164919Y64993D01*
X160905Y64993D01*
X160905Y74007D01*
X164919Y74007D01*
X164919Y67137D02*
X160905Y67137D01*
X160905Y69281D02*
X164919Y69281D01*
X164919Y71425D02*
X160905Y71425D01*
X160905Y73569D02*
X164919Y73569D01*
D17*
X71004Y92908D02*
X64820Y92908D01*
X64820Y99692D01*
X71004Y99692D01*
X71004Y92908D01*
X71004Y95081D02*
X64820Y95081D01*
X64820Y97254D02*
X71004Y97254D01*
X71004Y99427D02*
X64820Y99427D01*
D18*
X72620Y104142D02*
X72620Y113858D01*
X72620Y104142D02*
X63204Y104142D01*
X63204Y113858D01*
X72620Y113858D01*
X72620Y106378D02*
X63204Y106378D01*
X63204Y108614D02*
X72620Y108614D01*
X72620Y110850D02*
X63204Y110850D01*
X63204Y113086D02*
X72620Y113086D01*
X72620Y129642D02*
X72620Y140558D01*
X72620Y129642D02*
X63204Y129642D01*
X63204Y140558D01*
X72620Y140558D01*
X72620Y131878D02*
X63204Y131878D01*
X63204Y134114D02*
X72620Y134114D01*
X72620Y136350D02*
X63204Y136350D01*
X63204Y138586D02*
X72620Y138586D01*
X179370Y134858D02*
X179370Y123942D01*
X169954Y123942D01*
X169954Y134858D01*
X179370Y134858D01*
X179370Y126178D02*
X169954Y126178D01*
X169954Y128414D02*
X179370Y128414D01*
X179370Y130650D02*
X169954Y130650D01*
X169954Y132886D02*
X179370Y132886D01*
X179370Y108958D02*
X179370Y86142D01*
X169954Y86142D01*
X169954Y108958D01*
X179370Y108958D01*
X179370Y88378D02*
X169954Y88378D01*
X169954Y90614D02*
X179370Y90614D01*
X179370Y92850D02*
X169954Y92850D01*
X169954Y95086D02*
X179370Y95086D01*
X179370Y97322D02*
X169954Y97322D01*
X169954Y99558D02*
X179370Y99558D01*
X179370Y101794D02*
X169954Y101794D01*
X169954Y104030D02*
X179370Y104030D01*
X179370Y106266D02*
X169954Y106266D01*
X169954Y108502D02*
X179370Y108502D01*
D19*
X156930Y144118D02*
X128794Y144118D01*
X156930Y144118D02*
X156930Y139582D01*
X128794Y139582D01*
X128794Y144118D01*
X128794Y141704D02*
X156930Y141704D01*
X156930Y143826D02*
X128794Y143826D01*
X115030Y144118D02*
X86894Y144118D01*
X115030Y144118D02*
X115030Y139582D01*
X86894Y139582D01*
X86894Y144118D01*
X86894Y141704D02*
X115030Y141704D01*
X115030Y143826D02*
X86894Y143826D01*
D15*
X114300Y444500D03*
X109900Y614300D03*
X109900Y588900D03*
X135300Y614300D03*
X160700Y614300D03*
X160700Y588900D03*
D14*
X33156Y520210D02*
X33156Y514618D01*
X33156Y520210D02*
X44844Y520210D01*
X44844Y514618D01*
X33156Y514618D01*
X33156Y516787D02*
X44844Y516787D01*
X44844Y518956D02*
X33156Y518956D01*
X33156Y509796D02*
X33156Y504204D01*
X33156Y509796D02*
X44844Y509796D01*
X44844Y504204D01*
X33156Y504204D01*
X33156Y506373D02*
X44844Y506373D01*
X44844Y508542D02*
X33156Y508542D01*
X33156Y499382D02*
X33156Y493790D01*
X33156Y499382D02*
X44844Y499382D01*
X44844Y493790D01*
X33156Y493790D01*
X33156Y495959D02*
X44844Y495959D01*
X44844Y498128D02*
X33156Y498128D01*
D15*
X50800Y114300D03*
X114300Y165100D03*
X63500Y368300D03*
X139700Y406400D03*
X76200Y317500D03*
X152400Y228600D03*
X50800Y88900D03*
D10*
X142000Y275300D03*
X142000Y300700D03*
D14*
X124003Y430844D02*
X118411Y430844D01*
X124003Y430844D02*
X124003Y419156D01*
X118411Y419156D01*
X118411Y430844D01*
X118411Y421325D02*
X124003Y421325D01*
X124003Y423494D02*
X118411Y423494D01*
X118411Y425663D02*
X124003Y425663D01*
X124003Y427832D02*
X118411Y427832D01*
X118411Y430001D02*
X124003Y430001D01*
X113589Y430844D02*
X107997Y430844D01*
X113589Y430844D02*
X113589Y419156D01*
X107997Y419156D01*
X107997Y430844D01*
X107997Y421325D02*
X113589Y421325D01*
X113589Y423494D02*
X107997Y423494D01*
X107997Y425663D02*
X113589Y425663D01*
X113589Y427832D02*
X107997Y427832D01*
X107997Y430001D02*
X113589Y430001D01*
D10*
X449580Y520700D03*
X449580Y495300D03*
X449580Y469900D03*
X449580Y444500D03*
X449580Y419100D03*
X449580Y393700D03*
X449580Y368300D03*
X449580Y342900D03*
X449580Y317500D03*
X449580Y292100D03*
X449580Y266700D03*
X449580Y241300D03*
X449580Y215900D03*
X449580Y190500D03*
X449580Y165100D03*
X449580Y139700D03*
X246380Y241300D03*
X246380Y266700D03*
X246380Y292100D03*
X246380Y317500D03*
X246380Y342900D03*
X246380Y368300D03*
X246380Y393700D03*
X246380Y419100D03*
X246380Y444500D03*
X246380Y469900D03*
X246380Y495300D03*
X246380Y520700D03*
D11*
X259080Y25400D03*
X436880Y25400D03*
X436880Y558800D03*
X259080Y558800D03*
D12*
X239680Y534000D03*
X454680Y53000D03*
D13*
X319080Y47526D03*
X376880Y47526D03*
D14*
X399091Y35844D02*
X404683Y35844D01*
X404683Y24156D01*
X399091Y24156D01*
X399091Y35844D01*
X399091Y26325D02*
X404683Y26325D01*
X404683Y28494D02*
X399091Y28494D01*
X399091Y30663D02*
X404683Y30663D01*
X404683Y32832D02*
X399091Y32832D01*
X399091Y35001D02*
X404683Y35001D01*
X394269Y35844D02*
X388677Y35844D01*
X394269Y35844D02*
X394269Y24156D01*
X388677Y24156D01*
X388677Y35844D01*
X388677Y26325D02*
X394269Y26325D01*
X394269Y28494D02*
X388677Y28494D01*
X388677Y30663D02*
X394269Y30663D01*
X394269Y32832D02*
X388677Y32832D01*
X388677Y35001D02*
X394269Y35001D01*
X357524Y217997D02*
X357524Y223589D01*
X357524Y217997D02*
X345836Y217997D01*
X345836Y223589D01*
X357524Y223589D01*
X357524Y220166D02*
X345836Y220166D01*
X345836Y222335D02*
X357524Y222335D01*
X357524Y228411D02*
X357524Y234003D01*
X357524Y228411D02*
X345836Y228411D01*
X345836Y234003D01*
X357524Y234003D01*
X357524Y230580D02*
X345836Y230580D01*
X345836Y232749D02*
X357524Y232749D01*
D15*
X284480Y63500D03*
D16*
X321599Y64993D02*
X321599Y74007D01*
X321599Y64993D02*
X317585Y64993D01*
X317585Y74007D01*
X321599Y74007D01*
X321599Y67137D02*
X317585Y67137D01*
X317585Y69281D02*
X321599Y69281D01*
X321599Y71425D02*
X317585Y71425D01*
X317585Y73569D02*
X321599Y73569D01*
X332599Y74007D02*
X332599Y64993D01*
X328585Y64993D01*
X328585Y74007D01*
X332599Y74007D01*
X332599Y67137D02*
X328585Y67137D01*
X328585Y69281D02*
X332599Y69281D01*
X332599Y71425D02*
X328585Y71425D01*
X328585Y73569D02*
X332599Y73569D01*
X343599Y74007D02*
X343599Y64993D01*
X339585Y64993D01*
X339585Y74007D01*
X343599Y74007D01*
X343599Y67137D02*
X339585Y67137D01*
X339585Y69281D02*
X343599Y69281D01*
X343599Y71425D02*
X339585Y71425D01*
X339585Y73569D02*
X343599Y73569D01*
X354599Y74007D02*
X354599Y64993D01*
X350585Y64993D01*
X350585Y74007D01*
X354599Y74007D01*
X354599Y67137D02*
X350585Y67137D01*
X350585Y69281D02*
X354599Y69281D01*
X354599Y71425D02*
X350585Y71425D01*
X350585Y73569D02*
X354599Y73569D01*
X365599Y74007D02*
X365599Y64993D01*
X361585Y64993D01*
X361585Y74007D01*
X365599Y74007D01*
X365599Y67137D02*
X361585Y67137D01*
X361585Y69281D02*
X365599Y69281D01*
X365599Y71425D02*
X361585Y71425D01*
X361585Y73569D02*
X365599Y73569D01*
X376599Y74007D02*
X376599Y64993D01*
X372585Y64993D01*
X372585Y74007D01*
X376599Y74007D01*
X376599Y67137D02*
X372585Y67137D01*
X372585Y69281D02*
X376599Y69281D01*
X376599Y71425D02*
X372585Y71425D01*
X372585Y73569D02*
X376599Y73569D01*
X387599Y74007D02*
X387599Y64993D01*
X383585Y64993D01*
X383585Y74007D01*
X387599Y74007D01*
X387599Y67137D02*
X383585Y67137D01*
X383585Y69281D02*
X387599Y69281D01*
X387599Y71425D02*
X383585Y71425D01*
X383585Y73569D02*
X387599Y73569D01*
X398599Y74007D02*
X398599Y64993D01*
X394585Y64993D01*
X394585Y74007D01*
X398599Y74007D01*
X398599Y67137D02*
X394585Y67137D01*
X394585Y69281D02*
X398599Y69281D01*
X398599Y71425D02*
X394585Y71425D01*
X394585Y73569D02*
X398599Y73569D01*
D17*
X304684Y92908D02*
X298500Y92908D01*
X298500Y99692D01*
X304684Y99692D01*
X304684Y92908D01*
X304684Y95081D02*
X298500Y95081D01*
X298500Y97254D02*
X304684Y97254D01*
X304684Y99427D02*
X298500Y99427D01*
D18*
X306300Y104142D02*
X306300Y113858D01*
X306300Y104142D02*
X296884Y104142D01*
X296884Y113858D01*
X306300Y113858D01*
X306300Y106378D02*
X296884Y106378D01*
X296884Y108614D02*
X306300Y108614D01*
X306300Y110850D02*
X296884Y110850D01*
X296884Y113086D02*
X306300Y113086D01*
X306300Y129642D02*
X306300Y140558D01*
X306300Y129642D02*
X296884Y129642D01*
X296884Y140558D01*
X306300Y140558D01*
X306300Y131878D02*
X296884Y131878D01*
X296884Y134114D02*
X306300Y134114D01*
X306300Y136350D02*
X296884Y136350D01*
X296884Y138586D02*
X306300Y138586D01*
X413050Y134858D02*
X413050Y123942D01*
X403634Y123942D01*
X403634Y134858D01*
X413050Y134858D01*
X413050Y126178D02*
X403634Y126178D01*
X403634Y128414D02*
X413050Y128414D01*
X413050Y130650D02*
X403634Y130650D01*
X403634Y132886D02*
X413050Y132886D01*
X413050Y108958D02*
X413050Y86142D01*
X403634Y86142D01*
X403634Y108958D01*
X413050Y108958D01*
X413050Y88378D02*
X403634Y88378D01*
X403634Y90614D02*
X413050Y90614D01*
X413050Y92850D02*
X403634Y92850D01*
X403634Y95086D02*
X413050Y95086D01*
X413050Y97322D02*
X403634Y97322D01*
X403634Y99558D02*
X413050Y99558D01*
X413050Y101794D02*
X403634Y101794D01*
X403634Y104030D02*
X413050Y104030D01*
X413050Y106266D02*
X403634Y106266D01*
X403634Y108502D02*
X413050Y108502D01*
D19*
X390610Y144118D02*
X362474Y144118D01*
X390610Y144118D02*
X390610Y139582D01*
X362474Y139582D01*
X362474Y144118D01*
X362474Y141704D02*
X390610Y141704D01*
X390610Y143826D02*
X362474Y143826D01*
X348710Y144118D02*
X320574Y144118D01*
X348710Y144118D02*
X348710Y139582D01*
X320574Y139582D01*
X320574Y144118D01*
X320574Y141704D02*
X348710Y141704D01*
X348710Y143826D02*
X320574Y143826D01*
D15*
X347980Y444500D03*
X343580Y614300D03*
X343580Y588900D03*
X368980Y614300D03*
X394380Y614300D03*
X394380Y588900D03*
D14*
X266836Y520210D02*
X266836Y514618D01*
X266836Y520210D02*
X278524Y520210D01*
X278524Y514618D01*
X266836Y514618D01*
X266836Y516787D02*
X278524Y516787D01*
X278524Y518956D02*
X266836Y518956D01*
X266836Y509796D02*
X266836Y504204D01*
X266836Y509796D02*
X278524Y509796D01*
X278524Y504204D01*
X266836Y504204D01*
X266836Y506373D02*
X278524Y506373D01*
X278524Y508542D02*
X266836Y508542D01*
X266836Y499382D02*
X266836Y493790D01*
X266836Y499382D02*
X278524Y499382D01*
X278524Y493790D01*
X266836Y493790D01*
X266836Y495959D02*
X278524Y495959D01*
X278524Y498128D02*
X266836Y498128D01*
D15*
X284480Y114300D03*
X347980Y165100D03*
X297180Y368300D03*
X373380Y406400D03*
X309880Y317500D03*
X386080Y228600D03*
X284480Y88900D03*
D10*
X375680Y275300D03*
X375680Y300700D03*
D14*
X357683Y430844D02*
X352091Y430844D01*
X357683Y430844D02*
X357683Y419156D01*
X352091Y419156D01*
X352091Y430844D01*
X352091Y421325D02*
X357683Y421325D01*
X357683Y423494D02*
X352091Y423494D01*
X352091Y425663D02*
X357683Y425663D01*
X357683Y427832D02*
X352091Y427832D01*
X352091Y430001D02*
X357683Y430001D01*
X347269Y430844D02*
X341677Y430844D01*
X347269Y430844D02*
X347269Y419156D01*
X341677Y419156D01*
X341677Y430844D01*
X341677Y421325D02*
X347269Y421325D01*
X347269Y423494D02*
X341677Y423494D01*
X341677Y425663D02*
X347269Y425663D01*
X347269Y427832D02*
X341677Y427832D01*
X341677Y430001D02*
X347269Y430001D01*
D10*
X683260Y520700D03*
X683260Y495300D03*
X683260Y469900D03*
X683260Y444500D03*
X683260Y419100D03*
X683260Y393700D03*
X683260Y368300D03*
X683260Y342900D03*
X683260Y317500D03*
X683260Y292100D03*
X683260Y266700D03*
X683260Y241300D03*
X683260Y215900D03*
X683260Y190500D03*
X683260Y165100D03*
X683260Y139700D03*
X480060Y241300D03*
X480060Y266700D03*
X480060Y292100D03*
X480060Y317500D03*
X480060Y342900D03*
X480060Y368300D03*
X480060Y393700D03*
X480060Y419100D03*
X480060Y444500D03*
X480060Y469900D03*
X480060Y495300D03*
X480060Y520700D03*
D11*
X492760Y25400D03*
X670560Y25400D03*
X670560Y558800D03*
X492760Y558800D03*
D12*
X473360Y534000D03*
X688360Y53000D03*
D13*
X552760Y47526D03*
X610560Y47526D03*
D14*
X632771Y35844D02*
X638363Y35844D01*
X638363Y24156D01*
X632771Y24156D01*
X632771Y35844D01*
X632771Y26325D02*
X638363Y26325D01*
X638363Y28494D02*
X632771Y28494D01*
X632771Y30663D02*
X638363Y30663D01*
X638363Y32832D02*
X632771Y32832D01*
X632771Y35001D02*
X638363Y35001D01*
X627949Y35844D02*
X622357Y35844D01*
X627949Y35844D02*
X627949Y24156D01*
X622357Y24156D01*
X622357Y35844D01*
X622357Y26325D02*
X627949Y26325D01*
X627949Y28494D02*
X622357Y28494D01*
X622357Y30663D02*
X627949Y30663D01*
X627949Y32832D02*
X622357Y32832D01*
X622357Y35001D02*
X627949Y35001D01*
X591204Y217997D02*
X591204Y223589D01*
X591204Y217997D02*
X579516Y217997D01*
X579516Y223589D01*
X591204Y223589D01*
X591204Y220166D02*
X579516Y220166D01*
X579516Y222335D02*
X591204Y222335D01*
X591204Y228411D02*
X591204Y234003D01*
X591204Y228411D02*
X579516Y228411D01*
X579516Y234003D01*
X591204Y234003D01*
X591204Y230580D02*
X579516Y230580D01*
X579516Y232749D02*
X591204Y232749D01*
D15*
X518160Y63500D03*
D16*
X555279Y64993D02*
X555279Y74007D01*
X555279Y64993D02*
X551265Y64993D01*
X551265Y74007D01*
X555279Y74007D01*
X555279Y67137D02*
X551265Y67137D01*
X551265Y69281D02*
X555279Y69281D01*
X555279Y71425D02*
X551265Y71425D01*
X551265Y73569D02*
X555279Y73569D01*
X566279Y74007D02*
X566279Y64993D01*
X562265Y64993D01*
X562265Y74007D01*
X566279Y74007D01*
X566279Y67137D02*
X562265Y67137D01*
X562265Y69281D02*
X566279Y69281D01*
X566279Y71425D02*
X562265Y71425D01*
X562265Y73569D02*
X566279Y73569D01*
X577279Y74007D02*
X577279Y64993D01*
X573265Y64993D01*
X573265Y74007D01*
X577279Y74007D01*
X577279Y67137D02*
X573265Y67137D01*
X573265Y69281D02*
X577279Y69281D01*
X577279Y71425D02*
X573265Y71425D01*
X573265Y73569D02*
X577279Y73569D01*
X588279Y74007D02*
X588279Y64993D01*
X584265Y64993D01*
X584265Y74007D01*
X588279Y74007D01*
X588279Y67137D02*
X584265Y67137D01*
X584265Y69281D02*
X588279Y69281D01*
X588279Y71425D02*
X584265Y71425D01*
X584265Y73569D02*
X588279Y73569D01*
X599279Y74007D02*
X599279Y64993D01*
X595265Y64993D01*
X595265Y74007D01*
X599279Y74007D01*
X599279Y67137D02*
X595265Y67137D01*
X595265Y69281D02*
X599279Y69281D01*
X599279Y71425D02*
X595265Y71425D01*
X595265Y73569D02*
X599279Y73569D01*
X610279Y74007D02*
X610279Y64993D01*
X606265Y64993D01*
X606265Y74007D01*
X610279Y74007D01*
X610279Y67137D02*
X606265Y67137D01*
X606265Y69281D02*
X610279Y69281D01*
X610279Y71425D02*
X606265Y71425D01*
X606265Y73569D02*
X610279Y73569D01*
X621279Y74007D02*
X621279Y64993D01*
X617265Y64993D01*
X617265Y74007D01*
X621279Y74007D01*
X621279Y67137D02*
X617265Y67137D01*
X617265Y69281D02*
X621279Y69281D01*
X621279Y71425D02*
X617265Y71425D01*
X617265Y73569D02*
X621279Y73569D01*
X632279Y74007D02*
X632279Y64993D01*
X628265Y64993D01*
X628265Y74007D01*
X632279Y74007D01*
X632279Y67137D02*
X628265Y67137D01*
X628265Y69281D02*
X632279Y69281D01*
X632279Y71425D02*
X628265Y71425D01*
X628265Y73569D02*
X632279Y73569D01*
D17*
X538364Y92908D02*
X532180Y92908D01*
X532180Y99692D01*
X538364Y99692D01*
X538364Y92908D01*
X538364Y95081D02*
X532180Y95081D01*
X532180Y97254D02*
X538364Y97254D01*
X538364Y99427D02*
X532180Y99427D01*
D18*
X539980Y104142D02*
X539980Y113858D01*
X539980Y104142D02*
X530564Y104142D01*
X530564Y113858D01*
X539980Y113858D01*
X539980Y106378D02*
X530564Y106378D01*
X530564Y108614D02*
X539980Y108614D01*
X539980Y110850D02*
X530564Y110850D01*
X530564Y113086D02*
X539980Y113086D01*
X539980Y129642D02*
X539980Y140558D01*
X539980Y129642D02*
X530564Y129642D01*
X530564Y140558D01*
X539980Y140558D01*
X539980Y131878D02*
X530564Y131878D01*
X530564Y134114D02*
X539980Y134114D01*
X539980Y136350D02*
X530564Y136350D01*
X530564Y138586D02*
X539980Y138586D01*
X646730Y134858D02*
X646730Y123942D01*
X637314Y123942D01*
X637314Y134858D01*
X646730Y134858D01*
X646730Y126178D02*
X637314Y126178D01*
X637314Y128414D02*
X646730Y128414D01*
X646730Y130650D02*
X637314Y130650D01*
X637314Y132886D02*
X646730Y132886D01*
X646730Y108958D02*
X646730Y86142D01*
X637314Y86142D01*
X637314Y108958D01*
X646730Y108958D01*
X646730Y88378D02*
X637314Y88378D01*
X637314Y90614D02*
X646730Y90614D01*
X646730Y92850D02*
X637314Y92850D01*
X637314Y95086D02*
X646730Y95086D01*
X646730Y97322D02*
X637314Y97322D01*
X637314Y99558D02*
X646730Y99558D01*
X646730Y101794D02*
X637314Y101794D01*
X637314Y104030D02*
X646730Y104030D01*
X646730Y106266D02*
X637314Y106266D01*
X637314Y108502D02*
X646730Y108502D01*
D19*
X624290Y144118D02*
X596154Y144118D01*
X624290Y144118D02*
X624290Y139582D01*
X596154Y139582D01*
X596154Y144118D01*
X596154Y141704D02*
X624290Y141704D01*
X624290Y143826D02*
X596154Y143826D01*
X582390Y144118D02*
X554254Y144118D01*
X582390Y144118D02*
X582390Y139582D01*
X554254Y139582D01*
X554254Y144118D01*
X554254Y141704D02*
X582390Y141704D01*
X582390Y143826D02*
X554254Y143826D01*
D15*
X581660Y444500D03*
X577260Y614300D03*
X577260Y588900D03*
X602660Y614300D03*
X628060Y614300D03*
X628060Y588900D03*
D14*
X500516Y520210D02*
X500516Y514618D01*
X500516Y520210D02*
X512204Y520210D01*
X512204Y514618D01*
X500516Y514618D01*
X500516Y516787D02*
X512204Y516787D01*
X512204Y518956D02*
X500516Y518956D01*
X500516Y509796D02*
X500516Y504204D01*
X500516Y509796D02*
X512204Y509796D01*
X512204Y504204D01*
X500516Y504204D01*
X500516Y506373D02*
X512204Y506373D01*
X512204Y508542D02*
X500516Y508542D01*
X500516Y499382D02*
X500516Y493790D01*
X500516Y499382D02*
X512204Y499382D01*
X512204Y493790D01*
X500516Y493790D01*
X500516Y495959D02*
X512204Y495959D01*
X512204Y498128D02*
X500516Y498128D01*
D15*
X518160Y114300D03*
X581660Y165100D03*
X530860Y368300D03*
X607060Y406400D03*
X543560Y317500D03*
X619760Y228600D03*
X518160Y88900D03*
D10*
X609360Y275300D03*
X609360Y300700D03*
D14*
X591363Y430844D02*
X585771Y430844D01*
X591363Y430844D02*
X591363Y419156D01*
X585771Y419156D01*
X585771Y430844D01*
X585771Y421325D02*
X591363Y421325D01*
X591363Y423494D02*
X585771Y423494D01*
X585771Y425663D02*
X591363Y425663D01*
X591363Y427832D02*
X585771Y427832D01*
X585771Y430001D02*
X591363Y430001D01*
X580949Y430844D02*
X575357Y430844D01*
X580949Y430844D02*
X580949Y419156D01*
X575357Y419156D01*
X575357Y430844D01*
X575357Y421325D02*
X580949Y421325D01*
X580949Y423494D02*
X575357Y423494D01*
X575357Y425663D02*
X580949Y425663D01*
X580949Y427832D02*
X575357Y427832D01*
X575357Y430001D02*
X580949Y430001D01*
D20*
X-26238Y633730D03*
X722198Y633730D03*
D21*
X-35293Y63500D02*
X-35290Y63722D01*
X-35282Y63944D01*
X-35268Y64166D01*
X-35249Y64388D01*
X-35225Y64608D01*
X-35195Y64829D01*
X-35160Y65048D01*
X-35119Y65267D01*
X-35073Y65484D01*
X-35022Y65700D01*
X-34965Y65915D01*
X-34903Y66129D01*
X-34836Y66340D01*
X-34764Y66551D01*
X-34686Y66759D01*
X-34604Y66965D01*
X-34516Y67169D01*
X-34424Y67372D01*
X-34326Y67571D01*
X-34224Y67768D01*
X-34117Y67963D01*
X-34005Y68155D01*
X-33888Y68344D01*
X-33767Y68531D01*
X-33641Y68714D01*
X-33511Y68894D01*
X-33376Y69071D01*
X-33238Y69244D01*
X-33095Y69414D01*
X-32947Y69581D01*
X-32796Y69744D01*
X-32641Y69903D01*
X-32482Y70058D01*
X-32319Y70209D01*
X-32152Y70357D01*
X-31982Y70500D01*
X-31809Y70638D01*
X-31632Y70773D01*
X-31452Y70903D01*
X-31269Y71029D01*
X-31082Y71150D01*
X-30893Y71267D01*
X-30701Y71379D01*
X-30506Y71486D01*
X-30309Y71588D01*
X-30110Y71686D01*
X-29907Y71778D01*
X-29703Y71866D01*
X-29497Y71948D01*
X-29289Y72026D01*
X-29078Y72098D01*
X-28867Y72165D01*
X-28653Y72227D01*
X-28438Y72284D01*
X-28222Y72335D01*
X-28005Y72381D01*
X-27786Y72422D01*
X-27567Y72457D01*
X-27346Y72487D01*
X-27126Y72511D01*
X-26904Y72530D01*
X-26682Y72544D01*
X-26460Y72552D01*
X-26238Y72555D01*
X-26016Y72552D01*
X-25794Y72544D01*
X-25572Y72530D01*
X-25350Y72511D01*
X-25130Y72487D01*
X-24909Y72457D01*
X-24690Y72422D01*
X-24471Y72381D01*
X-24254Y72335D01*
X-24038Y72284D01*
X-23823Y72227D01*
X-23609Y72165D01*
X-23398Y72098D01*
X-23187Y72026D01*
X-22979Y71948D01*
X-22773Y71866D01*
X-22569Y71778D01*
X-22366Y71686D01*
X-22167Y71588D01*
X-21970Y71486D01*
X-21775Y71379D01*
X-21583Y71267D01*
X-21394Y71150D01*
X-21207Y71029D01*
X-21024Y70903D01*
X-20844Y70773D01*
X-20667Y70638D01*
X-20494Y70500D01*
X-20324Y70357D01*
X-20157Y70209D01*
X-19994Y70058D01*
X-19835Y69903D01*
X-19680Y69744D01*
X-19529Y69581D01*
X-19381Y69414D01*
X-19238Y69244D01*
X-19100Y69071D01*
X-18965Y68894D01*
X-18835Y68714D01*
X-18709Y68531D01*
X-18588Y68344D01*
X-18471Y68155D01*
X-18359Y67963D01*
X-18252Y67768D01*
X-18150Y67571D01*
X-18052Y67372D01*
X-17960Y67169D01*
X-17872Y66965D01*
X-17790Y66759D01*
X-17712Y66551D01*
X-17640Y66340D01*
X-17573Y66129D01*
X-17511Y65915D01*
X-17454Y65700D01*
X-17403Y65484D01*
X-17357Y65267D01*
X-17316Y65048D01*
X-17281Y64829D01*
X-17251Y64608D01*
X-17227Y64388D01*
X-17208Y64166D01*
X-17194Y63944D01*
X-17186Y63722D01*
X-17183Y63500D01*
X-17186Y63278D01*
X-17194Y63056D01*
X-17208Y62834D01*
X-17227Y62612D01*
X-17251Y62392D01*
X-17281Y62171D01*
X-17316Y61952D01*
X-17357Y61733D01*
X-17403Y61516D01*
X-17454Y61300D01*
X-17511Y61085D01*
X-17573Y60871D01*
X-17640Y60660D01*
X-17712Y60449D01*
X-17790Y60241D01*
X-17872Y60035D01*
X-17960Y59831D01*
X-18052Y59628D01*
X-18150Y59429D01*
X-18252Y59232D01*
X-18359Y59037D01*
X-18471Y58845D01*
X-18588Y58656D01*
X-18709Y58469D01*
X-18835Y58286D01*
X-18965Y58106D01*
X-19100Y57929D01*
X-19238Y57756D01*
X-19381Y57586D01*
X-19529Y57419D01*
X-19680Y57256D01*
X-19835Y57097D01*
X-19994Y56942D01*
X-20157Y56791D01*
X-20324Y56643D01*
X-20494Y56500D01*
X-20667Y56362D01*
X-20844Y56227D01*
X-21024Y56097D01*
X-21207Y55971D01*
X-21394Y55850D01*
X-21583Y55733D01*
X-21775Y55621D01*
X-21970Y55514D01*
X-22167Y55412D01*
X-22366Y55314D01*
X-22569Y55222D01*
X-22773Y55134D01*
X-22979Y55052D01*
X-23187Y54974D01*
X-23398Y54902D01*
X-23609Y54835D01*
X-23823Y54773D01*
X-24038Y54716D01*
X-24254Y54665D01*
X-24471Y54619D01*
X-24690Y54578D01*
X-24909Y54543D01*
X-25130Y54513D01*
X-25350Y54489D01*
X-25572Y54470D01*
X-25794Y54456D01*
X-26016Y54448D01*
X-26238Y54445D01*
X-26460Y54448D01*
X-26682Y54456D01*
X-26904Y54470D01*
X-27126Y54489D01*
X-27346Y54513D01*
X-27567Y54543D01*
X-27786Y54578D01*
X-28005Y54619D01*
X-28222Y54665D01*
X-28438Y54716D01*
X-28653Y54773D01*
X-28867Y54835D01*
X-29078Y54902D01*
X-29289Y54974D01*
X-29497Y55052D01*
X-29703Y55134D01*
X-29907Y55222D01*
X-30110Y55314D01*
X-30309Y55412D01*
X-30506Y55514D01*
X-30701Y55621D01*
X-30893Y55733D01*
X-31082Y55850D01*
X-31269Y55971D01*
X-31452Y56097D01*
X-31632Y56227D01*
X-31809Y56362D01*
X-31982Y56500D01*
X-32152Y56643D01*
X-32319Y56791D01*
X-32482Y56942D01*
X-32641Y57097D01*
X-32796Y57256D01*
X-32947Y57419D01*
X-33095Y57586D01*
X-33238Y57756D01*
X-33376Y57929D01*
X-33511Y58106D01*
X-33641Y58286D01*
X-33767Y58469D01*
X-33888Y58656D01*
X-34005Y58845D01*
X-34117Y59037D01*
X-34224Y59232D01*
X-34326Y59429D01*
X-34424Y59628D01*
X-34516Y59831D01*
X-34604Y60035D01*
X-34686Y60241D01*
X-34764Y60449D01*
X-34836Y60660D01*
X-34903Y60871D01*
X-34965Y61085D01*
X-35022Y61300D01*
X-35073Y61516D01*
X-35119Y61733D01*
X-35160Y61952D01*
X-35195Y62171D01*
X-35225Y62392D01*
X-35249Y62612D01*
X-35268Y62834D01*
X-35282Y63056D01*
X-35290Y63278D01*
X-35293Y63500D01*
D22*
X-26238Y63500D03*
M02*
