G04 EAGLE Gerber RS-274X export*
G75*
%MOMM*%
%FSLAX34Y34*%
%LPD*%
%INSolderpaste Bottom*%
%IPPOS*%
%AMOC8*
5,1,8,0,0,1.08239X$1,22.5*%
G01*
%ADD10C,0.100000*%
%ADD11C,0.100800*%
%ADD12C,0.105000*%
%ADD13C,0.099000*%


D10*
X87912Y74000D02*
X87912Y65000D01*
X83912Y65000D01*
X83912Y74000D01*
X87912Y74000D01*
X87912Y65950D02*
X83912Y65950D01*
X83912Y66900D02*
X87912Y66900D01*
X87912Y67850D02*
X83912Y67850D01*
X83912Y68800D02*
X87912Y68800D01*
X87912Y69750D02*
X83912Y69750D01*
X83912Y70700D02*
X87912Y70700D01*
X87912Y71650D02*
X83912Y71650D01*
X83912Y72600D02*
X87912Y72600D01*
X87912Y73550D02*
X83912Y73550D01*
X98912Y74000D02*
X98912Y65000D01*
X94912Y65000D01*
X94912Y74000D01*
X98912Y74000D01*
X98912Y65950D02*
X94912Y65950D01*
X94912Y66900D02*
X98912Y66900D01*
X98912Y67850D02*
X94912Y67850D01*
X94912Y68800D02*
X98912Y68800D01*
X98912Y69750D02*
X94912Y69750D01*
X94912Y70700D02*
X98912Y70700D01*
X98912Y71650D02*
X94912Y71650D01*
X94912Y72600D02*
X98912Y72600D01*
X98912Y73550D02*
X94912Y73550D01*
X109912Y74000D02*
X109912Y65000D01*
X105912Y65000D01*
X105912Y74000D01*
X109912Y74000D01*
X109912Y65950D02*
X105912Y65950D01*
X105912Y66900D02*
X109912Y66900D01*
X109912Y67850D02*
X105912Y67850D01*
X105912Y68800D02*
X109912Y68800D01*
X109912Y69750D02*
X105912Y69750D01*
X105912Y70700D02*
X109912Y70700D01*
X109912Y71650D02*
X105912Y71650D01*
X105912Y72600D02*
X109912Y72600D01*
X109912Y73550D02*
X105912Y73550D01*
X120912Y74000D02*
X120912Y65000D01*
X116912Y65000D01*
X116912Y74000D01*
X120912Y74000D01*
X120912Y65950D02*
X116912Y65950D01*
X116912Y66900D02*
X120912Y66900D01*
X120912Y67850D02*
X116912Y67850D01*
X116912Y68800D02*
X120912Y68800D01*
X120912Y69750D02*
X116912Y69750D01*
X116912Y70700D02*
X120912Y70700D01*
X120912Y71650D02*
X116912Y71650D01*
X116912Y72600D02*
X120912Y72600D01*
X120912Y73550D02*
X116912Y73550D01*
X131912Y74000D02*
X131912Y65000D01*
X127912Y65000D01*
X127912Y74000D01*
X131912Y74000D01*
X131912Y65950D02*
X127912Y65950D01*
X127912Y66900D02*
X131912Y66900D01*
X131912Y67850D02*
X127912Y67850D01*
X127912Y68800D02*
X131912Y68800D01*
X131912Y69750D02*
X127912Y69750D01*
X127912Y70700D02*
X131912Y70700D01*
X131912Y71650D02*
X127912Y71650D01*
X127912Y72600D02*
X131912Y72600D01*
X131912Y73550D02*
X127912Y73550D01*
X142912Y74000D02*
X142912Y65000D01*
X138912Y65000D01*
X138912Y74000D01*
X142912Y74000D01*
X142912Y65950D02*
X138912Y65950D01*
X138912Y66900D02*
X142912Y66900D01*
X142912Y67850D02*
X138912Y67850D01*
X138912Y68800D02*
X142912Y68800D01*
X142912Y69750D02*
X138912Y69750D01*
X138912Y70700D02*
X142912Y70700D01*
X142912Y71650D02*
X138912Y71650D01*
X138912Y72600D02*
X142912Y72600D01*
X142912Y73550D02*
X138912Y73550D01*
X153912Y74000D02*
X153912Y65000D01*
X149912Y65000D01*
X149912Y74000D01*
X153912Y74000D01*
X153912Y65950D02*
X149912Y65950D01*
X149912Y66900D02*
X153912Y66900D01*
X153912Y67850D02*
X149912Y67850D01*
X149912Y68800D02*
X153912Y68800D01*
X153912Y69750D02*
X149912Y69750D01*
X149912Y70700D02*
X153912Y70700D01*
X153912Y71650D02*
X149912Y71650D01*
X149912Y72600D02*
X153912Y72600D01*
X153912Y73550D02*
X149912Y73550D01*
X164912Y74000D02*
X164912Y65000D01*
X160912Y65000D01*
X160912Y74000D01*
X164912Y74000D01*
X164912Y65950D02*
X160912Y65950D01*
X160912Y66900D02*
X164912Y66900D01*
X164912Y67850D02*
X160912Y67850D01*
X160912Y68800D02*
X164912Y68800D01*
X164912Y69750D02*
X160912Y69750D01*
X160912Y70700D02*
X164912Y70700D01*
X164912Y71650D02*
X160912Y71650D01*
X160912Y72600D02*
X164912Y72600D01*
X164912Y73550D02*
X160912Y73550D01*
D11*
X71008Y92904D02*
X64816Y92904D01*
X64816Y99696D01*
X71008Y99696D01*
X71008Y92904D01*
X71008Y93862D02*
X64816Y93862D01*
X64816Y94820D02*
X71008Y94820D01*
X71008Y95778D02*
X64816Y95778D01*
X64816Y96736D02*
X71008Y96736D01*
X71008Y97694D02*
X64816Y97694D01*
X64816Y98652D02*
X71008Y98652D01*
X71008Y99610D02*
X64816Y99610D01*
D12*
X72637Y104125D02*
X72637Y113875D01*
X72637Y104125D02*
X63187Y104125D01*
X63187Y113875D01*
X72637Y113875D01*
X72637Y105122D02*
X63187Y105122D01*
X63187Y106119D02*
X72637Y106119D01*
X72637Y107116D02*
X63187Y107116D01*
X63187Y108113D02*
X72637Y108113D01*
X72637Y109110D02*
X63187Y109110D01*
X63187Y110107D02*
X72637Y110107D01*
X72637Y111104D02*
X63187Y111104D01*
X63187Y112101D02*
X72637Y112101D01*
X72637Y113098D02*
X63187Y113098D01*
X72637Y129625D02*
X72637Y140575D01*
X72637Y129625D02*
X63187Y129625D01*
X63187Y140575D01*
X72637Y140575D01*
X72637Y130622D02*
X63187Y130622D01*
X63187Y131619D02*
X72637Y131619D01*
X72637Y132616D02*
X63187Y132616D01*
X63187Y133613D02*
X72637Y133613D01*
X72637Y134610D02*
X63187Y134610D01*
X63187Y135607D02*
X72637Y135607D01*
X72637Y136604D02*
X63187Y136604D01*
X63187Y137601D02*
X72637Y137601D01*
X72637Y138598D02*
X63187Y138598D01*
X63187Y139595D02*
X72637Y139595D01*
X179387Y134875D02*
X179387Y123925D01*
X169937Y123925D01*
X169937Y134875D01*
X179387Y134875D01*
X179387Y124922D02*
X169937Y124922D01*
X169937Y125919D02*
X179387Y125919D01*
X179387Y126916D02*
X169937Y126916D01*
X169937Y127913D02*
X179387Y127913D01*
X179387Y128910D02*
X169937Y128910D01*
X169937Y129907D02*
X179387Y129907D01*
X179387Y130904D02*
X169937Y130904D01*
X169937Y131901D02*
X179387Y131901D01*
X179387Y132898D02*
X169937Y132898D01*
X169937Y133895D02*
X179387Y133895D01*
X179387Y108975D02*
X179387Y86125D01*
X169937Y86125D01*
X169937Y108975D01*
X179387Y108975D01*
X179387Y87122D02*
X169937Y87122D01*
X169937Y88119D02*
X179387Y88119D01*
X179387Y89116D02*
X169937Y89116D01*
X169937Y90113D02*
X179387Y90113D01*
X179387Y91110D02*
X169937Y91110D01*
X169937Y92107D02*
X179387Y92107D01*
X179387Y93104D02*
X169937Y93104D01*
X169937Y94101D02*
X179387Y94101D01*
X179387Y95098D02*
X169937Y95098D01*
X169937Y96095D02*
X179387Y96095D01*
X179387Y97092D02*
X169937Y97092D01*
X169937Y98089D02*
X179387Y98089D01*
X179387Y99086D02*
X169937Y99086D01*
X169937Y100083D02*
X179387Y100083D01*
X179387Y101080D02*
X169937Y101080D01*
X169937Y102077D02*
X179387Y102077D01*
X179387Y103074D02*
X169937Y103074D01*
X169937Y104071D02*
X179387Y104071D01*
X179387Y105068D02*
X169937Y105068D01*
X169937Y106065D02*
X179387Y106065D01*
X179387Y107062D02*
X169937Y107062D01*
X169937Y108059D02*
X179387Y108059D01*
D13*
X156917Y144105D02*
X128807Y144105D01*
X156917Y144105D02*
X156917Y139595D01*
X128807Y139595D01*
X128807Y144105D01*
X128807Y140535D02*
X156917Y140535D01*
X156917Y141475D02*
X128807Y141475D01*
X128807Y142415D02*
X156917Y142415D01*
X156917Y143355D02*
X128807Y143355D01*
X115017Y144105D02*
X86907Y144105D01*
X115017Y144105D02*
X115017Y139595D01*
X86907Y139595D01*
X86907Y144105D01*
X86907Y140535D02*
X115017Y140535D01*
X115017Y141475D02*
X86907Y141475D01*
X86907Y142415D02*
X115017Y142415D01*
X115017Y143355D02*
X86907Y143355D01*
D10*
X321592Y74000D02*
X321592Y65000D01*
X317592Y65000D01*
X317592Y74000D01*
X321592Y74000D01*
X321592Y65950D02*
X317592Y65950D01*
X317592Y66900D02*
X321592Y66900D01*
X321592Y67850D02*
X317592Y67850D01*
X317592Y68800D02*
X321592Y68800D01*
X321592Y69750D02*
X317592Y69750D01*
X317592Y70700D02*
X321592Y70700D01*
X321592Y71650D02*
X317592Y71650D01*
X317592Y72600D02*
X321592Y72600D01*
X321592Y73550D02*
X317592Y73550D01*
X332592Y74000D02*
X332592Y65000D01*
X328592Y65000D01*
X328592Y74000D01*
X332592Y74000D01*
X332592Y65950D02*
X328592Y65950D01*
X328592Y66900D02*
X332592Y66900D01*
X332592Y67850D02*
X328592Y67850D01*
X328592Y68800D02*
X332592Y68800D01*
X332592Y69750D02*
X328592Y69750D01*
X328592Y70700D02*
X332592Y70700D01*
X332592Y71650D02*
X328592Y71650D01*
X328592Y72600D02*
X332592Y72600D01*
X332592Y73550D02*
X328592Y73550D01*
X343592Y74000D02*
X343592Y65000D01*
X339592Y65000D01*
X339592Y74000D01*
X343592Y74000D01*
X343592Y65950D02*
X339592Y65950D01*
X339592Y66900D02*
X343592Y66900D01*
X343592Y67850D02*
X339592Y67850D01*
X339592Y68800D02*
X343592Y68800D01*
X343592Y69750D02*
X339592Y69750D01*
X339592Y70700D02*
X343592Y70700D01*
X343592Y71650D02*
X339592Y71650D01*
X339592Y72600D02*
X343592Y72600D01*
X343592Y73550D02*
X339592Y73550D01*
X354592Y74000D02*
X354592Y65000D01*
X350592Y65000D01*
X350592Y74000D01*
X354592Y74000D01*
X354592Y65950D02*
X350592Y65950D01*
X350592Y66900D02*
X354592Y66900D01*
X354592Y67850D02*
X350592Y67850D01*
X350592Y68800D02*
X354592Y68800D01*
X354592Y69750D02*
X350592Y69750D01*
X350592Y70700D02*
X354592Y70700D01*
X354592Y71650D02*
X350592Y71650D01*
X350592Y72600D02*
X354592Y72600D01*
X354592Y73550D02*
X350592Y73550D01*
X365592Y74000D02*
X365592Y65000D01*
X361592Y65000D01*
X361592Y74000D01*
X365592Y74000D01*
X365592Y65950D02*
X361592Y65950D01*
X361592Y66900D02*
X365592Y66900D01*
X365592Y67850D02*
X361592Y67850D01*
X361592Y68800D02*
X365592Y68800D01*
X365592Y69750D02*
X361592Y69750D01*
X361592Y70700D02*
X365592Y70700D01*
X365592Y71650D02*
X361592Y71650D01*
X361592Y72600D02*
X365592Y72600D01*
X365592Y73550D02*
X361592Y73550D01*
X376592Y74000D02*
X376592Y65000D01*
X372592Y65000D01*
X372592Y74000D01*
X376592Y74000D01*
X376592Y65950D02*
X372592Y65950D01*
X372592Y66900D02*
X376592Y66900D01*
X376592Y67850D02*
X372592Y67850D01*
X372592Y68800D02*
X376592Y68800D01*
X376592Y69750D02*
X372592Y69750D01*
X372592Y70700D02*
X376592Y70700D01*
X376592Y71650D02*
X372592Y71650D01*
X372592Y72600D02*
X376592Y72600D01*
X376592Y73550D02*
X372592Y73550D01*
X387592Y74000D02*
X387592Y65000D01*
X383592Y65000D01*
X383592Y74000D01*
X387592Y74000D01*
X387592Y65950D02*
X383592Y65950D01*
X383592Y66900D02*
X387592Y66900D01*
X387592Y67850D02*
X383592Y67850D01*
X383592Y68800D02*
X387592Y68800D01*
X387592Y69750D02*
X383592Y69750D01*
X383592Y70700D02*
X387592Y70700D01*
X387592Y71650D02*
X383592Y71650D01*
X383592Y72600D02*
X387592Y72600D01*
X387592Y73550D02*
X383592Y73550D01*
X398592Y74000D02*
X398592Y65000D01*
X394592Y65000D01*
X394592Y74000D01*
X398592Y74000D01*
X398592Y65950D02*
X394592Y65950D01*
X394592Y66900D02*
X398592Y66900D01*
X398592Y67850D02*
X394592Y67850D01*
X394592Y68800D02*
X398592Y68800D01*
X398592Y69750D02*
X394592Y69750D01*
X394592Y70700D02*
X398592Y70700D01*
X398592Y71650D02*
X394592Y71650D01*
X394592Y72600D02*
X398592Y72600D01*
X398592Y73550D02*
X394592Y73550D01*
D11*
X304688Y92904D02*
X298496Y92904D01*
X298496Y99696D01*
X304688Y99696D01*
X304688Y92904D01*
X304688Y93862D02*
X298496Y93862D01*
X298496Y94820D02*
X304688Y94820D01*
X304688Y95778D02*
X298496Y95778D01*
X298496Y96736D02*
X304688Y96736D01*
X304688Y97694D02*
X298496Y97694D01*
X298496Y98652D02*
X304688Y98652D01*
X304688Y99610D02*
X298496Y99610D01*
D12*
X306317Y104125D02*
X306317Y113875D01*
X306317Y104125D02*
X296867Y104125D01*
X296867Y113875D01*
X306317Y113875D01*
X306317Y105122D02*
X296867Y105122D01*
X296867Y106119D02*
X306317Y106119D01*
X306317Y107116D02*
X296867Y107116D01*
X296867Y108113D02*
X306317Y108113D01*
X306317Y109110D02*
X296867Y109110D01*
X296867Y110107D02*
X306317Y110107D01*
X306317Y111104D02*
X296867Y111104D01*
X296867Y112101D02*
X306317Y112101D01*
X306317Y113098D02*
X296867Y113098D01*
X306317Y129625D02*
X306317Y140575D01*
X306317Y129625D02*
X296867Y129625D01*
X296867Y140575D01*
X306317Y140575D01*
X306317Y130622D02*
X296867Y130622D01*
X296867Y131619D02*
X306317Y131619D01*
X306317Y132616D02*
X296867Y132616D01*
X296867Y133613D02*
X306317Y133613D01*
X306317Y134610D02*
X296867Y134610D01*
X296867Y135607D02*
X306317Y135607D01*
X306317Y136604D02*
X296867Y136604D01*
X296867Y137601D02*
X306317Y137601D01*
X306317Y138598D02*
X296867Y138598D01*
X296867Y139595D02*
X306317Y139595D01*
X413067Y134875D02*
X413067Y123925D01*
X403617Y123925D01*
X403617Y134875D01*
X413067Y134875D01*
X413067Y124922D02*
X403617Y124922D01*
X403617Y125919D02*
X413067Y125919D01*
X413067Y126916D02*
X403617Y126916D01*
X403617Y127913D02*
X413067Y127913D01*
X413067Y128910D02*
X403617Y128910D01*
X403617Y129907D02*
X413067Y129907D01*
X413067Y130904D02*
X403617Y130904D01*
X403617Y131901D02*
X413067Y131901D01*
X413067Y132898D02*
X403617Y132898D01*
X403617Y133895D02*
X413067Y133895D01*
X413067Y108975D02*
X413067Y86125D01*
X403617Y86125D01*
X403617Y108975D01*
X413067Y108975D01*
X413067Y87122D02*
X403617Y87122D01*
X403617Y88119D02*
X413067Y88119D01*
X413067Y89116D02*
X403617Y89116D01*
X403617Y90113D02*
X413067Y90113D01*
X413067Y91110D02*
X403617Y91110D01*
X403617Y92107D02*
X413067Y92107D01*
X413067Y93104D02*
X403617Y93104D01*
X403617Y94101D02*
X413067Y94101D01*
X413067Y95098D02*
X403617Y95098D01*
X403617Y96095D02*
X413067Y96095D01*
X413067Y97092D02*
X403617Y97092D01*
X403617Y98089D02*
X413067Y98089D01*
X413067Y99086D02*
X403617Y99086D01*
X403617Y100083D02*
X413067Y100083D01*
X413067Y101080D02*
X403617Y101080D01*
X403617Y102077D02*
X413067Y102077D01*
X413067Y103074D02*
X403617Y103074D01*
X403617Y104071D02*
X413067Y104071D01*
X413067Y105068D02*
X403617Y105068D01*
X403617Y106065D02*
X413067Y106065D01*
X413067Y107062D02*
X403617Y107062D01*
X403617Y108059D02*
X413067Y108059D01*
D13*
X390597Y144105D02*
X362487Y144105D01*
X390597Y144105D02*
X390597Y139595D01*
X362487Y139595D01*
X362487Y144105D01*
X362487Y140535D02*
X390597Y140535D01*
X390597Y141475D02*
X362487Y141475D01*
X362487Y142415D02*
X390597Y142415D01*
X390597Y143355D02*
X362487Y143355D01*
X348697Y144105D02*
X320587Y144105D01*
X348697Y144105D02*
X348697Y139595D01*
X320587Y139595D01*
X320587Y144105D01*
X320587Y140535D02*
X348697Y140535D01*
X348697Y141475D02*
X320587Y141475D01*
X320587Y142415D02*
X348697Y142415D01*
X348697Y143355D02*
X320587Y143355D01*
D10*
X555272Y74000D02*
X555272Y65000D01*
X551272Y65000D01*
X551272Y74000D01*
X555272Y74000D01*
X555272Y65950D02*
X551272Y65950D01*
X551272Y66900D02*
X555272Y66900D01*
X555272Y67850D02*
X551272Y67850D01*
X551272Y68800D02*
X555272Y68800D01*
X555272Y69750D02*
X551272Y69750D01*
X551272Y70700D02*
X555272Y70700D01*
X555272Y71650D02*
X551272Y71650D01*
X551272Y72600D02*
X555272Y72600D01*
X555272Y73550D02*
X551272Y73550D01*
X566272Y74000D02*
X566272Y65000D01*
X562272Y65000D01*
X562272Y74000D01*
X566272Y74000D01*
X566272Y65950D02*
X562272Y65950D01*
X562272Y66900D02*
X566272Y66900D01*
X566272Y67850D02*
X562272Y67850D01*
X562272Y68800D02*
X566272Y68800D01*
X566272Y69750D02*
X562272Y69750D01*
X562272Y70700D02*
X566272Y70700D01*
X566272Y71650D02*
X562272Y71650D01*
X562272Y72600D02*
X566272Y72600D01*
X566272Y73550D02*
X562272Y73550D01*
X577272Y74000D02*
X577272Y65000D01*
X573272Y65000D01*
X573272Y74000D01*
X577272Y74000D01*
X577272Y65950D02*
X573272Y65950D01*
X573272Y66900D02*
X577272Y66900D01*
X577272Y67850D02*
X573272Y67850D01*
X573272Y68800D02*
X577272Y68800D01*
X577272Y69750D02*
X573272Y69750D01*
X573272Y70700D02*
X577272Y70700D01*
X577272Y71650D02*
X573272Y71650D01*
X573272Y72600D02*
X577272Y72600D01*
X577272Y73550D02*
X573272Y73550D01*
X588272Y74000D02*
X588272Y65000D01*
X584272Y65000D01*
X584272Y74000D01*
X588272Y74000D01*
X588272Y65950D02*
X584272Y65950D01*
X584272Y66900D02*
X588272Y66900D01*
X588272Y67850D02*
X584272Y67850D01*
X584272Y68800D02*
X588272Y68800D01*
X588272Y69750D02*
X584272Y69750D01*
X584272Y70700D02*
X588272Y70700D01*
X588272Y71650D02*
X584272Y71650D01*
X584272Y72600D02*
X588272Y72600D01*
X588272Y73550D02*
X584272Y73550D01*
X599272Y74000D02*
X599272Y65000D01*
X595272Y65000D01*
X595272Y74000D01*
X599272Y74000D01*
X599272Y65950D02*
X595272Y65950D01*
X595272Y66900D02*
X599272Y66900D01*
X599272Y67850D02*
X595272Y67850D01*
X595272Y68800D02*
X599272Y68800D01*
X599272Y69750D02*
X595272Y69750D01*
X595272Y70700D02*
X599272Y70700D01*
X599272Y71650D02*
X595272Y71650D01*
X595272Y72600D02*
X599272Y72600D01*
X599272Y73550D02*
X595272Y73550D01*
X610272Y74000D02*
X610272Y65000D01*
X606272Y65000D01*
X606272Y74000D01*
X610272Y74000D01*
X610272Y65950D02*
X606272Y65950D01*
X606272Y66900D02*
X610272Y66900D01*
X610272Y67850D02*
X606272Y67850D01*
X606272Y68800D02*
X610272Y68800D01*
X610272Y69750D02*
X606272Y69750D01*
X606272Y70700D02*
X610272Y70700D01*
X610272Y71650D02*
X606272Y71650D01*
X606272Y72600D02*
X610272Y72600D01*
X610272Y73550D02*
X606272Y73550D01*
X621272Y74000D02*
X621272Y65000D01*
X617272Y65000D01*
X617272Y74000D01*
X621272Y74000D01*
X621272Y65950D02*
X617272Y65950D01*
X617272Y66900D02*
X621272Y66900D01*
X621272Y67850D02*
X617272Y67850D01*
X617272Y68800D02*
X621272Y68800D01*
X621272Y69750D02*
X617272Y69750D01*
X617272Y70700D02*
X621272Y70700D01*
X621272Y71650D02*
X617272Y71650D01*
X617272Y72600D02*
X621272Y72600D01*
X621272Y73550D02*
X617272Y73550D01*
X632272Y74000D02*
X632272Y65000D01*
X628272Y65000D01*
X628272Y74000D01*
X632272Y74000D01*
X632272Y65950D02*
X628272Y65950D01*
X628272Y66900D02*
X632272Y66900D01*
X632272Y67850D02*
X628272Y67850D01*
X628272Y68800D02*
X632272Y68800D01*
X632272Y69750D02*
X628272Y69750D01*
X628272Y70700D02*
X632272Y70700D01*
X632272Y71650D02*
X628272Y71650D01*
X628272Y72600D02*
X632272Y72600D01*
X632272Y73550D02*
X628272Y73550D01*
D11*
X538368Y92904D02*
X532176Y92904D01*
X532176Y99696D01*
X538368Y99696D01*
X538368Y92904D01*
X538368Y93862D02*
X532176Y93862D01*
X532176Y94820D02*
X538368Y94820D01*
X538368Y95778D02*
X532176Y95778D01*
X532176Y96736D02*
X538368Y96736D01*
X538368Y97694D02*
X532176Y97694D01*
X532176Y98652D02*
X538368Y98652D01*
X538368Y99610D02*
X532176Y99610D01*
D12*
X539997Y104125D02*
X539997Y113875D01*
X539997Y104125D02*
X530547Y104125D01*
X530547Y113875D01*
X539997Y113875D01*
X539997Y105122D02*
X530547Y105122D01*
X530547Y106119D02*
X539997Y106119D01*
X539997Y107116D02*
X530547Y107116D01*
X530547Y108113D02*
X539997Y108113D01*
X539997Y109110D02*
X530547Y109110D01*
X530547Y110107D02*
X539997Y110107D01*
X539997Y111104D02*
X530547Y111104D01*
X530547Y112101D02*
X539997Y112101D01*
X539997Y113098D02*
X530547Y113098D01*
X539997Y129625D02*
X539997Y140575D01*
X539997Y129625D02*
X530547Y129625D01*
X530547Y140575D01*
X539997Y140575D01*
X539997Y130622D02*
X530547Y130622D01*
X530547Y131619D02*
X539997Y131619D01*
X539997Y132616D02*
X530547Y132616D01*
X530547Y133613D02*
X539997Y133613D01*
X539997Y134610D02*
X530547Y134610D01*
X530547Y135607D02*
X539997Y135607D01*
X539997Y136604D02*
X530547Y136604D01*
X530547Y137601D02*
X539997Y137601D01*
X539997Y138598D02*
X530547Y138598D01*
X530547Y139595D02*
X539997Y139595D01*
X646747Y134875D02*
X646747Y123925D01*
X637297Y123925D01*
X637297Y134875D01*
X646747Y134875D01*
X646747Y124922D02*
X637297Y124922D01*
X637297Y125919D02*
X646747Y125919D01*
X646747Y126916D02*
X637297Y126916D01*
X637297Y127913D02*
X646747Y127913D01*
X646747Y128910D02*
X637297Y128910D01*
X637297Y129907D02*
X646747Y129907D01*
X646747Y130904D02*
X637297Y130904D01*
X637297Y131901D02*
X646747Y131901D01*
X646747Y132898D02*
X637297Y132898D01*
X637297Y133895D02*
X646747Y133895D01*
X646747Y108975D02*
X646747Y86125D01*
X637297Y86125D01*
X637297Y108975D01*
X646747Y108975D01*
X646747Y87122D02*
X637297Y87122D01*
X637297Y88119D02*
X646747Y88119D01*
X646747Y89116D02*
X637297Y89116D01*
X637297Y90113D02*
X646747Y90113D01*
X646747Y91110D02*
X637297Y91110D01*
X637297Y92107D02*
X646747Y92107D01*
X646747Y93104D02*
X637297Y93104D01*
X637297Y94101D02*
X646747Y94101D01*
X646747Y95098D02*
X637297Y95098D01*
X637297Y96095D02*
X646747Y96095D01*
X646747Y97092D02*
X637297Y97092D01*
X637297Y98089D02*
X646747Y98089D01*
X646747Y99086D02*
X637297Y99086D01*
X637297Y100083D02*
X646747Y100083D01*
X646747Y101080D02*
X637297Y101080D01*
X637297Y102077D02*
X646747Y102077D01*
X646747Y103074D02*
X637297Y103074D01*
X637297Y104071D02*
X646747Y104071D01*
X646747Y105068D02*
X637297Y105068D01*
X637297Y106065D02*
X646747Y106065D01*
X646747Y107062D02*
X637297Y107062D01*
X637297Y108059D02*
X646747Y108059D01*
D13*
X624277Y144105D02*
X596167Y144105D01*
X624277Y144105D02*
X624277Y139595D01*
X596167Y139595D01*
X596167Y144105D01*
X596167Y140535D02*
X624277Y140535D01*
X624277Y141475D02*
X596167Y141475D01*
X596167Y142415D02*
X624277Y142415D01*
X624277Y143355D02*
X596167Y143355D01*
X582377Y144105D02*
X554267Y144105D01*
X582377Y144105D02*
X582377Y139595D01*
X554267Y139595D01*
X554267Y144105D01*
X554267Y140535D02*
X582377Y140535D01*
X582377Y141475D02*
X554267Y141475D01*
X554267Y142415D02*
X582377Y142415D01*
X582377Y143355D02*
X554267Y143355D01*
D10*
X788952Y74000D02*
X788952Y65000D01*
X784952Y65000D01*
X784952Y74000D01*
X788952Y74000D01*
X788952Y65950D02*
X784952Y65950D01*
X784952Y66900D02*
X788952Y66900D01*
X788952Y67850D02*
X784952Y67850D01*
X784952Y68800D02*
X788952Y68800D01*
X788952Y69750D02*
X784952Y69750D01*
X784952Y70700D02*
X788952Y70700D01*
X788952Y71650D02*
X784952Y71650D01*
X784952Y72600D02*
X788952Y72600D01*
X788952Y73550D02*
X784952Y73550D01*
X799952Y74000D02*
X799952Y65000D01*
X795952Y65000D01*
X795952Y74000D01*
X799952Y74000D01*
X799952Y65950D02*
X795952Y65950D01*
X795952Y66900D02*
X799952Y66900D01*
X799952Y67850D02*
X795952Y67850D01*
X795952Y68800D02*
X799952Y68800D01*
X799952Y69750D02*
X795952Y69750D01*
X795952Y70700D02*
X799952Y70700D01*
X799952Y71650D02*
X795952Y71650D01*
X795952Y72600D02*
X799952Y72600D01*
X799952Y73550D02*
X795952Y73550D01*
X810952Y74000D02*
X810952Y65000D01*
X806952Y65000D01*
X806952Y74000D01*
X810952Y74000D01*
X810952Y65950D02*
X806952Y65950D01*
X806952Y66900D02*
X810952Y66900D01*
X810952Y67850D02*
X806952Y67850D01*
X806952Y68800D02*
X810952Y68800D01*
X810952Y69750D02*
X806952Y69750D01*
X806952Y70700D02*
X810952Y70700D01*
X810952Y71650D02*
X806952Y71650D01*
X806952Y72600D02*
X810952Y72600D01*
X810952Y73550D02*
X806952Y73550D01*
X821952Y74000D02*
X821952Y65000D01*
X817952Y65000D01*
X817952Y74000D01*
X821952Y74000D01*
X821952Y65950D02*
X817952Y65950D01*
X817952Y66900D02*
X821952Y66900D01*
X821952Y67850D02*
X817952Y67850D01*
X817952Y68800D02*
X821952Y68800D01*
X821952Y69750D02*
X817952Y69750D01*
X817952Y70700D02*
X821952Y70700D01*
X821952Y71650D02*
X817952Y71650D01*
X817952Y72600D02*
X821952Y72600D01*
X821952Y73550D02*
X817952Y73550D01*
X832952Y74000D02*
X832952Y65000D01*
X828952Y65000D01*
X828952Y74000D01*
X832952Y74000D01*
X832952Y65950D02*
X828952Y65950D01*
X828952Y66900D02*
X832952Y66900D01*
X832952Y67850D02*
X828952Y67850D01*
X828952Y68800D02*
X832952Y68800D01*
X832952Y69750D02*
X828952Y69750D01*
X828952Y70700D02*
X832952Y70700D01*
X832952Y71650D02*
X828952Y71650D01*
X828952Y72600D02*
X832952Y72600D01*
X832952Y73550D02*
X828952Y73550D01*
X843952Y74000D02*
X843952Y65000D01*
X839952Y65000D01*
X839952Y74000D01*
X843952Y74000D01*
X843952Y65950D02*
X839952Y65950D01*
X839952Y66900D02*
X843952Y66900D01*
X843952Y67850D02*
X839952Y67850D01*
X839952Y68800D02*
X843952Y68800D01*
X843952Y69750D02*
X839952Y69750D01*
X839952Y70700D02*
X843952Y70700D01*
X843952Y71650D02*
X839952Y71650D01*
X839952Y72600D02*
X843952Y72600D01*
X843952Y73550D02*
X839952Y73550D01*
X854952Y74000D02*
X854952Y65000D01*
X850952Y65000D01*
X850952Y74000D01*
X854952Y74000D01*
X854952Y65950D02*
X850952Y65950D01*
X850952Y66900D02*
X854952Y66900D01*
X854952Y67850D02*
X850952Y67850D01*
X850952Y68800D02*
X854952Y68800D01*
X854952Y69750D02*
X850952Y69750D01*
X850952Y70700D02*
X854952Y70700D01*
X854952Y71650D02*
X850952Y71650D01*
X850952Y72600D02*
X854952Y72600D01*
X854952Y73550D02*
X850952Y73550D01*
X865952Y74000D02*
X865952Y65000D01*
X861952Y65000D01*
X861952Y74000D01*
X865952Y74000D01*
X865952Y65950D02*
X861952Y65950D01*
X861952Y66900D02*
X865952Y66900D01*
X865952Y67850D02*
X861952Y67850D01*
X861952Y68800D02*
X865952Y68800D01*
X865952Y69750D02*
X861952Y69750D01*
X861952Y70700D02*
X865952Y70700D01*
X865952Y71650D02*
X861952Y71650D01*
X861952Y72600D02*
X865952Y72600D01*
X865952Y73550D02*
X861952Y73550D01*
D11*
X772048Y92904D02*
X765856Y92904D01*
X765856Y99696D01*
X772048Y99696D01*
X772048Y92904D01*
X772048Y93862D02*
X765856Y93862D01*
X765856Y94820D02*
X772048Y94820D01*
X772048Y95778D02*
X765856Y95778D01*
X765856Y96736D02*
X772048Y96736D01*
X772048Y97694D02*
X765856Y97694D01*
X765856Y98652D02*
X772048Y98652D01*
X772048Y99610D02*
X765856Y99610D01*
D12*
X773677Y104125D02*
X773677Y113875D01*
X773677Y104125D02*
X764227Y104125D01*
X764227Y113875D01*
X773677Y113875D01*
X773677Y105122D02*
X764227Y105122D01*
X764227Y106119D02*
X773677Y106119D01*
X773677Y107116D02*
X764227Y107116D01*
X764227Y108113D02*
X773677Y108113D01*
X773677Y109110D02*
X764227Y109110D01*
X764227Y110107D02*
X773677Y110107D01*
X773677Y111104D02*
X764227Y111104D01*
X764227Y112101D02*
X773677Y112101D01*
X773677Y113098D02*
X764227Y113098D01*
X773677Y129625D02*
X773677Y140575D01*
X773677Y129625D02*
X764227Y129625D01*
X764227Y140575D01*
X773677Y140575D01*
X773677Y130622D02*
X764227Y130622D01*
X764227Y131619D02*
X773677Y131619D01*
X773677Y132616D02*
X764227Y132616D01*
X764227Y133613D02*
X773677Y133613D01*
X773677Y134610D02*
X764227Y134610D01*
X764227Y135607D02*
X773677Y135607D01*
X773677Y136604D02*
X764227Y136604D01*
X764227Y137601D02*
X773677Y137601D01*
X773677Y138598D02*
X764227Y138598D01*
X764227Y139595D02*
X773677Y139595D01*
X880427Y134875D02*
X880427Y123925D01*
X870977Y123925D01*
X870977Y134875D01*
X880427Y134875D01*
X880427Y124922D02*
X870977Y124922D01*
X870977Y125919D02*
X880427Y125919D01*
X880427Y126916D02*
X870977Y126916D01*
X870977Y127913D02*
X880427Y127913D01*
X880427Y128910D02*
X870977Y128910D01*
X870977Y129907D02*
X880427Y129907D01*
X880427Y130904D02*
X870977Y130904D01*
X870977Y131901D02*
X880427Y131901D01*
X880427Y132898D02*
X870977Y132898D01*
X870977Y133895D02*
X880427Y133895D01*
X880427Y108975D02*
X880427Y86125D01*
X870977Y86125D01*
X870977Y108975D01*
X880427Y108975D01*
X880427Y87122D02*
X870977Y87122D01*
X870977Y88119D02*
X880427Y88119D01*
X880427Y89116D02*
X870977Y89116D01*
X870977Y90113D02*
X880427Y90113D01*
X880427Y91110D02*
X870977Y91110D01*
X870977Y92107D02*
X880427Y92107D01*
X880427Y93104D02*
X870977Y93104D01*
X870977Y94101D02*
X880427Y94101D01*
X880427Y95098D02*
X870977Y95098D01*
X870977Y96095D02*
X880427Y96095D01*
X880427Y97092D02*
X870977Y97092D01*
X870977Y98089D02*
X880427Y98089D01*
X880427Y99086D02*
X870977Y99086D01*
X870977Y100083D02*
X880427Y100083D01*
X880427Y101080D02*
X870977Y101080D01*
X870977Y102077D02*
X880427Y102077D01*
X880427Y103074D02*
X870977Y103074D01*
X870977Y104071D02*
X880427Y104071D01*
X880427Y105068D02*
X870977Y105068D01*
X870977Y106065D02*
X880427Y106065D01*
X880427Y107062D02*
X870977Y107062D01*
X870977Y108059D02*
X880427Y108059D01*
D13*
X857957Y144105D02*
X829847Y144105D01*
X857957Y144105D02*
X857957Y139595D01*
X829847Y139595D01*
X829847Y144105D01*
X829847Y140535D02*
X857957Y140535D01*
X857957Y141475D02*
X829847Y141475D01*
X829847Y142415D02*
X857957Y142415D01*
X857957Y143355D02*
X829847Y143355D01*
X816057Y144105D02*
X787947Y144105D01*
X816057Y144105D02*
X816057Y139595D01*
X787947Y139595D01*
X787947Y144105D01*
X787947Y140535D02*
X816057Y140535D01*
X816057Y141475D02*
X787947Y141475D01*
X787947Y142415D02*
X816057Y142415D01*
X816057Y143355D02*
X787947Y143355D01*
D10*
X1022632Y74000D02*
X1022632Y65000D01*
X1018632Y65000D01*
X1018632Y74000D01*
X1022632Y74000D01*
X1022632Y65950D02*
X1018632Y65950D01*
X1018632Y66900D02*
X1022632Y66900D01*
X1022632Y67850D02*
X1018632Y67850D01*
X1018632Y68800D02*
X1022632Y68800D01*
X1022632Y69750D02*
X1018632Y69750D01*
X1018632Y70700D02*
X1022632Y70700D01*
X1022632Y71650D02*
X1018632Y71650D01*
X1018632Y72600D02*
X1022632Y72600D01*
X1022632Y73550D02*
X1018632Y73550D01*
X1033632Y74000D02*
X1033632Y65000D01*
X1029632Y65000D01*
X1029632Y74000D01*
X1033632Y74000D01*
X1033632Y65950D02*
X1029632Y65950D01*
X1029632Y66900D02*
X1033632Y66900D01*
X1033632Y67850D02*
X1029632Y67850D01*
X1029632Y68800D02*
X1033632Y68800D01*
X1033632Y69750D02*
X1029632Y69750D01*
X1029632Y70700D02*
X1033632Y70700D01*
X1033632Y71650D02*
X1029632Y71650D01*
X1029632Y72600D02*
X1033632Y72600D01*
X1033632Y73550D02*
X1029632Y73550D01*
X1044632Y74000D02*
X1044632Y65000D01*
X1040632Y65000D01*
X1040632Y74000D01*
X1044632Y74000D01*
X1044632Y65950D02*
X1040632Y65950D01*
X1040632Y66900D02*
X1044632Y66900D01*
X1044632Y67850D02*
X1040632Y67850D01*
X1040632Y68800D02*
X1044632Y68800D01*
X1044632Y69750D02*
X1040632Y69750D01*
X1040632Y70700D02*
X1044632Y70700D01*
X1044632Y71650D02*
X1040632Y71650D01*
X1040632Y72600D02*
X1044632Y72600D01*
X1044632Y73550D02*
X1040632Y73550D01*
X1055632Y74000D02*
X1055632Y65000D01*
X1051632Y65000D01*
X1051632Y74000D01*
X1055632Y74000D01*
X1055632Y65950D02*
X1051632Y65950D01*
X1051632Y66900D02*
X1055632Y66900D01*
X1055632Y67850D02*
X1051632Y67850D01*
X1051632Y68800D02*
X1055632Y68800D01*
X1055632Y69750D02*
X1051632Y69750D01*
X1051632Y70700D02*
X1055632Y70700D01*
X1055632Y71650D02*
X1051632Y71650D01*
X1051632Y72600D02*
X1055632Y72600D01*
X1055632Y73550D02*
X1051632Y73550D01*
X1066632Y74000D02*
X1066632Y65000D01*
X1062632Y65000D01*
X1062632Y74000D01*
X1066632Y74000D01*
X1066632Y65950D02*
X1062632Y65950D01*
X1062632Y66900D02*
X1066632Y66900D01*
X1066632Y67850D02*
X1062632Y67850D01*
X1062632Y68800D02*
X1066632Y68800D01*
X1066632Y69750D02*
X1062632Y69750D01*
X1062632Y70700D02*
X1066632Y70700D01*
X1066632Y71650D02*
X1062632Y71650D01*
X1062632Y72600D02*
X1066632Y72600D01*
X1066632Y73550D02*
X1062632Y73550D01*
X1077632Y74000D02*
X1077632Y65000D01*
X1073632Y65000D01*
X1073632Y74000D01*
X1077632Y74000D01*
X1077632Y65950D02*
X1073632Y65950D01*
X1073632Y66900D02*
X1077632Y66900D01*
X1077632Y67850D02*
X1073632Y67850D01*
X1073632Y68800D02*
X1077632Y68800D01*
X1077632Y69750D02*
X1073632Y69750D01*
X1073632Y70700D02*
X1077632Y70700D01*
X1077632Y71650D02*
X1073632Y71650D01*
X1073632Y72600D02*
X1077632Y72600D01*
X1077632Y73550D02*
X1073632Y73550D01*
X1088632Y74000D02*
X1088632Y65000D01*
X1084632Y65000D01*
X1084632Y74000D01*
X1088632Y74000D01*
X1088632Y65950D02*
X1084632Y65950D01*
X1084632Y66900D02*
X1088632Y66900D01*
X1088632Y67850D02*
X1084632Y67850D01*
X1084632Y68800D02*
X1088632Y68800D01*
X1088632Y69750D02*
X1084632Y69750D01*
X1084632Y70700D02*
X1088632Y70700D01*
X1088632Y71650D02*
X1084632Y71650D01*
X1084632Y72600D02*
X1088632Y72600D01*
X1088632Y73550D02*
X1084632Y73550D01*
X1099632Y74000D02*
X1099632Y65000D01*
X1095632Y65000D01*
X1095632Y74000D01*
X1099632Y74000D01*
X1099632Y65950D02*
X1095632Y65950D01*
X1095632Y66900D02*
X1099632Y66900D01*
X1099632Y67850D02*
X1095632Y67850D01*
X1095632Y68800D02*
X1099632Y68800D01*
X1099632Y69750D02*
X1095632Y69750D01*
X1095632Y70700D02*
X1099632Y70700D01*
X1099632Y71650D02*
X1095632Y71650D01*
X1095632Y72600D02*
X1099632Y72600D01*
X1099632Y73550D02*
X1095632Y73550D01*
D11*
X1005728Y92904D02*
X999536Y92904D01*
X999536Y99696D01*
X1005728Y99696D01*
X1005728Y92904D01*
X1005728Y93862D02*
X999536Y93862D01*
X999536Y94820D02*
X1005728Y94820D01*
X1005728Y95778D02*
X999536Y95778D01*
X999536Y96736D02*
X1005728Y96736D01*
X1005728Y97694D02*
X999536Y97694D01*
X999536Y98652D02*
X1005728Y98652D01*
X1005728Y99610D02*
X999536Y99610D01*
D12*
X1007357Y104125D02*
X1007357Y113875D01*
X1007357Y104125D02*
X997907Y104125D01*
X997907Y113875D01*
X1007357Y113875D01*
X1007357Y105122D02*
X997907Y105122D01*
X997907Y106119D02*
X1007357Y106119D01*
X1007357Y107116D02*
X997907Y107116D01*
X997907Y108113D02*
X1007357Y108113D01*
X1007357Y109110D02*
X997907Y109110D01*
X997907Y110107D02*
X1007357Y110107D01*
X1007357Y111104D02*
X997907Y111104D01*
X997907Y112101D02*
X1007357Y112101D01*
X1007357Y113098D02*
X997907Y113098D01*
X1007357Y129625D02*
X1007357Y140575D01*
X1007357Y129625D02*
X997907Y129625D01*
X997907Y140575D01*
X1007357Y140575D01*
X1007357Y130622D02*
X997907Y130622D01*
X997907Y131619D02*
X1007357Y131619D01*
X1007357Y132616D02*
X997907Y132616D01*
X997907Y133613D02*
X1007357Y133613D01*
X1007357Y134610D02*
X997907Y134610D01*
X997907Y135607D02*
X1007357Y135607D01*
X1007357Y136604D02*
X997907Y136604D01*
X997907Y137601D02*
X1007357Y137601D01*
X1007357Y138598D02*
X997907Y138598D01*
X997907Y139595D02*
X1007357Y139595D01*
X1114107Y134875D02*
X1114107Y123925D01*
X1104657Y123925D01*
X1104657Y134875D01*
X1114107Y134875D01*
X1114107Y124922D02*
X1104657Y124922D01*
X1104657Y125919D02*
X1114107Y125919D01*
X1114107Y126916D02*
X1104657Y126916D01*
X1104657Y127913D02*
X1114107Y127913D01*
X1114107Y128910D02*
X1104657Y128910D01*
X1104657Y129907D02*
X1114107Y129907D01*
X1114107Y130904D02*
X1104657Y130904D01*
X1104657Y131901D02*
X1114107Y131901D01*
X1114107Y132898D02*
X1104657Y132898D01*
X1104657Y133895D02*
X1114107Y133895D01*
X1114107Y108975D02*
X1114107Y86125D01*
X1104657Y86125D01*
X1104657Y108975D01*
X1114107Y108975D01*
X1114107Y87122D02*
X1104657Y87122D01*
X1104657Y88119D02*
X1114107Y88119D01*
X1114107Y89116D02*
X1104657Y89116D01*
X1104657Y90113D02*
X1114107Y90113D01*
X1114107Y91110D02*
X1104657Y91110D01*
X1104657Y92107D02*
X1114107Y92107D01*
X1114107Y93104D02*
X1104657Y93104D01*
X1104657Y94101D02*
X1114107Y94101D01*
X1114107Y95098D02*
X1104657Y95098D01*
X1104657Y96095D02*
X1114107Y96095D01*
X1114107Y97092D02*
X1104657Y97092D01*
X1104657Y98089D02*
X1114107Y98089D01*
X1114107Y99086D02*
X1104657Y99086D01*
X1104657Y100083D02*
X1114107Y100083D01*
X1114107Y101080D02*
X1104657Y101080D01*
X1104657Y102077D02*
X1114107Y102077D01*
X1114107Y103074D02*
X1104657Y103074D01*
X1104657Y104071D02*
X1114107Y104071D01*
X1114107Y105068D02*
X1104657Y105068D01*
X1104657Y106065D02*
X1114107Y106065D01*
X1114107Y107062D02*
X1104657Y107062D01*
X1104657Y108059D02*
X1114107Y108059D01*
D13*
X1091637Y144105D02*
X1063527Y144105D01*
X1091637Y144105D02*
X1091637Y139595D01*
X1063527Y139595D01*
X1063527Y144105D01*
X1063527Y140535D02*
X1091637Y140535D01*
X1091637Y141475D02*
X1063527Y141475D01*
X1063527Y142415D02*
X1091637Y142415D01*
X1091637Y143355D02*
X1063527Y143355D01*
X1049737Y144105D02*
X1021627Y144105D01*
X1049737Y144105D02*
X1049737Y139595D01*
X1021627Y139595D01*
X1021627Y144105D01*
X1021627Y140535D02*
X1049737Y140535D01*
X1049737Y141475D02*
X1021627Y141475D01*
X1021627Y142415D02*
X1049737Y142415D01*
X1049737Y143355D02*
X1021627Y143355D01*
D10*
X87912Y755880D02*
X87912Y764880D01*
X87912Y755880D02*
X83912Y755880D01*
X83912Y764880D01*
X87912Y764880D01*
X87912Y756830D02*
X83912Y756830D01*
X83912Y757780D02*
X87912Y757780D01*
X87912Y758730D02*
X83912Y758730D01*
X83912Y759680D02*
X87912Y759680D01*
X87912Y760630D02*
X83912Y760630D01*
X83912Y761580D02*
X87912Y761580D01*
X87912Y762530D02*
X83912Y762530D01*
X83912Y763480D02*
X87912Y763480D01*
X87912Y764430D02*
X83912Y764430D01*
X98912Y764880D02*
X98912Y755880D01*
X94912Y755880D01*
X94912Y764880D01*
X98912Y764880D01*
X98912Y756830D02*
X94912Y756830D01*
X94912Y757780D02*
X98912Y757780D01*
X98912Y758730D02*
X94912Y758730D01*
X94912Y759680D02*
X98912Y759680D01*
X98912Y760630D02*
X94912Y760630D01*
X94912Y761580D02*
X98912Y761580D01*
X98912Y762530D02*
X94912Y762530D01*
X94912Y763480D02*
X98912Y763480D01*
X98912Y764430D02*
X94912Y764430D01*
X109912Y764880D02*
X109912Y755880D01*
X105912Y755880D01*
X105912Y764880D01*
X109912Y764880D01*
X109912Y756830D02*
X105912Y756830D01*
X105912Y757780D02*
X109912Y757780D01*
X109912Y758730D02*
X105912Y758730D01*
X105912Y759680D02*
X109912Y759680D01*
X109912Y760630D02*
X105912Y760630D01*
X105912Y761580D02*
X109912Y761580D01*
X109912Y762530D02*
X105912Y762530D01*
X105912Y763480D02*
X109912Y763480D01*
X109912Y764430D02*
X105912Y764430D01*
X120912Y764880D02*
X120912Y755880D01*
X116912Y755880D01*
X116912Y764880D01*
X120912Y764880D01*
X120912Y756830D02*
X116912Y756830D01*
X116912Y757780D02*
X120912Y757780D01*
X120912Y758730D02*
X116912Y758730D01*
X116912Y759680D02*
X120912Y759680D01*
X120912Y760630D02*
X116912Y760630D01*
X116912Y761580D02*
X120912Y761580D01*
X120912Y762530D02*
X116912Y762530D01*
X116912Y763480D02*
X120912Y763480D01*
X120912Y764430D02*
X116912Y764430D01*
X131912Y764880D02*
X131912Y755880D01*
X127912Y755880D01*
X127912Y764880D01*
X131912Y764880D01*
X131912Y756830D02*
X127912Y756830D01*
X127912Y757780D02*
X131912Y757780D01*
X131912Y758730D02*
X127912Y758730D01*
X127912Y759680D02*
X131912Y759680D01*
X131912Y760630D02*
X127912Y760630D01*
X127912Y761580D02*
X131912Y761580D01*
X131912Y762530D02*
X127912Y762530D01*
X127912Y763480D02*
X131912Y763480D01*
X131912Y764430D02*
X127912Y764430D01*
X142912Y764880D02*
X142912Y755880D01*
X138912Y755880D01*
X138912Y764880D01*
X142912Y764880D01*
X142912Y756830D02*
X138912Y756830D01*
X138912Y757780D02*
X142912Y757780D01*
X142912Y758730D02*
X138912Y758730D01*
X138912Y759680D02*
X142912Y759680D01*
X142912Y760630D02*
X138912Y760630D01*
X138912Y761580D02*
X142912Y761580D01*
X142912Y762530D02*
X138912Y762530D01*
X138912Y763480D02*
X142912Y763480D01*
X142912Y764430D02*
X138912Y764430D01*
X153912Y764880D02*
X153912Y755880D01*
X149912Y755880D01*
X149912Y764880D01*
X153912Y764880D01*
X153912Y756830D02*
X149912Y756830D01*
X149912Y757780D02*
X153912Y757780D01*
X153912Y758730D02*
X149912Y758730D01*
X149912Y759680D02*
X153912Y759680D01*
X153912Y760630D02*
X149912Y760630D01*
X149912Y761580D02*
X153912Y761580D01*
X153912Y762530D02*
X149912Y762530D01*
X149912Y763480D02*
X153912Y763480D01*
X153912Y764430D02*
X149912Y764430D01*
X164912Y764880D02*
X164912Y755880D01*
X160912Y755880D01*
X160912Y764880D01*
X164912Y764880D01*
X164912Y756830D02*
X160912Y756830D01*
X160912Y757780D02*
X164912Y757780D01*
X164912Y758730D02*
X160912Y758730D01*
X160912Y759680D02*
X164912Y759680D01*
X164912Y760630D02*
X160912Y760630D01*
X160912Y761580D02*
X164912Y761580D01*
X164912Y762530D02*
X160912Y762530D01*
X160912Y763480D02*
X164912Y763480D01*
X164912Y764430D02*
X160912Y764430D01*
D11*
X71008Y783784D02*
X64816Y783784D01*
X64816Y790576D01*
X71008Y790576D01*
X71008Y783784D01*
X71008Y784742D02*
X64816Y784742D01*
X64816Y785700D02*
X71008Y785700D01*
X71008Y786658D02*
X64816Y786658D01*
X64816Y787616D02*
X71008Y787616D01*
X71008Y788574D02*
X64816Y788574D01*
X64816Y789532D02*
X71008Y789532D01*
X71008Y790490D02*
X64816Y790490D01*
D12*
X72637Y795005D02*
X72637Y804755D01*
X72637Y795005D02*
X63187Y795005D01*
X63187Y804755D01*
X72637Y804755D01*
X72637Y796002D02*
X63187Y796002D01*
X63187Y796999D02*
X72637Y796999D01*
X72637Y797996D02*
X63187Y797996D01*
X63187Y798993D02*
X72637Y798993D01*
X72637Y799990D02*
X63187Y799990D01*
X63187Y800987D02*
X72637Y800987D01*
X72637Y801984D02*
X63187Y801984D01*
X63187Y802981D02*
X72637Y802981D01*
X72637Y803978D02*
X63187Y803978D01*
X72637Y820505D02*
X72637Y831455D01*
X72637Y820505D02*
X63187Y820505D01*
X63187Y831455D01*
X72637Y831455D01*
X72637Y821502D02*
X63187Y821502D01*
X63187Y822499D02*
X72637Y822499D01*
X72637Y823496D02*
X63187Y823496D01*
X63187Y824493D02*
X72637Y824493D01*
X72637Y825490D02*
X63187Y825490D01*
X63187Y826487D02*
X72637Y826487D01*
X72637Y827484D02*
X63187Y827484D01*
X63187Y828481D02*
X72637Y828481D01*
X72637Y829478D02*
X63187Y829478D01*
X63187Y830475D02*
X72637Y830475D01*
X179387Y825755D02*
X179387Y814805D01*
X169937Y814805D01*
X169937Y825755D01*
X179387Y825755D01*
X179387Y815802D02*
X169937Y815802D01*
X169937Y816799D02*
X179387Y816799D01*
X179387Y817796D02*
X169937Y817796D01*
X169937Y818793D02*
X179387Y818793D01*
X179387Y819790D02*
X169937Y819790D01*
X169937Y820787D02*
X179387Y820787D01*
X179387Y821784D02*
X169937Y821784D01*
X169937Y822781D02*
X179387Y822781D01*
X179387Y823778D02*
X169937Y823778D01*
X169937Y824775D02*
X179387Y824775D01*
X179387Y799855D02*
X179387Y777005D01*
X169937Y777005D01*
X169937Y799855D01*
X179387Y799855D01*
X179387Y778002D02*
X169937Y778002D01*
X169937Y778999D02*
X179387Y778999D01*
X179387Y779996D02*
X169937Y779996D01*
X169937Y780993D02*
X179387Y780993D01*
X179387Y781990D02*
X169937Y781990D01*
X169937Y782987D02*
X179387Y782987D01*
X179387Y783984D02*
X169937Y783984D01*
X169937Y784981D02*
X179387Y784981D01*
X179387Y785978D02*
X169937Y785978D01*
X169937Y786975D02*
X179387Y786975D01*
X179387Y787972D02*
X169937Y787972D01*
X169937Y788969D02*
X179387Y788969D01*
X179387Y789966D02*
X169937Y789966D01*
X169937Y790963D02*
X179387Y790963D01*
X179387Y791960D02*
X169937Y791960D01*
X169937Y792957D02*
X179387Y792957D01*
X179387Y793954D02*
X169937Y793954D01*
X169937Y794951D02*
X179387Y794951D01*
X179387Y795948D02*
X169937Y795948D01*
X169937Y796945D02*
X179387Y796945D01*
X179387Y797942D02*
X169937Y797942D01*
X169937Y798939D02*
X179387Y798939D01*
D13*
X156917Y834985D02*
X128807Y834985D01*
X156917Y834985D02*
X156917Y830475D01*
X128807Y830475D01*
X128807Y834985D01*
X128807Y831415D02*
X156917Y831415D01*
X156917Y832355D02*
X128807Y832355D01*
X128807Y833295D02*
X156917Y833295D01*
X156917Y834235D02*
X128807Y834235D01*
X115017Y834985D02*
X86907Y834985D01*
X115017Y834985D02*
X115017Y830475D01*
X86907Y830475D01*
X86907Y834985D01*
X86907Y831415D02*
X115017Y831415D01*
X115017Y832355D02*
X86907Y832355D01*
X86907Y833295D02*
X115017Y833295D01*
X115017Y834235D02*
X86907Y834235D01*
D10*
X321592Y764880D02*
X321592Y755880D01*
X317592Y755880D01*
X317592Y764880D01*
X321592Y764880D01*
X321592Y756830D02*
X317592Y756830D01*
X317592Y757780D02*
X321592Y757780D01*
X321592Y758730D02*
X317592Y758730D01*
X317592Y759680D02*
X321592Y759680D01*
X321592Y760630D02*
X317592Y760630D01*
X317592Y761580D02*
X321592Y761580D01*
X321592Y762530D02*
X317592Y762530D01*
X317592Y763480D02*
X321592Y763480D01*
X321592Y764430D02*
X317592Y764430D01*
X332592Y764880D02*
X332592Y755880D01*
X328592Y755880D01*
X328592Y764880D01*
X332592Y764880D01*
X332592Y756830D02*
X328592Y756830D01*
X328592Y757780D02*
X332592Y757780D01*
X332592Y758730D02*
X328592Y758730D01*
X328592Y759680D02*
X332592Y759680D01*
X332592Y760630D02*
X328592Y760630D01*
X328592Y761580D02*
X332592Y761580D01*
X332592Y762530D02*
X328592Y762530D01*
X328592Y763480D02*
X332592Y763480D01*
X332592Y764430D02*
X328592Y764430D01*
X343592Y764880D02*
X343592Y755880D01*
X339592Y755880D01*
X339592Y764880D01*
X343592Y764880D01*
X343592Y756830D02*
X339592Y756830D01*
X339592Y757780D02*
X343592Y757780D01*
X343592Y758730D02*
X339592Y758730D01*
X339592Y759680D02*
X343592Y759680D01*
X343592Y760630D02*
X339592Y760630D01*
X339592Y761580D02*
X343592Y761580D01*
X343592Y762530D02*
X339592Y762530D01*
X339592Y763480D02*
X343592Y763480D01*
X343592Y764430D02*
X339592Y764430D01*
X354592Y764880D02*
X354592Y755880D01*
X350592Y755880D01*
X350592Y764880D01*
X354592Y764880D01*
X354592Y756830D02*
X350592Y756830D01*
X350592Y757780D02*
X354592Y757780D01*
X354592Y758730D02*
X350592Y758730D01*
X350592Y759680D02*
X354592Y759680D01*
X354592Y760630D02*
X350592Y760630D01*
X350592Y761580D02*
X354592Y761580D01*
X354592Y762530D02*
X350592Y762530D01*
X350592Y763480D02*
X354592Y763480D01*
X354592Y764430D02*
X350592Y764430D01*
X365592Y764880D02*
X365592Y755880D01*
X361592Y755880D01*
X361592Y764880D01*
X365592Y764880D01*
X365592Y756830D02*
X361592Y756830D01*
X361592Y757780D02*
X365592Y757780D01*
X365592Y758730D02*
X361592Y758730D01*
X361592Y759680D02*
X365592Y759680D01*
X365592Y760630D02*
X361592Y760630D01*
X361592Y761580D02*
X365592Y761580D01*
X365592Y762530D02*
X361592Y762530D01*
X361592Y763480D02*
X365592Y763480D01*
X365592Y764430D02*
X361592Y764430D01*
X376592Y764880D02*
X376592Y755880D01*
X372592Y755880D01*
X372592Y764880D01*
X376592Y764880D01*
X376592Y756830D02*
X372592Y756830D01*
X372592Y757780D02*
X376592Y757780D01*
X376592Y758730D02*
X372592Y758730D01*
X372592Y759680D02*
X376592Y759680D01*
X376592Y760630D02*
X372592Y760630D01*
X372592Y761580D02*
X376592Y761580D01*
X376592Y762530D02*
X372592Y762530D01*
X372592Y763480D02*
X376592Y763480D01*
X376592Y764430D02*
X372592Y764430D01*
X387592Y764880D02*
X387592Y755880D01*
X383592Y755880D01*
X383592Y764880D01*
X387592Y764880D01*
X387592Y756830D02*
X383592Y756830D01*
X383592Y757780D02*
X387592Y757780D01*
X387592Y758730D02*
X383592Y758730D01*
X383592Y759680D02*
X387592Y759680D01*
X387592Y760630D02*
X383592Y760630D01*
X383592Y761580D02*
X387592Y761580D01*
X387592Y762530D02*
X383592Y762530D01*
X383592Y763480D02*
X387592Y763480D01*
X387592Y764430D02*
X383592Y764430D01*
X398592Y764880D02*
X398592Y755880D01*
X394592Y755880D01*
X394592Y764880D01*
X398592Y764880D01*
X398592Y756830D02*
X394592Y756830D01*
X394592Y757780D02*
X398592Y757780D01*
X398592Y758730D02*
X394592Y758730D01*
X394592Y759680D02*
X398592Y759680D01*
X398592Y760630D02*
X394592Y760630D01*
X394592Y761580D02*
X398592Y761580D01*
X398592Y762530D02*
X394592Y762530D01*
X394592Y763480D02*
X398592Y763480D01*
X398592Y764430D02*
X394592Y764430D01*
D11*
X304688Y783784D02*
X298496Y783784D01*
X298496Y790576D01*
X304688Y790576D01*
X304688Y783784D01*
X304688Y784742D02*
X298496Y784742D01*
X298496Y785700D02*
X304688Y785700D01*
X304688Y786658D02*
X298496Y786658D01*
X298496Y787616D02*
X304688Y787616D01*
X304688Y788574D02*
X298496Y788574D01*
X298496Y789532D02*
X304688Y789532D01*
X304688Y790490D02*
X298496Y790490D01*
D12*
X306317Y795005D02*
X306317Y804755D01*
X306317Y795005D02*
X296867Y795005D01*
X296867Y804755D01*
X306317Y804755D01*
X306317Y796002D02*
X296867Y796002D01*
X296867Y796999D02*
X306317Y796999D01*
X306317Y797996D02*
X296867Y797996D01*
X296867Y798993D02*
X306317Y798993D01*
X306317Y799990D02*
X296867Y799990D01*
X296867Y800987D02*
X306317Y800987D01*
X306317Y801984D02*
X296867Y801984D01*
X296867Y802981D02*
X306317Y802981D01*
X306317Y803978D02*
X296867Y803978D01*
X306317Y820505D02*
X306317Y831455D01*
X306317Y820505D02*
X296867Y820505D01*
X296867Y831455D01*
X306317Y831455D01*
X306317Y821502D02*
X296867Y821502D01*
X296867Y822499D02*
X306317Y822499D01*
X306317Y823496D02*
X296867Y823496D01*
X296867Y824493D02*
X306317Y824493D01*
X306317Y825490D02*
X296867Y825490D01*
X296867Y826487D02*
X306317Y826487D01*
X306317Y827484D02*
X296867Y827484D01*
X296867Y828481D02*
X306317Y828481D01*
X306317Y829478D02*
X296867Y829478D01*
X296867Y830475D02*
X306317Y830475D01*
X413067Y825755D02*
X413067Y814805D01*
X403617Y814805D01*
X403617Y825755D01*
X413067Y825755D01*
X413067Y815802D02*
X403617Y815802D01*
X403617Y816799D02*
X413067Y816799D01*
X413067Y817796D02*
X403617Y817796D01*
X403617Y818793D02*
X413067Y818793D01*
X413067Y819790D02*
X403617Y819790D01*
X403617Y820787D02*
X413067Y820787D01*
X413067Y821784D02*
X403617Y821784D01*
X403617Y822781D02*
X413067Y822781D01*
X413067Y823778D02*
X403617Y823778D01*
X403617Y824775D02*
X413067Y824775D01*
X413067Y799855D02*
X413067Y777005D01*
X403617Y777005D01*
X403617Y799855D01*
X413067Y799855D01*
X413067Y778002D02*
X403617Y778002D01*
X403617Y778999D02*
X413067Y778999D01*
X413067Y779996D02*
X403617Y779996D01*
X403617Y780993D02*
X413067Y780993D01*
X413067Y781990D02*
X403617Y781990D01*
X403617Y782987D02*
X413067Y782987D01*
X413067Y783984D02*
X403617Y783984D01*
X403617Y784981D02*
X413067Y784981D01*
X413067Y785978D02*
X403617Y785978D01*
X403617Y786975D02*
X413067Y786975D01*
X413067Y787972D02*
X403617Y787972D01*
X403617Y788969D02*
X413067Y788969D01*
X413067Y789966D02*
X403617Y789966D01*
X403617Y790963D02*
X413067Y790963D01*
X413067Y791960D02*
X403617Y791960D01*
X403617Y792957D02*
X413067Y792957D01*
X413067Y793954D02*
X403617Y793954D01*
X403617Y794951D02*
X413067Y794951D01*
X413067Y795948D02*
X403617Y795948D01*
X403617Y796945D02*
X413067Y796945D01*
X413067Y797942D02*
X403617Y797942D01*
X403617Y798939D02*
X413067Y798939D01*
D13*
X390597Y834985D02*
X362487Y834985D01*
X390597Y834985D02*
X390597Y830475D01*
X362487Y830475D01*
X362487Y834985D01*
X362487Y831415D02*
X390597Y831415D01*
X390597Y832355D02*
X362487Y832355D01*
X362487Y833295D02*
X390597Y833295D01*
X390597Y834235D02*
X362487Y834235D01*
X348697Y834985D02*
X320587Y834985D01*
X348697Y834985D02*
X348697Y830475D01*
X320587Y830475D01*
X320587Y834985D01*
X320587Y831415D02*
X348697Y831415D01*
X348697Y832355D02*
X320587Y832355D01*
X320587Y833295D02*
X348697Y833295D01*
X348697Y834235D02*
X320587Y834235D01*
D10*
X555272Y764880D02*
X555272Y755880D01*
X551272Y755880D01*
X551272Y764880D01*
X555272Y764880D01*
X555272Y756830D02*
X551272Y756830D01*
X551272Y757780D02*
X555272Y757780D01*
X555272Y758730D02*
X551272Y758730D01*
X551272Y759680D02*
X555272Y759680D01*
X555272Y760630D02*
X551272Y760630D01*
X551272Y761580D02*
X555272Y761580D01*
X555272Y762530D02*
X551272Y762530D01*
X551272Y763480D02*
X555272Y763480D01*
X555272Y764430D02*
X551272Y764430D01*
X566272Y764880D02*
X566272Y755880D01*
X562272Y755880D01*
X562272Y764880D01*
X566272Y764880D01*
X566272Y756830D02*
X562272Y756830D01*
X562272Y757780D02*
X566272Y757780D01*
X566272Y758730D02*
X562272Y758730D01*
X562272Y759680D02*
X566272Y759680D01*
X566272Y760630D02*
X562272Y760630D01*
X562272Y761580D02*
X566272Y761580D01*
X566272Y762530D02*
X562272Y762530D01*
X562272Y763480D02*
X566272Y763480D01*
X566272Y764430D02*
X562272Y764430D01*
X577272Y764880D02*
X577272Y755880D01*
X573272Y755880D01*
X573272Y764880D01*
X577272Y764880D01*
X577272Y756830D02*
X573272Y756830D01*
X573272Y757780D02*
X577272Y757780D01*
X577272Y758730D02*
X573272Y758730D01*
X573272Y759680D02*
X577272Y759680D01*
X577272Y760630D02*
X573272Y760630D01*
X573272Y761580D02*
X577272Y761580D01*
X577272Y762530D02*
X573272Y762530D01*
X573272Y763480D02*
X577272Y763480D01*
X577272Y764430D02*
X573272Y764430D01*
X588272Y764880D02*
X588272Y755880D01*
X584272Y755880D01*
X584272Y764880D01*
X588272Y764880D01*
X588272Y756830D02*
X584272Y756830D01*
X584272Y757780D02*
X588272Y757780D01*
X588272Y758730D02*
X584272Y758730D01*
X584272Y759680D02*
X588272Y759680D01*
X588272Y760630D02*
X584272Y760630D01*
X584272Y761580D02*
X588272Y761580D01*
X588272Y762530D02*
X584272Y762530D01*
X584272Y763480D02*
X588272Y763480D01*
X588272Y764430D02*
X584272Y764430D01*
X599272Y764880D02*
X599272Y755880D01*
X595272Y755880D01*
X595272Y764880D01*
X599272Y764880D01*
X599272Y756830D02*
X595272Y756830D01*
X595272Y757780D02*
X599272Y757780D01*
X599272Y758730D02*
X595272Y758730D01*
X595272Y759680D02*
X599272Y759680D01*
X599272Y760630D02*
X595272Y760630D01*
X595272Y761580D02*
X599272Y761580D01*
X599272Y762530D02*
X595272Y762530D01*
X595272Y763480D02*
X599272Y763480D01*
X599272Y764430D02*
X595272Y764430D01*
X610272Y764880D02*
X610272Y755880D01*
X606272Y755880D01*
X606272Y764880D01*
X610272Y764880D01*
X610272Y756830D02*
X606272Y756830D01*
X606272Y757780D02*
X610272Y757780D01*
X610272Y758730D02*
X606272Y758730D01*
X606272Y759680D02*
X610272Y759680D01*
X610272Y760630D02*
X606272Y760630D01*
X606272Y761580D02*
X610272Y761580D01*
X610272Y762530D02*
X606272Y762530D01*
X606272Y763480D02*
X610272Y763480D01*
X610272Y764430D02*
X606272Y764430D01*
X621272Y764880D02*
X621272Y755880D01*
X617272Y755880D01*
X617272Y764880D01*
X621272Y764880D01*
X621272Y756830D02*
X617272Y756830D01*
X617272Y757780D02*
X621272Y757780D01*
X621272Y758730D02*
X617272Y758730D01*
X617272Y759680D02*
X621272Y759680D01*
X621272Y760630D02*
X617272Y760630D01*
X617272Y761580D02*
X621272Y761580D01*
X621272Y762530D02*
X617272Y762530D01*
X617272Y763480D02*
X621272Y763480D01*
X621272Y764430D02*
X617272Y764430D01*
X632272Y764880D02*
X632272Y755880D01*
X628272Y755880D01*
X628272Y764880D01*
X632272Y764880D01*
X632272Y756830D02*
X628272Y756830D01*
X628272Y757780D02*
X632272Y757780D01*
X632272Y758730D02*
X628272Y758730D01*
X628272Y759680D02*
X632272Y759680D01*
X632272Y760630D02*
X628272Y760630D01*
X628272Y761580D02*
X632272Y761580D01*
X632272Y762530D02*
X628272Y762530D01*
X628272Y763480D02*
X632272Y763480D01*
X632272Y764430D02*
X628272Y764430D01*
D11*
X538368Y783784D02*
X532176Y783784D01*
X532176Y790576D01*
X538368Y790576D01*
X538368Y783784D01*
X538368Y784742D02*
X532176Y784742D01*
X532176Y785700D02*
X538368Y785700D01*
X538368Y786658D02*
X532176Y786658D01*
X532176Y787616D02*
X538368Y787616D01*
X538368Y788574D02*
X532176Y788574D01*
X532176Y789532D02*
X538368Y789532D01*
X538368Y790490D02*
X532176Y790490D01*
D12*
X539997Y795005D02*
X539997Y804755D01*
X539997Y795005D02*
X530547Y795005D01*
X530547Y804755D01*
X539997Y804755D01*
X539997Y796002D02*
X530547Y796002D01*
X530547Y796999D02*
X539997Y796999D01*
X539997Y797996D02*
X530547Y797996D01*
X530547Y798993D02*
X539997Y798993D01*
X539997Y799990D02*
X530547Y799990D01*
X530547Y800987D02*
X539997Y800987D01*
X539997Y801984D02*
X530547Y801984D01*
X530547Y802981D02*
X539997Y802981D01*
X539997Y803978D02*
X530547Y803978D01*
X539997Y820505D02*
X539997Y831455D01*
X539997Y820505D02*
X530547Y820505D01*
X530547Y831455D01*
X539997Y831455D01*
X539997Y821502D02*
X530547Y821502D01*
X530547Y822499D02*
X539997Y822499D01*
X539997Y823496D02*
X530547Y823496D01*
X530547Y824493D02*
X539997Y824493D01*
X539997Y825490D02*
X530547Y825490D01*
X530547Y826487D02*
X539997Y826487D01*
X539997Y827484D02*
X530547Y827484D01*
X530547Y828481D02*
X539997Y828481D01*
X539997Y829478D02*
X530547Y829478D01*
X530547Y830475D02*
X539997Y830475D01*
X646747Y825755D02*
X646747Y814805D01*
X637297Y814805D01*
X637297Y825755D01*
X646747Y825755D01*
X646747Y815802D02*
X637297Y815802D01*
X637297Y816799D02*
X646747Y816799D01*
X646747Y817796D02*
X637297Y817796D01*
X637297Y818793D02*
X646747Y818793D01*
X646747Y819790D02*
X637297Y819790D01*
X637297Y820787D02*
X646747Y820787D01*
X646747Y821784D02*
X637297Y821784D01*
X637297Y822781D02*
X646747Y822781D01*
X646747Y823778D02*
X637297Y823778D01*
X637297Y824775D02*
X646747Y824775D01*
X646747Y799855D02*
X646747Y777005D01*
X637297Y777005D01*
X637297Y799855D01*
X646747Y799855D01*
X646747Y778002D02*
X637297Y778002D01*
X637297Y778999D02*
X646747Y778999D01*
X646747Y779996D02*
X637297Y779996D01*
X637297Y780993D02*
X646747Y780993D01*
X646747Y781990D02*
X637297Y781990D01*
X637297Y782987D02*
X646747Y782987D01*
X646747Y783984D02*
X637297Y783984D01*
X637297Y784981D02*
X646747Y784981D01*
X646747Y785978D02*
X637297Y785978D01*
X637297Y786975D02*
X646747Y786975D01*
X646747Y787972D02*
X637297Y787972D01*
X637297Y788969D02*
X646747Y788969D01*
X646747Y789966D02*
X637297Y789966D01*
X637297Y790963D02*
X646747Y790963D01*
X646747Y791960D02*
X637297Y791960D01*
X637297Y792957D02*
X646747Y792957D01*
X646747Y793954D02*
X637297Y793954D01*
X637297Y794951D02*
X646747Y794951D01*
X646747Y795948D02*
X637297Y795948D01*
X637297Y796945D02*
X646747Y796945D01*
X646747Y797942D02*
X637297Y797942D01*
X637297Y798939D02*
X646747Y798939D01*
D13*
X624277Y834985D02*
X596167Y834985D01*
X624277Y834985D02*
X624277Y830475D01*
X596167Y830475D01*
X596167Y834985D01*
X596167Y831415D02*
X624277Y831415D01*
X624277Y832355D02*
X596167Y832355D01*
X596167Y833295D02*
X624277Y833295D01*
X624277Y834235D02*
X596167Y834235D01*
X582377Y834985D02*
X554267Y834985D01*
X582377Y834985D02*
X582377Y830475D01*
X554267Y830475D01*
X554267Y834985D01*
X554267Y831415D02*
X582377Y831415D01*
X582377Y832355D02*
X554267Y832355D01*
X554267Y833295D02*
X582377Y833295D01*
X582377Y834235D02*
X554267Y834235D01*
D10*
X788952Y764880D02*
X788952Y755880D01*
X784952Y755880D01*
X784952Y764880D01*
X788952Y764880D01*
X788952Y756830D02*
X784952Y756830D01*
X784952Y757780D02*
X788952Y757780D01*
X788952Y758730D02*
X784952Y758730D01*
X784952Y759680D02*
X788952Y759680D01*
X788952Y760630D02*
X784952Y760630D01*
X784952Y761580D02*
X788952Y761580D01*
X788952Y762530D02*
X784952Y762530D01*
X784952Y763480D02*
X788952Y763480D01*
X788952Y764430D02*
X784952Y764430D01*
X799952Y764880D02*
X799952Y755880D01*
X795952Y755880D01*
X795952Y764880D01*
X799952Y764880D01*
X799952Y756830D02*
X795952Y756830D01*
X795952Y757780D02*
X799952Y757780D01*
X799952Y758730D02*
X795952Y758730D01*
X795952Y759680D02*
X799952Y759680D01*
X799952Y760630D02*
X795952Y760630D01*
X795952Y761580D02*
X799952Y761580D01*
X799952Y762530D02*
X795952Y762530D01*
X795952Y763480D02*
X799952Y763480D01*
X799952Y764430D02*
X795952Y764430D01*
X810952Y764880D02*
X810952Y755880D01*
X806952Y755880D01*
X806952Y764880D01*
X810952Y764880D01*
X810952Y756830D02*
X806952Y756830D01*
X806952Y757780D02*
X810952Y757780D01*
X810952Y758730D02*
X806952Y758730D01*
X806952Y759680D02*
X810952Y759680D01*
X810952Y760630D02*
X806952Y760630D01*
X806952Y761580D02*
X810952Y761580D01*
X810952Y762530D02*
X806952Y762530D01*
X806952Y763480D02*
X810952Y763480D01*
X810952Y764430D02*
X806952Y764430D01*
X821952Y764880D02*
X821952Y755880D01*
X817952Y755880D01*
X817952Y764880D01*
X821952Y764880D01*
X821952Y756830D02*
X817952Y756830D01*
X817952Y757780D02*
X821952Y757780D01*
X821952Y758730D02*
X817952Y758730D01*
X817952Y759680D02*
X821952Y759680D01*
X821952Y760630D02*
X817952Y760630D01*
X817952Y761580D02*
X821952Y761580D01*
X821952Y762530D02*
X817952Y762530D01*
X817952Y763480D02*
X821952Y763480D01*
X821952Y764430D02*
X817952Y764430D01*
X832952Y764880D02*
X832952Y755880D01*
X828952Y755880D01*
X828952Y764880D01*
X832952Y764880D01*
X832952Y756830D02*
X828952Y756830D01*
X828952Y757780D02*
X832952Y757780D01*
X832952Y758730D02*
X828952Y758730D01*
X828952Y759680D02*
X832952Y759680D01*
X832952Y760630D02*
X828952Y760630D01*
X828952Y761580D02*
X832952Y761580D01*
X832952Y762530D02*
X828952Y762530D01*
X828952Y763480D02*
X832952Y763480D01*
X832952Y764430D02*
X828952Y764430D01*
X843952Y764880D02*
X843952Y755880D01*
X839952Y755880D01*
X839952Y764880D01*
X843952Y764880D01*
X843952Y756830D02*
X839952Y756830D01*
X839952Y757780D02*
X843952Y757780D01*
X843952Y758730D02*
X839952Y758730D01*
X839952Y759680D02*
X843952Y759680D01*
X843952Y760630D02*
X839952Y760630D01*
X839952Y761580D02*
X843952Y761580D01*
X843952Y762530D02*
X839952Y762530D01*
X839952Y763480D02*
X843952Y763480D01*
X843952Y764430D02*
X839952Y764430D01*
X854952Y764880D02*
X854952Y755880D01*
X850952Y755880D01*
X850952Y764880D01*
X854952Y764880D01*
X854952Y756830D02*
X850952Y756830D01*
X850952Y757780D02*
X854952Y757780D01*
X854952Y758730D02*
X850952Y758730D01*
X850952Y759680D02*
X854952Y759680D01*
X854952Y760630D02*
X850952Y760630D01*
X850952Y761580D02*
X854952Y761580D01*
X854952Y762530D02*
X850952Y762530D01*
X850952Y763480D02*
X854952Y763480D01*
X854952Y764430D02*
X850952Y764430D01*
X865952Y764880D02*
X865952Y755880D01*
X861952Y755880D01*
X861952Y764880D01*
X865952Y764880D01*
X865952Y756830D02*
X861952Y756830D01*
X861952Y757780D02*
X865952Y757780D01*
X865952Y758730D02*
X861952Y758730D01*
X861952Y759680D02*
X865952Y759680D01*
X865952Y760630D02*
X861952Y760630D01*
X861952Y761580D02*
X865952Y761580D01*
X865952Y762530D02*
X861952Y762530D01*
X861952Y763480D02*
X865952Y763480D01*
X865952Y764430D02*
X861952Y764430D01*
D11*
X772048Y783784D02*
X765856Y783784D01*
X765856Y790576D01*
X772048Y790576D01*
X772048Y783784D01*
X772048Y784742D02*
X765856Y784742D01*
X765856Y785700D02*
X772048Y785700D01*
X772048Y786658D02*
X765856Y786658D01*
X765856Y787616D02*
X772048Y787616D01*
X772048Y788574D02*
X765856Y788574D01*
X765856Y789532D02*
X772048Y789532D01*
X772048Y790490D02*
X765856Y790490D01*
D12*
X773677Y795005D02*
X773677Y804755D01*
X773677Y795005D02*
X764227Y795005D01*
X764227Y804755D01*
X773677Y804755D01*
X773677Y796002D02*
X764227Y796002D01*
X764227Y796999D02*
X773677Y796999D01*
X773677Y797996D02*
X764227Y797996D01*
X764227Y798993D02*
X773677Y798993D01*
X773677Y799990D02*
X764227Y799990D01*
X764227Y800987D02*
X773677Y800987D01*
X773677Y801984D02*
X764227Y801984D01*
X764227Y802981D02*
X773677Y802981D01*
X773677Y803978D02*
X764227Y803978D01*
X773677Y820505D02*
X773677Y831455D01*
X773677Y820505D02*
X764227Y820505D01*
X764227Y831455D01*
X773677Y831455D01*
X773677Y821502D02*
X764227Y821502D01*
X764227Y822499D02*
X773677Y822499D01*
X773677Y823496D02*
X764227Y823496D01*
X764227Y824493D02*
X773677Y824493D01*
X773677Y825490D02*
X764227Y825490D01*
X764227Y826487D02*
X773677Y826487D01*
X773677Y827484D02*
X764227Y827484D01*
X764227Y828481D02*
X773677Y828481D01*
X773677Y829478D02*
X764227Y829478D01*
X764227Y830475D02*
X773677Y830475D01*
X880427Y825755D02*
X880427Y814805D01*
X870977Y814805D01*
X870977Y825755D01*
X880427Y825755D01*
X880427Y815802D02*
X870977Y815802D01*
X870977Y816799D02*
X880427Y816799D01*
X880427Y817796D02*
X870977Y817796D01*
X870977Y818793D02*
X880427Y818793D01*
X880427Y819790D02*
X870977Y819790D01*
X870977Y820787D02*
X880427Y820787D01*
X880427Y821784D02*
X870977Y821784D01*
X870977Y822781D02*
X880427Y822781D01*
X880427Y823778D02*
X870977Y823778D01*
X870977Y824775D02*
X880427Y824775D01*
X880427Y799855D02*
X880427Y777005D01*
X870977Y777005D01*
X870977Y799855D01*
X880427Y799855D01*
X880427Y778002D02*
X870977Y778002D01*
X870977Y778999D02*
X880427Y778999D01*
X880427Y779996D02*
X870977Y779996D01*
X870977Y780993D02*
X880427Y780993D01*
X880427Y781990D02*
X870977Y781990D01*
X870977Y782987D02*
X880427Y782987D01*
X880427Y783984D02*
X870977Y783984D01*
X870977Y784981D02*
X880427Y784981D01*
X880427Y785978D02*
X870977Y785978D01*
X870977Y786975D02*
X880427Y786975D01*
X880427Y787972D02*
X870977Y787972D01*
X870977Y788969D02*
X880427Y788969D01*
X880427Y789966D02*
X870977Y789966D01*
X870977Y790963D02*
X880427Y790963D01*
X880427Y791960D02*
X870977Y791960D01*
X870977Y792957D02*
X880427Y792957D01*
X880427Y793954D02*
X870977Y793954D01*
X870977Y794951D02*
X880427Y794951D01*
X880427Y795948D02*
X870977Y795948D01*
X870977Y796945D02*
X880427Y796945D01*
X880427Y797942D02*
X870977Y797942D01*
X870977Y798939D02*
X880427Y798939D01*
D13*
X857957Y834985D02*
X829847Y834985D01*
X857957Y834985D02*
X857957Y830475D01*
X829847Y830475D01*
X829847Y834985D01*
X829847Y831415D02*
X857957Y831415D01*
X857957Y832355D02*
X829847Y832355D01*
X829847Y833295D02*
X857957Y833295D01*
X857957Y834235D02*
X829847Y834235D01*
X816057Y834985D02*
X787947Y834985D01*
X816057Y834985D02*
X816057Y830475D01*
X787947Y830475D01*
X787947Y834985D01*
X787947Y831415D02*
X816057Y831415D01*
X816057Y832355D02*
X787947Y832355D01*
X787947Y833295D02*
X816057Y833295D01*
X816057Y834235D02*
X787947Y834235D01*
D10*
X1022632Y764880D02*
X1022632Y755880D01*
X1018632Y755880D01*
X1018632Y764880D01*
X1022632Y764880D01*
X1022632Y756830D02*
X1018632Y756830D01*
X1018632Y757780D02*
X1022632Y757780D01*
X1022632Y758730D02*
X1018632Y758730D01*
X1018632Y759680D02*
X1022632Y759680D01*
X1022632Y760630D02*
X1018632Y760630D01*
X1018632Y761580D02*
X1022632Y761580D01*
X1022632Y762530D02*
X1018632Y762530D01*
X1018632Y763480D02*
X1022632Y763480D01*
X1022632Y764430D02*
X1018632Y764430D01*
X1033632Y764880D02*
X1033632Y755880D01*
X1029632Y755880D01*
X1029632Y764880D01*
X1033632Y764880D01*
X1033632Y756830D02*
X1029632Y756830D01*
X1029632Y757780D02*
X1033632Y757780D01*
X1033632Y758730D02*
X1029632Y758730D01*
X1029632Y759680D02*
X1033632Y759680D01*
X1033632Y760630D02*
X1029632Y760630D01*
X1029632Y761580D02*
X1033632Y761580D01*
X1033632Y762530D02*
X1029632Y762530D01*
X1029632Y763480D02*
X1033632Y763480D01*
X1033632Y764430D02*
X1029632Y764430D01*
X1044632Y764880D02*
X1044632Y755880D01*
X1040632Y755880D01*
X1040632Y764880D01*
X1044632Y764880D01*
X1044632Y756830D02*
X1040632Y756830D01*
X1040632Y757780D02*
X1044632Y757780D01*
X1044632Y758730D02*
X1040632Y758730D01*
X1040632Y759680D02*
X1044632Y759680D01*
X1044632Y760630D02*
X1040632Y760630D01*
X1040632Y761580D02*
X1044632Y761580D01*
X1044632Y762530D02*
X1040632Y762530D01*
X1040632Y763480D02*
X1044632Y763480D01*
X1044632Y764430D02*
X1040632Y764430D01*
X1055632Y764880D02*
X1055632Y755880D01*
X1051632Y755880D01*
X1051632Y764880D01*
X1055632Y764880D01*
X1055632Y756830D02*
X1051632Y756830D01*
X1051632Y757780D02*
X1055632Y757780D01*
X1055632Y758730D02*
X1051632Y758730D01*
X1051632Y759680D02*
X1055632Y759680D01*
X1055632Y760630D02*
X1051632Y760630D01*
X1051632Y761580D02*
X1055632Y761580D01*
X1055632Y762530D02*
X1051632Y762530D01*
X1051632Y763480D02*
X1055632Y763480D01*
X1055632Y764430D02*
X1051632Y764430D01*
X1066632Y764880D02*
X1066632Y755880D01*
X1062632Y755880D01*
X1062632Y764880D01*
X1066632Y764880D01*
X1066632Y756830D02*
X1062632Y756830D01*
X1062632Y757780D02*
X1066632Y757780D01*
X1066632Y758730D02*
X1062632Y758730D01*
X1062632Y759680D02*
X1066632Y759680D01*
X1066632Y760630D02*
X1062632Y760630D01*
X1062632Y761580D02*
X1066632Y761580D01*
X1066632Y762530D02*
X1062632Y762530D01*
X1062632Y763480D02*
X1066632Y763480D01*
X1066632Y764430D02*
X1062632Y764430D01*
X1077632Y764880D02*
X1077632Y755880D01*
X1073632Y755880D01*
X1073632Y764880D01*
X1077632Y764880D01*
X1077632Y756830D02*
X1073632Y756830D01*
X1073632Y757780D02*
X1077632Y757780D01*
X1077632Y758730D02*
X1073632Y758730D01*
X1073632Y759680D02*
X1077632Y759680D01*
X1077632Y760630D02*
X1073632Y760630D01*
X1073632Y761580D02*
X1077632Y761580D01*
X1077632Y762530D02*
X1073632Y762530D01*
X1073632Y763480D02*
X1077632Y763480D01*
X1077632Y764430D02*
X1073632Y764430D01*
X1088632Y764880D02*
X1088632Y755880D01*
X1084632Y755880D01*
X1084632Y764880D01*
X1088632Y764880D01*
X1088632Y756830D02*
X1084632Y756830D01*
X1084632Y757780D02*
X1088632Y757780D01*
X1088632Y758730D02*
X1084632Y758730D01*
X1084632Y759680D02*
X1088632Y759680D01*
X1088632Y760630D02*
X1084632Y760630D01*
X1084632Y761580D02*
X1088632Y761580D01*
X1088632Y762530D02*
X1084632Y762530D01*
X1084632Y763480D02*
X1088632Y763480D01*
X1088632Y764430D02*
X1084632Y764430D01*
X1099632Y764880D02*
X1099632Y755880D01*
X1095632Y755880D01*
X1095632Y764880D01*
X1099632Y764880D01*
X1099632Y756830D02*
X1095632Y756830D01*
X1095632Y757780D02*
X1099632Y757780D01*
X1099632Y758730D02*
X1095632Y758730D01*
X1095632Y759680D02*
X1099632Y759680D01*
X1099632Y760630D02*
X1095632Y760630D01*
X1095632Y761580D02*
X1099632Y761580D01*
X1099632Y762530D02*
X1095632Y762530D01*
X1095632Y763480D02*
X1099632Y763480D01*
X1099632Y764430D02*
X1095632Y764430D01*
D11*
X1005728Y783784D02*
X999536Y783784D01*
X999536Y790576D01*
X1005728Y790576D01*
X1005728Y783784D01*
X1005728Y784742D02*
X999536Y784742D01*
X999536Y785700D02*
X1005728Y785700D01*
X1005728Y786658D02*
X999536Y786658D01*
X999536Y787616D02*
X1005728Y787616D01*
X1005728Y788574D02*
X999536Y788574D01*
X999536Y789532D02*
X1005728Y789532D01*
X1005728Y790490D02*
X999536Y790490D01*
D12*
X1007357Y795005D02*
X1007357Y804755D01*
X1007357Y795005D02*
X997907Y795005D01*
X997907Y804755D01*
X1007357Y804755D01*
X1007357Y796002D02*
X997907Y796002D01*
X997907Y796999D02*
X1007357Y796999D01*
X1007357Y797996D02*
X997907Y797996D01*
X997907Y798993D02*
X1007357Y798993D01*
X1007357Y799990D02*
X997907Y799990D01*
X997907Y800987D02*
X1007357Y800987D01*
X1007357Y801984D02*
X997907Y801984D01*
X997907Y802981D02*
X1007357Y802981D01*
X1007357Y803978D02*
X997907Y803978D01*
X1007357Y820505D02*
X1007357Y831455D01*
X1007357Y820505D02*
X997907Y820505D01*
X997907Y831455D01*
X1007357Y831455D01*
X1007357Y821502D02*
X997907Y821502D01*
X997907Y822499D02*
X1007357Y822499D01*
X1007357Y823496D02*
X997907Y823496D01*
X997907Y824493D02*
X1007357Y824493D01*
X1007357Y825490D02*
X997907Y825490D01*
X997907Y826487D02*
X1007357Y826487D01*
X1007357Y827484D02*
X997907Y827484D01*
X997907Y828481D02*
X1007357Y828481D01*
X1007357Y829478D02*
X997907Y829478D01*
X997907Y830475D02*
X1007357Y830475D01*
X1114107Y825755D02*
X1114107Y814805D01*
X1104657Y814805D01*
X1104657Y825755D01*
X1114107Y825755D01*
X1114107Y815802D02*
X1104657Y815802D01*
X1104657Y816799D02*
X1114107Y816799D01*
X1114107Y817796D02*
X1104657Y817796D01*
X1104657Y818793D02*
X1114107Y818793D01*
X1114107Y819790D02*
X1104657Y819790D01*
X1104657Y820787D02*
X1114107Y820787D01*
X1114107Y821784D02*
X1104657Y821784D01*
X1104657Y822781D02*
X1114107Y822781D01*
X1114107Y823778D02*
X1104657Y823778D01*
X1104657Y824775D02*
X1114107Y824775D01*
X1114107Y799855D02*
X1114107Y777005D01*
X1104657Y777005D01*
X1104657Y799855D01*
X1114107Y799855D01*
X1114107Y778002D02*
X1104657Y778002D01*
X1104657Y778999D02*
X1114107Y778999D01*
X1114107Y779996D02*
X1104657Y779996D01*
X1104657Y780993D02*
X1114107Y780993D01*
X1114107Y781990D02*
X1104657Y781990D01*
X1104657Y782987D02*
X1114107Y782987D01*
X1114107Y783984D02*
X1104657Y783984D01*
X1104657Y784981D02*
X1114107Y784981D01*
X1114107Y785978D02*
X1104657Y785978D01*
X1104657Y786975D02*
X1114107Y786975D01*
X1114107Y787972D02*
X1104657Y787972D01*
X1104657Y788969D02*
X1114107Y788969D01*
X1114107Y789966D02*
X1104657Y789966D01*
X1104657Y790963D02*
X1114107Y790963D01*
X1114107Y791960D02*
X1104657Y791960D01*
X1104657Y792957D02*
X1114107Y792957D01*
X1114107Y793954D02*
X1104657Y793954D01*
X1104657Y794951D02*
X1114107Y794951D01*
X1114107Y795948D02*
X1104657Y795948D01*
X1104657Y796945D02*
X1114107Y796945D01*
X1114107Y797942D02*
X1104657Y797942D01*
X1104657Y798939D02*
X1114107Y798939D01*
D13*
X1091637Y834985D02*
X1063527Y834985D01*
X1091637Y834985D02*
X1091637Y830475D01*
X1063527Y830475D01*
X1063527Y834985D01*
X1063527Y831415D02*
X1091637Y831415D01*
X1091637Y832355D02*
X1063527Y832355D01*
X1063527Y833295D02*
X1091637Y833295D01*
X1091637Y834235D02*
X1063527Y834235D01*
X1049737Y834985D02*
X1021627Y834985D01*
X1049737Y834985D02*
X1049737Y830475D01*
X1021627Y830475D01*
X1021627Y834985D01*
X1021627Y831415D02*
X1049737Y831415D01*
X1049737Y832355D02*
X1021627Y832355D01*
X1021627Y833295D02*
X1049737Y833295D01*
X1049737Y834235D02*
X1021627Y834235D01*
M02*
