M48
;GenerationSoftware,Autodesk,EAGLE,9.6.2*%
;CreationDate,2022-12-19T20:28:41Z*%
FMAT,2
ICI,OFF
METRIC,TZ,000.000
T4C0.300
T3C0.650
T2C1.016
T1C3.048
%
G90
M71
T1
X67056Y71628
X43688Y124968
X2540Y2540
X20320Y2540
X20320Y55880
X2540Y55880
X25908Y124968
X72644Y124968
X25908Y2540
X43688Y2540
X43688Y55880
X25908Y55880
X113792Y124968
X49276Y71628
X49276Y2540
X67056Y2540
X67056Y55880
X49276Y55880
X96012Y124968
X67056Y124968
X72644Y2540
X90424Y2540
X90424Y55880
X72644Y55880
X49276Y124968
X96012Y71628
X96012Y2540
X113792Y2540
X113792Y55880
X96012Y55880
X113792Y71628
X72644Y71628
X2540Y71628
X20320Y71628
X20320Y124968
X2540Y124968
X90424Y71628
X90424Y124968
X25908Y71628
X43688Y71628
T2
X1270Y39370
X115062Y98298
X115062Y95758
X115062Y93218
X115062Y90678
X115062Y88138
X115062Y85598
X115062Y83058
X94742Y93218
X94742Y95758
X94742Y98298
X94742Y100838
X94742Y103378
X94742Y105918
X94742Y108458
X107672Y99158
X94742Y110998
X94742Y113538
X94742Y116078
X94742Y118618
X94742Y121158
X107672Y96618
X21590Y52070
X21590Y49530
X21590Y46990
X21590Y44450
X21590Y41910
X21590Y39370
X21590Y36830
X21590Y34290
X21590Y31750
X21590Y29210
X21590Y26670
X21590Y24130
X21590Y21590
X21590Y19050
X21590Y16510
X21590Y13970
X1270Y24130
X1270Y26670
X1270Y29210
X1270Y31750
X1270Y34290
X1270Y36830
X1270Y41910
X1270Y44450
X1270Y46990
X1270Y49530
X1270Y52070
X14200Y27530
X14200Y30070
X44958Y52070
X44958Y49530
X44958Y46990
X44958Y44450
X44958Y41910
X44958Y39370
X44958Y36830
X44958Y34290
X44958Y31750
X44958Y29210
X44958Y26670
X44958Y24130
X44958Y21590
X44958Y19050
X44958Y16510
X44958Y13970
X24638Y24130
X24638Y26670
X24638Y29210
X24638Y31750
X24638Y34290
X24638Y36830
X24638Y39370
X24638Y41910
X24638Y44450
X24638Y46990
X24638Y49530
X24638Y52070
X37568Y27530
X37568Y30070
X68326Y52070
X68326Y49530
X68326Y46990
X68326Y44450
X68326Y41910
X68326Y39370
X68326Y36830
X68326Y34290
X68326Y31750
X68326Y29210
X68326Y26670
X68326Y24130
X68326Y21590
X68326Y19050
X68326Y16510
X68326Y13970
X48006Y24130
X48006Y26670
X48006Y29210
X48006Y31750
X48006Y34290
X48006Y36830
X48006Y39370
X48006Y41910
X48006Y44450
X48006Y46990
X48006Y49530
X48006Y52070
X60936Y27530
X60936Y30070
X91694Y52070
X91694Y49530
X91694Y46990
X91694Y44450
X91694Y41910
X91694Y39370
X91694Y36830
X91694Y34290
X91694Y31750
X91694Y29210
X91694Y26670
X91694Y24130
X91694Y21590
X91694Y19050
X91694Y16510
X91694Y13970
X71374Y24130
X71374Y26670
X71374Y29210
X71374Y31750
X71374Y34290
X71374Y36830
X71374Y39370
X71374Y41910
X71374Y44450
X71374Y46990
X71374Y49530
X71374Y52070
X84304Y27530
X84304Y30070
X115062Y52070
X115062Y49530
X115062Y46990
X115062Y44450
X115062Y41910
X115062Y39370
X115062Y36830
X115062Y34290
X115062Y31750
X115062Y29210
X115062Y26670
X115062Y24130
X115062Y21590
X115062Y19050
X115062Y16510
X115062Y13970
X94742Y24130
X94742Y26670
X94742Y29210
X94742Y31750
X94742Y34290
X94742Y36830
X94742Y39370
X94742Y41910
X94742Y44450
X94742Y46990
X94742Y49530
X94742Y52070
X107672Y27530
X107672Y30070
X21590Y121158
X21590Y118618
X21590Y116078
X21590Y113538
X21590Y110998
X21590Y108458
X21590Y105918
X21590Y103378
X21590Y100838
X21590Y98298
X21590Y95758
X21590Y93218
X21590Y90678
X21590Y88138
X21590Y85598
X21590Y83058
X1270Y93218
X1270Y95758
X1270Y98298
X1270Y100838
X1270Y103378
X1270Y105918
X1270Y108458
X1270Y110998
X1270Y113538
X1270Y116078
X1270Y118618
X1270Y121158
X14200Y96618
X14200Y99158
X44958Y121158
X44958Y118618
X44958Y116078
X44958Y113538
X44958Y110998
X44958Y108458
X44958Y105918
X44958Y103378
X44958Y100838
X44958Y98298
X44958Y95758
X44958Y93218
X44958Y90678
X44958Y88138
X44958Y85598
X44958Y83058
X24638Y93218
X24638Y95758
X24638Y98298
X24638Y100838
X24638Y103378
X24638Y105918
X24638Y108458
X24638Y110998
X24638Y113538
X24638Y116078
X24638Y118618
X24638Y121158
X37568Y96618
X37568Y99158
X68326Y121158
X68326Y118618
X68326Y116078
X68326Y113538
X68326Y110998
X68326Y108458
X68326Y105918
X68326Y103378
X68326Y100838
X68326Y98298
X68326Y95758
X68326Y93218
X68326Y90678
X68326Y88138
X68326Y85598
X68326Y83058
X48006Y93218
X48006Y95758
X48006Y98298
X48006Y100838
X48006Y103378
X48006Y105918
X48006Y108458
X48006Y110998
X48006Y113538
X48006Y116078
X48006Y118618
X48006Y121158
X60936Y96618
X60936Y99158
X91694Y121158
X91694Y118618
X91694Y116078
X91694Y113538
X91694Y110998
X91694Y108458
X91694Y105918
X91694Y103378
X91694Y100838
X91694Y98298
X91694Y95758
X91694Y93218
X91694Y90678
X91694Y88138
X91694Y85598
X91694Y83058
X71374Y93218
X71374Y95758
X71374Y98298
X71374Y100838
X71374Y103378
X71374Y105918
X71374Y108458
X71374Y110998
X71374Y113538
X71374Y116078
X71374Y118618
X71374Y121158
X84304Y96618
X84304Y99158
X115062Y121158
X115062Y118618
X115062Y116078
X115062Y113538
X115062Y110998
X115062Y108458
X115062Y105918
X115062Y103378
X115062Y100838
T3
X8540Y4753
X14320Y4753
X31908Y4753
X37688Y4753
X55276Y4753
X61056Y4753
X78644Y4753
X84424Y4753
X102012Y4753
X107792Y4753
X8540Y73841
X14320Y73841
X31908Y73841
X37688Y73841
X55276Y73841
X61056Y73841
X78644Y73841
X84424Y73841
X102012Y73841
X107792Y73841
T4
X29668Y42700
X32072Y43181
X31727Y59369
X28468Y59000
X26268Y16600
X26268Y32900
X28368Y53500
X26268Y41300
X36892Y43057
X37348Y58390
X29368Y46990
X34968Y49100
X57156Y19700
X63636Y57100
X52736Y46100
X55536Y45300
X53836Y12200
X49736Y10400
X59536Y57800
X57936Y60200
X60936Y60400
X52736Y62600
X52736Y65100
X55036Y61500
X63236Y62600
X63236Y65100
X65636Y62600
X65636Y59400
X56136Y30600
X52436Y32700
X52436Y29200
X58706Y37800
X57520Y55444
X56139Y53063
X65436Y11200
X60836Y52600
X49636Y43300
X47336Y45700
X47336Y48260
X47336Y50800
X53136Y51500
X56736Y16800
X60736Y18100
X64436Y21300
X62836Y31300
X47336Y40630
X47336Y38100
X47336Y35580
X47336Y33000
X47336Y43200
X51336Y36200
X52236Y25000
X54636Y25500
X67936Y64300
X48436Y64300
X69036Y50800
X68956Y48260
X69036Y45700
X69036Y43200
X69036Y40600
X69036Y38100
X69036Y35600
X69036Y33000
X69036Y30500
X69036Y27900
X69036Y25400
X64836Y50600
X58236Y46100
X62816Y39490
X55136Y52400
X62736Y25200
X63136Y14500
X48836Y16600
X48836Y19500
X60826Y8280
X52136Y1100
X64236Y1100
X66936Y8500
X48436Y53700
X56156Y36800
X56236Y34100
X54736Y4100
X54936Y1100
X61436Y1100
X61636Y4100
X59621Y4415
X64136Y4100
X57836Y4827
X58943Y4900
X56736Y3700
X59336Y3700
X58036Y3700
X60436Y10000
X62166Y16300
X60936Y22300
X60936Y21300
X60936Y20100
X57067Y22800
X62936Y26500
X63836Y61700
X63836Y61000
X63836Y60300
X56790Y8300
X56546Y43730
X60836Y37100
X60836Y37800
X60836Y38500
X61636Y39400
X61636Y42200
X57336Y29900
X64836Y15500
X66736Y17500
X66536Y15000
X48866Y48140
X56818Y40728
X58636Y35790
X58636Y36390
X57436Y36390
X57436Y35790
X61636Y40000
X61936Y8098
X58736Y30700
X60336Y35600
X57644Y7992
X55436Y34900
X59709Y8170
X59636Y31600
X57436Y50300
X54436Y8300
X55216Y56123
X58036Y19800
X59836Y44900
X59536Y60300
X56736Y59900
X53841Y58509
X64936Y58900
X53841Y57540
X53836Y53550
X53836Y54550
X56966Y52620
X53841Y60540
X53841Y59540
X51638Y15800
X52536Y27270
X55216Y53990
X51736Y34200
X58403Y41318
X55503Y47948
X51136Y15200
X51936Y26700
X56316Y53990
X51773Y31227
X51836Y35200
X57672Y41000
X54788Y47894
X57416Y53990
X56636Y48300
X64336Y53300
X53036Y41900
X59836Y48600
X64736Y52600
X53036Y40900
X60618Y48418
X64859Y51687
X53036Y40100
X61236Y48000
X63256Y49300
X54836Y39500
X53036Y39300
X60716Y57290
X58536Y48400
X53559Y52437
X51546Y52810
X51678Y51458
X53476Y27120
X55216Y57290
X53436Y35000
X60716Y53990
X63736Y23700
X56206Y46480
X56336Y54900
X56267Y57931
X54736Y38500
X52815Y53056
X60136Y39800
X52736Y56000
X53036Y42700
X55440Y43181
X55095Y59369
X51836Y59000
X49636Y16600
X49636Y32900
X51736Y53500
X49636Y41300
X60260Y43057
X60716Y58390
X52736Y46990
X58336Y49100
X80524Y19700
X87004Y57100
X76104Y46100
X78904Y45300
X77204Y12200
X73104Y10400
X82904Y57800
X81304Y60200
X84304Y60400
X76104Y62600
X76104Y65100
X78404Y61500
X86604Y62600
X86604Y65100
X89004Y62600
X89004Y59400
X79504Y30600
X75804Y32700
X75804Y29200
X82074Y37800
X80888Y55444
X79507Y53063
X88804Y11200
X84204Y52600
X73004Y43300
X70704Y45700
X70704Y48260
X70704Y50800
X76504Y51500
X80104Y16800
X84104Y18100
X87804Y21300
X86204Y31300
X70704Y40630
X70704Y38100
X70704Y35580
X70704Y33000
X70704Y43200
X74704Y36200
X75604Y25000
X78004Y25500
X91304Y64300
X71804Y64300
X92404Y50800
X92324Y48260
X92404Y45700
X92404Y43200
X92404Y40600
X92404Y38100
X92404Y35600
X92404Y33000
X92404Y30500
X92404Y27900
X92404Y25400
X88204Y50600
X81604Y46100
X86184Y39490
X78504Y52400
X86104Y25200
X86504Y14500
X72204Y16600
X72204Y19500
X84194Y8280
X75504Y1100
X87604Y1100
X90304Y8500
X71804Y53700
X79524Y36800
X79604Y34100
X78104Y4100
X78304Y1100
X84804Y1100
X85004Y4100
X82989Y4415
X87504Y4100
X81204Y4827
X82311Y4900
X80104Y3700
X82704Y3700
X81404Y3700
X83804Y10000
X85534Y16300
X84304Y22300
X84304Y21300
X84304Y20100
X80435Y22800
X86304Y26500
X87204Y61700
X87204Y61000
X87204Y60300
X80158Y8300
X79914Y43730
X84204Y37100
X84204Y37800
X84204Y38500
X85004Y39400
X85004Y42200
X80704Y29900
X88204Y15500
X90104Y17500
X89904Y15000
X72234Y48140
X80186Y40728
X82004Y35790
X82004Y36390
X80804Y36390
X80804Y35790
X85004Y40000
X85304Y8098
X82104Y30700
X83704Y35600
X81012Y7992
X78804Y34900
X83077Y8170
X83004Y31600
X80804Y50300
X77804Y8300
X78584Y56123
X81404Y19800
X83204Y44900
X82904Y60300
X80104Y59900
X77209Y58509
X88304Y58900
X77209Y57540
X77204Y53550
X77204Y54550
X80334Y52620
X77209Y60540
X77209Y59540
X75006Y15800
X75904Y27270
X78584Y53990
X75104Y34200
X81771Y41318
X78871Y47948
X74504Y15200
X75304Y26700
X79684Y53990
X75141Y31227
X75204Y35200
X81040Y41000
X78156Y47894
X80784Y53990
X80004Y48300
X87704Y53300
X76404Y41900
X83204Y48600
X88104Y52600
X76404Y40900
X83986Y48418
X88227Y51687
X76404Y40100
X84604Y48000
X86624Y49300
X78204Y39500
X76404Y39300
X84084Y57290
X81904Y48400
X76927Y52437
X74914Y52810
X75046Y51458
X76844Y27120
X78584Y57290
X76804Y35000
X84084Y53990
X87104Y23700
X79574Y46480
X79704Y54900
X79635Y57931
X78104Y38500
X76183Y53056
X83504Y39800
X76104Y56000
X76404Y42700
X78808Y43181
X78463Y59369
X75204Y59000
X73004Y16600
X73004Y32900
X75104Y53500
X73004Y41300
X83628Y43057
X84084Y58390
X76104Y46990
X81704Y49100
X103892Y19700
X110372Y57100
X99472Y46100
X102272Y45300
X100572Y12200
X96472Y10400
X106272Y57800
X104672Y60200
X107672Y60400
X99472Y62600
X99472Y65100
X101772Y61500
X109972Y62600
X109972Y65100
X112372Y62600
X112372Y59400
X102872Y30600
X99172Y32700
X99172Y29200
X105442Y37800
X104256Y55444
X102875Y53063
X112172Y11200
X107572Y52600
X96372Y43300
X94072Y45700
X94072Y48260
X94072Y50800
X99872Y51500
X103472Y16800
X107472Y18100
X111172Y21300
X109572Y31300
X94072Y40630
X94072Y38100
X94072Y35580
X94072Y33000
X94072Y43200
X98072Y36200
X98972Y25000
X101372Y25500
X114672Y64300
X95172Y64300
X115772Y50800
X115692Y48260
X115772Y45700
X115772Y43200
X115772Y40600
X115772Y38100
X115772Y35600
X115772Y33000
X115772Y30500
X115772Y27900
X115772Y25400
X111572Y50600
X104972Y46100
X109552Y39490
X101872Y52400
X109472Y25200
X109872Y14500
X95572Y16600
X95572Y19500
X107562Y8280
X98872Y1100
X110972Y1100
X113672Y8500
X95172Y53700
X102892Y36800
X102972Y34100
X101472Y4100
X101672Y1100
X108172Y1100
X108372Y4100
X106357Y4415
X110872Y4100
X104572Y4827
X105679Y4900
X103472Y3700
X106072Y3700
X104772Y3700
X107172Y10000
X108902Y16300
X107672Y22300
X107672Y21300
X107672Y20100
X103803Y22800
X109672Y26500
X110572Y61700
X110572Y61000
X110572Y60300
X103526Y8300
X103282Y43730
X107572Y37100
X107572Y37800
X107572Y38500
X108372Y39400
X108372Y42200
X104072Y29900
X111572Y15500
X113472Y17500
X113272Y15000
X95602Y48140
X103554Y40728
X105372Y35790
X105372Y36390
X104172Y36390
X104172Y35790
X108372Y40000
X108672Y8098
X105472Y30700
X107072Y35600
X104380Y7992
X102172Y34900
X106445Y8170
X106372Y31600
X104172Y50300
X101172Y8300
X101952Y56123
X104772Y19800
X106572Y44900
X106272Y60300
X103472Y59900
X100577Y58509
X111672Y58900
X100577Y57540
X100572Y53550
X100572Y54550
X103702Y52620
X100577Y60540
X100577Y59540
X98374Y15800
X99272Y27270
X101952Y53990
X98472Y34200
X105139Y41318
X102239Y47948
X97872Y15200
X98672Y26700
X103052Y53990
X98509Y31227
X98572Y35200
X104408Y41000
X101524Y47894
X104152Y53990
X103372Y48300
X111072Y53300
X99772Y41900
X106572Y48600
X111472Y52600
X99772Y40900
X107354Y48418
X111595Y51687
X99772Y40100
X107972Y48000
X109992Y49300
X101572Y39500
X99772Y39300
X107452Y57290
X105272Y48400
X100295Y52437
X98282Y52810
X98414Y51458
X100212Y27120
X101952Y57290
X100172Y35000
X107452Y53990
X110472Y23700
X102942Y46480
X103072Y54900
X103003Y57931
X101472Y38500
X99551Y53056
X106872Y39800
X99472Y56000
X99772Y42700
X102176Y43181
X101831Y59369
X98572Y59000
X96372Y16600
X96372Y32900
X98472Y53500
X96372Y41300
X106996Y43057
X107452Y58390
X99472Y46990
X105072Y49100
X10420Y88788
X16900Y126188
X6000Y115188
X8800Y114388
X7100Y81288
X3000Y79488
X12800Y126888
X11200Y129288
X14200Y129488
X6000Y131688
X6000Y134188
X8300Y130588
X16500Y131688
X16500Y134188
X18900Y131688
X18900Y128488
X9400Y99688
X5700Y101788
X5700Y98288
X11970Y106888
X10784Y124532
X9403Y122151
X18700Y80288
X14100Y121688
X2900Y112388
X600Y114788
X600Y117348
X600Y119888
X6400Y120588
X10000Y85888
X14000Y87188
X17700Y90388
X16100Y100388
X600Y109718
X600Y107188
X600Y104668
X600Y102088
X600Y112288
X4600Y105288
X5500Y94088
X7900Y94588
X21200Y133388
X1700Y133388
X22300Y119888
X22220Y117348
X22300Y114788
X22300Y112288
X22300Y109688
X22300Y107188
X22300Y104688
X22300Y102088
X22300Y99588
X22300Y96988
X22300Y94488
X18100Y119688
X11500Y115188
X16080Y108578
X8400Y121488
X16000Y94288
X16400Y83588
X2100Y85688
X2100Y88588
X14090Y77368
X5400Y70188
X17500Y70188
X20200Y77588
X1700Y122788
X9420Y105888
X9500Y103188
X8000Y73188
X8200Y70188
X14700Y70188
X14900Y73188
X12885Y73503
X17400Y73188
X11100Y73915
X12207Y73988
X10000Y72788
X12600Y72788
X11300Y72788
X13700Y79088
X15430Y85388
X14200Y91388
X14200Y90388
X14200Y89188
X10331Y91888
X16200Y95588
X17100Y130788
X17100Y130088
X17100Y129388
X10054Y77388
X9810Y112818
X14100Y106188
X14100Y106888
X14100Y107588
X14900Y108488
X14900Y111288
X10600Y98988
X18100Y84588
X20000Y86588
X19800Y84088
X2130Y117228
X10082Y109816
X11900Y104878
X11900Y105478
X10700Y105478
X10700Y104878
X14900Y109088
X15200Y77186
X12000Y99788
X13600Y104688
X10908Y77080
X8700Y103988
X12973Y77258
X12900Y100688
X10700Y119388
X7700Y77388
X8480Y125211
X11300Y88888
X13100Y113988
X12800Y129388
X10000Y128988
X7105Y127597
X18200Y127988
X7105Y126628
X7100Y122638
X7100Y123638
X10230Y121708
X7105Y129628
X7105Y128628
X4902Y84888
X5800Y96358
X8480Y123078
X5000Y103288
X11667Y110406
X8767Y117036
X4400Y84288
X5200Y95788
X9580Y123078
X5037Y100315
X5100Y104288
X10936Y110088
X8052Y116982
X10680Y123078
X9900Y117388
X17600Y122388
X6300Y110988
X13100Y117688
X18000Y121688
X6300Y109988
X13882Y117506
X18123Y120775
X6300Y109188
X14500Y117088
X16520Y118388
X8100Y108588
X6300Y108388
X13980Y126378
X11800Y117488
X6823Y121525
X4810Y121898
X4942Y120546
X6740Y96208
X8480Y126378
X6700Y104088
X13980Y123078
X17000Y92788
X9470Y115568
X9600Y123988
X9531Y127019
X8000Y107588
X6079Y122144
X13400Y108888
X6000Y125088
X6300Y111788
X8704Y112269
X8359Y128457
X5100Y128088
X2900Y85688
X2900Y101988
X33178Y43730
X2900Y110388
X13524Y112145
X13980Y127478
X6000Y116078
X11600Y118188
X33788Y88788
X40268Y126188
X29368Y115188
X32168Y114388
X30468Y81288
X26368Y79488
X36168Y126888
X34568Y129288
X37568Y129488
X29368Y131688
X29368Y134188
X31668Y130588
X39868Y131688
X39868Y134188
X42268Y131688
X42268Y128488
X32768Y99688
X29068Y101788
X29068Y98288
X35338Y106888
X34152Y124532
X32771Y122151
X42068Y80288
X37468Y121688
X26268Y112388
X23968Y114788
X23968Y117348
X23968Y119888
X29768Y120588
X33368Y85888
X37368Y87188
X41068Y90388
X39468Y100388
X23968Y109718
X23968Y107188
X23968Y104668
X23968Y102088
X23968Y112288
X27968Y105288
X28868Y94088
X31268Y94588
X44568Y133388
X25068Y133388
X45668Y119888
X45588Y117348
X45668Y114788
X45668Y112288
X45668Y109688
X45668Y107188
X45668Y104688
X45668Y102088
X45668Y99588
X45668Y96988
X45668Y94488
X41468Y119688
X34868Y115188
X39448Y108578
X31768Y121488
X39368Y94288
X39768Y83588
X25468Y85688
X25468Y88588
X37458Y77368
X28768Y70188
X40868Y70188
X43568Y77588
X25068Y122788
X32788Y105888
X32868Y103188
X31368Y73188
X31568Y70188
X38068Y70188
X38268Y73188
X36253Y73503
X40768Y73188
X34468Y73915
X35575Y73988
X33368Y72788
X35968Y72788
X34668Y72788
X37068Y79088
X38798Y85388
X37568Y91388
X37568Y90388
X37568Y89188
X33699Y91888
X39568Y95588
X40468Y130788
X40468Y130088
X40468Y129388
X33422Y77388
X33178Y112818
X37468Y106188
X37468Y106888
X37468Y107588
X38268Y108488
X38268Y111288
X33968Y98988
X41468Y84588
X43368Y86588
X43168Y84088
X25498Y117228
X33450Y109816
X35268Y104878
X35268Y105478
X34068Y105478
X34068Y104878
X38268Y109088
X38568Y77186
X35368Y99788
X36968Y104688
X34276Y77080
X32068Y103988
X36341Y77258
X36268Y100688
X34068Y119388
X31068Y77388
X31848Y125211
X34668Y88888
X36468Y113988
X36168Y129388
X33368Y128988
X30473Y127597
X41568Y127988
X30473Y126628
X30468Y122638
X30468Y123638
X33598Y121708
X30473Y129628
X30473Y128628
X28270Y84888
X29168Y96358
X31848Y123078
X28368Y103288
X35035Y110406
X32135Y117036
X27768Y84288
X28568Y95788
X32948Y123078
X28405Y100315
X28468Y104288
X34304Y110088
X31420Y116982
X34048Y123078
X33268Y117388
X40968Y122388
X29668Y110988
X36468Y117688
X41368Y121688
X29668Y109988
X37250Y117506
X41491Y120775
X29668Y109188
X37868Y117088
X39888Y118388
X31468Y108588
X29668Y108388
X37348Y126378
X35168Y117488
X30191Y121525
X28178Y121898
X28310Y120546
X30108Y96208
X31848Y126378
X30068Y104088
X37348Y123078
X40368Y92788
X32838Y115568
X32968Y123988
X32899Y127019
X31368Y107588
X29447Y122144
X36768Y108888
X29368Y125088
X29668Y111788
X32072Y112269
X31727Y128457
X28468Y128088
X26268Y85688
X26268Y101988
X28368Y122588
X26268Y110388
X36892Y112145
X37348Y127478
X29368Y116078
X34968Y118188
X57156Y88788
X63636Y126188
X52736Y115188
X55536Y114388
X53836Y81288
X49736Y79488
X59536Y126888
X57936Y129288
X60936Y129488
X52736Y131688
X52736Y134188
X55036Y130588
X63236Y131688
X63236Y134188
X65636Y131688
X65636Y128488
X56136Y99688
X52436Y101788
X52436Y98288
X58706Y106888
X57520Y124532
X56139Y122151
X65436Y80288
X60836Y121688
X49636Y112388
X47336Y114788
X47336Y117348
X47336Y119888
X53136Y120588
X56736Y85888
X60736Y87188
X64436Y90388
X62836Y100388
X47336Y109718
X47336Y107188
X47336Y104668
X47336Y102088
X47336Y112288
X51336Y105288
X52236Y94088
X54636Y94588
X67936Y133388
X48436Y133388
X69036Y119888
X68956Y117348
X69036Y114788
X69036Y112288
X69036Y109688
X69036Y107188
X69036Y104688
X69036Y102088
X69036Y99588
X69036Y96988
X69036Y94488
X64836Y119688
X58236Y115188
X62816Y108578
X55136Y121488
X62736Y94288
X63136Y83588
X48836Y85688
X48836Y88588
X60826Y77368
X52136Y70188
X64236Y70188
X66936Y77588
X48436Y122788
X56156Y105888
X56236Y103188
X54736Y73188
X54936Y70188
X61436Y70188
X61636Y73188
X59621Y73503
X64136Y73188
X57836Y73915
X58943Y73988
X56736Y72788
X59336Y72788
X58036Y72788
X60436Y79088
X62166Y85388
X60936Y91388
X60936Y90388
X60936Y89188
X57067Y91888
X62936Y95588
X63836Y130788
X63836Y130088
X63836Y129388
X56790Y77388
X56546Y112818
X60836Y106188
X60836Y106888
X60836Y107588
X61636Y108488
X61636Y111288
X57336Y98988
X64836Y84588
X66736Y86588
X66536Y84088
X48866Y117228
X56818Y109816
X58636Y104878
X58636Y105478
X57436Y105478
X57436Y104878
X61636Y109088
X61936Y77186
X58736Y99788
X60336Y104688
X57644Y77080
X55436Y103988
X59709Y77258
X59636Y100688
X57436Y119388
X54436Y77388
X55216Y125211
X58036Y88888
X59836Y113988
X59536Y129388
X56736Y128988
X53841Y127597
X64936Y127988
X53841Y126628
X53836Y122638
X53836Y123638
X56966Y121708
X53841Y129628
X53841Y128628
X51638Y84888
X52536Y96358
X55216Y123078
X51736Y103288
X58403Y110406
X55503Y117036
X51136Y84288
X51936Y95788
X56316Y123078
X51773Y100315
X51836Y104288
X57672Y110088
X54788Y116982
X57416Y123078
X56636Y117388
X64336Y122388
X53036Y110988
X59836Y117688
X64736Y121688
X53036Y109988
X60618Y117506
X64859Y120775
X53036Y109188
X61236Y117088
X63256Y118388
X54836Y108588
X53036Y108388
X60716Y126378
X58536Y117488
X53559Y121525
X51546Y121898
X51678Y120546
X53476Y96208
X55216Y126378
X53436Y104088
X60716Y123078
X63736Y92788
X56206Y115568
X56336Y123988
X56267Y127019
X54736Y107588
X52815Y122144
X60136Y108888
X52736Y125088
X53036Y111788
X55440Y112269
X55095Y128457
X51836Y128088
X49636Y85688
X49636Y101988
X51736Y122588
X49636Y110388
X60260Y112145
X60716Y127478
X52736Y116078
X58336Y118188
X80524Y88788
X87004Y126188
X76104Y115188
X78904Y114388
X77204Y81288
X73104Y79488
X82904Y126888
X81304Y129288
X84304Y129488
X76104Y131688
X76104Y134188
X78404Y130588
X86604Y131688
X86604Y134188
X89004Y131688
X89004Y128488
X79504Y99688
X75804Y101788
X75804Y98288
X82074Y106888
X80888Y124532
X79507Y122151
X88804Y80288
X84204Y121688
X73004Y112388
X70704Y114788
X70704Y117348
X70704Y119888
X76504Y120588
X80104Y85888
X84104Y87188
X87804Y90388
X86204Y100388
X70704Y109718
X70704Y107188
X70704Y104668
X70704Y102088
X70704Y112288
X74704Y105288
X75604Y94088
X78004Y94588
X91304Y133388
X71804Y133388
X92404Y119888
X92324Y117348
X92404Y114788
X92404Y112288
X92404Y109688
X92404Y107188
X92404Y104688
X92404Y102088
X92404Y99588
X92404Y96988
X92404Y94488
X88204Y119688
X81604Y115188
X86184Y108578
X78504Y121488
X86104Y94288
X86504Y83588
X72204Y85688
X72204Y88588
X84194Y77368
X75504Y70188
X87604Y70188
X90304Y77588
X71804Y122788
X79524Y105888
X79604Y103188
X78104Y73188
X78304Y70188
X84804Y70188
X85004Y73188
X82989Y73503
X87504Y73188
X81204Y73915
X82311Y73988
X80104Y72788
X82704Y72788
X81404Y72788
X83804Y79088
X85534Y85388
X84304Y91388
X84304Y90388
X84304Y89188
X80435Y91888
X86304Y95588
X87204Y130788
X87204Y130088
X87204Y129388
X80158Y77388
X79914Y112818
X84204Y106188
X84204Y106888
X84204Y107588
X85004Y108488
X85004Y111288
X80704Y98988
X88204Y84588
X90104Y86588
X89904Y84088
X72234Y117228
X80186Y109816
X82004Y104878
X82004Y105478
X80804Y105478
X80804Y104878
X85004Y109088
X85304Y77186
X82104Y99788
X83704Y104688
X81012Y77080
X78804Y103988
X83077Y77258
X83004Y100688
X80804Y119388
X77804Y77388
X78584Y125211
X81404Y88888
X83204Y113988
X82904Y129388
X80104Y128988
X77209Y127597
X88304Y127988
X77209Y126628
X77204Y122638
X77204Y123638
X80334Y121708
X77209Y129628
X77209Y128628
X75006Y84888
X75904Y96358
X78584Y123078
X75104Y103288
X81771Y110406
X78871Y117036
X74504Y84288
X75304Y95788
X79684Y123078
X75141Y100315
X75204Y104288
X81040Y110088
X78156Y116982
X80784Y123078
X80004Y117388
X87704Y122388
X76404Y110988
X83204Y117688
X88104Y121688
X76404Y109988
X83986Y117506
X88227Y120775
X76404Y109188
X84604Y117088
X86624Y118388
X78204Y108588
X76404Y108388
X84084Y126378
X81904Y117488
X76927Y121525
X74914Y121898
X75046Y120546
X76844Y96208
X78584Y126378
X76804Y104088
X84084Y123078
X87104Y92788
X79574Y115568
X79704Y123988
X79635Y127019
X78104Y107588
X76183Y122144
X83504Y108888
X76104Y125088
X76404Y111788
X78808Y112269
X78463Y128457
X10420Y19700
X73004Y85688
X73004Y101988
X75104Y122588
X73004Y110388
X83628Y112145
X84084Y127478
X76104Y116078
X81704Y118188
X103892Y88788
X110372Y126188
X99472Y115188
X102272Y114388
X100572Y81288
X96472Y79488
X106272Y126888
X104672Y129288
X107672Y129488
X99472Y131688
X99472Y134188
X101772Y130588
X109972Y131688
X109972Y134188
X112372Y131688
X112372Y128488
X102872Y99688
X99172Y101788
X99172Y98288
X105442Y106888
X104256Y124532
X102875Y122151
X112172Y80288
X107572Y121688
X96372Y112388
X94072Y114788
X94072Y117348
X94072Y119888
X99872Y120588
X103472Y85888
X107472Y87188
X111172Y90388
X109572Y100388
X94072Y109718
X94072Y107188
X94072Y104668
X94072Y102088
X94072Y112288
X98072Y105288
X98972Y94088
X101372Y94588
X114672Y133388
X95172Y133388
X115772Y119888
X115692Y117348
X115772Y114788
X115772Y112288
X115772Y109688
X115772Y107188
X115772Y104688
X115772Y102088
X115772Y99588
X115772Y96988
X115772Y94488
X111572Y119688
X104972Y115188
X109552Y108578
X101872Y121488
X109472Y94288
X109872Y83588
X95572Y85688
X95572Y88588
X107562Y77368
X98872Y70188
X110972Y70188
X113672Y77588
X95172Y122788
X102892Y105888
X102972Y103188
X101472Y73188
X101672Y70188
X108172Y70188
X108372Y73188
X106357Y73503
X110872Y73188
X104572Y73915
X105679Y73988
X103472Y72788
X106072Y72788
X104772Y72788
X107172Y79088
X108902Y85388
X107672Y91388
X107672Y90388
X107672Y89188
X103803Y91888
X109672Y95588
X110572Y130788
X110572Y130088
X110572Y129388
X103526Y77388
X103282Y112818
X107572Y106188
X107572Y106888
X107572Y107588
X108372Y108488
X108372Y111288
X104072Y98988
X111572Y84588
X113472Y86588
X113272Y84088
X95602Y117228
X103554Y109816
X105372Y104878
X105372Y105478
X104172Y105478
X104172Y104878
X108372Y109088
X108672Y77186
X105472Y99788
X107072Y104688
X104380Y77080
X102172Y103988
X106445Y77258
X106372Y100688
X104172Y119388
X101172Y77388
X101952Y125211
X104772Y88888
X106572Y113988
X106272Y129388
X103472Y128988
X100577Y127597
X111672Y127988
X100577Y126628
X100572Y122638
X100572Y123638
X103702Y121708
X100577Y129628
X100577Y128628
X98374Y84888
X99272Y96358
X101952Y123078
X98472Y103288
X105139Y110406
X102239Y117036
X97872Y84288
X98672Y95788
X103052Y123078
X98509Y100315
X98572Y104288
X104408Y110088
X101524Y116982
X104152Y123078
X103372Y117388
X111072Y122388
X99772Y110988
X106572Y117688
X111472Y121688
X99772Y109988
X107354Y117506
X111595Y120775
X99772Y109188
X107972Y117088
X109992Y118388
X101572Y108588
X99772Y108388
X107452Y126378
X105272Y117488
X100295Y121525
X98282Y121898
X98414Y120546
X100212Y96208
X101952Y126378
X100172Y104088
X107452Y123078
X110472Y92788
X102942Y115568
X103072Y123988
X103003Y127019
X101472Y107588
X99551Y122144
X106872Y108888
X99472Y125088
X99772Y111788
X102176Y112269
X101831Y128457
X98572Y128088
X96372Y85688
X96372Y101988
X98472Y122588
X96372Y110388
X106996Y112145
X107452Y127478
X99472Y116078
X105072Y118188
X16900Y57100
X6000Y46100
X8800Y45300
X7100Y12200
X3000Y10400
X12800Y57800
X11200Y60200
X14200Y60400
X6000Y62600
X6000Y65100
X8300Y61500
X16500Y62600
X16500Y65100
X18900Y62600
X18900Y59400
X9400Y30600
X5700Y32700
X5700Y29200
X11970Y37800
X10784Y55444
X9403Y53063
X18700Y11200
X14100Y52600
X2900Y43300
X600Y45700
X600Y48260
X600Y50800
X6400Y51500
X10000Y16800
X14000Y18100
X17700Y21300
X16100Y31300
X600Y40630
X600Y38100
X600Y35580
X600Y33000
X600Y43200
X4600Y36200
X5500Y25000
X7900Y25500
X21200Y64300
X1700Y64300
X22300Y50800
X22220Y48260
X22300Y45700
X22300Y43200
X22300Y40600
X22300Y38100
X22300Y35600
X22300Y33000
X22300Y30500
X22300Y27900
X22300Y25400
X18100Y50600
X11500Y46100
X16080Y39490
X8400Y52400
X16000Y25200
X16400Y14500
X2100Y16600
X2100Y19500
X14090Y8280
X5400Y1100
X17500Y1100
X20200Y8500
X1700Y53700
X9420Y36800
X9500Y34100
X8000Y4100
X8200Y1100
X14700Y1100
X14900Y4100
X12885Y4415
X17400Y4100
X11100Y4827
X12207Y4900
X10000Y3700
X12600Y3700
X11300Y3700
X13700Y10000
X15430Y16300
X14200Y22300
X5000Y122588
X14200Y21300
X14200Y20100
X10331Y22800
X16200Y26500
X17100Y61700
X17100Y61000
X17100Y60300
X10054Y8300
X9810Y43730
X14100Y37100
X14100Y37800
X14100Y38500
X14900Y39400
X14900Y42200
X10600Y29900
X18100Y15500
X20000Y17500
X19800Y15000
X2130Y48140
X10082Y40728
X11900Y35790
X11900Y36390
X10700Y36390
X10700Y35790
X14900Y40000
X15200Y8098
X12000Y30700
X13600Y35600
X10908Y7992
X8700Y34900
X12973Y8170
X12900Y31600
X10700Y50300
X7700Y8300
X8480Y56123
X11300Y19800
X13100Y44900
X12800Y60300
X10000Y59900
X7105Y58509
X18200Y58900
X7105Y57540
X7100Y53550
X7100Y54550
X10230Y52620
X7105Y60540
X7105Y59540
X4902Y15800
X5800Y27270
X8480Y53990
X5000Y34200
X11667Y41318
X8767Y47948
X4400Y15200
X5200Y26700
X9580Y53990
X5037Y31227
X5100Y35200
X10936Y41000
X8052Y47894
X10680Y53990
X9900Y48300
X17600Y53300
X6300Y41900
X13100Y48600
X18000Y52600
X6300Y40900
X13882Y48418
X18123Y51687
X6300Y40100
X14500Y48000
X16520Y49300
X8100Y39500
X6300Y39300
X13980Y57290
X11800Y48400
X6823Y52437
X4810Y52810
X4942Y51458
X6740Y27120
X8480Y57290
X6700Y35000
X13980Y53990
X17000Y23700
X9470Y46480
X9600Y54900
X9531Y57931
X8000Y38500
X6079Y53056
X13400Y39800
X6000Y56000
X6300Y42700
X8704Y43181
X8359Y59369
X5100Y59000
X2900Y16600
X2900Y32900
X5000Y53500
X2900Y41300
X13524Y43057
X13980Y58390
X6000Y46990
X11600Y49100
X33788Y19700
X40268Y57100
X29368Y46100
X32168Y45300
X30468Y12200
X26368Y10400
X36168Y57800
X34568Y60200
X37568Y60400
X29368Y62600
X29368Y65100
X31668Y61500
X39868Y62600
X39868Y65100
X42268Y62600
X42268Y59400
X32768Y30600
X29068Y32700
X29068Y29200
X35338Y37800
X34152Y55444
X32771Y53063
X42068Y11200
X37468Y52600
X26268Y43300
X23968Y45700
X23968Y48260
X23968Y50800
X29768Y51500
X33368Y16800
X37368Y18100
X41068Y21300
X39468Y31300
X23968Y40630
X23968Y38100
X23968Y35580
X23968Y33000
X23968Y43200
X27968Y36200
X28868Y25000
X31268Y25500
X44568Y64300
X25068Y64300
X45668Y50800
X45588Y48260
X45668Y45700
X45668Y43200
X45668Y40600
X45668Y38100
X45668Y35600
X45668Y33000
X45668Y30500
X45668Y27900
X45668Y25400
X41468Y50600
X34868Y46100
X39448Y39490
X31768Y52400
X39368Y25200
X39768Y14500
X25468Y16600
X25468Y19500
X37458Y8280
X28768Y1100
X40868Y1100
X43568Y8500
X25068Y53700
X32788Y36800
X32868Y34100
X31368Y4100
X31568Y1100
X38068Y1100
X38268Y4100
X36253Y4415
X40768Y4100
X34468Y4827
X35575Y4900
X33368Y3700
X35968Y3700
X34668Y3700
X37068Y10000
X38798Y16300
X37568Y22300
X37568Y21300
X37568Y20100
X33699Y22800
X39568Y26500
X40468Y61700
X40468Y61000
X40468Y60300
X33422Y8300
X37468Y37100
X37468Y37800
X37468Y38500
X38268Y39400
X38268Y42200
X33968Y29900
X41468Y15500
X43368Y17500
X43168Y15000
X25498Y48140
X33450Y40728
X35268Y35790
X35268Y36390
X34068Y36390
X34068Y35790
X38268Y40000
X38568Y8098
X35368Y30700
X36968Y35600
X34276Y7992
X32068Y34900
X36341Y8170
X36268Y31600
X34068Y50300
X31068Y8300
X31848Y56123
X34668Y19800
X36468Y44900
X36168Y60300
X33368Y59900
X30473Y58509
X41568Y58900
X30473Y57540
X30468Y53550
X30468Y54550
X33598Y52620
X30473Y60540
X30473Y59540
X28270Y15800
X29168Y27270
X31848Y53990
X28368Y34200
X35035Y41318
X32135Y47948
X27768Y15200
X28568Y26700
X32948Y53990
X28405Y31227
X28468Y35200
X34304Y41000
X31420Y47894
X34048Y53990
X33268Y48300
X40968Y53300
X29668Y41900
X36468Y48600
X41368Y52600
X29668Y40900
X37250Y48418
X41491Y51687
X29668Y40100
X37868Y48000
X39888Y49300
X31468Y39500
X29668Y39300
X37348Y57290
X35168Y48400
X30191Y52437
X28178Y52810
X28310Y51458
X30108Y27120
X31848Y57290
X30068Y35000
X37348Y53990
X40368Y23700
X32838Y46480
X32968Y54900
X32899Y57931
X31368Y38500
X29447Y53056
X36768Y39800
X29368Y56000
X75204Y128088
M30